<svg width="32" height="32" viewBox="0 0 32 32" fill="none" xmlns="http://www.w3.org/2000/svg">
<path fill-rule="evenodd" clip-rule="evenodd" d="M30.4 15.9996C30.4 23.9542 23.9524 30.3996 16 30.3996C8.04756 30.3996 1.59998 23.9542 1.59998 15.9996C1.59998 8.04965 8.04756 1.59961 16 1.59961C23.9524 1.59961 30.4 8.04965 30.4 15.9996Z" fill="#ED3963"/>
<path fill-rule="evenodd" clip-rule="evenodd" d="M13.8949 17.1989L13.4642 9.30207C13.4424 8.90301 13.7601 8.56738 14.1599 8.56738H17.8402C18.2398 8.56738 18.5576 8.90301 18.5358 9.30207L18.1052 17.1989C18.085 17.5684 17.7795 17.8577 17.4094 17.8577H14.5907C14.2205 17.8577 13.915 17.5684 13.8949 17.1989ZM13.329 21.574C13.329 20.0989 14.5249 18.903 16.0001 18.903C17.4752 18.903 18.6711 20.0989 18.6711 21.574C18.6711 23.0492 17.4752 24.2451 16.0001 24.2451C14.5249 24.2451 13.329 23.0492 13.329 21.574Z" fill="white"/>
</svg>
