<svg xmlns="http://www.w3.org/2000/svg" xmlns:xlink="http://www.w3.org/1999/xlink" width="22" height="22" viewBox="0 0 22 22">
    <defs>
        <path id="a" d="M0 0h22v22H0z"/>
    </defs>
    <g fill="none" fill-rule="evenodd">
        <path fill="#FFF" d="M11 19.614c-.435 0-.872-.033-1.3-.097l-.143-.022-.034-.141c-1.084-4.501-4.862-6.998-7.018-8.085l-.117-.06L2.386 11c0-1.046.186-2.069.553-3.04l.026-.07.063-.039C4.215 7.13 6.83 5.917 11 5.917c3.868 0 6.546.97 7.798 1.547l.074.034.033.076a8.554 8.554 0 0 1 .704 3.72l-.005.149-.141.048c-2.217.759-4.011 2.108-5.333 4.009a11.942 11.942 0 0 0-1.754 3.869l-.035.142-.145.02a8.712 8.712 0 0 1-1.196.083"/>
        <path fill="#E8E8E8" d="M18.266 7.645c-.987-.538-3.569-1.435-7.018-1.435-.213 0-.42.004-.623.01 3.097.1 6.453 1.49 6.923 1.784.47.294.449 3.14.449 3.14l-.482.126c-3.106 1.308-5.528 5.704-5.708 7.587.27 0 .449-.09.449-.09.18-1.524 1.011-2.524 1.963-3.922 1.176-1.728 3.06-2.895 4.486-3.485l.126-.043s.152-2.147-.565-3.672"/>
        <path fill="#10176B" d="M11 5.701c-4.223 0-6.878 1.232-8.084 1.966l-.127.077-.052.14a8.797 8.797 0 0 0-.566 3.169v.027l.003.263.234.118c.992.5 2.457 1.372 3.807 2.683 1.586 1.54 2.629 3.31 3.099 5.26l.067.282.287.044a8.938 8.938 0 0 0 2.558.015l.29-.04.07-.285a11.72 11.72 0 0 1 1.722-3.797c1.294-1.863 3.052-3.184 5.225-3.928l.281-.096.01-.298a8.77 8.77 0 0 0-.721-3.813l-.066-.151-.149-.069C17.62 6.683 14.909 5.701 11 5.701m0 .432c3.778 0 6.393.92 7.707 1.527a8.37 8.37 0 0 1 .686 3.627c-5.264 1.802-6.833 6.427-7.227 8.03a8.455 8.455 0 0 1-2.433-.014c-1.12-4.647-5.085-7.195-7.13-8.227L2.602 11c0-1.044.19-2.043.538-2.965C4.194 7.395 6.8 6.133 11 6.133"/>
        <path fill="#FFF" d="M11 19.398a8.398 8.398 0 1 1 0-16.796 8.398 8.398 0 0 1 0 16.796M11 .216C5.044.216.216 5.044.216 11S5.044 21.784 11 21.784 21.784 16.956 21.784 11 16.956.216 11 .216"/>
        <g>
            <mask id="b" fill="#fff">
                <use xlink:href="#a"/>
            </mask>
            <path fill="#10176B" d="M11 2.817c-4.512 0-8.183 3.671-8.183 8.183 0 4.512 3.671 8.183 8.183 8.183 4.512 0 8.183-3.671 8.183-8.183 0-4.512-3.671-8.183-8.183-8.183m0 16.797c-4.75 0-8.614-3.864-8.614-8.614 0-4.75 3.864-8.614 8.614-8.614 4.75 0 8.614 3.864 8.614 8.614 0 4.75-3.864 8.614-8.614 8.614M11 .431C5.172.431.431 5.172.431 11c0 5.828 4.741 10.569 10.569 10.569 5.828 0 10.569-4.741 10.569-10.569C21.569 5.172 16.828.431 11 .431M11 22C4.935 22 0 17.065 0 11S4.935 0 11 0s11 4.935 11 11-4.935 11-11 11" mask="url(#b)"/>
        </g>
        <path fill="#E8E8E8" d="M11.183.778c-.1 0-.198.002-.297.005C16.393.94 20.81 5.454 20.81 11s-4.417 10.06-9.924 10.217c.099.003.198.005.297.005 5.646 0 10.222-4.577 10.222-10.222S16.83.778 11.183.778"/>
        <path fill="#00B1FF" d="M12.467 11.43a1.64 1.64 0 1 1-3.279 0 1.64 1.64 0 0 1 3.279 0"/>
    </g>
</svg>
