<svg xmlns="http://www.w3.org/2000/svg" xmlns:xlink="http://www.w3.org/1999/xlink" width="22" height="22" viewBox="0 0 22 22">
    <defs>
        <path id="a" d="M0 .017h22v9.016H0z"/>
    </defs>
    <g fill="none" fill-rule="evenodd">
        <path fill="#00B1FF" d="M8.577 16.805l6.074-8.593-4.705 9.413a.8.8 0 1 1-1.37-.82"/>
        <g transform="translate(0 3.811)">
            <mask id="b" fill="#fff">
                <use xlink:href="#a"/>
            </mask>
            <path fill="#10176B" d="M21.232 9.033a.768.768 0 0 1-.73-.531 10.017 10.017 0 0 0-9.559-6.95 10.073 10.073 0 0 0-9.453 6.64.767.767 0 1 1-1.444-.52A11.611 11.611 0 0 1 10.943.017c5.041 0 9.47 3.22 11.02 8.013a.767.767 0 0 1-.73 1.003" mask="url(#b)"/>
        </g>
        <path fill="#E8E8E8" d="M20.502 12.313a10.017 10.017 0 0 0-9.884-6.944 10.014 10.014 0 0 1 9.237 6.944.768.768 0 0 0 1.054.46.765.765 0 0 1-.407-.46"/>
    </g>
</svg>
