<svg xmlns="http://www.w3.org/2000/svg" xmlns:xlink="http://www.w3.org/1999/xlink" width="22" height="22" viewBox="0 0 22 22">
    <defs>
        <path id="a" d="M0 0h17.682v22H0z"/>
    </defs>
    <g fill="none" fill-rule="evenodd">
        <path fill="#FFF" d="M18.372.216H3.712c-.706 0-1.278.571-1.278 1.277l-.018 19.475a.637.637 0 0 0 .636.636.634.634 0 0 0 .484-.225l.946-1.117a.175.175 0 0 1 .267 0l.968 1.14a.634.634 0 0 0 .97 0l.967-1.14a.175.175 0 0 1 .267 0l.969 1.141a.632.632 0 0 0 .485.217.63.63 0 0 0 .484-.217l.969-1.142a.175.175 0 0 1 .267 0l.967 1.142a.634.634 0 0 0 .485.217.63.63 0 0 0 .484-.217L14 20.261a.175.175 0 0 1 .267 0l.956 1.128a.637.637 0 0 0 .982.016l.971-1.144a.175.175 0 0 1 .267 0l1.087 1.28c.119.14.288.234.471.243a.637.637 0 0 0 .666-.635L19.65 1.493C19.65.787 19.078.216 18.372.216"/>
        <g transform="translate(2.2)">
            <mask id="b" fill="#fff">
                <use xlink:href="#a"/>
            </mask>
            <path fill="#10176B" d="M15.11 19.983a.39.39 0 0 1 .297.138l1.087 1.28a.453.453 0 0 0 .317.167.421.421 0 0 0 .44-.42l-.016-19.655c0-.585-.477-1.062-1.063-1.062H1.512C.926.431.45.908.449 1.493L.431 20.97c0 .175.11.334.275.394.162.058.353.01.465-.123l.947-1.117a.39.39 0 0 1 .596 0l.967 1.14a.416.416 0 0 0 .64 0l.969-1.141a.39.39 0 0 1 .596 0l.968 1.142c.076.09.193.14.32.14a.415.415 0 0 0 .32-.14l.97-1.142a.39.39 0 0 1 .596 0l.967 1.142c.076.089.193.14.32.14a.415.415 0 0 0 .32-.14l.968-1.142a.39.39 0 0 1 .596 0l.957 1.127a.452.452 0 0 0 .229.151.422.422 0 0 0 .424-.135l.97-1.144a.39.39 0 0 1 .299-.138M16.832 22h-.04a.884.884 0 0 1-.627-.32l-1.055-1.243-.94 1.107a.85.85 0 0 1-1.311-.016l-.926-1.09-.937 1.105a.845.845 0 0 1-.649.293.85.85 0 0 1-.649-.293l-.937-1.105-.938 1.105a.845.845 0 0 1-.648.293.847.847 0 0 1-.65-.293l-.937-1.106-.938 1.106a.849.849 0 0 1-1.299-.002l-.935-1.103-.916 1.08a.85.85 0 0 1-1.5-.55L.018 1.493C.018.67.688 0 1.512 0h14.66c.823 0 1.494.67 1.494 1.493l.016 19.656a.853.853 0 0 1-.85.851" mask="url(#b)"/>
        </g>
        <path fill="#E8E8E8" d="M19.188 1.919c0-.666-.377-1.206-.842-1.206h-.955c.465 0 .842.54.843 1.206l.01 18.562v.02l.206.35c.078.131.19.221.31.23a.302.302 0 0 0 .165-.037c.164-.086.274-.313.274-.563l-.01-18.562z"/>
        <path fill="#00B1FF" d="M7.807 3.543v.65c.294.031.554.11.787.241l.163.091-.329.826-.21-.113a1.53 1.53 0 0 0-.768-.197c-.382 0-.519.181-.519.351 0 .184.104.307.72.55.56.216 1.204.57 1.204 1.395 0 .618-.43 1.116-1.09 1.286v.72h-.857v-.674c-.365-.037-.727-.153-.963-.312l-.138-.094.316-.838.22.139c.246.155.575.249.88.249.364 0 .609-.174.609-.43 0-.174-.078-.364-.644-.582-.628-.234-1.273-.576-1.273-1.33 0-.599.403-1.066 1.04-1.228v-.7h.852zM15.572 11.908c.322 0 .601.228.65.532a.638.638 0 0 1-.628.742H6.088a.654.654 0 0 1-.65-.532.638.638 0 0 1 .628-.742h9.506zM9.179 14.534c.322 0 .601.228.65.531a.638.638 0 0 1-.627.743H6.07a.654.654 0 0 1-.65-.532.638.638 0 0 1 .627-.742H9.18z"/>
    </g>
</svg>
