<svg width="80" height="80" viewBox="0 0 80 80" fill="none" xmlns="http://www.w3.org/2000/svg">
<g clip-path="url(#clip0_7510:11644)">
<path d="M0 40C0 17.9086 17.9086 0 40 0C62.0914 0 80 17.9086 80 40C80 62.0914 62.0914 80 40 80C17.9086 80 0 62.0914 0 40Z" fill="#F7F7F7"/>
<path d="M54.6923 90.5379H16.1538C14 90.5379 12.3077 88.8456 12.3077 86.6917V32.3071C12.3077 30.1532 14 28.4609 16.1538 28.4609H54.6923C56.8461 28.4609 58.5384 30.1532 58.5384 32.3071V86.6148C58.5384 88.7686 56.7692 90.5379 54.6923 90.5379Z" fill="white" stroke="#202020" stroke-miterlimit="10" stroke-linejoin="round"/>
<path d="M58.3077 87.2302H19.7692C17.6154 87.2302 15.9231 85.5379 15.9231 83.3841V28.9995C15.9231 26.8456 17.6154 25.1533 19.7692 25.1533H58.3077C60.4616 25.1533 62.1539 26.8456 62.1539 28.9995V83.3072C62.1539 85.5379 60.3846 87.2302 58.3077 87.2302Z" fill="white" stroke="#202020" stroke-miterlimit="10" stroke-linejoin="round"/>
<path d="M67.5384 48.692V79.0766C67.5384 80.9997 66 82.5382 64.0769 82.5382H23.8461C21.923 82.5382 20.3846 80.9997 20.3846 79.0766V22.692C20.3846 20.7689 21.923 19.2305 23.8461 19.2305H55.1538L67.5384 31.6151V48.692Z" fill="white" stroke="#202020" stroke-miterlimit="10" stroke-linejoin="round"/>
<path d="M32.3846 37.8458H25.6923C24.3846 37.8458 23.3846 36.8458 23.3846 35.5381V28.8458C23.3846 27.5381 24.3846 26.5381 25.6923 26.5381H32.3846C33.6923 26.5381 34.6923 27.5381 34.6923 28.8458V35.5381C34.6923 36.8458 33.6923 37.8458 32.3846 37.8458Z" fill="#ECECEC"/>
<path d="M52.1538 48.6916H25.923C25.0769 48.6916 24.4615 47.9993 24.4615 47.2301V46.2301C24.4615 45.3839 25.1538 44.7686 25.923 44.7686H52.1538C52.9999 44.7686 53.6153 45.4609 53.6153 46.2301V47.2301C53.6153 48.0762 52.923 48.6916 52.1538 48.6916Z" fill="#ECECEC"/>
<path d="M52.1538 55.7688H25.923C25.0769 55.7688 24.4615 55.0765 24.4615 54.3072V53.3072C24.4615 52.4611 25.1538 51.8457 25.923 51.8457H52.1538C52.9999 51.8457 53.6153 52.538 53.6153 53.3072V54.3072C53.6153 55.0765 52.923 55.7688 52.1538 55.7688Z" fill="#ECECEC"/>
<path d="M61.1538 71.3846C61 71.0769 60.6923 70.7692 60.3846 70.5385C60.0769 70.3077 59.7692 70.1538 59.3846 70C59.0769 69.9231 58.8461 69.7692 58.5384 69.6923V67.7692C58.6923 67.7692 58.7692 67.8462 58.8461 67.9231C59 68.0769 59.0769 68.3077 59.0769 68.6154V68.9231H61.1538V68.5385C61.1538 68.0769 61.0769 67.6923 60.923 67.3077C60.7692 66.9231 60.5384 66.6923 60.2307 66.4615C59.923 66.2308 59.6153 66.0769 59.2307 65.9231C59 65.8462 58.6923 65.7692 58.4615 65.7692V65H57.3077V66C57 66 56.7692 66.0769 56.5384 66.1538C56.1538 66.3077 55.8461 66.4615 55.5384 66.6923C55.2307 66.9231 55 67.2308 54.8461 67.5385C54.6923 67.8462 54.6153 68.3077 54.6153 68.6923C54.6153 69.2308 54.6923 69.6154 54.923 70C55.0769 70.3077 55.3846 70.6154 55.6923 70.8462C56 71.0769 56.3077 71.2308 56.6923 71.3846C56.923 71.4615 57.2307 71.5385 57.4615 71.6154V73.9231C57.2307 73.8462 57 73.7692 56.923 73.6154C56.7692 73.3846 56.6153 73 56.6153 72.5385V72.1538H54.5384V72.5385C54.5384 73.0769 54.6153 73.4615 54.7692 73.8462C54.923 74.2308 55.1538 74.6154 55.4615 74.8462C55.7692 75.1538 56.0769 75.3077 56.5384 75.4615C56.8461 75.5385 57.1538 75.6154 57.5384 75.6923V76.6923H58.7692V75.6923C59.0769 75.6923 59.3846 75.6154 59.6923 75.4615C60.0769 75.3077 60.4615 75.1538 60.6923 74.8462C61 74.6154 61.2307 74.2308 61.3846 73.8462C61.5384 73.4615 61.6153 73 61.6153 72.5385C61.4615 72.1538 61.3846 71.7692 61.1538 71.3846ZM57.3077 69.3846C57.1538 69.3077 57.0769 69.3077 57 69.2308C56.923 69.1538 56.8461 69.0769 56.7692 69C56.6923 68.9231 56.6923 68.8462 56.6923 68.6923C56.6923 68.3846 56.7692 68.1538 56.923 68.0769C57 68 57.1538 67.9231 57.3846 67.9231L57.3077 69.3846ZM58.5384 71.9231C58.6153 71.9231 58.6153 72 58.5384 71.9231C58.7692 72 58.923 72.0769 59 72.1538C59.0769 72.2308 59.1538 72.3077 59.2307 72.4615C59.3077 72.5385 59.3077 72.6923 59.3077 72.8462C59.3077 73.2308 59.2307 73.4615 59 73.6154C58.8461 73.6923 58.6923 73.8462 58.4615 73.8462V71.9231H58.5384Z" fill="#ECECEC"/>
<path d="M52.923 71.3846C52.7692 71.0769 52.4615 70.7692 52.1538 70.5385C51.8461 70.3077 51.5384 70.1538 51.1538 70C50.8461 69.9231 50.6153 69.7692 50.3076 69.6923V67.7692C50.4615 67.7692 50.5384 67.8462 50.6153 67.9231C50.7692 68.0769 50.8461 68.3077 50.8461 68.6154V68.9231H52.923V68.5385C52.923 68.0769 52.8461 67.6923 52.6923 67.3077C52.5384 66.9231 52.3076 66.6923 51.9999 66.4615C51.6923 66.2308 51.3846 66.0769 50.9999 65.9231C50.7692 65.8462 50.4615 65.7692 50.2307 65.7692V65H48.9999V66C48.6923 66 48.4615 66.0769 48.2307 66.1538C47.8461 66.3077 47.5384 66.4615 47.2307 66.6923C46.923 66.9231 46.6923 67.2308 46.5384 67.5385C46.3846 67.8462 46.3076 68.3077 46.3076 68.6923C46.3076 69.2308 46.3846 69.6154 46.6153 70C46.7692 70.3077 47.0769 70.6154 47.3846 70.8462C47.6923 71.0769 47.9999 71.2308 48.3846 71.3846C48.6153 71.4615 48.923 71.5385 49.1538 71.6154V73.9231C48.923 73.8462 48.6923 73.7692 48.6153 73.6154C48.4615 73.3846 48.3076 73 48.3076 72.5385V72.1538H46.2307V72.5385C46.2307 73.0769 46.3076 73.4615 46.4615 73.8462C46.6153 74.2308 46.8461 74.6154 47.1538 74.8462C47.4615 75.1538 47.7692 75.3077 48.2307 75.4615C48.5384 75.5385 48.8461 75.6154 49.2307 75.6923V76.6923H50.4615V75.6923C50.7692 75.6923 51.0769 75.6154 51.3846 75.4615C51.7692 75.3077 52.1538 75.1538 52.3846 74.8462C52.6923 74.6154 52.923 74.2308 53.0769 73.8462C53.2307 73.4615 53.3076 73 53.3076 72.5385C53.2307 72.1538 53.1538 71.7692 52.923 71.3846ZM49.0769 69.3846C48.923 69.3077 48.8461 69.3077 48.7692 69.2308C48.6923 69.1538 48.6153 69.0769 48.5384 69C48.4615 68.9231 48.4615 68.8462 48.4615 68.6923C48.4615 68.3846 48.5384 68.1538 48.6923 68.0769C48.7692 68 48.923 67.9231 49.1538 67.9231L49.0769 69.3846ZM50.3076 71.9231C50.3846 71.9231 50.3846 72 50.3076 71.9231C50.5384 72 50.6923 72.0769 50.7692 72.1538C50.8461 72.2308 50.923 72.3077 50.9999 72.4615C51.0769 72.5385 51.0769 72.6923 51.0769 72.8462C51.0769 73.2308 50.9999 73.4615 50.7692 73.6154C50.6153 73.6923 50.4615 73.8462 50.2307 73.8462V71.9231H50.3076Z" fill="#ECECEC"/>
<path d="M55.1538 19.2305V29.6151C55.1538 30.7689 56.0769 31.692 57.2307 31.692H67.5384L55.1538 19.2305Z" fill="white" stroke="#202020" stroke-miterlimit="10" stroke-linejoin="round"/>
</g>
<defs>
<clipPath id="clip0_7510:11644">
<path d="M0 40C0 17.9086 17.9086 0 40 0C62.0914 0 80 17.9086 80 40C80 62.0914 62.0914 80 40 80C17.9086 80 0 62.0914 0 40Z" fill="white"/>
</clipPath>
</defs>
</svg>
