<svg xmlns="http://www.w3.org/2000/svg" xmlns:xlink="http://www.w3.org/1999/xlink" width="22" height="23" viewBox="0 0 22 23">
    <defs>
        <path id="a" d="M0 .08h22v15.392H0z"/>
    </defs>
    <g fill="none" fill-rule="evenodd">
        <path fill="#FFF" d="M1.095 18.479a.88.88 0 0 1-.88-.88V4.397a.88.88 0 0 1 .88-.88h19.81a.88.88 0 0 1 .88.88V17.6a.88.88 0 0 1-.88.88H1.095z"/>
        <g transform="translate(0 3.222)">
            <mask id="b" fill="#fff">
                <use xlink:href="#a"/>
            </mask>
            <path fill="#10176B" d="M1.095.511a.665.665 0 0 0-.664.664v13.202c0 .366.298.664.664.664h19.81a.665.665 0 0 0 .664-.664V1.175a.665.665 0 0 0-.664-.664H1.095zm19.81 14.961H1.095A1.097 1.097 0 0 1 0 14.377V1.175C0 .571.491.08 1.095.08h19.81C21.509.08 22 .57 22 1.175v13.202c0 .604-.491 1.095-1.095 1.095z" mask="url(#b)"/>
        </g>
        <path fill="#E8E8E8" d="M20.561 3.98H19.38c.384 0 .695.37.695.825v12.386c0 .456-.311.825-.695.825h1.181c.384 0 .696-.37.696-.825V4.805c0-.455-.312-.825-.696-.825"/>
        <path fill="#00B1FF" d="M3.38 20.65a.34.34 0 0 1-.252-.567l.806-.892a.34.34 0 0 1 .252-.112h13.667a.34.34 0 0 1 .252.112l.767.849a.34.34 0 0 1-.503.455l-.667-.737H4.337l-.705.78a.339.339 0 0 1-.252.112"/>
        <path fill="#00B1FF" d="M1.017 18.654h2.957L14.417 3.286h-3.035z" opacity=".2"/>
    </g>
</svg>
