<svg xmlns="http://www.w3.org/2000/svg" width="140" height="140" viewBox="0 0 140 140">
    <g fill="none" fill-rule="evenodd">
        <path fill="#FAFAFA" d="M123.688 84.389l-95.971 33.628a5.809 5.809 0 0 1-7.404-3.562L.707 58.504a5.81 5.81 0 0 1 3.563-7.405l95.97-33.627a5.81 5.81 0 0 1 7.405 3.561l19.606 55.952a5.81 5.81 0 0 1-3.563 7.404"/>
        <path fill="#000" d="M102.157 17.525c-.594 0-1.198.098-1.79.305L4.396 51.458a5.436 5.436 0 0 0-3.33 6.92l19.606 55.952a5.396 5.396 0 0 0 2.77 3.097 5.406 5.406 0 0 0 4.149.231l95.971-33.628a5.436 5.436 0 0 0 3.33-6.92L107.286 21.16a5.44 5.44 0 0 0-5.13-3.634M25.79 118.728a6.167 6.167 0 0 1-2.68-.616 6.148 6.148 0 0 1-3.158-3.531L.35 58.629a6.198 6.198 0 0 1 3.795-7.889l95.97-33.627a6.143 6.143 0 0 1 4.732.264 6.146 6.146 0 0 1 3.158 3.53l19.606 55.951a6.199 6.199 0 0 1-3.796 7.89l-.126-.36.126.36-95.971 33.628a6.21 6.21 0 0 1-2.052.352"/>
        <path d="M7.148 77.226L114.297 39.68l-4.357-12.433L2.792 64.793z"/>
        <path fill="#0584FF" fill-rule="nonzero" d="M7.455 76.589l-4.026-11.49 106.205-37.215 4.025 11.49z"/>
        <path fill="#FFF" d="M133.086 122.98H31.393a5.81 5.81 0 0 1-5.81-5.81V57.884a5.81 5.81 0 0 1 5.81-5.81h101.693a5.81 5.81 0 0 1 5.81 5.81v59.286a5.81 5.81 0 0 1-5.81 5.81"/>
        <path fill="#000" d="M31.393 52.454a5.436 5.436 0 0 0-5.43 5.43v59.286a5.435 5.435 0 0 0 5.43 5.429h101.693a5.435 5.435 0 0 0 5.43-5.429V57.884a5.436 5.436 0 0 0-5.43-5.43H31.393zm101.693 70.906H31.393a6.197 6.197 0 0 1-6.19-6.19V57.884a6.198 6.198 0 0 1 6.19-6.191h101.693a6.198 6.198 0 0 1 6.19 6.191v59.286a6.197 6.197 0 0 1-6.19 6.19z"/>
        <path fill="#0584FF" fill-rule="nonzero" d="M52.268 100.171v.345c.542 0 .982.606.982 1.353v.588c0 .746-.44 1.352-.982 1.352H38.475c-.542 0-.981-.606-.981-1.352v-.588c0-.747.44-1.353.981-1.353h13.793v-.345zM76.775 100.171v.345c.542 0 .982.606.982 1.353v.588c0 .746-.44 1.352-.982 1.352H62.982c-.542 0-.982-.606-.982-1.352v-.588c0-.747.44-1.353.982-1.353h13.793v-.345zM101.775 100.171v.345c.542 0 .982.606.982 1.353v.588c0 .746-.44 1.352-.982 1.352H87.982c-.542 0-.982-.606-.982-1.352v-.588c0-.747.44-1.353.982-1.353h13.793v-.345zM126.775 100.171v.345c.542 0 .982.606.982 1.353v.588c0 .746-.44 1.352-.982 1.352h-13.793c-.542 0-.982-.606-.982-1.352v-.588c0-.747.44-1.353.982-1.353h13.793v-.345zM53.234 74.3h-.25a7.496 7.496 0 1 1-14.991 0 7.496 7.496 0 0 1 14.991 0h.25z"/>
    </g>
</svg>
