<svg xmlns="http://www.w3.org/2000/svg" width="20" height="20" viewBox="0 0 20 20">
    <g fill="none" fill-rule="evenodd">
        <path fill="#00B663" d="M9.964.005C4.47.005.017 4.459.017 9.953c0 5.493 4.454 9.947 9.947 9.947 5.494 0 9.948-4.454 9.948-9.947 0-5.494-4.454-9.948-9.948-9.948"/>
        <path fill="#FFF" d="M15.588 7.155l-.904-.91a.481.481 0 0 0-.68-.004l-5.67 5.625-2.399-2.418a.481.481 0 0 0-.68-.003l-.912.904a.481.481 0 0 0-.002.68l3.641 3.672c.187.188.492.19.68.002l6.923-6.867a.481.481 0 0 0 .003-.68"/>
    </g>
</svg>
