<svg xmlns="http://www.w3.org/2000/svg" xmlns:xlink="http://www.w3.org/1999/xlink" width="22" height="23" viewBox="0 0 22 23">
    <defs>
        <path id="a" d="M0 0h16.576v20.606H0z"/>
    </defs>
    <g fill="none" fill-rule="evenodd">
        <path fill="#FFFA48" d="M16.784 9.174h-.003a7.855 7.855 0 0 0-15.707 0h-.003l.002.053-.002.06c0 2.402 1.452 4.807 2.776 5.99 1.15 1.029 1.863 2.37 2.299 4.045.12.463.544.783 1.023.783h3.507c.493 0 .918-.342 1.033-.821.377-1.58.894-2.676 2.3-4.007 1.637-1.549 2.775-3.588 2.775-5.99l-.001-.06.001-.053"/>
        <path fill="#FFF" d="M7.169 21.39c-.581 0-1.088-.388-1.232-.943-.438-1.684-1.146-4.036-2.234-5.009C2.332 14.212.856 11.765.856 9.288v-.04l.001-.022V9.21l-.001-.037v-.216h.008A8.023 8.023 0 0 1 3.26 3.542a8.02 8.02 0 0 1 5.668-2.326c2.135 0 4.148.826 5.668 2.326a8.022 8.022 0 0 1 2.395 5.416h.006l.003.216-.001.037v.037a1 1 0 0 1 0 .04c0 2.26-.982 4.386-2.842 6.146-1.358 1.286-1.867 3.414-2.238 4.968-.139.583-.65.988-1.243.988H7.169z"/>
        <path fill="#E8E8E8" d="M16.625 9.355v-.017l.002-.035-.003-.203h-.005a7.635 7.635 0 0 0-2.19-5.089 7.235 7.235 0 0 0-5.775-2.16c1.73.141 3.343.894 4.591 2.16a7.635 7.635 0 0 1 2.19 5.089h.006l.002.203v.035l-.001.017v.017l.001.038c0 2.124-1.33 4.293-3.03 5.947-1.242 1.208-1.707 3.208-2.047 4.668a1.175 1.175 0 0 1-1.137.928h1.184c.542 0 1.01-.381 1.137-.928.339-1.46.804-3.46 2.046-4.668 1.7-1.654 3.03-3.823 3.03-5.947v-.055z"/>
        <g transform="translate(.64 1)">
            <mask id="b" fill="#fff">
                <use xlink:href="#a"/>
            </mask>
            <path fill="#10176B" d="M8.288 0c-2.193 0-4.26.848-5.82 2.388A8.235 8.235 0 0 0 .02 7.742H.003L0 8.174l.001.046V8.24L0 8.288c0 2.543 1.513 5.054 2.919 6.311 1.045.934 1.738 3.245 2.17 4.902.168.65.76 1.105 1.44 1.105h3.507c.693 0 1.29-.474 1.453-1.152.365-1.53.865-3.621 2.177-4.863 1.903-1.802 2.91-3.982 2.91-6.303 0-.016 0-.032-.002-.048V8.22l.002-.046v-.432h-.02a8.235 8.235 0 0 0-2.449-5.354A8.235 8.235 0 0 0 8.287 0m0 .431c4.302 0 7.793 3.457 7.854 7.743h.003l-.001.053.001.06c0 2.402-1.138 4.441-2.775 5.99-1.405 1.33-1.923 3.498-2.3 5.077-.115.48-.54.82-1.033.82H6.529c-.479 0-.903-.318-1.023-.781-.436-1.676-1.15-4.087-2.3-5.116C1.883 13.094.431 10.69.431 8.287l.002-.06-.002-.053h.003A7.855 7.855 0 0 1 8.288.431" mask="url(#b)"/>
        </g>
        <path fill="#00B1FF" d="M6.577 10.797h1.67c.068 0 .123.055.123.122v1.623c0 .109.131.163.208.087l2.643-2.643a.122.122 0 0 0-.087-.208H9.398a.122.122 0 0 1-.122-.122v-2.35a.122.122 0 0 0-.219-.075l-2.577 3.37a.122.122 0 0 0 .097.196M11.238 23h-4.75a.508.508 0 1 1 0-1.016h4.75a.508.508 0 1 1 0 1.016"/>
        <path fill="#00B1FF" d="M3.69 4.72c-.786.944-1.199 1.897-.921 2.128.277.231 1.14-.347 1.926-1.29.786-.945 1.199-1.897.921-2.128-.277-.232-1.14.346-1.926 1.29" opacity=".2"/>
    </g>
</svg>
