<svg xmlns="http://www.w3.org/2000/svg" xmlns:xlink="http://www.w3.org/1999/xlink" width="22" height="22" viewBox="0 0 22 22">
    <defs>
        <path id="a" d="M.06.033h17V19.59h-17z"/>
        <path id="c" d="M0 .085h7.128v21.83H0z"/>
    </defs>
    <g fill="none" fill-rule="evenodd">
        <path fill="#FFF" d="M19.77 20.9l-13.126.018a1.712 1.712 0 0 1-1.714-1.71L4.908 3.52a1.712 1.712 0 0 1 1.71-1.714l13.126-.018a1.712 1.712 0 0 1 1.714 1.71l.022 15.686a1.712 1.712 0 0 1-1.71 1.714"/>
        <g transform="translate(4.635 1.541)">
            <mask id="b" fill="#fff">
                <use xlink:href="#a"/>
            </mask>
            <path fill="#10176B" d="M15.112.461h-.002L1.983.48c-.4 0-.776.157-1.058.44-.283.283-.438.66-.438 1.06L.51 17.666c0 .4.157.777.44 1.059.283.282.66.437 1.058.437h.003l13.126-.018c.4 0 .776-.157 1.058-.44.283-.284.438-.66.438-1.06L16.61 1.957A1.5 1.5 0 0 0 15.112.461zM2.007 19.591c-.513 0-.996-.2-1.36-.563a1.913 1.913 0 0 1-.566-1.361L.06 1.98c0-.514.2-.998.563-1.362a1.914 1.914 0 0 1 1.36-.566L15.11.033h.003c1.06 0 1.924.863 1.926 1.924l.022 15.686c0 .515-.2.999-.562 1.363a1.914 1.914 0 0 1-1.362.566L2.01 19.59h-.003z" mask="url(#b)"/>
        </g>
        <path fill="#E8E8E8" d="M19.529 2.324l-1.188.001c1.019-.001 2.123.824 2.125 1.843l.02 14.49c.001 1.019-1.1 1.847-2.12 1.848l1.188-.002a1.488 1.488 0 0 0 1.486-1.49L21.019 3.81a1.488 1.488 0 0 0-1.49-1.486"/>
        <path fill="#CECECE" d="M5.194 3.912l.02 14.952a1.846 1.846 0 0 0 1.849 1.842l.997-.026-.026-18.617-.997.001a1.845 1.845 0 0 0-1.843 1.848"/>
        <path fill="#FFF" d="M2.394 21.7l3.25-.004a1.712 1.712 0 0 0 1.71-1.714L7.33 2.009A1.712 1.712 0 0 0 5.615.3L2.364.305A1.712 1.712 0 0 0 .654 2.02L.679 19.99a1.712 1.712 0 0 0 1.715 1.71"/>
        <g transform="translate(.44)">
            <mask id="d" fill="#fff">
                <use xlink:href="#c"/>
            </mask>
            <path fill="#10176B" d="M5.177.513h-.002L1.924.518a1.5 1.5 0 0 0-1.496 1.5L.453 19.99a1.5 1.5 0 0 0 1.498 1.496h.002l3.251-.004a1.5 1.5 0 0 0 1.496-1.5L6.675 2.009c0-.4-.157-.776-.44-1.058A1.488 1.488 0 0 0 5.177.513zM1.951 21.914a1.928 1.928 0 0 1-1.926-1.923L0 2.019A1.928 1.928 0 0 1 1.923.089L5.174.086h.003c.513 0 .996.2 1.36.562.364.364.565.847.566 1.362l.025 17.972a1.928 1.928 0 0 1-1.923 1.929l-3.251.004H1.95z" mask="url(#d)"/>
        </g>
        <path fill="#E8E8E8" d="M5.51.714l-.647.001c.764 0 1.383.565 1.384 1.264l.026 18.085c0 .699-.617 1.266-1.38 1.268l.645-.001c.764-.002 1.382-.57 1.38-1.268L6.894 1.978c0-.699-.62-1.265-1.384-1.264"/>
        <path fill="#00B1FF" d="M11.14 11.73a.91.91 0 0 1-.911-.904.91.91 0 0 1 .893-.923.91.91 0 0 1 .912.904.91.91 0 0 1-.893.923M14.237 11.726a.91.91 0 0 1-.912-.904.91.91 0 0 1 .893-.923.91.91 0 0 1 .912.904.91.91 0 0 1-.893.923M17.333 11.722a.91.91 0 0 1-.912-.904.91.91 0 0 1 .893-.924.91.91 0 0 1 .912.905.91.91 0 0 1-.893.923M11.145 14.774a.91.91 0 0 1-.912-.904.91.91 0 0 1 .893-.923.91.91 0 0 1 .912.904.91.91 0 0 1-.893.923M14.241 14.77a.91.91 0 0 1-.912-.904.91.91 0 0 1 .893-.923.91.91 0 0 1 .912.904.91.91 0 0 1-.893.924M17.338 14.767a.91.91 0 0 1-.913-.905.91.91 0 0 1 .894-.923.91.91 0 0 1 .911.904.91.91 0 0 1-.892.924M11.15 17.82a.91.91 0 0 1-.912-.905.91.91 0 0 1 .893-.923.91.91 0 0 1 .912.904.91.91 0 0 1-.893.923M14.246 17.815a.91.91 0 0 1-.912-.904.91.91 0 0 1 .893-.923.91.91 0 0 1 .912.904.91.91 0 0 1-.893.923M17.342 17.811a.91.91 0 0 1-.912-.904.91.91 0 0 1 .893-.923.91.91 0 0 1 .912.904.91.91 0 0 1-.893.923M18.092 4.98l-7.724.011a.94.94 0 0 0-.938.941v.128c0 .52.422.94.94.939l7.725-.01a.94.94 0 0 0 .938-.942v-.128a.94.94 0 0 0-.941-.939"/>
    </g>
</svg>
