<svg xmlns="http://www.w3.org/2000/svg" xmlns:xlink="http://www.w3.org/1999/xlink" width="22" height="23" viewBox="0 0 22 23">
    <defs>
        <path id="a" d="M.042.01h16.539v18.123H.042z"/>
        <path id="c" d="M0 .005h21.914v10.23H0z"/>
    </defs>
    <g fill="none" fill-rule="evenodd">
        <path fill="#FFF" d="M13.657 20.758v-3.992a.85.85 0 0 0-.849-.85l-3.835-.005a.85.85 0 0 0-.851.85v3.984c0 .47-.38.85-.85.85H3.685a.85.85 0 0 1-.85-.85V10.457a.85.85 0 0 1 .323-.666l7.193-5.692a.85.85 0 0 1 1.044-.008l7.216 5.53c.21.161.333.41.333.675v10.45a.85.85 0 0 1-.847.85l-3.587.012a.85.85 0 0 1-.853-.85"/>
        <g transform="translate(2.578 3.69)">
            <mask id="b" fill="#fff">
                <use xlink:href="#a"/>
            </mask>
            <path fill="#10176B" d="M6.394 12.006h.001l3.835.005c.587 0 1.064.478 1.064 1.065v3.992a.631.631 0 0 0 .635.635h.002l3.587-.012a.636.636 0 0 0 .633-.635V6.606a.639.639 0 0 0-.249-.505L8.687.571a.634.634 0 0 0-.78.007L.712 6.268a.631.631 0 0 0-.241.499v10.288c0 .35.285.635.635.635h3.587c.35 0 .635-.285.635-.635V13.07c0-.285.11-.552.312-.754.201-.2.469-.311.753-.311zm5.535 6.127c-.284 0-.55-.11-.752-.31a1.058 1.058 0 0 1-.313-.755v-3.992a.636.636 0 0 0-.634-.635l-3.835-.005h-.001a.631.631 0 0 0-.635.635v3.984c0 .587-.478 1.064-1.065 1.064H1.107a1.066 1.066 0 0 1-1.065-1.064V6.767c0-.328.148-.632.404-.835L7.64.24c.382-.303.92-.308 1.308-.01l7.216 5.53c.26.2.417.516.417.845v10.45c0 .585-.476 1.063-1.062 1.065l-3.586.012h-.004z" mask="url(#b)"/>
        </g>
        <path fill="#E8E8E8" d="M18.208 9.974l-6.795-5.207a.8.8 0 0 0-.984.007l-.062.05 6.72 5.15a.8.8 0 0 1 .314.636v9.841a.8.8 0 0 1-.798.8l-2.331.008c.024.002.049.004.074.004l3.378-.011a.8.8 0 0 0 .798-.801V10.61a.8.8 0 0 0-.314-.636"/>
        <path fill="#00B1FF" d="M12.207 12.069H9.66a.127.127 0 0 1-.126-.127v-1.97a1.4 1.4 0 0 1 2.8 0v1.97c0 .07-.057.127-.127.127M16.6 9.106V4.8c0-.258.209-.468.467-.468h1.414c.258 0 .467.21.467.468v4.307H16.6z"/>
        <path fill="#FFF" d="M10.427 2.808L.375 10.831a.425.425 0 0 0-.062.604l.691.832a.425.425 0 0 0 .589.063l8.841-6.902a.85.85 0 0 1 1.046 0l8.842 6.902a.425.425 0 0 0 .588-.063l.691-.832a.425.425 0 0 0-.062-.604L11.487 2.808a.85.85 0 0 0-1.06 0"/>
        <g transform="translate(0 2.401)">
            <mask id="d" fill="#fff">
                <use xlink:href="#c"/>
            </mask>
            <path fill="#10176B" d="M10.957 2.631c.231 0 .462.076.655.226l8.842 6.903a.21.21 0 0 0 .29-.032l.692-.831a.208.208 0 0 0 .047-.156.208.208 0 0 0-.078-.143L11.353.575a.631.631 0 0 0-.792 0L.509 8.598a.208.208 0 0 0-.078.143.208.208 0 0 0 .047.156l.692.831a.21.21 0 0 0 .29.032l8.842-6.903c.193-.15.424-.226.655-.226m9.627 7.604a.64.64 0 0 1-.395-.137l-8.841-6.902a.634.634 0 0 0-.782 0l-8.841 6.902a.637.637 0 0 1-.886-.095l-.691-.832a.635.635 0 0 1-.145-.474.635.635 0 0 1 .238-.435L10.293.24a1.06 1.06 0 0 1 1.328 0l10.052 8.023c.136.108.22.263.238.435a.635.635 0 0 1-.145.474l-.69.832a.637.637 0 0 1-.492.232" mask="url(#d)"/>
        </g>
        <path fill="#E8E8E8" d="M21.103 10.897l-9.636-7.71a.735.735 0 0 0-.79-.082c.044.022 9.764 7.792 9.764 7.792a.368.368 0 0 1 .053.522l-.31.341.12.094a.368.368 0 0 0 .51-.055l.342-.38a.368.368 0 0 0-.053-.522"/>
    </g>
</svg>
