<svg xmlns="http://www.w3.org/2000/svg" xmlns:xlink="http://www.w3.org/1999/xlink" width="22" height="23" viewBox="0 0 22 23">
    <defs>
        <path id="a" d="M0 .017h2.14v5.615H0z"/>
        <path id="c" d="M.067.015h21.581v13.331H.068z"/>
    </defs>
    <g fill="none" fill-rule="evenodd">
        <path fill="#10176B" d="M6.421 18.325h-4.94a.259.259 0 1 1 0-.518h4.78l1.904-3.82a.259.259 0 1 1 .464.23l-1.976 3.964a.259.259 0 0 1-.232.144"/>
        <g transform="translate(0 15.241)">
            <mask id="b" fill="#fff">
                <use xlink:href="#a"/>
            </mask>
            <path fill="#10176B" d="M.996 5.632H0V.017h.996c.632 0 1.144.513 1.144 1.144v3.327c0 .632-.512 1.144-1.144 1.144" mask="url(#b)"/>
        </g>
        <path fill="#FFF" d="M.345 20.528v-4.924h.658c.438 0 .792.354.792.792v3.34a.792.792 0 0 1-.792.792H.345z"/>
        <path fill="#10176B" d="M8.091 14.704a1.645 1.645 0 0 0 2.14-.92l-3.057-1.227a1.653 1.653 0 0 0 .917 2.147"/>
        <path fill="#FFF" d="M16.306 16.404c-.233 0-.464-.041-.685-.122L1.956 11.299a2.016 2.016 0 0 1-1.2-2.579l.953-2.625v-.027l.034-.067.425-1.173a2.016 2.016 0 0 1 1.888-1.324c.234 0 .464.04.685.121L20.794 9.48c.831.304.977.837.99 1.128.012.291-.086.835-.888 1.21l-.541.253c.094.238.1.505.01.75l-.869 2.396a1.048 1.048 0 0 1-.99.695c-.123 0-.244-.021-.361-.064l-.335-.122c-.38.428-.93.679-1.504.679z"/>
        <g transform="translate(.352 3.273)">
            <mask id="d" fill="#fff">
                <use xlink:href="#c"/>
            </mask>
            <path fill="#10176B" d="M3.704.015c-.932 0-1.772.59-2.09 1.466l-.421 1.16-.005.01-.047.092v.041L.2 5.374A2.233 2.233 0 0 0 1.53 8.228l13.665 4.983c.245.09.5.134.759.134.585 0 1.15-.236 1.563-.643l.202.074a1.266 1.266 0 0 0 1.628-.76l.87-2.396c.083-.23.097-.475.046-.708l.373-.174c.316-.148 1.047-.581 1.01-1.414-.011-.277-.146-.962-1.13-1.321L4.463.15c-.244-.09-.5-.135-.759-.135m0 .431c.209 0 .414.037.611.109l16.053 5.854c.714.26.837.697.848.935.01.237-.075.683-.763 1.004l-.748.35c.156.22.203.51.106.776l-.87 2.395a.834.834 0 0 1-1.074.503l-.479-.175c-.335.446-.87.718-1.434.718-.208 0-.414-.037-.611-.109L1.678 7.824A1.8 1.8 0 0 1 .607 5.52l.965-2.66v-.013l.017-.033.43-1.185A1.8 1.8 0 0 1 3.704.446" mask="url(#d)"/>
        </g>
        <path fill="#00B1FF" d="M18.674 15.063l-.009-.003a.335.335 0 0 1-.198-.43l.768-1.984a.333.333 0 1 1 .626.23l-.76 1.988a.333.333 0 0 1-.427.2"/>
        <path fill="#E8E8E8" d="M16.939 15.508a.646.646 0 0 1-.83.384l-14.117-5.21a.646.646 0 0 1-.384-.829l15.33 5.655z"/>
        <path fill="#00B1FF" d="M14.906 8.546L7.313 5.753a.216.216 0 1 1 .149-.404l7.592 2.792a.216.216 0 0 1-.148.405M1.3 20.183v-4.228c.205 0 .371.167.371.372v3.484a.372.372 0 0 1-.371.372"/>
    </g>
</svg>
