<svg width="92" height="92" viewBox="0 0 92 92" fill="none" xmlns="http://www.w3.org/2000/svg">
<rect width="92" height="92" rx="46" fill="#C0F7DD"/>
<g filter="url(#filter0_d_7808_57813)">
<path fill-rule="evenodd" clip-rule="evenodd" d="M41.6923 68.0894C40.3259 68.0894 39.1344 67.1768 38.7943 65.8698C37.7646 61.9084 36.0993 56.377 33.5394 54.0882C30.3139 51.2048 26.8423 45.4471 26.8423 39.6207C26.8423 39.589 26.8433 39.558 26.8444 39.5267L26.8458 39.4744L26.8444 39.439C26.8433 39.4104 26.8423 39.382 26.8423 39.3529V38.8455H26.8626C27.0561 34.0193 29.0456 29.5117 32.4971 26.1044C36.0716 22.5761 40.8065 20.6328 45.83 20.6328C50.8533 20.6328 55.5886 22.5761 59.1631 26.1044C62.6146 29.5117 64.6041 34.0193 64.7974 38.8455H64.8111L64.8179 39.3529C64.8179 39.3827 64.8169 39.4116 64.8156 39.4406L64.8142 39.4835L64.8156 39.5267C64.8169 39.558 64.8179 39.589 64.8179 39.6207C64.8179 44.9383 62.5059 49.938 58.1316 54.0784C54.9359 57.1033 53.7399 62.1094 52.8667 65.765C52.5393 67.1354 51.3372 68.0894 49.942 68.0894H41.6923Z" fill="white"/>
<path fill-rule="evenodd" clip-rule="evenodd" d="M63.9366 39.7771L63.9379 39.737C63.9389 39.7096 63.94 39.6825 63.94 39.6544L63.9337 39.1776H63.9213C63.7443 34.6435 61.9252 30.4083 58.7691 27.2073C55.5006 23.8921 51.1707 22.0664 46.5772 22.0664C46.11 22.0664 45.6465 22.0904 45.1855 22.1277C49.2562 22.4583 53.0495 24.2293 55.9856 27.2073C59.1417 30.4083 60.9608 34.6435 61.1378 39.1776H61.1502L61.1564 39.6544C61.1564 39.6825 61.1554 39.7096 61.1544 39.737L61.1531 39.7771L61.1544 39.8179C61.1554 39.8473 61.1564 39.8765 61.1564 39.9061C61.1564 44.9022 58.0276 50.0054 54.0276 53.8956C51.1055 56.7375 50.012 61.4409 49.2136 64.8752C48.914 66.1628 47.8149 67.0593 46.5391 67.0593H49.3226C50.5984 67.0593 51.6978 66.1628 51.9971 64.8752C52.7955 61.4409 53.8891 56.7375 56.8111 53.8956C60.8112 50.0054 63.94 44.9022 63.94 39.9061C63.94 39.8765 63.9389 39.8473 63.9379 39.8179L63.9366 39.7771Z" fill="#E8E8E8"/>
<mask id="mask0_7808_57813" style="mask-type:alpha" maskUnits="userSpaceOnUse" x="26" y="20" width="40" height="49">
<path fill-rule="evenodd" clip-rule="evenodd" d="M26.335 20.125H65.3251V68.5963H26.335V20.125Z" fill="white"/>
</mask>
<g mask="url(#mask0_7808_57813)">
<path fill-rule="evenodd" clip-rule="evenodd" d="M45.83 20.125C40.6722 20.125 35.8106 22.1203 32.1405 25.743C28.7132 29.1262 26.69 33.567 26.3811 38.3375H26.3416L26.335 39.3524C26.335 39.389 26.336 39.4246 26.3374 39.4605L26.3383 39.4809C26.3381 39.4901 26.3377 39.4992 26.3374 39.5083C26.336 39.5453 26.335 39.5826 26.335 39.6203C26.335 45.6028 29.8941 51.5095 33.2012 54.4661C35.6587 56.6632 37.29 62.099 38.3035 65.997C38.7013 67.5274 40.0949 68.5963 41.6923 68.5963H49.9421C51.5728 68.5963 52.9779 67.482 53.3592 65.8865C54.2185 62.2892 55.3942 57.3676 58.4802 54.4466C62.9582 50.2077 65.3251 45.0809 65.3251 39.6203C65.3251 39.5826 65.324 39.5453 65.3226 39.5083C65.3224 39.4992 65.322 39.4903 65.3218 39.4814L65.3226 39.4611C65.324 39.4251 65.3251 39.3892 65.3251 39.3524V38.3375H65.2789C64.9701 33.567 62.9468 29.1262 59.5196 25.743C55.8494 22.1203 50.9878 20.125 45.83 20.125ZM45.83 21.1396C55.9467 21.1396 64.1599 29.2698 64.3037 39.3523H64.3103C64.3103 39.3952 64.3072 39.4353 64.3068 39.478C64.3072 39.5258 64.3103 39.5724 64.3103 39.6202C64.3103 45.2674 61.6322 50.0656 57.7826 53.7094C54.4764 56.8391 53.2597 61.9358 52.3722 65.6509C52.1027 66.779 51.1023 67.5815 49.9421 67.5815H41.6923C40.5668 67.5815 39.5687 66.8308 39.2855 65.7415C38.2606 61.7994 36.5829 56.1284 33.8774 53.7094C30.7633 50.9255 27.3497 45.2674 27.3497 39.6202C27.3497 39.5724 27.3528 39.5258 27.3532 39.478C27.353 39.4353 27.3497 39.3952 27.3497 39.3523H27.3563C27.5002 29.2698 35.7133 21.1396 45.83 21.1396Z" fill="#202020"/>
</g>
<path fill-rule="evenodd" clip-rule="evenodd" d="M40.3006 43.1714H44.2303C44.3888 43.1714 44.5172 43.2998 44.5172 43.4583V47.276C44.5172 47.5315 44.8262 47.6596 45.0069 47.4789L51.2233 41.2625C51.4041 41.0817 51.2761 40.7727 51.0205 40.7727H46.9362C46.7778 40.7727 46.6493 40.6444 46.6493 40.4858V34.9572C46.6493 34.683 46.3013 34.5652 46.1347 34.7832L40.0727 42.71C39.9284 42.899 40.0629 43.1714 40.3006 43.1714Z" fill="#202020"/>
<path fill-rule="evenodd" clip-rule="evenodd" d="M51.2652 71.8742H40.093C39.433 71.8742 38.8979 71.3393 38.8979 70.6794C38.8979 70.0193 39.433 69.4844 40.093 69.4844H51.2652C51.9251 69.4844 52.4602 70.0193 52.4602 70.6794C52.4602 71.3393 51.9251 71.8742 51.2652 71.8742Z" fill="#202020"/>
</g>
<defs>
<filter id="filter0_d_7808_57813" x="17.125" y="20.125" width="54.75" height="54.75" filterUnits="userSpaceOnUse" color-interpolation-filters="sRGB">
<feFlood flood-opacity="0" result="BackgroundImageFix"/>
<feColorMatrix in="SourceAlpha" type="matrix" values="0 0 0 0 0 0 0 0 0 0 0 0 0 0 0 0 0 0 127 0" result="hardAlpha"/>
<feOffset dx="-3" dy="3"/>
<feComposite in2="hardAlpha" operator="out"/>
<feColorMatrix type="matrix" values="0 0 0 0 0.12549 0 0 0 0 0.776471 0 0 0 0 0.466667 0 0 0 1 0"/>
<feBlend mode="normal" in2="BackgroundImageFix" result="effect1_dropShadow_7808_57813"/>
<feBlend mode="normal" in="SourceGraphic" in2="effect1_dropShadow_7808_57813" result="shape"/>
</filter>
</defs>
</svg>
