<svg width="92" height="92" viewBox="0 0 92 92" fill="none" xmlns="http://www.w3.org/2000/svg">
<rect width="92" height="92" rx="46" fill="#C0F7DD"/>
<g filter="url(#filter0_d_7808_57772)">
<path fill-rule="evenodd" clip-rule="evenodd" d="M22.7017 61.2395C21.5588 61.2395 20.6323 60.3131 20.6323 59.1701V28.1161C20.6323 26.9733 21.5588 26.0469 22.7017 26.0469H69.2982C70.4412 26.0469 71.3676 26.9733 71.3676 28.1161V59.1701C71.3676 60.3131 70.4412 61.2395 69.2982 61.2395H22.7017Z" fill="white"/>
<mask id="mask0_7808_57772" style="mask-type:alpha" maskUnits="userSpaceOnUse" x="20" y="25" width="52" height="37">
<path fill-rule="evenodd" clip-rule="evenodd" d="M20.125 25.5391H71.875V61.7464H20.125V25.5391Z" fill="white"/>
</mask>
<g mask="url(#mask0_7808_57772)">
<path fill-rule="evenodd" clip-rule="evenodd" d="M22.7017 26.5537C21.8404 26.5537 21.1397 27.2542 21.1397 28.1155V59.1696C21.1397 60.0309 21.8404 60.7316 22.7017 60.7316H69.2982C70.1595 60.7316 70.8603 60.0309 70.8603 59.1696V28.1155C70.8603 27.2542 70.1595 26.5537 69.2982 26.5537H22.7017ZM69.2983 61.7464H22.7017C21.281 61.7464 20.125 60.5905 20.125 59.1697V28.1156C20.125 26.6948 21.281 25.5391 22.7017 25.5391H69.2983C70.7191 25.5391 71.875 26.6948 71.875 28.1156V59.1697C71.875 60.5905 70.7191 61.7464 69.2983 61.7464Z" fill="#202020"/>
</g>
<path fill-rule="evenodd" clip-rule="evenodd" d="M68.491 27.1348H65.7119C66.6148 27.1348 67.3466 28.0038 67.3466 29.0761V58.2099C67.3466 59.2821 66.6148 60.1513 65.7119 60.1513H68.491C69.3939 60.1513 70.1259 59.2821 70.1259 58.2099V29.0761C70.1259 28.0038 69.3939 27.1348 68.491 27.1348Z" fill="#E8E8E8"/>
<path fill-rule="evenodd" clip-rule="evenodd" d="M28.0746 66.3453C27.8834 66.3453 27.6918 66.2774 27.539 66.1389C27.2117 65.8429 27.1863 65.3377 27.4822 65.0106L29.3787 62.9134C29.5303 62.7462 29.7454 62.6504 29.9713 62.6504H62.1192C62.3451 62.6504 62.5602 62.7462 62.7118 62.9134L64.5177 64.9107C64.8136 65.2381 64.7883 65.743 64.4609 66.0391C64.1342 66.3346 63.6287 66.3096 63.3328 65.9825L61.7644 64.2481H30.3258L28.6674 66.0823C28.5095 66.2567 28.2925 66.3453 28.0746 66.3453Z" fill="#202020"/>
</g>
<defs>
<filter id="filter0_d_7808_57772" x="17.125" y="20.125" width="54.75" height="54.75" filterUnits="userSpaceOnUse" color-interpolation-filters="sRGB">
<feFlood flood-opacity="0" result="BackgroundImageFix"/>
<feColorMatrix in="SourceAlpha" type="matrix" values="0 0 0 0 0 0 0 0 0 0 0 0 0 0 0 0 0 0 127 0" result="hardAlpha"/>
<feOffset dx="-3" dy="3"/>
<feComposite in2="hardAlpha" operator="out"/>
<feColorMatrix type="matrix" values="0 0 0 0 0.12549 0 0 0 0 0.776471 0 0 0 0 0.466667 0 0 0 1 0"/>
<feBlend mode="normal" in2="BackgroundImageFix" result="effect1_dropShadow_7808_57772"/>
<feBlend mode="normal" in="SourceGraphic" in2="effect1_dropShadow_7808_57772" result="shape"/>
</filter>
</defs>
</svg>
