<svg width="92" height="92" viewBox="0 0 92 92" fill="none" xmlns="http://www.w3.org/2000/svg">
<rect width="92" height="92" rx="46" fill="#C0F7DD"/>
<g filter="url(#filter0_d_7808_57811)">
<path fill-rule="evenodd" clip-rule="evenodd" d="M46 66.2623C44.9778 66.2623 43.9494 66.185 42.9435 66.0328L42.606 65.9816L42.5262 65.6498C39.9755 55.0618 31.0887 49.1895 26.0184 46.6314L25.7428 46.4922L25.7373 45.9995C25.7373 43.5396 26.1748 41.1331 27.0375 38.8468L27.099 38.6834L27.2484 38.5925C30.0405 36.8935 36.1896 34.043 46 34.043C55.0988 34.043 61.3973 36.3228 64.3422 37.6815L64.5179 37.7627L64.5949 37.9403C65.7015 40.4898 66.2626 43.2013 66.2626 45.9995C66.2626 46.2312 66.2574 46.4618 66.2496 46.6913L66.2379 47.0409L65.9069 47.1544C60.6917 48.9399 56.4715 52.1122 53.3637 56.5838C50.8174 60.2473 49.6846 63.8587 49.2359 65.6854L49.1539 66.0196L48.8129 66.0669C47.8804 66.1966 46.9341 66.2623 46 66.2623Z" fill="white"/>
<path fill-rule="evenodd" clip-rule="evenodd" d="M63.091 38.1083C60.7699 36.8424 54.6969 34.7324 46.5825 34.7324C46.0833 34.7324 45.5958 34.7416 45.1177 34.7576C52.402 34.9926 60.2983 38.2606 61.4029 38.9524C62.5075 39.6442 62.458 46.3374 62.458 46.3374L61.3258 46.6359C54.0179 49.7133 48.3209 60.0524 47.899 64.4834C48.532 64.4834 48.9541 64.2723 48.9541 64.2723C49.376 60.6854 51.3327 58.3343 53.5716 55.045C56.3389 50.9793 60.7699 48.2363 64.1243 46.847L64.4196 46.7459C64.4196 46.7459 64.779 41.6953 63.091 38.1083Z" fill="#E8E8E8"/>
<path fill-rule="evenodd" clip-rule="evenodd" d="M46 33.5371C36.0656 33.5371 29.8221 36.4339 26.9848 38.1605L26.6863 38.3424L26.5629 38.6691C25.6785 41.0129 25.23 43.4794 25.23 46.0009C25.23 46.0423 25.2306 46.0833 25.2314 46.1245L25.2322 46.1891L25.2379 46.8074L25.7899 47.0859C28.1221 48.2625 31.5686 50.3122 34.7435 53.3955C38.4753 57.0198 40.9279 61.1834 42.0329 65.7703L42.1928 66.4339L42.8676 66.536C43.8987 66.6918 44.9524 66.7712 46 66.7712C46.9571 66.7712 47.9271 66.7038 48.883 66.5709L49.5645 66.4763L49.7286 65.808C50.1688 64.0154 51.2807 60.4715 53.7804 56.8749C56.8251 52.4938 60.9604 49.3854 66.0713 47.6358L66.7333 47.409L66.7568 46.7098C66.7657 46.4397 66.77 46.2144 66.77 46.0009C66.77 43.1332 66.1949 40.3537 65.0604 37.7396L64.9062 37.3845L64.5547 37.2223C61.5721 35.846 55.1957 33.5371 46 33.5371ZM46 34.5517C54.886 34.5517 61.0387 36.7173 64.1295 38.1436C65.1747 40.5517 65.7553 43.2084 65.7553 46.0009C65.7553 46.2267 65.7502 46.4516 65.7425 46.6756C53.3605 50.9147 49.6698 61.7933 48.7433 65.5656C47.8465 65.6904 46.9311 65.7564 46 65.7564C44.9869 65.7564 43.9917 65.6797 43.0194 65.5325C40.386 54.6015 31.0595 48.6079 26.2469 46.1799C26.2463 46.12 26.2447 46.0607 26.2447 46.0009C26.2447 43.5457 26.6938 41.196 27.5122 39.0274C29.9912 37.5187 36.1214 34.5517 46 34.5517Z" fill="#202020"/>
<path fill-rule="evenodd" clip-rule="evenodd" d="M46 65.7559C35.0895 65.7559 26.2447 56.9111 26.2447 46.0004C26.2447 35.09 35.0895 26.2453 46 26.2453C56.9105 26.2453 65.7553 35.09 65.7553 46.0004C65.7553 56.9111 56.9105 65.7559 46 65.7559ZM46 20.6328C31.9897 20.6328 20.6323 31.9904 20.6323 46.0005C20.6323 60.0107 31.9897 71.3681 46 71.3681C60.0102 71.3681 71.3676 60.0107 71.3676 46.0005C71.3676 31.9904 60.0102 20.6328 46 20.6328Z" fill="white"/>
<mask id="mask0_7808_57811" style="mask-type:alpha" maskUnits="userSpaceOnUse" x="20" y="20" width="52" height="52">
<path fill-rule="evenodd" clip-rule="evenodd" d="M20.125 20.125H71.875V71.8749H20.125V20.125Z" fill="white"/>
</mask>
<g mask="url(#mask0_7808_57811)">
<path fill-rule="evenodd" clip-rule="evenodd" d="M46 26.7521C35.3866 26.7521 26.752 35.3867 26.752 46.0001C26.752 56.6135 35.3866 65.2481 46 65.2481C56.6134 65.2481 65.2479 56.6135 65.2479 46.0001C65.2479 35.3867 56.6134 26.7521 46 26.7521ZM46 66.2628C34.8271 66.2628 25.7373 57.1729 25.7373 46.0002C25.7373 34.8273 34.8271 25.7375 46 25.7375C57.1729 25.7375 66.2627 34.8273 66.2627 46.0002C66.2627 57.1729 57.1729 66.2628 46 66.2628ZM46 21.1396C32.2919 21.1396 21.1397 32.2919 21.1397 45.9999C21.1397 59.708 32.2919 70.8602 46 70.8602C59.7081 70.8602 70.8603 59.708 70.8603 45.9999C70.8603 32.2919 59.7081 21.1396 46 21.1396ZM46 71.875C31.7324 71.875 20.125 60.2674 20.125 46C20.125 31.7324 31.7324 20.125 46 20.125C60.2676 20.125 71.875 31.7324 71.875 46C71.875 60.2674 60.2676 71.875 46 71.875Z" fill="#202020"/>
</g>
<path fill-rule="evenodd" clip-rule="evenodd" d="M46.4314 21.9551C46.1972 21.9551 45.964 21.9593 45.7314 21.966C58.687 22.3364 69.0762 32.9545 69.0762 45.9998C69.0762 59.0452 58.687 69.6633 45.7314 70.0337C45.964 70.0404 46.1972 70.0446 46.4314 70.0446C59.711 70.0446 70.4761 59.2794 70.4761 45.9998C70.4761 32.7203 59.711 21.9551 46.4314 21.9551Z" fill="#E8E8E8"/>
<path fill-rule="evenodd" clip-rule="evenodd" d="M49.45 47.0102C49.45 49.1396 47.7236 50.8661 45.5942 50.8661C43.4647 50.8661 41.7383 49.1396 41.7383 47.0102C41.7383 44.8805 43.4647 43.1543 45.5942 43.1543C47.7236 43.1543 49.45 44.8805 49.45 47.0102Z" fill="#202020"/>
</g>
<defs>
<filter id="filter0_d_7808_57811" x="17.125" y="20.125" width="54.75" height="54.75" filterUnits="userSpaceOnUse" color-interpolation-filters="sRGB">
<feFlood flood-opacity="0" result="BackgroundImageFix"/>
<feColorMatrix in="SourceAlpha" type="matrix" values="0 0 0 0 0 0 0 0 0 0 0 0 0 0 0 0 0 0 127 0" result="hardAlpha"/>
<feOffset dx="-3" dy="3"/>
<feComposite in2="hardAlpha" operator="out"/>
<feColorMatrix type="matrix" values="0 0 0 0 0.12549 0 0 0 0 0.776471 0 0 0 0 0.466667 0 0 0 1 0"/>
<feBlend mode="normal" in2="BackgroundImageFix" result="effect1_dropShadow_7808_57811"/>
<feBlend mode="normal" in="SourceGraphic" in2="effect1_dropShadow_7808_57811" result="shape"/>
</filter>
</defs>
</svg>
