<svg width="92" height="92" viewBox="0 0 92 92" fill="none" xmlns="http://www.w3.org/2000/svg">
<rect width="92" height="92" rx="46" fill="#C0F7DD"/>
<g filter="url(#filter0_d_7808_57753)">
<path fill-rule="evenodd" clip-rule="evenodd" d="M35.1366 71.3681C33.9938 71.3681 33.0674 70.4419 33.0674 69.2989V22.702C33.0674 21.559 33.9938 20.6328 35.1366 20.6328H57.263C58.4058 20.6328 59.3322 21.559 59.3322 22.702V69.2989C59.3322 70.4419 58.4058 71.3681 57.263 71.3681H35.1366Z" fill="white"/>
<path fill-rule="evenodd" clip-rule="evenodd" d="M35.1366 21.1396C34.2753 21.1396 33.5747 21.8402 33.5747 22.7015V69.2984C33.5747 70.1597 34.2753 70.8602 35.1366 70.8602H57.2631C58.1243 70.8602 58.8249 70.1597 58.8249 69.2984V22.7015C58.8249 21.8402 58.1243 21.1396 57.2631 21.1396H35.1366ZM57.2631 71.875H35.1366C33.7158 71.875 32.5601 70.7192 32.5601 69.2985V22.7015C32.5601 21.2807 33.7158 20.125 35.1366 20.125H57.2631C58.6839 20.125 59.8396 21.2807 59.8396 22.7015V69.2985C59.8396 70.7192 58.6839 71.875 57.2631 71.875Z" fill="#202020"/>
<path fill-rule="evenodd" clip-rule="evenodd" d="M52.0034 70.0542H40.4C40.1758 70.0542 39.9941 69.8723 39.9941 69.6483V69.6324C39.9941 69.4082 40.1758 69.2266 40.4 69.2266H52.0034C52.2276 69.2266 52.4093 69.4082 52.4093 69.6324V69.6483C52.4093 69.8723 52.2276 70.0542 52.0034 70.0542Z" fill="#202020"/>
<path fill-rule="evenodd" clip-rule="evenodd" d="M57.2268 21.6348H55.5132C56.1048 21.6348 56.5841 22.5247 56.5841 23.6222V68.377C56.5841 69.4745 56.1048 70.3644 55.5132 70.3644H57.2268C57.8182 70.3644 58.2977 69.4745 58.2977 68.377V23.6222C58.2977 22.5247 57.8182 21.6348 57.2268 21.6348Z" fill="#E8E8E8"/>
<path fill-rule="evenodd" clip-rule="evenodd" d="M50.0264 23.8497H42.3735C41.6953 23.8497 41.0909 23.4221 40.8653 22.7826L40.2822 21.1309H52.1175L51.5347 22.7826C51.309 23.4221 50.7045 23.8497 50.0264 23.8497Z" fill="#202020"/>
<path fill-rule="evenodd" clip-rule="evenodd" d="M48.7588 22.4097C48.7588 22.5862 48.6155 22.7295 48.439 22.7295C48.2622 22.7295 48.1191 22.5862 48.1191 22.4097C48.1191 22.2329 48.2622 22.0898 48.439 22.0898C48.6155 22.0898 48.7588 22.2329 48.7588 22.4097Z" fill="#202020"/>
<path fill-rule="evenodd" clip-rule="evenodd" d="M50.0386 22.4097C50.0386 22.5862 49.8953 22.7295 49.7188 22.7295C49.542 22.7295 49.3989 22.5862 49.3989 22.4097C49.3989 22.2329 49.542 22.0898 49.7188 22.0898C49.8953 22.0898 50.0386 22.2329 50.0386 22.4097Z" fill="#202020"/>
</g>
<defs>
<filter id="filter0_d_7808_57753" x="17.125" y="20.125" width="54.75" height="54.75" filterUnits="userSpaceOnUse" color-interpolation-filters="sRGB">
<feFlood flood-opacity="0" result="BackgroundImageFix"/>
<feColorMatrix in="SourceAlpha" type="matrix" values="0 0 0 0 0 0 0 0 0 0 0 0 0 0 0 0 0 0 127 0" result="hardAlpha"/>
<feOffset dx="-3" dy="3"/>
<feComposite in2="hardAlpha" operator="out"/>
<feColorMatrix type="matrix" values="0 0 0 0 0.12549 0 0 0 0 0.776471 0 0 0 0 0.466667 0 0 0 1 0"/>
<feBlend mode="normal" in2="BackgroundImageFix" result="effect1_dropShadow_7808_57753"/>
<feBlend mode="normal" in="SourceGraphic" in2="effect1_dropShadow_7808_57753" result="shape"/>
</filter>
</defs>
</svg>
