<svg width="92" height="92" viewBox="0 0 92 92" fill="none" xmlns="http://www.w3.org/2000/svg">
<rect width="92" height="92" rx="46" fill="#C0F7DD"/>
<g filter="url(#filter0_d_7808_57728)">
<path fill-rule="evenodd" clip-rule="evenodd" d="M24.6116 67.9591C22.4139 67.9591 20.6323 66.1777 20.6323 63.98V55.1172C20.6323 52.9195 22.4139 51.1377 24.6116 51.1377H52.2855V39.2575C52.2855 38.3914 52.9375 37.6338 53.8018 37.576C54.7498 37.5128 55.5411 38.2658 55.5411 39.2001V51.1377H67.3884C69.586 51.1377 71.3676 52.9195 71.3676 55.1172V63.98C71.3676 66.1777 69.586 67.9591 67.3884 67.9591H24.6116Z" fill="white"/>
</g>
<mask id="mask0_7808_57728" style="mask-type:alpha" maskUnits="userSpaceOnUse" x="20" y="37" width="52" height="32">
<path fill-rule="evenodd" clip-rule="evenodd" d="M20.125 37.0645H71.875V68.4659H20.125V37.0645Z" fill="white"/>
</mask>
<g mask="url(#mask0_7808_57728)">
<path fill-rule="evenodd" clip-rule="evenodd" d="M24.6116 51.6447C22.6973 51.6447 21.1397 53.2023 21.1397 55.1166V63.9795C21.1397 65.8938 22.6973 67.4514 24.6116 67.4514H67.3884C69.3029 67.4514 70.8603 65.8938 70.8603 63.9795V55.1166C70.8603 53.2023 69.3029 51.6447 67.3884 51.6447H55.0337V39.1997C55.0337 38.887 54.9073 38.5964 54.678 38.3817C54.4488 38.1676 54.1501 38.0623 53.8355 38.0817C53.2509 38.1209 52.7928 38.6372 52.7928 39.2572V51.6447H24.6116ZM67.3884 68.466H24.6116C22.1378 68.466 20.125 66.4534 20.125 63.9794V55.1165C20.125 52.6427 22.1378 50.6299 24.6116 50.6299H51.7781V39.2571C51.7781 38.105 52.6522 37.144 53.768 37.0694C54.3654 37.0296 54.9347 37.2323 55.371 37.6406C55.8015 38.0433 56.0484 38.6115 56.0484 39.1996V50.6299H67.3884C69.8624 50.6299 71.875 52.6427 71.875 55.1165V63.9794C71.875 66.4534 69.8624 68.466 67.3884 68.466Z" fill="#202020"/>
</g>
<path fill-rule="evenodd" clip-rule="evenodd" d="M68.5451 52.5918H67.1738C68.0647 52.5918 68.787 54.0654 68.787 55.8831V63.2139C68.787 65.0317 68.0647 66.5052 67.1738 66.5052H68.5451C69.436 66.5052 70.1583 65.0317 70.1583 63.2139V55.8831C70.1583 54.0654 69.436 52.5918 68.5451 52.5918Z" fill="#E8E8E8"/>
<path fill-rule="evenodd" clip-rule="evenodd" d="M43.8956 60.7491H48.8696C49.529 60.7491 50.0633 60.2146 50.0633 59.5552C50.0633 58.8959 49.529 58.3613 48.8696 58.3613H43.8956C43.2362 58.3613 42.7017 58.8959 42.7017 59.5552C42.7017 60.2146 43.2362 60.7491 43.8956 60.7491Z" fill="#202020"/>
<path fill-rule="evenodd" clip-rule="evenodd" d="M57.6238 59.7538C57.6238 60.6329 56.9112 61.3454 56.0321 61.3454C55.153 61.3454 54.4404 60.6329 54.4404 59.7538C54.4404 58.8746 55.153 58.1621 56.0321 58.1621C56.9112 58.1621 57.6238 58.8746 57.6238 59.7538Z" fill="#202020"/>
<path fill-rule="evenodd" clip-rule="evenodd" d="M63.7917 59.7538C63.7917 60.6329 63.0792 61.3454 62.2001 61.3454C61.3209 61.3454 60.6084 60.6329 60.6084 59.7538C60.6084 58.8746 61.3209 58.1621 62.2001 58.1621C63.0792 58.1621 63.7917 58.8746 63.7917 59.7538Z" fill="#202020"/>
<mask id="mask1_7808_57728" style="mask-type:alpha" maskUnits="userSpaceOnUse" x="39" y="23" width="30" height="25">
<path fill-rule="evenodd" clip-rule="evenodd" d="M39.4087 23.4336H68.2781V47.1279H39.4087V23.4336Z" fill="white"/>
</mask>
<g mask="url(#mask1_7808_57728)">
<path fill-rule="evenodd" clip-rule="evenodd" d="M43.0095 47.128C42.8615 47.128 42.715 47.0637 42.6148 46.9397C40.5472 44.3838 39.4087 41.1621 39.4087 37.8684C39.4087 29.909 45.8841 23.4336 53.8435 23.4336C61.8026 23.4336 68.2781 29.909 68.2781 37.8684C68.2781 41.1272 67.2183 44.2028 65.2131 46.7627C65.0404 46.9831 64.7213 47.0221 64.5007 46.8491C64.2801 46.6762 64.2414 46.3574 64.4143 46.1368C66.2781 43.7575 67.2634 40.8983 67.2634 37.8684C67.2634 30.4685 61.2431 24.4483 53.8435 24.4483C46.4436 24.4483 40.4234 30.4685 40.4234 37.8684C40.4234 40.9306 41.4817 43.9256 43.4036 46.3016C43.5799 46.5194 43.5461 46.8388 43.3283 47.015C43.2343 47.0911 43.1215 47.128 43.0095 47.128Z" fill="#202020"/>
</g>
<path fill-rule="evenodd" clip-rule="evenodd" d="M60.6026 45.181C60.4816 45.181 60.3604 45.1379 60.2634 45.0507C60.055 44.8636 60.0382 44.5425 60.2255 44.3343C61.6432 42.758 62.4239 40.7209 62.4239 38.5988C62.4239 33.8678 58.5748 30.0186 53.8436 30.0186C49.1124 30.0186 45.2632 33.8678 45.2632 38.5988C45.2632 40.7025 46.032 42.7256 47.4274 44.2959C47.6137 44.5054 47.5948 44.826 47.3852 45.0123C47.176 45.1982 46.8551 45.1793 46.669 44.9701C45.1082 43.2138 44.2485 40.9511 44.2485 38.5988C44.2485 33.3081 48.5529 29.0039 53.8436 29.0039C59.1343 29.0039 63.4387 33.3081 63.4387 38.5988C63.4387 40.9722 62.5654 43.2498 60.98 45.0129C60.8798 45.1243 60.7414 45.181 60.6026 45.181Z" fill="#202020"/>
<path fill-rule="evenodd" clip-rule="evenodd" d="M57.5018 42.8543C57.3743 42.8543 57.2469 42.8067 57.1482 42.7109C56.9473 42.5156 56.9427 42.1944 57.1379 41.9935C57.9758 41.1314 58.4371 39.9943 58.4371 38.7919C58.4371 36.259 56.3765 34.1983 53.8433 34.1983C51.3104 34.1983 49.2496 36.259 49.2496 38.7919C49.2496 39.9182 49.6611 41.0013 50.4082 41.8421C50.5943 42.0515 50.5754 42.3722 50.3659 42.5585C50.1565 42.7444 49.8359 42.7255 49.6498 42.5162C48.7373 41.4894 48.2349 40.167 48.2349 38.7919C48.2349 35.6995 50.7509 33.1836 53.8433 33.1836C56.936 33.1836 59.4518 35.6995 59.4518 38.7919C59.4518 40.2599 58.8885 41.6481 57.8656 42.7005C57.7662 42.803 57.6341 42.8543 57.5018 42.8543Z" fill="#202020"/>
<path fill-rule="evenodd" clip-rule="evenodd" d="M21.7905 64.1309H70.209L70.2076 64.2076C70.1802 65.711 68.9526 66.9152 67.4488 66.9134L24.5436 66.8671C23.0305 66.8657 21.8015 65.6442 21.7905 64.1309Z" fill="#202020"/>
<defs>
<filter id="filter0_d_7808_57728" x="17.6323" y="37.5723" width="53.7354" height="34.3867" filterUnits="userSpaceOnUse" color-interpolation-filters="sRGB">
<feFlood flood-opacity="0" result="BackgroundImageFix"/>
<feColorMatrix in="SourceAlpha" type="matrix" values="0 0 0 0 0 0 0 0 0 0 0 0 0 0 0 0 0 0 127 0" result="hardAlpha"/>
<feOffset dx="-3" dy="4"/>
<feComposite in2="hardAlpha" operator="out"/>
<feColorMatrix type="matrix" values="0 0 0 0 0.12549 0 0 0 0 0.776471 0 0 0 0 0.466667 0 0 0 1 0"/>
<feBlend mode="normal" in2="BackgroundImageFix" result="effect1_dropShadow_7808_57728"/>
<feBlend mode="normal" in="SourceGraphic" in2="effect1_dropShadow_7808_57728" result="shape"/>
</filter>
</defs>
</svg>
