<svg xmlns="http://www.w3.org/2000/svg" xmlns:xlink="http://www.w3.org/1999/xlink" width="22" height="23" viewBox="0 0 22 23">
    <defs>
        <path id="a" d="M0 .023h22v13.35H0z"/>
        <path id="c" d="M.002.009h12.273v10.073H.002z"/>
    </defs>
    <g fill="none" fill-rule="evenodd">
        <path fill="#FFF" d="M1.907 21.335a1.692 1.692 0 0 1-1.691-1.692v-3.768c0-.934.757-1.691 1.691-1.691h11.765v-5.05c0-.369.277-.691.645-.716a.693.693 0 0 1 .74.69v5.076h5.036c.934 0 1.691.757 1.691 1.691v3.768c0 .934-.757 1.692-1.691 1.692H1.907z"/>
        <g transform="translate(0 8.178)">
            <mask id="b" fill="#fff">
                <use xlink:href="#a"/>
            </mask>
            <path fill="#10176B" d="M1.907 6.221c-.813 0-1.476.663-1.476 1.476v3.768c0 .814.663 1.476 1.476 1.476h18.186c.814 0 1.476-.662 1.476-1.476V7.697c0-.813-.662-1.476-1.476-1.476H14.84V.931a.475.475 0 0 0-.51-.475.49.49 0 0 0-.442.5V6.22H1.908zm18.186 7.152H1.907A1.91 1.91 0 0 1 0 11.465V7.697A1.91 1.91 0 0 1 1.907 5.79h11.55V.955c0-.49.371-.898.845-.93a.91.91 0 0 1 .97.906v4.86h4.82A1.91 1.91 0 0 1 22 7.696v3.768a1.91 1.91 0 0 1-1.907 1.908z" mask="url(#b)"/>
        </g>
        <path fill="#E8E8E8" d="M20.584 14.802h-.583c.38 0 .686.626.686 1.4v3.116c0 .772-.307 1.399-.686 1.399h.583c.38 0 .686-.627.686-1.4v-3.116c0-.773-.307-1.4-.686-1.4"/>
        <path fill="#00B1FF" d="M10.105 18.27h2.115a.507.507 0 0 0 0-1.015h-2.115a.508.508 0 0 0 0 1.015M15.941 17.847a.677.677 0 1 1-1.353 0 .677.677 0 0 1 1.353 0M18.564 17.847a.677.677 0 1 1-1.354 0 .677.677 0 0 1 1.354 0"/>
        <g transform="translate(8.196 2.398)">
            <mask id="d" fill="#fff">
                <use xlink:href="#c"/>
            </mask>
            <path fill="#00B1FF" d="M1.533 10.082a.215.215 0 0 1-.168-.08A6.15 6.15 0 0 1 .002 6.145 6.143 6.143 0 0 1 6.138.01a6.143 6.143 0 0 1 6.137 6.136c0 1.386-.45 2.693-1.303 3.781a.216.216 0 0 1-.34-.266 5.648 5.648 0 0 0 1.211-3.515A5.712 5.712 0 0 0 6.138.44 5.712 5.712 0 0 0 .433 6.145c0 1.302.45 2.575 1.267 3.585a.216.216 0 0 1-.167.352" mask="url(#d)"/>
        </g>
        <path fill="#00B1FF" d="M17.208 11.652a.216.216 0 0 1-.16-.36 3.64 3.64 0 0 0 .934-2.438 3.652 3.652 0 0 0-3.648-3.648 3.652 3.652 0 0 0-3.647 3.648c0 .894.327 1.754.92 2.422a.216.216 0 1 1-.323.286 4.073 4.073 0 0 1-1.029-2.708c0-2.25 1.83-4.08 4.08-4.08 2.249 0 4.078 1.83 4.078 4.08a4.072 4.072 0 0 1-1.045 2.726.215.215 0 0 1-.16.072"/>
        <path fill="#00B1FF" d="M15.89 10.662a.215.215 0 0 1-.155-.366 1.955 1.955 0 0 0-1.4-3.314 1.955 1.955 0 0 0-1.461 3.25.216.216 0 0 1-.322.286 2.387 2.387 0 0 1 1.783-3.968 2.387 2.387 0 0 1 2.384 2.385c0 .624-.24 1.214-.675 1.662a.215.215 0 0 1-.154.065M.708 19.708h20.584v.032a1.172 1.172 0 0 1-1.174 1.15l-18.24-.02c-.643 0-1.165-.519-1.17-1.162"/>
    </g>
</svg>
