<svg width="104" height="104" viewBox="0 0 104 104" fill="none" xmlns="http://www.w3.org/2000/svg">
<path d="M0 52C0 23.2812 23.2812 0 52 0V0C80.7188 0 104 23.2812 104 52V52C104 80.7188 80.7188 104 52 104V104C23.2812 104 0 80.7188 0 52V52Z" fill="#C0F7DD"/>
<g filter="url(#filter0_d_7808_56724)">
<path d="M79.8507 63.0219H25.065C22.7014 63.0219 20.8442 61.1656 20.8442 58.8031V45.2187C20.8442 42.8562 22.7014 41 25.065 41H79.8507C82.2144 41 84.0715 42.8562 84.0715 45.2187V58.8031C84.0715 61.0812 82.13 63.0219 79.8507 63.0219Z" fill="white"/>
<path d="M79.8507 63.0219H25.065C22.7014 63.0219 20.8442 61.1656 20.8442 58.8031V45.2187C20.8442 42.8562 22.7014 41 25.065 41H79.8507C82.2144 41 84.0715 42.8562 84.0715 45.2187V58.8031C84.0715 61.0812 82.13 63.0219 79.8507 63.0219Z" stroke="#202020" stroke-miterlimit="10" stroke-linejoin="round"/>
</g>
<path d="M36.039 55.6809C38.0903 55.6809 39.7533 54.0187 39.7533 51.9684C39.7533 49.918 38.0903 48.2559 36.039 48.2559C33.9876 48.2559 32.3247 49.918 32.3247 51.9684C32.3247 54.0187 33.9876 55.6809 36.039 55.6809Z" fill="#202020"/>
<path d="M47.0131 55.6809C49.0645 55.6809 50.7274 54.0187 50.7274 51.9684C50.7274 49.918 49.0645 48.2559 47.0131 48.2559C44.9618 48.2559 43.2988 49.918 43.2988 51.9684C43.2988 54.0187 44.9618 55.6809 47.0131 55.6809Z" fill="#202020"/>
<path d="M57.9028 55.6809C59.9541 55.6809 61.617 54.0187 61.617 51.9684C61.617 49.918 59.9541 48.2559 57.9028 48.2559C55.8514 48.2559 54.1885 49.918 54.1885 51.9684C54.1885 54.0187 55.8514 55.6809 57.9028 55.6809Z" fill="#202020"/>
<path d="M68.8764 55.6809C70.9277 55.6809 72.5907 54.0187 72.5907 51.9684C72.5907 49.918 70.9277 48.2559 68.8764 48.2559C66.8251 48.2559 65.1621 49.918 65.1621 51.9684C65.1621 54.0187 66.8251 55.6809 68.8764 55.6809Z" fill="#202020"/>
<defs>
<filter id="filter0_d_7808_56724" x="16.3442" y="40.5" width="68.2273" height="27.0215" filterUnits="userSpaceOnUse" color-interpolation-filters="sRGB">
<feFlood flood-opacity="0" result="BackgroundImageFix"/>
<feColorMatrix in="SourceAlpha" type="matrix" values="0 0 0 0 0 0 0 0 0 0 0 0 0 0 0 0 0 0 127 0" result="hardAlpha"/>
<feOffset dx="-4" dy="4"/>
<feComposite in2="hardAlpha" operator="out"/>
<feColorMatrix type="matrix" values="0 0 0 0 0.12549 0 0 0 0 0.776471 0 0 0 0 0.466667 0 0 0 1 0"/>
<feBlend mode="normal" in2="BackgroundImageFix" result="effect1_dropShadow_7808_56724"/>
<feBlend mode="normal" in="SourceGraphic" in2="effect1_dropShadow_7808_56724" result="shape"/>
</filter>
</defs>
</svg>
