<svg xmlns="http://www.w3.org/2000/svg" width="20" height="20" viewBox="0 0 20 20">
    <g fill="none" fill-rule="evenodd">
        <path fill="#00B663" d="M19.975 9.988a9.986 9.986 0 0 1-9.987 9.987A9.986 9.986 0 0 1 0 9.988 9.986 9.986 0 0 1 9.988 0a9.986 9.986 0 0 1 9.987 9.988"/>
        <path fill="#FFF" d="M14.282 5.5h-.181a.218.218 0 0 0-.218.218v2.007A4.5 4.5 0 0 0 9.997 5.5 4.502 4.502 0 0 0 5.5 9.773a.217.217 0 0 0 .218.227H5.9c.115 0 .211-.09.217-.205a3.884 3.884 0 0 1 3.88-3.678c1.505 0 2.81.854 3.455 2.105h-2.075a.218.218 0 0 0-.218.218v.181c0 .12.098.218.218.218h2.905c.12 0 .218-.098.218-.218V5.718a.218.218 0 0 0-.218-.218zm0 4.5H14.1a.217.217 0 0 0-.217.205 3.887 3.887 0 1 1-7.335 1.573h2.075c.12 0 .218-.097.218-.218v-.181a.218.218 0 0 0-.218-.218H5.718a.218.218 0 0 0-.218.218v2.903c0 .12.098.218.218.218h.181c.12 0 .218-.097.218-.218v-2.007a4.5 4.5 0 0 0 3.886 2.225 4.502 4.502 0 0 0 4.497-4.273.217.217 0 0 0-.218-.227z"/>
    </g>
</svg>
