<svg xmlns="http://www.w3.org/2000/svg" width="22" height="22" viewBox="0 0 22 22">
    <g fill="none" fill-rule="evenodd">
        <path fill="#FFF" d="M11 21.784C5.054 21.784.216 16.946.216 11 .216 5.054 5.054.216 11 .216 16.946.216 21.784 5.054 21.784 11c0 5.946-4.838 10.784-10.784 10.784"/>
        <path fill="#10176B" d="M11 .431C5.172.431.431 5.172.431 11c0 5.828 4.741 10.569 10.569 10.569 5.828 0 10.569-4.741 10.569-10.569C21.569 5.172 16.828.431 11 .431M11 22C4.935 22 0 17.065 0 11S4.935 0 11 0s11 4.935 11 11-4.935 11-11 11"/>
        <path fill="#E8E8E8" d="M11.583.738c-.216 0-.43.008-.642.023 5.053.35 9.063 4.809 9.063 10.239 0 5.43-4.01 9.888-9.063 10.239.212.015.426.023.642.023 5.352 0 9.706-4.604 9.706-10.262S16.935.738 11.583.738"/>
        <path fill="#00B1FF" d="M10.983 13.015a3.85 3.85 0 1 0 0-7.701 3.85 3.85 0 0 0 0 7.7M17.06 16.331c-.915-1.366-2.41-2.235-4.045-2.404a19.528 19.528 0 0 0-4.034-.01c-1.598.162-3.065.984-3.993 2.296-.425.6-.744 1.299-.744 2.045v.903A10.732 10.732 0 0 0 11 21.547c2.54 0 4.877-.883 6.721-2.358v-.93c0-.698-.279-1.355-.662-1.928"/>
    </g>
</svg>
