<svg width="48" height="48" viewBox="0 0 48 48" fill="none" xmlns="http://www.w3.org/2000/svg">
<rect width="48" height="48" rx="12" fill="#029FDB"/>
<path fill-rule="evenodd" clip-rule="evenodd" d="M28.8167 35.264C28.9019 35.3559 28.8495 35.4477 28.7442 35.4477H27.9105C27.7989 35.4477 27.7399 35.4214 27.6677 35.336L27.1688 34.785C26.8341 35.2312 26.3676 35.5658 25.5932 35.5658C24.6349 35.5658 23.8797 34.9884 23.8797 33.9977C23.8797 33.2363 24.287 32.8294 24.9041 32.4883C24.6019 32.1405 24.4643 31.773 24.4643 31.4516C24.4643 30.6377 25.0353 30.0801 25.8951 30.0801C26.7748 30.0801 27.3132 30.5987 27.3132 31.3662C27.3132 32.0224 26.8406 32.3896 26.3416 32.6654L27.0769 33.4596L27.4904 32.7375C27.5428 32.6524 27.602 32.6194 27.7068 32.6194H28.3435C28.4487 32.6194 28.5077 32.6918 28.4423 32.8033L27.7069 34.063L28.8167 35.264ZM29.8537 35.4475C29.7683 35.4475 29.7094 35.3883 29.7094 35.3031V31.0706H28.2716C28.1861 31.0706 28.1272 31.0116 28.1272 30.9263V30.3425C28.1272 30.257 28.1862 30.1978 28.2716 30.1978H32.0988C32.1842 30.1978 32.243 30.257 32.243 30.3425V30.9263C32.243 31.0115 32.1842 31.0706 32.0988 31.0706H30.6611V35.303C30.6611 35.3883 30.6019 35.4475 30.5168 35.4475H29.8537ZM18.84 33.3345L18.0853 31.1692L17.3237 33.3345H18.84ZM20.4024 35.448C20.4943 35.448 20.547 35.3625 20.514 35.277L18.735 30.3299C18.7022 30.2377 18.6366 30.1986 18.538 30.1986H17.6584C17.5601 30.1986 17.501 30.2377 17.4681 30.3299L15.6892 35.277C15.6563 35.3625 15.7155 35.448 15.801 35.448H16.4441C16.5423 35.448 16.6017 35.4022 16.6342 35.3099L17.022 34.1948H19.1421L19.5293 35.3099C19.5622 35.4022 19.6213 35.448 19.7199 35.448H20.4024ZM25.613 34.7388C26.0329 34.7388 26.3154 34.5357 26.5452 34.1878L25.4819 33.0459C25.0747 33.2757 24.812 33.5051 24.812 33.9646C24.8121 34.4174 25.1795 34.7388 25.613 34.7388ZM25.3703 31.3993C25.3703 31.1106 25.5672 30.8939 25.9085 30.8939C26.2499 30.8939 26.4205 31.117 26.4205 31.3862C26.4205 31.6749 26.2235 31.8388 25.7575 32.1081C25.4882 31.8193 25.3703 31.6224 25.3703 31.3993ZM22.4103 35.3031C22.4103 35.3883 22.3509 35.4475 22.2656 35.4475H21.6024C21.5172 35.4475 21.4579 35.3883 21.4579 35.303V31.0706H20.0205C19.9351 31.0706 19.8761 31.0115 19.8761 30.9263V30.3425C19.8761 30.257 19.935 30.1978 20.0205 30.1978H23.8477C23.933 30.1978 23.992 30.257 23.992 30.3425V30.9263C23.992 31.0116 23.933 31.0706 23.8477 31.0706H22.4103V35.3031Z" fill="white"/>
<path fill-rule="evenodd" clip-rule="evenodd" d="M23.8465 12.4805C25.0785 12.4805 26.2213 12.8161 27.2053 13.4059C27.4703 13.5641 27.6012 13.6689 27.6012 13.8188C27.6012 14.4464 25.8392 15.0984 23.5675 15.0984C21.272 15.0984 19.9781 14.5031 19.9781 13.9495C19.9781 13.7617 20.1448 13.6156 20.4411 13.4333C21.4287 12.8278 22.6059 12.4805 23.8465 12.4805ZM28.1829 14.1352C28.2105 14.1785 28.2242 14.2246 28.2242 14.2867C28.2242 15.016 25.9922 16.3062 22.4391 16.3062C19.8283 16.3062 19.3396 15.3377 19.3396 14.7218C19.3396 14.5016 19.424 14.2763 19.61 14.0475C19.6201 14.0339 19.6115 14.0287 19.5998 14.0388C19.2606 14.3262 18.949 14.6497 18.6756 14.9988C18.545 15.1639 18.4639 15.3102 18.4639 15.3978C18.4639 16.6742 21.6644 17.5996 24.657 17.5996C27.8456 17.5996 29.2687 16.5587 29.2687 15.6439C29.2687 15.317 29.1414 15.1261 28.8159 14.7561C28.6046 14.5154 28.4047 14.3194 28.1931 14.1265C28.1829 14.1181 28.1757 14.1249 28.1829 14.1352ZM17.4436 17.5888C17.5071 17.2551 17.7205 16.6103 17.9131 16.2281C17.9183 16.2177 17.9285 16.2196 17.9253 16.2316C17.8928 16.3623 17.8668 16.488 17.8668 16.6136C17.8668 17.9208 20.0347 18.9561 22.6332 18.9561C25.0321 18.9561 29.7867 17.8573 29.7299 16.1524C29.7281 16.1404 29.737 16.1389 29.742 16.149C29.8949 16.4605 30.0755 16.9042 30.172 17.2846C30.2583 17.625 30.2547 17.8777 30.1875 18.117C29.8226 19.4169 27.5702 20.1292 24.6707 20.1292C19.9181 20.1292 17.8806 18.7618 17.4778 17.9071C17.4276 17.8004 17.4158 17.7317 17.4436 17.5888ZM22.5266 21.6757C19.1659 21.6757 17.5812 20.1104 17.2937 19.0423C17.2902 19.0268 17.28 19.0302 17.28 19.0441C17.28 19.4037 17.316 19.8677 17.3779 20.1758C17.4075 20.3257 17.5295 20.561 17.7084 20.7486C18.5222 21.5968 20.5511 22.7854 24.0648 22.7854C28.8522 22.7854 29.9468 21.1907 30.1703 20.6663C30.3301 20.2912 30.4129 19.6135 30.4129 19.0441C30.4129 18.9063 30.4095 18.7963 30.4043 18.6882C30.4043 18.6707 30.3941 18.6693 30.3906 18.6864C30.1514 19.9696 26.0612 21.6757 22.5266 21.6757ZM28.7458 23.2516C27.6838 24.1235 25.9081 24.564 24.2922 24.564C21.2224 24.564 18.7374 23.613 17.9183 21.872C17.9131 21.8585 17.9217 21.8534 17.9304 21.8652C18.8096 23.1397 21.0555 23.8071 23.1427 23.8071C26.0957 23.8071 28.9555 22.9006 29.9431 21.4473C29.9536 21.4316 29.9622 21.4384 29.9571 21.4523C29.8434 21.7379 29.7038 22.0284 29.5611 22.2729C29.3132 22.6978 29.0364 23.014 28.7458 23.2516ZM23.8465 25.6078C22.3305 25.6078 20.9331 25.09 19.8199 24.2283C19.8095 24.2198 19.8146 24.2094 19.8284 24.2162C20.5494 24.6187 21.8262 25.0695 23.8466 25.0695C26.1713 25.0695 27.6476 24.3143 28.1656 23.9684C28.1794 23.9602 28.1863 23.9684 28.1723 23.9808C27.018 24.9918 25.5055 25.6078 23.8465 25.6078Z" fill="white"/>
</svg>
