<svg width="48" height="48" viewBox="0 0 48 48" fill="none" xmlns="http://www.w3.org/2000/svg">
<rect width="48" height="48" rx="12" fill="#E20073"/>
<path fill-rule="evenodd" clip-rule="evenodd" d="M25.1731 13.0229H24.9071V21.4877C24.9071 22.3835 24.9603 22.6667 25.1733 22.8789C25.3482 23.0438 25.7057 23.1147 26.1113 23.1147H26.522V23.6805H21.6592V23.1147H22.0674C22.4757 23.1147 22.8306 23.0439 23.0082 22.8789C23.221 22.6667 23.2742 22.3837 23.2742 21.4877V13.0229H22.9015C21.8546 13.0229 21.0027 13.565 20.5945 14.4847C20.3636 14.9799 20.2572 15.4751 20.1685 16.3947L19.6563 16.3711L19.7425 12.4805H28.4892L28.5602 16.3711L28.028 16.3947C27.6932 13.9424 26.892 13.0229 25.1731 13.0229ZM19.52 17.5915H21.7631V19.8806H19.52V17.5915ZM26.3819 17.5915H28.6249V19.8806H26.3819V17.5915Z" fill="white"/>
<path d="M29.371 28.7614C29.3711 28.9713 29.262 29.1653 29.0848 29.2703C28.9077 29.3753 28.6894 29.3753 28.5122 29.2703C28.3351 29.1653 28.226 28.9713 28.2261 28.7614C28.226 28.5515 28.3351 28.3575 28.5122 28.2526C28.6894 28.1476 28.9077 28.1476 29.0848 28.2526C29.262 28.3575 29.3711 28.5515 29.371 28.7614Z" fill="white"/>
<path d="M14.5931 35.2969L16.4339 28.8737V33.9142C16.4339 34.4643 16.4026 34.6576 16.2778 34.7914C16.1841 34.8954 15.9669 34.9401 15.7261 34.9401H15.6324V35.2969H18.2345V34.9401H18.0991C17.8597 34.9401 17.6412 34.8955 17.5475 34.7914C17.4225 34.6576 17.3913 34.4643 17.3913 33.9142V29.6172C17.3913 29.0671 17.4225 28.8589 17.5475 28.7251C17.6516 28.6359 17.8597 28.5764 18.0991 28.5764H18.2345V28.2344H16.2154L14.6957 33.4235L13.2088 28.2344H11.2001V28.5764H11.3874C11.9391 28.5764 12.0431 28.6954 12.0431 29.4091V33.4978C12.0431 34.152 12.0119 34.4197 11.9182 34.613C11.8141 34.8063 11.5941 34.9401 11.3665 34.9401H11.2V35.2969H13.344V34.9401H13.2088C12.9382 34.9401 12.7195 34.836 12.5932 34.6279C12.4698 34.4197 12.4386 34.2264 12.4386 33.4978V28.8738L14.2688 35.297H14.5931" fill="white"/>
<path fill-rule="evenodd" clip-rule="evenodd" d="M18.3385 32.8735C18.3385 31.2825 19.1815 30.2715 20.4721 30.2715C21.7091 30.2715 22.5522 31.3271 22.5522 32.8587C22.5522 34.405 21.7091 35.4459 20.4395 35.4459C19.1815 35.4459 18.3385 34.405 18.3385 32.8735ZM21.3032 31.2529C21.1263 30.8515 20.8037 30.6136 20.4305 30.6136C20.087 30.6136 19.7525 30.8664 19.5873 31.2529C19.4208 31.6246 19.3465 32.1301 19.3465 32.8438C19.3465 34.3603 19.7019 35.1038 20.4394 35.1038C21.1783 35.1038 21.5426 34.3604 21.5426 32.8588C21.5426 32.1302 21.4698 31.6246 21.3032 31.2529Z" fill="white"/>
<path fill-rule="evenodd" clip-rule="evenodd" d="M22.8034 28.2345L24.2815 28.1602V31.1041C24.5 30.5986 24.9253 30.3161 25.5081 30.3161C26.6306 30.3161 27.3815 31.2974 27.3815 32.7545C27.3815 34.3008 26.5696 35.3862 25.4471 35.3862C24.9787 35.3862 24.7602 35.297 24.2488 34.8807C24.1743 34.8064 24.1239 34.7916 24.0733 34.7916C23.9692 34.7916 23.9052 34.8658 23.6466 35.297H23.3031C23.3864 35.0295 23.4072 34.8658 23.4072 34.2414V29.4091C23.4072 28.7103 23.312 28.5616 22.8748 28.5616H22.8034V28.2345ZM26.372 32.7993C26.372 31.4017 26.0286 30.688 25.3609 30.688C25.0412 30.688 24.7066 30.9111 24.5104 31.2679C24.2919 31.6396 24.1981 32.1302 24.1981 32.8439C24.1981 34.2564 24.5922 35.0296 25.3416 35.0296C26.0181 35.0296 26.372 34.2713 26.372 32.7993Z" fill="white"/>
<path d="M29.307 30.3457L27.7889 30.4349V30.762H27.9034C28.339 30.762 28.4328 30.9107 28.4328 31.5947V34.1075C28.4328 34.7915 28.3391 34.9551 27.9034 34.9551H27.7383V35.2969H30.0044V34.9551H29.8408C29.4022 34.9551 29.3071 34.8063 29.3071 34.1075V30.3457" fill="white"/>
<path d="M31.9401 28.1602L30.422 28.2345V28.5616H30.5351C30.9722 28.5616 31.0659 28.7103 31.0659 29.4091V34.1075C31.0659 34.8064 30.9722 34.9551 30.5351 34.9551H30.3701V35.2969H32.6374V34.9551H32.4709C32.0322 34.9551 31.9401 34.8063 31.9401 34.1075V28.1602" fill="white"/>
<path fill-rule="evenodd" clip-rule="evenodd" d="M34.8456 30.2715C35.9785 30.2715 36.7279 31.2528 36.7785 32.8289H33.9296C33.9402 34.3753 34.2925 35.0294 35.1147 35.0294C35.6768 35.0294 36.0411 34.7171 36.4054 33.9439L36.7175 34.1075C36.2699 35.0294 35.7287 35.4458 34.9482 35.4458C33.7408 35.4458 32.9617 34.4198 32.9617 32.8289C32.9617 31.342 33.7512 30.2715 34.8456 30.2715ZM34.896 30.6435C34.3117 30.6435 33.949 31.3423 33.9401 32.4574H35.8119C35.8222 31.3274 35.4789 30.6435 34.896 30.6435Z" fill="white"/>
</svg>
