<svg width="80" height="80" viewBox="0 0 80 80" fill="none" xmlns="http://www.w3.org/2000/svg">
<path fill-rule="evenodd" clip-rule="evenodd" d="M74.3031 39.9283C74.3031 58.9434 58.8884 74.3585 39.8729 74.3585C20.8578 74.3585 5.44269 58.9434 5.44269 39.9283C5.44269 20.9132 20.8578 5.49805 39.8729 5.49805C58.8884 5.49805 74.3031 20.9132 74.3031 39.9283Z" fill="#F7F7F7"/>
<mask id="mask0_7510:11872" style="mask-type:alpha" maskUnits="userSpaceOnUse" x="0" y="57" width="19" height="18">
<path fill-rule="evenodd" clip-rule="evenodd" d="M0 57.8359H18.7806V74.4851H0V57.8359Z" fill="white"/>
</mask>
<g mask="url(#mask0_7510:11872)">
<path fill-rule="evenodd" clip-rule="evenodd" d="M18.7806 72.1915C18.27 67.4064 17.7601 62.6214 17.2499 57.8359C11.6559 58.4681 6.11282 59.282 0.573259 60.2839C0.0616145 60.3796 -0.171986 60.9438 0.142326 61.319C1.60544 63.0608 3.04366 64.8279 4.45201 66.6142C4.58393 66.7814 4.62197 67.0007 4.55406 67.2027C3.83441 69.3428 3.1457 71.4978 2.49148 73.6592C2.35104 74.1214 2.75495 74.563 3.23246 74.4734C8.39726 73.5447 13.566 72.786 18.7806 72.1915Z" fill="#15BA6F"/>
</g>
<path fill-rule="evenodd" clip-rule="evenodd" d="M8.60772 56.1578C9.24808 60.5379 9.88879 64.9187 10.5288 69.2988C13.3018 70.198 16.0531 71.1622 18.7805 72.1916C18.2703 67.4065 17.7601 62.6214 17.2502 57.836C14.8097 56.8774 12.3503 55.9679 9.87456 55.1068C9.19332 54.8703 8.50354 55.4445 8.60772 56.1578Z" fill="#0F985A"/>
<mask id="mask1_7510:11872" style="mask-type:alpha" maskUnits="userSpaceOnUse" x="60" y="57" width="20" height="18">
<path fill-rule="evenodd" clip-rule="evenodd" d="M60.9656 57.8369H79.7461V74.4857H60.9656V57.8369Z" fill="white"/>
</mask>
<g mask="url(#mask1_7510:11872)">
<path fill-rule="evenodd" clip-rule="evenodd" d="M60.9656 72.1921C61.4759 67.407 61.9861 62.622 62.4963 57.8369C68.0899 58.4691 73.6334 59.2826 79.1729 60.2846C79.6846 60.3802 79.9182 60.9445 79.6039 61.3196C78.1407 63.0614 76.7025 64.8286 75.2942 66.6149C75.1623 66.782 75.1242 67.0014 75.1918 67.2033C75.9118 69.3434 76.6005 71.4984 77.2547 73.6598C77.3948 74.1221 76.9912 74.5637 76.5137 74.4741C71.3486 73.5454 66.1799 72.7866 60.9656 72.1921Z" fill="#15BA6F"/>
</g>
<path fill-rule="evenodd" clip-rule="evenodd" d="M71.1786 55.9021C70.5254 60.3678 69.8726 64.8333 69.2195 69.2994C66.4468 70.1982 63.6952 71.1629 60.9681 72.1915C61.4783 67.4064 61.9885 62.6214 62.4987 57.8363C65.0193 56.8464 67.5604 55.9085 70.1194 55.0224C70.689 54.8254 71.2657 55.3054 71.1786 55.9021Z" fill="#0F985A"/>
<path fill-rule="evenodd" clip-rule="evenodd" d="M68.4969 69.2006C49.4114 66.6264 30.3369 66.626 11.2518 69.2002C10.8511 69.2543 10.482 68.9777 10.4233 68.5777C9.778 64.1631 9.13266 59.7485 8.48733 55.3343C8.42795 54.9268 8.7124 54.5478 9.12022 54.4923C29.6155 51.7119 50.1332 51.7122 70.6285 54.493C71.0363 54.5482 71.3207 54.9272 71.2614 55.3346C70.616 59.7492 69.9707 64.1634 69.325 68.578C69.2667 68.978 68.8973 69.2546 68.4969 69.2006Z" fill="#1BD27F"/>
<path fill-rule="evenodd" clip-rule="evenodd" d="M20.9199 59.9148C21.0048 61.0181 21.0902 62.1211 21.1748 63.2247C20.8157 63.2521 20.4566 63.2805 20.0975 63.31L20.0196 62.7756C20.0139 62.776 20.0082 62.7764 20.0025 62.7771C19.9627 62.9122 19.8976 63.026 19.8109 63.1188C19.7231 63.2116 19.6249 63.2844 19.5104 63.3367C19.3977 63.3893 19.2751 63.4299 19.1421 63.4583C19.0095 63.4868 18.8751 63.507 18.7385 63.5191C18.3346 63.554 18.0089 63.5163 17.764 63.4039C17.5183 63.2919 17.3234 63.1077 17.1784 62.8524C17.0354 62.5968 16.9252 62.2743 16.858 61.8857C16.7897 61.4967 16.7304 61.0498 16.6834 60.5445C16.6351 60.0336 16.6223 59.5792 16.6468 59.1813C16.671 58.7838 16.7552 58.4439 16.9032 58.1605C17.0489 57.8779 17.2694 57.6531 17.5599 57.4867C17.8507 57.32 18.2354 57.2162 18.7151 57.1753C19.0006 57.1511 19.2683 57.166 19.5176 57.2197C19.7657 57.2741 19.984 57.3765 20.1721 57.5276C20.3613 57.6787 20.5131 57.8796 20.6329 58.1307C20.7513 58.3817 20.8256 58.6924 20.8541 59.0619C20.3325 59.102 19.8109 59.1436 19.2893 59.1874C19.2626 58.8635 19.2136 58.6302 19.1428 58.4869C19.0699 58.3159 18.938 58.238 18.7456 58.2544C18.6127 58.2658 18.5085 58.3067 18.4352 58.3756C18.3631 58.445 18.314 58.5609 18.2898 58.723C18.2667 58.8855 18.26 59.1024 18.272 59.3733C18.2845 59.6439 18.3083 59.9838 18.3442 60.3931C18.3808 60.8023 18.4153 61.1412 18.4505 61.41C18.484 61.6791 18.5295 61.8914 18.58 62.0471C18.6312 62.2032 18.6948 62.3088 18.7723 62.3653C18.8498 62.4215 18.9472 62.4443 19.0674 62.4343C19.1538 62.4265 19.2285 62.4034 19.2907 62.3643C19.3533 62.3241 19.4034 62.2555 19.4422 62.158C19.4788 62.0603 19.5048 61.9266 19.5168 61.757C19.5289 61.587 19.5225 61.3712 19.5019 61.1099C19.312 61.1259 19.1218 61.1419 18.9323 61.1579C18.9014 60.7998 18.8708 60.4418 18.8402 60.0841C19.5339 60.0247 20.2269 59.9682 20.9199 59.9148Z" fill="white"/>
<path fill-rule="evenodd" clip-rule="evenodd" d="M23.2313 61.3682C23.2512 61.6641 23.3077 61.8589 23.4002 61.9528C23.4926 62.0466 23.6132 62.0879 23.7625 62.0783C23.9118 62.0687 24.026 62.0114 24.1052 61.9062C24.1831 61.801 24.2151 61.6004 24.1956 61.3042C24.1013 59.8386 24.0082 58.3734 23.914 56.9078C24.4576 56.8726 25.0016 56.8399 25.5452 56.8086C25.622 58.1409 25.6985 59.4731 25.7749 60.8058C25.7995 61.2328 25.7746 61.5915 25.6988 61.8813C25.6238 62.1714 25.5047 62.4068 25.3404 62.5882C25.1772 62.7691 24.9671 62.8989 24.7154 62.9775C24.4629 63.0561 24.1685 63.1066 23.8318 63.1286C23.5012 63.1506 23.2039 63.1393 22.9404 63.0945C22.6763 63.05 22.4508 62.949 22.2652 62.7912C22.0793 62.6333 21.9289 62.4154 21.8165 62.1377C21.7035 61.8603 21.6313 61.5083 21.5993 61.0813L21.3013 57.0888C21.845 57.0486 22.3886 57.0095 22.9319 56.9725C23.0315 58.4378 23.1314 59.903 23.2313 61.3682Z" fill="white"/>
<path fill-rule="evenodd" clip-rule="evenodd" d="M28.2625 57.917C28.1544 58.787 28.0477 59.6578 27.9428 60.5278C28.2422 60.5133 28.5419 60.4994 28.8417 60.4859C28.6557 59.629 28.4683 58.7725 28.2799 57.9163C28.2739 57.9166 28.2682 57.917 28.2625 57.917ZM29.2396 56.623C29.8355 58.6355 30.4186 60.6501 30.99 62.6668C30.4247 62.6878 29.8593 62.7102 29.2943 62.7347C29.2243 62.3813 29.155 62.0275 29.0846 61.6734C28.6604 61.6922 28.2362 61.7121 27.8117 61.7327C27.7751 62.0918 27.7384 62.4506 27.7022 62.8094C27.1457 62.8371 26.5896 62.867 26.0328 62.8986C26.4051 60.8382 26.7895 58.7781 27.1863 56.7194C27.8703 56.6842 28.5548 56.6522 29.2396 56.623Z" fill="white"/>
<path fill-rule="evenodd" clip-rule="evenodd" d="M33.0684 59.0742C33.2991 59.0678 33.468 58.9967 33.5757 58.8594C33.6824 58.7229 33.7329 58.5465 33.7276 58.3293C33.7226 58.0729 33.6636 57.892 33.553 57.7864C33.4417 57.6808 33.2639 57.6306 33.0197 57.6377C32.9148 57.6406 32.8099 57.6438 32.7053 57.6463C32.7192 58.1256 32.7331 58.6045 32.7466 59.0834L33.0684 59.0742ZM33.5943 56.4757C33.9043 56.4679 34.1699 56.502 34.3914 56.577C34.6122 56.6521 34.7932 56.7605 34.9336 56.9038C35.0741 57.046 35.1761 57.2167 35.2412 57.4154C35.3059 57.6138 35.3407 57.83 35.3447 58.0636C35.3535 58.4743 35.2728 58.8067 35.1111 59.0606C34.9471 59.3148 34.6815 59.4741 34.3132 59.5395C34.3135 59.5449 34.3132 59.5509 34.3135 59.5562C34.7015 59.5822 34.9706 59.7109 35.1196 59.9417C35.2682 60.1731 35.3454 60.4938 35.3535 60.9038C35.3567 61.078 35.3596 61.2519 35.3631 61.4257C35.3646 61.5061 35.3653 61.5882 35.3678 61.6739C35.3699 61.7596 35.3727 61.8407 35.3809 61.9178C35.388 61.9946 35.3976 62.0643 35.4104 62.1269C35.4236 62.1895 35.4389 62.2375 35.4563 62.2716C35.4791 62.3054 35.5036 62.3377 35.5263 62.3687C35.5498 62.3996 35.5871 62.4291 35.6391 62.4565C35.6394 62.4849 35.6401 62.5134 35.6408 62.5418C35.0755 62.5518 34.5102 62.5635 33.9448 62.5774C33.9039 62.4985 33.8702 62.4049 33.8474 62.2972C33.8247 62.1895 33.8083 62.0817 33.7969 61.9733C33.7855 61.8656 33.7777 61.7614 33.772 61.6615C33.7671 61.5619 33.7624 61.4809 33.7614 61.4179L33.7511 61.0073C33.7468 60.8366 33.734 60.6944 33.7144 60.5806C33.6945 60.4668 33.6622 60.3779 33.6174 60.3132C33.5729 60.2492 33.516 60.2048 33.4492 60.1806C33.3823 60.1568 33.2999 60.1461 33.2014 60.1486C33.0602 60.1525 32.9187 60.1564 32.7779 60.1607C32.801 60.976 32.8241 61.7913 32.8483 62.6065C32.3171 62.6218 31.7863 62.6389 31.2551 62.6577C31.1832 60.6225 31.1111 58.5881 31.0389 56.5532C31.8904 56.523 32.7423 56.4974 33.5943 56.4757Z" fill="white"/>
<path fill-rule="evenodd" clip-rule="evenodd" d="M38.1345 57.6521C37.9923 58.5175 37.8511 59.3826 37.7118 60.248C38.0111 60.2452 38.3112 60.243 38.6113 60.2416C38.4598 59.3783 38.3066 58.5154 38.1519 57.6521H38.1345ZM39.1624 56.3984C39.6776 58.4329 40.1804 60.4692 40.6707 62.5069C40.105 62.5047 39.5389 62.5051 38.9736 62.5069C38.9185 62.1506 38.8623 61.7943 38.8065 61.4381C38.3816 61.4402 37.9571 61.4431 37.5329 61.4473C37.4817 61.8043 37.4309 62.1613 37.38 62.5183C36.8232 62.5239 36.2664 62.5318 35.71 62.541C36.1633 60.4969 36.6291 58.4539 37.1069 56.4127C37.7917 56.4048 38.4769 56.4002 39.1624 56.3984Z" fill="white"/>
<path fill-rule="evenodd" clip-rule="evenodd" d="M42.7896 56.414C43.126 57.6727 43.4573 58.9324 43.7834 60.1925C43.7894 60.1925 43.7948 60.1925 43.8008 60.1928C43.8207 58.9381 43.841 57.6833 43.8612 56.4289C44.3704 56.4371 44.8796 56.4471 45.3894 56.4581C45.3443 58.494 45.2991 60.5292 45.254 62.5651C44.6712 62.5523 44.0884 62.5409 43.506 62.5324C43.1704 61.2695 42.8301 60.0076 42.4838 58.7464C42.4781 58.7464 42.4721 58.7461 42.466 58.7461L42.4266 62.5189C41.9295 62.5135 41.4328 62.51 40.9357 62.5078L40.9628 56.3994C41.5711 56.4023 42.1805 56.4069 42.7896 56.414Z" fill="white"/>
<path fill-rule="evenodd" clip-rule="evenodd" d="M45.7432 57.8179L45.7755 56.4668C47.1337 56.4988 48.4913 56.5422 49.8491 56.5966C49.831 57.0467 49.8129 57.4972 49.7951 57.9473C49.3876 57.931 48.9801 57.9153 48.5727 57.9011C48.5169 59.4858 48.4617 61.0702 48.4056 62.6549C47.8747 62.6364 47.3442 62.6193 46.8127 62.6044C46.8578 61.0193 46.9033 59.4346 46.9489 57.8496C46.5471 57.8382 46.1453 57.8275 45.7432 57.8179Z" fill="white"/>
<path fill-rule="evenodd" clip-rule="evenodd" d="M53.9296 56.7934C53.9051 57.2261 53.8809 57.6591 53.8564 58.0915C53.1666 58.0527 52.4772 58.0165 51.7877 57.9834L51.7376 59.0259C52.3812 59.0568 53.024 59.0906 53.6672 59.1265C53.6437 59.5418 53.621 59.9575 53.5972 60.3735C52.9575 60.3375 52.3179 60.3045 51.6775 60.2735L51.6192 61.4871C52.3246 61.5212 53.0308 61.5578 53.7358 61.5983C53.7113 62.0307 53.6864 62.4634 53.6622 62.8965C52.4299 62.8264 51.1972 62.7656 49.9644 62.7144C50.0487 60.6803 50.133 58.6458 50.218 56.6113C51.4553 56.6629 52.6926 56.7237 53.9296 56.7934Z" fill="white"/>
<path fill-rule="evenodd" clip-rule="evenodd" d="M58.3139 57.0801C58.2819 57.5125 58.2496 57.9448 58.2176 58.3768C57.5288 58.326 56.8398 58.2776 56.1507 58.2321C56.128 58.5795 56.1048 58.9265 56.0824 59.2739C56.7253 59.3159 57.3678 59.3607 58.0103 59.4083C57.98 59.8236 57.9495 60.2385 57.9189 60.6538C57.2796 60.6065 56.64 60.5621 56.0003 60.5201C55.9736 60.9244 55.947 61.3279 55.9207 61.7322C56.6257 61.7788 57.3304 61.8282 58.0355 61.8808C58.0035 62.3128 57.9712 62.7452 57.9388 63.1772C56.7075 63.0858 55.4762 63.0033 54.2439 62.9304C54.3644 60.8977 54.4842 58.8654 54.6044 56.833C55.8417 56.9059 57.078 56.9884 58.3139 57.0801Z" fill="white"/>
<path fill-rule="evenodd" clip-rule="evenodd" d="M60.5236 62.2332C60.6776 62.246 60.8034 62.2357 60.898 62.2008C60.993 62.1664 61.0715 62.0828 61.132 61.9505C61.1924 61.8183 61.2411 61.6284 61.2774 61.3795C61.314 61.1306 61.3492 60.8021 61.3855 60.3925C61.4207 59.9836 61.4445 59.6536 61.4506 59.4023C61.458 59.1509 61.4424 58.955 61.4054 58.8142C61.3681 58.6734 61.3041 58.5781 61.2152 58.5272C61.1263 58.4767 61.0029 58.4444 60.8461 58.4312C60.7387 58.422 60.6314 58.4131 60.5233 58.4039C60.4173 59.6714 60.3114 60.9386 60.2058 62.2065C60.3117 62.2151 60.4173 62.2243 60.5236 62.2332ZM61.3549 57.3243C61.8271 57.3652 62.1876 57.4821 62.4351 57.6734C62.6822 57.8647 62.8586 58.1072 62.9624 58.4009C63.0662 58.6939 63.1167 59.0256 63.1107 59.3943C63.105 59.763 63.0829 60.1463 63.0463 60.5438C63.0083 60.9413 62.9578 61.3218 62.8948 61.6855C62.8312 62.0486 62.7224 62.3654 62.567 62.6345C62.4127 62.9037 62.1997 63.1099 61.9274 63.2539C61.655 63.3982 61.2899 63.4498 60.828 63.41C60.0593 63.3431 59.2898 63.2802 58.5208 63.2212C58.6769 61.1909 58.8326 59.1611 58.989 57.1309C59.7773 57.1917 60.5659 57.256 61.3549 57.3243Z" fill="white"/>
<path d="M21.2233 26.2642V23.9342H21.509C22.1925 23.9342 22.7347 23.8769 23.1339 23.7645C23.5131 23.6582 23.8084 23.4862 24.0269 23.2486C24.2541 23.0014 24.462 22.6307 24.6457 22.1364L24.7149 21.9502H26.8678V38.304H23.816V26.2642H21.2233Z" fill="#262626"/>
<path fill-rule="evenodd" clip-rule="evenodd" d="M29.1821 25.9783V34.2756C29.1821 35.6059 29.5282 36.6529 30.2283 37.4015C30.933 38.1554 31.941 38.5293 33.2331 38.5293C34.525 38.5293 35.5329 38.1554 36.2376 37.4015C36.9375 36.6523 37.2842 35.6048 37.2842 34.2756V25.9783C37.2842 24.6489 36.9375 23.6017 36.2376 22.8524C35.5329 22.0985 34.525 21.7246 33.2331 21.7246C31.941 21.7246 30.933 22.0985 30.2283 22.8524C29.5282 23.601 29.1821 24.6478 29.1821 25.9783ZM34.2324 25.8206V34.4332C34.2324 35.3233 33.9185 35.7034 33.2331 35.7034C32.5474 35.7034 32.2335 35.3234 32.2335 34.4332V25.8206C32.2335 24.9304 32.5474 24.5504 33.2331 24.5504C33.9185 24.5504 34.2324 24.9304 34.2324 25.8206Z" fill="#262626"/>
<path fill-rule="evenodd" clip-rule="evenodd" d="M38.2006 25.9783V34.2756C38.2006 35.6059 38.5467 36.6529 39.2468 37.4015C39.9515 38.1554 40.9595 38.5293 42.2516 38.5293C43.5435 38.5293 44.5514 38.1554 45.2561 37.4015C45.956 36.6523 46.3027 35.6048 46.3027 34.2756V25.9783C46.3027 24.6489 45.956 23.6017 45.2561 22.8524C44.5514 22.0985 43.5435 21.7246 42.2516 21.7246C40.9595 21.7246 39.9515 22.0985 39.2468 22.8524C38.5466 23.601 38.2006 24.6478 38.2006 25.9783ZM43.2509 25.8206V34.4332C43.2509 35.3233 42.937 35.7034 42.2516 35.7034C41.5659 35.7034 41.252 35.3234 41.252 34.4332V25.8206C41.252 24.9304 41.5659 24.5504 42.2516 24.5504C42.937 24.5504 43.2509 24.9304 43.2509 25.8206Z" fill="#262626"/>
<path fill-rule="evenodd" clip-rule="evenodd" d="M54.1858 31.7728V35.7187C54.1858 36.5975 54.4115 37.2909 54.8715 37.7844C55.3359 38.2833 56.0059 38.5293 56.8616 38.5293C57.7173 38.5293 58.3873 38.2833 58.852 37.7844C59.3116 37.291 59.537 36.5976 59.537 35.7187V31.7728C59.537 30.8942 59.3117 30.2011 58.8521 29.7069C58.387 29.208 57.7169 28.9619 56.8616 28.9619C56.0062 28.9619 55.3361 29.208 54.8715 29.7068C54.4114 30.2011 54.1858 30.8942 54.1858 31.7728ZM57.3876 31.6603V35.831C57.3876 36.346 57.231 36.5373 56.8616 36.5373C56.4923 36.5373 56.3359 36.3461 56.3359 35.831V31.6603C56.3359 31.1451 56.4924 30.9537 56.8616 30.9537C57.2309 30.9537 57.3876 31.1453 57.3876 31.6603Z" fill="#262626"/>
<path d="M55.4708 21.9502H57.6618L51.3304 38.304H49.1397L55.4708 21.9502Z" fill="#262626"/>
<path fill-rule="evenodd" clip-rule="evenodd" d="M47.2642 28.4811C47.2642 29.3598 47.4898 30.053 47.9496 30.5471C48.4145 31.0462 49.0843 31.2923 49.94 31.2923C50.7953 31.2923 51.4657 31.046 51.9301 30.547C52.39 30.0529 52.6157 29.3596 52.6157 28.4811V24.5351C52.6157 23.6569 52.3899 22.9636 51.9301 22.4695C51.4658 21.9707 50.7955 21.7246 49.94 21.7246C49.0841 21.7246 48.4144 21.9705 47.9496 22.4694C47.4898 22.9635 47.2642 23.6567 47.2642 24.5351V28.4811ZM50.4656 24.4227V28.5941C50.4656 29.1088 50.3089 29.3004 49.9399 29.3004C49.5706 29.3004 49.4139 29.1088 49.4139 28.5941V24.4227C49.4139 23.9079 49.5706 23.7164 49.9399 23.7164C50.3089 23.7164 50.4656 23.908 50.4656 24.4227Z" fill="#262626"/>
<path fill-rule="evenodd" clip-rule="evenodd" d="M20.7057 46.0681C20.7057 46.2243 20.7324 46.3576 20.7857 46.4681C20.8391 46.5786 20.9134 46.6691 21.0086 46.7395C21.1038 46.81 21.2134 46.8615 21.3372 46.8938C21.461 46.9262 21.5953 46.9424 21.74 46.9424C21.8962 46.9424 22.0296 46.9243 22.14 46.8881C22.2505 46.8519 22.34 46.8053 22.4086 46.7481C22.4772 46.691 22.5267 46.6253 22.5572 46.551C22.5876 46.4767 22.6029 46.4015 22.6029 46.3253C22.6029 46.1691 22.5676 46.0538 22.4972 45.9795C22.4267 45.9053 22.3496 45.8529 22.2657 45.8224C22.121 45.7691 21.9524 45.7186 21.76 45.671C21.5676 45.6234 21.3305 45.5615 21.0486 45.4853C20.8734 45.4395 20.7276 45.3795 20.6115 45.3053C20.4953 45.231 20.4029 45.1481 20.3343 45.0567C20.2657 44.9653 20.2172 44.8681 20.1886 44.7653C20.16 44.6624 20.1457 44.5576 20.1457 44.451C20.1457 44.2453 20.1886 44.0672 20.2743 43.9167C20.36 43.7662 20.4734 43.6415 20.6143 43.5424C20.7553 43.4434 20.9153 43.37 21.0943 43.3224C21.2734 43.2748 21.4543 43.251 21.6372 43.251C21.8505 43.251 22.0515 43.2786 22.24 43.3338C22.4286 43.3891 22.5943 43.4719 22.7372 43.5824C22.88 43.6929 22.9934 43.8291 23.0772 43.991C23.161 44.1529 23.2029 44.3405 23.2029 44.5538H22.4886C22.4696 44.291 22.38 44.1053 22.22 43.9967C22.06 43.8881 21.8562 43.8338 21.6086 43.8338C21.5248 43.8338 21.4391 43.8424 21.3515 43.8595C21.2638 43.8767 21.1838 43.9053 21.1115 43.9453C21.0391 43.9853 20.9791 44.0395 20.9315 44.1081C20.8838 44.1767 20.86 44.2624 20.86 44.3653C20.86 44.51 20.9048 44.6234 20.9943 44.7053C21.0838 44.7872 21.201 44.8491 21.3457 44.891C21.361 44.8948 21.421 44.911 21.5257 44.9395C21.6305 44.9681 21.7476 44.9995 21.8772 45.0338C22.0067 45.0681 22.1334 45.1015 22.2572 45.1338C22.381 45.1662 22.4696 45.19 22.5229 45.2053C22.6562 45.2472 22.7724 45.3043 22.8715 45.3767C22.9705 45.4491 23.0534 45.5319 23.12 45.6253C23.1867 45.7186 23.2362 45.8186 23.2686 45.9253C23.301 46.0319 23.3172 46.1386 23.3172 46.2453C23.3172 46.4738 23.2705 46.6691 23.1772 46.831C23.0838 46.9929 22.961 47.1253 22.8086 47.2281C22.6562 47.331 22.4829 47.4062 22.2886 47.4538C22.0943 47.5015 21.8962 47.5253 21.6943 47.5253C21.4619 47.5253 21.2429 47.4967 21.0372 47.4396C20.8315 47.3824 20.6524 47.2948 20.5 47.1767C20.3476 47.0586 20.2257 46.9072 20.1343 46.7224C20.0429 46.5376 19.9953 46.3196 19.9915 46.0681H20.7057ZM25.0314 43.3482H25.7914L27.3629 47.4282H26.5971L26.2143 46.3482H24.5857L24.2029 47.4282H23.4657L25.0314 43.3482ZM26.0258 45.8052H24.78L25.3972 44.051H25.4143L26.0258 45.8052ZM27.3629 43.3482H30.6658V43.9653H29.3686V47.4282H28.6543V43.9653H27.3629V43.3482ZM31.8544 43.3482H31.1401V47.4282H31.8544V43.3482ZM33.1972 46.0681C33.1972 46.2243 33.2239 46.3576 33.2772 46.4681C33.3305 46.5786 33.4048 46.6691 33.5001 46.7396C33.5953 46.81 33.7048 46.8615 33.8286 46.8938C33.9524 46.9262 34.0867 46.9424 34.2315 46.9424C34.3877 46.9424 34.521 46.9243 34.6315 46.8881C34.742 46.8519 34.8315 46.8053 34.9001 46.7481C34.9686 46.691 35.0182 46.6253 35.0486 46.551C35.0791 46.4767 35.0943 46.4015 35.0943 46.3253C35.0943 46.1691 35.0591 46.0538 34.9886 45.9796C34.9182 45.9053 34.841 45.8529 34.7572 45.8224C34.6124 45.7691 34.4439 45.7186 34.2515 45.671C34.0591 45.6234 33.822 45.5615 33.5401 45.4853C33.3648 45.4396 33.2191 45.3796 33.1029 45.3053C32.9867 45.231 32.8943 45.1481 32.8258 45.0567C32.7572 44.9653 32.7086 44.8681 32.6801 44.7653C32.6515 44.6624 32.6372 44.5576 32.6372 44.451C32.6372 44.2453 32.6801 44.0672 32.7658 43.9167C32.8515 43.7662 32.9648 43.6415 33.1058 43.5424C33.2467 43.4434 33.4067 43.37 33.5858 43.3224C33.7648 43.2748 33.9458 43.251 34.1286 43.251C34.342 43.251 34.5429 43.2786 34.7315 43.3338C34.9201 43.3891 35.0858 43.4719 35.2286 43.5824C35.3715 43.6929 35.4848 43.8291 35.5686 43.991C35.6524 44.1529 35.6943 44.3405 35.6943 44.5538H34.9801C34.961 44.291 34.8715 44.1053 34.7115 43.9967C34.5515 43.8881 34.3477 43.8338 34.1001 43.8338C34.0162 43.8338 33.9305 43.8424 33.8429 43.8595C33.7553 43.8767 33.6753 43.9053 33.6029 43.9453C33.5305 43.9853 33.4705 44.0395 33.4229 44.1081C33.3753 44.1767 33.3515 44.2624 33.3515 44.3653C33.3515 44.51 33.3962 44.6234 33.4858 44.7053C33.5753 44.7872 33.6924 44.8491 33.8372 44.891C33.8524 44.8948 33.9124 44.911 34.0172 44.9396C34.122 44.9681 34.2391 44.9996 34.3686 45.0338C34.4982 45.0681 34.6248 45.1015 34.7486 45.1338C34.8724 45.1662 34.961 45.19 35.0143 45.2053C35.1477 45.2472 35.2639 45.3043 35.3629 45.3767C35.462 45.4491 35.5448 45.5319 35.6115 45.6253C35.6782 45.7186 35.7277 45.8186 35.7601 45.9253C35.7924 46.0319 35.8086 46.1386 35.8086 46.2453C35.8086 46.4738 35.762 46.6691 35.6686 46.831C35.5753 46.9929 35.4524 47.1253 35.3001 47.2281C35.1477 47.331 34.9743 47.4062 34.7801 47.4538C34.5858 47.5015 34.3877 47.5253 34.1858 47.5253C33.9534 47.5253 33.7343 47.4967 33.5286 47.4396C33.3229 47.3824 33.1439 47.2948 32.9915 47.1767C32.8391 47.0586 32.7172 46.9072 32.6258 46.7224C32.5343 46.5376 32.4867 46.3196 32.4829 46.0681H33.1972ZM39.2486 43.3482H36.4315V47.4282H37.1458V45.6167H38.9915V45.0339H37.1458V43.9653H39.2486V43.3482ZM40.9114 43.3482H41.6714L43.2429 47.4282H42.4771L42.0943 46.3482H40.4657L40.0829 47.4282H39.3457L40.9114 43.3482ZM41.9058 45.8052H40.66L41.2772 44.051H41.2943L41.9058 45.8052ZM46.3857 44.6453C46.3552 44.5272 46.3133 44.4186 46.26 44.3196C46.2066 44.2205 46.1381 44.1348 46.0543 44.0624C45.9704 43.99 45.8724 43.9338 45.76 43.8938C45.6476 43.8538 45.5171 43.8338 45.3685 43.8338C45.1514 43.8338 44.9638 43.8776 44.8057 43.9653C44.6476 44.0529 44.519 44.17 44.42 44.3167C44.3209 44.4634 44.2476 44.63 44.2 44.8167C44.1523 45.0034 44.1285 45.1938 44.1285 45.3881C44.1285 45.5824 44.1523 45.7729 44.2 45.9596C44.2476 46.1462 44.3209 46.3129 44.42 46.4596C44.519 46.6062 44.6476 46.7234 44.8057 46.811C44.9638 46.8986 45.1514 46.9424 45.3685 46.9424C45.5285 46.9424 45.6695 46.9148 45.7914 46.8596C45.9133 46.8043 46.0181 46.7281 46.1057 46.631C46.1933 46.5338 46.2619 46.4205 46.3114 46.291C46.3609 46.1615 46.3933 46.0224 46.4085 45.8738H47.1057C47.0904 46.1176 47.0381 46.3405 46.9485 46.5424C46.859 46.7443 46.7381 46.9186 46.5857 47.0653C46.4333 47.2119 46.2543 47.3253 46.0485 47.4053C45.8428 47.4853 45.6162 47.5253 45.3685 47.5253C45.0638 47.5253 44.7904 47.4691 44.5485 47.3567C44.3066 47.2443 44.1019 47.091 43.9343 46.8967C43.7666 46.7024 43.6381 46.4757 43.5485 46.2167C43.459 45.9576 43.4143 45.6815 43.4143 45.3881C43.4143 45.0986 43.459 44.8243 43.5485 44.5653C43.6381 44.3062 43.7666 44.0796 43.9343 43.8853C44.1019 43.691 44.3066 43.5367 44.5485 43.4224C44.7904 43.3081 45.0638 43.251 45.3685 43.251C45.5971 43.251 45.8124 43.2824 46.0143 43.3453C46.2162 43.4081 46.3943 43.4995 46.5485 43.6195C46.7028 43.7396 46.8276 43.8853 46.9228 44.0567C47.0181 44.2281 47.0771 44.4243 47.1 44.6453H46.3857ZM50.6714 43.3482H47.3686V43.9653H48.66V47.4282H49.3743V43.9653H50.6714V43.3482ZM51.1457 43.3482H51.86V47.4282H51.1457V43.3482ZM53.9086 43.9652C54.0667 43.8776 54.2543 43.8338 54.4715 43.8338C54.6886 43.8338 54.8762 43.8776 55.0343 43.9652C55.1924 44.0529 55.321 44.17 55.42 44.3167C55.5191 44.4633 55.5924 44.63 55.64 44.8167C55.6877 45.0033 55.7115 45.1938 55.7115 45.3881C55.7115 45.5824 55.6877 45.7729 55.64 45.9595C55.5924 46.1462 55.5191 46.3129 55.42 46.4595C55.321 46.6062 55.1924 46.7233 55.0343 46.811C54.8762 46.8986 54.6886 46.9424 54.4715 46.9424C54.2543 46.9424 54.0667 46.8986 53.9086 46.811C53.7505 46.7233 53.6219 46.6062 53.5229 46.4595C53.4238 46.3129 53.3505 46.1462 53.3029 45.9595C53.2553 45.7729 53.2315 45.5824 53.2315 45.3881C53.2315 45.1938 53.2553 45.0033 53.3029 44.8167C53.3505 44.63 53.4238 44.4633 53.5229 44.3167C53.6219 44.17 53.7505 44.0529 53.9086 43.9652ZM54.4715 43.251C54.7762 43.251 55.0496 43.3081 55.2915 43.4224C55.5334 43.5367 55.7381 43.691 55.9058 43.8853C56.0734 44.0796 56.202 44.3062 56.2915 44.5653C56.381 44.8243 56.4258 45.0986 56.4258 45.3881C56.4258 45.6815 56.381 45.9576 56.2915 46.2167C56.202 46.4757 56.0734 46.7024 55.9058 46.8967C55.7381 47.091 55.5334 47.2443 55.2915 47.3567C55.0496 47.4691 54.7762 47.5253 54.4715 47.5253C54.1667 47.5253 53.8934 47.4691 53.6515 47.3567C53.4096 47.2443 53.2048 47.091 53.0372 46.8967C52.8696 46.7024 52.741 46.4757 52.6515 46.2167C52.5619 45.9576 52.5172 45.6815 52.5172 45.3881C52.5172 45.0986 52.5619 44.8243 52.6515 44.5653C52.741 44.3062 52.8696 44.0796 53.0372 43.8853C53.2048 43.691 53.4096 43.5367 53.6515 43.4224C53.8934 43.3081 54.1667 43.251 54.4715 43.251ZM57.8029 43.3482H57.0486V47.4282H57.7286V44.4282H57.7457L59.6029 47.4282H60.3571V43.3482H59.6771V46.3539H59.6657L57.8029 43.3482Z" fill="#262626"/>
</svg>
