<svg xmlns="http://www.w3.org/2000/svg" width="12" height="16" viewBox="0 0 12 16">
    <path fill="gray" fill-rule="nonzero" d="M11.25 0H.75A.75.75 0 0 0 0 .75v.5c0 .414.336.75.75.75 0 2.843 1.594 5.242 3.776 6C2.344 8.758.75 11.157.75 14a.75.75 0 0 0-.75.75v.5c0 .414.336.75.75.75h10.5a.75.75 0 0 0 .75-.75v-.5a.75.75 0 0 0-.75-.75c0-2.843-1.594-5.242-3.776-6 2.182-.758 3.776-3.157 3.776-6a.75.75 0 0 0 .75-.75v-.5a.75.75 0 0 0-.75-.75zM8.904 12H3.096C3.63 10.538 4.724 9.5 6 9.5s2.37 1.037 2.904 2.5zm0-8H3.096a5.863 5.863 0 0 1-.346-2h6.5c0 .713-.125 1.393-.346 2z"/>
</svg>
