<svg xmlns="http://www.w3.org/2000/svg" xmlns:xlink="http://www.w3.org/1999/xlink" width="22" height="22" viewBox="0 0 22 22">
    <defs>
        <path id="a" d="M0 0h11.914v22H0z"/>
    </defs>
    <g fill="none" fill-rule="evenodd">
        <path fill="#FFF" d="M6.413 21.456a.853.853 0 0 1-.853-.853V1.397c0-.471.382-.853.853-.853h9.12c.471 0 .853.382.853.853v19.206a.853.853 0 0 1-.853.853h-9.12z"/>
        <g transform="translate(5.016)">
            <mask id="b" fill="#fff">
                <use xlink:href="#a"/>
            </mask>
            <path fill="#10176B" d="M1.397 1.087a.31.31 0 0 0-.31.31v19.206c0 .17.14.31.31.31h9.12a.31.31 0 0 0 .31-.31V1.397a.31.31 0 0 0-.31-.31h-9.12zm0 20.913C.627 22 0 21.373 0 20.603V1.397C0 .627.626 0 1.397 0h9.12c.77 0 1.397.627 1.397 1.397v19.206c0 .77-.627 1.397-1.397 1.397h-9.12z" mask="url(#b)"/>
        </g>
        <path fill="#00B1FF" d="M13.365 20.33H8.582a.167.167 0 0 1-.167-.168v-.006c0-.093.075-.168.167-.168h4.783c.092 0 .167.075.167.168v.006a.167.167 0 0 1-.167.167M12.55 2.204H9.396a.66.66 0 0 1-.622-.44l-.24-.68h4.878l-.24.68a.66.66 0 0 1-.622.44"/>
        <path fill="#10176B" d="M12.028 1.61a.132.132 0 1 1-.264 0 .132.132 0 0 1 .264 0M12.555 1.61a.132.132 0 1 1-.264 0 .132.132 0 0 1 .264 0"/>
    </g>
</svg>
