<svg xmlns="http://www.w3.org/2000/svg" width="22" height="22" viewBox="0 0 22 22">
    <g fill="none" fill-rule="evenodd">
        <path fill="#FFF" d="M11 21.784C5.054 21.784.216 16.946.216 11 .216 5.054 5.054.216 11 .216 16.946.216 21.784 5.054 21.784 11c0 5.946-4.838 10.784-10.784 10.784"/>
        <path fill="#10176B" d="M11 .431C5.172.431.431 5.172.431 11c0 5.828 4.741 10.569 10.569 10.569 5.828 0 10.569-4.741 10.569-10.569C21.569 5.172 16.828.431 11 .431M11 22C4.935 22 0 17.065 0 11S4.935 0 11 0s11 4.935 11 11-4.935 11-11 11"/>
        <path fill="#E8E8E8" d="M11.504.738c-.216 0-.43.008-.643.023 5.054.35 9.064 4.809 9.064 10.239 0 5.43-4.01 9.888-9.064 10.239.213.015.427.023.643.023 5.351 0 9.705-4.604 9.705-10.262S16.855.738 11.504.738"/>
        <path fill="#00B1FF" d="M11.278 5.595l1.567 3.175a.31.31 0 0 0 .234.17l3.504.51a.31.31 0 0 1 .172.528L14.22 12.45a.31.31 0 0 0-.09.275l.599 3.49a.31.31 0 0 1-.45.327l-3.135-1.648a.31.31 0 0 0-.288 0L7.72 16.542a.31.31 0 0 1-.45-.327l.599-3.49a.31.31 0 0 0-.09-.275L5.246 9.978a.31.31 0 0 1 .172-.529l3.504-.51a.31.31 0 0 0 .234-.169l1.567-3.175a.31.31 0 0 1 .556 0"/>
    </g>
</svg>
