<svg xmlns="http://www.w3.org/2000/svg" width="77" height="51" viewBox="0 0 77 51">
    <g fill="none" fill-rule="evenodd">
        <path fill="#3DDB93" d="M38 9c-11.598 0-21 9.402-21 21s9.402 21 21 21 21-9.402 21-21S49.598 9 38 9"/>
        <path fill="#FFF" d="M49.735 24.026l-1.898-1.913a1.01 1.01 0 0 0-1.43-.006L34.501 33.918l-5.037-5.077a1.01 1.01 0 0 0-1.43-.006l-1.913 1.898a1.01 1.01 0 0 0-.006 1.43l7.647 7.708a1.01 1.01 0 0 0 1.43.006l14.537-14.42a1.011 1.011 0 0 0 .006-1.43"/>
        <path fill="#FFAE08" d="M14.224 8.925L12.39 11.72l-1.103-3.155-3.225-.88 2.66-2.025-.159-3.339 2.748 1.905 3.126-1.184-.962 3.202 2.091 2.607z"/>
        <path fill="#07DBA6" d="M69.691 40.83l-2.826-1.785L70 37.887l.824-3.24 2.07 2.625 3.336-.218-1.857 2.78 1.238 3.105-3.218-.906-2.57 2.137z"/>
        <path fill="#6C54EE" d="M57.262 6.983l7.591-2.615-1.914 8.293zM1.298 18.693l2.865 2.72L.31 22.518z"/>
        <path stroke="#FF7143" stroke-width="2" d="M3.3 36.957c1.447-.236 3.528.502 3.4 2.77-.086 1.513.752 2.262 2.513 2.249M31.121 3.928C31.494 2.51 33.015.91 35.035 1.95c1.347.693 2.372.233 3.076-1.382M69.976 21.56c-.41 2.712-1.627 5.424-2.9 2.712-.849-1.808-1.602-1.213-2.26 1.784"/>
    </g>
</svg>
