<svg width="100" height="100" viewBox="0 0 100 100" fill="none" xmlns="http://www.w3.org/2000/svg">
<path fill-rule="evenodd" clip-rule="evenodd" d="M50.0001 89.1552C48.0248 89.1552 46.0378 89.0058 44.0938 88.7116L43.4417 88.6128L43.2876 87.9716C38.3585 67.5117 21.186 56.1642 11.3884 51.2211L10.8558 50.952L10.8452 49.9999C10.8452 45.2465 11.6907 40.5964 13.3578 36.1783L13.4766 35.8626L13.7652 35.6869C19.1605 32.4038 31.0429 26.8956 50.0001 26.8956C67.5825 26.8956 79.7534 31.3011 85.444 33.9265L85.7836 34.0834L85.9323 34.4265C88.0707 39.3532 89.155 44.5928 89.155 49.9999C89.155 50.4477 89.1448 50.8932 89.1299 51.3367L89.1072 52.0124L88.4676 52.2316C78.3899 55.6818 70.235 61.812 64.2295 70.4528C59.3091 77.532 57.1201 84.5105 56.2531 88.0403L56.0946 88.6862L55.4358 88.7775C53.6338 89.0281 51.8052 89.1552 50.0001 89.1552Z" fill="white"/>
<path fill-rule="evenodd" clip-rule="evenodd" d="M83.0259 34.7492C78.5408 32.3029 66.8055 28.2256 51.1255 28.2256C50.1608 28.2256 49.2188 28.2433 48.2949 28.2743C62.371 28.7284 77.6294 35.0433 79.7639 36.3802C81.8984 37.717 81.8028 50.6507 81.8028 50.6507L79.6149 51.2276C65.4934 57.1743 54.4847 77.1531 53.6694 85.7155C54.8926 85.7155 55.7083 85.3076 55.7083 85.3076C56.5235 78.3762 60.3047 73.8331 64.631 67.477C69.9785 59.6206 78.5408 54.3202 85.0228 51.6355L85.5934 51.4402C85.5934 51.4402 86.2879 41.6805 83.0259 34.7492Z" fill="#E8E8E8"/>
<path fill-rule="evenodd" clip-rule="evenodd" d="M50 25.9153C30.8032 25.9153 18.7385 31.5129 13.2557 34.8494L12.6789 35.2008L12.4404 35.8322C10.7314 40.3612 9.86475 45.1274 9.86475 50C9.86475 50.08 9.86592 50.1592 9.86749 50.2388L9.86906 50.3635L9.88004 51.5584L10.9467 52.0965C15.4534 54.3702 22.1134 58.331 28.2483 64.289C35.4596 71.2925 40.1989 79.338 42.3342 88.2016L42.6432 89.4839L43.9471 89.6812C45.9396 89.9823 47.9757 90.1357 50 90.1357C51.8495 90.1357 53.724 90.0055 55.571 89.7486L56.8879 89.5659L57.2051 88.2745C58.0557 84.8106 60.2044 77.9623 65.0345 71.0125C70.9181 62.5467 78.9091 56.54 88.7851 53.1592L90.0644 52.7208L90.1098 51.3698C90.1271 50.8478 90.1353 50.4125 90.1353 50C90.1353 44.4584 89.024 39.0874 86.8318 34.0361L86.5338 33.3498L85.8546 33.0365C80.091 30.3769 67.7695 25.9153 50 25.9153ZM50 27.8761C67.171 27.8761 79.0604 32.0608 85.033 34.8169C87.0526 39.4702 88.1746 44.6039 88.1746 50C88.1746 50.4365 88.1647 50.871 88.1498 51.3039C64.2232 59.4953 57.0914 80.5169 55.3012 87.8063C53.5683 88.0474 51.7993 88.1749 50 88.1749C48.0424 88.1749 46.1193 88.0267 44.2404 87.7424C39.1518 66.6196 21.1295 55.0376 11.8298 50.3459C11.8287 50.2302 11.8255 50.1157 11.8255 50C11.8255 45.2557 12.6934 40.7153 14.2749 36.5247C19.0651 33.6094 30.911 27.8761 50 27.8761Z" fill="#202020"/>
<path fill-rule="evenodd" clip-rule="evenodd" d="M50.0001 88.1748C28.9169 88.1748 11.8256 71.0834 11.8256 49.9999C11.8256 28.9171 28.9169 11.8258 50.0001 11.8258C71.0832 11.8258 88.1746 28.9171 88.1746 49.9999C88.1746 71.0834 71.0832 88.1748 50.0001 88.1748ZM50.0001 0.98027C22.9271 0.98027 0.980469 22.9273 0.980469 49.9999C0.980469 77.0728 22.9271 99.0195 50.0001 99.0195C77.073 99.0195 99.0197 77.0728 99.0197 49.9999C99.0197 22.9273 77.073 0.98027 50.0001 0.98027Z" fill="white"/>
<mask id="mask0" mask-type="alpha" maskUnits="userSpaceOnUse" x="0" y="0" width="100" height="100">
<path fill-rule="evenodd" clip-rule="evenodd" d="M0 0.000114441H100V100H0V0.000114441Z" fill="white"/>
</mask>
<g mask="url(#mask0)">
<path fill-rule="evenodd" clip-rule="evenodd" d="M50 12.806C29.491 12.806 12.8059 29.4911 12.8059 50.0001C12.8059 70.5091 29.491 87.1942 50 87.1942C70.509 87.1942 87.1941 70.5091 87.1941 50.0001C87.1941 29.4911 70.509 12.806 50 12.806ZM50 89.155C28.4098 89.155 10.8451 71.5899 10.8451 50.0001C10.8451 28.4099 28.4098 10.8452 50 10.8452C71.5902 10.8452 89.1549 28.4099 89.1549 50.0001C89.1549 71.5899 71.5902 89.155 50 89.155ZM50 1.9609C23.511 1.9609 1.96078 23.5111 1.96078 50.0001C1.96078 76.4891 23.511 98.0393 50 98.0393C76.489 98.0393 98.0392 76.4891 98.0392 50.0001C98.0392 23.5111 76.489 1.9609 50 1.9609ZM50 100C22.4298 100 0 77.5699 0 50.0001C0 22.4299 22.4298 0.000114441 50 0.000114441C77.5702 0.000114441 100 22.4299 100 50.0001C100 77.5699 77.5702 100 50 100Z" fill="#202020"/>
</g>
<path fill-rule="evenodd" clip-rule="evenodd" d="M50.8333 3.53671C50.3807 3.53671 49.9301 3.54494 49.4807 3.55788C74.5156 4.27357 94.5913 24.7916 94.5913 49.9998C94.5913 75.2085 74.5156 95.7265 49.4807 96.4422C49.9301 96.4551 50.3807 96.4634 50.8333 96.4634C76.4944 96.4634 97.2964 75.661 97.2964 49.9998C97.2964 24.3391 76.4944 3.53671 50.8333 3.53671Z" fill="#E8E8E8"/>
<path fill-rule="evenodd" clip-rule="evenodd" d="M56.6666 51.9524C56.6666 56.0673 53.3305 59.4033 49.2156 59.4033C45.1007 59.4033 41.7646 56.0673 41.7646 51.9524C41.7646 47.8371 45.1007 44.5014 49.2156 44.5014C53.3305 44.5014 56.6666 47.8371 56.6666 51.9524Z" fill="#202020"/>
</svg>
