<svg width="100" height="100" viewBox="0 0 100 100" fill="none" xmlns="http://www.w3.org/2000/svg">
<path fill-rule="evenodd" clip-rule="evenodd" d="M4.97905 79.4486C2.77042 79.4486 0.980225 77.6584 0.980225 75.4498V15.4419C0.980225 13.2337 2.77042 11.4435 4.97905 11.4435H95.0206C97.2292 11.4435 99.0194 13.2337 99.0194 15.4419V75.4498C99.0194 77.6584 97.2292 79.4486 95.0206 79.4486H4.97905Z" fill="white"/>
<mask id="mask0" mask-type="alpha" maskUnits="userSpaceOnUse" x="0" y="10" width="100" height="71">
<path fill-rule="evenodd" clip-rule="evenodd" d="M0 10.463H99.9999V80.4289H0V10.463Z" fill="white"/>
</mask>
<g mask="url(#mask0)">
<path fill-rule="evenodd" clip-rule="evenodd" d="M4.97922 12.4238C3.3149 12.4238 1.96078 13.7776 1.96078 15.4419V75.4497C1.96078 77.114 3.3149 78.4681 4.97922 78.4681H95.0208C96.6851 78.4681 98.0392 77.114 98.0392 75.4497V15.4419C98.0392 13.7776 96.6851 12.4238 95.0208 12.4238H4.97922ZM95.0208 80.4289H4.97922C2.23373 80.4289 0 78.1952 0 75.4497V15.4419C0 12.6964 2.23373 10.463 4.97922 10.463H95.0208C97.7663 10.463 100 12.6964 100 15.4419V75.4497C100 78.1952 97.7663 80.4289 95.0208 80.4289Z" fill="#202020"/>
</g>
<path fill-rule="evenodd" clip-rule="evenodd" d="M93.4613 13.5459H88.0911C89.8358 13.5459 91.2499 15.2251 91.2499 17.2973V73.5946C91.2499 75.6663 89.8358 77.3459 88.0911 77.3459H93.4613C95.206 77.3459 96.6205 75.6663 96.6205 73.5946V17.2973C96.6205 15.2251 95.206 13.5459 93.4613 13.5459Z" fill="#E8E8E8"/>
<path fill-rule="evenodd" clip-rule="evenodd" d="M15.3615 89.3168C14.9921 89.3168 14.6219 89.1855 14.3266 88.918C13.694 88.3459 13.645 87.3698 14.2168 86.7376L17.8815 82.6851C18.1744 82.3619 18.5901 82.1768 19.0266 82.1768H81.1482C81.5846 82.1768 82.0003 82.3619 82.2933 82.6851L85.7831 86.5447C86.3548 87.1772 86.3058 88.1529 85.6733 88.7251C85.0419 89.2961 84.065 89.2478 83.4933 88.6157L80.4627 85.2643H19.7117L16.507 88.8086C16.2019 89.1455 15.7827 89.3168 15.3615 89.3168Z" fill="#202020"/>
</svg>
