<svg width="100" height="100" viewBox="0 0 100 100" fill="none" xmlns="http://www.w3.org/2000/svg">
<path fill-rule="evenodd" clip-rule="evenodd" d="M29.0077 99.0196C26.7995 99.0196 25.0093 97.2298 25.0093 95.0212V4.97881C25.0093 2.77018 26.7995 0.980377 29.0077 0.980377H71.7642C73.9724 0.980377 75.7626 2.77018 75.7626 4.97881V95.0212C75.7626 97.2298 73.9724 99.0196 71.7642 99.0196H29.0077Z" fill="white"/>
<path fill-rule="evenodd" clip-rule="evenodd" d="M29.0078 1.96078C27.3434 1.96078 25.9897 3.31451 25.9897 4.97882V95.0212C25.9897 96.6855 27.3434 98.0392 29.0078 98.0392H71.7642C73.4285 98.0392 74.7823 96.6855 74.7823 95.0212V4.97882C74.7823 3.31451 73.4285 1.96078 71.7642 1.96078H29.0078ZM71.7642 100H29.0078C26.2623 100 24.0289 97.7667 24.0289 95.0212V4.97882C24.0289 2.23333 26.2623 0 29.0078 0H71.7642C74.5097 0 76.743 2.23333 76.743 4.97882V95.0212C76.743 97.7667 74.5097 100 71.7642 100Z" fill="#202020"/>
<path fill-rule="evenodd" clip-rule="evenodd" d="M61.6009 96.4821H39.179C38.7456 96.4821 38.3947 96.1307 38.3947 95.6978V95.6672C38.3947 95.2339 38.7456 94.8829 39.179 94.8829H61.6009C62.0343 94.8829 62.3852 95.2339 62.3852 95.6672V95.6978C62.3852 96.1307 62.0343 96.4821 61.6009 96.4821Z" fill="#202020"/>
<path fill-rule="evenodd" clip-rule="evenodd" d="M71.6942 2.91818H68.3828C69.5259 2.91818 70.4522 4.63779 70.4522 6.75857V93.2413C70.4522 95.3621 69.5259 97.0817 68.3828 97.0817H71.6942C72.8369 97.0817 73.7636 95.3621 73.7636 93.2413V6.75857C73.7636 4.63779 72.8369 2.91818 71.6942 2.91818Z" fill="#E8E8E8"/>
<path fill-rule="evenodd" clip-rule="evenodd" d="M57.7802 7.19553H42.992C41.6814 7.19553 40.5136 6.36925 40.0775 5.13357L38.9508 1.9418H61.821L60.6947 5.13357C60.2586 6.36925 59.0904 7.19553 57.7802 7.19553Z" fill="#202020"/>
<path fill-rule="evenodd" clip-rule="evenodd" d="M55.331 4.41409C55.331 4.75527 55.0542 5.03213 54.713 5.03213C54.3714 5.03213 54.095 4.75527 54.095 4.41409C54.095 4.07252 54.3714 3.79605 54.713 3.79605C55.0542 3.79605 55.331 4.07252 55.331 4.41409Z" fill="#202020"/>
<path fill-rule="evenodd" clip-rule="evenodd" d="M57.8035 4.41409C57.8035 4.75527 57.5266 5.03213 57.1854 5.03213C56.8439 5.03213 56.5674 4.75527 56.5674 4.41409C56.5674 4.07252 56.8439 3.79605 57.1854 3.79605C57.5266 3.79605 57.8035 4.07252 57.8035 4.41409Z" fill="#202020"/>
</svg>
