<svg width="100" height="100" viewBox="0 0 100 100" fill="none" xmlns="http://www.w3.org/2000/svg">
<path fill-rule="evenodd" clip-rule="evenodd" d="M41.6761 92.6839C39.0357 92.6839 36.7333 90.9203 36.0761 88.3947C34.0865 80.7399 30.8685 70.0511 25.9217 65.6283C19.6889 60.0567 12.9805 48.9307 12.9805 37.6719C12.9805 37.6107 12.9825 37.5507 12.9845 37.4903L12.9873 37.3891L12.9845 37.3207C12.9825 37.2655 12.9805 37.2107 12.9805 37.1543V36.1739H13.0197C13.3937 26.8479 17.2381 18.1375 23.9077 11.5535C30.8149 4.73552 39.9645 0.980316 49.6717 0.980316C59.3785 0.980316 68.5289 4.73552 75.4361 11.5535C82.1057 18.1375 85.9501 26.8479 86.3237 36.1739H86.3501L86.3633 37.1543C86.3633 37.2119 86.3613 37.2679 86.3589 37.3239L86.3561 37.4067L86.3589 37.4903C86.3613 37.5507 86.3633 37.6107 86.3633 37.6719C86.3633 47.9475 81.8957 57.6087 73.4429 65.6095C67.2677 71.4547 64.9565 81.1283 63.2693 88.1923C62.6365 90.8403 60.3137 92.6839 57.6177 92.6839H41.6761Z" fill="white"/>
<path fill-rule="evenodd" clip-rule="evenodd" d="M84.6608 37.9765L84.6632 37.8989C84.6652 37.8461 84.6672 37.7937 84.6672 37.7393L84.6552 36.8181H84.6312C84.2892 28.0565 80.774 19.8725 74.6752 13.6869C68.3592 7.28092 59.9924 3.75292 51.116 3.75292C50.2132 3.75292 49.3176 3.79932 48.4268 3.87132C56.2928 4.51012 63.6228 7.93252 69.2964 13.6869C75.3952 19.8725 78.9104 28.0565 79.2524 36.8181H79.2764L79.2884 37.7393C79.2884 37.7937 79.2864 37.8461 79.2844 37.8989L79.282 37.9765L79.2844 38.0553C79.2864 38.1121 79.2884 38.1685 79.2884 38.2257C79.2884 47.8801 73.2424 57.7413 65.5128 65.2585C59.8664 70.7501 57.7532 79.8389 56.2104 86.4753C55.6316 88.9633 53.5076 90.6957 51.0424 90.6957H56.4212C58.8864 90.6957 61.0108 88.9633 61.5892 86.4753C63.132 79.8389 65.2452 70.7501 70.8916 65.2585C78.6212 57.7413 84.6672 47.8801 84.6672 38.2257C84.6672 38.1685 84.6652 38.1121 84.6632 38.0553L84.6608 37.9765Z" fill="#E8E8E8"/>
<mask id="mask0" mask-type="alpha" maskUnits="userSpaceOnUse" x="12" y="0" width="76" height="94">
<path fill-rule="evenodd" clip-rule="evenodd" d="M12.0002 0H87.3434V93.6644H12.0002V0Z" fill="white"/>
</mask>
<g mask="url(#mask0)">
<path fill-rule="evenodd" clip-rule="evenodd" d="M49.6718 -3.8147e-05C39.705 -3.8147e-05 30.3106 3.85556 23.2186 10.856C16.5958 17.3936 12.6862 25.9748 12.0894 35.1932H12.013L12.0002 37.1544C12.0002 37.2252 12.0022 37.294 12.005 37.3632L12.0066 37.4028C12.0062 37.4204 12.0054 37.438 12.005 37.4556C12.0022 37.5272 12.0002 37.5992 12.0002 37.672C12.0002 49.2324 18.8778 60.6464 25.2682 66.3596C30.017 70.6052 33.1694 81.1092 35.1278 88.6416C35.8966 91.5988 38.5894 93.6644 41.6762 93.6644H57.6178C60.769 93.6644 63.4842 91.5112 64.221 88.428C65.8814 81.4768 68.1534 71.9664 74.1166 66.322C82.7698 58.1308 87.3434 48.224 87.3434 37.672C87.3434 37.5992 87.3414 37.5272 87.3386 37.4556C87.3382 37.438 87.3374 37.4208 87.337 37.4036L87.3386 37.3644C87.3414 37.2948 87.3434 37.2256 87.3434 37.1544V35.1932H87.2542C86.6574 25.9748 82.7478 17.3936 76.125 10.856C69.033 3.85556 59.6386 -3.8147e-05 49.6718 -3.8147e-05ZM49.6718 1.96076C69.221 1.96076 85.0918 17.6712 85.3698 37.1544H85.3826C85.3826 37.2372 85.3766 37.3148 85.3758 37.3972C85.3766 37.4896 85.3826 37.5796 85.3826 37.672C85.3826 48.5844 80.2074 57.8564 72.7686 64.8976C66.3798 70.9452 64.0286 80.794 62.3138 87.9728C61.793 90.1528 59.8598 91.7036 57.6178 91.7036H41.6762C39.5014 91.7036 37.5726 90.2528 37.0254 88.148C35.045 80.5304 31.803 69.572 26.575 64.8976C20.5574 59.518 13.961 48.5844 13.961 37.672C13.961 37.5796 13.967 37.4896 13.9678 37.3972C13.9674 37.3148 13.961 37.2372 13.961 37.1544H13.9738C14.2518 17.6712 30.1226 1.96076 49.6718 1.96076Z" fill="#202020"/>
</g>
<path fill-rule="evenodd" clip-rule="evenodd" d="M38.9872 44.5339H46.5808C46.8872 44.5339 47.1352 44.7819 47.1352 45.0883V52.4655C47.1352 52.9591 47.7324 53.2067 48.0816 52.8575L60.094 40.8451C60.4432 40.4959 60.196 39.8987 59.702 39.8987H51.8096C51.5036 39.8987 51.2552 39.6507 51.2552 39.3443V28.6611C51.2552 28.1311 50.5828 27.9035 50.2608 28.3247L38.5468 43.6423C38.268 44.0075 38.528 44.5339 38.9872 44.5339Z" fill="#202020"/>
<path fill-rule="evenodd" clip-rule="evenodd" d="M60.1744 100H38.5856C37.3104 100 36.2764 98.9664 36.2764 97.6912C36.2764 96.4156 37.3104 95.382 38.5856 95.382H60.1744C61.4496 95.382 62.4836 96.4156 62.4836 97.6912C62.4836 98.9664 61.4496 100 60.1744 100Z" fill="#202020"/>
</svg>
