<svg width="100" height="100" viewBox="0 0 100 100" fill="none" xmlns="http://www.w3.org/2000/svg">
<path fill-rule="evenodd" clip-rule="evenodd" d="M62.078 89.8111V71.6638C62.078 69.5322 60.3514 67.8033 58.2194 67.8005L40.7862 67.7783C38.6502 67.7755 36.9178 69.506 36.9178 71.6416V89.7498C36.9178 91.8834 35.1881 93.613 33.0541 93.613H16.7502C14.6167 93.613 12.887 91.8834 12.887 89.7498V42.9869C12.887 41.8056 13.4272 40.6896 14.3534 39.9572L47.0499 14.088C48.4374 12.9904 50.3928 12.9755 51.7971 14.0517L84.5952 39.1873C85.5491 39.9185 86.1088 41.0521 86.1088 42.2541V89.756C86.1088 91.8849 84.387 93.6123 82.2581 93.6197L65.9542 93.6744C63.8155 93.6814 62.078 91.9498 62.078 89.8111Z" fill="white"/>
<mask id="mask0" mask-type="alpha" maskUnits="userSpaceOnUse" x="11" y="12" width="77" height="83">
<path fill-rule="evenodd" clip-rule="evenodd" d="M11.9106 12.2766H87.0853V94.6508H11.9106V12.2766Z" fill="white"/>
</mask>
<g mask="url(#mask0)">
<path fill-rule="evenodd" clip-rule="evenodd" d="M40.781 66.8016H40.7872L58.2208 66.8243C60.886 66.8274 63.0544 68.9985 63.0544 71.6637V89.811C63.0544 90.584 63.356 91.3098 63.9036 91.8559C64.4485 92.3989 65.1716 92.6977 65.9407 92.6977H65.9509L82.2548 92.643C83.8415 92.6379 85.1321 91.3426 85.1321 89.7563V42.2539C85.1321 41.3618 84.7095 40.5055 84.0013 39.9625L51.2028 14.8266C50.1521 14.0211 48.6935 14.0325 47.656 14.8539L14.9591 40.7231C14.263 41.2735 13.8638 42.0989 13.8638 42.9868V89.7496C13.8638 91.3414 15.1587 92.6368 16.7505 92.6368H33.0544C34.6462 92.6368 35.9411 91.3414 35.9411 89.7496V71.6418C35.9411 70.3477 36.4454 69.1313 37.361 68.2168C38.2747 67.3039 39.4895 66.8016 40.781 66.8016ZM65.9407 94.6508C64.6513 94.6508 63.4388 94.15 62.5247 93.2391C61.6067 92.3243 61.1013 91.1071 61.1013 89.811V71.6637C61.1013 70.0743 59.8079 68.7789 58.2181 68.7774L40.7849 68.7547H40.781C40.0106 68.7547 39.2864 69.0547 38.7411 69.5989C38.195 70.1446 37.8942 70.87 37.8942 71.6418V89.7496C37.8942 92.4184 35.7231 94.5899 33.0544 94.5899H16.7505C14.0817 94.5899 11.9106 92.4184 11.9106 89.7496V42.9868C11.9106 41.4981 12.5802 40.1145 13.7474 39.1911L46.4438 13.3223C48.1837 11.945 50.6294 11.9266 52.3911 13.2766L85.1892 38.4121C86.3767 39.3223 87.0853 40.7586 87.0853 42.2539V89.7563C87.0853 92.4157 84.9212 94.5871 82.2614 94.5961L65.9575 94.6508H65.9407Z" fill="#202020"/>
</g>
<path fill-rule="evenodd" clip-rule="evenodd" d="M82.7639 40.7922L51.8768 17.1207C50.5549 16.1079 48.7131 16.1219 47.4064 17.1555L47.1221 17.3805L77.6701 40.7922C78.5686 41.4809 79.0955 42.5481 79.0955 43.6801V88.4137C79.0955 90.4184 77.474 92.0453 75.4693 92.0524L64.8709 92.0875C64.9822 92.0977 65.0951 92.1039 65.2092 92.1036L80.5631 92.0524C82.5674 92.0453 84.1889 90.4184 84.1889 88.4137V43.6801C84.1889 42.5481 83.6623 41.4809 82.7639 40.7922Z" fill="#E8E8E8"/>
<path fill-rule="evenodd" clip-rule="evenodd" d="M55.4872 50.3122H43.9106C43.5923 50.3122 43.3345 50.0548 43.3345 49.7364V40.7786C43.3345 37.2637 46.1841 34.4141 49.6989 34.4141C53.2138 34.4141 56.063 37.2637 56.063 40.7786V49.7364C56.063 50.0548 55.8052 50.3122 55.4872 50.3122Z" fill="#202020"/>
<path fill-rule="evenodd" clip-rule="evenodd" d="M75.4512 36.8463V17.2662C75.4512 16.0947 76.4043 15.1416 77.5762 15.1416H84.0039C85.1754 15.1416 86.1285 16.0947 86.1285 17.2662V36.8463H75.4512Z" fill="#202020"/>
<path fill-rule="evenodd" clip-rule="evenodd" d="M47.3948 8.21813L1.70339 44.688C0.858077 45.363 0.731514 46.6005 1.42292 47.4326L4.56472 51.2134C5.2319 52.0166 6.41628 52.1439 7.23933 51.5017L47.4276 20.1267C48.8249 19.0357 50.785 19.0357 52.1823 20.1267L92.3706 51.5017C93.1932 52.1439 94.3776 52.0166 95.0448 51.2134L98.187 47.4326C98.8784 46.6005 98.7518 45.363 97.9065 44.688L52.2151 8.21813C50.8053 7.09274 48.8046 7.09274 47.3948 8.21813Z" fill="white"/>
<mask id="mask1" mask-type="alpha" maskUnits="userSpaceOnUse" x="0" y="6" width="100" height="47">
<path fill-rule="evenodd" clip-rule="evenodd" d="M0 6.39062H99.6099V52.8924H0V6.39062Z" fill="white"/>
</mask>
<g mask="url(#mask1)">
<path fill-rule="evenodd" clip-rule="evenodd" d="M49.805 18.3301C50.8558 18.3301 51.9066 18.6723 52.7835 19.3571L92.9714 50.7317C93.3812 51.052 93.9621 50.9891 94.2941 50.5895L97.4359 46.8082C97.6015 46.6094 97.6777 46.3582 97.6515 46.1008C97.6253 45.8434 97.4996 45.6129 97.2972 45.4516L51.6058 8.98129C50.5457 8.13442 49.0644 8.13442 48.0042 8.98129L2.31284 45.4516C2.1105 45.6129 1.98472 45.8434 1.95854 46.1008C1.93237 46.3582 2.00854 46.6094 2.17417 46.8082L5.31597 50.5895C5.648 50.9891 6.22886 51.052 6.63862 50.7317L46.8265 19.3571C47.7035 18.6727 48.7542 18.3301 49.805 18.3301ZM93.5617 52.8922C92.9359 52.8922 92.3046 52.6891 91.7695 52.2715L51.5816 20.8965C50.5355 20.0797 49.0746 20.0797 48.0285 20.8965L7.84058 52.2715C6.59331 53.245 4.82456 53.0539 3.81401 51.8375L0.671825 48.0567C0.16831 47.4508 -0.0648935 46.6856 0.0155752 45.902C0.0956533 45.1184 0.478856 44.4161 1.09448 43.9247L46.7859 7.45473C48.5632 6.03559 51.0468 6.03559 52.8242 7.45473L98.5156 43.9247C99.1312 44.4161 99.5144 45.1184 99.5945 45.902C99.6746 46.6856 99.4417 47.4508 98.9382 48.0567L95.796 51.8375C95.2191 52.5325 94.3949 52.8922 93.5617 52.8922Z" fill="#202020"/>
</g>
<path fill-rule="evenodd" clip-rule="evenodd" d="M95.9228 44.9846L52.1208 9.93769C51.0837 9.10957 49.6778 8.98847 48.5298 9.56777C48.7321 9.67012 92.913 44.9846 92.913 44.9846C93.6446 45.5689 93.7544 46.64 93.156 47.3604L91.7427 48.9104L92.2896 49.3377C93.0021 49.8936 94.0271 49.783 94.6048 49.0881L96.1657 47.3604C96.7642 46.64 96.6548 45.5689 95.9228 44.9846Z" fill="#E8E8E8"/>
</svg>
