<svg width="100" height="100" viewBox="0 0 100 100" fill="none" xmlns="http://www.w3.org/2000/svg">
<path fill-rule="evenodd" clip-rule="evenodd" d="M68.1868 99.0196H32.0656C27.9503 99.0196 24.6146 95.6835 24.6146 91.5686V86.1988C24.6146 82.0835 27.9503 78.7478 32.0656 78.7478H68.1868C72.3017 78.7478 75.6378 82.0835 75.6378 86.1988V91.5686C75.6378 95.6835 72.3017 99.0196 68.1868 99.0196Z" fill="white"/>
<path fill-rule="evenodd" clip-rule="evenodd" d="M32.0656 79.7281C28.4978 79.7281 25.5951 82.6308 25.5951 86.1987V91.5685C25.5951 95.1363 28.4978 98.0391 32.0656 98.0391H68.1868C71.7547 98.0391 74.6574 95.1363 74.6574 91.5685V86.1987C74.6574 82.6308 71.7547 79.7281 68.1868 79.7281H32.0656ZM68.1868 99.9998H32.0656C27.4166 99.9998 23.6343 96.2179 23.6343 91.5685V86.1987C23.6343 81.5496 27.4166 77.7673 32.0656 77.7673H68.1868C72.8358 77.7673 76.6182 81.5496 76.6182 86.1987V91.5685C76.6182 96.2179 72.8358 99.9998 68.1868 99.9998Z" fill="#202020"/>
<path fill-rule="evenodd" clip-rule="evenodd" d="M68.0915 80.4902H64.6954C67.935 80.4902 72.2099 82.9773 72.2099 86.0451V91.8918C72.2099 94.9596 67.935 97.4467 64.6954 97.4467H68.0915C71.3311 97.4467 73.9574 94.9596 73.9574 91.8918V86.0451C73.9574 82.9773 71.3311 80.4902 68.0915 80.4902Z" fill="#E8E8E8"/>
<path fill-rule="evenodd" clip-rule="evenodd" d="M50.3009 90.8062C46.6331 90.8062 43.6602 87.8328 43.6602 84.165V73.3305C43.6602 69.6626 46.6331 66.6893 50.3009 66.6893C53.9688 66.6893 56.9417 69.6626 56.9417 73.3305V84.165C56.9417 87.8328 53.9688 90.8062 50.3009 90.8062Z" fill="white"/>
<path fill-rule="evenodd" clip-rule="evenodd" d="M50.3009 67.6696C47.1797 67.6696 44.6405 70.2093 44.6405 73.3304V84.1649C44.6405 87.2861 47.1797 89.8257 50.3009 89.8257C53.422 89.8257 55.9613 87.2861 55.9613 84.1649V73.3304C55.9613 70.2093 53.422 67.6696 50.3009 67.6696ZM50.3009 91.7865C46.0985 91.7865 42.6797 88.3673 42.6797 84.1649V73.3304C42.6797 69.1281 46.0985 65.7089 50.3009 65.7089C54.5032 65.7089 57.922 69.1281 57.922 73.3304V84.1649C57.922 88.3673 54.5032 91.7865 50.3009 91.7865Z" fill="#202020"/>
<path fill-rule="evenodd" clip-rule="evenodd" d="M50.1797 69.6423C49.6746 69.6423 49.1879 69.7239 48.7279 69.8721C50.7895 70.5356 53.6891 72.5749 53.6891 74.989V83.7121C53.6891 86.1262 50.7895 88.1647 48.7279 88.829C49.1879 88.9772 49.6746 89.0584 50.1797 89.0584C52.9491 89.0584 55.1942 86.6647 55.1942 83.7121V74.989C55.1942 72.036 52.9491 69.6423 50.1797 69.6423Z" fill="#E8E8E8"/>
<path fill-rule="evenodd" clip-rule="evenodd" d="M82.1705 70.8835H18.4313C14.3164 70.8835 10.9803 67.5474 10.9803 63.4325V8.43133C10.9803 4.31643 14.3164 0.980354 18.4313 0.980354H82.1705C86.2854 0.980354 89.6215 4.31643 89.6215 8.43133V63.4325C89.6215 67.5474 86.2854 70.8835 82.1705 70.8835Z" fill="white"/>
<path fill-rule="evenodd" clip-rule="evenodd" d="M18.4314 1.96078C14.8635 1.96078 11.9608 4.86353 11.9608 8.43137V63.4325C11.9608 67.0004 14.8635 69.9031 18.4314 69.9031H82.1706C85.7384 69.9031 88.6412 67.0004 88.6412 63.4325V8.43137C88.6412 4.86353 85.7384 1.96078 82.1706 1.96078H18.4314ZM82.1706 71.8639H18.4314C13.7824 71.8639 10 68.0816 10 63.4325V8.43137C10 3.78235 13.7824 0 18.4314 0H82.1706C86.8196 0 90.602 3.78235 90.602 8.43137V63.4325C90.602 68.0816 86.8196 71.8639 82.1706 71.8639Z" fill="#202020"/>
<path fill-rule="evenodd" clip-rule="evenodd" d="M81.3728 3.07753H77.9128C81.2136 3.07753 83.8893 5.87243 83.8893 9.31988V62.5442C83.8893 65.9916 81.2136 68.7866 77.9128 68.7866H81.3728C84.6736 68.7866 87.3497 65.9916 87.3497 62.5442V9.31988C87.3497 5.87243 84.6736 3.07753 81.3728 3.07753Z" fill="#E8E8E8"/>
<path fill-rule="evenodd" clip-rule="evenodd" d="M49.9515 19.9939C42.1268 19.9939 35.7609 26.3598 35.7609 34.1845C35.7609 42.0092 42.1268 48.3747 49.9515 48.3747C57.7762 48.3747 64.1417 42.0092 64.1417 34.1845C64.1417 26.3598 57.7762 19.9939 49.9515 19.9939ZM49.9515 53.7574C39.1589 53.7574 30.3785 44.977 30.3785 34.1845C30.3785 23.3919 39.1589 14.6115 49.9515 14.6115C60.744 14.6115 69.5244 23.3919 69.5244 34.1845C69.5244 44.977 60.744 53.7574 49.9515 53.7574Z" fill="#202020"/>
<path fill-rule="evenodd" clip-rule="evenodd" d="M59.1262 34.1843C59.1262 39.2517 55.0183 43.3592 49.9513 43.3592C44.8842 43.3592 40.7764 39.2517 40.7764 34.1843C40.7764 29.1172 44.8842 25.0094 49.9513 25.0094C55.0183 25.0094 59.1262 29.1172 59.1262 34.1843Z" fill="#202020"/>
<path fill-rule="evenodd" clip-rule="evenodd" d="M53.4466 62.1458C53.4466 64.076 51.8819 65.6407 49.9513 65.6407C48.0211 65.6407 46.4564 64.076 46.4564 62.1458C46.4564 60.2152 48.0211 58.6505 49.9513 58.6505C51.8819 58.6505 53.4466 60.2152 53.4466 62.1458Z" fill="#202020"/>
</svg>
