<svg width="100" height="100" viewBox="0 0 100 100" fill="none" xmlns="http://www.w3.org/2000/svg">
<path fill-rule="evenodd" clip-rule="evenodd" d="M89.8663 94.996L30.2017 95.0796C25.9036 95.0855 22.4149 91.6065 22.4087 87.3084L22.3091 16.0061C22.3029 11.7084 25.7822 8.21932 30.0803 8.21349L89.7449 8.12983C94.0426 8.1236 97.5317 11.6034 97.5379 15.901L97.6375 87.2034C97.6437 91.5014 94.1643 94.9901 89.8663 94.996Z" fill="white"/>
<mask id="mask0" mask-type="alpha" maskUnits="userSpaceOnUse" x="21" y="7" width="78" height="90">
<path fill-rule="evenodd" clip-rule="evenodd" d="M21.3362 7.15704H98.6105V96.0524H21.3362V7.15704Z" fill="white"/>
</mask>
<g mask="url(#mask0)">
<path fill-rule="evenodd" clip-rule="evenodd" d="M89.756 9.10257H89.7463L30.0817 9.18623C28.2626 9.18895 26.5537 9.89946 25.2697 11.187C23.9852 12.4753 23.2794 14.1858 23.2817 16.0045L23.3817 87.3068C23.384 89.1259 24.0949 90.8353 25.3829 92.1193C26.6681 93.401 28.3755 94.1068 30.1907 94.1068H30.2004L89.865 94.0232C91.6841 94.0209 93.393 93.3103 94.677 92.0224C95.9615 90.7345 96.6673 89.0232 96.665 87.2049L96.565 15.9026C96.5599 12.1512 93.5058 9.10257 89.756 9.10257ZM30.1903 96.0524C27.8564 96.0524 25.6619 95.1454 24.009 93.4971C22.3529 91.8454 21.4393 89.6485 21.4362 87.31L21.3362 16.0076C21.3331 13.6691 22.2405 11.4695 23.8918 9.81346C25.5432 8.15743 27.7405 7.2442 30.079 7.2407L89.7436 7.15704H89.756C94.5778 7.15704 98.5039 11.0761 98.5105 15.8995L98.6105 87.2018C98.6136 89.5407 97.7058 91.7403 96.0549 93.3963C94.4035 95.052 92.2062 95.9656 89.8677 95.9687L30.2031 96.0524H30.1903Z" fill="#202020"/>
</g>
<path fill-rule="evenodd" clip-rule="evenodd" d="M88.766 10.5625L83.3672 10.5703C87.9995 10.5636 93.0185 14.3123 93.0252 18.9446L93.117 84.808C93.1236 89.4407 88.115 93.2033 83.4828 93.2096L88.8816 93.2022C92.617 93.1967 95.6411 90.1644 95.6357 86.429L95.5392 17.3166C95.5341 13.5812 92.5014 10.557 88.766 10.5625Z" fill="#E8E8E8"/>
<path fill-rule="evenodd" clip-rule="evenodd" d="M23.6079 17.7833L23.7029 85.7436C23.7095 90.3763 27.4702 94.1265 32.1029 94.1203L36.6348 94.0005L36.5165 9.37711L31.9842 9.38372C27.3515 9.39034 23.6013 13.151 23.6079 17.7833Z" fill="#CECECE"/>
<path fill-rule="evenodd" clip-rule="evenodd" d="M10.8801 98.6397L25.6567 98.6187C29.9548 98.6128 33.4341 95.1237 33.4279 90.8261L33.3139 9.13306C33.3077 4.83501 29.8186 1.35563 25.5205 1.36186L10.7439 1.38248C6.4462 1.38831 2.96683 4.87742 2.97266 9.17547L3.08706 90.8681C3.09329 95.1661 6.582 98.6455 10.8801 98.6397Z" fill="white"/>
<mask id="mask1" mask-type="alpha" maskUnits="userSpaceOnUse" x="2" y="0" width="33" height="100">
<path fill-rule="evenodd" clip-rule="evenodd" d="M2 0.38913H34.4008V99.6124H2V0.38913Z" fill="white"/>
</mask>
<g mask="url(#mask1)">
<path fill-rule="evenodd" clip-rule="evenodd" d="M25.5319 2.33465H25.5218L10.7451 2.35528C6.99067 2.36034 3.94009 5.41948 3.94553 9.17395L4.05993 90.8666C4.06499 94.6183 7.11908 97.667 10.8697 97.667H10.8786L25.6553 97.6459C29.4101 97.6409 32.4603 94.5817 32.4553 90.8277L32.3409 9.13465C32.3381 7.31559 31.6276 5.60625 30.3397 4.3222C29.0541 3.0401 27.3471 2.33465 25.5319 2.33465ZM10.8693 99.6125C6.04748 99.6125 2.12102 95.693 2.11441 90.8697L2.00001 9.17707C1.99301 4.34944 5.91518 0.416367 10.7424 0.409752L25.5195 0.38913H25.5319C27.8658 0.38913 30.0603 1.29613 31.7132 2.94438C33.3693 4.59613 34.2829 6.79302 34.2864 9.13154L34.4008 90.8245C34.4074 95.6518 30.4856 99.5848 25.658 99.5915L10.8813 99.6125H10.8693Z" fill="#202020"/>
</g>
<path fill-rule="evenodd" clip-rule="evenodd" d="M25.042 3.24625L22.1062 3.25053C25.5762 3.24548 28.3926 5.81746 28.3973 8.99489L28.512 91.1988C28.5167 94.3762 25.7074 96.9564 22.2373 96.9614L25.1731 96.9571C28.6432 96.9521 31.4525 94.3723 31.4478 91.1945L31.333 8.991C31.3284 5.81357 28.512 3.2412 25.042 3.24625Z" fill="#E8E8E8"/>
<path fill-rule="evenodd" clip-rule="evenodd" d="M50.6402 53.3177C48.3775 53.3414 46.5176 51.4982 46.4939 49.2076C46.4698 46.9177 48.2908 45.0352 50.5538 45.0115C52.8153 44.9881 54.6752 46.8321 54.6989 49.122C54.7227 51.4126 52.9017 53.294 50.6402 53.3177Z" fill="#202020"/>
<path fill-rule="evenodd" clip-rule="evenodd" d="M64.7132 53.2998C62.4505 53.3236 60.5906 51.48 60.5669 49.1893C60.5428 46.8998 62.3638 45.017 64.6268 44.9932C66.8883 44.9699 68.7482 46.8142 68.7719 49.1037C68.7957 51.3948 66.9747 53.2761 64.7132 53.2998Z" fill="#202020"/>
<path fill-rule="evenodd" clip-rule="evenodd" d="M78.7859 53.2816C76.5233 53.3053 74.6634 51.4621 74.6396 49.1715C74.6155 46.8816 76.4365 44.9987 78.6996 44.975C80.961 44.9516 82.821 46.796 82.8447 49.0859C82.8684 51.3765 81.0474 53.2578 78.7859 53.2816Z" fill="#202020"/>
<path fill-rule="evenodd" clip-rule="evenodd" d="M50.6612 67.1568C48.3985 67.1805 46.5386 65.3373 46.5149 63.0466C46.4908 60.7568 48.3118 58.8743 50.5748 58.8505C52.8363 58.8272 54.6962 60.6712 54.7199 62.961C54.7437 65.2517 52.9227 67.133 50.6612 67.1568Z" fill="#202020"/>
<path fill-rule="evenodd" clip-rule="evenodd" d="M64.7339 67.1389C62.4713 67.1626 60.6114 65.3191 60.5876 63.0284C60.5635 60.7385 62.3845 58.856 64.6476 58.8323C66.909 58.8089 68.769 60.6533 68.7927 62.9428C68.8164 65.2338 66.9954 67.1152 64.7339 67.1389Z" fill="#202020"/>
<path fill-rule="evenodd" clip-rule="evenodd" d="M78.8069 67.1206C76.5443 67.1444 74.6844 65.3008 74.6606 63.0101C74.6365 60.7206 76.4575 58.8378 78.7206 58.814C80.982 58.7907 82.842 60.635 82.8657 62.9249C82.8894 65.2156 81.0684 67.0969 78.8069 67.1206Z" fill="#202020"/>
<path fill-rule="evenodd" clip-rule="evenodd" d="M50.6822 80.9958C48.4195 81.0196 46.5596 79.1764 46.5359 76.8857C46.5118 74.5958 48.3328 72.7133 50.5958 72.6896C52.8573 72.6662 54.7172 74.5102 54.7409 76.8001C54.7647 79.0908 52.9437 80.9721 50.6822 80.9958Z" fill="#202020"/>
<path fill-rule="evenodd" clip-rule="evenodd" d="M64.7549 80.9776C62.4923 81.0013 60.6324 79.1581 60.6086 76.8675C60.5845 74.5776 62.4055 72.6951 64.6686 72.6713C66.93 72.648 68.79 74.492 68.8137 76.7819C68.8374 79.0725 67.0164 80.9538 64.7549 80.9776Z" fill="#202020"/>
<path fill-rule="evenodd" clip-rule="evenodd" d="M78.8277 80.9597C76.565 80.9834 74.7051 79.1399 74.6814 76.8492C74.6573 74.5597 76.4783 72.6768 78.7413 72.6531C81.0028 72.6298 82.8627 74.4741 82.8864 76.7636C82.9102 79.0547 81.0892 80.936 78.8277 80.9597Z" fill="#202020"/>
<path fill-rule="evenodd" clip-rule="evenodd" d="M82.2361 22.638L47.128 22.6871C44.7684 22.6906 42.8587 24.6057 42.8618 26.9649L42.8626 27.5474C42.8661 29.9069 44.7813 31.8166 47.1404 31.8135L82.249 31.7641C84.6081 31.761 86.5182 29.8454 86.5147 27.4863L86.514 26.9042C86.5108 24.5447 84.5953 22.6345 82.2361 22.638Z" fill="#202020"/>
</svg>
