<svg width="100" height="100" viewBox="0 0 100 100" fill="none" xmlns="http://www.w3.org/2000/svg">
<path fill-rule="evenodd" clip-rule="evenodd" d="M8.66988 92.431C4.42321 92.431 0.980469 88.9886 0.980469 84.742V67.6157C0.980469 63.369 4.42321 59.9259 8.66988 59.9259H62.146V36.969C62.146 35.2953 63.406 33.8314 65.0762 33.7196C66.9079 33.5976 68.4369 35.0526 68.4369 36.858V59.9259H91.3303C95.5769 59.9259 99.0197 63.369 99.0197 67.6157V84.742C99.0197 88.9886 95.5769 92.431 91.3303 92.431H8.66988Z" fill="white"/>
<mask id="mask0" mask-type="alpha" maskUnits="userSpaceOnUse" x="0" y="32" width="100" height="62">
<path fill-rule="evenodd" clip-rule="evenodd" d="M0 32.7322H100V93.4114H0V32.7322Z" fill="white"/>
</mask>
<g mask="url(#mask0)">
<path fill-rule="evenodd" clip-rule="evenodd" d="M8.6698 60.9064C4.97059 60.9064 1.96078 63.9162 1.96078 67.6154V84.7417C1.96078 88.4409 4.97059 91.4507 8.6698 91.4507H91.3302C95.0298 91.4507 98.0392 88.4409 98.0392 84.7417V67.6154C98.0392 63.9162 95.0298 60.9064 91.3302 60.9064H67.4565V36.8581C67.4565 36.2538 67.2122 35.6923 66.769 35.2774C66.3263 34.8636 65.749 34.6601 65.1412 34.6978C64.0114 34.7734 63.1263 35.7711 63.1263 36.9691V60.9064H8.6698ZM91.3302 93.4115H8.6698C3.88941 93.4115 0 89.5225 0 84.7417V67.6154C0 62.835 3.88941 58.9456 8.6698 58.9456H61.1655V36.9691C61.1655 34.7428 62.8545 32.886 65.0106 32.7417C66.1651 32.6648 67.2651 33.0566 68.1082 33.8456C68.94 34.6236 69.4173 35.7217 69.4173 36.8581V58.9456H91.3302C96.111 58.9456 100 62.835 100 67.6154V84.7417C100 89.5225 96.111 93.4115 91.3302 93.4115Z" fill="#202020"/>
</g>
<path fill-rule="evenodd" clip-rule="evenodd" d="M93.5656 62.7358H90.9158C92.6373 62.7358 94.033 65.5832 94.033 69.0958V83.2617C94.033 86.7742 92.6373 89.6217 90.9158 89.6217H93.5656C95.2871 89.6217 96.6828 86.7742 96.6828 83.2617V69.0958C96.6828 65.5832 95.2871 62.7358 93.5656 62.7358Z" fill="#E8E8E8"/>
<path fill-rule="evenodd" clip-rule="evenodd" d="M45.933 78.4991H55.5448C56.8189 78.4991 57.8515 77.4661 57.8515 76.192C57.8515 74.9179 56.8189 73.8849 55.5448 73.8849H45.933C44.6589 73.8849 43.626 74.9179 43.626 76.192C43.626 77.4661 44.6589 78.4991 45.933 78.4991Z" fill="#202020"/>
<path fill-rule="evenodd" clip-rule="evenodd" d="M72.4614 76.5766C72.4614 78.2754 71.0846 79.6523 69.3857 79.6523C67.6869 79.6523 66.3101 78.2754 66.3101 76.5766C66.3101 74.8777 67.6869 73.5009 69.3857 73.5009C71.0846 73.5009 72.4614 74.8777 72.4614 76.5766Z" fill="#202020"/>
<path fill-rule="evenodd" clip-rule="evenodd" d="M84.3799 76.5766C84.3799 78.2754 83.003 79.6523 81.3042 79.6523C79.6054 79.6523 78.2285 78.2754 78.2285 76.5766C78.2285 74.8777 79.6054 73.5009 81.3042 73.5009C83.003 73.5009 84.3799 74.8777 84.3799 76.5766Z" fill="#202020"/>
<mask id="mask1" mask-type="alpha" maskUnits="userSpaceOnUse" x="37" y="6" width="57" height="47">
<path fill-rule="evenodd" clip-rule="evenodd" d="M37.2632 6.39215H93.0495V52.1782H37.2632V6.39215Z" fill="white"/>
</mask>
<g mask="url(#mask1)">
<path fill-rule="evenodd" clip-rule="evenodd" d="M44.2212 52.1782C43.9353 52.1782 43.6522 52.0539 43.4585 51.8143C39.4632 46.8755 37.2632 40.65 37.2632 34.2853C37.2632 18.9049 49.7761 6.39197 65.1565 6.39197C80.5365 6.39197 93.0495 18.9049 93.0495 34.2853C93.0495 40.5826 91.0016 46.5257 87.1267 51.4724C86.793 51.8982 86.1765 51.9735 85.7502 51.6394C85.324 51.3053 85.2491 50.6892 85.5832 50.2629C89.1848 45.6653 91.0887 40.1402 91.0887 34.2853C91.0887 19.9861 79.4553 8.35275 65.1565 8.35275C50.8573 8.35275 39.224 19.9861 39.224 34.2853C39.224 40.2026 41.2691 45.99 44.9828 50.5814C45.3236 51.0022 45.2581 51.6194 44.8373 51.9598C44.6557 52.1069 44.4377 52.1782 44.2212 52.1782Z" fill="#202020"/>
</g>
<path fill-rule="evenodd" clip-rule="evenodd" d="M78.2172 48.4171C77.9835 48.4171 77.7494 48.334 77.5619 48.1653C77.1592 47.8038 77.1266 47.1834 77.4886 46.781C80.2282 43.7351 81.7368 39.7987 81.7368 35.6979C81.7368 26.5559 74.2988 19.1179 65.1564 19.1179C56.0141 19.1179 48.576 26.5559 48.576 35.6979C48.576 39.763 50.0615 43.6724 52.758 46.7069C53.118 47.1116 53.0815 47.7312 52.6764 48.0912C52.2721 48.4504 51.6521 48.414 51.2925 48.0097C48.2764 44.6159 46.6152 40.2434 46.6152 35.6979C46.6152 25.4744 54.9329 17.1571 65.1564 17.1571C75.3799 17.1571 83.6976 25.4744 83.6976 35.6979C83.6976 40.2842 82.0101 44.6853 78.9466 48.0924C78.7529 48.3077 78.4854 48.4171 78.2172 48.4171Z" fill="#202020"/>
<path fill-rule="evenodd" clip-rule="evenodd" d="M72.2259 43.9184C71.9796 43.9184 71.7334 43.8263 71.5428 43.6412C71.1545 43.2639 71.1455 42.6431 71.5228 42.2549C73.142 40.589 74.0334 38.3918 74.0334 36.0682C74.0334 31.1737 70.0514 27.1918 65.1565 27.1918C60.262 27.1918 56.2796 31.1737 56.2796 36.0682C56.2796 38.2447 57.0749 40.3377 58.5185 41.9624C58.8781 42.3671 58.8416 42.9867 58.4369 43.3467C58.0322 43.7059 57.4126 43.6694 57.053 43.2651C55.2898 41.2808 54.3188 38.7255 54.3188 36.0682C54.3188 30.0926 59.1808 25.231 65.1565 25.231C71.1326 25.231 75.9941 30.0926 75.9941 36.0682C75.9941 38.9051 74.9055 41.5875 72.929 43.6212C72.7369 43.8192 72.4816 43.9184 72.2259 43.9184Z" fill="#202020"/>
<path fill-rule="evenodd" clip-rule="evenodd" d="M3.21875 85.0347H96.7811L96.7784 85.183C96.7254 88.0881 94.3533 90.4151 91.4474 90.4116L8.53875 90.3222C5.61483 90.3194 3.23993 87.959 3.21875 85.0347Z" fill="#202020"/>
</svg>
