<svg width="24" height="24" viewBox="0 0 24 24" fill="none" xmlns="http://www.w3.org/2000/svg">
<path fill-rule="evenodd" clip-rule="evenodd" d="M21.5679 22.7991L7.24841 22.8191C6.21688 22.8205 5.37959 21.9856 5.3781 20.954L5.35419 3.84148C5.35269 2.81004 6.18775 1.97265 7.21928 1.97125L21.5388 1.95117C22.5702 1.94968 23.4076 2.78482 23.4091 3.81626L23.433 20.9288C23.4345 21.9604 22.5995 22.7976 21.5679 22.7991" fill="white"/>
<mask id="mask0_9_1344" style="mask-type:alpha" maskUnits="userSpaceOnUse" x="5" y="1" width="19" height="23">
<path fill-rule="evenodd" clip-rule="evenodd" d="M5.12068 1.7177H23.6665V23.0526H5.12068V1.7177Z" fill="white"/>
</mask>
<g mask="url(#mask0_9_1344)">
<path fill-rule="evenodd" clip-rule="evenodd" d="M21.5414 2.18462H21.5391L7.21961 2.2047C6.78303 2.20536 6.37289 2.37588 6.06471 2.68489C5.75645 2.99409 5.58705 3.40461 5.58761 3.84109L5.61161 20.9536C5.61217 21.3902 5.78278 21.8005 6.09189 22.1086C6.40034 22.4162 6.81012 22.5856 7.24576 22.5856H7.24809L21.5676 22.5656C22.0042 22.565 22.4143 22.3945 22.7225 22.0854C23.0308 21.7763 23.2002 21.3656 23.1996 20.9292L23.1756 3.81662C23.1744 2.9163 22.4414 2.18462 21.5414 2.18462V2.18462ZM7.24566 23.0526C6.68554 23.0526 6.15885 22.8349 5.76215 22.4393C5.3647 22.0429 5.14543 21.5156 5.14468 20.9544L5.12068 3.84184C5.11994 3.28059 5.33771 2.75269 5.73404 2.35524C6.13036 1.95779 6.65771 1.73862 7.21896 1.73777L21.5385 1.7177H21.5414C22.6987 1.7177 23.6409 2.65827 23.6425 3.81588L23.6665 20.9284C23.6673 21.4898 23.4494 22.0177 23.0532 22.4151C22.6568 22.8125 22.1295 23.0318 21.5682 23.0325L7.24875 23.0526H7.24566Z" fill="#262626"/>
</g>
<path fill-rule="evenodd" clip-rule="evenodd" d="M21.3039 2.53501L20.0082 2.53687C21.1199 2.53529 22.3245 3.43496 22.3261 4.54671L22.3481 20.3539C22.3497 21.4658 21.1476 22.3688 20.0359 22.3703L21.3316 22.3685C22.2281 22.3672 22.9539 21.6395 22.9526 20.743L22.9294 4.15599C22.9282 3.25949 22.2004 2.5337 21.3039 2.53501" fill="#E8E8E8"/>
<path fill-rule="evenodd" clip-rule="evenodd" d="M5.6659 4.26801L5.68868 20.5785C5.69027 21.6903 6.59284 22.5904 7.70468 22.5889L8.79234 22.5601L8.76395 2.25052L7.6762 2.25211C6.56435 2.25369 5.66431 3.15626 5.6659 4.26801" fill="#CECECE"/>
<path fill-rule="evenodd" clip-rule="evenodd" d="M2.6112 23.6735L6.1576 23.6685C7.18913 23.6671 8.02418 22.8297 8.02269 21.7983L7.99533 2.19194C7.99383 1.1604 7.15645 0.325351 6.12491 0.326845L2.57852 0.331795C1.54708 0.333195 0.712026 1.17058 0.713426 2.20211L0.740882 21.8083C0.742376 22.8399 1.57967 23.6749 2.6112 23.6735" fill="white"/>
<mask id="mask1_9_1344" style="mask-type:alpha" maskUnits="userSpaceOnUse" x="0" y="0" width="9" height="24">
<path fill-rule="evenodd" clip-rule="evenodd" d="M0.480007 0.093399H8.2562V23.907H0.480007V0.093399Z" fill="white"/>
</mask>
<g mask="url(#mask1_9_1344)">
<path fill-rule="evenodd" clip-rule="evenodd" d="M6.12767 0.560325H6.12524L2.57884 0.565275C1.67777 0.566489 0.945628 1.30068 0.946935 2.20176L0.97439 21.808C0.975604 22.7084 1.70858 23.4401 2.60872 23.4401H2.61087L6.15727 23.435C7.05844 23.4338 7.79048 22.6996 7.78927 21.7986L7.76181 2.19233C7.76116 1.75575 7.59064 1.34551 7.28153 1.03734C6.97299 0.729632 6.56331 0.560325 6.12767 0.560325V0.560325ZM2.60863 23.907C1.4514 23.907 0.509052 22.9663 0.507465 21.8087L0.480009 2.2025C0.478328 1.04387 1.41965 0.099936 2.57819 0.0983485L6.12468 0.093399H6.12767C6.68779 0.093399 7.21448 0.31108 7.61118 0.70666C8.00863 1.10308 8.2279 1.63033 8.22874 2.19158L8.25619 21.7979C8.25778 22.9564 7.31655 23.9004 6.15792 23.902L2.61153 23.907H2.60863Z" fill="#262626"/>
</g>
<path fill-rule="evenodd" clip-rule="evenodd" d="M6.01012 0.779116L5.30553 0.780143C6.13834 0.778929 6.81426 1.3962 6.81538 2.15879L6.84293 21.8877C6.84405 22.6503 6.16981 23.2695 5.337 23.2708L6.04159 23.2697C6.8744 23.2685 7.54864 22.6494 7.54752 21.8867L7.51997 2.15785C7.51885 1.39527 6.84293 0.777902 6.01012 0.779116" fill="#E8E8E8"/>
<path fill-rule="evenodd" clip-rule="evenodd" d="M12.1537 12.7962C11.6106 12.8019 11.1643 12.3596 11.1586 11.8098C11.1528 11.2603 11.5898 10.8085 12.1329 10.8028C12.6757 10.7972 13.1221 11.2397 13.1278 11.7893C13.1335 12.339 12.6964 12.7906 12.1537 12.7962" fill="#262626"/>
<path fill-rule="evenodd" clip-rule="evenodd" d="M15.5312 12.792C14.9881 12.7977 14.5417 12.3552 14.5361 11.8054C14.5303 11.256 14.9673 10.8041 15.5104 10.7984C16.0532 10.7928 16.4996 11.2354 16.5053 11.7849C16.511 12.3348 16.0739 12.7863 15.5312 12.792" fill="#262626"/>
<path fill-rule="evenodd" clip-rule="evenodd" d="M18.9086 12.7876C18.3656 12.7933 17.9192 12.3509 17.9135 11.8012C17.9077 11.2516 18.3448 10.7997 18.8879 10.794C19.4307 10.7884 19.877 11.231 19.8827 11.7806C19.8884 12.3304 19.4514 12.7819 18.9086 12.7876" fill="#262626"/>
<path fill-rule="evenodd" clip-rule="evenodd" d="M12.1587 16.1176C11.6157 16.1233 11.1693 15.681 11.1636 15.1312C11.1578 14.5816 11.5948 14.1298 12.138 14.1241C12.6807 14.1185 13.1271 14.5611 13.1328 15.1107C13.1385 15.6604 12.7015 16.1119 12.1587 16.1176" fill="#262626"/>
<path fill-rule="evenodd" clip-rule="evenodd" d="M15.5362 16.1133C14.9931 16.119 14.5468 15.6766 14.5411 15.1268C14.5353 14.5772 14.9723 14.1254 15.5154 14.1197C16.0582 14.1141 16.5046 14.5568 16.5103 15.1063C16.516 15.6561 16.0789 16.1076 15.5362 16.1133" fill="#262626"/>
<path fill-rule="evenodd" clip-rule="evenodd" d="M18.9137 16.109C18.3706 16.1147 17.9242 15.6722 17.9185 15.1224C17.9128 14.573 18.3498 14.1211 18.8929 14.1154C19.4357 14.1098 19.8821 14.5524 19.8878 15.102C19.8935 15.6518 19.4564 16.1033 18.9137 16.109" fill="#262626"/>
<path fill-rule="evenodd" clip-rule="evenodd" d="M12.1637 19.439C11.6207 19.4447 11.1743 19.0023 11.1686 18.4526C11.1628 17.903 11.5999 17.4512 12.143 17.4455C12.6857 17.4399 13.1321 17.8825 13.1378 18.432C13.1435 18.9818 12.7065 19.4333 12.1637 19.439" fill="#262626"/>
<path fill-rule="evenodd" clip-rule="evenodd" d="M15.5412 19.4346C14.9982 19.4403 14.5518 18.9979 14.5461 18.4482C14.5403 17.8986 14.9773 17.4468 15.5205 17.4411C16.0632 17.4355 16.5096 17.8781 16.5153 18.4276C16.521 18.9774 16.084 19.4289 15.5412 19.4346" fill="#262626"/>
<path fill-rule="evenodd" clip-rule="evenodd" d="M18.9187 19.4303C18.3756 19.436 17.9292 18.9936 17.9235 18.4438C17.9178 17.8943 18.3548 17.4425 18.8979 17.4368C19.4407 17.4312 19.8871 17.8738 19.8928 18.4233C19.8985 18.9731 19.4614 19.4247 18.9187 19.4303" fill="#262626"/>
<path fill-rule="evenodd" clip-rule="evenodd" d="M19.7367 5.43314L11.3107 5.4449C10.7444 5.44574 10.2861 5.90539 10.2869 6.47158L10.287 6.61138C10.2879 7.17767 10.7475 7.636 11.3137 7.63526L19.7398 7.6234C20.306 7.62265 20.7644 7.16291 20.7636 6.59672L20.7634 6.45701C20.7626 5.89073 20.3029 5.4323 19.7367 5.43314" fill="#262626"/>
</svg>
