<svg width="24" height="24" viewBox="0 0 24 24" fill="none" xmlns="http://www.w3.org/2000/svg">
<mask id="mask0_7928_5808" style="mask-type:alpha" maskUnits="userSpaceOnUse" x="0" y="7" width="24" height="16">
<path fill-rule="evenodd" clip-rule="evenodd" d="M0.000244141 7.86328H23.6996V22.4401H0.000244141V7.86328Z" fill="white"/>
</mask>
<g mask="url(#mask0_7928_5808)">
<path fill-rule="evenodd" clip-rule="evenodd" d="M2.24621 21.4565L21.4354 21.5115H21.4392C22.1654 21.5115 22.7569 20.9223 22.7592 20.1945L22.7709 16.2191C22.7716 15.8668 22.6354 15.5355 22.3869 15.2846C22.1383 15.0345 21.807 14.896 21.454 14.8944L15.6754 14.8789L15.6916 9.05855C15.6924 8.95868 15.639 8.89364 15.608 8.86422C15.5763 8.8348 15.5182 8.79842 15.4075 8.793C15.272 8.80151 15.1613 8.93158 15.1605 9.08255L15.1435 14.8766L2.26479 14.8387H2.2617C1.5355 14.8387 0.942471 15.4294 0.940922 16.1564L0.929309 20.1318C0.926987 20.8596 1.5177 21.4542 2.24621 21.4565ZM21.4392 22.4405H21.4323L2.24309 22.3847C1.00284 22.3809 -0.0036157 21.3698 0.00025527 20.1287L0.0118682 16.1533C0.0149649 14.9161 1.02374 13.9104 2.26245 13.9104H2.26709L14.2175 13.9453L14.2315 9.08023C14.2323 8.43997 14.7231 7.90578 15.3486 7.86552C15.6761 7.84539 16.0044 7.96152 16.2444 8.18759C16.4844 8.41365 16.6214 8.73184 16.6206 9.06165L16.6067 13.9522L21.457 13.9662C22.0578 13.9677 22.6222 14.2038 23.0457 14.6297C23.4692 15.0555 23.7014 15.6214 23.6999 16.2222L23.6883 20.1977C23.6867 20.7984 23.4506 21.3628 23.0248 21.7863C22.6005 22.2082 22.0377 22.4405 21.4392 22.4405Z" fill="#333333"/>
</g>
<path fill-rule="evenodd" clip-rule="evenodd" d="M10.9044 19.0012L13.1357 19.0081C13.4314 19.0089 13.6722 18.7697 13.673 18.4732C13.6737 18.1782 13.4345 17.9374 13.1388 17.9367L10.9075 17.9297C10.6118 17.9289 10.371 18.1689 10.3702 18.4647C10.3695 18.7596 10.6087 19.0004 10.9044 19.0012Z" fill="#4A4A4A"/>
<path fill-rule="evenodd" clip-rule="evenodd" d="M17.064 18.47C17.0632 18.8641 16.7419 19.1831 16.3479 19.1815C15.9538 19.1807 15.6348 18.8602 15.6356 18.4654C15.6372 18.0713 15.9577 17.7524 16.3525 17.7539C16.7466 17.7547 17.0648 18.0752 17.064 18.47Z" fill="#4A4A4A"/>
<path fill-rule="evenodd" clip-rule="evenodd" d="M19.8308 18.47C19.83 18.8641 19.5088 19.1831 19.1147 19.1815C18.7206 19.1807 18.4017 18.8602 18.4032 18.4654C18.404 18.0713 18.7245 17.7524 19.1193 17.7539C19.5134 17.7547 19.8316 18.0752 19.8308 18.47Z" fill="#4A4A4A"/>
<path fill-rule="evenodd" clip-rule="evenodd" d="M10.2644 12.5334C10.17 12.5326 10.0794 12.4885 10.019 12.4134C9.035 11.1894 8.49538 9.64877 8.50003 8.0756C8.51164 4.28438 11.6045 1.19922 15.3958 1.19922C17.2484 1.20386 18.9849 1.92773 20.2848 3.23535C21.5854 4.54296 22.2985 6.27638 22.2931 8.11509C22.2884 9.67277 21.7774 11.1399 20.8167 12.36C20.7547 12.4382 20.6626 12.4831 20.5635 12.4831C20.4923 12.4831 20.4218 12.4583 20.3661 12.4142C20.2267 12.3042 20.2027 12.1022 20.3119 11.9636C21.1836 10.8573 21.6474 9.52567 21.6513 8.11354C21.6559 6.44593 21.0087 4.87354 19.8296 3.68748C18.6505 2.50141 17.082 1.8449 15.4144 1.84025C11.9653 1.84025 9.1519 4.63896 9.14261 8.07638C9.13797 9.50399 9.62726 10.9022 10.5199 12.0116C10.5741 12.079 10.5981 12.1618 10.5888 12.247C10.5787 12.3337 10.5385 12.408 10.4704 12.463C10.4138 12.5086 10.3418 12.5334 10.2691 12.5334H10.2644Z" fill="#4A4A4A"/>
<path fill-rule="evenodd" clip-rule="evenodd" d="M19.0331 12.1968C18.9425 12.1968 18.8558 12.1627 18.7869 12.1015C18.7149 12.0365 18.6723 11.9475 18.6677 11.8484C18.6623 11.75 18.6956 11.6564 18.7614 11.5836C19.5146 10.7513 19.9304 9.67598 19.9335 8.55418C19.9366 7.34411 19.4674 6.20372 18.6119 5.34205C17.7557 4.48192 16.6176 4.00579 15.4083 4.00269C12.9054 4.00269 10.8646 6.03185 10.8576 8.52708C10.8545 9.6396 11.2586 10.7111 11.9934 11.5433C12.1273 11.6959 12.1126 11.9281 11.9616 12.062C11.895 12.1209 11.8083 12.1526 11.7185 12.1526C11.6132 12.1526 11.5126 12.1085 11.4437 12.0311C10.589 11.0618 10.1198 9.81766 10.1237 8.52631C10.1322 5.62695 12.4974 3.26953 15.3959 3.26953C16.8073 3.2734 18.1343 3.8254 19.1306 4.82566C20.1255 5.82592 20.6713 7.14979 20.6674 8.5565C20.6628 9.86024 20.1797 11.1106 19.3064 12.0768C19.2367 12.1526 19.1376 12.1968 19.0331 12.1968Z" fill="#4A4A4A"/>
<path fill-rule="evenodd" clip-rule="evenodd" d="M17.3577 10.9362C17.2641 10.9362 17.1758 10.8998 17.1077 10.8325C16.9629 10.6908 16.9598 10.4578 17.1015 10.3138C17.5381 9.86707 17.7789 9.27636 17.7812 8.65236C17.7851 7.337 16.7183 6.2632 15.4029 6.25855C14.086 6.25855 13.013 7.32694 13.0091 8.6392C13.0075 9.22294 13.2189 9.78655 13.606 10.2247C13.7407 10.3757 13.726 10.6072 13.5743 10.7427C13.5077 10.8015 13.4217 10.834 13.3319 10.834C13.2266 10.834 13.126 10.7899 13.0563 10.7102C12.55 10.1373 12.2728 9.401 12.2752 8.63533C12.2806 6.92049 13.6803 5.52539 15.3959 5.52539C16.2336 5.52771 17.0194 5.8552 17.607 6.44668C18.1954 7.03971 18.5183 7.82242 18.5159 8.65391C18.5128 9.47068 18.1977 10.2426 17.6272 10.8263C17.559 10.896 17.463 10.9362 17.367 10.9362H17.3577Z" fill="#4A4A4A"/>
</svg>
