<svg width="24" height="24" viewBox="0 0 24 24" fill="none" xmlns="http://www.w3.org/2000/svg">
<path fill-rule="evenodd" clip-rule="evenodd" d="M17.188 22.306C17.188 22.5615 16.9797 22.7705 16.7235 22.7705H6.79365C6.53739 22.7705 6.32913 22.5615 6.32913 22.306V1.39272C6.32913 1.13646 6.53739 0.928201 6.79365 0.928201H9.18823L9.36474 1.42833C9.46539 1.71556 9.73636 1.90756 10.0414 1.90756H13.4765C13.78 1.90756 14.0517 1.71556 14.1531 1.42833L14.3296 0.928201H16.7235C16.9797 0.928201 17.188 1.13646 17.188 1.39272V22.306ZM16.7234 0H6.79357C6.02557 0 5.40002 0.624774 5.40002 1.39277V22.3061C5.40002 23.0741 6.02557 23.6988 6.79357 23.6988H16.7234C17.4922 23.6988 18.1169 23.0741 18.1169 22.3061V1.39277C18.1169 0.624774 17.4922 0 16.7234 0ZM15.0419 21.5736C15.0419 21.4095 14.9087 21.2763 14.7438 21.2763H8.77476C8.61063 21.2763 8.47747 21.4095 8.47747 21.5736C8.47747 21.7378 8.61063 21.8709 8.77476 21.8709H14.7438C14.9087 21.8709 15.0419 21.7378 15.0419 21.5736Z" fill="#262626"/>
</svg>
