<svg width="30" height="30" viewBox="0 0 30 30" fill="none" xmlns="http://www.w3.org/2000/svg">
<path fill-rule="evenodd" clip-rule="evenodd" d="M20.456 29.7056H9.61965C8.38506 29.7056 7.38435 28.7047 7.38435 27.4703V25.8593C7.38435 24.6247 8.38506 23.624 9.61965 23.624H20.456C21.6905 23.624 22.6913 24.6247 22.6913 25.8593V27.4703C22.6913 28.7047 21.6905 29.7056 20.456 29.7056Z" fill="white"/>
<path fill-rule="evenodd" clip-rule="evenodd" d="M9.61963 23.9182C8.54928 23.9182 7.67845 24.789 7.67845 25.8594V27.4703C7.67845 28.5407 8.54928 29.4115 9.61963 29.4115H20.456C21.5263 29.4115 22.3972 28.5407 22.3972 27.4703V25.8594C22.3972 24.789 21.5263 23.9182 20.456 23.9182H9.61963ZM20.456 29.9998H9.61965C8.22495 29.9998 7.09024 28.8653 7.09024 27.4704V25.8595C7.09024 24.4648 8.22495 23.3301 9.61965 23.3301H20.456C21.8507 23.3301 22.9854 24.4648 22.9854 25.8595V27.4704C22.9854 28.8653 21.8507 29.9998 20.456 29.9998Z" fill="#202020"/>
<path fill-rule="evenodd" clip-rule="evenodd" d="M20.4275 24.147H19.4087C20.3806 24.147 21.663 24.8931 21.663 25.8134V27.5674C21.663 28.4878 20.3806 29.2339 19.4087 29.2339H20.4275C21.3994 29.2339 22.1873 28.4878 22.1873 27.5674V25.8134C22.1873 24.8931 21.3994 24.147 20.4275 24.147Z" fill="#E8E8E8"/>
<path fill-rule="evenodd" clip-rule="evenodd" d="M15.0902 27.2419C13.9899 27.2419 13.098 26.3499 13.098 25.2495V21.9992C13.098 20.8988 13.9899 20.0068 15.0902 20.0068C16.1906 20.0068 17.0825 20.8988 17.0825 21.9992V25.2495C17.0825 26.3499 16.1906 27.2419 15.0902 27.2419Z" fill="white"/>
<path fill-rule="evenodd" clip-rule="evenodd" d="M15.0903 20.3005C14.1539 20.3005 13.3922 21.0624 13.3922 21.9988V25.2491C13.3922 26.1855 14.1539 26.9474 15.0903 26.9474C16.0266 26.9474 16.7884 26.1855 16.7884 25.2491V21.9988C16.7884 21.0624 16.0266 20.3005 15.0903 20.3005ZM15.0903 27.5357C13.8296 27.5357 12.8039 26.5099 12.8039 25.2492V21.9989C12.8039 20.7382 13.8296 19.7124 15.0903 19.7124C16.351 19.7124 17.3767 20.7382 17.3767 21.9989V25.2492C17.3767 26.5099 16.351 27.5357 15.0903 27.5357Z" fill="#202020"/>
<path fill-rule="evenodd" clip-rule="evenodd" d="M15.054 20.8926C14.9024 20.8926 14.7564 20.917 14.6184 20.9615C15.2369 21.1606 16.1068 21.7723 16.1068 22.4966V25.1135C16.1068 25.8378 15.2369 26.4493 14.6184 26.6486C14.7564 26.693 14.9024 26.7174 15.054 26.7174C15.8848 26.7174 16.5583 25.9993 16.5583 25.1135V22.4966C16.5583 21.6107 15.8848 20.8926 15.054 20.8926Z" fill="#E8E8E8"/>
<path fill-rule="evenodd" clip-rule="evenodd" d="M24.6512 21.2649H5.52941C4.29494 21.2649 3.29411 20.2641 3.29411 19.0296V2.52924C3.29411 1.29477 4.29494 0.293945 5.52941 0.293945H24.6512C25.8856 0.293945 26.8865 1.29477 26.8865 2.52924V19.0296C26.8865 20.2641 25.8856 21.2649 24.6512 21.2649Z" fill="white"/>
<path fill-rule="evenodd" clip-rule="evenodd" d="M5.52939 0.588128C4.45904 0.588128 3.58821 1.45895 3.58821 2.5293V19.0297C3.58821 20.1 4.45904 20.9708 5.52939 20.9708H24.6512C25.7215 20.9708 26.5923 20.1 26.5923 19.0297V2.5293C26.5923 1.45895 25.7215 0.588128 24.6512 0.588128H5.52939ZM24.6512 21.5592H5.52941C4.13471 21.5592 3 20.4245 3 19.0298V2.52941C3 1.13471 4.13471 0 5.52941 0H24.6512C26.0459 0 27.1806 1.13471 27.1806 2.52941V19.0298C27.1806 20.4245 26.0459 21.5592 24.6512 21.5592Z" fill="#202020"/>
<path fill-rule="evenodd" clip-rule="evenodd" d="M24.4118 0.92334H23.3738C24.3641 0.92334 25.1668 1.76181 25.1668 2.79605V18.7633C25.1668 19.7976 24.3641 20.636 23.3738 20.636H24.4118C25.4021 20.636 26.2049 19.7976 26.2049 18.7633V2.79605C26.2049 1.76181 25.4021 0.92334 24.4118 0.92334Z" fill="#E8E8E8"/>
<path fill-rule="evenodd" clip-rule="evenodd" d="M14.9854 5.99817C12.638 5.99817 10.7283 7.90794 10.7283 10.2553C10.7283 12.6028 12.638 14.5124 14.9854 14.5124C17.3328 14.5124 19.2425 12.6028 19.2425 10.2553C19.2425 7.90794 17.3328 5.99817 14.9854 5.99817ZM14.9854 16.1276C11.7477 16.1276 9.11353 13.4934 9.11353 10.2557C9.11353 7.01791 11.7477 4.38379 14.9854 4.38379C18.2232 4.38379 20.8573 7.01791 20.8573 10.2557C20.8573 13.4934 18.2232 16.1276 14.9854 16.1276Z" fill="#202020"/>
<path fill-rule="evenodd" clip-rule="evenodd" d="M17.7378 10.2549C17.7378 11.7751 16.5055 13.0074 14.9854 13.0074C13.4652 13.0074 12.2329 11.7751 12.2329 10.2549C12.2329 8.73479 13.4652 7.50244 14.9854 7.50244C16.5055 7.50244 17.7378 8.73479 17.7378 10.2549Z" fill="#202020"/>
<path fill-rule="evenodd" clip-rule="evenodd" d="M16.034 18.6438C16.034 19.2229 15.5645 19.6923 14.9854 19.6923C14.4063 19.6923 13.9369 19.2229 13.9369 18.6438C13.9369 18.0646 14.4063 17.5952 14.9854 17.5952C15.5645 17.5952 16.034 18.0646 16.034 18.6438Z" fill="#202020"/>
</svg>
