<svg width="24" height="24" viewBox="0 0 24 24" fill="none" xmlns="http://www.w3.org/2000/svg">
<mask id="mask0_7928_1514" style="mask-type:alpha" maskUnits="userSpaceOnUse" x="0" y="2" width="24" height="18">
<path fill-rule="evenodd" clip-rule="evenodd" d="M0 2.57422H23.6995V19.2967H0V2.57422Z" fill="white"/>
</mask>
<g mask="url(#mask0_7928_1514)">
<path fill-rule="evenodd" clip-rule="evenodd" d="M1.39345 3.50247C1.13719 3.50247 0.928929 3.7115 0.928929 3.96698V17.904C0.928929 18.1603 1.13719 18.3685 1.39345 18.3685H22.306C22.5622 18.3685 22.7705 18.1603 22.7705 17.904V3.96698C22.7705 3.7115 22.5622 3.50247 22.306 3.50247H1.39345ZM22.3059 19.2968H1.39343C0.625426 19.2968 -0.00012207 18.672 -0.00012207 17.904V3.96699C-0.00012207 3.19822 0.625426 2.57422 1.39343 2.57422H22.3059C23.0739 2.57422 23.6995 3.19822 23.6995 3.96699V17.904C23.6995 18.672 23.0739 19.2968 22.3059 19.2968Z" fill="#262626"/>
</g>
<path fill-rule="evenodd" clip-rule="evenodd" d="M3.80485 22.0567C3.67711 22.0567 3.55556 22.0087 3.46034 21.9235C3.35892 21.8321 3.29931 21.7067 3.29156 21.5697C3.28537 21.4319 3.33182 21.3003 3.42395 21.1996L4.27479 20.2582C4.37234 20.1498 4.51092 20.0879 4.65569 20.0879H19.0843C19.2299 20.0879 19.3685 20.1498 19.4652 20.2582L20.2758 21.154C20.4655 21.3638 20.4485 21.6889 20.2394 21.8794C20.1442 21.9645 20.0227 22.0118 19.8949 22.0118C19.7501 22.0118 19.6108 21.9498 19.514 21.8422L18.856 21.1152H4.88408L4.18576 21.8871C4.08821 21.9947 3.94963 22.0567 3.80485 22.0567Z" fill="#494949"/>
</svg>
