<svg width="24" height="24" viewBox="0 0 24 24" fill="none" xmlns="http://www.w3.org/2000/svg">
<path fill-rule="evenodd" clip-rule="evenodd" d="M12 21.3972C11.5259 21.3972 11.0491 21.3613 10.5825 21.2908L10.426 21.267L10.389 21.1132C9.20604 16.2028 5.08462 13.4794 2.73318 12.293L2.60537 12.2284L2.60283 11.9999C2.60283 10.8591 2.80575 9.74308 3.20584 8.68274L3.23436 8.60698L3.30363 8.56482C4.5985 7.77686 7.45027 6.45488 12 6.45488C16.2198 6.45488 19.1408 7.5122 20.5066 8.14232L20.5881 8.17997L20.6237 8.26232C21.137 9.44472 21.3972 10.7022 21.3972 11.9999C21.3972 12.1074 21.3948 12.2143 21.3912 12.3208L21.3857 12.4829L21.2322 12.5355C18.8136 13.3636 16.8564 14.8348 15.4151 16.9086C14.2342 18.6076 13.7088 20.2825 13.5007 21.1296L13.4627 21.2846L13.3046 21.3066C12.8721 21.3667 12.4332 21.3972 12 21.3972" fill="white"/>
<path fill-rule="evenodd" clip-rule="evenodd" d="M19.9263 8.33975C18.8498 7.75265 16.0334 6.7741 12.2701 6.7741C12.0386 6.7741 11.8125 6.77834 11.5908 6.78577C14.9691 6.89476 18.6311 8.41034 19.1434 8.73119C19.6557 9.05203 19.6327 12.1561 19.6327 12.1561L19.1076 12.2946C15.7184 13.7218 13.0764 18.5167 12.8807 20.5717C13.1742 20.5717 13.37 20.4738 13.37 20.4738C13.5657 18.8103 14.4732 17.7199 15.5115 16.1944C16.7949 14.3089 18.8498 13.0368 20.4055 12.3925L20.5424 12.3456C20.5424 12.3456 20.7091 10.0033 19.9263 8.33975" fill="#E8E8E8"/>
<path fill-rule="evenodd" clip-rule="evenodd" d="M12 6.21973C7.39274 6.21973 4.49721 7.56316 3.18135 8.36392L3.0429 8.44825L2.98568 8.59978C2.57551 9.68674 2.36751 10.8306 2.36751 12.0001C2.36751 12.0193 2.36779 12.0383 2.36817 12.0574L2.36855 12.0873L2.37118 12.3741L2.62718 12.5032C3.70878 13.0489 5.30718 13.9995 6.77956 15.4294C8.51029 17.1103 9.64771 19.0412 10.1602 21.1685L10.2343 21.4762L10.5473 21.5236C11.0255 21.5958 11.5142 21.6326 12 21.6326C12.4439 21.6326 12.8937 21.6014 13.337 21.5397L13.6531 21.4959L13.7292 21.186C13.9334 20.3546 14.449 18.711 15.6083 17.0431C17.0203 15.0113 18.9382 13.5697 21.3084 12.7583L21.6154 12.6531L21.6264 12.3288C21.6305 12.2035 21.6325 12.0991 21.6325 12.0001C21.6325 10.6701 21.3657 9.38105 20.8396 8.16872L20.7681 8.00401L20.6051 7.92881C19.2218 7.2905 16.2647 6.21973 12 6.21973M12 6.69023C16.121 6.69023 18.9745 7.69456 20.4079 8.35602C20.8926 9.47282 21.1619 10.7049 21.1619 12C21.1619 12.1047 21.1595 12.209 21.1559 12.3129C15.4135 14.2788 13.7019 19.324 13.2723 21.0735C12.8564 21.1314 12.4318 21.162 12 21.162C11.5301 21.162 11.0686 21.1264 10.6177 21.0581C9.39639 15.9887 5.07103 13.209 2.83912 12.083C2.83883 12.0552 2.83808 12.0277 2.83808 12C2.83808 10.8613 3.04636 9.77164 3.42594 8.7659C4.57559 8.06623 7.4186 6.69023 12 6.69023" fill="#202020"/>
<path fill-rule="evenodd" clip-rule="evenodd" d="M12 21.1617C6.94008 21.1617 2.83815 17.0597 2.83815 11.9997C2.83815 6.9398 6.94008 2.83786 12 2.83786C17.06 2.83786 21.1619 6.9398 21.1619 11.9997C21.1619 17.0597 17.06 21.1617 12 21.1617M12 0.235064C5.50253 0.235064 0.23532 5.50236 0.23532 11.9998C0.23532 18.4973 5.50253 23.7645 12 23.7645C18.4976 23.7645 23.7648 18.4973 23.7648 11.9998C23.7648 5.50236 18.4976 0.235064 12 0.235064" fill="white"/>
<mask id="mask0_9_5" style="mask-type:alpha" maskUnits="userSpaceOnUse" x="0" y="0" width="24" height="24">
<path fill-rule="evenodd" clip-rule="evenodd" d="M0 0H24V24H0V0Z" fill="white"/>
</mask>
<g mask="url(#mask0_9_5)">
<path fill-rule="evenodd" clip-rule="evenodd" d="M12 3.07354C7.07783 3.07354 3.0734 7.07797 3.0734 12.0001C3.0734 16.9223 7.07783 20.9267 12 20.9267C16.9222 20.9267 20.9266 16.9223 20.9266 12.0001C20.9266 7.07797 16.9222 3.07354 12 3.07354M12 21.3974C6.81836 21.3974 2.60283 17.1818 2.60283 12.0002C2.60283 6.81857 6.81836 2.60303 12 2.60303C17.1817 2.60303 21.3972 6.81857 21.3972 12.0002C21.3972 17.1818 17.1817 21.3974 12 21.3974M12 0.470503C5.64262 0.470503 0.470572 5.64256 0.470572 11.9999C0.470572 18.3573 5.64262 23.5294 12 23.5294C18.3574 23.5294 23.5294 18.3573 23.5294 11.9999C23.5294 5.64256 18.3574 0.470503 12 0.470503M12 24C5.38316 24 0 18.6168 0 12C0 5.38316 5.38316 0 12 0C18.6169 0 24 5.38316 24 12C24 18.6168 18.6169 24 12 24" fill="#202020"/>
</g>
<path fill-rule="evenodd" clip-rule="evenodd" d="M12.2 0.849037C12.0914 0.849037 11.9832 0.851014 11.8754 0.85412C17.8838 1.02588 22.7019 5.95022 22.7019 12.0002C22.7019 18.0503 17.8838 22.9746 11.8754 23.1464C11.9832 23.1495 12.0914 23.1515 12.2 23.1515C18.3587 23.1515 23.3512 18.1589 23.3512 12.0002C23.3512 5.84161 18.3587 0.849037 12.2 0.849037" fill="#E8E8E8"/>
<path fill-rule="evenodd" clip-rule="evenodd" d="M13.6 12.4687C13.6 13.4563 12.7994 14.2569 11.8118 14.2569C10.8242 14.2569 10.0236 13.4563 10.0236 12.4687C10.0236 11.481 10.8242 10.6805 11.8118 10.6805C12.7994 10.6805 13.6 11.481 13.6 12.4687" fill="#202020"/>
</svg>
