<svg width="24" height="24" viewBox="0 0 24 24" fill="none" xmlns="http://www.w3.org/2000/svg">
<mask id="mask0_7928_5825" style="mask-type:alpha" maskUnits="userSpaceOnUse" x="3" y="0" width="17" height="22">
<path fill-rule="evenodd" clip-rule="evenodd" d="M3.00012 0.728516H19.8836V21.6089H3.00012V0.728516Z" fill="white"/>
</mask>
<g mask="url(#mask0_7928_5825)">
<path fill-rule="evenodd" clip-rule="evenodd" d="M3.87283 9.0645V9.15323C3.87283 11.4921 5.2612 13.791 6.55065 14.9445C7.71938 15.9889 8.44956 18.4027 8.89756 20.1278C8.99138 20.4863 9.32011 20.7372 9.69756 20.7372H13.1754C13.5608 20.7372 13.8932 20.4718 13.9841 20.0914C14.3645 18.498 14.8859 16.314 16.3281 14.9489C18.083 13.2878 19.0103 11.29 19.0103 9.17068L19.0023 8.86159C18.9259 6.94014 18.1281 5.1365 16.7565 3.78159C15.331 2.37577 13.4437 1.6005 11.4416 1.6005C9.4401 1.6005 7.55283 2.37577 6.12738 3.78159C4.75574 5.1365 3.95792 6.93941 3.88083 8.86159L3.87283 9.0645ZM13.1754 21.6092H9.69758C8.92303 21.6092 8.24667 21.09 8.05321 20.3474C7.81176 19.4158 7.07576 16.5852 5.96885 15.5947C4.53903 14.3169 3.00012 11.7605 3.00012 9.1707L3.03649 8.40779C3.21394 6.42161 4.08521 4.57215 5.5143 3.16124C7.10339 1.59252 9.20885 0.728516 11.4416 0.728516C13.675 0.728516 15.7805 1.59252 17.3696 3.16124C18.7994 4.57215 19.6699 6.42161 19.8474 8.40779H19.8692L19.8838 9.06306L19.8816 9.12997C19.8838 11.5351 18.8612 13.7525 16.9281 15.5823C15.675 16.7692 15.1885 18.8071 14.8328 20.2943C14.6474 21.0689 13.9659 21.6092 13.1754 21.6092Z" fill="#333333"/>
</g>
<path fill-rule="evenodd" clip-rule="evenodd" d="M9.11074 10.6664H10.7675C10.8344 10.6664 10.8882 10.7202 10.8882 10.7871V12.3973C10.8882 12.5042 11.0191 12.5587 11.0947 12.4824L13.7158 9.862C13.7922 9.78564 13.7377 9.65473 13.63 9.65473H11.9086C11.8417 9.65473 11.7871 9.60091 11.7871 9.534V7.20309C11.7871 7.08746 11.6409 7.038 11.5704 7.12964L9.01474 10.4715C8.95365 10.5515 9.01038 10.6664 9.11074 10.6664Z" fill="#4A4A4A"/>
<mask id="mask1_7928_5825" style="mask-type:alpha" maskUnits="userSpaceOnUse" x="8" y="22" width="7" height="2">
<path fill-rule="evenodd" clip-rule="evenodd" d="M8.51917 22.2324H14.237V23.1252H8.51917V22.2324Z" fill="white"/>
</mask>
<g mask="url(#mask1_7928_5825)">
<path fill-rule="evenodd" clip-rule="evenodd" d="M13.7912 23.1255H8.96498C8.71917 23.1255 8.51917 22.9255 8.51917 22.6797C8.51917 22.4331 8.71917 22.2324 8.96498 22.2324H13.7912C14.037 22.2324 14.237 22.4331 14.237 22.6797C14.237 22.9255 14.037 23.1255 13.7912 23.1255Z" fill="#4A4A4A"/>
</g>
</svg>
