<svg width="24" height="24" viewBox="0 0 24 24" fill="none" xmlns="http://www.w3.org/2000/svg">
<path fill-rule="evenodd" clip-rule="evenodd" d="M14.8987 21.5547V17.1993C14.8987 16.6877 14.4844 16.2728 13.9727 16.2721L9.7887 16.2668C9.27608 16.2661 8.86029 16.6814 8.86029 17.194V21.5399C8.86029 22.052 8.44517 22.4671 7.93301 22.4671H4.02008C3.50801 22.4671 3.09289 22.052 3.09289 21.5399V10.3168C3.09289 10.0333 3.22254 9.76551 3.44483 9.58972L11.292 3.38113C11.625 3.11769 12.0943 3.11413 12.4313 3.37241L20.3029 9.40494C20.5318 9.58044 20.6661 9.85251 20.6661 10.141V21.5414C20.6661 22.0524 20.2529 22.4669 19.742 22.4687L15.829 22.4818C15.3157 22.4835 14.8987 22.0679 14.8987 21.5547" fill="white"/>
<mask id="mask0_9_41" style="mask-type:alpha" maskUnits="userSpaceOnUse" x="2" y="2" width="19" height="21">
<path fill-rule="evenodd" clip-rule="evenodd" d="M2.85858 2.94637H20.9005V22.7162H2.85858V2.94637Z" fill="white"/>
</mask>
<g mask="url(#mask0_9_41)">
<path fill-rule="evenodd" clip-rule="evenodd" d="M9.78745 16.0324H9.78895L13.973 16.0378C14.6127 16.0386 15.1331 16.5596 15.1331 17.1993V21.5546C15.1331 21.7402 15.2055 21.9144 15.3369 22.0454C15.4677 22.1757 15.6412 22.2474 15.8258 22.2474H15.8282L19.7412 22.2343C20.122 22.2331 20.4317 21.9222 20.4317 21.5415V10.1409C20.4317 9.92682 20.3303 9.72132 20.1603 9.59101L12.2887 3.55839C12.0365 3.36507 11.6865 3.36779 11.4375 3.56495L3.5902 9.77354C3.42314 9.90563 3.32733 10.1037 3.32733 10.3168V21.5399C3.32733 21.9219 3.63811 22.2328 4.02014 22.2328H7.93308C8.31511 22.2328 8.62589 21.9219 8.62589 21.5399V17.194C8.62589 16.8834 8.74692 16.5915 8.96667 16.372C9.18595 16.1529 9.47751 16.0324 9.78745 16.0324V16.0324ZM15.8258 22.7162C15.5163 22.7162 15.2253 22.596 15.006 22.3774C14.7856 22.1578 14.6643 21.8657 14.6643 21.5546V17.1993C14.6643 16.8178 14.3539 16.5069 13.9724 16.5066L9.78839 16.5011H9.78745C9.60258 16.5011 9.42876 16.5731 9.29789 16.7037C9.16683 16.8347 9.09464 17.0088 9.09464 17.194V21.5399C9.09464 22.1804 8.57358 22.7016 7.93308 22.7016H4.02014C3.37964 22.7016 2.85858 22.1804 2.85858 21.5399V10.3168C2.85858 9.95954 3.01927 9.62748 3.29939 9.40585L11.1465 3.19735C11.5641 2.86679 12.1511 2.86239 12.5739 3.18639L20.4454 9.21892C20.7304 9.43735 20.9005 9.78207 20.9005 10.1409V21.5415C20.9005 22.1798 20.3811 22.7009 19.7428 22.7031L15.8298 22.7162H15.8258Z" fill="#202020"/>
</g>
<path fill-rule="evenodd" clip-rule="evenodd" d="M19.8634 9.79014L12.4505 4.10898C12.1332 3.86588 11.6912 3.86926 11.3776 4.11732L11.3093 4.17132L18.6409 9.79014C18.8565 9.95542 18.9829 10.2115 18.9829 10.4832V21.2193C18.9829 21.7004 18.5938 22.0909 18.1127 22.0926L15.569 22.101C15.5958 22.1034 15.6229 22.1049 15.6502 22.1049L19.3352 22.0926C19.8162 22.0909 20.2054 21.7004 20.2054 21.2193V10.4832C20.2054 10.2115 20.079 9.95542 19.8634 9.79014" fill="#E8E8E8"/>
<path fill-rule="evenodd" clip-rule="evenodd" d="M13.3169 12.0749H10.5385C10.4621 12.0749 10.4002 12.0131 10.4002 11.9367V9.78686C10.4002 8.9433 11.0842 8.2594 11.9277 8.2594C12.7713 8.2594 13.4551 8.9433 13.4551 9.78686V11.9367C13.4551 12.0131 13.3932 12.0749 13.3169 12.0749" fill="#202020"/>
<path fill-rule="evenodd" clip-rule="evenodd" d="M18.1083 8.84311V4.14389C18.1083 3.86274 18.337 3.63399 18.6183 3.63399H20.161C20.4421 3.63399 20.6709 3.86274 20.6709 4.14389V8.84311H18.1083Z" fill="#202020"/>
<path fill-rule="evenodd" clip-rule="evenodd" d="M11.3748 1.97235L0.408835 10.7251C0.20596 10.8871 0.175585 11.1841 0.341522 11.3838L1.09555 12.2912C1.25568 12.484 1.53993 12.5145 1.73746 12.3604L11.3826 4.83041C11.718 4.56857 12.1884 4.56857 12.5238 4.83041L22.169 12.3604C22.3664 12.5145 22.6506 12.484 22.8108 12.2912L23.5649 11.3838C23.7308 11.1841 23.7005 10.8871 23.4976 10.7251L12.5316 1.97235C12.1933 1.70226 11.7131 1.70226 11.3748 1.97235" fill="white"/>
<mask id="mask1_9_41" style="mask-type:alpha" maskUnits="userSpaceOnUse" x="0" y="1" width="24" height="12">
<path fill-rule="evenodd" clip-rule="evenodd" d="M0 1.53375H23.9064V12.6942H0V1.53375Z" fill="white"/>
</mask>
<g mask="url(#mask1_9_41)">
<path fill-rule="evenodd" clip-rule="evenodd" d="M11.9532 4.39923C12.2054 4.39923 12.4576 4.48135 12.668 4.6457L22.3131 12.1756C22.4115 12.2525 22.5509 12.2374 22.6306 12.1415L23.3846 11.234C23.4244 11.1863 23.4426 11.126 23.4364 11.0642C23.4301 11.0024 23.3999 10.9471 23.3513 10.9084L12.3854 2.15551C12.131 1.95226 11.7755 1.95226 11.521 2.15551L0.555075 10.9084C0.506513 10.9471 0.476325 11.0024 0.470044 11.0642C0.463763 11.126 0.482044 11.1863 0.521794 11.234L1.27583 12.1415C1.35551 12.2374 1.49492 12.2525 1.59326 12.1756L11.2384 4.6457C11.4488 4.48145 11.701 4.39923 11.9532 4.39923M22.4548 12.6941C22.3046 12.6941 22.1531 12.6454 22.0247 12.5452L12.3796 5.01517C12.1285 4.81913 11.7779 4.81913 11.5268 5.01517L1.88173 12.5452C1.58239 12.7788 1.15789 12.7329 0.915357 12.441L0.161231 11.5336C0.0403876 11.3882 -0.0155811 11.2045 0.00373138 11.0165C0.0229501 10.8284 0.114919 10.6599 0.262669 10.5419L11.2286 1.78913C11.6552 1.44854 12.2512 1.44854 12.6778 1.78913L23.6437 10.5419C23.7915 10.6599 23.8835 10.8284 23.9027 11.0165C23.9219 11.2045 23.866 11.3882 23.7452 11.5336L22.991 12.441C22.8526 12.6078 22.6548 12.6941 22.4548 12.6941" fill="#202020"/>
</g>
<path fill-rule="evenodd" clip-rule="evenodd" d="M23.0215 10.7963L12.509 2.38505C12.2601 2.1863 11.9227 2.15724 11.6472 2.29627C11.6957 2.32083 22.2991 10.7963 22.2991 10.7963C22.4747 10.9365 22.5011 11.1936 22.3574 11.3665L22.0182 11.7385L22.1495 11.841C22.3205 11.9745 22.5665 11.9479 22.7051 11.7811L23.0798 11.3665C23.2234 11.1936 23.1971 10.9365 23.0215 10.7963" fill="#E8E8E8"/>
</svg>
