<svg width="60" height="60" viewBox="0 0 60 60" fill="none" xmlns="http://www.w3.org/2000/svg">
<path fill-rule="evenodd" clip-rule="evenodd" d="M56.1729 56.181H3.8223V3.82188H56.1729V56.181ZM60 59.93V0.140467C59.9509 0.125427 59.9018 0.10617 59.8527 0.0869168C59.7479 0.0458145 59.6432 0.00472978 59.5386 0.00472978C39.8439 -0.00157659 20.1492 -0.00157659 0.4548 0.00472978C0.351534 0.00472978 0.248128 0.0458898 0.144772 0.0870297C0.0964974 0.106245 0.0482335 0.125456 0 0.140467V59.93C0.045375 59.9374 0.0907194 59.9471 0.136053 59.9567C0.232489 59.9771 0.328875 59.9975 0.4254 59.9975C20.1417 60.0008 39.8583 60.0008 59.5746 59.9975C59.6711 59.9975 59.7675 59.9771 59.8639 59.9567C59.9093 59.9471 59.9546 59.9374 60 59.93ZM45.8404 29.9965C45.8752 29.9986 45.9097 30.0004 45.9442 30.0025C45.915 30.3661 45.8886 30.73 45.8623 31.094C45.7999 31.9552 45.7376 32.8165 45.637 33.6734C45.5422 34.4806 45.229 34.701 44.4082 34.7079C43.5166 34.7154 42.625 34.716 41.7334 34.7076C40.9591 34.7001 40.6927 34.5097 40.5529 33.741C40.4326 33.0782 40.363 32.4007 40.3375 31.7274C40.2679 29.8776 40.2067 28.0238 40.5616 26.1922C40.699 25.4817 40.9318 25.2985 41.6458 25.2877C42.6385 25.2724 43.6315 25.2754 44.6242 25.2892C45.1888 25.2967 45.4594 25.4934 45.5737 26.0589C45.7024 26.697 45.7888 27.3484 45.8311 27.998C45.8607 28.4593 45.8536 28.9231 45.8466 29.3867C45.8435 29.59 45.8404 29.7934 45.8404 29.9965ZM44.0716 22.5361C43.7425 22.5245 43.4135 22.5128 43.0846 22.4985L43.0828 22.5763C42.8022 22.5763 42.5215 22.5748 42.2408 22.5733C41.6189 22.57 40.997 22.5667 40.3756 22.5796C38.9086 22.6102 37.9183 23.3333 37.3837 24.6964C36.9967 25.6841 36.8248 26.722 36.7897 27.7682C36.7399 29.2445 36.7111 30.7274 36.7999 32.2001C36.8587 33.1788 37.0528 34.1701 37.339 35.1094C37.8004 36.623 38.8279 37.3809 40.3573 37.4125C42.1732 37.4497 43.9906 37.4464 45.8065 37.4125C47.2342 37.3854 48.2263 36.6746 48.7606 35.335C49.1146 34.4467 49.2808 33.5154 49.3567 32.5725C49.5103 30.6673 49.5235 28.7601 49.2931 26.8592C49.1818 25.94 48.9994 25.034 48.5509 24.2084C48.0691 23.3216 47.3533 22.7294 46.3255 22.6483C45.576 22.5892 44.8238 22.5627 44.0716 22.5361ZM32.4429 30.0176C32.4693 30.0194 32.4957 30.0215 32.5218 30.0233C32.4936 30.3849 32.4683 30.7468 32.443 31.1087C32.3835 31.9597 32.324 32.8107 32.2269 33.6573C32.1333 34.4744 31.8129 34.7014 30.9768 34.7086C30.1089 34.7155 29.2407 34.7149 28.3725 34.7089C27.5169 34.7029 27.2217 34.4585 27.0924 33.6032C27.0102 33.0585 26.9475 32.5074 26.9274 31.9575C26.859 30.1092 26.8056 28.2593 27.0861 26.4208C27.2247 25.5124 27.4464 25.3025 28.3608 25.2821C29.3181 25.2611 30.2766 25.2728 31.2342 25.2896C31.776 25.2995 32.0727 25.5019 32.1552 26.0497C32.2794 26.876 32.3458 27.7114 32.4121 28.5457C32.4207 28.6528 32.4292 28.76 32.4378 28.8671C32.4591 29.129 32.4535 29.3932 32.448 29.6574C32.4455 29.7775 32.4429 29.8977 32.4429 30.0176ZM28.6892 37.4521C29.0116 37.4612 29.3341 37.4703 29.6562 37.4825L29.6577 37.4237C29.9331 37.4237 30.2086 37.4256 30.4841 37.4276C31.0999 37.4319 31.7159 37.4363 32.3313 37.4188C33.7977 37.3777 34.8201 36.6864 35.3568 35.2945C35.7135 34.3693 35.913 33.4056 35.9424 32.4278C35.9913 30.8053 36.0174 29.1767 35.9313 27.5569C35.8824 26.6362 35.6733 25.7019 35.3919 24.8202C34.9164 23.3292 33.8904 22.6073 32.3301 22.5821C30.5373 22.5529 28.743 22.5592 26.9499 22.5818C25.4976 22.6001 24.5109 23.3268 23.9754 24.6734C23.5878 25.6479 23.4468 26.6743 23.3709 27.7088C23.2443 29.4344 23.2431 31.1605 23.4306 32.8828C23.5323 33.8146 23.6949 34.7341 24.1023 35.5897C24.5886 36.6113 25.3671 37.2672 26.5155 37.3555C27.2383 37.411 27.9638 37.4315 28.6892 37.4521ZM13.8223 32.6861H10.5124C10.5263 32.9053 10.5378 33.121 10.5491 33.3343C10.5732 33.7884 10.5967 34.2313 10.642 34.672C10.8235 36.439 11.7448 37.3688 13.4716 37.4096C15.5017 37.4586 17.5345 37.4519 19.5649 37.4117C20.9485 37.3847 21.9658 36.5366 22.2679 35.1838C22.6459 33.4912 22.6543 31.7735 22.3186 30.0753C22.0297 28.6113 21.1678 27.8356 19.7035 27.7332C18.6193 27.6572 17.5279 27.6674 16.4391 27.6775C16.3324 27.6785 16.2257 27.6795 16.1191 27.6804C15.4378 27.6864 14.8183 27.9179 14.2924 28.3744C14.2418 28.4181 14.1712 28.4393 14.1007 28.4605C14.0676 28.4705 14.0346 28.4804 14.0035 28.4927C13.9981 28.4627 13.9905 28.4325 13.9829 28.4023C13.9666 28.3379 13.9504 28.2735 13.9549 28.2107C13.9768 27.9126 14.0017 27.6147 14.0267 27.3167C14.0733 26.7599 14.1199 26.2031 14.1463 25.6455C14.1613 25.3278 14.2663 25.2569 14.5648 25.2584C16.3589 25.2669 18.153 25.266 19.947 25.265C20.5119 25.2647 21.0767 25.2644 21.6415 25.2644H22.0432V22.5599H11.2975L10.7914 30.2801C11.0117 30.3454 11.2305 30.4106 11.4485 30.4755C12.1473 30.6836 12.8363 30.8888 13.528 31.0834C13.6227 31.1099 13.7498 31.0557 13.854 31.0112L13.867 31.0056C14.0053 30.9473 14.1412 30.8802 14.277 30.8133C14.5367 30.6853 14.7959 30.5575 15.0703 30.4906C16.0943 30.2409 17.14 30.3138 18.1792 30.3861C18.2312 30.3897 18.2832 30.3933 18.3352 30.3969C18.6826 30.4209 18.895 30.6732 18.9637 31.0173C19.1671 32.036 19.1728 33.0576 18.9592 34.0735C18.8677 34.5087 18.6532 34.7006 18.202 34.7108C17.0983 34.7363 15.9925 34.7504 14.8891 34.7189C14.251 34.7009 14.0458 34.4699 13.9492 33.8336C13.9095 33.5738 13.8842 33.312 13.8585 33.0465C13.847 32.9272 13.8353 32.8071 13.8223 32.6861Z" fill="#808080"/>
</svg>
