<svg width="32" height="32" viewBox="0 0 32 32" fill="none" xmlns="http://www.w3.org/2000/svg">
<g opacity="0.5">
<path fill-rule="evenodd" clip-rule="evenodd" d="M26.0112 20.9292C23.3918 20.9292 21.2694 18.9084 21.2694 16.4118C21.2694 13.9152 23.3918 11.8848 26.0112 11.8848C28.2885 11.8848 30.1944 13.4192 30.652 15.4607H28.9773C28.5606 14.2805 27.3912 13.4256 26.0112 13.4256C24.28 13.4256 22.8736 14.7618 22.8736 16.4118C22.8736 18.0617 24.28 19.3981 26.0112 19.3981C27.3801 19.3981 28.5419 18.5568 28.9672 17.3914H30.6419C30.1725 19.4162 28.2774 20.9292 26.0112 20.9292ZM15.8883 20.9292C13.3194 20.9292 11.2358 18.9755 11.1568 16.545H11.1466V16.4023V9.30225H12.761V13.0071C13.5958 12.3077 14.6886 11.8848 15.8883 11.8848C18.5077 11.8848 20.6302 13.9059 20.6302 16.4023C20.6302 18.8988 18.5077 20.9292 15.8883 20.9292ZM10.5991 16.4118V20.9102H8.98491V19.807C8.14987 20.5064 7.05707 20.9292 5.85739 20.9292C3.23803 20.9292 1.11563 18.9084 1.11563 16.4118C1.11563 13.9152 3.23803 11.8848 5.85739 11.8848C8.42651 11.8848 10.5099 13.8384 10.5891 16.2693H10.5991V16.4118ZM16 0.959961C7.16352 0.959961 0 7.69731 0 16.0079C0 24.3188 7.16352 31.0561 16 31.0561C24.8366 31.0561 32 24.3188 32 16.0079C32 7.69731 24.8366 0.959961 16 0.959961ZM5.8574 13.4256C4.12636 13.4256 2.7198 14.7617 2.7198 16.4117C2.7198 18.0616 4.12636 19.3981 5.8574 19.3981C7.5886 19.3981 8.98492 18.0616 8.98492 16.4117C8.98492 14.7617 7.5886 13.4256 5.8574 13.4256ZM15.8884 13.4161C14.1574 13.4161 12.7609 14.7522 12.7609 16.4024C12.7609 18.0523 14.1574 19.3886 15.8884 19.3886C17.6196 19.3886 19.026 18.0523 19.026 16.4024C19.026 14.7522 17.6196 13.4161 15.8884 13.4161Z" fill="black"/>
</g>
</svg>
