<svg width="28" height="28" viewBox="0 0 28 28" fill="none" xmlns="http://www.w3.org/2000/svg">
<path fill-rule="evenodd" clip-rule="evenodd" d="M22.7598 18.3126C20.4678 18.3126 18.6107 16.5444 18.6107 14.3599C18.6107 12.1753 20.4678 10.3987 22.7598 10.3987C24.7524 10.3987 26.4201 11.7413 26.8205 13.5277H25.3551C24.9905 12.495 23.9673 11.747 22.7598 11.747C21.245 11.747 20.0144 12.9161 20.0144 14.3599C20.0144 15.8035 21.245 16.9729 22.7598 16.9729C23.9576 16.9729 24.9742 16.2368 25.3463 15.217H26.8117C26.4009 16.9887 24.7427 18.3126 22.7598 18.3126ZM13.9023 18.3131C11.6544 18.3131 9.83136 16.6037 9.76219 14.4769H9.75323V14.3521V8.13952H11.1658V11.3813C11.8964 10.7693 12.8526 10.3993 13.9023 10.3993C16.1942 10.3993 18.0515 12.1677 18.0515 14.3521C18.0515 16.5365 16.1942 18.3131 13.9023 18.3131ZM9.27433 14.3599V18.2959H7.86187V17.3307C7.13121 17.9426 6.17501 18.3126 5.12529 18.3126C2.83336 18.3126 0.976256 16.5444 0.976256 14.3599C0.976256 12.1753 2.83336 10.3987 5.12529 10.3987C7.37327 10.3987 9.19621 12.1082 9.26551 14.2352H9.27433V14.3599ZM14 0.839844C6.26808 0.839844 0 6.73502 0 14.0068C0 21.2788 6.26808 27.174 14 27.174C21.7321 27.174 28 21.2788 28 14.0068C28 6.73502 21.7321 0.839844 14 0.839844ZM5.12523 11.7474C3.61057 11.7474 2.37983 12.9165 2.37983 14.3603C2.37983 15.804 3.61057 16.9734 5.12523 16.9734C6.64003 16.9734 7.86181 15.804 7.86181 14.3603C7.86181 12.9165 6.64003 11.7474 5.12523 11.7474ZM13.9023 11.7386C12.3877 11.7386 11.1658 12.9077 11.1658 14.3516C11.1658 15.7953 12.3877 16.9645 13.9023 16.9645C15.4171 16.9645 16.6477 15.7953 16.6477 14.3516C16.6477 12.9077 15.4171 11.7386 13.9023 11.7386Z" fill="#262626"/>
<path fill-rule="evenodd" clip-rule="evenodd" d="M13.6438 0.182541C8.92936 0.254464 4.38745 2.96692 2.04455 7.05345C-0.542497 11.4071 -0.428391 17.2137 2.35742 21.4523C4.95672 25.5873 9.84959 28.1069 14.7126 27.8025C19.7259 27.6045 24.4511 24.4037 26.5307 19.8405C28.7052 15.2957 28.0899 9.56623 24.9745 5.59778C22.3372 2.1148 18.0251 0.041541 13.6438 0.182541Z" fill="url(#paint0_radial)"/>
<path fill-rule="evenodd" clip-rule="evenodd" d="M13.6438 0.182541C8.92936 0.254464 4.38745 2.96692 2.04455 7.05345C-0.542497 11.4071 -0.428391 17.2137 2.35742 21.4523C4.95672 25.5873 9.84959 28.1069 14.7126 27.8025C19.7259 27.6045 24.4511 24.4037 26.5307 19.8405C28.7052 15.2957 28.0899 9.56623 24.9745 5.59778C22.3372 2.1148 18.0251 0.041541 13.6438 0.182541Z" fill="url(#paint1_linear)"/>
<path d="M0.464859 10.7548C0.951645 8.96534 1.27311 7.58424 3.72993 4.60577C5.132 3.30253 6.321 2.00929 9.31076 0.882789C10.8808 0.370457 12.426 0.0704876 14.0383 0.0703126C16.072 0.0701446 18.1275 0.476795 20.1971 1.51007C20.062 6.43768 18.6606 8.89499 16.7908 10.4383C13.0448 13.3012 9.78292 14.1542 6.67506 14.3682C3.83035 14.5176 1.88992 12.5812 0.349875 11.2276C0.324909 11.2057 0.489618 10.7764 0.464859 10.7548Z" fill="url(#paint2_linear)"/>
<path d="M5.00634 9.68164C2.67304 9.68164 0.800903 11.5973 0.800903 13.9722C0.800903 16.3472 2.67304 18.2628 5.00634 18.2628C6.43909 18.2628 6.99918 17.232 6.99918 17.232V18.1697H9.21178V13.9722C9.21178 11.5973 7.33965 9.68164 5.00634 9.68164ZM5.00634 11.9249C6.11879 11.9249 7.01053 12.839 7.01053 13.9722C7.01053 15.1055 6.11879 16.0196 5.00634 16.0196C3.89389 16.0196 3.00215 15.1055 3.00215 13.9722C3.00215 12.839 3.89389 11.9249 5.00634 11.9249Z" fill="url(#paint3_linear)"/>
<path d="M4.80606 9.60352C2.3748 9.60352 0.424072 11.5659 0.424072 13.9988C0.424072 16.4317 2.3748 18.394 4.80606 18.394C6.29895 18.394 6.88256 17.3381 6.88256 17.3381V18.2987H9.18804V13.9988C9.18804 11.5659 7.23732 9.60352 4.80606 9.60352ZM4.80606 11.9015C5.96521 11.9015 6.89438 12.8379 6.89438 13.9988C6.89438 15.1597 5.96521 16.0961 4.80606 16.0961C3.6469 16.0961 2.71773 15.1597 2.71773 13.9988C2.71773 12.8379 3.6469 11.9015 4.80606 11.9015Z" fill="white" stroke="black" stroke-width="0.3"/>
<path d="M9.74548 6.57812C9.74548 9.05216 9.74548 11.5262 9.74548 14.0002C9.74548 16.4331 11.6977 18.397 14.129 18.397C16.5602 18.397 18.5074 16.4331 18.5074 14.0002C18.5074 11.5673 16.5602 9.60343 14.129 9.60343C12.6361 9.60343 12.0505 10.6623 12.0505 10.6623C12.0505 9.3009 12.0505 7.93951 12.0505 6.57812H9.74548ZM14.129 11.9027C15.2881 11.9027 16.2176 12.8393 16.2176 14.0002C16.2176 15.1611 15.2881 16.0978 14.129 16.0978C12.9698 16.0978 12.0404 15.1611 12.0404 14.0002C12.0404 12.8393 12.9698 11.9027 14.129 11.9027Z" fill="white" stroke="black" stroke-width="0.3"/>
<path d="M23.2654 9.60352C20.8342 9.60352 18.8834 11.5659 18.8834 13.9988C18.8834 16.4317 20.8342 18.394 23.2654 18.394C25.364 18.394 27.1052 16.9319 27.5422 14.9671H25.1184C24.7707 15.6371 24.0744 16.0961 23.2654 16.0961C22.1063 16.0961 21.1771 15.1597 21.1771 13.9988C21.1771 12.8379 22.1063 11.9015 23.2654 11.9015C24.0768 11.9015 24.7768 12.3621 25.1234 13.0354H27.5422C27.107 11.0683 25.3657 9.60352 23.2654 9.60352Z" fill="white" stroke="black" stroke-width="0.3"/>
<path fill-rule="evenodd" clip-rule="evenodd" d="M14 0C6.26801 0 0 6.267 0 13.9986C0 21.7302 6.26801 28 14 28C21.732 28 28 21.7302 28 13.9986C28 6.267 21.732 0 14 0ZM13.9723 0.269097C21.5401 0.269097 27.676 6.40621 27.676 13.9736C27.676 21.5411 21.5401 27.6754 13.9723 27.6754C6.40452 27.6754 0.271361 21.5411 0.271361 13.9736C0.271361 6.40621 6.40452 0.269097 13.9723 0.269097Z" fill="black"/>
<defs>
<radialGradient id="paint0_radial" cx="0" cy="0" r="1" gradientUnits="userSpaceOnUse" gradientTransform="translate(20.9086 23.0865) rotate(70.0841) scale(30.141 26.5812)">
<stop stop-color="#808080"/>
<stop offset="1"/>
</radialGradient>
<linearGradient id="paint1_linear" x1="14.0827" y1="8.10846" x2="14.0827" y2="26.9419" gradientUnits="userSpaceOnUse">
<stop/>
<stop offset="1" stop-opacity="0"/>
</linearGradient>
<linearGradient id="paint2_linear" x1="6.26217" y1="2.3374" x2="14.7439" y2="11.6979" gradientUnits="userSpaceOnUse">
<stop stop-color="#999999"/>
<stop offset="1" stop-color="#999999" stop-opacity="0"/>
</linearGradient>
<linearGradient id="paint3_linear" x1="14.2613" y1="13.9446" x2="26.3032" y2="13.9446" gradientUnits="userSpaceOnUse">
<stop/>
<stop offset="1" stop-opacity="0"/>
</linearGradient>
</defs>
</svg>
