<svg width="47" height="47" viewBox="0 0 47 47" fill="none" xmlns="http://www.w3.org/2000/svg">
<path fill-rule="evenodd" clip-rule="evenodd" d="M38.204 30.7399C34.3568 30.7399 31.2395 27.772 31.2395 24.1051C31.2395 20.4382 34.3568 17.456 38.204 17.456C41.5487 17.456 44.348 19.7096 45.0201 22.7081H42.5604C41.9484 20.9747 40.2308 19.7191 38.204 19.7191C35.6613 19.7191 33.5956 21.6816 33.5956 24.1051C33.5956 26.5283 35.6613 28.4912 38.204 28.4912C40.2146 28.4912 41.9209 27.2556 42.5456 25.5439H45.0053C44.3158 28.5178 41.5325 30.7399 38.204 30.7399ZM23.336 30.7399C19.5628 30.7399 16.5026 27.8705 16.3866 24.3007H16.3715V24.0911V13.6629H18.7427V19.1044C19.9689 18.0772 21.5739 17.456 23.336 17.456C27.1832 17.456 30.3007 20.4244 30.3007 24.0911C30.3007 27.7578 27.1832 30.7399 23.336 30.7399ZM15.5676 24.1051V30.712H13.1967V29.0918C11.9702 30.119 10.3651 30.7399 8.60312 30.7399C4.75593 30.7399 1.63866 27.772 1.63866 24.1051C1.63866 20.4382 4.75593 17.456 8.60312 17.456C12.3765 17.456 15.4364 20.3254 15.5528 23.8957H15.5676V24.1051ZM23.5 1.41016C10.5214 1.41016 0 11.3056 0 23.5118C0 35.7185 10.5214 45.6139 23.5 45.6139C36.4788 45.6139 47 35.7185 47 23.5118C47 11.3056 36.4788 1.41016 23.5 1.41016ZM8.60302 19.7191C6.06056 19.7191 3.99467 21.6816 3.99467 24.1051C3.99467 26.5283 6.06056 28.4912 8.60302 28.4912C11.1457 28.4912 13.1966 26.5283 13.1966 24.1051C13.1966 21.6816 11.1457 19.7191 8.60302 19.7191ZM23.3361 19.705C20.7936 19.705 18.7425 21.6675 18.7425 24.0912C18.7425 26.5145 20.7936 28.4772 23.3361 28.4772C25.8788 28.4772 27.9444 26.5145 27.9444 24.0912C27.9444 21.6675 25.8788 19.705 23.3361 19.705Z" fill="black" fill-opacity="0.52"/>
</svg>
