<svg width="60" height="60" viewBox="0 0 60 60" fill="none" xmlns="http://www.w3.org/2000/svg">
<path fill-rule="evenodd" clip-rule="evenodd" d="M48.771 39.2423C43.8597 39.2423 39.8802 35.4534 39.8802 30.7723C39.8802 26.0911 43.8597 22.2841 48.771 22.2841C53.0409 22.2841 56.6145 25.161 57.4725 28.989H54.3324C53.5512 26.7761 51.3585 25.1732 48.771 25.1732C45.525 25.1732 42.888 27.6785 42.888 30.7723C42.888 33.8658 45.525 36.3717 48.771 36.3717C51.3378 36.3717 53.5161 34.7942 54.3135 32.609H57.4536C56.5734 36.4056 53.0202 39.2423 48.771 39.2423ZM29.7906 39.2423C24.9738 39.2423 21.0672 35.5792 20.919 31.022H20.8998V30.7544V17.4418H23.9268V24.3884C25.4922 23.0771 27.5412 22.2841 29.7906 22.2841C34.7019 22.2841 38.6817 26.0736 38.6817 30.7544C38.6817 35.4353 34.7019 39.2423 29.7906 39.2423ZM19.8735 30.7723V39.2067H16.8468V37.1383C15.2811 38.4496 13.2321 39.2423 10.9827 39.2423C6.0714 39.2423 2.0919 35.4534 2.0919 30.7723C2.0919 26.0911 6.0714 22.2841 10.9827 22.2841C15.7998 22.2841 19.7061 25.9472 19.8546 30.505H19.8735V30.7723ZM30 1.80005C13.4316 1.80005 0 14.4326 0 30.0149C0 45.5979 13.4316 58.2304 30 58.2304C46.5687 58.2304 60 45.5979 60 30.0149C60 14.4326 46.5687 1.80005 30 1.80005ZM10.9826 25.1732C7.73687 25.1732 5.09957 27.6785 5.09957 30.7723C5.09957 33.8658 7.73687 36.3716 10.9826 36.3716C14.2286 36.3716 16.8467 33.8658 16.8467 30.7723C16.8467 27.6785 14.2286 25.1732 10.9826 25.1732ZM29.7907 25.1552C26.545 25.1552 23.9266 27.6605 23.9266 30.7546C23.9266 33.8481 26.545 36.3537 29.7907 36.3537C33.0367 36.3537 35.6737 33.8481 35.6737 30.7546C35.6737 27.6605 33.0367 25.1552 29.7907 25.1552Z" fill="#808080"/>
</svg>
