<svg width="161" height="160" viewBox="0 0 161 160" fill="none" xmlns="http://www.w3.org/2000/svg">
<path d="M96.8203 53.9201C92.0203 53.9201 88.0203 49.9201 88.0203 45.1201V9.60005C88.0203 4.80005 92.0203 0.800049 96.8203 0.800049H148.02C152.82 0.800049 156.82 4.80005 156.82 9.60005V45.1201C156.82 49.9201 152.82 53.9201 148.02 53.9201H96.8203Z" fill="white"/>
<path d="M148.02 1.6C152.5 1.6 156.02 5.28 156.02 9.6V45.12C156.02 49.6 152.34 53.12 148.02 53.12H96.8202C92.3402 53.12 88.8202 49.44 88.8202 45.12V9.6C88.8202 5.12 92.5002 1.6 96.8202 1.6H148.02ZM148.02 0H96.8202C91.5402 0 87.2202 4.32 87.2202 9.6V45.12C87.2202 50.4 91.5402 54.72 96.8202 54.72H148.02C153.3 54.72 157.62 50.4 157.62 45.12V9.6C157.62 4.32 153.3 0 148.02 0Z" fill="#202020"/>
<path d="M59.5401 58.7201C60.5001 59.6801 62.9001 62.0801 67.3801 66.5601C70.1001 69.2801 73.6201 72.8001 78.4201 77.6001H62.4201C60.8201 77.6001 59.5401 76.3201 59.5401 74.7201V58.7201ZM49.7801 56.6401C42.7401 56.6401 30.4201 56.6401 8.9801 56.6401C5.1401 56.6401 2.1001 59.6801 2.1001 63.5201V153.12C2.1001 156.96 5.1401 160 8.9801 160H73.9401C77.7801 160 80.8201 156.96 80.8201 153.12V106.72V78.4001C80.8201 77.7601 80.5001 77.2801 80.1801 76.9601C58.7401 55.5201 60.1801 56.8001 59.3801 56.6401C59.3801 56.6401 60.1801 56.6401 49.7801 56.6401ZM9.6201 158.24C6.5801 158.24 4.1801 155.84 4.1801 152.8V63.8401C4.1801 60.8001 6.5801 58.4001 9.6201 58.4001H57.9401V74.7201C57.9401 77.1201 60.0201 79.2001 62.4201 79.2001H78.7401V104.96V152.96C78.7401 156 76.3401 158.4 73.3001 158.4H9.6201V158.24Z" fill="#202020"/>
<path d="M78.7402 104.8V152.8C78.7402 155.84 76.3402 158.24 73.3002 158.24H9.62018C6.58018 158.24 4.18018 155.84 4.18018 152.8V63.8401C4.18018 60.8001 6.58018 58.4001 9.62018 58.4001H57.9402V74.7201C57.9402 77.1201 60.0202 79.2001 62.4202 79.2001H78.7402V104.8Z" fill="white"/>
<path d="M19.8601 87.8402H15.8601C12.0201 87.8402 8.82007 84.6402 8.82007 80.8002V76.9602C8.82007 73.1202 12.0201 69.9202 15.8601 69.9202H19.7001C23.5401 69.9202 26.7401 73.1202 26.7401 76.9602V80.8002C26.9001 84.6402 23.7001 87.8402 19.8601 87.8402Z" fill="#202020"/>
<path d="M17.94 83.6802C15.22 83.6802 12.98 81.6002 12.98 78.8802V78.7202C12.98 76.1602 15.06 73.9202 17.78 73.9202H17.94C20.5 73.9202 22.74 76.0002 22.74 78.7202V78.8802C22.74 81.6002 20.66 83.6802 17.94 83.6802Z" fill="#F4EEE8"/>
<path d="M13.3 76.3201C14.42 77.4401 17.78 79.3601 22.74 76.9601C22.74 76.9601 22.58 78.5601 18.58 78.7201C13.94 79.2001 13.3 76.3201 13.3 76.3201Z" fill="#202020"/>
<path d="M13.46 80.9602C14.74 81.7602 17.3 83.3602 22.1 81.2802C20.82 83.5202 15.38 84.6402 13.46 80.9602Z" fill="#202020"/>
<path d="M53.6201 104.96H13.6201C11.8601 104.96 10.5801 103.52 10.5801 101.92C10.5801 100.16 12.0201 98.8801 13.6201 98.8801H53.6201C55.3801 98.8801 56.6601 100.32 56.6601 101.92C56.6601 103.68 55.3801 104.96 53.6201 104.96Z" fill="#ECECEC"/>
<path d="M53.6201 116H13.6201C11.8601 116 10.5801 114.56 10.5801 112.96C10.5801 111.2 12.0201 109.92 13.6201 109.92H53.6201C55.3801 109.92 56.6601 111.36 56.6601 112.96C56.6601 114.72 55.3801 116 53.6201 116Z" fill="#ECECEC"/>
<path d="M68.66 140.8C68.34 140.32 68.02 139.84 67.54 139.36C67.06 139.04 66.58 138.72 65.94 138.56C65.46 138.4 65.14 138.24 64.66 138.08V135.04C64.82 135.04 65.14 135.2 65.14 135.36C65.3 135.68 65.46 136 65.46 136.48V136.96H68.82V136.48C68.82 135.84 68.66 135.2 68.5 134.56C68.18 134.08 67.86 133.6 67.38 133.12C66.9 132.8 66.42 132.48 65.78 132.32C65.46 132.16 64.98 132.16 64.5 132.16V130.56H62.58V132.16C62.1 132.16 61.78 132.32 61.3 132.48C60.66 132.64 60.18 132.96 59.7 133.28C59.22 133.6 58.9 134.08 58.58 134.72C58.26 135.2 58.1 135.84 58.1 136.64C58.1 137.44 58.26 138.08 58.58 138.72C58.9 139.2 59.22 139.68 59.7 140.16C60.18 140.48 60.66 140.8 61.3 140.96C61.62 141.12 62.1 141.28 62.58 141.44V145.12C62.1 144.96 61.94 144.8 61.62 144.64C61.3 144.32 61.14 143.68 61.14 143.04V142.4H57.78V142.88C57.78 143.68 57.94 144.32 58.1 144.96C58.42 145.6 58.74 146.08 59.22 146.56C59.7 147.04 60.18 147.36 60.82 147.52C61.3 147.68 61.78 147.84 62.42 147.84V149.44H64.5V147.84C64.98 147.84 65.46 147.68 65.94 147.52C66.58 147.36 67.06 147.04 67.54 146.56C68.02 146.08 68.34 145.6 68.66 144.96C68.98 144.32 69.14 143.68 69.14 142.88C69.14 142.08 68.98 141.44 68.66 140.8ZM62.58 137.6C62.42 137.6 62.26 137.44 62.1 137.28C61.94 137.12 61.78 136.96 61.78 136.96C61.78 136.8 61.62 136.64 61.62 136.48C61.62 136 61.78 135.68 61.94 135.52C62.1 135.36 62.42 135.36 62.58 135.2V137.6ZM64.5 141.76C64.66 141.76 64.66 141.76 64.5 141.76C64.82 141.92 64.98 141.92 65.3 142.08C65.46 142.24 65.62 142.4 65.62 142.56C65.78 142.72 65.78 142.88 65.78 143.2C65.78 143.84 65.62 144.16 65.3 144.48C65.14 144.64 64.82 144.8 64.5 144.8V141.76Z" fill="#ECECEC"/>
<path d="M55.7001 140.8C55.3801 140.32 55.0601 139.84 54.5801 139.36C54.1001 139.04 53.6201 138.72 52.9801 138.56C52.5001 138.4 52.1801 138.24 51.7001 138.08V135.04C51.8601 135.04 52.1801 135.2 52.1801 135.36C52.3401 135.68 52.5001 136 52.5001 136.48V136.96H55.8601V136.48C55.8601 135.84 55.7001 135.2 55.5401 134.56C55.2201 134.08 54.9001 133.6 54.4201 133.12C53.9401 132.8 53.4601 132.48 52.8201 132.32C52.5001 132.16 52.0201 132.16 51.5401 132.16V130.56H49.6201V132.16C49.1401 132.16 48.8201 132.32 48.3401 132.48C47.7001 132.64 47.2201 132.96 46.7401 133.28C46.2601 133.6 45.9401 134.08 45.6201 134.72C45.3001 135.2 45.1401 135.84 45.1401 136.64C45.1401 137.44 45.3001 138.08 45.6201 138.72C45.9401 139.2 46.2601 139.68 46.7401 140.16C47.2201 140.48 47.7001 140.8 48.3401 140.96C48.6601 141.12 49.1401 141.28 49.6201 141.44V145.12C49.1401 144.96 48.9801 144.8 48.6601 144.64C48.3401 144.32 48.1801 143.68 48.1801 143.04V142.4H44.8201V142.88C44.8201 143.68 44.9801 144.32 45.1401 144.96C45.4601 145.6 45.7801 146.08 46.2601 146.56C46.7401 147.04 47.2201 147.36 47.8601 147.52C48.3401 147.68 48.8201 147.84 49.4601 147.84V149.44H51.3801V147.84C51.8601 147.84 52.3401 147.68 52.8201 147.52C53.4601 147.36 53.9401 147.04 54.4201 146.56C54.9001 146.08 55.2201 145.6 55.5401 144.96C55.8601 144.32 56.0201 143.68 56.0201 142.88C56.1801 142.08 56.0201 141.44 55.7001 140.8ZM49.6201 137.6C49.4601 137.6 49.3001 137.44 49.1401 137.28C48.9801 137.12 48.8201 136.96 48.8201 136.96C48.8201 136.8 48.6601 136.64 48.6601 136.48C48.6601 136 48.8201 135.68 48.9801 135.52C49.1401 135.36 49.4601 135.36 49.6201 135.2V137.6ZM51.5401 141.76C51.5401 141.76 51.7001 141.76 51.5401 141.76C51.8601 141.92 52.0201 141.92 52.3401 142.08C52.5001 142.24 52.6601 142.4 52.6601 142.56C52.8201 142.72 52.8201 142.88 52.8201 143.2C52.8201 143.84 52.6601 144.16 52.3401 144.48C52.1801 144.64 51.8601 144.8 51.5401 144.8V141.76Z" fill="#ECECEC"/>
<path d="M59.7002 58.7202V75.0402C59.7002 76.4802 60.8202 77.6002 62.2602 77.6002H78.4202L59.7002 58.7202Z" fill="white"/>
<path fill-rule="evenodd" clip-rule="evenodd" d="M119.06 14.72C121.46 14.72 123.38 16.64 123.38 19.04V25.44C123.38 25.44 123.38 25.44 123.54 25.44C127.38 23.68 131.86 25.12 133.78 28.8L129.94 30.56C129.14 28.96 127.06 28.32 125.46 29.12C124.34 29.6 123.54 30.72 123.54 32C123.54 32.16 123.54 32.16 123.54 32.32C123.54 32.8 123.7 33.28 123.86 33.76C124.02 34.24 124.34 34.56 124.66 34.88L124.82 35.04C125.78 35.84 127.22 36 128.5 35.36C129.46 34.88 130.1 34.08 130.42 33.12L127.86 32.16L134.1 29.12L137.14 35.36L134.42 34.4C133.78 36.32 132.5 38.08 130.42 39.04C127.7 40.32 124.66 40 122.42 38.24L119.54 35.68L119.06 14.72ZM113.94 25.92L115.06 26.88L118.58 34.56V35.52L108.02 26.56C109.46 24.64 112.18 24.32 113.94 25.92ZM113.46 17.44C115.06 17.44 116.66 18.4 117.46 20L118.58 22.88V32.96L111.54 17.92C112.18 17.6 112.82 17.44 113.46 17.44Z" fill="#3DDB93"/>
<path d="M80.02 122.72V104.8H87.22C89.46 104.8 91.22 106.56 91.22 108.8V118.88C91.22 121.12 89.46 122.88 87.22 122.88H80.02V122.72Z" fill="#1BD27F"/>
<path d="M87.3801 105.6C89.1401 105.6 90.5801 107.04 90.5801 108.8V118.88C90.5801 120.64 89.1401 122.08 87.3801 122.08H80.9801V105.6H87.3801ZM87.3801 104H79.3801V123.68H87.3801C90.1001 123.68 92.1801 121.6 92.1801 118.88V108.8C92.1801 106.08 89.9401 104 87.3801 104Z" fill="#202020"/>
<path d="M83.8601 110.56H90.4201" stroke="#202020" stroke-miterlimit="10" stroke-linecap="round"/>
<path d="M83.8601 116.96H90.4201" stroke="#202020" stroke-miterlimit="10" stroke-linecap="round"/>
<path d="M117.3 65.2801C115.06 65.2801 113.3 63.5201 113.3 61.2801V54.0801H131.38V61.2801C131.38 63.5201 129.62 65.2801 127.38 65.2801H117.3Z" fill="#1BD27F"/>
<path d="M130.58 54.7201V61.1201C130.58 62.8801 129.14 64.3201 127.38 64.3201H117.3C115.54 64.3201 114.1 62.8801 114.1 61.1201V54.7201H130.58ZM132.18 53.1201H112.5V61.1201C112.5 63.8401 114.58 65.9201 117.3 65.9201H127.38C130.1 65.9201 132.18 63.8401 132.18 61.1201V53.1201Z" fill="#202020"/>
<path d="M125.46 58.0801V64.8001" stroke="#202020" stroke-miterlimit="10" stroke-linecap="round"/>
<path d="M119.22 58.0801V64.8001" stroke="#202020" stroke-miterlimit="10" stroke-linecap="round"/>
<path d="M91.7002 113.76C115.54 113.76 123.38 119.84 122.9 136.32C122.26 152.16 150.1 152.16 154.9 133.76C161.94 107.52 118.26 97.9201 122.42 66.0801" stroke="#202020" stroke-miterlimit="10" stroke-linejoin="round"/>
<path d="M90.5801 101.76L89.6201 97.9199" stroke="#202020" stroke-width="0.5" stroke-miterlimit="10" stroke-linecap="round" stroke-linejoin="round"/>
<path d="M92.6602 102.56L96.8202 97.4399" stroke="#202020" stroke-width="0.5" stroke-miterlimit="10" stroke-linecap="round" stroke-linejoin="round"/>
<path d="M93.6201 104.96L97.6201 104.48" stroke="#202020" stroke-width="0.5" stroke-miterlimit="10" stroke-linecap="round" stroke-linejoin="round"/>
<path d="M133.78 61.7601L137.78 61.1201" stroke="#202020" stroke-width="0.5" stroke-miterlimit="10" stroke-linecap="round" stroke-linejoin="round"/>
<path d="M133.46 65.1201L139.54 68.3201" stroke="#202020" stroke-width="0.5" stroke-miterlimit="10" stroke-linecap="round" stroke-linejoin="round"/>
</svg>
