<svg width="104" height="104" viewBox="0 0 104 104" fill="none" xmlns="http://www.w3.org/2000/svg">
<path d="M0 20C0 8.95431 8.95431 0 20 0H84C95.0457 0 104 8.95431 104 20V84C104 95.0457 95.0457 104 84 104H20C8.95431 104 0 95.0457 0 84V20Z" fill="#202020"/>
<path fill-rule="evenodd" clip-rule="evenodd" d="M74.0796 50.6079L29.923 50.6118C26.0298 50.3123 26.1563 31.569 48.7498 29.9595C48.9645 29.8618 49.0106 29.8397 49.1358 29.4334C49.3453 28.6821 49.4652 27.9502 49.4862 27.2575C49.51 26.4111 49.3953 25.6558 49.1384 24.9514C48.9092 24.3263 48.5574 23.7312 48.1016 23.2C48.7972 23.2013 49.4862 23.3393 50.1529 23.6088C51.0092 23.9474 51.8775 24.5308 52.66 25.3003C53.386 26.0074 54.0566 26.8721 54.656 27.8708C54.9419 28.35 55.2015 28.8357 55.4452 29.3579C55.5611 29.6118 55.6744 29.8735 55.7798 30.1496C77.8331 32.0299 77.9425 50.3084 74.0796 50.6079Z" fill="white"/>
<path fill-rule="evenodd" clip-rule="evenodd" d="M73.0387 52.5846C73.0387 52.5846 76.53 74.0599 55.1486 78.1161C54.179 78.9339 52.569 80.8077 51.9827 80.7999C51.3951 80.8077 49.7852 78.9339 48.8142 78.1161C27.3129 74.474 30.9228 52.5846 30.9228 52.5846H73.0387Z" fill="white"/>
</svg>
