<svg width="50" height="50" viewBox="0 0 50 50" fill="none" xmlns="http://www.w3.org/2000/svg">
<path fill-rule="evenodd" clip-rule="evenodd" d="M47.9166 25.0002C47.9166 37.6594 37.6595 47.9166 25.0001 47.9166C12.3405 47.9166 2.08325 37.6594 2.08325 25.0002C2.08325 12.3404 12.3405 2.08331 25.0001 2.08331C37.6595 2.08331 47.9166 12.3404 47.9166 25.0002Z" fill="#1BD27F"/>
<path fill-rule="evenodd" clip-rule="evenodd" d="M24.4375 12.5C23.5424 12.5 22.8124 13.2303 22.8124 14.1251V22.8125H14.1253C13.2301 22.8125 12.5 23.5424 12.5 24.4374V25.5624C12.5 26.4575 13.2301 27.1875 14.1253 27.1875H22.8124V35.8749C22.8124 36.7703 23.5425 37.5 24.4375 37.5H25.5623C26.4571 37.5 27.1876 36.7704 27.1876 35.8749V27.1875H35.8747C36.7696 27.1875 37.5 26.4576 37.5 25.5624V24.4374C37.5 23.5423 36.7696 22.8125 35.8747 22.8125H27.1876V14.1251C27.1876 13.2302 26.4573 12.5 25.5623 12.5H24.4375Z" fill="white"/>
</svg>
