<svg width="128" height="128" viewBox="0 0 128 128" fill="none" xmlns="http://www.w3.org/2000/svg">
<rect width="128" height="128" rx="64" fill="#F7F7F7"/>
<g clip-path="url(#clip0)">
<path d="M97.9305 91.6661C101.959 84.5905 100.32 75.6436 94.045 70.4555V60.5206H95.5687C96.4103 60.5206 97.0925 59.8383 97.0925 58.9968V54.4255H98.6163C99.4579 54.4235 100.138 53.7397 100.136 52.8982C100.135 52.4015 99.8922 51.9365 99.4847 51.6523L64.4385 27.2723C63.9163 26.9099 63.2237 26.9099 62.7015 27.2723L27.6553 51.6523C26.9651 52.134 26.7963 53.0839 27.2778 53.774C27.5621 54.1812 28.0271 54.4244 28.5238 54.4255H30.0476V58.9968C30.0476 59.8383 30.7299 60.5206 31.5714 60.5206H33.0952V84.9006H31.5712C30.7297 84.9006 30.0475 85.5829 30.0475 86.4244V91.2699C28.2255 91.9141 27.0054 93.6343 27 95.5668V98.6142C27 99.4558 27.6823 100.138 28.5238 100.138H98.6163C99.4579 100.138 100.14 99.4558 100.14 98.6142V95.5668C100.135 93.9698 99.2979 92.491 97.9305 91.6661ZM94.045 57.4731H81.855V54.4257H94.045V57.4731ZM90.9975 60.5206V68.4593C89.0983 67.4839 87.0289 66.8836 84.9025 66.6918V60.5206H90.9975ZM63.57 30.3807L93.7555 51.3781H33.3845L63.57 30.3807ZM46.8088 84.9006H45.285V60.5206H46.8088C47.6503 60.5206 48.3326 59.8383 48.3326 58.9968V54.4255H54.4275V58.9968C54.4275 59.8383 55.1098 60.5206 55.9513 60.5206H57.4751V84.9006H55.9513C55.1098 84.9006 54.4275 85.5829 54.4275 86.4244V90.9957H48.3325V86.4244C48.3325 85.5827 47.6503 84.9006 46.8088 84.9006ZM57.475 87.9481H67.2727C67.5727 89.001 67.9758 90.0218 68.4765 90.9955H57.4751V87.9481H57.475ZM60.5225 84.9006V60.5206H66.6176V84.9006H60.5225ZM68.1413 57.4731H57.475V54.4257H69.6649V57.4731H68.1413ZM69.665 60.5206H71.1888C72.0304 60.5206 72.7126 59.8383 72.7126 58.9968V54.4255H78.8077V58.9968C78.8077 59.8383 79.4899 60.5206 80.3315 60.5206H81.855V66.6918C76.9502 67.1429 72.4921 69.7286 69.665 73.7619V60.5206ZM33.095 54.4255H45.285V57.473H33.095V54.4255ZM42.2375 60.5206V84.9006H36.1425V60.5206H42.2375ZM33.095 87.9481H45.285V90.9955H33.095V87.9481ZM30.0475 97.0906V95.5668C30.0475 94.7252 30.7297 94.043 31.5712 94.043H70.4573C71.4188 95.2015 72.5308 96.2265 73.7639 97.0904H30.0475V97.0906ZM97.0925 97.0906H92.9784C94.1654 96.2616 95.2409 95.2835 96.1783 94.1803C96.7303 94.4211 97.0885 94.9647 97.0925 95.5669V97.0906ZM83.3788 97.0906C75.805 97.0906 69.665 90.9507 69.665 83.3768C69.665 75.803 75.805 69.6631 83.3788 69.6631C90.9526 69.6631 97.0925 75.803 97.0925 83.3768C97.0925 90.9507 90.9526 97.0906 83.3788 97.0906Z" fill="black"/>
<path d="M86.4262 75.7586H84.9024V72.7112H81.8549V75.7586H80.3311C78.6481 75.7586 77.2837 77.123 77.2837 78.8061V81.8535C77.2837 83.5366 78.6481 84.901 80.3311 84.901H86.4262V87.9484H80.3311V86.4246H77.2837V87.9484C77.2837 89.6315 78.6481 90.9959 80.3311 90.9959H81.8549V94.0434H84.9024V90.9959H86.4262C88.1093 90.9959 89.4736 89.6315 89.4736 87.9484V84.901C89.4736 83.2179 88.1093 81.8535 86.4262 81.8535H80.3311V78.8061H86.4262V80.3299H89.4736V78.8061C89.4736 77.123 88.1093 75.7586 86.4262 75.7586Z" fill="black"/>
</g>
<defs>
<clipPath id="clip0">
<rect width="73.14" height="73.14" fill="white" transform="translate(27 27)"/>
</clipPath>
</defs>
</svg>
