<svg width="80" height="40" viewBox="0 0 80 40" fill="none" xmlns="http://www.w3.org/2000/svg">
<path d="M66.1801 29.1171C66.1789 29.1171 65.9352 29.3344 65.9352 29.3344C65.5869 29.6458 65.2285 29.9792 64.7958 29.8125C64.6763 29.769 64.5922 29.6098 64.572 29.4862C64.5523 28.5949 64.9537 27.7691 65.3429 26.965L65.4427 26.7547C66.5623 24.8853 67.8637 22.6826 69.775 21.1539C70.097 20.9215 70.4466 20.7263 70.8154 20.8786C70.9003 20.9581 70.9991 21.0959 70.9991 21.2334C70.9991 21.2771 70.9604 21.3929 70.938 21.429C70.4042 22.2916 69.8958 23.1973 69.4015 24.0667C68.4353 25.7841 67.4331 27.5591 66.1801 29.1173L66.1801 29.1171ZM55.8242 24.7116C55.751 24.7626 54.4598 24.3276 54.2103 23.1321C53.9986 22.1028 54.7074 21.2986 55.3932 20.8931C55.6875 20.6612 56.1309 20.5816 56.4562 20.6971C56.758 20.9003 56.8398 21.2628 56.8398 21.6535C56.8398 21.8931 56.8081 22.1393 56.78 22.3638C56.78 22.3638 56.7747 22.4075 56.7738 22.4147C56.5586 23.2187 56.2294 24.0087 55.8242 24.7116L55.8242 24.7116ZM50.8919 29.5738C50.7602 29.3781 50.7166 29.1642 50.7122 28.9329C50.6869 27.5121 52.2156 24.9678 53.2946 23.5816H53.2969C53.7491 24.5717 54.7731 25.2082 55.3912 25.4764C54.6235 27.1865 51.9905 30.849 50.8922 29.5738H50.8919ZM69.527 29.826C69.2715 29.9999 68.9125 29.8662 69.0467 29.4678C69.3811 28.4534 70.7104 26.386 70.7104 26.386L74.4129 19.819H71.8767C71.7562 20.017 71.4984 20.4717 71.4984 20.4717C71.3811 20.2763 71.0302 19.8416 70.8857 19.7478C70.2661 19.3562 69.357 19.5413 68.7299 19.8963C66.0033 21.4906 64.0139 24.6408 62.4448 27.097C62.4448 27.097 60.7933 29.8277 59.8764 30.0308C59.1607 30.0888 59.2345 29.1246 59.2655 28.9C59.5423 27.2767 60.1849 25.7334 60.8325 24.3349C62.1494 23.4219 63.6523 22.2264 65.0182 20.9149C67.9823 18.0815 70.4811 14.8714 70.8463 14.1542C70.8463 14.1542 70.4509 14.234 69.9841 14.2483C67.7037 17.4293 63.0372 22.0526 61.6226 22.7405C62.2493 21.2332 66.2986 14.038 69.7445 10.5965L70.2867 10.0746C71.1251 9.25576 71.994 8.41525 72.671 8.27755C72.7424 8.27034 72.8345 8.27755 72.914 8.44448C72.9442 9.08202 72.7069 9.55307 72.4346 10.0892L72.053 10.8719C72.053 10.8719 72.5936 10.7704 72.9485 10.6542C73.3604 9.87922 73.8165 9.00944 73.6484 7.97349C73.5922 7.64013 73.3509 7.38656 73.0356 7.32854C72.0077 7.1329 70.8874 7.89349 69.986 8.50961L69.9496 8.53119C65.316 12.1615 61.4031 17.3933 57.9822 24.5378C57.7342 24.7259 56.7763 24.9508 56.6135 24.842C56.9513 24.1465 57.3766 23.2116 57.5895 22.1972C57.6263 21.9073 57.6606 21.6103 57.6606 21.3205C57.6606 20.6969 57.5109 20.1102 56.9522 19.7045C56.2971 19.3784 55.4875 19.5306 54.9417 19.7769C52.4963 20.7913 50.6688 23.2986 49.35 25.3634C48.6407 26.6753 47.9335 28.0803 47.7377 29.6893C47.5998 30.9499 47.8805 31.7614 48.5973 32.1674C49.3344 32.5439 50.2621 32.1525 50.6266 31.9643C53.1039 30.6601 54.8349 28.0444 56.1992 25.6531C56.2535 25.6459 56.9984 25.6243 57.5619 25.4792C57.5694 25.4792 57.5726 25.4792 57.5851 25.4868C57.5528 25.595 57.2616 26.4648 57.2616 26.4648C56.3969 29.0007 55.997 30.7254 56.8138 31.7472C57.981 33.1892 59.9133 31.6967 61.4854 29.7254C61.148 32.0876 62.3722 32.4573 63.3054 32.2763C64.3774 31.9866 65.5719 30.8414 66.1263 30.2547C65.9483 30.9429 65.9967 32.1749 66.9718 32.2979C67.6403 32.4215 68.1405 32.0579 68.7192 31.7463C70.7953 30.6158 73.2808 26.8489 73.9259 25.7598H73.0799C72.1627 27.146 70.9955 28.9635 69.5273 29.8263L69.527 29.826ZM37.5427 15.7596H39.9188L41.2599 13.5814H38.8833L37.5427 15.7596ZM75.4993 9.97308C73.6875 11.0022 71.8094 11.6686 69.5358 11.4368C68.9057 12.1471 68.2922 12.8789 67.7267 13.6324C70.9177 14.4439 74.3006 12.6397 76.1873 10.9226C78.1831 9.19075 79.2066 7.00989 79.2066 7.00989C79.2066 7.00989 77.7106 8.71978 75.4992 9.97312L75.4993 9.97308ZM55.5192 9.42259C55.1414 13.7556 51.7732 16.2994 50.9398 16.5018C50.4348 16.603 49.573 16.3786 50.3423 14.5601C51.4753 12.1107 53.4095 10.0314 55.4848 8.96604C55.5353 9.14723 55.534 9.26287 55.5192 9.42247L55.5192 9.42259ZM48.9561 20.3421C48.7148 19.8205 48.1419 19.4872 47.5315 19.5233C45.549 19.7046 43.6099 21.3349 42.5917 23.6754C42.0574 24.8783 41.7659 25.8709 41.5747 27.4505C42.1911 26.7406 43.4485 25.5741 44.8754 24.9364C44.8754 24.9364 45.0696 23.422 46.0597 22.0742C46.4343 21.5161 47.1841 20.6177 48.026 20.8567C48.7615 21.1032 48.503 23.1394 47.5254 25.1097C46.802 26.5592 45.6951 28.0087 44.5751 29.0084C43.5849 29.849 42.1199 30.8634 40.8381 30.0809C40.0308 29.6029 39.619 28.6027 39.706 27.3129C40.0918 23.6538 41.7574 20.5379 44.1409 16.9874C46.5987 13.6905 49.308 10.3067 52.9578 8.50192C53.7023 8.12519 54.3917 8.03824 54.9876 8.27014C54.9876 8.27014 51.5615 10.1541 49.9282 13.6396C49.5128 14.5238 48.935 15.719 49.5168 16.777C49.8209 17.3276 50.3608 17.3712 50.7954 17.3422C52.7973 16.8783 54.0907 15.0089 55.1475 13.299C55.7602 12.002 56.3047 10.7122 56.3047 9.27727C56.3047 9.1034 56.2957 8.87164 56.2809 8.69755C57.2374 8.19054 59.1986 9.08883 59.1986 9.08883C60.7311 9.59623 63.9946 12.0963 65.0951 12.5743C65.6321 11.9512 66.5145 11.0093 67.0113 10.5382L66.2921 10.0962C65.1406 9.3933 63.9234 8.72662 62.7254 8.06729C60.0047 6.58207 57.79 7.10366 56.6629 7.50947C56.2199 7.66878 55.815 7.8065 55.815 7.8065C54.9786 6.89356 53.6068 6.98029 52.5961 7.22682C48.961 8.27018 45.5862 10.8134 41.968 15.2264C39.3078 18.6828 37.6575 21.6683 36.7783 24.6172C36.1004 26.6025 35.8944 29.5225 37.549 31.2544C38.9558 32.7249 40.8213 32.4064 42.1387 31.8776C44.9929 30.4718 47.5581 27.4427 48.8365 23.9576C49.1449 22.9216 49.4872 21.4579 48.9562 20.3419L48.9561 20.3421ZM17.3187 16.9802C17.3139 16.9947 16.8339 18.096 16.8339 18.096C16.7645 18.1539 16.6548 18.125 16.5291 18.096L16.3136 18.0595C15.6371 17.8495 15.1268 17.4002 14.9695 16.8641C14.7524 15.8206 15.6438 15.0018 16.0366 14.7049C16.4134 14.4438 16.9993 14.3062 17.3395 14.5744C17.5493 14.8208 17.6288 15.1395 17.6288 15.4876C17.6289 15.9585 17.4835 16.4874 17.3187 16.9802H17.3187ZM16.2876 19.0741C16.2876 19.0741 16.2658 19.1395 16.255 19.1609C16.2523 19.1609 15.1639 20.936 15.1639 20.936C14.5071 21.8129 13.687 22.9146 12.6619 23.4433C12.358 23.5448 11.938 23.6101 11.724 23.3422C11.2702 22.7986 11.5041 22.0451 11.6941 21.4365L11.7613 21.219C12.306 19.741 13.1704 18.4365 14.0117 17.2262C14.0221 17.2191 14.0457 17.2118 14.0542 17.2118C14.0562 17.2191 14.0596 17.2191 14.061 17.2336C14.589 18.2479 15.5789 18.7187 16.3192 18.9364C16.3236 18.9364 16.3284 18.9436 16.3284 18.9582C16.3285 18.9798 16.3164 19.009 16.2876 19.0739L16.2876 19.0741ZM29.9018 17.9076C30.3886 17.2338 31.8055 15.4295 32.1509 15.1252C33.3127 14.1031 33.7771 14.5529 33.8172 14.8714C32.733 16.8133 31.4533 19.0378 30.2501 21.0377C30.2525 21.0306 29.8736 21.6101 29.8736 21.6101C29.3422 22.4215 28.8072 23.1171 27.9344 23.6026C27.81 23.639 27.6048 23.6536 27.4683 23.5518C27.3039 23.4431 27.2391 23.2619 27.2576 23.0734C27.3099 22.4504 27.9442 20.5451 29.9017 17.9074L29.9018 17.9076ZM17.8365 13.5021C16.3345 12.5166 13.3157 14.4006 10.8979 17.6319C8.68684 20.5306 7.73207 23.8996 8.77111 25.4576C10.3168 27.2908 13.1861 24.6244 14.4063 23.1971L14.5637 23.0303C15.3935 22.139 16.0346 21.0665 16.6551 20.0375C16.6551 20.0375 17.2254 19.0955 17.2527 19.052C17.6052 18.987 18.0297 18.8855 18.5081 18.7478C18.5013 18.7694 16.6777 21.8345 16.8638 23.3561C16.9217 23.8203 16.8774 25.5158 18.5329 26.0301C20.7392 26.4 22.5012 24.6896 24.0552 23.168C24.0552 23.168 24.3201 22.9146 24.4699 22.77C24.432 22.9218 24.3825 23.1242 24.3825 23.1242C23.7366 25.3706 24.6073 25.8418 25.152 26.0158C26.798 26.4943 28.7644 24.1029 28.7707 24.1029C28.7198 24.8562 28.5707 25.4793 29.3647 25.9793C30.1142 26.2477 30.8728 25.8386 31.4493 25.4546C33.526 23.9909 35.199 21.7002 36.5502 19.72H35.6882C35.6781 19.72 33.5612 22.7881 32.1867 23.4549C32.1847 23.4549 31.9344 23.5833 31.7903 23.4817C31.6118 23.3295 31.6822 23.013 31.7922 22.7889C31.7992 22.7742 37.0995 13.5814 37.0995 13.5814H34.597C34.597 13.5814 34.3236 14.0237 34.3013 14.0527C34.2845 14.0382 34.2444 13.9622 34.2166 13.9258C32.6661 11.781 29.1548 15.08 26.5113 18.9055C25.4935 20.3766 24.1978 22.0329 22.8543 23.2287C22.8543 23.2287 20.8639 25.0532 20.0134 23.7423C19.7025 23.1915 19.7982 22.3863 19.9735 21.8575C20.9637 19.0388 22.6699 16.4809 24.6115 14.9372C25.1596 14.5099 25.7553 14.3863 26.051 14.5675C26.3327 14.7345 26.3781 15.1471 26.1999 15.4298C25.7477 15.4153 25.3855 15.5528 25.0909 15.8571C24.5108 16.4658 24.3092 17.0528 24.4936 17.6036C25.3898 18.8789 27.177 16.3572 27.0905 14.8211C27.0597 14.2703 26.7658 13.7487 26.3273 13.4948C25.6738 13.1038 24.6767 13.205 24.0315 13.5168C23.1677 13.8428 21.8004 14.9803 21.0023 15.8645C19.9975 16.9733 18.2744 18.205 17.7354 18.067C17.912 17.5958 19.3675 14.6178 17.8363 13.5023L17.8365 13.5021ZM30.4154 29.6243C27.4681 27.7257 23.4681 27.3926 17.0175 29.1823C10.1407 30.7983 7.84763 31.8342 4.83656 29.7546C3.67974 28.733 3.26497 27.0882 3.57471 24.719C4.29304 20.8567 6.23418 17.1397 9.68239 13.0169C11.6071 10.8722 13.3923 9.03158 15.7497 8.29258C17.5564 7.8289 17.3875 9.24881 17.1689 9.45186C16.9382 9.45186 16.5507 9.48821 16.2512 9.68364C16.0081 9.87215 15.3409 10.4809 15.3051 11.2997C15.2534 12.5531 16.5506 12.2922 17.1101 11.604C17.7132 10.8285 18.6044 9.34332 17.9034 7.95917C17.6095 7.4665 17.1018 7.12603 16.4714 7.01007C14.3128 6.88671 12.3023 7.91569 10.4469 9.05331C6.39026 11.8719 3.14434 15.7776 1.30791 20.0528C0.248989 22.6323 -0.708628 26.3273 0.726848 29.3348C1.83726 31.4215 4.14259 32.5299 6.89315 32.2981C8.82216 32.0954 11.1545 31.472 12.7236 31.0955C14.2924 30.7185 22.3227 27.9581 24.9615 32.7625C24.9615 32.7625 25.839 31.0592 28.0317 31.0229C29.8345 30.8565 32.4352 31.5448 34.3291 32.9357C33.6981 31.9868 31.9092 30.5883 30.4168 29.6245L30.4154 29.6243Z" fill="#C80117"/>
</svg>
