<svg width="24" height="24" viewBox="0 0 24 24" fill="none" xmlns="http://www.w3.org/2000/svg">
<path fill-rule="evenodd" clip-rule="evenodd" d="M22.8002 12.0002C22.8002 17.9662 17.9645 22.8002 12.0002 22.8002C6.03589 22.8002 1.2002 17.9662 1.2002 12.0002C1.2002 6.03773 6.03589 1.2002 12.0002 1.2002C17.9645 1.2002 22.8002 6.03773 22.8002 12.0002Z" fill="#ED3963"/>
<path fill-rule="evenodd" clip-rule="evenodd" d="M10.4214 12.8994L10.0985 6.9768C10.0821 6.6775 10.3204 6.42578 10.6202 6.42578H13.3804C13.6802 6.42578 13.9185 6.6775 13.9022 6.9768L13.5792 12.8994C13.5641 13.1765 13.3349 13.3935 13.0573 13.3935H10.9433C10.6657 13.3935 10.4366 13.1765 10.4214 12.8994ZM9.99707 16.1806C9.99707 15.0743 10.894 14.1774 12.0004 14.1774C13.1067 14.1774 14.0036 15.0743 14.0036 16.1806C14.0036 17.287 13.1067 18.184 12.0004 18.184C10.894 18.184 9.99707 17.287 9.99707 16.1806Z" fill="white"/>
</svg>
