<svg width="104" height="104" viewBox="0 0 104 104" fill="none" xmlns="http://www.w3.org/2000/svg">
<g clip-path="url(#clip0)">
<path d="M0 52C0 23.2812 23.2812 0 52 0C80.7188 0 104 23.2812 104 52C104 80.7188 80.7188 104 52 104C23.2812 104 0 80.7188 0 52Z" fill="#F7F7F7"/>
<path d="M41.9133 48.6659C41.4918 48.1635 41.5573 47.4147 42.0596 46.9932L47.1054 42.7593C47.6077 42.3378 48.3566 42.4033 48.7781 42.9056L115.488 122.408C115.91 122.91 115.844 123.659 115.342 124.08L110.296 128.314C109.794 128.736 109.045 128.67 108.623 128.168L41.9133 48.6659Z" fill="white"/>
<path fill-rule="evenodd" clip-rule="evenodd" d="M41.1172 49.3332C40.3269 48.3914 40.4498 46.9873 41.3916 46.197L46.4374 41.9631C47.3792 41.1728 48.7833 41.2957 49.5736 42.2375L116.284 121.74C117.074 122.681 116.951 124.086 116.009 124.876L110.964 129.11C110.022 129.9 108.618 129.777 107.827 128.835L41.1172 49.3332ZM42.7271 47.7886C42.6643 47.8413 42.6561 47.9349 42.7088 47.9977L109.419 127.5C109.472 127.563 109.565 127.571 109.628 127.518L114.674 123.284C114.737 123.232 114.745 123.138 114.692 123.075L47.982 43.573C47.9293 43.5102 47.8357 43.502 47.7729 43.5547L42.7271 47.7886Z" fill="#262626"/>
<path d="M41.9133 48.6659C41.4918 48.1635 41.5573 47.4147 42.0596 46.9932L47.1054 42.7593C47.6077 42.3378 48.3566 42.4033 48.7781 42.9056L61.4308 57.9845C61.8522 58.4868 61.7867 59.2357 61.2844 59.6572L56.2387 63.8911C55.7364 64.3126 54.9875 64.247 54.566 63.7447L41.9133 48.6659Z" fill="#808080"/>
<path fill-rule="evenodd" clip-rule="evenodd" d="M41.1172 49.3332C40.3269 48.3914 40.4498 46.9873 41.3916 46.197L46.4374 41.9631C47.3792 41.1728 48.7833 41.2957 49.5736 42.2375L62.2263 57.3164C63.0166 58.2582 62.8937 59.6623 61.9519 60.4526L56.9061 64.6865C55.9643 65.4768 54.5602 65.354 53.7699 64.4121L41.1172 49.3332ZM42.7271 47.7886C42.6643 47.8413 42.6561 47.9349 42.7088 47.9977L55.3615 63.0766C55.4142 63.1394 55.5078 63.1476 55.5706 63.0949L60.6164 58.861C60.6792 58.8083 60.6873 58.7147 60.6347 58.6519L47.982 43.573C47.9293 43.5102 47.8357 43.502 47.7729 43.5547L42.7271 47.7886Z" fill="#262626"/>
<path fill-rule="evenodd" clip-rule="evenodd" d="M30.0497 27.5558C30.866 26.8709 32.0829 26.9773 32.7678 27.7936L39.1927 35.4504C39.8776 36.2667 39.7711 37.4836 38.9549 38.1685C38.1386 38.8534 36.9217 38.7469 36.2368 37.9307L29.8119 30.2738C29.127 29.4576 29.2335 28.2407 30.0497 27.5558Z" fill="#262626"/>
<path fill-rule="evenodd" clip-rule="evenodd" d="M26.4186 65.9083C25.7526 65.0766 25.8869 63.8624 26.7186 63.1964L36.6567 55.2384C37.4884 54.5724 38.7026 54.7067 39.3686 55.5385C40.0346 56.3702 39.9003 57.5844 39.0686 58.2504L29.1305 66.2084C28.2988 66.8744 27.0846 66.7401 26.4186 65.9083Z" fill="#262626"/>
<path fill-rule="evenodd" clip-rule="evenodd" d="M69.7914 30.0941C70.4527 30.9295 70.3116 32.1429 69.4761 32.8042L60.0135 40.2943C59.178 40.9557 57.9646 40.8145 57.3033 39.979C56.642 39.1435 56.7832 37.9302 57.6187 37.2688L67.0812 29.7787C67.9167 29.1174 69.1301 29.2586 69.7914 30.0941Z" fill="#262626"/>
<path fill-rule="evenodd" clip-rule="evenodd" d="M17.8305 46.1725C17.9234 45.111 18.8592 44.3258 19.9206 44.4187L31.4371 45.4263C32.4986 45.5191 33.2838 46.4549 33.1909 47.5164C33.098 48.5778 32.1623 49.3631 31.1008 49.2702L19.5843 48.2626C18.5228 48.1698 17.7376 47.234 17.8305 46.1725Z" fill="#262626"/>
<path fill-rule="evenodd" clip-rule="evenodd" d="M50.5113 18.7499C51.5728 18.8428 52.358 19.7786 52.2651 20.8401L51.2576 32.3565C51.1647 33.418 50.2289 34.2032 49.1675 34.1103C48.106 34.0175 47.3208 33.0817 47.4136 32.0202L48.4212 20.5038C48.5141 19.4423 49.4498 18.6571 50.5113 18.7499Z" fill="#262626"/>
</g>
<defs>
<clipPath id="clip0">
<path d="M0 52C0 23.2812 23.2812 0 52 0C80.7188 0 104 23.2812 104 52C104 80.7188 80.7188 104 52 104C23.2812 104 0 80.7188 0 52Z" fill="white"/>
</clipPath>
</defs>
</svg>
