<svg width="56" height="56" viewBox="0 0 56 56" fill="none" xmlns="http://www.w3.org/2000/svg">
<rect x="0.5" y="0.5" width="55" height="55" rx="27.5" fill="white"/>
<path fill-rule="evenodd" clip-rule="evenodd" d="M34.0209 42.0799C34.1274 42.1948 34.0619 42.3096 33.9303 42.3096H32.8882C32.7487 42.3096 32.6749 42.2766 32.5847 42.1699L31.9611 41.4812C31.5427 42.039 30.9596 42.4572 29.9916 42.4572C28.7937 42.4572 27.8497 41.7354 27.8497 40.4971C27.8497 39.5453 28.3588 39.0366 29.1302 38.6102C28.7524 38.1755 28.5804 37.7162 28.5804 37.3145C28.5804 36.2971 29.2943 35.6 30.369 35.6C31.4685 35.6 32.1415 36.2482 32.1415 37.2077C32.1415 38.0279 31.5509 38.4869 30.927 38.8316L31.8462 39.8244L32.363 38.9218C32.4286 38.8154 32.5025 38.7742 32.6336 38.7742H33.4294C33.5609 38.7742 33.6347 38.8647 33.5529 39.004L32.6337 40.5786L34.0209 42.0799ZM35.3174 42.3096C35.2106 42.3096 35.137 42.2355 35.137 42.129V36.8384H33.3397C33.2329 36.8384 33.1592 36.7647 33.1592 36.6581V35.9283C33.1592 35.8214 33.2329 35.7475 33.3397 35.7475H38.1237C38.2304 35.7475 38.3039 35.8215 38.3039 35.9283V36.658C38.3039 36.7646 38.2304 36.8384 38.1237 36.8384H36.3266V42.1289C36.3266 42.2355 36.2526 42.3096 36.1462 42.3096H35.3174ZM21.5502 39.6682L20.6067 36.9617L19.6549 39.6682H21.5502ZM23.5032 42.3096C23.618 42.3096 23.6838 42.2027 23.6426 42.0958L21.4189 35.9119C21.3779 35.7967 21.2958 35.7478 21.1726 35.7478H20.0731C19.9502 35.7478 19.8764 35.7967 19.8352 35.9119L17.6116 42.0958C17.5705 42.2026 17.6445 42.3096 17.7513 42.3096H18.5552C18.678 42.3096 18.7522 42.2523 18.7929 42.1369L19.2776 40.743H21.9278L22.4117 42.1369C22.4529 42.2523 22.5268 42.3096 22.6499 42.3096H23.5032ZM30.0165 41.4236C30.5414 41.4236 30.8944 41.1697 31.1816 40.7348L29.8526 39.3074C29.3436 39.5947 29.0152 39.8814 29.0152 40.4557C29.0153 41.0218 29.4746 41.4236 30.0165 41.4236ZM29.7129 37.2487C29.7129 36.8878 29.9591 36.6169 30.3856 36.6169C30.8124 36.6169 31.0257 36.8958 31.0257 37.2323C31.0257 37.5931 30.7794 37.7981 30.1969 38.1346C29.8603 37.7736 29.7129 37.5275 29.7129 37.2487ZM26.0129 42.129C26.0129 42.2355 25.9387 42.3096 25.832 42.3096H25.003C24.8965 42.3096 24.8224 42.2355 24.8224 42.1289V36.8384H23.0257C22.9189 36.8384 22.8452 36.7646 22.8452 36.658V35.9283C22.8452 35.8215 22.9188 35.7475 23.0257 35.7475H27.8096C27.9163 35.7475 27.9901 35.8214 27.9901 35.9283V36.6581C27.9901 36.7647 27.9163 36.8384 27.8096 36.8384H26.0129V42.129Z" fill="#202020"/>
<path fill-rule="evenodd" clip-rule="evenodd" d="M27.8081 13.6C29.3481 13.6 30.7766 14.0195 32.0067 14.7568C32.3379 14.9546 32.5016 15.0856 32.5016 15.2729C32.5016 16.0574 30.2991 16.8725 27.4594 16.8725C24.59 16.8725 22.9727 16.1283 22.9727 15.4363C22.9727 15.2015 23.1811 15.0189 23.5514 14.791C24.7859 14.0341 26.2574 13.6 27.8081 13.6ZM33.2287 15.6682C33.2632 15.7222 33.2804 15.7799 33.2804 15.8576C33.2804 16.7692 30.4903 18.3819 26.0489 18.3819C22.7855 18.3819 22.1745 17.1713 22.1745 16.4014C22.1745 16.1262 22.2801 15.8446 22.5125 15.5586C22.5252 15.5416 22.5145 15.535 22.4998 15.5477C22.0759 15.907 21.6863 16.3112 21.3446 16.7476C21.1813 16.954 21.08 17.1369 21.08 17.2464C21.08 18.8419 25.0806 19.9987 28.8213 19.9987C32.8071 19.9987 34.586 18.6975 34.586 17.5541C34.586 17.1454 34.4269 16.9068 34.0199 16.4443C33.7558 16.1434 33.5059 15.8985 33.2415 15.6573C33.2287 15.6468 33.2198 15.6553 33.2287 15.6682ZM19.8046 19.9856C19.8839 19.5685 20.1507 18.7626 20.3914 18.2848C20.398 18.2717 20.4108 18.2742 20.4067 18.2892C20.3661 18.4526 20.3336 18.6096 20.3336 18.7666C20.3336 20.4007 23.0435 21.6949 26.2916 21.6949C29.2902 21.6949 35.2334 20.3213 35.1625 18.1902C35.1602 18.1751 35.1713 18.1733 35.1776 18.186C35.3687 18.5753 35.5945 19.1299 35.7151 19.6054C35.823 20.0309 35.8185 20.3468 35.7345 20.6459C35.2784 22.2708 32.4629 23.1612 28.8385 23.1612C22.8977 23.1612 20.3508 21.4519 19.8473 20.3836C19.7846 20.2502 19.7698 20.1644 19.8046 19.9856ZM26.1584 25.0942C21.9574 25.0942 19.9766 23.1376 19.6173 21.8024C19.6128 21.7831 19.6001 21.7873 19.6001 21.8047C19.6001 22.2542 19.6451 22.8343 19.7225 23.2193C19.7594 23.4067 19.912 23.7009 20.1356 23.9353C21.1528 24.9956 23.689 26.4814 28.0811 26.4814C34.0653 26.4814 35.4336 24.488 35.713 23.8325C35.9128 23.3637 36.0163 22.5164 36.0163 21.8047C36.0163 21.6325 36.012 21.495 36.0054 21.3599C36.0054 21.338 35.9928 21.3362 35.9884 21.3576C35.6893 22.9616 30.5765 25.0942 26.1584 25.0942ZM33.9322 27.0639C32.6047 28.1538 30.3851 28.7044 28.3653 28.7044C24.528 28.7044 21.4218 27.5156 20.3979 25.3394C20.3914 25.3225 20.4022 25.3162 20.413 25.3309C21.5121 26.924 24.3194 27.7583 26.9284 27.7583C30.6196 27.7583 34.1944 26.6252 35.4289 24.8085C35.442 24.7889 35.4528 24.7974 35.4464 24.8148C35.3043 25.1717 35.1298 25.5348 34.9514 25.8405C34.6415 26.3716 34.2955 26.7669 33.9322 27.0639ZM27.8081 30.0094C25.9131 30.0094 24.1664 29.3622 22.7748 28.285C22.7619 28.2744 22.7683 28.2615 22.7855 28.27C23.6868 28.773 25.2828 29.3365 27.8082 29.3365C30.7142 29.3365 32.5595 28.3926 33.207 27.9602C33.2243 27.95 33.2329 27.9602 33.2154 27.9756C31.7725 29.2395 29.8819 30.0094 27.8081 30.0094Z" fill="#202020"/>
<rect x="0.5" y="0.5" width="55" height="55" rx="27.5" stroke="#E8E8E8"/>
</svg>
