<svg width="100" height="100" viewBox="0 0 100 100" fill="none" xmlns="http://www.w3.org/2000/svg">
<rect width="100" height="100" rx="50" fill="#202020"/>
<path fill-rule="evenodd" clip-rule="evenodd" d="M61.4396 76.7517C61.642 76.9701 61.5175 77.1881 61.2674 77.1881H59.2874C59.0225 77.1881 58.8822 77.1255 58.7108 76.9227L57.5259 75.6141C56.731 76.674 55.6231 77.4686 53.7839 77.4686C51.5078 77.4686 49.7144 76.0972 49.7144 73.7444C49.7144 71.936 50.6815 70.9696 52.1472 70.1594C51.4295 69.3334 51.1027 68.4607 51.1027 67.6974C51.1027 65.7644 52.459 64.4399 54.5009 64.4399C56.5901 64.4399 57.8688 65.6716 57.8688 67.4946C57.8688 69.053 56.7465 69.925 55.5612 70.58L57.3076 72.4664L58.2896 70.7514C58.4143 70.5491 58.5547 70.4709 58.8037 70.4709H60.3157C60.5656 70.4709 60.7059 70.6428 60.5505 70.9076L58.804 73.8994L61.4396 76.7517ZM63.9027 77.1881C63.6998 77.1881 63.56 77.0474 63.56 76.8451V66.793H60.1452C59.9422 66.793 59.8021 66.6529 59.8021 66.4503V65.0637C59.8021 64.8607 59.9422 64.7202 60.1452 64.7202H69.2347C69.4375 64.7202 69.5772 64.8608 69.5772 65.0637V66.4502C69.5772 66.6527 69.4375 66.793 69.2347 66.793H65.8202V76.8449C65.8202 77.0474 65.6797 77.1881 65.4774 77.1881H63.9027ZM37.7451 72.1696L35.9525 67.0271L34.1439 72.1696H37.7451ZM41.4558 77.1881C41.6741 77.1881 41.7991 76.9851 41.7207 76.782L37.4957 65.0325C37.4178 64.8137 37.2618 64.7207 37.0278 64.7207H34.9386C34.7052 64.7207 34.565 64.8136 34.4868 65.0325L30.2619 76.782C30.1838 76.985 30.3244 77.1881 30.5273 77.1881H32.0547C32.2881 77.1881 32.4289 77.0795 32.5063 76.8602L33.4273 74.2117H38.4626L39.382 76.8602C39.4602 77.0794 39.6007 77.1881 39.8347 77.1881H41.4558ZM53.831 75.5047C54.8283 75.5047 55.499 75.0224 56.0448 74.196L53.5196 71.484C52.5526 72.0299 51.9286 72.5746 51.9286 73.6658C51.9288 74.7414 52.8014 75.5047 53.831 75.5047ZM53.2543 67.5725C53.2543 66.8869 53.722 66.3721 54.5324 66.3721C55.3434 66.3721 55.7486 66.902 55.7486 67.5415C55.7486 68.227 55.2806 68.6164 54.1738 69.2558C53.5343 68.5699 53.2543 68.1023 53.2543 67.5725ZM46.2244 76.8451C46.2244 77.0474 46.0834 77.1881 45.8807 77.1881H44.3056C44.1032 77.1881 43.9624 77.0474 43.9624 76.8449V66.793H40.5486C40.3458 66.793 40.2057 66.6527 40.2057 66.4502V65.0637C40.2057 64.8608 40.3457 64.7202 40.5486 64.7202H49.6382C49.8408 64.7202 49.981 64.8607 49.981 65.0637V66.4503C49.981 66.6529 49.8408 66.793 49.6382 66.793H46.2244V76.8451Z" fill="white"/>
<path fill-rule="evenodd" clip-rule="evenodd" d="M49.6354 22.6399C52.5614 22.6399 55.2755 23.4369 57.6127 24.8378C58.2419 25.2136 58.5529 25.4625 58.5529 25.8183C58.5529 27.309 54.3682 28.8576 48.9729 28.8576C43.521 28.8576 40.448 27.4437 40.448 26.1288C40.448 25.6828 40.844 25.3358 41.5476 24.9028C43.8932 23.4647 46.689 22.6399 49.6354 22.6399ZM59.9343 26.5695C59.9999 26.6722 60.0326 26.7818 60.0326 26.9293C60.0326 28.6614 54.7315 31.7255 46.2928 31.7255C40.0924 31.7255 38.9315 29.4254 38.9315 27.9625C38.9315 27.4396 39.132 26.9046 39.5737 26.3612C39.5978 26.3289 39.5773 26.3165 39.5495 26.3405C38.744 27.0232 38.0039 27.7913 37.3546 28.6205C37.0444 29.0126 36.8518 29.36 36.8518 29.5681C36.8518 32.5995 44.453 34.7975 51.5604 34.7975C59.1334 34.7975 62.5132 32.3253 62.5132 30.1527C62.5132 29.3762 62.2109 28.9229 61.4377 28.0442C60.9358 27.4725 60.4611 27.007 59.9586 26.5488C59.9343 26.5288 59.9174 26.5451 59.9343 26.5695ZM34.4285 34.7727C34.5792 33.9801 35.0861 32.4488 35.5435 31.5411C35.5559 31.5163 35.5802 31.521 35.5725 31.5493C35.4954 31.8599 35.4337 32.1582 35.4337 32.4566C35.4337 35.5613 40.5823 38.0202 46.7537 38.0202C52.4512 38.0202 63.7433 35.4105 63.6084 31.3612C63.6041 31.3327 63.6253 31.3291 63.6373 31.3533C64.0003 32.0931 64.4293 33.1467 64.6584 34.0502C64.8634 34.8587 64.8549 35.4588 64.6953 36.0271C63.8286 39.1144 58.4792 40.8062 51.5929 40.8062C40.3053 40.8062 35.4663 37.5585 34.5096 35.5287C34.3905 35.2753 34.3624 35.1122 34.4285 34.7727ZM46.5008 44.4789C38.519 44.4789 34.7554 40.7614 34.0727 38.2245C34.0642 38.1878 34.04 38.1958 34.04 38.2288C34.04 39.0829 34.1255 40.185 34.2726 40.9166C34.3427 41.2727 34.6326 41.8316 35.0575 42.277C36.9902 44.2916 41.8089 47.1145 50.154 47.1145C61.5239 47.1145 64.1236 43.3271 64.6545 42.0816C65.0341 41.1909 65.2308 39.5811 65.2308 38.2289C65.2308 37.9017 65.2226 37.6403 65.2102 37.3837C65.2102 37.3421 65.1861 37.3387 65.1777 37.3793C64.6096 40.4269 54.8953 44.4789 46.5008 44.4789ZM61.2712 48.2213C58.7489 50.2921 54.5317 51.3383 50.6939 51.3383C43.4031 51.3383 37.5014 49.0795 35.556 44.9448C35.5435 44.9126 35.5641 44.9006 35.5846 44.9286C37.6729 47.9555 43.0068 49.5407 47.964 49.5407C54.9772 49.5407 61.7693 47.3878 64.1149 43.936C64.1398 43.8989 64.1602 43.915 64.1482 43.948C63.8782 44.6262 63.5466 45.3161 63.2077 45.8968C62.6188 46.906 61.9614 47.657 61.2712 48.2213ZM49.6353 53.8179C46.0347 53.8179 42.716 52.5881 40.072 50.5414C40.0475 50.5213 40.0596 50.4967 40.0924 50.5129C41.8048 51.4687 44.8371 52.5393 49.6354 52.5393C55.1568 52.5393 58.663 50.7459 59.8932 49.9243C59.9259 49.9049 59.9423 49.9243 59.9091 49.9536C57.1676 52.355 53.5755 53.8179 49.6353 53.8179Z" fill="white"/>
</svg>
