<svg width="40" height="40" viewBox="0 0 40 40" fill="none" xmlns="http://www.w3.org/2000/svg">
<path fill-rule="evenodd" clip-rule="evenodd" d="M25.8202 33.6096C25.9232 33.7207 25.8599 33.8316 25.7326 33.8316H24.7253C24.5905 33.8316 24.5191 33.7998 24.4319 33.6966L23.8291 33.0308C23.4246 33.57 22.861 33.9743 21.9252 33.9743C20.7672 33.9743 19.8548 33.2766 19.8548 32.0796C19.8548 31.1595 20.3468 30.6678 21.0925 30.2556C20.7274 29.8354 20.5611 29.3913 20.5611 29.003C20.5611 28.0196 21.2511 27.3457 22.29 27.3457C23.3529 27.3457 24.0035 27.9723 24.0035 28.8998C24.0035 29.6927 23.4325 30.1363 22.8295 30.4696L23.718 31.4293L24.2176 30.5568C24.281 30.4539 24.3524 30.4141 24.4792 30.4141H25.2484C25.3755 30.4141 25.4469 30.5016 25.3679 30.6363L24.4793 32.1584L25.8202 33.6096ZM27.0734 33.8314C26.9701 33.8314 26.899 33.7598 26.899 33.6569V28.5426H25.1617C25.0584 28.5426 24.9871 28.4714 24.9871 28.3683V27.6628C24.9871 27.5595 25.0584 27.4881 25.1617 27.4881H29.7862C29.8893 27.4881 29.9604 27.5596 29.9604 27.6628V28.3683C29.9604 28.4713 29.8893 28.5426 29.7862 28.5426H28.0489V33.6568C28.0489 33.7598 27.9775 33.8314 27.8745 33.8314H27.0734ZM13.7651 31.2782L12.8531 28.6618L11.933 31.2782H13.7651ZM15.6531 33.8319C15.7641 33.8319 15.8277 33.7286 15.7879 33.6252L13.6383 27.6474C13.5986 27.5361 13.5193 27.4888 13.4002 27.4888H12.3373C12.2186 27.4888 12.1472 27.5361 12.1074 27.6474L9.95791 33.6252C9.9182 33.7285 9.98971 33.8319 10.093 33.8319H10.8701C10.9888 33.8319 11.0605 33.7766 11.0998 33.665L11.5684 32.3175H14.1302L14.598 33.665C14.6378 33.7765 14.7092 33.8319 14.8283 33.8319H15.6531ZM21.9492 32.9751C22.4566 32.9751 22.7978 32.7297 23.0755 32.3092L21.7908 30.9294C21.2988 31.2072 20.9813 31.4843 20.9813 32.0395C20.9814 32.5867 21.4254 32.9751 21.9492 32.9751ZM21.6559 28.9397C21.6559 28.5909 21.8939 28.329 22.3062 28.329C22.7188 28.329 22.9249 28.5986 22.9249 28.9239C22.9249 29.2727 22.6868 29.4708 22.1237 29.7961C21.7984 29.4471 21.6559 29.2092 21.6559 28.9397ZM18.0792 33.6569C18.0792 33.7598 18.0075 33.8314 17.9044 33.8314H17.103C17 33.8314 16.9284 33.7598 16.9284 33.6568V28.5426H15.1916C15.0883 28.5426 15.0171 28.4713 15.0171 28.3683V27.6628C15.0171 27.5596 15.0883 27.4881 15.1916 27.4881H19.816C19.9192 27.4881 19.9905 27.5595 19.9905 27.6628V28.3683C19.9905 28.4714 19.9192 28.5426 19.816 28.5426H18.0792V33.6569Z" fill="black"/>
<path fill-rule="evenodd" clip-rule="evenodd" d="M19.8146 6.08008C21.3032 6.08008 22.6841 6.48558 23.8732 7.19832C24.1933 7.3895 24.3515 7.51615 24.3515 7.69717C24.3515 8.45557 22.2225 9.24345 19.4775 9.24345C16.7037 9.24345 15.1403 8.52414 15.1403 7.85516C15.1403 7.62821 15.3417 7.45166 15.6997 7.23136C16.8931 6.49974 18.3155 6.08008 19.8146 6.08008ZM25.0544 8.07953C25.0878 8.13178 25.1044 8.18754 25.1044 8.2626C25.1044 9.14383 22.4073 10.7028 18.114 10.7028C14.9594 10.7028 14.3688 9.5325 14.3688 8.78826C14.3688 8.52223 14.4708 8.25002 14.6955 7.97356C14.7078 7.95712 14.6974 7.95079 14.6832 7.96303C14.2734 8.31033 13.8968 8.70113 13.5665 9.12299C13.4087 9.3225 13.3107 9.49924 13.3107 9.60513C13.3107 11.1474 17.178 12.2657 20.794 12.2657C24.6469 12.2657 26.3665 11.0079 26.3665 9.90253C26.3665 9.50749 26.2127 9.27688 25.8193 8.82979C25.564 8.53894 25.3224 8.30211 25.0668 8.06899C25.0544 8.05881 25.0458 8.0671 25.0544 8.07953ZM12.0778 12.2527C12.1545 11.8495 12.4124 11.0704 12.6451 10.6086C12.6514 10.5959 12.6638 10.5983 12.6599 10.6127C12.6206 10.7707 12.5892 10.9225 12.5892 11.0743C12.5892 12.6539 15.2087 13.9049 18.3486 13.9049C21.2473 13.9049 26.9924 12.5772 26.9238 10.517C26.9216 10.5025 26.9323 10.5007 26.9384 10.513C27.1232 10.8894 27.3414 11.4254 27.458 11.8851C27.5623 12.2965 27.5579 12.6018 27.4767 12.8909C27.0358 14.4616 24.3141 15.3224 20.8106 15.3224C15.0678 15.3224 12.6058 13.67 12.1191 12.6373C12.0585 12.5084 12.0442 12.4254 12.0778 12.2527ZM18.2198 17.191C14.1589 17.191 12.2441 15.2997 11.8967 14.009C11.8924 13.9903 11.8801 13.9944 11.8801 14.0112C11.8801 14.4457 11.9236 15.0064 11.9984 15.3786C12.0341 15.5598 12.1816 15.8441 12.3978 16.0708C13.3811 17.0957 15.8327 18.5319 20.0785 18.5319C25.8631 18.5319 27.1858 16.605 27.4559 15.9713C27.649 15.5181 27.7491 14.6992 27.7491 14.0112C27.7491 13.8447 27.7449 13.7117 27.7386 13.5812C27.7386 13.56 27.7264 13.5583 27.7221 13.5789C27.433 15.1295 22.4907 17.191 18.2198 17.191ZM25.7346 19.0952C24.4513 20.1488 22.3057 20.681 20.3532 20.681C16.6438 20.681 13.6412 19.5318 12.6514 17.4282C12.6451 17.4118 12.6555 17.4057 12.666 17.42C13.7284 18.9599 16.4422 19.7665 18.9643 19.7665C22.5324 19.7665 25.988 18.6711 27.1814 16.915C27.194 16.8961 27.2044 16.9042 27.1983 16.9211C27.0609 17.2661 26.8923 17.6171 26.7198 17.9125C26.4202 18.426 26.0857 18.8081 25.7346 19.0952ZM19.8146 21.9423C17.9828 21.9423 16.2943 21.3167 14.9491 20.2754C14.9366 20.2651 14.9428 20.2526 14.9595 20.2608C15.8307 20.7472 17.3735 21.2918 19.8147 21.2918C22.6238 21.2918 24.4077 20.3794 25.0336 19.9614C25.0502 19.9515 25.0586 19.9614 25.0417 19.9763C23.6469 21.1981 21.8193 21.9423 19.8146 21.9423Z" fill="#00A8E0"/>
</svg>
