<svg width="24" height="24" viewBox="0 0 24 24" fill="none" xmlns="http://www.w3.org/2000/svg">
<path fill-rule="evenodd" clip-rule="evenodd" d="M19.875 10.8335H6.84097L10.5455 6.99175C10.9854 6.53559 10.9854 5.79828 10.5455 5.34212C10.1057 4.88596 9.39468 4.88596 8.95481 5.34212L3.3299 11.1753C2.89003 11.6315 2.89003 12.3688 3.3299 12.825L8.95481 18.6582C9.17419 18.8857 9.46218 19 9.75018 19C10.0382 19 10.3262 18.8857 10.5455 18.6582C10.9854 18.202 10.9854 17.4647 10.5455 17.0085L6.84097 13.1668H19.875C20.4971 13.1668 21 12.6441 21 12.0001C21 11.3562 20.4971 10.8335 19.875 10.8335Z" fill="#494949"/>
</svg>
