<svg width="160" height="160" viewBox="0 0 160 160" fill="none" xmlns="http://www.w3.org/2000/svg">
<path d="M153.846 76.9231C153.846 119.385 119.385 153.846 76.9231 153.846C34.4615 153.846 0 119.385 0 76.9231C0 34.4615 34.4615 0 76.9231 0C119.385 0 153.846 34.4615 153.846 76.9231Z" fill="#F7F7F7"/>
<path d="M120.923 110H115.846V104.615C115.846 103.077 114.615 101.846 113.231 101.846V78.1537C114.769 78.1537 115.846 76.923 115.846 75.3845V69.9999H120.615C121.385 69.9999 121.846 69.3845 121.846 68.7691V59.3845C121.846 58.923 121.538 58.4614 121.231 58.3076L77.5385 31.6922C77.0769 31.3845 76.6154 31.3845 76.1538 31.6922L32.4615 58.1537C32 58.4614 31.8461 58.7691 31.8461 59.2307V68.6153C31.8461 69.3845 32.4615 69.846 33.0769 69.846H39.0769V75.3845C39.0769 76.923 40.3077 78.1537 41.6923 78.1537V101.846C40.1538 102 39.0769 103.077 39.0769 104.615V110H32.7692C32 110 31.5385 110.615 31.5385 111.231V120.923C31.5385 121.692 32.1538 122.154 32.7692 122.154H120.923C121.692 122.154 122.154 121.538 122.154 120.923V111.231C122.308 110.615 121.692 110 120.923 110ZM113.385 104.615V110H99.2308V104.615C99.2308 104.461 99.3846 104.461 99.3846 104.461H100.615H112H113.231C113.231 104.461 113.385 104.461 113.385 104.615ZM86.6154 110V104.615C86.6154 103.077 85.3846 101.846 83.8461 101.846V78.1537C85.3846 78.1537 86.6154 76.923 86.6154 75.3845V69.9999H96.6154V75.3845C96.6154 76.923 97.8461 78.1537 99.2308 78.1537V101.692C97.6923 101.692 96.6154 102.923 96.6154 104.461V109.846H86.6154V110ZM58.6154 110V104.615C58.6154 103.077 57.3846 101.846 56 101.846V78.1537C57.5385 77.9999 58.6154 76.923 58.6154 75.3845V69.9999H67.2308V75.3845C67.2308 76.923 68.4615 78.1537 70 78.1537V101.692C68.4615 101.692 67.2308 102.923 67.2308 104.461V109.846H58.6154V110ZM44.4615 78.3076H53.3846V101.846H44.4615V78.3076ZM72.4615 78.3076H81.2308V101.846H72.4615V78.3076ZM83.8461 75.6922H82.6154H71.2308H70C69.8461 75.6922 69.8461 75.5383 69.8461 75.5383V70.1537H84V75.3845C84 75.5383 84 75.6922 83.8461 75.6922ZM69.8461 104.615C69.8461 104.461 70 104.461 70 104.461H71.2308H82.6154H83.8461C84 104.461 84 104.615 84 104.615V110H69.8461V104.615ZM110.769 78.3076V101.846H101.846V78.3076H110.769ZM113.385 75.3845C113.385 75.5383 113.231 75.5383 113.231 75.5383H112H100.615H99.3846C99.2308 75.5383 99.2308 75.3845 99.2308 75.3845V69.9999H113.385V75.3845ZM34.4615 59.9999L76.9231 34.3076L119.385 59.9999V67.3845H114.615H97.8461H85.2308H68.4615H57.2308H40.4615H34.4615V59.9999ZM41.6923 69.9999H55.8461V75.3845C55.8461 75.5383 55.6923 75.5383 55.6923 75.5383H54.6154H43.0769H42C41.8461 75.5383 41.8461 75.3845 41.8461 75.3845V69.9999H41.6923ZM41.6923 104.615C41.6923 104.461 41.8461 104.461 41.8461 104.461H43.0769H54.6154H55.6923C55.8461 104.461 55.8461 104.615 55.8461 104.615V110H41.6923V104.615ZM119.692 119.692H34.1538V112.615H40.4615H57.2308H68.4615H85.2308H97.8461H114.615H119.692V119.692Z" fill="black"/>
<path d="M113.385 104.615V110H99.2307V104.615C99.2307 104.461 99.3846 104.461 99.3846 104.461H100.615H112H113.231C113.231 104.461 113.385 104.461 113.385 104.615Z" fill="white"/>
<path d="M53.3846 78.3076H44.4615V101.846H53.3846V78.3076Z" fill="white"/>
<path d="M81.2308 78.3076H72.4615V101.846H81.2308V78.3076Z" fill="white"/>
<path d="M83.8462 75.6923H82.6154H71.2308H70C69.8462 75.6923 69.8462 75.5384 69.8462 75.5384V70.1538H84V75.3846C84 75.5384 84 75.6923 83.8462 75.6923Z" fill="white"/>
<path d="M69.8462 104.615C69.8462 104.461 70 104.461 70 104.461H71.2308H82.6154H83.8462C84 104.461 84 104.615 84 104.615V110H69.8462V104.615Z" fill="white"/>
<path d="M110.769 78.3076H101.846V101.846H110.769V78.3076Z" fill="white"/>
<path d="M113.385 75.3846C113.385 75.5385 113.231 75.5385 113.231 75.5385H112H100.615H99.3846C99.2307 75.5385 99.2307 75.3846 99.2307 75.3846V70H113.385V75.3846Z" fill="white"/>
<path d="M34.4615 59.9999L76.9231 34.3076L119.385 59.9999V67.3845H114.615H97.8462H85.3846H68.4615H57.2308H40.4615H34.4615V59.9999Z" fill="white"/>
<path d="M76.9231 59.6923C80.7692 59.6923 83.8461 56.6154 83.8461 52.7693C83.8461 48.9231 80.7692 45.8462 76.9231 45.8462C73.0769 45.8462 70 48.9231 70 52.7693C70 56.6154 73.0769 59.6923 76.9231 59.6923ZM76.9231 48C79.5385 48 81.5385 50.1539 81.5385 52.6154C81.5385 55.2308 79.3846 57.2308 76.9231 57.2308C74.4615 57.2308 72.3077 55.077 72.3077 52.6154C72.3077 50.1539 74.3077 48 76.9231 48Z" fill="black"/>
<path d="M41.6923 70H55.8461V75.3846C55.8461 75.5385 55.6923 75.5385 55.6923 75.5385H54.6153H43.0769H42C41.8461 75.5385 41.8461 75.3846 41.8461 75.3846V70H41.6923Z" fill="white"/>
<path d="M41.6923 104.615C41.6923 104.461 41.8461 104.461 41.8461 104.461H43.0769H54.6153H55.6923C55.8461 104.461 55.8461 104.615 55.8461 104.615V110H41.6923V104.615Z" fill="white"/>
<path d="M119.692 119.692H34.1538V112.615H40.4615H57.2307H68.4615H85.3846H97.8461H114.615H119.692V119.692Z" fill="white"/>
</svg>
