<svg width="104" height="104" viewBox="0 0 104 104" fill="none" xmlns="http://www.w3.org/2000/svg">
<path d="M100 50C100 77.6 77.6 100 50 100C22.4 100 0 77.6 0 50C0 22.4 22.4 0 50 0C77.6 0 100 22.4 100 50Z" fill="#F7F7F7"/>
<path d="M78.6 71.5H75.3V68C75.3 67 74.5 66.1999 73.6 66.1999V50.7999C74.6 50.7999 75.3 50 75.3 49V45.5H78.4C78.9 45.5 79.2 45.1 79.2 44.7V38.5999C79.2 38.2999 79 38 78.8 37.9L50.4 20.6C50.1 20.4 49.8 20.4 49.5 20.6L21.1 37.7999C20.8 38 20.7 38.2 20.7 38.5V44.5999C20.7 45.0999 21.1 45.4 21.5 45.4H25.4V49C25.4 50 26.2 50.7999 27.1 50.7999V66.1999C26.1 66.2999 25.4 67 25.4 68V71.5H21.3C20.8 71.5 20.5 71.9 20.5 72.3V78.5999C20.5 79.0999 20.9 79.4 21.3 79.4H78.6C79.1 79.4 79.4 79 79.4 78.5999V72.3C79.5 71.9 79.1 71.5 78.6 71.5ZM73.7 68V71.5H64.5V68C64.5 67.9 64.6 67.9 64.6 67.9H65.4H72.8H73.6C73.6 67.9 73.7 67.9 73.7 68ZM56.3 71.5V68C56.3 67 55.5 66.1999 54.5 66.1999V50.7999C55.5 50.7999 56.3 50 56.3 49V45.5H62.8V49C62.8 50 63.6 50.7999 64.5 50.7999V66.0999C63.5 66.0999 62.8 66.9 62.8 67.9V71.4H56.3V71.5ZM38.1 71.5V68C38.1 67 37.3 66.1999 36.4 66.1999V50.7999C37.4 50.6999 38.1 50 38.1 49V45.5H43.7V49C43.7 50 44.5 50.7999 45.5 50.7999V66.0999C44.5 66.0999 43.7 66.9 43.7 67.9V71.4H38.1V71.5ZM28.9 50.9H34.7V66.1999H28.9V50.9ZM47.1 50.9H52.8V66.1999H47.1V50.9ZM54.5 49.2H53.7H46.3H45.5C45.4 49.2 45.4 49.0999 45.4 49.0999V45.5999H54.6V49C54.6 49.1 54.6 49.2 54.5 49.2ZM45.4 68C45.4 67.9 45.5 67.9 45.5 67.9H46.3H53.7H54.5C54.6 67.9 54.6 68 54.6 68V71.5H45.4V68ZM72 50.9V66.1999H66.2V50.9H72ZM73.7 49C73.7 49.1 73.6 49.0999 73.6 49.0999H72.8H65.4H64.6C64.5 49.0999 64.5 49 64.5 49V45.5H73.7V49ZM22.4 39L50 22.3L77.6 39V43.7999H74.5H63.6H55.4H44.5H37.2H26.3H22.4V39ZM27.1 45.5H36.3V49C36.3 49.1 36.2 49.0999 36.2 49.0999H35.5H28H27.3C27.2 49.0999 27.2 49 27.2 49V45.5H27.1ZM27.1 68C27.1 67.9 27.2 67.9 27.2 67.9H28H35.5H36.2C36.3 67.9 36.3 68 36.3 68V71.5H27.1V68ZM77.8 77.8H22.2V73.1999H26.3H37.2H44.5H55.4H63.6H74.5H77.8V77.8Z" fill="black"/>
<path d="M73.7 67.9999V71.4999H64.5V67.9999C64.5 67.8999 64.6 67.8999 64.6 67.8999H65.4H72.8H73.6C73.6 67.8999 73.7 67.8999 73.7 67.9999Z" fill="white"/>
<path d="M34.6999 50.8999H28.8999V66.1999H34.6999V50.8999Z" fill="white"/>
<path d="M52.8001 50.8999H47.1001V66.1999H52.8001V50.8999Z" fill="white"/>
<path d="M54.4999 49.2001H53.6999H46.2999H45.4999C45.3999 49.2001 45.3999 49.1001 45.3999 49.1001V45.6001H54.5999V49.0001C54.5999 49.1001 54.5999 49.2001 54.4999 49.2001Z" fill="white"/>
<path d="M45.3999 67.9999C45.3999 67.8999 45.4999 67.8999 45.4999 67.8999H46.2999H53.6999H54.4999C54.5999 67.8999 54.5999 67.9999 54.5999 67.9999V71.4999H45.3999V67.9999Z" fill="white"/>
<path d="M72.0002 50.8999H66.2002V66.1999H72.0002V50.8999Z" fill="white"/>
<path d="M73.7 49C73.7 49.1 73.6 49.1 73.6 49.1H72.8H65.4H64.6C64.5 49.1 64.5 49 64.5 49V45.5H73.7V49Z" fill="white"/>
<path d="M22.3999 39L49.9999 22.3L77.5999 39V43.8H74.4999H63.5999H55.4999H44.4999H37.1999H26.2999H22.3999V39Z" fill="white"/>
<path d="M50 38.8C52.5 38.8 54.5 36.8 54.5 34.3C54.5 31.8 52.5 29.8 50 29.8C47.5 29.8 45.5 31.8 45.5 34.3C45.5 36.8 47.5 38.8 50 38.8ZM50 31.2001C51.7 31.2001 53 32.6001 53 34.2001C53 35.9001 51.6 37.2001 50 37.2001C48.4 37.2001 47 35.8001 47 34.2001C47 32.6001 48.3 31.2001 50 31.2001Z" fill="black"/>
<path d="M27.1001 45.5H36.3001V49C36.3001 49.1 36.2001 49.1 36.2001 49.1H35.5001H28.0001H27.3001C27.2001 49.1 27.2001 49 27.2001 49V45.5H27.1001Z" fill="white"/>
<path d="M27.1001 67.9999C27.1001 67.8999 27.2001 67.8999 27.2001 67.8999H28.0001H35.5001H36.2001C36.3001 67.8999 36.3001 67.9999 36.3001 67.9999V71.4999H27.1001V67.9999Z" fill="white"/>
<path d="M77.8002 77.8H22.2002V73.2H26.3002H37.2002H44.5002H55.5002H63.6002H74.5002H77.8002V77.8Z" fill="white"/>
</svg>
