<svg width="24" height="22" viewBox="0 0 24 22" fill="none" xmlns="http://www.w3.org/2000/svg">
<path d="M11.9936 9.43287C8.35725 9.43287 4.72089 9.43287 1.11458 9.43287C0.663795 9.43287 0.303164 9.31266 0.0927956 8.89192C-0.117572 8.41108 0.0326904 7.99035 0.513532 7.65977C1.47521 6.99861 2.46695 6.36751 3.45868 5.70635C6.04321 3.9633 8.68783 2.22025 11.2724 0.447152C11.7832 0.116574 12.204 0.116574 12.7149 0.447152C16.2911 2.85136 19.8674 5.22551 23.4436 7.62972C24.0447 8.0204 24.1649 8.5914 23.7742 9.07224C23.5338 9.37277 23.2333 9.43287 22.8726 9.43287C20.1679 9.43287 17.4331 9.43287 14.7284 9.43287C13.8268 9.43287 12.9252 9.43287 11.9936 9.43287ZM21.5804 8.08051C21.6104 8.05045 21.6104 8.0204 21.6405 7.99035C21.5804 7.9603 21.5203 7.9603 21.4902 7.90019C18.3648 5.85662 15.2693 3.78299 12.1739 1.70936C12.0838 1.64926 11.9035 1.64926 11.8133 1.70936C8.71789 3.78299 5.62247 5.85662 2.52705 7.90019C2.46695 7.93024 2.40684 7.9603 2.34674 7.9603C2.37679 8.0204 2.40684 8.05045 2.4369 8.08051C8.80804 8.08051 15.1792 8.08051 21.5804 8.08051Z" fill="#494949"/>
<path d="M10.01 15.1135C10.01 16.2855 10.0401 17.4576 10.01 18.6296C10.01 18.8701 9.85977 19.1405 9.70951 19.2908C9.37893 19.5613 8.86804 19.3509 8.74783 18.9302C8.71777 18.8099 8.71777 18.6597 8.71777 18.5094C8.71777 16.2254 8.71777 13.9414 8.71777 11.6574C8.71777 11.5973 8.71777 11.5673 8.71777 11.5072C8.74783 11.0564 9.0183 10.7559 9.40898 10.7559C9.79967 10.7559 10.0401 11.0564 10.0401 11.5072C10.01 12.7093 10.01 13.9114 10.01 15.1135Z" fill="#494949"/>
<path d="M13.9775 15.0534C13.9775 13.8813 13.9775 12.7393 13.9775 11.5673C13.9775 11.0564 14.218 10.7559 14.6387 10.7559C15.0594 10.7559 15.2999 11.0564 15.2999 11.5372C15.2999 13.8813 15.2999 16.2254 15.2999 18.5695C15.2999 19.0804 15.0594 19.3809 14.6387 19.3809C14.218 19.3809 13.9775 19.0804 13.9775 18.5695C13.9775 17.3975 13.9775 16.2254 13.9775 15.0534Z" fill="#494949"/>
<path d="M4.69048 15.1127C4.69048 16.2848 4.69048 17.4268 4.69048 18.5988C4.69048 18.8693 4.66043 19.1398 4.38995 19.26C4.20964 19.3501 3.93916 19.3802 3.75885 19.3201C3.48837 19.2299 3.36816 18.9895 3.36816 18.719C3.36816 17.8475 3.36816 16.976 3.36816 16.1345C3.36816 14.6619 3.36816 13.1894 3.36816 11.7168C3.36816 11.6266 3.36816 11.5365 3.36816 11.4764C3.39822 11.0556 3.66869 10.7852 4.02932 10.7852C4.38995 10.7852 4.69048 11.0556 4.69048 11.4764C4.69048 12.0774 4.69048 12.6785 4.69048 13.2795C4.69048 13.8806 4.69048 14.4816 4.69048 15.1127Z" fill="#494949"/>
<path d="M19.2969 15.0519C19.2969 13.8798 19.2969 12.6777 19.2969 11.5057C19.2969 11.2051 19.4171 10.9647 19.6876 10.8145C19.958 10.6942 20.1985 10.7243 20.3788 10.9347C20.499 11.0849 20.6192 11.2953 20.6192 11.4756C20.6192 13.8798 20.6192 16.284 20.6192 18.6882C20.6192 19.139 20.3487 19.4095 19.958 19.4095C19.5673 19.4095 19.2969 19.109 19.2969 18.6882C19.2969 17.4561 19.2969 16.254 19.2969 15.0519Z" fill="#494949"/>
<path d="M21.5803 8.07953C15.2092 8.07953 8.80798 8.07953 2.43684 8.07953C2.40678 8.04948 2.37673 8.01943 2.34668 7.95932C2.40678 7.92927 2.49694 7.92927 2.527 7.89922C5.62241 5.85564 8.71783 3.78201 11.8132 1.73844C11.9034 1.67833 12.0837 1.67833 12.1739 1.73844C15.2693 3.78201 18.3647 5.85564 21.4902 7.92927C21.5503 7.95932 21.5803 7.98937 21.6404 8.01943C21.6104 8.01943 21.6104 8.04948 21.5803 8.07953Z" fill="white"/>
<path d="M12.0241 20.4922C14.9993 20.4922 18.0046 20.4922 20.9798 20.4922C21.6109 20.4922 21.9415 20.7026 21.9415 21.1233C21.9415 21.5741 21.6409 21.8145 20.9798 21.8145C14.9693 21.8145 8.9888 21.8145 2.97828 21.8145C2.31713 21.8145 2.0166 21.5741 2.0166 21.1233C2.0166 20.7026 2.34718 20.4922 2.97828 20.4922C6.01359 20.4922 9.01885 20.4922 12.0241 20.4922Z" fill="#494949"/>
</svg>
