<svg width="74" height="74" viewBox="0 0 74 74" fill="none" xmlns="http://www.w3.org/2000/svg">
<path d="M71.9896 63.2171H67.9007V58.8829C67.9007 57.6446 66.9095 56.6539 65.7943 56.6539V37.5835C67.0334 37.5835 67.9007 36.5929 67.9007 35.3545V31.0204H71.7418C72.3614 31.0204 72.7331 30.525 72.7331 30.0297V22.4758C72.7331 22.1043 72.4853 21.7328 72.2374 21.609L37.048 0.185751C36.6763 -0.0619169 36.3046 -0.0619169 35.9329 0.185751L0.743439 21.4852C0.37172 21.7328 0.247814 21.9805 0.247814 22.352V29.9058C0.247814 30.525 0.743439 30.8965 1.23906 30.8965H6.07141V35.3545C6.07141 36.5929 7.06267 37.5835 8.17782 37.5835V56.6539C6.93876 56.7778 6.07141 57.6446 6.07141 58.8829V63.2171H0.99125C0.371718 63.2171 0 63.7125 0 64.2078V72.0093C0 72.6285 0.495625 73 0.99125 73H71.9896C72.6092 73 72.9809 72.5047 72.9809 72.0093V64.2078C73.1048 63.7125 72.6092 63.2171 71.9896 63.2171ZM65.9182 58.8829V63.2171H54.5188V58.8829C54.5188 58.7591 54.6427 58.7591 54.6427 58.7591H55.634H64.8031H65.7943C65.7943 58.7591 65.9182 58.7591 65.9182 58.8829ZM44.3585 63.2171V58.8829C44.3585 57.6446 43.3672 56.6539 42.1282 56.6539V37.5835C43.3672 37.5835 44.3585 36.5929 44.3585 35.3545V31.0204H52.4124V35.3545C52.4124 36.5929 53.4037 37.5835 54.5188 37.5835V56.5301C53.2798 56.5301 52.4124 57.5208 52.4124 58.7591V63.0933H44.3585V63.2171ZM21.8075 63.2171V58.8829C21.8075 57.6446 20.8163 56.6539 19.7011 56.6539V37.5835C20.9402 37.4597 21.8075 36.5929 21.8075 35.3545V31.0204H28.7463V35.3545C28.7463 36.5929 29.7375 37.5835 30.9766 37.5835V56.5301C29.7375 56.5301 28.7463 57.5208 28.7463 58.7591V63.0933H21.8075V63.2171ZM10.4081 37.7074H17.5947V56.6539H10.4081V37.7074ZM32.9591 37.7074H40.0218V56.6539H32.9591V37.7074ZM42.1282 35.6022H41.1369H31.9679H30.9766C30.8527 35.6022 30.8527 35.4784 30.8527 35.4784V31.1442H42.2521V35.3545C42.2521 35.4784 42.2521 35.6022 42.1282 35.6022ZM30.8527 58.8829C30.8527 58.7591 30.9766 58.7591 30.9766 58.7591H31.9679H41.1369H42.1282C42.2521 58.7591 42.2521 58.8829 42.2521 58.8829V63.2171H30.8527V58.8829ZM63.8118 37.7074V56.6539H56.6252V37.7074H63.8118ZM65.9182 35.3545C65.9182 35.4784 65.7943 35.4784 65.7943 35.4784H64.8031H55.634H54.6427C54.5188 35.4784 54.5188 35.3545 54.5188 35.3545V31.0204H65.9182V35.3545ZM2.35422 22.9712L36.5524 2.29092L70.7506 22.9712V28.9152H66.9095H53.4037H43.2433H29.7375H20.6924H7.18657H2.35422V22.9712ZM8.17782 31.0204H19.5772V35.3545C19.5772 35.4784 19.4533 35.4784 19.4533 35.4784H18.586H9.29298H8.42564C8.30173 35.4784 8.30173 35.3545 8.30173 35.3545V31.0204H8.17782ZM8.17782 58.8829C8.17782 58.7591 8.30173 58.7591 8.30173 58.7591H9.29298H18.586H19.4533C19.5772 58.7591 19.5772 58.8829 19.5772 58.8829V63.2171H8.17782V58.8829ZM70.9984 71.0187H2.10641V65.3223H7.18657H20.6924H29.7375H43.2433H53.4037H66.9095H70.9984V71.0187Z" fill="black"/>
<path d="M65.9182 58.8831V63.2173H54.5188V58.8831C54.5188 58.7593 54.6427 58.7593 54.6427 58.7593H55.634H64.803H65.7943C65.7943 58.7593 65.9182 58.7593 65.9182 58.8831Z" fill="white"/>
<path d="M17.5947 37.7075H10.4081V56.6541H17.5947V37.7075Z" fill="white"/>
<path d="M40.0218 37.7075H32.9591V56.6541H40.0218V37.7075Z" fill="white"/>
<path d="M42.1283 35.6023H41.137H31.9679H30.9767C30.8528 35.6023 30.8528 35.4785 30.8528 35.4785V31.1443H42.2522V35.3546C42.2522 35.4785 42.2522 35.6023 42.1283 35.6023Z" fill="white"/>
<path d="M30.8528 58.8831C30.8528 58.7593 30.9767 58.7593 30.9767 58.7593H31.9679H41.137H42.1283C42.2522 58.7593 42.2522 58.8831 42.2522 58.8831V63.2173H30.8528V58.8831Z" fill="white"/>
<path d="M63.8118 37.7075H56.6252V56.6541H63.8118V37.7075Z" fill="white"/>
<path d="M65.9182 35.3547C65.9182 35.4785 65.7943 35.4785 65.7943 35.4785H64.803H55.634H54.6427C54.5188 35.4785 54.5188 35.3547 54.5188 35.3547V31.0205H65.9182V35.3547Z" fill="white"/>
<path d="M2.35425 22.9713L36.5524 2.29102L70.7506 22.9713V28.9153H66.9095H53.4037H43.3673H29.7376H20.6924H7.1866H2.35425V22.9713Z" fill="white"/>
<path d="M36.5524 22.7237C39.65 22.7237 42.1281 20.247 42.1281 17.1511C42.1281 14.0553 39.65 11.5786 36.5524 11.5786C33.4547 11.5786 30.9766 14.0553 30.9766 17.1511C30.9766 20.247 33.4547 22.7237 36.5524 22.7237ZM36.5524 13.3123C38.6588 13.3123 40.2695 15.046 40.2695 17.0273C40.2695 19.1325 38.5349 20.7423 36.5524 20.7423C34.5698 20.7423 32.8352 19.0086 32.8352 17.0273C32.8352 15.046 34.4459 13.3123 36.5524 13.3123Z" fill="black"/>
<path d="M8.17786 31.0205H19.5772V35.3547C19.5772 35.4785 19.4533 35.4785 19.4533 35.4785H18.586H9.29301H8.42567C8.30176 35.4785 8.30176 35.3547 8.30176 35.3547V31.0205H8.17786Z" fill="white"/>
<path d="M8.17786 58.8831C8.17786 58.7593 8.30176 58.7593 8.30176 58.7593H9.29301H18.586H19.4533C19.5772 58.7593 19.5772 58.8831 19.5772 58.8831V63.2173H8.17786V58.8831Z" fill="white"/>
<path d="M70.9984 71.0186H2.10645V65.3223H7.18661H20.6924H29.7376H43.3673H53.4037H66.9095H70.9984V71.0186Z" fill="white"/>
</svg>
