<svg width="74" height="74" viewBox="0 0 74 74" fill="none" xmlns="http://www.w3.org/2000/svg">
<g clip-path="url(#clip0)">
<path d="M36.4601 56.4719C48.0085 46.5733 64.2313 36.9496 73.1401 33.4851C71.7653 32.6052 69.6206 31.3404 67.2009 29.9656C55.7075 33.7601 42.2893 42.1739 30.3009 51.6876C32.3356 53.2274 34.4803 54.8222 36.4601 56.4719Z" fill="#262626"/>
<path d="M31.1808 29.5806C29.476 28.7557 27.6062 27.9858 26.1764 27.3259C21.832 29.4706 16.1678 32.7152 9.0188 37.8295C10.5586 38.6544 12.2084 39.6442 13.9681 40.6341C19.4674 36.5647 25.0216 32.7152 31.1808 29.5806Z" fill="#262626"/>
<path d="M41.4643 24.8512C39.3746 23.6964 32.1156 21.0018 27.1112 19.8469C25.6264 20.3968 23.5367 21.2217 22.1069 21.8267C23.9217 22.3216 30.6857 24.1363 36.46 27.0509C37.9448 26.336 40.0345 25.4562 41.4643 24.8512Z" fill="#262626"/>
<path d="M16.8827 24.1362C10.4486 27.1058 3.6845 31.1753 0 33.5399C1.31982 34.1449 2.63963 34.6398 4.45438 35.5197C12.5933 30.0204 18.9724 26.6659 21.502 25.566C19.6873 24.9061 17.9825 24.4662 16.8827 24.1362Z" fill="#262626"/>
<path d="M46.3037 23.1464C47.7885 22.6515 49.4932 22.2115 50.978 21.7716C46.6886 19.9568 41.2993 18.0321 36.46 16.8223C35.6901 17.0422 33.3804 17.6472 31.7856 18.1421C33.4354 18.637 38.8797 19.9018 46.3037 23.1464ZM19.1924 43.8236C20.9521 44.8684 22.8219 46.2982 24.6366 47.5081C36.68 38.1593 48.5583 30.9553 61.5916 26.8859C59.7768 25.951 58.182 25.1261 56.1473 24.1363C48.3384 26.116 34.9752 31.4503 19.1924 43.8236Z" fill="#262626"/>
</g>
<defs>
<clipPath id="clip0">
<rect width="73.14" height="73.14" fill="white"/>
</clipPath>
</defs>
</svg>
