<svg width="74" height="74" viewBox="0 0 74 74" fill="none" xmlns="http://www.w3.org/2000/svg">
<g clip-path="url(#clip0)">
<path d="M70.9305 64.6661C74.9588 57.5905 73.3198 48.6436 67.045 43.4555V33.5206H68.5687C69.4103 33.5206 70.0925 32.8383 70.0925 31.9968V27.4255H71.6163C72.4579 27.4235 73.1384 26.7397 73.1364 25.8982C73.1353 25.4015 72.8922 24.9365 72.4847 24.6523L37.4385 0.272299C36.9163 -0.0901153 36.2237 -0.0901153 35.7015 0.272299L0.65526 24.6523C-0.0348558 25.134 -0.203706 26.0839 0.277846 26.774C0.562121 27.1812 1.0271 27.4244 1.5238 27.4255H3.0476V31.9968C3.0476 32.8383 3.72985 33.5206 4.57139 33.5206H6.09519V57.9006H4.57125C3.72971 57.9006 3.04745 58.5829 3.04745 59.4244V64.2699C1.22552 64.9141 0.00542836 66.6343 0 68.5668V71.6142C0 72.4558 0.682259 73.138 1.5238 73.138H71.6163C72.4579 73.138 73.1401 72.4558 73.1401 71.6142V68.5668C73.1354 66.9698 72.2979 65.491 70.9305 64.6661ZM67.045 30.4731H54.855V27.4257H67.045V30.4731ZM63.9975 33.5206V41.4593C62.0983 40.4839 60.0289 39.8836 57.9025 39.6918V33.5206H63.9975ZM36.57 3.38075L66.7555 24.3781H6.38446L36.57 3.38075ZM19.8088 57.9006H18.285V33.5206H19.8088C20.6503 33.5206 21.3326 32.8383 21.3326 31.9968V27.4255H27.4275V31.9968C27.4275 32.8383 28.1098 33.5206 28.9513 33.5206H30.4751V57.9006H28.9513C28.1098 57.9006 27.4275 58.5829 27.4275 59.4244V63.9957H21.3325V59.4244C21.3325 58.5827 20.6503 57.9006 19.8088 57.9006ZM30.475 60.9481H40.2727C40.5727 62.001 40.9758 63.0218 41.4765 63.9955H30.4751V60.9481H30.475ZM33.5225 57.9006V33.5206H39.6176V57.9006H33.5225ZM41.1413 30.4731H30.475V27.4257H42.6649V30.4731H41.1413ZM42.665 33.5206H44.1888C45.0304 33.5206 45.7126 32.8383 45.7126 31.9968V27.4255H51.8077V31.9968C51.8077 32.8383 52.4899 33.5206 53.3315 33.5206H54.855V39.6918C49.9502 40.1429 45.4921 42.7286 42.665 46.7619V33.5206ZM6.09505 27.4255H18.285V30.473H6.09505V27.4255ZM15.2375 33.5206V57.9006H9.1425V33.5206H15.2375ZM6.09505 60.9481H18.285V63.9955H6.09505V60.9481ZM3.04745 70.0906V68.5668C3.04745 67.7252 3.72971 67.043 4.57125 67.043H43.4573C44.4188 68.2015 45.5308 69.2265 46.7639 70.0904H3.04745V70.0906ZM70.0925 70.0906H65.9784C67.1654 69.2616 68.2409 68.2835 69.1783 67.1803C69.7303 67.4211 70.0885 67.9647 70.0925 68.5669V70.0906ZM56.3788 70.0906C48.805 70.0906 42.665 63.9507 42.665 56.3768C42.665 48.803 48.805 42.6631 56.3788 42.6631C63.9526 42.6631 70.0925 48.803 70.0925 56.3768C70.0925 63.9507 63.9526 70.0906 56.3788 70.0906Z" fill="black"/>
<path d="M59.4262 48.7586H57.9024V45.7112H54.8549V48.7586H53.3311C51.6481 48.7586 50.2837 50.123 50.2837 51.8061V54.8535C50.2837 56.5366 51.6481 57.901 53.3311 57.901H59.4262V60.9484H53.3311V59.4246H50.2837V60.9484C50.2837 62.6315 51.6481 63.9959 53.3311 63.9959H54.8549V67.0434H57.9024V63.9959H59.4262C61.1093 63.9959 62.4736 62.6315 62.4736 60.9484V57.901C62.4736 56.2179 61.1093 54.8535 59.4262 54.8535H53.3311V51.8061H59.4262V53.3299H62.4736V51.8061C62.4736 50.123 61.1093 48.7586 59.4262 48.7586Z" fill="black"/>
</g>
<defs>
<clipPath id="clip0">
<rect width="73.14" height="73.14" fill="white"/>
</clipPath>
</defs>
</svg>
