<svg width="60" height="60" viewBox="0 0 60 60" fill="none" xmlns="http://www.w3.org/2000/svg">
<rect width="60" height="60" rx="30" fill="#F7F7F7"/>
<path fill-rule="evenodd" clip-rule="evenodd" d="M48.1286 19.3477C48.1065 18.1748 48.0849 17.0665 48.0849 15.9947C48.0849 15.1546 47.4034 14.4737 46.5623 14.4737C40.0493 14.4737 35.0908 12.6045 30.9574 8.59118C30.3661 8.01693 29.4254 8.01725 28.8341 8.59118C24.7013 12.6045 19.7435 14.4737 13.2312 14.4737C12.39 14.4737 11.7082 15.1546 11.7082 15.9947C11.7082 17.0668 11.6873 18.1755 11.6645 19.3487C11.4557 30.2652 11.1699 45.2165 29.3971 51.5255C29.5587 51.5817 29.7273 51.6097 29.8956 51.6097C30.0642 51.6097 30.2328 51.5817 30.3944 51.5255C48.6229 45.2162 48.3374 30.2649 48.1286 19.3477Z" fill="white"/>
<path fill-rule="evenodd" clip-rule="evenodd" d="M48.417 16.6353L48.421 17.0782L48.4807 20.6841L48.492 21.7178C48.5487 28.6884 48.153 32.6069 46.6253 36.8929L46.4849 37.2791C43.9919 44.0128 38.9409 48.9166 30.5028 51.8372C30.3073 51.9052 30.1021 51.9397 29.8956 51.9397C29.6893 51.9397 29.4841 51.9052 29.2892 51.8374C20.8512 48.9167 15.8006 44.0131 13.3078 37.2795C11.6138 32.7035 11.218 28.6574 11.3078 21.0505L11.3224 20.0226L11.3543 18.2868L11.3737 16.9312L11.3782 15.9947C11.3782 14.9722 12.2078 14.1437 13.2311 14.1437C19.6603 14.1437 24.5352 12.3058 28.6043 8.35437C29.3237 7.65606 30.4681 7.65594 31.1872 8.35441C35.2569 12.3058 40.1324 14.1437 46.5623 14.1437C47.5856 14.1437 48.4149 14.9722 48.4149 15.9947C48.4149 16.2149 48.4155 16.4216 48.417 16.6353ZM47.8206 20.684L47.761 17.084L47.7549 15.9947C47.7549 15.3369 47.2212 14.8037 46.5623 14.8037C39.9662 14.8037 34.9248 12.9032 30.7275 8.82791C30.2644 8.37814 29.5273 8.37822 29.064 8.82793C24.8674 12.9032 19.8266 14.8037 13.2312 14.8037C12.5721 14.8037 12.0382 15.337 12.0382 15.9947C12.0382 16.1244 12.038 16.2517 12.0375 16.3795L12.0284 17.392L11.9824 20.0289C11.8505 28.0078 12.1768 32.1461 13.7894 36.6722L13.9268 37.0504C16.3507 43.5978 21.2528 48.3573 29.5056 51.2139C29.6311 51.2575 29.763 51.2797 29.8956 51.2797C30.0285 51.2797 30.1604 51.2575 30.2864 51.2137C38.5394 48.3571 43.4419 43.5975 45.866 37.05C47.4999 32.6368 47.9025 28.6985 47.8289 21.3802L47.8206 20.684Z" fill="#262626"/>
<path fill-rule="evenodd" clip-rule="evenodd" d="M24.431 37.7661C23.7427 37.7661 23.183 37.2064 23.183 36.5181V35.7248C23.183 33.5585 24.9444 31.7971 27.1098 31.7971C27.4648 31.7971 27.7447 31.8867 28.0698 31.9891C28.5208 32.1312 29.0316 32.2933 29.8883 32.2933C30.746 32.2933 31.2586 32.1312 31.7096 31.9881C32.0338 31.8858 32.3145 31.7971 32.6668 31.7971C34.8322 31.7971 36.5946 33.5585 36.5946 35.7248V36.5181C36.5946 37.2064 36.0349 37.7661 35.3466 37.7661H24.431Z" fill="#545454"/>
<path fill-rule="evenodd" clip-rule="evenodd" d="M29.8887 30.82C27.5594 30.82 25.6639 28.9245 25.6639 26.5952C25.6639 24.2659 27.5594 22.3704 29.8887 22.3704C32.218 22.3704 34.1135 24.2659 34.1135 26.5952C34.1135 28.9245 32.218 30.82 29.8887 30.82Z" fill="#545454"/>
</svg>
