<svg width="23" height="40" viewBox="0 0 23 40" fill="none" xmlns="http://www.w3.org/2000/svg">
<g clip-path="url(#clip0)">
<path d="M18.3329 22.8892H4.33531L3.82748 24.562H7.55723L8.26966 26.8701H14.4015L15.1108 24.562H18.8408L18.3329 22.8892ZM6.61991 13.4896C6.101 14.2058 5.89172 15.0801 6.03055 15.9519C6.17064 16.8255 6.64138 17.5922 7.35605 18.1105L10.7059 20.5439C10.7941 20.6075 10.8688 20.6879 10.9257 20.7805C10.9826 20.8732 11.0205 20.9762 11.0372 21.0836C11.0546 21.1912 11.0505 21.3011 11.0252 21.407C11 21.513 10.954 21.6129 10.89 21.701L11.3948 22.0655L13.1644 19.6247C13.5783 19.0534 13.7952 18.3807 13.7952 17.6887C13.7952 17.5139 13.7812 17.3378 13.7531 17.1618C13.6139 16.2893 13.1433 15.523 12.4279 15.004L9.07826 12.5701C8.99004 12.5065 8.9153 12.426 8.85837 12.3334C8.80144 12.2407 8.76344 12.1377 8.74657 12.0303C8.73968 11.9864 8.73615 11.942 8.73602 11.8975C8.73602 11.724 8.78998 11.556 8.89321 11.4143L8.8935 11.4139L8.38976 11.0481C8.38969 11.0484 6.61991 13.4896 6.61991 13.4896ZM8.63873 3.70605C8.03823 4.53398 7.72386 5.50958 7.72386 6.51394C7.72386 6.76752 7.74392 7.02303 7.78443 7.27847C7.9865 8.54414 8.66935 9.6553 9.70723 10.4079C9.70723 10.408 13.9172 13.4571 13.9172 13.4571C14.4729 13.8599 14.839 14.4556 14.9475 15.1345C14.9691 15.2709 14.9799 15.4076 14.9799 15.5431C14.9799 16.0812 14.8111 16.6042 14.4891 17.048L14.4888 17.0483L14.8922 17.3405L18.21 12.7555C18.9624 11.7187 19.2661 10.4501 19.0645 9.18373C18.8626 7.91792 18.1801 6.80646 17.1421 6.05397L12.0578 2.36019C11.9001 2.24631 11.7666 2.10236 11.6649 1.93664C11.5632 1.77092 11.4953 1.58671 11.4651 1.39463C11.403 1.00474 11.4965 0.613745 11.7282 0.293054L11.3251 0.000976562L8.63873 3.70605ZM3.9672 34.9338C4.76949 34.9338 5.25338 34.6506 5.25338 34.0375V34.0135C5.25338 33.459 4.84031 33.1169 3.90812 33.1169H1.80783V34.9338H3.9672ZM3.48338 31.6066C4.28581 31.6066 4.79312 31.3469 4.79312 30.7335V30.7096C4.79312 30.1669 4.36846 29.8602 3.60125 29.8602H1.80791V31.6066H3.48338ZM0.0379775 28.2671H3.87282C4.81675 28.2671 5.56018 28.5269 6.03218 28.9989C6.4098 29.3764 6.5985 29.8366 6.5985 30.4031V30.4265C6.5985 31.3587 6.10301 31.8779 5.51306 32.2081C6.46866 32.5742 7.05869 33.1287 7.05869 34.238V34.2615C7.05869 35.7716 5.83152 36.5271 3.96728 36.5271H0.0379032V28.2672L0.0379775 28.2671ZM11.7785 34.9338C12.5807 34.9338 13.0645 34.6506 13.0645 34.0375V34.0135C13.0645 33.459 12.6516 33.1169 11.7194 33.1169H9.61902V34.9338H11.7785ZM11.2946 31.6066C12.0969 31.6066 12.6042 31.3469 12.6042 30.7335V30.7096C12.6042 30.1669 12.1796 29.8602 11.4126 29.8602H9.61902V31.6066H11.2946ZM7.84901 28.2671H11.684C12.6281 28.2671 13.3714 28.5269 13.8434 28.9989C14.2207 29.3764 14.4097 29.8366 14.4097 30.4031V30.4265C14.4097 31.3587 13.9141 31.8779 13.324 32.2081C14.2798 32.5742 14.8699 33.1287 14.8699 34.238V34.2615C14.8699 35.7716 13.6428 36.5271 11.7785 36.5271H7.84894V28.2672L7.84901 28.2671ZM19.5896 34.9338C20.392 34.9338 20.8758 34.6506 20.8758 34.0375V34.0135C20.8758 33.459 20.4627 33.1169 19.5306 33.1169H17.4302V34.9338H19.5896ZM19.1057 31.6066C19.908 31.6066 20.4156 31.3469 20.4156 30.7335V30.7096C20.4156 30.1669 19.9906 29.8602 19.2238 29.8602H17.4302V31.6066H19.1057ZM15.6604 28.2671H19.4953C20.4393 28.2671 21.1824 28.5269 21.6548 28.9989C22.0324 29.3764 22.2211 29.8366 22.2211 30.4031V30.4265C22.2211 31.3587 21.7255 31.8779 21.1354 32.2081C22.0912 32.5742 22.6813 33.1287 22.6813 34.238V34.2615C22.6813 35.7716 21.4539 36.5271 19.5896 36.5271H15.6604V28.2672V28.2671ZM0 39.6684L0.148045 39.4979C0.368627 39.6919 0.580068 39.7889 0.873111 39.7889C1.15709 39.7889 1.34437 39.6419 1.34437 39.4391V39.4333C1.34437 39.2421 1.23869 39.1333 0.794555 39.0422C0.308131 38.9394 0.0845762 38.7864 0.0845762 38.4484V38.4426C0.0845762 38.1193 0.37762 37.8813 0.779468 37.8813C1.0876 37.8813 1.30818 37.9665 1.52267 38.134L1.38369 38.3133C1.18726 38.1575 0.990909 38.0898 0.773374 38.0898C0.49839 38.0898 0.323218 38.2368 0.323218 38.422V38.4278C0.323218 38.6218 0.432022 38.7307 0.897265 38.8277C1.36853 38.9276 1.58606 39.0952 1.58606 39.4096V39.4156C1.58606 39.7684 1.28395 39.9976 0.864044 39.9976C0.528713 39.9976 0.253803 39.8888 0 39.6684H0ZM2.04261 39.5655V38.6484H1.82508V38.4485H2.04261V37.99H2.27523V38.4485H2.77072V38.6484H2.27523V39.5361C2.27523 39.7213 2.38092 39.7889 2.5381 39.7889C2.61666 39.7889 2.68303 39.7742 2.76463 39.7359V39.9299C2.6831 39.971 2.59548 39.9947 2.4837 39.9947C2.23294 39.9947 2.04261 39.8741 2.04261 39.5655ZM4.15746 39.4097V39.2628C4.00818 39.22 3.85367 39.1982 3.69839 39.1981C3.40527 39.1981 3.24221 39.3215 3.24221 39.5125V39.5184C3.24221 39.7096 3.4234 39.8212 3.63492 39.8212C3.92187 39.8212 4.15754 39.6507 4.15754 39.4097H4.15746ZM3.00654 39.5273V39.5214C3.00654 39.201 3.2784 39.0304 3.67416 39.0304C3.87356 39.0304 4.01558 39.057 4.15456 39.0952V39.0422C4.15456 38.769 3.98229 38.6278 3.68932 38.6278C3.50501 38.6278 3.35993 38.6748 3.21493 38.7395L3.14545 38.5544C3.31772 38.4779 3.48687 38.4278 3.71347 38.4278C3.93398 38.4278 4.10313 38.4839 4.21796 38.5955C4.32371 38.6984 4.37804 38.8454 4.37804 39.0393V39.9681H4.15456V39.739C4.04576 39.877 3.86449 40.0005 3.58958 40.0005C3.29951 40.0005 3.00654 39.8387 3.00654 39.5273ZM4.81341 38.4484H5.04603V38.8453C5.16086 38.5926 5.38746 38.4102 5.68347 38.4221V38.666H5.66534C5.32399 38.666 5.04603 38.9041 5.04603 39.3627V39.9681H4.81341V38.4485V38.4484ZM6.06132 39.5655V38.6484H5.84386V38.4485H6.06132V37.99H6.29394V38.4485H6.78943V38.6484H6.29394V39.5361C6.29394 39.7213 6.3997 39.7889 6.55681 39.7889C6.63536 39.7889 6.70181 39.7742 6.78341 39.7359V39.9299C6.70181 39.971 6.61418 39.9947 6.50248 39.9947C6.25172 39.9947 6.06132 39.8741 6.06132 39.5655ZM7.86826 37.9105H8.12808L8.7323 39.6242L9.31237 37.9048H9.50872L10.0888 39.6242L10.693 37.9105H10.9437L10.1885 39.9829H9.98601L9.40594 38.3133L8.82297 39.9829H8.6235L7.86826 37.9105ZM11.2555 38.4484H11.4881V39.9681H11.2555L11.2555 38.4484ZM11.2405 37.8665H11.5062V38.1164H11.2405V37.8665ZM12.0532 39.5655V38.6484H11.8356V38.4485H12.0532V37.99H12.2858V38.4485H12.7812V38.6484H12.2858V39.5361C12.2858 39.7213 12.3915 39.7889 12.5487 39.7889C12.6272 39.7889 12.6936 39.7742 12.7752 39.7359V39.9299C12.6936 39.971 12.6061 39.9947 12.4943 39.9947C12.2435 39.9947 12.0532 39.8741 12.0532 39.5655ZM13.1349 37.8224H13.3675V38.713C13.4703 38.5485 13.6333 38.4162 13.9022 38.4162C14.2798 38.4162 14.5004 38.663 14.5004 39.0247V39.9681H14.2678V39.0805C14.2678 38.7983 14.1106 38.6219 13.8358 38.6219C13.5669 38.6219 13.3675 38.813 13.3675 39.0981V39.9681H13.1349V37.8224H13.1349ZM16.386 38.1251H15.6761V37.9105H17.3377V38.1251H16.6278V39.9681H16.386V38.1251ZM17.4165 38.4484H17.6491V38.8453C17.764 38.5926 17.9905 38.4102 18.2866 38.4221V38.666H18.2684C17.9271 38.666 17.6491 38.9041 17.6491 39.3627V39.9681H17.4165V38.4485V38.4484ZM18.5587 39.3921V38.4484H18.7914V39.3361C18.7914 39.6183 18.9484 39.7947 19.2233 39.7947C19.4892 39.7947 19.6916 39.6035 19.6916 39.3184V38.4484H19.9213V39.968H19.6916V39.7035C19.5858 39.8681 19.4258 40.0004 19.1568 40.0004C18.7793 40.0004 18.5587 39.7536 18.5587 39.3921V39.3921ZM20.2569 39.7742L20.3747 39.6126C20.5438 39.736 20.7312 39.8064 20.9154 39.8064C21.1028 39.8064 21.2387 39.7124 21.2387 39.5656V39.5597C21.2387 39.4067 21.0544 39.3479 20.8489 39.2921C20.6044 39.2245 20.3325 39.1422 20.3325 38.863V38.857C20.3325 38.5955 20.5559 38.4221 20.8641 38.4221C21.0545 38.4221 21.2659 38.4868 21.4261 38.5896L21.3203 38.7601C21.1753 38.6689 21.0092 38.613 20.8581 38.613C20.6738 38.613 20.5559 38.7072 20.5559 38.8336V38.8394C20.5559 38.9835 20.7493 39.0393 20.9577 39.101C21.1996 39.1716 21.4592 39.2628 21.4592 39.5361V39.542C21.4592 39.83 21.2146 39.9976 20.9033 39.9976C20.6798 39.9976 20.4321 39.9124 20.2569 39.7742ZM21.8855 39.5655V38.6484H21.6679V38.4485H21.8855V37.99H22.1181V38.4485H22.6135V38.6484H22.1182V39.5361C22.1182 39.7213 22.2238 39.7889 22.3809 39.7889C22.4594 39.7889 22.5259 39.7742 22.6075 39.7359V39.9299C22.5259 39.971 22.4384 39.9947 22.3266 39.9947C22.0757 39.9947 21.8855 39.8741 21.8855 39.5655ZM22.7089 39.7266V39.7246V39.7266Z" fill="#808080"/>
</g>
<defs>
<clipPath id="clip0">
<rect width="22.7092" height="40" fill="white"/>
</clipPath>
</defs>
</svg>
