<svg width="24" height="24" viewBox="0 0 24 24" fill="none" xmlns="http://www.w3.org/2000/svg">
<path d="M16.8573 22H6.14266C5.57485 22 5.02928 21.7775 4.62758 21.3817C4.22587 20.9858 4 20.4488 4 19.8889V5.11109C4 4.55122 4.22587 4.01422 4.62758 3.61834C5.02928 3.22245 5.57485 3 6.14266 3H12.1279C12.4122 3.00007 12.6846 3.11133 12.8855 3.30927L18.6866 9.02406C18.8874 9.22194 19 9.4904 19 9.7703V19.8889C19 20.4488 18.7741 20.9858 18.3724 21.3817C17.9707 21.7775 17.4258 22 16.8573 22Z" fill="white"/>
<path fill-rule="evenodd" clip-rule="evenodd" d="M6.18731 4.1C5.9059 4.1 5.63525 4.21074 5.4363 4.40742C5.23701 4.60443 5.12503 4.87163 5.12503 5.14998V19.85C5.12503 20.1284 5.23701 20.3956 5.4363 20.5926C5.63532 20.7893 5.90601 20.9 6.18731 20.9H16.8127C17.0945 20.9 17.3645 20.7894 17.5637 20.5926C17.763 20.3956 17.875 20.1284 17.875 19.85V9.78467L12.1226 4.10012L6.18731 4.1ZM3.93342 2.92275C4.53119 2.33182 5.34257 2 6.18731 2H12.1227C12.6862 2.00014 13.2268 2.2214 13.6252 2.61516C13.6253 2.61521 13.6252 2.61511 13.6252 2.61516L19.378 8.29988C19.7769 8.69416 20 9.22852 20 9.78467V19.85C20 20.6855 19.664 21.4867 19.0666 22.0772C18.469 22.6679 17.6584 23 16.8127 23H6.18731C5.3425 23 4.53117 22.6681 3.93348 22.0773C3.33606 21.4867 3 20.6855 3 19.85V5.14998C3 4.31448 3.336 3.51334 3.93342 2.92275ZM7.25029 12.5C7.25029 11.9201 7.72599 11.45 8.3128 11.45H14.6879C15.2747 11.45 15.7504 11.9201 15.7504 12.5C15.7504 13.0799 15.2747 13.55 14.6879 13.55H8.3128C7.72599 13.55 7.25029 13.0799 7.25029 12.5ZM7.25029 16.7C7.25029 16.1201 7.72599 15.65 8.3128 15.65H14.6879C15.2747 15.65 15.7504 16.1201 15.7504 16.7C15.7504 17.2799 15.2747 17.75 14.6879 17.75H8.3128C7.72599 17.75 7.25029 17.2799 7.25029 16.7Z" fill="#494949"/>
</svg>
