<svg width="24" height="24" viewBox="0 0 24 24" fill="none" xmlns="http://www.w3.org/2000/svg">
<path fill-rule="evenodd" clip-rule="evenodd" d="M12 1.20001C6.03522 1.20001 1.19995 6.03529 1.19995 12C1.19995 17.9646 6.03522 22.8 12 22.8C17.9647 22.8 22.7999 17.9646 22.7999 12C22.7999 6.03529 17.9647 1.20001 12 1.20001Z" fill="#1BD27F"/>
<path fill-rule="evenodd" clip-rule="evenodd" d="M17.8546 8.95708L16.9135 7.95634C16.7186 7.7491 16.4014 7.74767 16.205 7.95327L10.3023 14.1302L7.80554 11.4748C7.61065 11.2675 7.29333 11.2662 7.09689 11.4718L6.14816 12.4646C5.95171 12.6702 5.95046 13.0048 6.14535 13.2122L9.93619 17.2436C10.1311 17.4509 10.4484 17.4523 10.6448 17.2466L17.8518 9.70477C18.0483 9.49918 18.0495 9.16443 17.8546 8.95708Z" fill="white"/>
</svg>
