<svg width="46" height="46" viewBox="0 0 46 46" fill="none" xmlns="http://www.w3.org/2000/svg">
<g clip-path="url(#clip0)">
<path d="M36.5983 44.6562H9.40173C7.88176 44.6562 6.6875 43.4678 6.6875 41.9553V3.76348C6.6875 2.25093 7.88176 1.0625 9.40173 1.0625H36.5983C38.1182 1.0625 39.3125 2.25093 39.3125 3.76348V41.9013C39.3125 43.4678 38.064 44.6562 36.5983 44.6562Z" fill="white"/>
<path fill-rule="evenodd" clip-rule="evenodd" d="M9.47382 1.80163C8.32033 1.80163 7.42296 2.70153 7.42296 3.85827V42.1417C7.42296 43.2985 8.32033 44.1984 9.47382 44.1984H36.5262C37.6257 44.1984 38.577 43.2985 38.577 42.0876V3.85827C38.577 2.70153 37.6797 1.80163 36.5262 1.80163H9.47382ZM6.125 3.85827C6.125 1.98266 7.60349 0.5 9.47382 0.5H36.5262C38.3965 0.5 39.875 1.98266 39.875 3.85827V42.0876C39.875 44.0173 38.3425 45.5 36.5262 45.5H9.47382C7.60349 45.5 6.125 44.0173 6.125 42.1417V3.85827Z" fill="#494949"/>
<path d="M27.9404 16.2199C27.6032 15.7151 27.266 15.2104 26.7602 14.8739C26.2543 14.5374 25.7485 14.2009 25.0741 14.0326C24.5683 13.8644 24.2311 13.6962 23.7253 13.5279V10.4994C23.8939 10.4994 24.2311 10.6677 24.2311 10.8359C24.3997 11.0042 24.5683 11.5089 24.5683 12.0137V12.5184H27.9404V12.0137C27.9404 11.3407 27.7718 10.6677 27.6032 9.9947C27.266 9.48996 26.9288 8.98521 26.5916 8.64872C26.0857 8.31222 25.5799 7.97573 25.0741 7.80748C24.7369 7.63923 24.2311 7.63923 23.7253 7.63923V6.125H21.702V7.63923C21.1962 7.63923 20.859 7.80748 20.3532 7.97572C19.6788 8.14397 19.173 8.48047 18.6671 8.81696C18.1613 9.15346 17.8241 9.65821 17.4869 10.163C17.3183 10.3312 17.1497 11.0042 17.1497 11.8454C17.1497 12.6867 17.3183 13.3597 17.6555 13.8644C17.9927 14.3691 18.3299 14.8739 18.8358 15.2104C19.3416 15.7151 19.8474 15.8834 20.5218 16.2199C20.859 16.3881 21.3648 16.5564 21.702 16.7246V20.4261C21.1962 20.2578 21.0276 20.0896 20.6904 19.9213C20.3532 19.5848 20.1846 18.9118 20.1846 18.2388V17.7341H16.8125V18.2388C16.8125 19.0801 16.9811 19.7531 17.1497 20.4261C17.4869 21.0991 17.8241 21.6038 18.3299 22.1085C18.8358 22.6133 19.3416 22.9498 20.016 23.118C20.5218 23.2863 21.0276 23.4545 21.5334 23.4545V24.9688H23.5567V23.4545C24.0625 23.4545 24.5683 23.2863 25.0741 23.118C25.7485 22.9498 26.2543 22.6133 26.7602 22.1085C27.266 21.772 27.6032 21.0991 27.9404 20.5943C28.2776 19.9213 28.2776 19.2483 28.2776 18.4071C28.4462 17.3976 28.2776 16.7246 27.9404 16.2199ZM21.702 12.8549C21.5334 12.8549 21.3648 12.6867 21.1962 12.5184C21.0276 12.3502 20.859 12.3502 20.859 12.1819C20.859 12.0137 20.6904 11.8454 20.6904 11.6772C20.6904 11.1724 20.859 10.8359 21.0276 10.6677C21.1962 10.4994 21.5334 10.4994 21.702 10.3312V12.8549ZM23.7253 17.0611C24.0625 17.2294 24.2311 17.2294 24.3997 17.3976C24.5683 17.5658 24.7369 17.7341 24.7369 17.9023C24.9055 18.0706 24.9055 18.2388 24.9055 18.5753C24.9055 19.2483 24.7369 19.5848 24.3997 19.9213C24.2311 20.0896 23.8939 20.2578 23.5567 20.2578V17.0611H23.7253Z" fill="#E8E8E8"/>
<g filter="url(#filter0_d)">
<rect x="0.72876" y="24.4424" width="41.5598" height="18.471" rx="6" transform="rotate(-15 0.72876 24.4424)" fill="white"/>
<path d="M11.903 28.4211L11.2672 28.4688L11.1138 27.8964L12.4468 27.5392C12.534 27.5158 12.7015 27.4651 12.9494 27.387C13.2597 27.2805 13.543 27.1929 13.7992 27.1242C14.388 26.9665 14.8704 26.9132 15.2464 26.9644C15.6224 27.0155 15.917 27.1557 16.1303 27.3848C16.3422 27.6085 16.5022 27.9221 16.6103 28.3255C16.7972 29.0233 16.73 29.6227 16.4085 30.1237C16.0869 30.6247 15.5337 30.9804 14.7486 31.1908C14.5033 31.2565 14.313 31.2987 14.1778 31.3174L14.5766 32.8057L15.6801 32.6064L15.8247 33.1461L12.7173 33.9788L12.5727 33.4391L13.1805 33.1886L11.903 28.4211ZM14.0185 30.7554C14.1348 30.7534 14.3183 30.7188 14.5691 30.6516C15.2778 30.4617 15.4868 29.8244 15.1962 28.7395C15.0749 28.287 14.8966 27.9813 14.6612 27.8223C14.4297 27.6565 14.1369 27.621 13.7825 27.7159C13.6299 27.7568 13.5121 27.7972 13.4293 27.8369C13.345 27.8712 13.2872 27.8954 13.2559 27.9096L14.0185 30.7554Z" fill="#1BD27F"/>
<path d="M18.6466 25.8517L20.1185 25.4573L23.4183 30.4453L23.89 30.4066L24.0346 30.9463L21.4587 31.6365L21.3141 31.0968L21.8728 30.8595L21.3318 29.9527L19.3774 30.4764L19.3645 31.5403L20.0221 31.443L20.1667 31.9827L17.9915 32.5656L17.8387 32.028L18.2889 31.811L18.6466 25.8517ZM19.633 27.1124L19.3569 26.5729L19.3817 27.1885L19.3723 29.8029L20.9914 29.369L19.633 27.1124Z" fill="#1BD27F"/>
<path d="M23.7194 25.2549L23.0182 25.3201L22.8648 24.7477L25.6206 24.0093L25.774 24.5817L25.1178 24.8803L26.3952 29.6477L27.1062 29.5536L27.2486 30.0851L24.501 30.8213L24.3564 30.2816L24.9947 30.0142L23.7194 25.2549Z" fill="#1BD27F"/>
<path d="M27.2847 24.2996L26.6571 24.3451L26.5037 23.7727L27.7794 23.4309C27.9593 23.3827 28.199 23.3067 28.4984 23.2031C28.5678 23.1787 28.6727 23.1448 28.8129 23.1013C28.9587 23.0564 29.0888 23.0187 29.2033 22.988C30.1955 22.7221 31.0088 22.77 31.6433 23.1318C32.2778 23.4935 32.7192 24.1377 32.9675 25.0645C33.1384 25.7023 33.1684 26.3049 33.0574 26.8722C32.9465 27.4394 32.7008 27.9289 32.3203 28.3405C31.9383 28.7467 31.4366 29.0331 30.8151 29.1996C30.6461 29.2449 30.3897 29.3019 30.0458 29.3707C29.7238 29.4336 29.5164 29.4775 29.4237 29.5023L28.099 29.8573L27.9544 29.3176L28.5599 29.0589L27.2847 24.2996ZM29.9485 28.7131C30.1554 28.722 30.38 28.6881 30.6224 28.6114C31.1116 28.4745 31.435 28.1658 31.5926 27.6854C31.7541 27.198 31.721 26.5291 31.4931 25.6787C31.2827 24.8936 30.9848 24.3161 30.5994 23.9461C30.2179 23.5692 29.7437 23.4567 29.1767 23.6086C29.0459 23.6437 28.9309 23.6832 28.8317 23.7274C28.7325 23.7715 28.6673 23.8006 28.636 23.8148L29.9485 28.7131Z" fill="#1BD27F"/>
<path fill-rule="evenodd" clip-rule="evenodd" d="M36.8105 16.3679L5.58756 24.734C3.94528 25.1741 2.97068 26.8621 3.41073 28.5044L5.80106 37.4252C6.24111 39.0675 7.92917 40.0421 9.57144 39.6021L40.7943 31.2359C42.4366 30.7959 43.4112 29.1078 42.9712 27.4655L40.5809 18.5447C40.1408 16.9024 38.4527 15.9278 36.8105 16.3679ZM5.18917 23.2472C2.72576 23.9073 1.26385 26.4394 1.92392 28.9028L4.31425 37.8236C4.97432 40.287 7.50641 41.7489 9.96983 41.0889L41.1927 32.7227C43.6562 32.0627 45.1181 29.5306 44.458 27.0671L42.0677 18.1463C41.4076 15.6829 38.8755 14.221 36.4121 14.8811L5.18917 23.2472Z" fill="#1BD27F"/>
</g>
</g>
<defs>
<filter id="filter0_d" x="-1.27124" y="12.6855" width="48.9244" height="32.5981" filterUnits="userSpaceOnUse" color-interpolation-filters="sRGB">
<feFlood flood-opacity="0" result="BackgroundImageFix"/>
<feColorMatrix in="SourceAlpha" type="matrix" values="0 0 0 0 0 0 0 0 0 0 0 0 0 0 0 0 0 0 127 0" result="hardAlpha"/>
<feOffset dy="1"/>
<feGaussianBlur stdDeviation="1"/>
<feColorMatrix type="matrix" values="0 0 0 0 0 0 0 0 0 0 0 0 0 0 0 0 0 0 0.12 0"/>
<feBlend mode="normal" in2="BackgroundImageFix" result="effect1_dropShadow"/>
<feBlend mode="normal" in="SourceGraphic" in2="effect1_dropShadow" result="shape"/>
</filter>
<clipPath id="clip0">
<rect width="45" height="45" fill="white" transform="translate(0.5 0.5)"/>
</clipPath>
</defs>
</svg>
