<svg width="360" height="388" viewBox="0 0 360 388" fill="none" xmlns="http://www.w3.org/2000/svg">
<g id = "sunburst">
<path d="M149.75 0.5L180.641 194.5L209.75 0.5H149.75Z" fill="url(#paint0_linear)"/>
<path d="M149.75 387.5L180.641 193.5L209.75 387.5H149.75Z" fill="url(#paint1_linear)"/>
<path d="M373.5 163.75L179.5 194.641L373.5 223.75L373.5 163.75Z" fill="url(#paint2_linear)"/>
<path d="M-13.5 163.75L180.5 194.641L-13.5 223.75L-13.5 163.75Z" fill="url(#paint3_linear)"/>
<path d="M250.553 11.3008L180.305 194.755L302.514 41.3008L250.553 11.3008Z" fill="url(#paint4_linear)"/>
<path d="M57.0527 346.449L180.805 193.886L109.014 376.449L57.0527 346.449Z" fill="url(#paint5_linear)"/>
<path d="M362.701 264.553L179.246 194.305L332.701 316.514L362.701 264.553Z" fill="url(#paint6_linear)"/>
<path d="M27.5493 71.0527L180.113 194.805L-2.45069 123.014L27.5493 71.0527Z" fill="url(#paint7_linear)"/>
<path d="M332.451 71.0527L179.887 194.805L362.451 123.014L332.451 71.0527Z" fill="url(#paint8_linear)"/>
<path d="M-2.70068 264.553L180.754 194.305L27.2993 316.514L-2.70068 264.553Z" fill="url(#paint9_linear)"/>
<path d="M302.947 346.449L179.195 193.886L250.986 376.449L302.947 346.449Z" fill="url(#paint10_linear)"/>
<path d="M109.447 11.3008L179.695 194.755L57.4857 41.3008L109.447 11.3008Z" fill="url(#paint11_linear)"/>
</g>
<path d="M222.196 264H125.497C120.092 264 115.846 259.774 115.846 254.397V118.603C115.846 113.226 120.092 109 125.497 109H222.196C227.6 109 231.846 113.226 231.846 118.603V254.204C231.846 259.774 227.407 264 222.196 264Z" fill="white"/>
<path fill-rule="evenodd" clip-rule="evenodd" d="M125.753 111.628C121.652 111.628 118.461 114.828 118.461 118.941V255.059C118.461 259.172 121.652 262.372 125.753 262.372H221.939C225.849 262.372 229.231 259.172 229.231 254.867V118.941C229.231 114.828 226.041 111.628 221.939 111.628H125.753ZM113.846 118.941C113.846 112.272 119.103 107 125.753 107H221.939C228.589 107 233.846 112.272 233.846 118.941V254.867C233.846 261.728 228.397 267 221.939 267H125.753C119.103 267 113.846 261.728 113.846 255.059V118.941Z" fill="#494949"/>
<path d="M168.412 162.893C167.213 161.098 166.014 159.304 164.216 158.107C162.417 156.911 160.619 155.714 158.221 155.116C156.422 154.518 155.223 153.92 153.425 153.321V142.554C154.024 142.554 155.223 143.152 155.223 143.75C155.823 144.348 156.422 146.143 156.422 147.938V149.732H168.412V147.938C168.412 145.545 167.813 143.152 167.213 140.759C166.014 138.964 164.815 137.17 163.616 135.973C161.818 134.777 160.019 133.58 158.221 132.982C157.022 132.384 155.223 132.384 153.425 132.384V127H146.231V132.384C144.433 132.384 143.234 132.982 141.435 133.58C139.037 134.179 137.239 135.375 135.44 136.571C133.642 137.768 132.443 139.563 131.244 141.357C130.645 141.955 130.045 144.348 130.045 147.339C130.045 150.33 130.645 152.723 131.844 154.518C133.043 156.312 134.242 158.107 136.04 159.304C137.838 161.098 139.637 161.696 142.035 162.893C143.234 163.491 145.032 164.089 146.231 164.688V177.848C144.433 177.25 143.833 176.652 142.634 176.054C141.435 174.857 140.836 172.464 140.836 170.071V168.277H128.846V170.071C128.846 173.062 129.446 175.455 130.045 177.848C131.244 180.241 132.443 182.036 134.242 183.83C136.04 185.625 137.838 186.821 140.236 187.42C142.035 188.018 143.833 188.616 145.632 188.616V194H152.825V188.616C154.624 188.616 156.422 188.018 158.221 187.42C160.619 186.821 162.417 185.625 164.216 183.83C166.014 182.634 167.213 180.241 168.412 178.446C169.611 176.054 169.611 173.661 169.611 170.67C170.21 167.08 169.611 164.688 168.412 162.893ZM146.231 150.929C145.632 150.929 145.032 150.33 144.433 149.732C143.833 149.134 143.234 149.134 143.234 148.536C143.234 147.937 142.634 147.339 142.634 146.741C142.634 144.946 143.234 143.75 143.833 143.152C144.433 142.554 145.632 142.554 146.231 141.955V150.929ZM153.425 165.884C154.624 166.482 155.223 166.482 155.823 167.08C156.422 167.679 157.022 168.277 157.022 168.875C157.621 169.473 157.621 170.071 157.621 171.268C157.621 173.661 157.022 174.857 155.823 176.054C155.223 176.652 154.024 177.25 152.825 177.25V165.884H153.425Z" fill="#E8E8E8"/>
<path d="M187.144 262.086L187.157 262.099C193.028 267.97 201.827 272.724 213.416 276.227C223.992 273.541 232.797 268.808 239.507 262.099C246.252 255.353 250.411 247.171 251.918 237.66V204.625C246.403 203.398 240.835 201.615 235.361 199.356C229.366 196.904 222.023 193.246 213.455 188.669C206.176 192.838 198.741 196.401 191.481 199.359L187.144 262.086ZM187.144 262.086C181.192 256.219 177.074 248.059 174.837 237.592V204.743M187.144 262.086L174.837 204.743M174.837 204.743C179.43 203.779 185.075 201.971 191.48 199.359L174.837 204.743ZM213.424 188.422C213.445 188.422 213.443 188.422 213.424 188.422C213.404 188.422 213.402 188.422 213.424 188.422Z" fill="white" stroke="#494949" stroke-width="5" stroke-linejoin="round"/>
<path d="M207.265 249.435C206.07 249.435 204.967 248.976 204.232 248.149L192.926 236.751C191.272 235.096 191.272 232.339 192.926 230.684C194.581 229.03 197.338 229.03 198.993 230.684L207.173 239.049L227.487 218.46C229.141 216.805 231.899 216.713 233.553 218.368C235.207 220.022 235.299 222.78 233.645 224.434L210.39 248.149C209.563 248.976 208.46 249.435 207.265 249.435Z" fill="#1BD27F"/>
<defs>
<linearGradient id="paint0_linear" x1="179.75" y1="4.5" x2="179.75" y2="194.5" gradientUnits="userSpaceOnUse">
<stop stop-color="#DDDDDD" stop-opacity="0"/>
<stop offset="1" stop-color="#C6C6C6" stop-opacity="0.64"/>
</linearGradient>
<linearGradient id="paint1_linear" x1="179.75" y1="383.5" x2="179.75" y2="193.5" gradientUnits="userSpaceOnUse">
<stop stop-color="#DDDDDD" stop-opacity="0"/>
<stop offset="1" stop-color="#C6C6C6" stop-opacity="0.64"/>
</linearGradient>
<linearGradient id="paint2_linear" x1="369.5" y1="193.75" x2="179.5" y2="193.75" gradientUnits="userSpaceOnUse">
<stop stop-color="#DDDDDD" stop-opacity="0"/>
<stop offset="1" stop-color="#C6C6C6" stop-opacity="0.64"/>
</linearGradient>
<linearGradient id="paint3_linear" x1="-9.5" y1="193.75" x2="180.5" y2="193.75" gradientUnits="userSpaceOnUse">
<stop stop-color="#DDDDDD" stop-opacity="0"/>
<stop offset="1" stop-color="#C6C6C6" stop-opacity="0.64"/>
</linearGradient>
<linearGradient id="paint4_linear" x1="274.533" y1="29.7649" x2="179.533" y2="194.31" gradientUnits="userSpaceOnUse">
<stop stop-color="#DDDDDD" stop-opacity="0"/>
<stop offset="1" stop-color="#C6C6C6" stop-opacity="0.64"/>
</linearGradient>
<linearGradient id="paint5_linear" x1="85.0335" y1="357.985" x2="180.033" y2="193.44" gradientUnits="userSpaceOnUse">
<stop stop-color="#DDDDDD" stop-opacity="0"/>
<stop offset="1" stop-color="#C6C6C6" stop-opacity="0.64"/>
</linearGradient>
<linearGradient id="paint6_linear" x1="344.237" y1="288.533" x2="179.692" y2="193.533" gradientUnits="userSpaceOnUse">
<stop stop-color="#DDDDDD" stop-opacity="0"/>
<stop offset="1" stop-color="#C6C6C6" stop-opacity="0.64"/>
</linearGradient>
<linearGradient id="paint7_linear" x1="16.0134" y1="99.0335" x2="180.558" y2="194.034" gradientUnits="userSpaceOnUse">
<stop stop-color="#DDDDDD" stop-opacity="0"/>
<stop offset="1" stop-color="#C6C6C6" stop-opacity="0.64"/>
</linearGradient>
<linearGradient id="paint8_linear" x1="343.987" y1="99.0335" x2="179.442" y2="194.033" gradientUnits="userSpaceOnUse">
<stop stop-color="#DDDDDD" stop-opacity="0"/>
<stop offset="1" stop-color="#C6C6C6" stop-opacity="0.64"/>
</linearGradient>
<linearGradient id="paint9_linear" x1="15.7634" y1="288.533" x2="180.308" y2="193.533" gradientUnits="userSpaceOnUse">
<stop stop-color="#DDDDDD" stop-opacity="0"/>
<stop offset="1" stop-color="#C6C6C6" stop-opacity="0.64"/>
</linearGradient>
<linearGradient id="paint10_linear" x1="274.967" y1="357.985" x2="179.967" y2="193.44" gradientUnits="userSpaceOnUse">
<stop stop-color="#DDDDDD" stop-opacity="0"/>
<stop offset="1" stop-color="#C6C6C6" stop-opacity="0.64"/>
</linearGradient>
<linearGradient id="paint11_linear" x1="85.4665" y1="29.7649" x2="180.466" y2="194.31" gradientUnits="userSpaceOnUse">
<stop stop-color="#DDDDDD" stop-opacity="0"/>
<stop offset="1" stop-color="#C6C6C6" stop-opacity="0.64"/>
</linearGradient>
</defs>
</svg>
