<svg width="24" height="24" viewBox="0 0 24 24" fill="none" xmlns="http://www.w3.org/2000/svg">
<path fill-rule="evenodd" clip-rule="evenodd" d="M22.7999 12C22.7999 17.966 17.9643 22.8 12 22.8C6.03564 22.8 1.19995 17.966 1.19995 12C1.19995 6.03754 6.03564 1.20001 12 1.20001C17.9643 1.20001 22.7999 6.03754 22.7999 12Z" fill="#ED3963"/>
<path fill-rule="evenodd" clip-rule="evenodd" d="M10.4212 12.8995L10.0982 6.97686C10.0819 6.67756 10.3201 6.42584 10.62 6.42584H13.3802C13.6799 6.42584 13.9183 6.67756 13.9019 6.97686L13.579 12.8995C13.5638 13.1766 13.3347 13.3936 13.0571 13.3936H10.943C10.6655 13.3936 10.4363 13.1766 10.4212 12.8995ZM9.99683 16.1807C9.99683 15.0744 10.8937 14.1775 12.0001 14.1775C13.1065 14.1775 14.0034 15.0744 14.0034 16.1807C14.0034 17.2871 13.1065 18.184 12.0001 18.184C10.8937 18.184 9.99683 17.2871 9.99683 16.1807Z" fill="white"/>
</svg>
