<svg width="161" height="160" viewBox="0 0 161 160" fill="none" xmlns="http://www.w3.org/2000/svg">
<rect x="0.5" width="160" height="160" rx="80" fill="#F7F7F7"/>
<path fill-rule="evenodd" clip-rule="evenodd" d="M120.712 21.1765H40.7464C36.898 21.1765 33.777 24.2946 33.7737 28.1431L33.6763 134.373C33.6763 135.825 34.5897 137.132 35.9483 137.629C36.3318 137.768 36.7361 137.839 37.1446 137.839C38.1643 137.839 39.1253 137.393 39.7864 136.615L44.9483 130.521C45.3295 130.071 46.0227 130.071 46.4038 130.52L51.682 136.742C52.338 137.523 53.3017 137.969 54.3248 137.969C55.346 137.969 56.3097 137.523 56.969 136.744L62.2514 130.515C62.6326 130.066 63.3257 130.066 63.7069 130.515L68.9893 136.744C69.6288 137.497 70.5926 137.929 71.6344 137.929C72.6744 137.929 73.6382 137.497 74.2759 136.744L79.5606 130.517C79.9422 130.068 80.6349 130.068 81.0161 130.518L86.2937 136.744C86.9366 137.497 87.8998 137.929 88.9398 137.929C89.9794 137.929 90.9431 137.497 91.5808 136.744L96.8636 130.517C97.2448 130.068 97.9375 130.068 98.3187 130.517L103.536 136.667C104.025 137.244 104.667 137.689 105.401 137.87C106.715 138.193 108.05 137.74 108.89 136.753L114.189 130.513C114.57 130.065 115.263 130.065 115.643 130.513L121.57 137.492C122.219 138.256 123.141 138.775 124.143 138.82C124.614 138.841 125.075 138.771 125.502 138.611C126.861 138.114 127.773 136.804 127.773 135.358L127.685 28.144C127.681 24.2951 124.561 21.1765 120.712 21.1765Z" fill="white"/>
<mask id="mask0" mask-type="alpha" maskUnits="userSpaceOnUse" x="32" y="20" width="97" height="120">
<path fill-rule="evenodd" clip-rule="evenodd" d="M32.5 20H128.95V140H32.5V20Z" fill="white"/>
</mask>
<g mask="url(#mask0)">
<path fill-rule="evenodd" clip-rule="evenodd" d="M114.916 129C115.543 129 116.135 129.274 116.54 129.752L122.467 136.73C122.936 137.283 123.567 137.616 124.196 137.645C124.511 137.655 124.811 137.614 125.09 137.509C125.994 137.178 126.597 136.315 126.597 135.358L126.508 28.1449C126.506 24.9515 123.906 22.3529 120.712 22.3529H40.7465C37.5531 22.3529 34.9531 24.9511 34.9503 28.144L34.8528 134.374C34.8528 135.332 35.4557 136.196 36.3526 136.524C37.2331 136.841 38.2768 136.576 38.8896 135.853L44.051 129.76C44.4557 129.282 45.0481 129.007 45.6754 129.007H45.6764C46.3037 129.007 46.8957 129.281 47.3013 129.759L52.579 135.981C53.0138 136.498 53.6486 136.792 54.3248 136.792C54.9997 136.792 55.6364 136.498 56.0707 135.984L61.354 129.754C61.7597 129.276 62.3517 129.002 62.979 129.001C63.6063 129.001 64.1983 129.276 64.6039 129.754L69.8867 135.983C70.3018 136.472 70.939 136.753 71.6345 136.753C72.3286 136.753 72.9639 136.472 73.3775 135.984L78.6637 129.755C79.0698 129.278 79.6613 129.004 80.2881 129.004H80.2891C80.9159 129.004 81.5079 129.279 81.9136 129.757L87.1912 135.984C87.6077 136.471 88.2458 136.753 88.9399 136.753C89.634 136.753 90.2693 136.472 90.683 135.984L95.9663 129.756C96.3724 129.278 96.9644 129.004 97.5912 129.004C98.218 129.004 98.81 129.278 99.2157 129.755L104.433 135.906C104.685 136.202 105.105 136.585 105.683 136.728C106.541 136.937 107.427 136.657 107.994 135.991L113.292 129.752C113.698 129.274 114.29 129 114.916 129ZM124.311 140C124.237 140 124.163 139.999 124.089 139.995C122.809 139.937 121.564 139.302 120.674 138.253L114.916 131.475L109.787 137.515C108.638 138.865 106.85 139.438 105.12 139.012C104.178 138.78 103.321 138.232 102.639 137.427L97.5912 131.478L92.4783 137.505C91.6171 138.522 90.3272 139.106 88.9399 139.106C87.5559 139.106 86.2655 138.523 85.3987 137.508L80.2881 131.479L75.1724 137.505C74.3121 138.522 73.0223 139.106 71.6345 139.106C70.2472 139.106 68.9564 138.522 68.0928 137.505L62.979 131.476L57.866 137.505C56.9846 138.547 55.6933 139.145 54.3248 139.145C52.9517 139.145 51.6604 138.545 50.7808 137.499L45.6764 131.481L40.6839 137.375C39.7987 138.418 38.5088 139.016 37.1446 139.016C36.6006 139.016 36.0637 138.921 35.5493 138.736C33.7234 138.068 32.4999 136.316 32.4999 134.373L32.5973 28.1421C32.6011 23.6527 36.2571 20 40.7465 20H120.712C125.202 20 128.858 23.6532 128.861 28.1431L128.95 135.357C128.95 137.299 127.727 139.05 125.906 139.716C125.403 139.904 124.865 140 124.311 140Z" fill="#10176B"/>
</g>
<path fill-rule="evenodd" clip-rule="evenodd" d="M125.164 30.467C125.162 26.8327 123.105 23.8882 120.569 23.8882H115.361C117.897 23.8882 119.954 26.8327 119.956 30.467L120.014 131.713C120.014 131.752 120.009 131.79 120.008 131.828L121.134 133.729C121.562 134.45 122.17 134.94 122.83 134.983C123.14 135.003 123.444 134.936 123.725 134.786C124.621 134.316 125.222 133.079 125.222 131.713L125.164 30.467Z" fill="#F7F7F7"/>
<path fill-rule="evenodd" clip-rule="evenodd" d="M63.0834 39.3271V42.8669C64.6867 43.041 66.1031 43.473 67.3789 44.1869L68.2664 44.6815L66.473 49.1869L65.3295 48.5704C64.7356 48.249 63.3422 47.4956 61.1375 47.4956C59.0509 47.4956 58.3069 48.4848 58.3069 49.4114C58.3069 50.4142 58.8754 51.0839 62.2377 52.4057C65.29 53.5869 68.8024 55.5229 68.8024 60.0199C68.8024 63.3888 66.4523 66.1083 62.857 67.0326V70.961H58.1775V67.2843C56.1883 67.0815 54.2147 66.4528 52.93 65.5841L52.1747 65.0707L53.9008 60.498L55.0998 61.2561C56.4424 62.106 58.233 62.6147 59.897 62.6147C61.8838 62.6147 63.2198 61.6697 63.2198 60.2693C63.2198 59.3243 62.7944 58.2843 59.7074 57.0966C56.2806 55.8189 52.7615 53.9563 52.7615 49.8387C52.7615 46.5761 54.9591 44.0297 58.441 43.1446V39.3271H63.0834Z" fill="#1BD27F"/>
<path fill-rule="evenodd" clip-rule="evenodd" d="M105.437 84.9521C107.193 84.9521 108.718 86.1973 108.986 87.8519C109.153 88.8688 108.869 89.8971 108.208 90.6759C107.547 91.4543 106.581 91.9004 105.56 91.9004H53.7096C51.9534 91.9004 50.4287 90.6547 50.1605 89.0006C49.9943 87.9837 50.2786 86.9531 50.9393 86.1771C51.6 85.4001 52.5661 84.9521 53.5849 84.9521H105.437Z" fill="#1BD27F"/>
<path fill-rule="evenodd" clip-rule="evenodd" d="M70.5665 99.2754C72.3228 99.2754 73.848 100.521 74.1157 102.175C74.2823 103.192 73.9981 104.22 73.3369 104.999C72.6762 105.778 71.7105 106.224 70.6913 106.224H53.6108C51.8545 106.224 50.3294 104.978 50.0616 103.324C49.895 102.307 50.1793 101.276 50.84 100.5C51.5011 99.7239 52.4668 99.2754 53.4861 99.2754H70.5665Z" fill="#1BD27F"/>
</svg>
