<svg width="46" height="46" viewBox="0 0 46 46" fill="none" xmlns="http://www.w3.org/2000/svg">
<g clip-path="url(#clip0)">
<path d="M36.5983 44.6562H9.40173C7.88176 44.6562 6.6875 43.4678 6.6875 41.9553V3.76348C6.6875 2.25093 7.88176 1.0625 9.40173 1.0625H36.5983C38.1182 1.0625 39.3125 2.25093 39.3125 3.76348V41.9013C39.3125 43.4678 38.064 44.6562 36.5983 44.6562Z" fill="white"/>
<path fill-rule="evenodd" clip-rule="evenodd" d="M9.47382 1.80163C8.32033 1.80163 7.42296 2.70153 7.42296 3.85827V42.1417C7.42296 43.2985 8.32033 44.1984 9.47382 44.1984H36.5262C37.6257 44.1984 38.577 43.2985 38.577 42.0876V3.85827C38.577 2.70153 37.6797 1.80163 36.5262 1.80163H9.47382ZM6.125 3.85827C6.125 1.98266 7.60349 0.5 9.47382 0.5H36.5262C38.3965 0.5 39.875 1.98266 39.875 3.85827V42.0876C39.875 44.0173 38.3425 45.5 36.5262 45.5H9.47382C7.60349 45.5 6.125 44.0173 6.125 42.1417V3.85827Z" fill="#494949"/>
<g filter="url(#filter0_d)">
<path d="M45.5 22.8594C45.5 28.5289 40.9039 33.125 35.2344 33.125C29.5648 33.125 24.9688 28.5289 24.9688 22.8594C24.9688 17.1898 29.5648 12.5937 35.2344 12.5937C40.9039 12.5937 45.5 17.1898 45.5 22.8594Z" fill="white"/>
<path fill-rule="evenodd" clip-rule="evenodd" d="M35.2344 31.2151C39.8491 31.2151 43.5901 27.4741 43.5901 22.8594C43.5901 18.2446 39.8491 14.5036 35.2344 14.5036C30.6196 14.5036 26.8786 18.2446 26.8786 22.8594C26.8786 27.4741 30.6196 31.2151 35.2344 31.2151ZM35.2344 33.125C40.9039 33.125 45.5 28.5289 45.5 22.8594C45.5 17.1898 40.9039 12.5937 35.2344 12.5937C29.5648 12.5937 24.9688 17.1898 24.9688 22.8594C24.9688 28.5289 29.5648 33.125 35.2344 33.125Z" fill="#1BD27F"/>
<path d="M39.8988 22.9494L39.7021 22.7081C39.5358 22.6026 39.3695 22.4972 39.2337 22.5276C39.0978 22.558 38.8261 22.6188 38.7207 22.7851L36.1879 25.492L36.1477 18.9384C36.1173 18.8026 36.0564 18.5308 35.8902 18.4254C35.7239 18.3199 35.5881 18.3504 35.4218 18.2449L35.0142 18.3361C34.8784 18.3665 34.6066 18.4274 34.5012 18.5936C34.5012 18.5936 34.3957 18.7599 34.3207 19.062L34.361 25.6156L31.865 22.7503C31.6987 22.6449 31.5325 22.5394 31.3966 22.5698C31.2607 22.6002 30.989 22.6611 30.8836 22.8273L30.6423 23.024C30.4314 23.3565 30.3868 23.7945 30.5834 24.0358L34.6975 28.3935C34.8637 28.499 34.8941 28.6348 35.03 28.6044L35.1658 28.574C35.3017 28.5436 35.5734 28.4828 35.6789 28.3165L39.8399 23.9612C40.2171 23.7341 40.1258 23.3265 39.8988 22.9494Z" fill="#1BD27F"/>
</g>
<path d="M21.4716 16.2199C21.1344 15.7151 20.7972 15.2104 20.2914 14.8739C19.7856 14.5374 19.2798 14.2009 18.6054 14.0326C18.0996 13.8644 17.7623 13.6962 17.2565 13.5279V10.4994C17.4251 10.4994 17.7623 10.6677 17.7623 10.8359C17.931 11.0042 18.0996 11.5089 18.0996 12.0137V12.5184H21.4716V12.0137C21.4716 11.3407 21.303 10.6677 21.1344 9.9947C20.7972 9.48996 20.46 8.98521 20.1228 8.64872C19.617 8.31222 19.1112 7.97573 18.6054 7.80748C18.2682 7.63923 17.7623 7.63923 17.2565 7.63923V6.125H15.2333V7.63923C14.7275 7.63923 14.3903 7.80748 13.8844 7.97572C13.21 8.14397 12.7042 8.48047 12.1984 8.81696C11.6926 9.15346 11.3554 9.65821 11.0182 10.163C10.8496 10.3312 10.681 11.0042 10.681 11.8454C10.681 12.6867 10.8496 13.3597 11.1868 13.8644C11.524 14.3691 11.8612 14.8739 12.367 15.2104C12.8728 15.7151 13.3786 15.8834 14.053 16.2199C14.3903 16.3881 14.8961 16.5564 15.2333 16.7246V20.4261C14.7275 20.2578 14.5589 20.0896 14.2217 19.9213C13.8844 19.5848 13.7158 18.9118 13.7158 18.2388V17.7341H10.3438V18.2388C10.3438 19.0801 10.5124 19.7531 10.681 20.4261C11.0182 21.0991 11.3554 21.6038 11.8612 22.1085C12.367 22.6133 12.8728 22.9498 13.5472 23.118C14.053 23.2863 14.5589 23.4545 15.0647 23.4545V24.9688H17.0879V23.4545C17.5937 23.4545 18.0996 23.2863 18.6054 23.118C19.2798 22.9498 19.7856 22.6133 20.2914 22.1085C20.7972 21.772 21.1344 21.0991 21.4716 20.5943C21.8089 19.9213 21.8089 19.2483 21.8089 18.4071C21.9775 17.3976 21.8089 16.7246 21.4716 16.2199ZM15.2333 12.8549C15.0647 12.8549 14.8961 12.6867 14.7275 12.5184C14.5589 12.3502 14.3903 12.3502 14.3903 12.1819C14.3903 12.0137 14.2217 11.8454 14.2217 11.6772C14.2217 11.1724 14.3903 10.8359 14.5589 10.6677C14.7275 10.4994 15.0647 10.4994 15.2333 10.3312V12.8549ZM17.2565 17.0611C17.5937 17.2294 17.7623 17.2294 17.931 17.3976C18.0996 17.5658 18.2682 17.7341 18.2682 17.9023C18.4368 18.0706 18.4368 18.2388 18.4368 18.5753C18.4368 19.2483 18.2682 19.5848 17.931 19.9213C17.7623 20.0896 17.4251 20.2578 17.0879 20.2578V17.0611H17.2565Z" fill="#E8E8E8"/>
</g>
<defs>
<filter id="filter0_d" x="22.9688" y="11.5938" width="24.5312" height="24.5312" filterUnits="userSpaceOnUse" color-interpolation-filters="sRGB">
<feFlood flood-opacity="0" result="BackgroundImageFix"/>
<feColorMatrix in="SourceAlpha" type="matrix" values="0 0 0 0 0 0 0 0 0 0 0 0 0 0 0 0 0 0 127 0" result="hardAlpha"/>
<feOffset dy="1"/>
<feGaussianBlur stdDeviation="1"/>
<feColorMatrix type="matrix" values="0 0 0 0 0 0 0 0 0 0 0 0 0 0 0 0 0 0 0.12 0"/>
<feBlend mode="normal" in2="BackgroundImageFix" result="effect1_dropShadow"/>
<feBlend mode="normal" in="SourceGraphic" in2="effect1_dropShadow" result="shape"/>
</filter>
<clipPath id="clip0">
<rect width="45" height="45" fill="white" transform="translate(0.5 0.5)"/>
</clipPath>
</defs>
</svg>
