<svg width="160" height="160" viewBox="0 0 160 160" fill="none" xmlns="http://www.w3.org/2000/svg">
<g clip-path="url(#clip0)">
<path d="M80 125.307C106 125.307 127.077 104.23 127.077 78.2302C127.077 52.2304 106 31.1533 80 31.1533C54.0002 31.1533 32.9231 52.2304 32.9231 78.2302C32.9231 104.23 54.0002 125.307 80 125.307Z" fill="white"/>
<path d="M80 32.0764C89.1284 32.0764 98.0518 34.7833 105.642 39.8547C113.232 44.9262 119.147 52.1344 122.641 60.5679C126.134 69.0014 127.048 78.2814 125.267 87.2344C123.486 96.1874 119.09 104.411 112.636 110.866C106.181 117.321 97.9572 121.716 89.0042 123.497C80.0512 125.278 70.7712 124.364 62.3377 120.871C53.9042 117.378 46.696 111.462 41.6245 103.872C36.5531 96.282 33.8462 87.3586 33.8462 78.2302C33.8462 65.9895 38.7088 54.2501 47.3643 45.5945C56.0198 36.939 67.7593 32.0764 80 32.0764V32.0764ZM80 30.2302C70.5065 30.2302 61.2262 33.0454 53.3326 38.3197C45.4391 43.594 39.2868 51.0906 35.6538 59.8614C32.0208 68.6323 31.0702 78.2835 32.9223 87.5946C34.7744 96.9056 39.346 105.458 46.0589 112.171C52.7718 118.884 61.3246 123.456 70.6357 125.308C79.9468 127.16 89.598 126.209 98.3688 122.576C107.14 118.943 114.636 112.791 119.911 104.898C125.185 97.004 128 87.7237 128 78.2302C128 65.4998 122.943 53.2908 113.941 44.2891C104.939 35.2874 92.7304 30.2302 80 30.2302V30.2302Z" fill="#262626"/>
<path fill-rule="evenodd" clip-rule="evenodd" d="M106.086 65.3071L101.895 61.0794C101.477 60.6612 100.909 60.4263 100.317 60.4263C99.725 60.4263 99.1573 60.6612 98.7384 61.0794L72.4307 87.1102L61.3538 75.8856C60.935 75.4673 60.3672 75.2324 59.7753 75.2324C59.1834 75.2324 58.6157 75.4673 58.1969 75.8856L53.9138 80.0764C53.4955 80.4952 53.2606 81.0629 53.2606 81.6548C53.2606 82.2467 53.4955 82.8145 53.9138 83.2333L70.7692 100.255C70.9753 100.464 71.221 100.63 71.492 100.744C71.763 100.857 72.0539 100.916 72.3476 100.916C72.6414 100.916 72.9323 100.857 73.2033 100.744C73.4742 100.63 73.72 100.464 73.9261 100.255L106.049 68.3902C106.45 67.9795 106.678 67.4301 106.685 66.8561C106.692 66.282 106.477 65.7273 106.086 65.3071Z" fill="#1BD27F"/>
</g>
<path fill-rule="evenodd" clip-rule="evenodd" d="M27.5959 33.9065L22.8833 41.0895L20.0484 32.9798L11.7607 30.7175L18.5975 25.5154L18.188 16.9342L25.2482 21.8288L33.2828 18.7876L30.8095 27.0148L36.1847 33.7164L27.5959 33.9065Z" fill="#ECECEC"/>
<path fill-rule="evenodd" clip-rule="evenodd" d="M120.63 144.577L120.822 139.729L124.554 142.83L129.224 141.515L127.428 146.022L130.122 150.058L125.28 149.742L122.275 153.551L121.079 148.849L116.527 147.168L120.63 144.577Z" fill="#ECECEC"/>
<path fill-rule="evenodd" clip-rule="evenodd" d="M126.783 32.2515L146.291 25.5321L141.371 46.843L126.783 32.2515Z" fill="#ECECEC"/>
<path fill-rule="evenodd" clip-rule="evenodd" d="M8.15235 90.8499L15.5162 97.8395L5.61139 100.68L8.15235 90.8499Z" fill="#ECECEC"/>
<path d="M16.2827 134.523C20.0031 133.916 25.3503 135.813 25.0211 141.643C24.8016 145.529 26.9545 147.455 31.4798 147.42" stroke="#ECECEC" stroke-width="2"/>
<path d="M158.4 92.6298C157.383 99.3857 154.364 106.142 151.206 99.3857C149.102 94.8818 147.233 96.3632 145.6 103.83" stroke="#ECECEC" stroke-width="2"/>
<path d="M77.5676 13.4378C78.5257 9.79188 82.434 5.67875 87.6257 8.3506C91.0867 10.1318 93.7217 8.94832 95.5305 4.80007" stroke="#ECECEC" stroke-width="2"/>
<defs>
<clipPath id="clip0">
<rect width="96" height="96" fill="white" transform="translate(32 30.2302)"/>
</clipPath>
</defs>
</svg>
