<svg width="243" height="54" viewBox="0 0 243 54" fill="none" xmlns="http://www.w3.org/2000/svg">
<g clip-path="url(#clip0)">
<path d="M182.322 31.6682C180.832 31.6682 179.572 31.1882 178.58 30.2282C177.586 29.2682 177.09 28.0342 177.09 26.4902C177.09 24.9472 177.586 23.7122 178.58 22.7522C179.572 21.7942 180.832 21.3132 182.322 21.3132C183.712 21.3132 184.905 21.7932 185.898 22.7532C186.891 23.7132 187.388 24.9472 187.388 26.4902C187.388 27.9982 186.891 29.2332 185.898 30.1952C184.905 31.1552 183.713 31.6682 182.322 31.6682ZM190.414 18.6532H187.188V20.3172C185.942 18.9242 184.122 18.2102 181.728 18.2102C179.652 18.2102 177.832 18.9932 176.299 20.5562C174.766 22.1202 174 24.0562 174 26.3342C174 28.6102 174.766 30.5482 176.331 32.1462C177.896 33.7442 179.716 34.5262 181.791 34.5262C184.187 34.5262 186.007 33.8122 187.253 32.4182V33.5062C187.253 35.1372 186.806 36.4292 185.911 37.3812C185.017 38.3322 183.803 38.8082 182.302 38.8082C181.089 38.8082 180.099 38.5722 179.334 38.0942C178.567 37.6192 177.864 36.8702 177.257 35.8182L174.542 37.9602C175.916 40.6442 178.502 42.0032 182.302 42.0032C184.826 42.0032 186.806 41.2892 188.275 39.8952C189.742 38.5032 190.478 36.5652 190.478 34.0842L190.414 18.6532ZM203.238 32.8512C201.688 32.8512 200.401 32.2142 199.378 31.1752C198.357 30.1372 197.862 28.7622 197.862 27.0542C197.862 25.3442 198.357 23.9712 199.379 22.9322C200.401 21.8942 201.689 21.3912 203.239 21.3912C204.656 21.3912 205.909 21.9272 206.998 23.0002C208.086 24.0712 208.614 25.4462 208.614 27.1202C208.614 28.7962 208.086 30.1702 206.998 31.2422C205.91 32.3162 204.656 32.8522 203.238 32.8522V32.8512ZM212.108 18.6792H208.678V20.5892C207.195 19.0152 205.216 18.2102 202.744 18.2102C200.534 18.2102 198.622 19.0482 197.007 20.6892C195.391 22.3302 194.6 24.4412 194.6 26.9872C194.6 29.5652 195.391 31.6762 196.973 33.3192C198.557 34.9592 200.468 35.7962 202.678 35.7962C205.151 35.7962 207.128 34.9922 208.612 33.4192V35.3272H212.042L212.108 18.6792ZM226.024 32.8002C224.6 32.8002 223.341 32.2822 222.248 31.2462C221.155 30.2102 220.624 28.8822 220.624 27.2632C220.624 25.6432 221.155 24.3152 222.248 23.2792C223.341 22.2432 224.6 21.7252 226.024 21.7252C227.582 21.7252 228.874 22.2432 229.902 23.2472C230.928 24.2512 231.425 25.5792 231.425 27.2302C231.425 28.8822 230.928 30.2102 229.902 31.2152C228.874 32.2172 227.582 32.8002 226.024 32.8002V32.8002ZM226.582 18.8072C226.605 18.8071 226.627 18.8071 226.65 18.8072H226.582ZM226.614 18.8072C224.148 18.8152 222.174 19.5922 220.692 21.1092V12.0002H217.25V35.3402H220.692V33.4902C222.181 35.0142 224.167 35.7922 226.65 35.7922C228.866 35.7922 230.785 35.0142 232.374 33.4252C233.962 31.8372 234.757 29.7952 234.757 27.2992C234.757 24.8352 233.962 22.7942 232.34 21.2062C230.727 19.6242 228.818 18.8142 226.614 18.8062V18.8072ZM238.88 19.2412H241.97V35.7932H238.88V19.2412ZM240.971 12.0002C240.95 11.9999 240.93 11.9999 240.909 12.0002L240.971 12.0002ZM242.406 12.6102C242.812 13.0272 242.999 13.5082 242.999 14.0862C242.999 14.6952 242.812 15.1762 242.438 15.5612C242.063 15.9462 241.565 16.1382 240.971 16.1382C240.378 16.1382 239.879 15.9462 239.473 15.5612C239.068 15.1762 238.88 14.6952 238.88 14.0862C238.88 13.5082 239.068 13.0262 239.473 12.6092C239.873 12.1992 240.361 12.0072 240.94 12.0002C241.52 12.0072 242.008 12.2002 242.406 12.6102V12.6102Z" fill="#494949"/>
</g>
<path fill-rule="evenodd" clip-rule="evenodd" d="M32.7635 32.1933L39.6675 28.9231L42.954 35.793L40.0397 34.7638C39.3845 36.9277 37.8578 38.8235 35.6536 39.8894C32.6685 41.3338 29.2471 40.8653 26.7914 38.9664L26.7841 38.975L23.5382 36.2573L23.5401 13.291C26.1103 13.291 28.1943 15.3641 28.1943 17.9222V24.8462C28.2239 24.8309 28.2541 24.8162 28.2843 24.8015C32.4232 22.8001 37.3998 24.4733 39.4789 28.5367L35.2808 30.5251C34.3155 28.7813 32.1347 28.0791 30.3152 28.9593C29.0548 29.5688 28.2874 30.7826 28.1943 32.0799C28.1875 32.1676 28.1844 32.2565 28.1844 32.3455C28.1838 32.8986 28.3065 33.4605 28.566 33.9917C28.7854 34.4406 29.0818 34.8264 29.4332 35.1404C29.4973 35.1993 29.5639 35.2545 29.6317 35.3073C30.735 36.1683 32.2778 36.383 33.6233 35.7323C34.6859 35.2183 35.3978 34.2744 35.6512 33.2134L32.7635 32.1933ZM15.227 16.6497L15.3107 16.6106C15.9457 16.3163 16.6197 16.1669 17.3136 16.1669C19.1523 16.1669 20.8422 17.2378 21.6187 18.8951L22.8697 21.976V33.0282L15.227 16.6497ZM19.0351 26.4286L22.9311 34.7393V35.7494L11.3058 26.0165C12.9582 24.0575 15.894 23.8017 17.8627 25.4461L19.0351 26.4286Z" fill="#494949"/>
<path fill-rule="evenodd" clip-rule="evenodd" d="M75.4372 35.5611H79.1377V18.6753H75.4372V35.5611ZM58.7651 31.9089V28.4304H60.2567C60.9701 28.4304 61.5148 28.5779 61.8908 28.8723C62.2665 29.167 62.4542 29.5901 62.4542 30.1412C62.4542 31.3198 61.7521 31.9089 60.3478 31.9089H58.7651ZM60.1198 25.1562H58.7651V22.1874H60.0289C61.4409 22.1874 62.1468 22.6522 62.1468 23.581C62.1468 24.1026 61.9704 24.4951 61.6172 24.7597C61.2642 25.0242 60.7651 25.1562 60.1198 25.1562ZM60.0746 18.8001H54.2675V35.3646H60.7464C62.7047 35.3646 64.2516 34.9322 65.3863 34.0674C66.521 33.2025 67.0885 32.0184 67.0885 30.5154C67.0885 29.5029 66.8569 28.6797 66.3939 28.0453C65.9308 27.4109 65.1831 26.9576 64.151 26.6856V26.5725C64.9325 26.3834 65.5628 25.9605 66.0409 25.3034C66.5193 24.6463 66.7583 23.853 66.7583 22.9241C66.7583 21.5114 66.2099 20.4712 65.1132 19.8026C64.0161 19.1341 62.3367 18.8001 60.0746 18.8001ZM72.9021 35.5611H69.2017V25.1245H72.9021V35.5611ZM69.12 20.313C69.0105 20.564 68.9563 20.8318 68.9563 21.1166C68.9563 21.4014 69.0105 21.6694 69.12 21.9202C69.2288 22.1713 69.3785 22.3916 69.5698 22.5815C69.7604 22.7714 69.9818 22.9206 70.2343 23.0289C70.4862 23.1378 70.7556 23.1917 71.0417 23.1917C71.3279 23.1917 71.597 23.1378 71.8491 23.0289C72.1014 22.9206 72.3228 22.7714 72.5137 22.5815C72.7045 22.3916 72.8542 22.1713 72.9635 21.9202C73.0725 21.6694 73.1271 21.4014 73.1271 21.1166C73.1271 20.8318 73.0725 20.564 72.9635 20.313C72.8542 20.0621 72.7045 19.842 72.5137 19.6519C72.3228 19.462 72.1014 19.313 71.8491 19.2043C71.597 19.0958 71.3279 19.0415 71.0417 19.0415C70.7556 19.0415 70.4862 19.0958 70.2343 19.2043C69.9818 19.313 69.7604 19.462 69.5698 19.6519C69.3785 19.842 69.2288 20.0621 69.12 20.313ZM85.3736 35.5611H81.6732V18.6753H85.3736V35.5611ZM92.9862 21.8083V18.6753H92.9654H89.2855H89.2647V21.8083H86.2744V24.8803H89.2647V35.5611H89.2855H92.9654H92.9862V24.8803H95.9765V21.8083H92.9862ZM100.885 25.1244H97.1848V35.561H100.885V31.0853C100.885 30.1087 101.1 29.3662 101.529 28.8577C101.959 28.3489 102.603 28.0947 103.461 28.0947C104.034 28.0947 104.566 28.2169 105.056 28.4609V24.9413C104.906 24.9143 104.773 24.9006 104.658 24.9006H104.341C103.577 24.9006 102.909 25.0668 102.337 25.3991C101.765 25.7316 101.281 26.2097 100.885 26.8334V25.1244ZM106.712 35.5611H110.413V25.1245H106.712V35.5611ZM106.467 21.1166C106.467 20.8318 106.521 20.564 106.631 20.313C106.739 20.0621 106.889 19.842 107.08 19.6519C107.271 19.462 107.492 19.313 107.745 19.2043C107.997 19.0958 108.266 19.0415 108.552 19.0415C108.838 19.0415 109.107 19.0958 109.36 19.2043C109.612 19.313 109.833 19.462 110.024 19.6519C110.215 19.842 110.365 20.0621 110.474 20.313C110.583 20.564 110.638 20.8318 110.638 21.1166C110.638 21.4014 110.583 21.6694 110.474 21.9202C110.365 22.1713 110.215 22.3916 110.024 22.5815C109.833 22.7714 109.612 22.9206 109.36 23.0289C109.107 23.1378 108.838 23.1917 108.552 23.1917C108.266 23.1917 107.997 23.1378 107.745 23.0289C107.492 22.9206 107.271 22.7714 107.08 22.5815C106.889 22.3916 106.739 22.1713 106.631 21.9202C106.521 21.6694 106.467 21.4014 106.467 21.1166ZM116.648 25.1245H112.948V35.5611H116.648V30.414C116.648 29.8581 116.692 29.407 116.781 29.0611C116.87 28.7152 116.992 28.4441 117.149 28.2473C117.306 28.0508 117.486 27.9188 117.691 27.8506C117.895 27.783 118.113 27.7489 118.345 27.7489C118.618 27.7489 118.856 27.7865 119.061 27.8609C119.265 27.9355 119.432 28.0744 119.562 28.2779C119.691 28.4812 119.79 28.7559 119.858 29.1018C119.926 29.4477 119.96 29.885 119.96 30.414V35.5611H123.661V30.414C123.661 28.6916 124.254 27.8303 125.439 27.8303C125.658 27.8303 125.862 27.8644 126.053 27.932C126.244 28 126.411 28.1287 126.554 28.3186C126.697 28.5085 126.806 28.7733 126.881 29.1119C126.956 29.4512 126.993 29.885 126.993 30.414V35.5611H130.694V28.7865C130.694 28.0948 130.602 27.5049 130.418 27.0165C130.234 26.5282 129.985 26.1315 129.672 25.8263C129.358 25.5213 128.983 25.2975 128.547 25.1551C128.111 25.0127 127.648 24.9414 127.157 24.9414C125.617 24.9414 124.431 25.5994 123.6 26.9149C122.782 25.6128 121.596 24.9617 120.042 24.9617C118.788 24.9617 117.657 25.4434 116.648 26.4061V25.1245Z" fill="#494949"/>
<path d="M153.166 26.502L153.112 25.062V23.082H154.786V25.062L154.714 26.502L156.1 26.394H158.062V28.086H156.1L154.714 28.032L154.786 29.436V31.524H153.112V29.436L153.166 28.032L151.528 28.086H149.836V26.394H151.528L153.166 26.502Z" fill="#494949"/>
<defs>
<clipPath id="clip0">
<rect width="69" height="30" fill="white" transform="translate(174 12)"/>
</clipPath>
</defs>
</svg>
