<svg width="60" height="60" viewBox="0 0 60 60" fill="none" xmlns="http://www.w3.org/2000/svg">
<rect width="60" height="60" rx="30" fill="#F7F7F7"/>
<path fill-rule="evenodd" clip-rule="evenodd" d="M20.7635 51.5689C19.7918 51.5689 19.0042 50.7814 19.0042 49.8096V10.191C19.0042 9.21915 19.7918 8.43164 20.7635 8.43164H39.5763C40.5479 8.43164 41.3356 9.21915 41.3356 10.191V49.8096C41.3356 50.7814 40.5479 51.5689 39.5763 51.5689H20.7635Z" fill="white"/>
<path fill-rule="evenodd" clip-rule="evenodd" d="M20.7635 8.86266C20.0312 8.86266 19.4355 9.4583 19.4355 10.1906V49.8092C19.4355 50.5415 20.0312 51.1372 20.7635 51.1372H39.5763C40.3086 51.1372 40.9043 50.5415 40.9043 49.8092V10.1906C40.9043 9.4583 40.3086 8.86266 39.5763 8.86266H20.7635ZM39.5763 52H20.7634C19.5554 52 18.5728 51.0173 18.5728 49.8093V10.1907C18.5728 8.98267 19.5554 8 20.7634 8H39.5763C40.7843 8 41.767 8.98267 41.767 10.1907V49.8093C41.767 51.0173 40.7843 52 39.5763 52Z" fill="#202020"/>
<path fill-rule="evenodd" clip-rule="evenodd" d="M35.1043 50.4517H25.2387C25.048 50.4517 24.8936 50.2971 24.8936 50.1066V50.0931C24.8936 49.9025 25.048 49.748 25.2387 49.748H35.1043C35.295 49.748 35.4494 49.9025 35.4494 50.0931V50.1066C35.4494 50.2971 35.295 50.4517 35.1043 50.4517Z" fill="#202020"/>
<path fill-rule="evenodd" clip-rule="evenodd" d="M39.5454 9.28418H38.0884C38.5914 9.28418 38.9989 10.0408 38.9989 10.974V49.0264C38.9989 49.9595 38.5914 50.7161 38.0884 50.7161H39.5454C40.0482 50.7161 40.4559 49.9595 40.4559 49.0264V10.974C40.4559 10.0408 40.0482 9.28418 39.5454 9.28418Z" fill="#E8E8E8"/>
<path fill-rule="evenodd" clip-rule="evenodd" d="M33.4234 11.1661H26.9165C26.3399 11.1661 25.826 10.8026 25.6342 10.2589L25.1384 8.85449H35.2013L34.7058 10.2589C34.5139 10.8026 33.9999 11.1661 33.4234 11.1661Z" fill="#202020"/>
<path fill-rule="evenodd" clip-rule="evenodd" d="M32.3456 9.94186C32.3456 10.092 32.2238 10.2138 32.0737 10.2138C31.9234 10.2138 31.8018 10.092 31.8018 9.94186C31.8018 9.79157 31.9234 9.66992 32.0737 9.66992C32.2238 9.66992 32.3456 9.79157 32.3456 9.94186Z" fill="#202020"/>
<path fill-rule="evenodd" clip-rule="evenodd" d="M33.4335 9.94186C33.4335 10.092 33.3117 10.2138 33.1616 10.2138C33.0113 10.2138 32.8896 10.092 32.8896 9.94186C32.8896 9.79157 33.0113 9.66992 33.1616 9.66992C33.3117 9.66992 33.4335 9.79157 33.4335 9.94186Z" fill="#202020"/>
</svg>
