<svg width="74" height="74" viewBox="0 0 74 74" fill="none" xmlns="http://www.w3.org/2000/svg">
<path d="M28.6611 8.77686C28.1403 8.77671 27.6407 8.98341 27.2722 9.35153C26.9037 9.71964 26.6964 10.2191 26.6958 10.74V24.4969H63.0321L46.4847 8.78112L28.6611 8.77686ZM64.3632 28.6586C64.3635 28.4008 64.3128 28.1455 64.2141 27.9073C64.1155 27.6692 63.9708 27.4528 63.7883 27.2707C63.6059 27.0887 63.3893 26.9444 63.151 26.8462C62.9127 26.748 62.6573 26.6979 62.3996 26.6987H48.6476V63.044L64.3568 46.4878L64.3632 28.6586ZM44.4806 64.3633C45.0005 64.3618 45.4986 64.1543 45.8657 63.7861C46.2328 63.4179 46.439 62.9191 46.439 62.399V48.6437H10.1043L26.649 64.3595L44.4806 64.3633ZM8.77686 44.4836C8.77679 44.7415 8.82749 44.9968 8.92609 45.2351C9.02468 45.4734 9.16922 45.6899 9.35147 45.8723C9.53371 46.0547 9.75008 46.1994 9.98823 46.2981C10.2264 46.3969 10.4817 46.4478 10.7395 46.4478H24.4926V10.0998L8.77898 26.6518L8.77686 44.4836Z" fill="#262626"/>
</svg>
