<svg width="16" height="16" viewBox="0 0 16 16" fill="none" xmlns="http://www.w3.org/2000/svg">
<path fill-rule="evenodd" clip-rule="evenodd" d="M7.99993 0.800781C4.02344 0.800781 0.799927 4.0243 0.799927 8.00078C0.799927 11.9772 4.02344 15.2008 7.99993 15.2008C11.9764 15.2008 15.1999 11.9772 15.1999 8.00078C15.1999 4.0243 11.9764 0.800781 7.99993 0.800781Z" fill="#1BD27F"/>
<path fill-rule="evenodd" clip-rule="evenodd" d="M11.9031 5.97061L11.2757 5.30346C11.1458 5.16529 10.9343 5.16434 10.8033 5.30141L6.86822 9.41937L5.20369 7.64912C5.07377 7.51088 4.86222 7.51001 4.73126 7.64707L4.09877 8.30895C3.96781 8.44602 3.96697 8.66911 4.0969 8.80734L6.62413 11.4949C6.75405 11.6332 6.9656 11.6341 7.09656 11.497L11.9012 6.46908C12.0322 6.33201 12.033 6.10885 11.9031 5.97061Z" fill="white"/>
</svg>
