<svg width="24" height="24" viewBox="0 0 24 24" fill="none" xmlns="http://www.w3.org/2000/svg">
<path fill-rule="evenodd" clip-rule="evenodd" d="M12.0002 1.2002C6.03547 1.2002 1.2002 6.03547 1.2002 12.0002C1.2002 17.9648 6.03547 22.8002 12.0002 22.8002C17.9649 22.8002 22.8002 17.9648 22.8002 12.0002C22.8002 6.03547 17.9649 1.2002 12.0002 1.2002Z" fill="#00B663"/>
<path fill-rule="evenodd" clip-rule="evenodd" d="M17.8546 8.95689L16.9135 7.95616C16.7186 7.74892 16.4014 7.74749 16.205 7.95309L10.3023 14.13L7.80554 11.4747C7.61065 11.2673 7.29333 11.266 7.09689 11.4716L6.14816 12.4644C5.95171 12.67 5.95046 13.0046 6.14535 13.212L9.93619 17.2434C10.1311 17.4507 10.4484 17.4521 10.6448 17.2464L17.8518 9.70459C18.0483 9.49899 18.0495 9.16425 17.8546 8.95689Z" fill="white"/>
</svg>
