<svg width="20" height="20" viewBox="0 0 20 20" fill="none" xmlns="http://www.w3.org/2000/svg">
<path fill-rule="evenodd" clip-rule="evenodd" d="M10 1C5.02939 1 1 5.02939 1 10C1 14.9705 5.02939 19 10 19C14.9706 19 19 14.9705 19 10C19 5.02939 14.9706 1 10 1Z" fill="#808080"/>
<path fill-rule="evenodd" clip-rule="evenodd" d="M14.8789 7.46424L14.0946 6.6303C13.9322 6.4576 13.6679 6.45641 13.5041 6.62773L8.58528 11.7752L6.50462 9.56237C6.34221 9.38958 6.07778 9.38848 5.91407 9.55981L5.12347 10.3872C4.95976 10.5585 4.95872 10.8374 5.12112 11.0102L8.28016 14.3696C8.44256 14.5424 8.70699 14.5436 8.8707 14.3722L14.8765 8.08732C15.0402 7.91599 15.0413 7.63703 14.8789 7.46424Z" fill="white"/>
</svg>
