<svg width="93" height="22" viewBox="0 0 93 22" fill="none" xmlns="http://www.w3.org/2000/svg">
<path d="M0 4C0 1.79086 1.79086 0 4 0H89C91.2091 0 93 1.79086 93 4V18C93 20.2091 91.2091 22 89 22H4C1.79086 22 0 20.2091 0 18V4Z" fill="#1BD27F"/>
<path fill-rule="evenodd" clip-rule="evenodd" d="M11.6476 5.70995C11.1241 5.57321 10.5714 5.5 10 5.5C6.68629 5.5 4 7.96243 4 11C4 13.2268 5.44366 15.1445 7.51984 16.0096L8.7971 12.2248H6.72727C6.62334 12.2248 6.52844 12.1707 6.48256 12.0852C6.43668 11.9997 6.44779 11.8978 6.51122 11.8223L11.6476 5.70995ZM8.4293 16.3096L13.485 10.5666C13.5509 10.4917 13.5641 10.3887 13.5188 10.3018C13.4735 10.2149 13.3778 10.1596 13.2727 10.1596H10.8633L12.4898 5.99442C14.5608 6.86142 16 8.77664 16 11C16 14.0376 13.3137 16.5 10 16.5C9.45653 16.5 8.92993 16.4338 8.4293 16.3096Z" fill="white"/>
<path d="M23.3216 7.77V8.84H20.1166V10.98H22.8216V12.055H20.1166V15H18.7616V7.77H23.3216ZM30.2995 15H29.2595C29.1428 15 29.0461 14.9717 28.9695 14.915C28.8961 14.855 28.8428 14.7817 28.8095 14.695L28.2695 13.22H25.2745L24.7345 14.695C24.7078 14.7717 24.6545 14.8417 24.5745 14.905C24.4978 14.9683 24.4028 15 24.2895 15H23.2445L26.0845 7.77H27.4595L30.2995 15ZM25.6195 12.27H27.9245L27.0445 9.865C27.0045 9.75833 26.9595 9.63333 26.9095 9.49C26.8628 9.34333 26.8161 9.185 26.7695 9.015C26.7228 9.185 26.6761 9.34333 26.6295 9.49C26.5861 9.63667 26.5428 9.765 26.4995 9.875L25.6195 12.27ZM35.2191 9.085C35.1824 9.15833 35.1391 9.21 35.0891 9.24C35.0424 9.27 34.9857 9.285 34.9191 9.285C34.8524 9.285 34.7774 9.26 34.6941 9.21C34.6107 9.15667 34.5124 9.09833 34.3991 9.035C34.2857 8.97167 34.1524 8.915 33.9991 8.865C33.8491 8.81167 33.6707 8.785 33.4641 8.785C33.2774 8.785 33.1141 8.80833 32.9741 8.855C32.8374 8.89833 32.7207 8.96 32.6241 9.04C32.5307 9.12 32.4607 9.21667 32.4141 9.33C32.3674 9.44 32.3441 9.56167 32.3441 9.695C32.3441 9.865 32.3907 10.0067 32.4841 10.12C32.5807 10.2333 32.7074 10.33 32.8641 10.41C33.0207 10.49 33.1991 10.5617 33.3991 10.625C33.5991 10.6883 33.8024 10.7567 34.0091 10.83C34.2191 10.9 34.4241 10.9833 34.6241 11.08C34.8241 11.1733 35.0024 11.2933 35.1591 11.44C35.3157 11.5833 35.4407 11.76 35.5341 11.97C35.6307 12.18 35.6791 12.435 35.6791 12.735C35.6791 13.0617 35.6224 13.3683 35.5091 13.655C35.3991 13.9383 35.2357 14.1867 35.0191 14.4C34.8057 14.61 34.5441 14.7767 34.2341 14.9C33.9241 15.02 33.5691 15.08 33.1691 15.08C32.9391 15.08 32.7124 15.0567 32.4891 15.01C32.2657 14.9667 32.0507 14.9033 31.8441 14.82C31.6407 14.7367 31.4491 14.6367 31.2691 14.52C31.0924 14.4033 30.9341 14.2733 30.7941 14.13L31.1841 13.485C31.2207 13.4383 31.2641 13.4 31.3141 13.37C31.3674 13.3367 31.4257 13.32 31.4891 13.32C31.5724 13.32 31.6624 13.355 31.7591 13.425C31.8557 13.4917 31.9691 13.5667 32.0991 13.65C32.2324 13.7333 32.3874 13.81 32.5641 13.88C32.7441 13.9467 32.9591 13.98 33.2091 13.98C33.5924 13.98 33.8891 13.89 34.0991 13.71C34.3091 13.5267 34.4141 13.265 34.4141 12.925C34.4141 12.735 34.3657 12.58 34.2691 12.46C34.1757 12.34 34.0507 12.24 33.8941 12.16C33.7374 12.0767 33.5591 12.0067 33.3591 11.95C33.1591 11.8933 32.9557 11.8317 32.7491 11.765C32.5424 11.6983 32.3391 11.6183 32.1391 11.525C31.9391 11.4317 31.7607 11.31 31.6041 11.16C31.4474 11.01 31.3207 10.8233 31.2241 10.6C31.1307 10.3733 31.0841 10.095 31.0841 9.765C31.0841 9.50167 31.1357 9.245 31.2391 8.995C31.3457 8.745 31.4991 8.52333 31.6991 8.33C31.9024 8.13667 32.1507 7.98167 32.4441 7.865C32.7374 7.74833 33.0724 7.69 33.4491 7.69C33.8757 7.69 34.2691 7.75667 34.6291 7.89C34.9891 8.02333 35.2957 8.21 35.5491 8.45L35.2191 9.085ZM42.1004 7.77V8.875H39.9254V15H38.5804V8.875H36.3954V7.77H42.1004ZM48.0712 7.69C48.3646 7.69 48.6262 7.735 48.8562 7.825C49.0896 7.915 49.2879 8.035 49.4512 8.185C49.6179 8.335 49.7479 8.50667 49.8412 8.7C49.9379 8.89333 49.9946 9.09333 50.0112 9.3L49.2262 9.465C49.2162 9.46833 49.2046 9.47 49.1912 9.47C49.1812 9.47 49.1712 9.47 49.1612 9.47C49.1046 9.47 49.0529 9.455 49.0062 9.425C48.9629 9.39167 48.9279 9.34167 48.9012 9.275C48.8712 9.18833 48.8329 9.10667 48.7862 9.03C48.7396 8.95 48.6829 8.88167 48.6162 8.825C48.5496 8.765 48.4712 8.71833 48.3812 8.685C48.2912 8.64833 48.1879 8.63 48.0712 8.63C47.9312 8.63 47.8062 8.655 47.6962 8.705C47.5862 8.75167 47.4929 8.81667 47.4162 8.9C47.3396 8.98 47.2812 9.075 47.2412 9.185C47.2012 9.29167 47.1812 9.405 47.1812 9.525C47.1812 9.625 47.1912 9.72167 47.2112 9.815C47.2346 9.90833 47.2696 10.0017 47.3162 10.095C47.3629 10.1883 47.4229 10.285 47.4962 10.385C47.5729 10.4817 47.6662 10.5867 47.7762 10.7L49.6962 12.695C49.8062 12.485 49.8946 12.2633 49.9612 12.03C50.0279 11.7967 50.0712 11.56 50.0912 11.32C50.0979 11.2433 50.1229 11.1817 50.1662 11.135C50.2096 11.0883 50.2696 11.065 50.3462 11.065H51.1212C51.1179 11.505 51.0546 11.925 50.9312 12.325C50.8079 12.725 50.6312 13.0933 50.4012 13.43L51.9162 15H50.7062C50.6429 15 50.5862 14.9967 50.5362 14.99C50.4896 14.9833 50.4446 14.9717 50.4012 14.955C50.3579 14.935 50.3162 14.91 50.2762 14.88C50.2362 14.85 50.1946 14.8117 50.1512 14.765L49.6512 14.25C49.3312 14.51 48.9746 14.7133 48.5812 14.86C48.1912 15.0067 47.7679 15.08 47.3112 15.08C47.0312 15.08 46.7579 15.0333 46.4912 14.94C46.2246 14.8433 45.9862 14.705 45.7762 14.525C45.5662 14.345 45.3962 14.1283 45.2662 13.875C45.1396 13.6183 45.0762 13.33 45.0762 13.01C45.0762 12.7867 45.1129 12.575 45.1862 12.375C45.2596 12.1717 45.3612 11.9833 45.4912 11.81C45.6212 11.6367 45.7746 11.48 45.9512 11.34C46.1312 11.2 46.3279 11.08 46.5412 10.98C46.3646 10.73 46.2346 10.4867 46.1512 10.25C46.0712 10.01 46.0312 9.77167 46.0312 9.535C46.0312 9.285 46.0762 9.04833 46.1662 8.825C46.2596 8.59833 46.3929 8.40167 46.5662 8.235C46.7429 8.06833 46.9579 7.93667 47.2112 7.84C47.4646 7.74 47.7512 7.69 48.0712 7.69ZM46.3312 12.91C46.3312 13.0933 46.3629 13.2583 46.4262 13.405C46.4896 13.5517 46.5762 13.6767 46.6862 13.78C46.7962 13.88 46.9229 13.9583 47.0662 14.015C47.2129 14.0683 47.3679 14.095 47.5312 14.095C47.8246 14.095 48.0912 14.05 48.3312 13.96C48.5746 13.8667 48.7962 13.7383 48.9962 13.575L47.0962 11.625C46.8296 11.7983 46.6346 11.9933 46.5112 12.21C46.3912 12.4267 46.3312 12.66 46.3312 12.91ZM60.1285 13.295C60.2018 13.295 60.2652 13.3233 60.3185 13.38L60.8485 13.955C60.5552 14.3183 60.1935 14.5967 59.7635 14.79C59.3368 14.9833 58.8235 15.08 58.2235 15.08C57.6868 15.08 57.2035 14.9883 56.7735 14.805C56.3468 14.6217 55.9818 14.3667 55.6785 14.04C55.3752 13.7133 55.1418 13.3233 54.9785 12.87C54.8185 12.4167 54.7385 11.9217 54.7385 11.385C54.7385 10.8417 54.8285 10.345 55.0085 9.895C55.1885 9.44167 55.4418 9.05167 55.7685 8.725C56.0952 8.39833 56.4852 8.145 56.9385 7.965C57.3952 7.78167 57.8985 7.69 58.4485 7.69C58.9852 7.69 59.4535 7.77667 59.8535 7.95C60.2568 8.12 60.6018 8.34667 60.8885 8.63L60.4385 9.255C60.4118 9.295 60.3768 9.33 60.3335 9.36C60.2935 9.39 60.2368 9.405 60.1635 9.405C60.0868 9.405 60.0085 9.375 59.9285 9.315C59.8485 9.255 59.7468 9.19 59.6235 9.12C59.5002 9.05 59.3435 8.985 59.1535 8.925C58.9668 8.865 58.7285 8.835 58.4385 8.835C58.0985 8.835 57.7852 8.895 57.4985 9.015C57.2152 9.13167 56.9702 9.3 56.7635 9.52C56.5602 9.74 56.4002 10.0083 56.2835 10.325C56.1702 10.6383 56.1135 10.9917 56.1135 11.385C56.1135 11.7917 56.1702 12.1533 56.2835 12.47C56.4002 12.7867 56.5568 13.0533 56.7535 13.27C56.9502 13.4867 57.1818 13.6533 57.4485 13.77C57.7152 13.8833 58.0018 13.94 58.3085 13.94C58.4918 13.94 58.6568 13.93 58.8035 13.91C58.9535 13.89 59.0902 13.8583 59.2135 13.815C59.3402 13.7717 59.4585 13.7167 59.5685 13.65C59.6818 13.58 59.7935 13.495 59.9035 13.395C59.9368 13.365 59.9718 13.3417 60.0085 13.325C60.0452 13.305 60.0852 13.295 60.1285 13.295ZM68.2675 15H66.9125V11.84H63.5225V15H62.1675V7.77H63.5225V10.88H66.9125V7.77H68.2675V15ZM74.5861 7.77V8.84H71.3811V10.845H73.9061V11.88H71.3811V13.925H74.5861V15H70.0261V7.77H74.5861ZM82.4037 15H81.3637C81.2471 15 81.1504 14.9717 81.0737 14.915C81.0004 14.855 80.9471 14.7817 80.9137 14.695L80.3737 13.22H77.3787L76.8387 14.695C76.8121 14.7717 76.7587 14.8417 76.6787 14.905C76.6021 14.9683 76.5071 15 76.3937 15H75.3487L78.1887 7.77H79.5637L82.4037 15ZM77.7237 12.27H80.0287L79.1487 9.865C79.1087 9.75833 79.0637 9.63333 79.0137 9.49C78.9671 9.34333 78.9204 9.185 78.8737 9.015C78.8271 9.185 78.7804 9.34333 78.7337 9.49C78.6904 9.63667 78.6471 9.765 78.6037 9.875L77.7237 12.27ZM84.8384 12.455V15H83.4934V7.77H85.8484C86.3317 7.77 86.75 7.82667 87.1034 7.94C87.4567 8.05333 87.7484 8.21167 87.9784 8.415C88.2084 8.61833 88.3784 8.86167 88.4884 9.145C88.5984 9.42833 88.6534 9.73833 88.6534 10.075C88.6534 10.425 88.595 10.7467 88.4784 11.04C88.3617 11.33 88.1867 11.58 87.9534 11.79C87.72 12 87.4284 12.1633 87.0784 12.28C86.7284 12.3967 86.3184 12.455 85.8484 12.455H84.8384ZM84.8384 11.405H85.8484C86.095 11.405 86.31 11.375 86.4934 11.315C86.6767 11.2517 86.8284 11.1633 86.9484 11.05C87.0684 10.9333 87.1584 10.7933 87.2184 10.63C87.2784 10.4633 87.3084 10.2783 87.3084 10.075C87.3084 9.88167 87.2784 9.70667 87.2184 9.55C87.1584 9.39333 87.0684 9.26 86.9484 9.15C86.8284 9.04 86.6767 8.95667 86.4934 8.9C86.31 8.84 86.095 8.81 85.8484 8.81H84.8384V11.405Z" fill="white"/>
</svg>
