<svg width="190" height="95" viewBox="0 0 190 95" fill="none" xmlns="http://www.w3.org/2000/svg">
<path d="M158.752 69.6793C158.749 69.6793 158.165 70.2007 158.165 70.2007C157.329 70.9476 156.469 71.7473 155.432 71.3473C155.145 71.2431 154.943 70.8612 154.895 70.5648C154.848 68.4268 155.81 66.4457 156.744 64.5168L156.983 64.0123C159.669 59.5281 162.791 54.2443 167.376 50.5773C168.148 50.0199 168.987 49.5515 169.871 49.9168C170.075 50.1075 170.312 50.4381 170.312 50.768C170.312 50.8727 170.219 51.1506 170.165 51.2371C168.885 53.3064 167.665 55.4789 166.48 57.5643C164.162 61.6841 161.758 65.942 158.752 69.6798L158.752 69.6793ZM133.91 59.1114C133.735 59.2337 130.638 58.1904 130.039 55.3226C129.531 52.8535 131.232 50.9242 132.877 49.9517C133.583 49.3952 134.646 49.2045 135.426 49.4815C136.151 49.9688 136.347 50.8386 136.347 51.7757C136.347 52.3505 136.271 52.9409 136.203 53.4796C136.203 53.4796 136.191 53.5843 136.188 53.6017C135.672 55.5304 134.883 57.4253 133.911 59.1115L133.91 59.1114ZM122.079 70.7747C121.763 70.3054 121.658 69.7922 121.648 69.2374C121.587 65.8292 125.254 59.7259 127.843 56.4009H127.848C128.933 58.7759 131.389 60.3026 132.872 60.9459C131.03 65.0482 124.714 73.8337 122.08 70.7747H122.079ZM166.781 71.3799C166.168 71.7969 165.307 71.4763 165.629 70.5206C166.431 68.0871 169.619 63.1281 169.619 63.1281L178.501 47.375H172.417C172.128 47.85 171.51 48.9408 171.51 48.9408C171.228 48.472 170.387 47.4293 170.04 47.2042C168.554 46.2649 166.373 46.709 164.869 47.5604C158.328 51.385 153.556 58.9416 149.792 64.8335C149.792 64.8335 145.83 71.3839 143.631 71.871C141.914 72.0102 142.091 69.6974 142.166 69.1585C142.829 65.2645 144.371 61.5625 145.924 58.2078C149.083 56.0178 152.689 53.1499 155.965 50.004C163.075 43.2071 169.069 35.5068 169.945 33.7863C169.945 33.7863 168.997 33.9778 167.877 34.0122C162.407 41.6427 151.213 52.7331 147.82 54.3833C149.323 50.7673 159.036 33.5078 167.302 25.2522L168.603 24.0002C170.614 22.0361 172.698 20.0199 174.322 19.6896C174.494 19.6723 174.715 19.6896 174.905 20.09C174.978 21.6193 174.409 22.7493 173.756 24.0354L172.84 25.9129C172.84 25.9129 174.137 25.6695 174.988 25.3906C175.976 23.5316 177.07 21.4452 176.667 18.9602C176.532 18.1605 175.954 17.5523 175.197 17.4131C172.731 16.9438 170.044 18.7683 167.882 20.2462L167.794 20.298C156.679 29.0063 147.293 41.5564 139.087 58.6946C138.492 59.1458 136.194 59.6852 135.804 59.4242C136.614 57.756 137.635 55.5132 138.145 53.0798C138.233 52.3844 138.316 51.6721 138.316 50.977C138.316 49.4809 137.957 48.0735 136.616 47.1004C135.045 46.3181 133.103 46.6834 131.794 47.2741C125.928 49.7075 121.544 55.722 118.38 60.6749C116.679 63.8218 114.982 67.1922 114.513 71.0519C114.182 74.0757 114.855 76.0225 116.575 76.9963C118.343 77.8995 120.568 76.9606 121.443 76.5092C127.385 73.3806 131.537 67.1061 134.81 61.3698C134.94 61.3527 136.727 61.3009 138.079 60.9527C138.097 60.9527 138.105 60.9527 138.134 60.971C138.057 61.2306 137.359 63.317 137.359 63.317C135.284 69.4001 134.325 73.5372 136.284 75.9883C139.084 79.4474 143.72 75.8671 147.491 71.1385C146.681 76.8048 149.618 77.6916 151.856 77.2575C154.428 76.5625 157.293 73.8156 158.623 72.4081C158.196 74.0591 158.312 77.0143 160.651 77.3094C162.255 77.6058 163.455 76.7337 164.843 75.9861C169.823 73.2743 175.785 64.2383 177.333 61.6257H175.303C173.103 64.951 170.303 69.3108 166.781 71.3804L166.781 71.3799ZM90.0571 37.6374H95.7569L98.9738 32.4123H93.2728L90.0571 37.6374ZM181.107 23.7568C176.761 26.2254 172.256 27.8241 166.802 27.268C165.29 28.9719 163.819 30.7272 162.462 32.5347C170.117 34.4815 178.231 30.1535 182.757 26.0345C187.545 21.8802 190 16.6487 190 16.6487C190 16.6487 186.411 20.7504 181.107 23.7569L181.107 23.7568ZM133.179 22.4363C132.273 32.8303 124.193 38.9323 122.194 39.4177C120.983 39.6607 118.915 39.1223 120.761 34.76C123.478 28.8844 128.118 23.8966 133.096 21.3411C133.218 21.7757 133.215 22.0531 133.179 22.436L133.179 22.4363ZM117.435 48.63C116.857 47.3788 115.482 46.5791 114.018 46.6658C109.262 47.1007 104.611 51.0114 102.169 56.6257C100.887 59.5114 100.188 61.8924 99.7289 65.6814C101.208 63.9785 104.224 61.1803 107.647 59.6506C107.647 59.6506 108.113 56.0179 110.487 52.7848C111.386 51.4461 113.185 49.2909 115.204 49.8643C116.969 50.4557 116.349 55.34 114.003 60.0665C112.268 63.5433 109.613 67.0205 106.926 69.4186C104.551 71.435 101.037 73.8682 97.9621 71.9912C96.0255 70.8445 95.0378 68.4453 95.2465 65.3514C96.1718 56.574 100.167 49.0996 105.885 40.5827C111.78 32.6741 118.279 24.557 127.035 20.2278C128.821 19.3241 130.474 19.1155 131.904 19.6718C131.904 19.6718 123.685 24.191 119.767 32.552C118.771 34.6729 117.385 37.5401 118.781 40.078C119.51 41.3987 120.805 41.5032 121.848 41.4337C126.65 40.321 129.752 35.8367 132.287 31.735C133.757 28.6238 135.063 25.5298 135.063 22.0877C135.063 21.6706 135.042 21.1147 135.006 20.6971C137.3 19.4809 142.005 21.6357 142.005 21.6357C145.681 22.8528 153.51 28.8499 156.15 29.9965C157.438 28.502 159.554 26.2426 160.746 25.1125L159.021 24.0521C156.259 22.366 153.339 20.7668 150.465 19.1852C143.939 15.6225 138.626 16.8736 135.922 17.8471C134.86 18.2293 133.889 18.5596 133.889 18.5596C131.882 16.3697 128.592 16.5777 126.167 17.1691C117.447 19.6719 109.352 25.7726 100.672 36.3584C94.2913 44.6496 90.3326 51.8112 88.2235 58.885C86.5973 63.6472 86.1031 70.6518 90.0723 74.8062C93.4469 78.3336 97.9217 77.5696 101.082 76.3011C107.928 72.929 114.082 65.6628 117.148 57.3028C117.888 54.8175 118.71 51.3065 117.436 48.6293L117.435 48.63ZM41.5438 40.5655C41.5324 40.6002 40.381 43.2419 40.381 43.2419C40.2145 43.3808 39.9514 43.3115 39.6498 43.2419L39.133 43.1545C37.5101 42.6507 36.286 41.5729 35.9086 40.2869C35.388 37.7838 37.5263 35.8197 38.4684 35.1074C39.3724 34.4811 40.7777 34.151 41.5938 34.7944C42.097 35.3855 42.2878 36.1501 42.2878 36.9849C42.288 38.1145 41.9393 39.3832 41.5439 40.5655H41.5438ZM39.0705 45.5882C39.0705 45.5882 39.0182 45.7452 38.9924 45.7965C38.9858 45.7965 36.3751 50.0545 36.3751 50.0545C34.7995 52.158 32.8323 54.8007 30.3732 56.069C29.6443 56.3124 28.6367 56.4692 28.1233 55.8265C27.0348 54.5226 27.5958 52.715 28.0516 51.255L28.2129 50.7335C29.5196 47.188 31.593 44.0587 33.611 41.1555C33.6362 41.1384 33.6927 41.1211 33.7132 41.1211C33.7179 41.1385 33.726 41.1385 33.7295 41.1733C34.9959 43.6063 37.3704 44.7357 39.1463 45.2579C39.157 45.2579 39.1684 45.2752 39.1684 45.3102C39.1686 45.3619 39.1396 45.432 39.0705 45.5878L39.0705 45.5882ZM71.728 42.79C72.8958 41.1738 76.2947 36.8456 77.1233 36.1157C79.9102 33.6639 81.0241 34.7427 81.1205 35.507C78.5196 40.165 75.4499 45.5011 72.5638 50.2986C72.5695 50.2815 71.6605 51.6716 71.6605 51.6716C70.3858 53.618 69.1023 55.2865 67.0088 56.4511C66.7103 56.5385 66.2182 56.5734 65.8906 56.3292C65.4964 56.0685 65.3408 55.6338 65.3852 55.1816C65.5107 53.6873 67.0324 49.1168 71.728 42.7897L71.728 42.79ZM42.786 32.2221C39.1831 29.8582 31.9416 34.3774 26.1418 42.1288C20.8379 49.0821 18.5476 57.1636 21.0401 60.901C24.7478 65.2984 31.6308 58.9021 34.5578 55.4785L34.9354 55.0783C36.9258 52.9403 38.4637 50.3677 39.9522 47.8993C39.9522 47.8993 41.3202 45.6397 41.3856 45.5352C42.2311 45.3794 43.2495 45.1359 44.3971 44.8056C44.3808 44.8573 40.0063 52.2099 40.4527 55.8599C40.5916 56.9733 40.4854 61.0405 44.4565 62.2743C49.749 63.1614 53.9756 59.0588 57.7034 55.4086C57.7034 55.4086 58.3387 54.8009 58.6981 54.4539C58.6072 54.818 58.4886 55.3036 58.4886 55.3036C56.9391 60.6921 59.0277 61.8226 60.3343 62.2399C64.2827 63.3877 68.9998 57.6513 69.015 57.6513C68.8927 59.4582 68.535 60.9531 70.4398 62.1525C72.2377 62.7961 74.0573 61.815 75.4402 60.8937C80.4219 57.3826 84.4351 51.8876 87.6763 47.1375H85.6086C85.5842 47.1375 80.5063 54.4973 77.2091 56.0969C77.2044 56.0969 76.604 56.4049 76.2582 56.1612C75.8302 55.7959 75.999 55.0369 76.2629 54.4992C76.2795 54.464 88.994 32.4124 88.994 32.4124H82.9909C82.9909 32.4124 82.3351 33.4734 82.2817 33.5429C82.2413 33.5082 82.1451 33.3258 82.0784 33.2384C78.3591 28.0936 69.9363 36.0072 63.595 45.1839C61.1537 48.7127 58.0455 52.6859 54.8226 55.5542C54.8226 55.5542 50.048 59.9309 48.008 56.7863C47.2622 55.4651 47.4917 53.5335 47.9123 52.265C50.2875 45.5036 54.3804 39.3677 59.0378 35.6646C60.3527 34.6397 61.7817 34.3433 62.4909 34.778C63.1666 35.1784 63.2757 36.1683 62.8481 36.8463C61.7634 36.8117 60.8945 37.1413 60.1879 37.8714C58.7962 39.3316 58.3126 40.7397 58.7551 42.0609C60.9048 45.12 65.1919 39.0711 64.9845 35.3862C64.9104 34.0649 64.2055 32.8137 63.1537 32.2048C61.586 31.2666 59.1942 31.5096 57.6465 32.2575C55.5745 33.0394 52.2946 35.768 50.38 37.889C47.9699 40.5488 43.8364 43.5033 42.5436 43.1724C42.9671 42.0421 46.4586 34.8986 42.7856 32.2226L42.786 32.2221ZM72.9602 70.896C65.8902 66.3417 56.2951 65.5425 40.8214 69.8356C24.3254 73.7121 18.8248 76.1971 11.6019 71.2086C8.82693 68.758 7.83198 64.8123 8.57498 59.1292C10.2981 49.8642 14.9545 40.9479 23.226 31.0583C27.8429 25.9135 32.1253 21.4983 37.7802 19.7256C42.1141 18.6134 41.709 22.0194 41.1845 22.5065C40.6312 22.5065 39.7016 22.5937 38.9832 23.0625C38.4001 23.5147 36.7996 24.9749 36.7136 26.939C36.5896 29.9458 39.7014 29.3199 41.0436 27.6691C42.4902 25.8088 44.6281 22.2461 42.9464 18.9259C42.2415 17.744 41.0236 16.9273 39.5114 16.6492C34.3334 16.3532 29.5106 18.8215 25.0598 21.5505C15.3289 28.3117 7.54261 37.6807 3.13741 47.936C0.597273 54.1236 -1.69985 62.987 1.74356 70.2014C4.40719 75.207 9.9372 77.8659 16.5352 77.3099C21.1625 76.8237 26.7573 75.3281 30.5213 74.4252C34.2844 73.5208 53.5476 66.899 59.8775 78.4238C59.8775 78.4238 61.9823 74.338 67.2422 74.2508C71.5666 73.8518 77.8053 75.5028 82.3483 78.8394C80.8347 76.5632 76.5435 73.2085 72.9636 70.8964L72.9602 70.896Z" fill="#C80117"/>
</svg>
