<svg width="80" height="27" viewBox="0 0 80 27" fill="none" xmlns="http://www.w3.org/2000/svg">
<g clip-path="url(#clip0)">
<path d="M66.5817 22.5077C66.5806 22.5077 66.3368 22.7251 66.3368 22.7251C65.9885 23.0365 65.6301 23.3698 65.1974 23.2031C65.0779 23.1596 64.9938 23.0004 64.9736 22.8769C64.9539 21.9856 65.3553 21.1597 65.7445 20.3556L65.8443 20.1453C66.9639 18.2759 68.2653 16.0733 70.1766 14.5445C70.4986 14.3122 70.8482 14.1169 71.217 14.2692C71.3019 14.3487 71.4007 14.4865 71.4007 14.6241C71.4007 14.6677 71.362 14.7836 71.3396 14.8196C70.8058 15.6822 70.2974 16.5879 69.8031 17.4573C68.8369 19.1747 67.8347 20.9497 66.5817 22.5079L66.5817 22.5077ZM56.2258 18.1022C56.1526 18.1532 54.8614 17.7183 54.6119 16.5228C54.4002 15.4935 55.109 14.6892 55.7948 14.2838C56.0892 14.0518 56.5325 13.9723 56.8578 14.0877C57.1596 14.2909 57.2414 14.6535 57.2414 15.0442C57.2414 15.2838 57.2097 15.5299 57.1816 15.7544C57.1816 15.7544 57.1763 15.7981 57.1754 15.8053C56.9603 16.6094 56.6311 17.3993 56.2258 18.1023L56.2258 18.1022ZM51.2935 22.9644C51.1618 22.7687 51.1182 22.5548 51.1138 22.3235C51.0886 20.9027 52.6172 18.3584 53.6962 16.9723H53.6986C54.1508 17.9623 55.1747 18.5988 55.7928 18.867C55.0251 20.5771 52.3921 24.2396 51.2938 22.9644H51.2935ZM69.9286 23.2167C69.6731 23.3905 69.3141 23.2568 69.4483 22.8584C69.7827 21.844 71.112 19.7767 71.112 19.7767L74.8146 13.2096H72.2783C72.1578 13.4076 71.9 13.8623 71.9 13.8623C71.7827 13.6669 71.4318 13.2322 71.2874 13.1384C70.6678 12.7468 69.7587 12.9319 69.1315 13.2869C66.4049 14.8813 64.4155 18.0314 62.8464 20.4876C62.8464 20.4876 61.1949 23.2183 60.278 23.4214C59.5623 23.4794 59.6361 22.5153 59.6672 22.2906C59.9439 20.6673 60.5866 19.124 61.2341 17.7255C62.551 16.8126 64.0539 15.617 65.4198 14.3055C68.3839 11.4721 70.8827 8.26201 71.2479 7.54479C71.2479 7.54479 70.8525 7.62459 70.3857 7.63895C68.1053 10.8199 63.4388 15.4433 62.0242 16.1312C62.6509 14.6238 66.7002 7.42865 70.1461 3.98709L70.6883 3.46519C71.5268 2.64639 72.3956 1.80588 73.0726 1.66817C73.1441 1.66097 73.2361 1.66817 73.3156 1.8351C73.3459 2.47264 73.1085 2.94369 72.8362 3.47985L72.4547 4.26253C72.4547 4.26253 72.9952 4.16105 73.3501 4.04481C73.762 3.26985 74.2181 2.40007 74.05 1.36412C73.9938 1.03076 73.7525 0.777189 73.4372 0.71917C72.4093 0.523527 71.289 1.28412 70.3877 1.90023L70.3512 1.92182C65.7176 5.55209 61.8047 10.7839 58.3838 17.9284C58.1359 18.1166 57.1779 18.3414 57.0151 18.2326C57.3529 17.5372 57.7782 16.6022 57.9911 15.5878C58.0279 15.2979 58.0622 15.0009 58.0622 14.7112C58.0622 14.0875 57.9125 13.5008 57.3538 13.0951C56.6987 12.769 55.8891 12.9213 55.3433 13.1675C52.898 14.182 51.0704 16.6893 49.7516 18.754C49.0423 20.0659 48.3351 21.4709 48.1393 23.0799C48.0014 24.3405 48.2822 25.1521 48.9989 25.558C49.736 25.9345 50.6637 25.5432 51.0282 25.3549C53.5055 24.0507 55.2365 21.435 56.6008 19.0437C56.6551 19.0366 57.4 19.015 57.9635 18.8698C57.971 18.8698 57.9742 18.8698 57.9867 18.8774C57.9544 18.9857 57.6632 19.8554 57.6632 19.8554C56.7985 22.3914 56.3986 24.116 57.2154 25.1378C58.3826 26.5798 60.3149 25.0873 61.887 23.116C61.5496 25.4782 62.7738 25.8479 63.707 25.6669C64.779 25.3772 65.9735 24.2321 66.5279 23.6453C66.3499 24.3336 66.3983 25.5655 67.3734 25.6886C68.0419 25.8121 68.5421 25.4486 69.1208 25.1369C71.1969 24.0064 73.6824 20.2395 74.3275 19.1504H73.4815C72.5643 20.5366 71.3971 22.3541 69.9289 23.2169L69.9286 23.2167ZM37.9443 9.15021H40.3204L41.6615 6.972H39.2849L37.9443 9.15021ZM75.9009 3.36371C74.0891 4.39281 72.211 5.05926 69.9374 4.82746C69.3073 5.53775 68.6938 6.26951 68.1283 7.02301C71.3193 7.83457 74.7022 6.03034 76.5889 4.31325C78.5847 2.58138 79.6082 0.400518 79.6082 0.400518C79.6082 0.400518 78.1122 2.11041 75.9008 3.36375L75.9009 3.36371ZM55.9208 2.81322C55.543 7.14626 52.1748 9.69001 51.3414 9.89238C50.8364 9.99367 49.9746 9.76921 50.7439 7.95069C51.8769 5.50128 53.8111 3.422 55.8864 2.35666C55.9369 2.53785 55.9356 2.65349 55.9208 2.8131L55.9208 2.81322ZM49.3577 13.7328C49.1164 13.2112 48.5435 12.8778 47.9331 12.9139C45.9506 13.0952 44.0115 14.7255 42.9933 17.066C42.459 18.269 42.1675 19.2615 41.9763 20.8411C42.5927 20.1312 43.8501 18.9647 45.2771 18.327C45.2771 18.327 45.4712 16.8126 46.4613 15.4648C46.8359 14.9067 47.5857 14.0083 48.4276 14.2473C49.1631 14.4939 48.9046 16.53 47.927 18.5004C47.2037 19.9498 46.0967 21.3994 44.9767 22.399C43.9866 23.2396 42.5215 24.254 41.2397 23.4715C40.4324 22.9935 40.0206 21.9933 40.1077 20.7035C40.4934 17.0445 42.159 13.9285 44.5425 10.378C47.0003 7.08111 49.7096 3.69729 53.3595 1.89255C54.1039 1.51582 54.7933 1.42887 55.3892 1.66077C55.3892 1.66077 51.9631 3.54472 50.3298 7.03024C49.9144 7.91439 49.3366 9.10963 49.9184 10.1676C50.2225 10.7182 50.7624 10.7618 51.1971 10.7328C53.1989 10.269 54.4923 8.39954 55.5491 6.68965C56.1618 5.39263 56.7063 4.10281 56.7063 2.66789C56.7063 2.49403 56.6973 2.26227 56.6826 2.08817C57.639 1.58116 59.6002 2.47946 59.6002 2.47946C61.1327 2.98686 64.3962 5.48688 65.4968 5.9649C66.0337 5.34185 66.9161 4.39996 67.4129 3.92887L66.6937 3.48682C65.5422 2.78393 64.325 2.11724 63.127 1.45792C60.4063 -0.0273009 58.1916 0.49428 57.0645 0.900099C56.6215 1.05941 56.2167 1.19713 56.2167 1.19713C55.3802 0.284182 54.0084 0.370914 52.9977 0.617448C49.3626 1.66081 45.9878 4.20404 42.3696 8.617C39.7094 12.0734 38.0592 15.0589 37.18 18.0078C36.502 19.9931 36.296 22.9131 37.9506 24.645C39.3574 26.1155 41.2229 25.797 42.5403 25.2682C45.3945 23.8625 47.9597 20.8334 49.2381 17.3482C49.5465 16.3122 49.8889 14.8485 49.3578 13.7325L49.3577 13.7328ZM17.7203 10.3709C17.7155 10.3853 17.2355 11.4866 17.2355 11.4866C17.1661 11.5445 17.0564 11.5156 16.9307 11.4866L16.7152 11.4502C16.0387 11.2402 15.5284 10.7908 15.3711 10.2547C15.1541 9.21124 16.0455 8.39247 16.4382 8.09552C16.815 7.83443 17.4009 7.69679 17.7411 7.96503C17.9509 8.21146 18.0304 8.53017 18.0304 8.87821C18.0305 9.3491 17.8851 9.878 17.7203 10.3709H17.7203ZM16.6892 12.4647C16.6892 12.4647 16.6674 12.5302 16.6566 12.5516C16.6539 12.5516 15.5656 14.3266 15.5656 14.3266C14.9087 15.2035 14.0887 16.3052 13.0635 16.8339C12.7596 16.9354 12.3396 17.0007 12.1256 16.7328C11.6718 16.1893 11.9057 15.4357 12.0957 14.8271L12.1629 14.6097C12.7077 13.1316 13.572 11.8271 14.4133 10.6168C14.4238 10.6097 14.4473 10.6025 14.4558 10.6025C14.4578 10.6097 14.4612 10.6097 14.4627 10.6243C14.9906 11.6385 15.9805 12.1093 16.7208 12.327C16.7253 12.327 16.73 12.3342 16.73 12.3488C16.7301 12.3704 16.718 12.3996 16.6892 12.4645L16.6892 12.4647ZM30.3034 11.2982C30.7902 10.6245 32.2071 8.82011 32.5525 8.51583C33.7143 7.49374 34.1787 7.94348 34.2189 8.26207C33.1346 10.2039 31.8549 12.4284 30.6518 14.4284C30.6541 14.4212 30.2752 15.0007 30.2752 15.0007C29.7438 15.8121 29.2088 16.5077 28.336 16.9932C28.2116 17.0296 28.0064 17.0442 27.8699 16.9424C27.7055 16.8337 27.6407 16.6525 27.6592 16.464C27.7115 15.841 28.3458 13.9357 30.3033 11.2981L30.3034 11.2982ZM18.2381 6.89268C16.7361 5.90726 13.7173 7.7912 11.2995 11.0226C9.08845 13.9212 8.13368 17.2902 9.17272 18.8482C10.7184 20.6814 13.5877 18.015 14.8079 16.5877L14.9654 16.4209C15.7951 15.5296 16.4362 14.4572 17.0568 13.4281C17.0568 13.4281 17.627 12.4862 17.6543 12.4426C18.0068 12.3777 18.4313 12.2762 18.9097 12.1384C18.9029 12.16 17.0793 15.2252 17.2654 16.7467C17.3233 17.2109 17.279 18.9064 18.9345 19.4208C21.1408 19.7906 22.9028 18.0803 24.4568 16.5586C24.4568 16.5586 24.7217 16.3053 24.8715 16.1606C24.8336 16.3124 24.7841 16.5149 24.7841 16.5149C24.1382 18.7612 25.0089 19.2325 25.5536 19.4064C27.1996 19.8849 29.166 17.4935 29.1724 17.4935C29.1214 18.2468 28.9723 18.87 29.7663 19.37C30.5158 19.6383 31.2744 19.2293 31.8509 18.8452C33.9276 17.3815 35.6006 15.0908 36.9518 13.1106H36.0899C36.0797 13.1106 33.9628 16.1787 32.5883 16.8455C32.5863 16.8455 32.336 16.974 32.1919 16.8724C32.0135 16.7201 32.0838 16.4036 32.1938 16.1795C32.2008 16.1648 37.5011 6.97202 37.5011 6.97202H34.9986C34.9986 6.97202 34.7252 7.41432 34.7029 7.44331C34.6861 7.42885 34.646 7.35281 34.6182 7.31638C33.0677 5.17164 29.5564 8.47063 26.9129 12.2961C25.8952 13.7672 24.5994 15.4236 23.2559 16.6193C23.2559 16.6193 21.2655 18.4438 20.415 17.1329C20.1041 16.5821 20.1998 15.7769 20.3751 15.2481C21.3653 12.4295 23.0715 9.87153 25.0131 8.32778C25.5612 7.90053 26.157 7.77697 26.4526 7.95817C26.7343 8.1251 26.7798 8.53777 26.6015 8.82043C26.1493 8.80597 25.7871 8.9434 25.4926 9.24775C24.9124 9.85646 24.7108 10.4435 24.8953 10.9943C25.7914 12.2695 27.5786 9.74787 27.4922 8.21172C27.4613 7.66091 27.1674 7.13933 26.7289 6.88547C26.0754 6.49438 25.0783 6.59567 24.4331 6.90745C23.5693 7.23339 22.202 8.37088 21.4039 9.25508C20.3991 10.3639 18.676 11.5956 18.137 11.4576C18.3136 10.9864 19.7691 8.00847 18.2379 6.89291L18.2381 6.89268ZM30.817 23.015C27.8697 21.1164 23.8697 20.7832 17.4191 22.5729C10.5423 24.1889 8.24925 25.2248 5.23818 23.1452C4.08135 22.1237 3.66658 20.4788 3.97632 18.1096C4.69465 14.2473 6.63579 10.5303 10.084 6.40753C12.0087 4.26279 13.7939 2.42221 16.1513 1.6832C17.958 1.21952 17.7891 2.63943 17.5705 2.84248C17.3398 2.84248 16.9523 2.87884 16.6528 3.07426C16.4097 3.26278 15.7425 3.87149 15.7067 4.69029C15.655 5.94375 16.9522 5.68284 17.5117 4.99465C18.1148 4.21913 19.006 2.73395 18.305 1.3498C18.0111 0.857129 17.5034 0.516656 16.873 0.400696C14.7144 0.277331 12.7039 1.30631 10.8485 2.44393C6.79187 5.26253 3.54595 9.16825 1.70952 13.4435C0.650601 16.0229 -0.307017 19.7179 1.12846 22.7254C2.23887 24.8121 4.5442 25.9205 7.29476 25.6887C9.22377 25.4861 11.5561 24.8626 13.1252 24.4862C14.694 24.1091 22.7244 21.3487 25.3632 26.1531C25.3632 26.1531 26.2406 24.4498 28.4333 24.4135C30.2361 24.2472 32.8368 24.9354 34.7307 26.3264C34.0997 25.3775 32.3108 23.979 30.8184 23.0151L30.817 23.015Z" fill="#B6B6B6"/>
</g>
<defs>
<clipPath id="clip0">
<rect width="80" height="26.7279" fill="white"/>
</clipPath>
</defs>
</svg>
