<svg width="56" height="56" viewBox="0 0 56 56" fill="none" xmlns="http://www.w3.org/2000/svg">
<rect x="0.5" y="0.5" width="55" height="55" rx="27.5" fill="white"/>
<mask id="mask0" mask-type="alpha" maskUnits="userSpaceOnUse" x="8" y="21" width="40" height="14">
<path fill-rule="evenodd" clip-rule="evenodd" d="M12.5776 28.0616L15.0847 24.5028H13.2463L11.6959 26.7719L10.1467 24.5028H8.30634L10.8115 28.0616L8.13062 31.8756H9.97033L11.6959 29.3501L15.2808 34.474H17.0456L12.5776 28.0616ZM47.3463 24.5028H45.6157L43.0432 29.2004L41.2835 24.5028H39.6207L42.0923 30.931L40.1803 34.474H41.8734L47.3463 24.5028ZM16.658 24.5028H15.9012L15.0245 25.7563H16.658V31.8756H18.2617V25.7563H19.8978V24.5028H18.2617V23.7891C18.2617 23.2499 18.4869 23.0304 19.0312 23.0304C19.344 23.0304 19.6681 23.0919 19.8978 23.1541V21.8631C19.5692 21.7451 19.1131 21.6683 18.6182 21.6683C17.3901 21.6683 16.658 22.4721 16.658 23.8126V24.5028ZM35.9623 25.7563V29.8773C35.9623 31.2222 36.6931 32.019 37.9187 32.019C38.3254 32.019 38.7295 31.9701 39.0352 31.8756L39.2287 30.596C39.1367 30.6189 38.8012 30.6994 38.5043 30.6994C37.8369 30.6994 37.5622 30.4317 37.5622 29.7675V25.7563H39.4057L38.9268 24.5028H37.5622V21.8403L35.9623 22.6542V24.5028H34.795V25.7563H35.9623ZM27.7197 24.3556C26.9655 24.3556 26.2461 24.6721 25.8731 25.1682V24.5028H24.2693V31.8756L25.8731 31.8756V27.5725C25.8731 26.3774 26.3894 25.717 27.3296 25.717C28.3503 25.717 28.7861 26.3146 28.7861 27.7121V31.8756H30.3861V27.6563C30.3861 25.4956 29.4668 24.3556 27.7197 24.3556ZM22.5559 31.4613V24.5028H20.9521V31.8756H22.5559V31.4613ZM33.6367 31.4613V24.5028H32.026V31.8756H33.6367V31.4613Z" fill="white"/>
</mask>
<g mask="url(#mask0)">
<path d="M6.66382 21.7229L47.3462 21.7229V34.474L6.66382 34.474L6.66382 21.7229Z" fill="#202020"/>
</g>
<path fill-rule="evenodd" clip-rule="evenodd" d="M45.0645 31.4435V31.448C45.0645 31.9256 45.4476 32.3215 45.9393 32.3215C46.4322 32.3215 46.8204 31.9206 46.8204 31.4435V31.4378C46.8204 30.9614 46.4373 30.5655 45.9443 30.5655C45.4527 30.5655 45.0645 30.9665 45.0645 31.4435ZM46.7284 31.4435V31.4378C46.7284 31.0039 46.3909 30.6524 45.9443 30.6524C45.4958 30.6524 45.1571 31.009 45.1571 31.4435V31.448C45.1571 31.8831 45.4933 32.234 45.9393 32.234C46.389 32.234 46.7284 31.8774 46.7284 31.4435ZM45.9982 30.9589H45.5884V31.8775H45.7629V31.5609H45.9545L46.1771 31.8775H46.3858L46.1384 31.5311C46.2653 31.4949 46.3522 31.4023 46.3522 31.2545V31.2494C46.3522 31.1695 46.3256 31.1042 46.278 31.0585C46.2146 30.9957 46.1194 30.9589 45.9982 30.9589ZM46.1721 31.264C46.1721 31.3509 46.1055 31.4067 45.9913 31.4067H45.7629V31.1168H45.9913C46.1055 31.1168 46.1721 31.1669 46.1721 31.2595V31.264Z" fill="#202020"/>
<rect x="0.5" y="0.5" width="55" height="55" rx="27.5" stroke="#E8E8E8"/>
</svg>
