<svg width="60" height="60" viewBox="0 0 60 60" fill="none" xmlns="http://www.w3.org/2000/svg">
<rect width="60" height="60" rx="30" fill="#F7F7F7"/>
<path fill-rule="evenodd" clip-rule="evenodd" d="M34.6467 39.2002L16.1978 42.702C15.7092 42.7916 15.2155 42.5734 14.9525 42.1519C14.7238 41.785 14.7078 41.324 14.9108 40.9423L24.0109 24.0518L34.6467 39.2002Z" fill="white"/>
<path fill-rule="evenodd" clip-rule="evenodd" d="M23.9986 23.8402C24.0718 23.8359 24.142 23.8698 24.1842 23.9298L34.82 39.0783C34.8612 39.1371 34.8699 39.2128 34.8428 39.2794C34.8158 39.346 34.7569 39.3943 34.6863 39.4077L16.2374 42.9095L16.2361 42.9097C15.662 43.0149 15.082 42.7586 14.7731 42.2635L14.773 42.2634C14.5045 41.8325 14.4857 41.291 14.7241 40.8426L14.7247 40.8416L14.7247 40.8416L23.8248 23.951C23.8596 23.8865 23.9253 23.8445 23.9986 23.8402ZM24.0348 24.4533L15.0977 41.0413C15.0976 41.0414 15.0975 41.0416 15.0974 41.0418C14.9302 41.3567 14.9434 41.7369 15.1321 42.0397C15.3491 42.3873 15.7561 42.5672 16.159 42.4937C16.1593 42.4937 16.1595 42.4936 16.1598 42.4936L34.2854 39.0531L24.0348 24.4533Z" fill="#202020"/>
<path fill-rule="evenodd" clip-rule="evenodd" d="M31.2334 30.2957C34.162 34.4851 35.6769 38.482 34.6169 39.2229C33.5569 39.9641 30.3234 37.1685 27.3946 32.9791C24.4659 28.7897 22.951 24.7926 24.011 24.0516C25.0712 23.3107 28.3047 26.1061 31.2334 30.2957Z" fill="#808080"/>
<path fill-rule="evenodd" clip-rule="evenodd" d="M34.3517 36.106C33.739 34.4916 32.6044 32.4408 31.0873 30.346C29.5703 28.2511 27.9758 26.5334 26.6331 25.4477C25.9593 24.9028 25.368 24.5328 24.8962 24.347C24.4024 24.1525 24.16 24.2031 24.0568 24.2778C23.9536 24.3525 23.8299 24.5671 23.8607 25.0968C23.8901 25.6032 24.0571 26.2803 24.3646 27.0904C24.9773 28.7048 26.1119 30.7556 27.629 32.8505C29.146 34.9453 30.7405 36.6631 32.0832 37.7488C32.7571 38.2937 33.3483 38.6636 33.8201 38.8495C34.3139 39.044 34.5563 38.9934 34.6595 38.9187C34.7627 38.8439 34.8864 38.6294 34.8556 38.0996C34.8262 37.5933 34.6592 36.9162 34.3517 36.106ZM34.9076 39.2613C36.0519 38.4327 34.4949 34.33 31.43 30.0978C28.3651 25.8656 24.9529 23.1065 23.8087 23.9351C22.6644 24.7638 24.2214 28.8664 27.2863 33.0986C30.3512 37.3308 33.7634 40.09 34.9076 39.2613Z" fill="#262626"/>
<mask id="mask0" mask-type="alpha" maskUnits="userSpaceOnUse" x="25" y="45" width="1" height="1">
<path d="M25.1528 45.0732H25.3694V45.2309H25.1528V45.0732Z" fill="white"/>
</mask>
<g mask="url(#mask0)">
<path fill-rule="evenodd" clip-rule="evenodd" d="M25.1528 45.1766C25.2479 45.1018 25.3301 45.0788 25.3694 45.2302C25.2946 45.2233 25.2098 45.2557 25.1528 45.1766Z" fill="#808080"/>
</g>
<path fill-rule="evenodd" clip-rule="evenodd" d="M27.2828 17.0656C26.9242 17.33 26.7402 17.7487 26.9241 18.2086C27.026 18.4634 27.1471 18.5987 27.2598 18.6693C27.3712 18.7389 27.4961 18.7589 27.6335 18.7421C27.9221 18.7069 28.2268 18.5135 28.4238 18.3576C28.5154 18.2851 28.6484 18.3005 28.721 18.3922C28.7935 18.4838 28.778 18.6168 28.6864 18.6893C28.4762 18.8557 28.0944 19.1121 27.6847 19.1621C27.473 19.188 27.2458 19.1595 27.0355 19.0279C26.8266 18.8973 26.6565 18.6789 26.5313 18.3657L26.5312 18.3656C26.2608 17.6893 26.5534 17.0777 27.0318 16.7251C27.5036 16.3774 28.1889 16.2537 28.7668 16.5563L28.7669 16.5563C29.2881 16.8294 30.1587 17.4478 30.5904 18.6284C31.0235 19.8127 30.9986 21.5175 29.8186 23.9273C29.8165 23.9316 29.8142 23.9358 29.8119 23.9399C29.1947 25.0101 27.8439 26.7537 26.0642 27.8598C25.965 27.9215 25.8345 27.8911 25.7729 27.7918C25.7112 27.6926 25.7416 27.5622 25.8409 27.5005C27.5415 26.4435 28.8466 24.7645 29.4418 23.7348C30.5855 21.3961 30.5744 19.8163 30.1931 18.7737C29.8101 17.7265 29.0373 17.1756 28.5705 16.9311C28.1605 16.7164 27.6482 16.7963 27.2828 17.0656Z" fill="#202020"/>
<path fill-rule="evenodd" clip-rule="evenodd" d="M35.0608 15.9697C35.175 15.9449 35.2876 16.0174 35.3124 16.1316L35.1056 16.1764C35.3124 16.1316 35.3124 16.1318 35.3125 16.132L35.3126 16.1325L35.3129 16.1339L35.3137 16.1381L35.3166 16.1524C35.3189 16.1646 35.322 16.1819 35.3257 16.2043C35.3331 16.249 35.3426 16.3141 35.3519 16.3985C35.3704 16.5674 35.3881 16.8137 35.3859 17.1305C35.3816 17.7642 35.298 18.6789 34.9844 19.8179C34.3566 22.0972 32.8102 25.264 29.152 28.867C29.0687 28.949 28.9348 28.9479 28.8528 28.8647C28.7708 28.7815 28.7719 28.6475 28.8551 28.5656C32.4657 25.0095 33.9704 21.9063 34.5765 19.7055C34.8797 18.6044 34.9588 17.7265 34.9628 17.1276C34.9649 16.8281 34.9482 16.5981 34.9313 16.4447C34.9229 16.368 34.9144 16.3105 34.9082 16.2729C34.9052 16.2542 34.9026 16.2404 34.901 16.2318L34.8992 16.2226L34.8989 16.2213L34.8989 16.221C34.8989 16.221 34.8988 16.2209 34.8988 16.2209C34.8743 16.1068 34.9468 15.9944 35.0608 15.9697Z" fill="#202020"/>
<path fill-rule="evenodd" clip-rule="evenodd" d="M41.092 14.59C41.1909 14.6521 41.2208 14.7827 41.1587 14.8817C40.5588 15.8371 40.5532 16.8764 40.5474 17.9486C40.5468 18.0512 40.5463 18.154 40.5452 18.2571C40.533 19.4191 40.45 20.6076 39.3818 21.5473C38.552 22.2774 37.4155 23.005 36.3735 23.6722C36.1494 23.8157 35.9296 23.9564 35.7182 24.0938C35.1154 24.4854 34.5816 24.8485 34.1931 25.1759C33.9989 25.3396 33.8475 25.489 33.7433 25.6233C33.6369 25.7602 33.5936 25.8636 33.5864 25.9368C33.5748 26.053 33.4712 26.1379 33.355 26.1264C33.2387 26.1148 33.1538 26.0112 33.1654 25.895C33.184 25.7074 33.2813 25.5283 33.4091 25.3638C33.5389 25.1966 33.7151 25.0256 33.9205 24.8524C34.3313 24.5062 34.8852 24.1304 35.4877 23.739C35.7054 23.5976 35.9295 23.454 36.1565 23.3087C37.1982 22.6414 38.2994 21.9362 39.1023 21.2296L39.1023 21.2296C40.0202 20.4222 40.11 19.4094 40.1221 18.2527C40.1232 18.1488 40.1236 18.0437 40.1241 17.9375C40.1283 16.8809 40.1329 15.7198 40.8003 14.6567C40.8625 14.5578 40.993 14.5279 41.092 14.59Z" fill="#202020"/>
<path fill-rule="evenodd" clip-rule="evenodd" d="M41.0501 22.4733C40.9114 22.5822 40.8332 22.7132 40.8187 22.8248C40.8037 22.9407 40.6977 23.0224 40.5818 23.0074C40.4659 22.9924 40.3842 22.8864 40.3992 22.7705C40.4318 22.5182 40.5907 22.2961 40.7888 22.1405C40.9891 21.9833 41.2508 21.8763 41.525 21.8704C41.8044 21.8643 42.0916 21.9641 42.3232 22.2109C42.5511 22.4538 42.7109 22.8233 42.7772 23.3343L42.7772 23.3343C42.9194 24.433 42.1219 25.3439 41.0092 26.0219C39.8832 26.7079 38.3594 27.2062 36.8682 27.4683C35.4185 27.7232 34.2536 28.1556 33.1249 29.0395C31.9905 29.9277 30.8802 31.2815 29.5593 33.4018C29.4976 33.5009 29.3671 33.5312 29.2679 33.4695C29.1688 33.4077 29.1385 33.2772 29.2002 33.1781C30.5314 31.0412 31.6727 29.6392 32.8641 28.7064C34.061 27.7691 35.296 27.3151 36.795 27.0516C38.2524 26.7954 39.7217 26.3109 40.789 25.6606C41.8696 25.0022 42.4656 24.223 42.3576 23.3887C42.2986 22.9334 42.1628 22.6582 42.0147 22.5004C41.8703 22.3466 41.7012 22.2897 41.5341 22.2934C41.3618 22.2971 41.1868 22.366 41.0501 22.4733Z" fill="#202020"/>
<path fill-rule="evenodd" clip-rule="evenodd" d="M34.8125 33.19L34.8126 33.19L34.8131 33.1893L34.8154 33.1863L34.8256 33.1735C34.8348 33.1619 34.8487 33.1446 34.8672 33.1219C34.9043 33.0764 34.9598 33.0097 35.0325 32.9255C35.1779 32.757 35.392 32.5192 35.6652 32.2433C36.2124 31.6909 36.9934 30.9896 37.9319 30.3882C39.812 29.1835 42.2786 28.4042 44.7764 29.9468C44.8758 30.0082 45.0062 29.9774 45.0675 29.8779C45.1289 29.7785 45.0981 29.6482 44.9987 29.5868C42.2999 27.9201 39.6455 28.7877 37.7036 30.032C36.7311 30.6552 35.9259 31.3789 35.3647 31.9456C35.0837 32.2292 34.863 32.4743 34.7122 32.649C34.6368 32.7363 34.5788 32.8061 34.5394 32.8544C34.5197 32.8785 34.5047 32.8973 34.4944 32.9102L34.4827 32.925L34.4796 32.929L34.4787 32.9301L34.4784 32.9305C34.4783 32.9306 34.4783 32.9307 34.6454 33.0604L34.4783 32.9307C34.4066 33.023 34.4234 33.1559 34.5157 33.2275C34.608 33.2991 34.7409 33.2824 34.8125 33.1901" fill="#202020"/>
<path fill-rule="evenodd" clip-rule="evenodd" d="M33.5413 36.6666C33.343 36.793 33.174 36.8991 33.0562 36.9579C32.9517 37.0102 32.8246 36.9678 32.7724 36.8633C32.7201 36.7588 32.7625 36.6318 32.867 36.5795C32.9608 36.5326 33.109 36.4404 33.3139 36.3098C33.3494 36.2872 33.3862 36.2637 33.4245 36.2392C33.6027 36.1254 33.8107 35.9925 34.0409 35.8513C34.6004 35.5083 35.2988 35.1117 36.0543 34.8014C37.5509 34.1867 39.3538 33.8798 40.7199 35.132C41.3726 35.7303 41.7327 36.2922 41.8688 36.8036C42.0066 37.3211 41.9106 37.7728 41.6796 38.1271C41.452 38.4761 41.1004 38.7203 40.7367 38.8489C40.3758 38.9764 39.9771 38.9989 39.6522 38.8689C39.3563 38.7506 39.1414 38.5787 39.0192 38.3693C38.8955 38.1571 38.8766 37.922 38.9484 37.7066C39.0906 37.2801 39.5606 36.9802 40.1539 36.9802C40.2707 36.9802 40.3654 37.0749 40.3654 37.1918C40.3654 37.3086 40.2707 37.4033 40.1539 37.4033C39.6895 37.4033 39.4191 37.6323 39.3498 37.8404C39.3158 37.9424 39.3233 38.0509 39.3847 38.1561C39.4476 38.264 39.5765 38.383 39.8094 38.4761C40.0134 38.5577 40.3021 38.5537 40.5957 38.45C40.8864 38.3472 41.1563 38.1551 41.3253 37.8959C41.4909 37.642 41.5668 37.3137 41.46 36.9124C41.3515 36.5049 41.0505 36.009 40.434 35.4439C39.2616 34.3692 37.68 34.5911 36.215 35.1928C35.4897 35.4907 34.8132 35.8741 34.2621 36.212C34.0355 36.3509 33.8313 36.4813 33.6532 36.5951C33.6147 36.6198 33.5774 36.6436 33.5413 36.6666Z" fill="black"/>
<path fill-rule="evenodd" clip-rule="evenodd" d="M27.0578 20.5635C27.1255 20.4683 27.2576 20.4461 27.3528 20.5138C27.788 20.8236 28.018 21.1946 28.0906 21.5786C28.1319 21.7973 28.1207 22.0124 28.0743 22.2137C28.1436 22.2884 28.2063 22.3754 28.2596 22.4747L28.2596 22.4747C28.471 22.8692 28.5207 23.2809 28.5199 23.5872C28.5195 23.7413 28.5063 23.8718 28.4931 23.9645C28.4865 24.0109 28.4798 24.0481 28.4746 24.0744C28.472 24.0875 28.4698 24.0979 28.4682 24.1054L28.4661 24.1144L28.4655 24.1172L28.4652 24.1182L28.4651 24.1186L28.4651 24.1187C28.4651 24.1188 28.4651 24.1189 28.2596 24.0687M27.6893 21.9438C27.697 21.8486 27.6929 21.7525 27.6748 21.6572C27.6251 21.3942 27.4656 21.1134 27.1074 20.8585C27.0123 20.7908 26.99 20.6587 27.0578 20.5635" fill="#1BD27F"/>
<path fill-rule="evenodd" clip-rule="evenodd" d="M33.9261 16.6782C34.0399 16.6522 34.1534 16.7234 34.1794 16.8373C34.3442 17.5593 34.2227 18.4038 33.9776 19.0506C33.8767 19.3171 33.751 19.5599 33.6076 19.7516C33.6191 20.0914 33.5884 20.5008 33.5191 20.9901L33.5191 20.9901C33.4013 21.8202 33.0393 22.3087 32.6237 22.4822C32.5882 22.497 32.5524 22.5094 32.5165 22.5194C32.3621 23.0145 32.077 23.6363 31.6361 24.3556C31.575 24.4552 31.4448 24.4865 31.3451 24.4254C31.2455 24.3644 31.2143 24.2341 31.2754 24.1345C31.6671 23.4955 31.9237 22.9491 32.0725 22.5158C32.053 22.5094 32.0338 22.5022 32.0149 22.4941C31.8273 22.4135 31.6878 22.2507 31.6422 22.0363L31.6422 22.0362C31.5698 21.6954 31.6391 21.4327 31.8072 21.2676C31.9616 21.1161 32.185 21.0688 32.3507 21.1325C32.5451 21.2073 32.6248 21.3985 32.6492 21.5768C32.665 21.6922 32.6622 21.826 32.6424 21.9746C32.8293 21.8093 33.0209 21.4894 33.1002 20.9307M32.1891 22.1083C32.2359 21.8954 32.2443 21.738 32.23 21.6342C32.2204 21.5638 32.2042 21.5367 32.1969 21.5279C32.1967 21.528 32.1965 21.528 32.1963 21.528C32.1853 21.5284 32.1438 21.5301 32.1036 21.5696C32.0678 21.6047 32.0041 21.7038 32.056 21.9483M32.193 21.5243C32.1931 21.5243 32.1936 21.5246 32.1944 21.5254C32.1934 21.5248 32.193 21.5244 32.193 21.5243ZM32.1891 22.1083C32.1867 22.1074 32.1843 22.1064 32.1819 22.1054C32.119 22.0783 32.0727 22.0267 32.0561 21.9483M33.1811 20.1261C33.0696 20.1781 32.9472 20.2016 32.817 20.1784L32.8541 19.9702L32.8171 20.1784C32.8171 20.1784 32.8171 20.1784 32.817 20.1784C32.5697 20.1345 32.3974 19.9683 32.2906 19.7821C32.1843 19.5969 32.1314 19.3749 32.1232 19.1697C32.1151 18.9685 32.149 18.7526 32.2496 18.5909C32.3015 18.5073 32.3768 18.4299 32.4811 18.3864C32.5878 18.3419 32.7032 18.3422 32.8158 18.378L32.7518 18.5796L32.8159 18.378C32.8159 18.378 32.8159 18.378 32.8158 18.378C32.9914 18.4338 33.1469 18.5259 33.2725 18.6668C33.3751 18.7819 33.4513 18.9222 33.505 19.0866C33.5317 19.0276 33.5575 18.9655 33.582 18.9007C33.8056 18.3106 33.9087 17.5526 33.7669 16.9315C33.7409 16.8176 33.8122 16.7042 33.9261 16.6782M33.1757 19.6092C33.1657 19.4919 33.1491 19.3894 33.1265 19.2999C33.0852 19.1369 33.0258 19.0259 32.9567 18.9483C32.8885 18.8718 32.8016 18.8174 32.6878 18.7813L32.6878 18.7813C32.6566 18.7713 32.6453 18.7763 32.6439 18.7769C32.6439 18.7769 32.6438 18.7769 32.6438 18.7769C32.6404 18.7784 32.6269 18.7853 32.6089 18.8142C32.5696 18.8774 32.5397 18.9982 32.5459 19.1528C32.5519 19.3034 32.5913 19.4561 32.6575 19.5715C32.7231 19.6859 32.8035 19.7463 32.8911 19.7619L32.8912 19.7619C32.9467 19.7718 33.0436 19.7483 33.1757 19.6092ZM33.1811 20.1261C33.1703 20.3564 33.1438 20.6228 33.1002 20.9307L33.1811 20.1261Z" fill="#202020"/>
<path fill-rule="evenodd" clip-rule="evenodd" d="M40.0988 24.1399C40.201 24.1967 40.2377 24.3255 40.181 24.4276L40.0078 24.3313C40.181 24.4276 40.181 24.4275 40.181 24.4276L40.1807 24.4281L40.1802 24.4289L40.179 24.4312L40.1748 24.4384C40.1713 24.4444 40.1663 24.4528 40.1599 24.4634C40.147 24.4846 40.1281 24.5147 40.1028 24.5527C40.052 24.6288 39.9755 24.7365 39.8698 24.8677C39.6582 25.1302 39.3297 25.4868 38.8564 25.8723C38.358 26.2783 37.8341 26.4048 37.4202 26.3105C37.3389 26.292 37.2618 26.2645 37.1906 26.2289C37.1702 26.2396 37.1497 26.2501 37.1291 26.2603C36.6346 26.5063 35.9993 26.6731 35.4405 26.7841C35.3259 26.8068 35.2146 26.7324 35.1918 26.6178C35.1691 26.5032 35.2435 26.3919 35.3581 26.3691C35.8689 26.2677 36.4176 26.1232 36.8491 25.9252C36.7637 25.7882 36.7217 25.6227 36.7403 25.4373C36.7789 25.0544 37.0181 24.7094 37.2911 24.5754C37.4325 24.5061 37.6227 24.4782 37.786 24.5984C37.9384 24.7105 38.003 24.907 38.0163 25.1276C38.0357 25.4499 37.8823 25.7092 37.6533 25.9161C37.9035 25.9266 38.2363 25.8317 38.5892 25.5443C39.0377 25.1789 39.3457 24.8438 39.5404 24.6022C39.6377 24.4814 39.7067 24.3841 39.7507 24.318C39.7727 24.285 39.7885 24.2599 39.7984 24.2435C39.8034 24.2354 39.8069 24.2294 39.809 24.2258L39.8111 24.2221C39.8112 24.2221 39.8111 24.2222 39.8111 24.2221M40.0988 24.1399C39.9968 24.0832 39.8679 24.1201 39.8111 24.2221L40.0988 24.1399ZM37.2207 25.7195C37.4867 25.537 37.6056 25.3463 37.594 25.1531C37.5836 24.9808 37.5375 24.9408 37.5353 24.9392C37.5353 24.9392 37.5353 24.9392 37.5353 24.9392C37.5347 24.9391 37.5335 24.9389 37.5315 24.9389C37.5238 24.9389 37.5057 24.9414 37.4774 24.9553C37.3511 25.0172 37.187 25.2242 37.1613 25.4796C37.1525 25.567 37.1723 25.6498 37.2207 25.7195Z" fill="#202020"/>
<path fill-rule="evenodd" clip-rule="evenodd" d="M41.5704 29.8627C41.5759 29.9794 41.4858 30.0785 41.3691 30.084C40.7149 30.1148 40.0081 30.2717 39.3998 30.5144C38.7853 30.7596 38.3008 31.0804 38.0591 31.4195C37.9913 31.5147 37.8592 31.5368 37.7641 31.469C37.6689 31.4012 37.6468 31.2691 37.7146 31.174C38.0255 30.7378 38.5987 30.3785 39.243 30.1215C39.8935 29.8619 40.6465 29.6945 41.3492 29.6614C41.4659 29.6559 41.5649 29.746 41.5704 29.8627Z" fill="#1BD27F"/>
<path fill-rule="evenodd" clip-rule="evenodd" d="M36.9266 21.4262L36.3373 22.1314L35.6321 21.5421L36.2214 20.8369L36.9266 21.4262Z" fill="#1BD27F"/>
<path fill-rule="evenodd" clip-rule="evenodd" d="M20.6945 25.8353L20.3846 26.7004L19.5195 26.3905L19.8295 25.5254L20.6945 25.8353Z" fill="#1BD27F"/>
<path fill-rule="evenodd" clip-rule="evenodd" d="M17.2812 26.5635L18.1304 28.1347L16.5591 28.7764L15.71 27.2232L17.2812 26.5635Z" fill="#808080"/>
<path fill-rule="evenodd" clip-rule="evenodd" d="M41.4699 32.8197L41.0613 33.6428L40.238 33.2342L40.6468 32.4111L41.4699 32.8197Z" fill="#808080"/>
<path fill-rule="evenodd" clip-rule="evenodd" d="M35.4976 41.1797L36.6255 43.1961L34.4012 43.6563L33.7112 41.8697L35.4976 41.1797Z" fill="#808080"/>
<path fill-rule="evenodd" clip-rule="evenodd" d="M35.9758 30.0446L34.9181 30.2635L34.7151 29.2836L35.7728 29.0645L35.9758 30.0446Z" fill="#1BD27F"/>
<path fill-rule="evenodd" clip-rule="evenodd" d="M32.3843 42.8795L31.3266 43.0985L31.1238 42.1186L32.1815 41.8994L32.3843 42.8795Z" fill="#1BD27F"/>
</svg>
