<svg width="120" height="120" viewBox="0 0 120 120" fill="none" xmlns="http://www.w3.org/2000/svg">
<path fill-rule="evenodd" clip-rule="evenodd" d="M72.6728 85.0913L22.3576 94.6417C21.0249 94.8859 19.6785 94.291 18.9611 93.1414C18.3375 92.1406 18.294 90.8835 18.8476 89.8425L43.666 43.7773L72.6728 85.0913Z" fill="white"/>
<path fill-rule="evenodd" clip-rule="evenodd" d="M72.6728 85.0913L22.3576 94.6417C21.0249 94.8859 19.6785 94.291 18.9611 93.1414C18.3375 92.1406 18.294 90.8835 18.8476 89.8425L43.666 43.7773L72.6728 85.0913Z" stroke="#202020" stroke-linecap="round" stroke-linejoin="round"/>
<path fill-rule="evenodd" clip-rule="evenodd" d="M63.3628 60.806C71.35 72.2316 75.4814 83.1322 72.5906 85.153C69.6997 87.1744 60.881 79.5499 52.8933 68.1244C44.906 56.6988 40.7746 45.7975 43.6655 43.7768C46.5569 41.756 55.3756 49.3798 63.3628 60.806Z" fill="#808080"/>
<path fill-rule="evenodd" clip-rule="evenodd" d="M63.3628 60.806C71.35 72.2316 75.4814 83.1322 72.5906 85.153C69.6997 87.1744 60.881 79.55 52.8933 68.1244C44.906 56.6988 40.7746 45.7975 43.6655 43.7768C46.5569 41.756 55.3756 49.3798 63.3628 60.806Z" stroke="#202020"/>
<mask id="mask0" mask-type="alpha" maskUnits="userSpaceOnUse" x="46" y="101" width="2" height="1">
<path d="M46.7793 101.109H47.3698V101.539H46.7793V101.109Z" fill="white"/>
</mask>
<g mask="url(#mask0)">
<path fill-rule="evenodd" clip-rule="evenodd" d="M46.7793 101.391C47.0384 101.187 47.2629 101.124 47.3698 101.537C47.1658 101.518 46.9348 101.606 46.7793 101.391Z" fill="#808080"/>
</g>
<path d="M56.0588 28.7008C54.9483 29.5797 52.3144 31.1544 51.0749 28.0562C49.836 24.9575 53.6741 22.4361 56.3687 23.847C59.0632 25.2585 65.3329 30.2248 58.9866 43.1848C57.3358 46.0476 53.7116 50.721 48.9609 53.6736" stroke="#202020" stroke-linecap="round" stroke-linejoin="round"/>
<path d="M73.9244 22.3018C73.9244 22.3018 77.1064 36.9766 57.2822 56.5013" stroke="#202020" stroke-linecap="round" stroke-linejoin="round"/>
<path d="M89.9443 18.4619C86.1486 24.5077 90.6224 31.7495 85.2057 36.5145C79.789 41.2806 69.4893 46.0174 69.207 48.862" stroke="#202020" stroke-linecap="round" stroke-linejoin="round"/>
<path d="M88.9326 40.359C89.1896 38.374 93.5906 36.6256 94.2738 41.8967C94.9564 47.1684 86.6725 51.1152 78.6307 52.5289C70.5889 53.9426 65.5406 57.3639 58.3076 68.9742" stroke="#202020" stroke-linecap="round" stroke-linejoin="round"/>
<path d="M72.6689 68.347C72.6689 68.347 86.4296 50.612 100.602 59.3645" stroke="#202020" stroke-linecap="round" stroke-linejoin="round"/>
<path d="M68.6182 78.4147C71.1909 76.1844 80.6756 70.2538 87.0385 73.4286C93.4019 76.6034 92.6311 82.7788 88.9832 83.6197C85.3347 84.4611 84.414 82.4193 85.1247 80.7939C85.8359 79.169 88.3243 79.626 88.3243 79.626" stroke="#202020" stroke-linecap="round" stroke-linejoin="round"/>
<path d="M52.4457 34.5986C54.6093 36.1386 54.5707 38.1539 53.8181 39.641C53.066 41.128 51.7648 41.3949 51.5062 39.7507C51.2476 38.1059 53.7122 37.8225 54.745 39.749C55.7777 41.6761 55.2533 43.8237 55.2533 43.8237" stroke="#202020" stroke-linecap="round" stroke-linejoin="round"/>
<path d="M63.9697 44.3059C66.785 39.7135 67.1583 36.7228 66.2034 36.3556C65.7678 36.188 64.7036 36.5657 65.0427 38.1619C65.3824 39.7593 68.416 39.6457 69.0258 35.3477C69.6351 31.0497 69.0832 29.3559 67.5046 28.8547C65.9249 28.353 65.9563 32.3223 67.7836 32.6471C69.6103 32.9724 71.6719 27.8942 70.8355 24.2314" stroke="#202020" stroke-linecap="round" stroke-linejoin="round"/>
<path d="M74.7246 50.6647C77.7423 50.0653 81.415 48.892 81.286 46.7477C81.1564 44.6045 79.1312 45.8743 78.9559 47.615C78.7811 49.3562 81.2755 50.3438 83.7887 48.2965C86.3024 46.2487 87.2612 44.5234 87.2612 44.5234" stroke="#202020" stroke-linecap="round" stroke-linejoin="round"/>
<path d="M81.5088 63.5362C83.0157 61.4217 87.2784 59.8266 90.9786 59.6523" stroke="#202020" stroke-linecap="round" stroke-linejoin="round"/>
<path fill-rule="evenodd" clip-rule="evenodd" d="M78.8908 36.617L77.2835 38.5402L75.3604 36.933L76.9676 35.0098L78.8908 36.617Z" fill="#808080"/>
<path fill-rule="evenodd" clip-rule="evenodd" d="M34.6216 48.6421L33.7763 51.0015L31.417 50.1562L32.2623 47.7969L34.6216 48.6421Z" fill="#808080"/>
<path fill-rule="evenodd" clip-rule="evenodd" d="M25.3117 50.6279L27.6274 54.9132L23.3421 56.6633L21.0264 52.4271L25.3117 50.6279Z" fill="#808080"/>
<path fill-rule="evenodd" clip-rule="evenodd" d="M91.2814 67.6905L90.1671 69.9351L87.9219 68.8208L89.0368 66.5762L91.2814 67.6905Z" fill="#808080"/>
<path fill-rule="evenodd" clip-rule="evenodd" d="M74.993 90.4902L78.0692 95.9896L72.0029 97.2446L70.1211 92.3721L74.993 90.4902Z" fill="#808080"/>
<path fill-rule="evenodd" clip-rule="evenodd" d="M76.2968 60.1223L73.412 60.7194L72.8584 58.0469L75.7432 57.4492L76.2968 60.1223Z" fill="#808080"/>
<path fill-rule="evenodd" clip-rule="evenodd" d="M66.5023 95.1252L63.6175 95.7223L63.0645 93.0498L65.9492 92.4521L66.5023 95.1252Z" fill="#808080"/>
</svg>
