<svg width="104" height="104" viewBox="0 0 104 104" fill="none" xmlns="http://www.w3.org/2000/svg">
<path d="M0 52C0 23.2812 23.2812 0 52 0C80.7188 0 104 23.2812 104 52C104 80.7188 80.7188 104 52 104C23.2812 104 0 80.7188 0 52Z" fill="#F7F7F7"/>
<path fill-rule="evenodd" clip-rule="evenodd" d="M62.9836 73.7451L19.3771 82.0221C18.2221 82.2338 17.0552 81.7182 16.4335 80.7219C15.8931 79.8546 15.8553 78.765 16.3351 77.8628L37.8444 37.9397L62.9836 73.7451Z" fill="white"/>
<path fill-rule="evenodd" clip-rule="evenodd" d="M62.9836 73.7451L19.3771 82.0221C18.2221 82.2338 17.0552 81.7182 16.4335 80.7219C15.8931 79.8546 15.8553 78.765 16.3351 77.8628L37.8444 37.9397L62.9836 73.7451Z" stroke="#202020" stroke-linecap="round" stroke-linejoin="round"/>
<path fill-rule="evenodd" clip-rule="evenodd" d="M54.9153 52.6984C61.8375 62.6006 65.4181 72.0479 62.9127 73.7992C60.4073 75.551 52.7644 68.9432 45.8417 59.041C38.9194 49.1389 35.3388 39.6911 37.8442 37.9398C40.3501 36.1884 47.993 42.7958 54.9153 52.6984Z" fill="#808080"/>
<path fill-rule="evenodd" clip-rule="evenodd" d="M54.9153 52.6984C61.8375 62.6006 65.4181 72.0479 62.9127 73.7992C60.4073 75.551 52.7644 68.9432 45.8417 59.041C38.9194 49.1389 35.3388 39.6911 37.8442 37.9398C40.3501 36.1884 47.993 42.7958 54.9153 52.6984Z" stroke="#202020"/>
<mask id="mask0" mask-type="alpha" maskUnits="userSpaceOnUse" x="40" y="87" width="2" height="1">
<path d="M40.543 87.6274H41.0548V88H40.543V87.6274Z" fill="white"/>
</mask>
<g mask="url(#mask0)">
<path fill-rule="evenodd" clip-rule="evenodd" d="M40.543 87.871C40.7676 87.6942 40.9621 87.6398 41.0548 87.9977C40.8779 87.9814 40.6777 88.0579 40.543 87.871Z" fill="#808080"/>
</g>
<path d="M48.5851 24.8741C47.6227 25.6358 45.3399 27.0005 44.2657 24.3155C43.192 21.6299 46.5183 19.4446 48.8536 20.6675C51.1889 21.8908 56.6226 26.1949 51.1225 37.4269C49.6918 39.908 46.5508 43.9583 42.4336 46.5172" stroke="#202020" stroke-linecap="round" stroke-linejoin="round"/>
<path d="M64.0677 19.3279C64.0677 19.3279 66.8254 32.0461 49.6445 48.9675" stroke="#202020" stroke-linecap="round" stroke-linejoin="round"/>
<path d="M77.9518 16C74.6622 21.2397 78.5395 27.5159 73.845 31.6456C69.1506 35.7762 60.2242 39.8814 59.9795 42.3467" stroke="#202020" stroke-linecap="round" stroke-linejoin="round"/>
<path d="M77.0759 34.9773C77.2985 33.257 81.1128 31.7417 81.7049 36.31C82.2965 40.8788 75.1171 44.2993 68.1476 45.5245C61.178 46.7498 56.8027 49.7149 50.5342 59.7771" stroke="#202020" stroke-linecap="round" stroke-linejoin="round"/>
<path d="M62.9805 59.2337C62.9805 59.2337 74.9064 43.8634 87.1892 51.4489" stroke="#202020" stroke-linecap="round" stroke-linejoin="round"/>
<path d="M59.4697 67.9592C61.6994 66.0262 69.9195 60.8864 75.434 63.6379C80.949 66.3894 80.2809 71.7414 77.1194 72.4702C73.9574 73.1994 73.1594 71.4299 73.7754 70.0211C74.3918 68.6129 76.5484 69.009 76.5484 69.009" stroke="#202020" stroke-linecap="round" stroke-linejoin="round"/>
<path d="M45.4537 29.9854C47.3288 31.32 47.2954 33.0666 46.6431 34.3554C45.9913 35.6441 44.8635 35.8754 44.6394 34.4505C44.4153 33.025 46.5513 32.7794 47.4464 34.449C48.3414 36.1191 47.8869 37.9804 47.8869 37.9804" stroke="#202020" stroke-linecap="round" stroke-linejoin="round"/>
<path d="M55.4404 38.3981C57.8804 34.418 58.2039 31.8261 57.3762 31.5079C56.9987 31.3626 56.0765 31.6899 56.3703 33.0733C56.6647 34.4577 59.2939 34.3592 59.8224 30.6343C60.3504 26.9094 59.8721 25.4415 58.504 25.0071C57.1349 24.5722 57.1622 28.0123 58.7458 28.2938C60.3289 28.5757 62.1156 24.1747 61.3907 21.0002" stroke="#202020" stroke-linecap="round" stroke-linejoin="round"/>
<path d="M64.7627 43.9091C67.378 43.3896 70.561 42.3727 70.4492 40.5143C70.3369 38.6569 68.5817 39.7574 68.4298 41.266C68.2783 42.7751 70.4401 43.6309 72.6182 41.8567C74.7968 40.0819 75.6278 38.5867 75.6278 38.5867" stroke="#202020" stroke-linecap="round" stroke-linejoin="round"/>
<path d="M70.6416 55.0645C71.9476 53.2319 75.6419 51.8495 78.8488 51.6985" stroke="#202020" stroke-linecap="round" stroke-linejoin="round"/>
<path fill-rule="evenodd" clip-rule="evenodd" d="M68.3722 31.7343L66.9793 33.401L65.3125 32.0081L66.7055 30.3413L68.3722 31.7343Z" fill="#808080"/>
<path fill-rule="evenodd" clip-rule="evenodd" d="M30.0058 42.1561L29.2733 44.2009L27.2285 43.4683L27.9611 41.4236L30.0058 42.1561Z" fill="#808080"/>
<path fill-rule="evenodd" clip-rule="evenodd" d="M21.9375 43.8772L23.9446 47.5911L20.2306 49.1078L18.2236 45.4364L21.9375 43.8772Z" fill="#808080"/>
<path fill-rule="evenodd" clip-rule="evenodd" d="M79.1108 58.6652L78.1451 60.6106L76.1992 59.6448L77.1654 57.6995L79.1108 58.6652Z" fill="#808080"/>
<path fill-rule="evenodd" clip-rule="evenodd" d="M64.9938 78.4248L67.6598 83.191L62.4024 84.2786L60.7715 80.0557L64.9938 78.4248Z" fill="#808080"/>
<path fill-rule="evenodd" clip-rule="evenodd" d="M66.1245 52.1055L63.6243 52.623L63.1445 50.3068L65.6447 49.7888L66.1245 52.1055Z" fill="#808080"/>
<path fill-rule="evenodd" clip-rule="evenodd" d="M57.6357 82.4419L55.1355 82.9594L54.6562 80.6432L57.1564 80.1252L57.6357 82.4419Z" fill="#808080"/>
</svg>
