<svg width="120" height="120" viewBox="0 0 120 120" fill="none" xmlns="http://www.w3.org/2000/svg">
<path fill-rule="evenodd" clip-rule="evenodd" d="M11.5384 102.139C5.81258 102.139 1.15381 97.792 1.15381 92.4492V26.4428C1.15381 21.1005 5.81258 16.7542 11.5384 16.7542H108.462C114.187 16.7542 118.846 21.1005 118.846 26.4428V92.4492C118.846 97.792 114.187 102.139 108.462 102.139H11.5384Z" fill="white"/>
<mask id="mask0" mask-type="alpha" maskUnits="userSpaceOnUse" x="0" y="15" width="120" height="89">
<path fill-rule="evenodd" clip-rule="evenodd" d="M0 15.6001H120V103.292H0V15.6001Z" fill="white"/>
</mask>
<g mask="url(#mask0)">
<path fill-rule="evenodd" clip-rule="evenodd" d="M108.462 15.6001H11.5385C5.17615 15.6001 0 20.4643 0 26.443V92.4495C0 98.4282 5.17615 103.292 11.5385 103.292H108.462C114.824 103.292 120 98.4282 120 92.4495V26.443C120 20.4643 114.824 15.6001 108.462 15.6001ZM108.462 17.9079C113.56 17.9079 117.692 21.7294 117.692 26.4431V92.4496C117.692 97.1637 113.56 100.985 108.462 100.985H11.5386C6.44047 100.985 2.30785 97.1637 2.30785 92.4496V26.4431C2.30785 21.7294 6.44047 17.9079 11.5386 17.9079H108.462Z" fill="#10176B"/>
</g>
<path fill-rule="evenodd" clip-rule="evenodd" d="M108.268 19.4463H105.345C109.068 20.1649 111.886 23.5023 111.886 27.5172V91.0789C111.886 95.6181 108.286 99.298 103.846 99.298L108.268 99.4461C112.708 99.4461 116.307 95.7663 116.307 91.2266V27.6654C116.307 23.1261 112.708 19.4463 108.268 19.4463Z" fill="#F7F7F7"/>
<mask id="mask1" mask-type="alpha" maskUnits="userSpaceOnUse" x="0" y="15" width="120" height="89">
<path fill-rule="evenodd" clip-rule="evenodd" d="M0 103.292H120V15.6001H0V103.292Z" fill="white"/>
</mask>
<g mask="url(#mask1)">
<path fill-rule="evenodd" clip-rule="evenodd" d="M2.30786 52.8311H117.692V37.6003H2.30786V52.8311Z" fill="#1BD27F"/>
<path fill-rule="evenodd" clip-rule="evenodd" d="M67.1539 88.3694H56.077C54.1653 88.3694 52.6155 86.82 52.6155 84.9078C52.6155 82.9957 54.1653 81.4463 56.077 81.4463H67.1539C69.0656 81.4463 70.6155 82.9957 70.6155 84.9078C70.6155 86.82 69.0656 88.3694 67.1539 88.3694Z" fill="#1BD27F"/>
<path fill-rule="evenodd" clip-rule="evenodd" d="M41.3077 88.3694H17.3077C15.396 88.3694 13.8462 86.82 13.8462 84.9078C13.8462 82.9957 15.396 81.4463 17.3077 81.4463H41.3077C43.2194 81.4463 44.7693 82.9957 44.7693 84.9078C44.7693 86.82 43.2194 88.3694 41.3077 88.3694Z" fill="#1BD27F"/>
</g>
</svg>
