<svg width="104" height="104" viewBox="0 0 104 104" fill="none" xmlns="http://www.w3.org/2000/svg">
<rect width="104" height="104" rx="52" fill="#F7F7F7"/>
<path fill-rule="evenodd" clip-rule="evenodd" d="M26.1537 74.4739C23.0999 74.4739 20.6152 72.1556 20.6152 69.3061V34.1027C20.6152 31.2535 23.0999 28.9354 26.1537 28.9354H77.846C80.8998 28.9354 83.3845 31.2535 83.3845 34.1027V69.3061C83.3845 72.1556 80.8998 74.4739 77.846 74.4739H26.1537Z" fill="white"/>
<mask id="mask0" mask-type="alpha" maskUnits="userSpaceOnUse" x="20" y="28" width="64" height="48">
<path fill-rule="evenodd" clip-rule="evenodd" d="M20 28.3199H84V75.0891H20V28.3199Z" fill="white"/>
</mask>
<g mask="url(#mask0)">
<path fill-rule="evenodd" clip-rule="evenodd" d="M77.8461 28.3198H26.1538C22.7606 28.3198 20 30.914 20 34.1027V69.3062C20 72.4948 22.7606 75.0891 26.1538 75.0891H77.8461C81.2394 75.0891 84 72.4948 84 69.3062V34.1027C84 30.914 81.2394 28.3198 77.8461 28.3198ZM77.8462 29.5507C80.5653 29.5507 82.7693 31.5888 82.7693 34.1028V69.3062C82.7693 71.8204 80.5653 73.8584 77.8462 73.8584H26.1539C23.4349 73.8584 21.2309 71.8204 21.2309 69.3062V34.1028C21.2309 31.5888 23.4349 29.5507 26.1539 29.5507H77.8462Z" fill="#202020"/>
</g>
<path fill-rule="evenodd" clip-rule="evenodd" d="M77.7429 30.3712H76.1843C78.1698 30.7545 79.6725 32.5344 79.6725 34.6757V68.5753C79.6725 70.9962 77.7528 72.9588 75.3845 72.9588L77.7429 73.0378C80.1112 73.0378 82.0307 71.0752 82.0307 68.654V34.7547C82.0307 32.3338 80.1112 30.3712 77.7429 30.3712Z" fill="#E8E8E8"/>
<mask id="mask1" mask-type="alpha" maskUnits="userSpaceOnUse" x="20" y="28" width="64" height="48">
<path fill-rule="evenodd" clip-rule="evenodd" d="M20 75.0892H84V28.3199H20V75.0892Z" fill="white"/>
</mask>
<g mask="url(#mask1)">
<path fill-rule="evenodd" clip-rule="evenodd" d="M21.231 48.1764H82.7694V40.0533H21.231V48.1764Z" fill="#797979"/>
<path fill-rule="evenodd" clip-rule="evenodd" d="M55.8154 67.1302H49.9077C48.8881 67.1302 48.0615 66.3039 48.0615 65.2841C48.0615 64.2643 48.8881 63.4379 49.9077 63.4379H55.8154C56.8349 63.4379 57.6615 64.2643 57.6615 65.2841C57.6615 66.3039 56.8349 67.1302 55.8154 67.1302Z" fill="#797979"/>
<path fill-rule="evenodd" clip-rule="evenodd" d="M42.0309 67.1302H29.2309C28.2114 67.1302 27.3848 66.3039 27.3848 65.2841C27.3848 64.2643 28.2114 63.4379 29.2309 63.4379H42.0309C43.0505 63.4379 43.8771 64.2643 43.8771 65.2841C43.8771 66.3039 43.0505 67.1302 42.0309 67.1302Z" fill="#797979"/>
</g>
<path fill-rule="evenodd" clip-rule="evenodd" d="M90.7999 72C90.7999 77.966 85.9643 82.8 80 82.8C74.0356 82.8 69.2 77.966 69.2 72C69.2 66.0375 74.0356 61.2 80 61.2C85.9643 61.2 90.7999 66.0375 90.7999 72Z" fill="#ED3963"/>
<path fill-rule="evenodd" clip-rule="evenodd" d="M78.4212 72.8995L78.0982 66.9769C78.0819 66.6776 78.3201 66.4258 78.62 66.4258H81.3802C81.6799 66.4258 81.9183 66.6776 81.9019 66.9769L81.579 72.8995C81.5638 73.1766 81.3347 73.3936 81.0571 73.3936H78.943C78.6655 73.3936 78.4363 73.1766 78.4212 72.8995ZM77.9968 76.1807C77.9968 75.0744 78.8937 74.1775 80.0001 74.1775C81.1065 74.1775 82.0034 75.0744 82.0034 76.1807C82.0034 77.2871 81.1065 78.184 80.0001 78.184C78.8937 78.184 77.9968 77.2871 77.9968 76.1807Z" fill="white"/>
</svg>
