<svg width="24" height="24" viewBox="0 0 24 24" fill="none" xmlns="http://www.w3.org/2000/svg">
<path fill-rule="evenodd" clip-rule="evenodd" d="M22 3H2C0.895833 3 0 3.89002 0 4.98701V19.5584C0 20.6554 0.895833 21.5455 2 21.5455H22C23.1042 21.5455 24 20.6554 24 19.5584V4.98701C24 3.89002 23.1042 3 22 3ZM2.00002 4.32469H22C22.3667 4.32469 22.6667 4.62274 22.6667 4.98702V6.97404H1.33336V4.98702C1.33336 4.62274 1.63336 4.32469 2.00002 4.32469ZM22 20.2208H2.00002C1.63336 20.2208 1.33336 19.9227 1.33336 19.5585V10.9481H22.6667V19.5585C22.6667 19.9227 22.3667 20.2208 22 20.2208ZM8.00002 16.7435V17.0747C8.00002 17.3479 7.77502 17.5714 7.50002 17.5714H4.50002C4.22502 17.5714 4.00002 17.3479 4.00002 17.0747V16.7435C4.00002 16.4703 4.22502 16.2468 4.50002 16.2468H7.50002C7.77502 16.2468 8.00002 16.4703 8.00002 16.7435ZM16 16.7435V17.0747C16 17.3479 15.775 17.5714 15.5 17.5714H9.83334C9.55834 17.5714 9.33334 17.3479 9.33334 17.0747V16.7435C9.33334 16.4703 9.55834 16.2468 9.83334 16.2468H15.5C15.775 16.2468 16 16.4703 16 16.7435Z" fill="#494949"/>
<mask id="mask0" mask-type="alpha" maskUnits="userSpaceOnUse" x="0" y="3" width="24" height="19">
<path fill-rule="evenodd" clip-rule="evenodd" d="M22 3H2C0.895833 3 0 3.89002 0 4.98701V19.5584C0 20.6554 0.895833 21.5455 2 21.5455H22C23.1042 21.5455 24 20.6554 24 19.5584V4.98701C24 3.89002 23.1042 3 22 3ZM2.00002 4.32469H22C22.3667 4.32469 22.6667 4.62274 22.6667 4.98702V6.97404H1.33336V4.98702C1.33336 4.62274 1.63336 4.32469 2.00002 4.32469ZM22 20.2208H2.00002C1.63336 20.2208 1.33336 19.9227 1.33336 19.5585V10.9481H22.6667V19.5585C22.6667 19.9227 22.3667 20.2208 22 20.2208ZM8.00002 16.7435V17.0747C8.00002 17.3479 7.77502 17.5714 7.50002 17.5714H4.50002C4.22502 17.5714 4.00002 17.3479 4.00002 17.0747V16.7435C4.00002 16.4703 4.22502 16.2468 4.50002 16.2468H7.50002C7.77502 16.2468 8.00002 16.4703 8.00002 16.7435ZM16 16.7435V17.0747C16 17.3479 15.775 17.5714 15.5 17.5714H9.83334C9.55834 17.5714 9.33334 17.3479 9.33334 17.0747V16.7435C9.33334 16.4703 9.55834 16.2468 9.83334 16.2468H15.5C15.775 16.2468 16 16.4703 16 16.7435Z" fill="white"/>
</mask>
<g mask="url(#mask0)">
</g>
</svg>
