<svg width="70" height="70" viewBox="0 0 70 70" fill="none" xmlns="http://www.w3.org/2000/svg">
<g clip-path="url(#clip0)">
<path d="M32.86 50.038C32.86 52.99 31.87 55.528 29.89 57.652C27.91 59.776 24.922 61.036 20.926 61.432L20.872 67.804H16.552L16.606 61.54C14.41 61.396 12.448 61.108 10.72 60.676C8.992 60.244 7.264 59.758 5.536 59.218L5.968 49.606H10.396L11.692 56.248C13.024 57.508 15.148 58.138 18.064 58.138C22.744 58.138 25.084 56.122 25.084 52.09C25.084 50.866 24.688 49.768 23.896 48.796C23.104 47.788 22.078 46.906 20.818 46.15C19.558 45.358 17.794 44.386 15.526 43.234C13.438 42.154 11.71 41.092 10.342 40.048C9.01 39.004 7.93 37.726 7.102 36.214C6.274 34.666 5.86 32.83 5.86 30.706C5.86 28.078 6.85 25.828 8.83 23.956C10.846 22.048 13.546 20.896 16.93 20.5V14.56H21.358V20.446C23.158 20.554 24.742 20.788 26.11 21.148C27.514 21.508 28.972 21.922 30.484 22.39L30.214 31.246H25.894L24.652 25.144C24.22 24.748 23.59 24.406 22.762 24.118C21.934 23.83 21.016 23.686 20.008 23.686C17.992 23.686 16.372 24.172 15.148 25.144C13.924 26.08 13.312 27.394 13.312 29.086C13.312 30.454 13.708 31.642 14.5 32.65C15.328 33.658 16.264 34.486 17.308 35.134C18.388 35.782 20.026 36.7 22.222 37.888C24.706 39.256 26.632 40.444 28 41.452C29.404 42.424 30.556 43.612 31.456 45.016C32.392 46.42 32.86 48.094 32.86 50.038ZM49.6754 25.72C48.8594 26.008 47.3954 26.392 45.2834 26.872C43.1714 27.304 41.5154 27.592 40.3154 27.736L39.5234 22.696C42.1154 22.168 44.8034 21.232 47.5874 19.888C50.4194 18.496 52.7234 17.056 54.4994 15.568H54.5714L60.2594 16.36V55.96L68.4674 56.752V61H41.0354V56.752L49.6754 56.032V25.72Z" fill="#202020"/>
</g>
<defs>
<clipPath id="clip0">
<rect width="70" height="70" fill="white"/>
</clipPath>
</defs>
</svg>
