<svg width="44" height="44" viewBox="0 0 44 44" fill="none" xmlns="http://www.w3.org/2000/svg">
<g clip-path="url(#clip0)">
<path opacity="0.2" d="M6.32771 34.9867C5.527 34.9867 4.83074 34.4296 4.62186 33.6637L0.374635 17.3015C0.270195 16.8489 0.339821 16.3615 0.583514 15.9786C0.827207 15.5957 1.21015 15.3171 1.66273 15.1779L24.7439 9.7122L24.7091 10.1996C24.7091 10.3388 24.7091 11.4529 26.2061 11.5921L26.4498 11.6269L27.0764 14.3076L26.7979 14.3772C26.7283 14.412 26.032 14.6209 26.032 15.4216C26.032 16.1875 27.2853 16.2919 27.3201 16.2919L27.5986 16.3267L28.086 18.5896H27.6334C27.529 18.5896 26.972 18.6592 26.972 19.6688C26.972 20.0866 27.1461 20.3651 27.529 20.5391C27.8771 20.6784 28.2601 20.7132 28.3297 20.7132H28.6082L28.7127 20.9917L29.2 22.9761L28.7823 23.0109C28.6778 23.0109 28.086 23.1153 28.086 24.0553C28.086 24.3686 28.1905 24.5775 28.3645 24.6819C28.5386 24.7864 28.7475 24.8212 28.8867 24.8212C28.9912 24.8212 29.0608 24.8212 29.0956 24.8212L29.4089 24.7864L29.5134 25.0997L30.3141 27.8499L30.0356 27.9892C29.026 28.4418 29.2697 30.0084 29.2697 30.0432L29.3045 30.3565L6.67584 34.9518C6.5714 34.9518 6.46696 34.9867 6.32771 34.9867Z" fill="white"/>
<path d="M24.3611 10.1648C24.3611 10.1648 24.2566 11.7314 26.1714 11.9402L26.6588 14.0638C26.6588 14.0638 25.6492 14.3424 25.6492 15.4564C25.6492 16.5704 27.2506 16.6748 27.2506 16.6748L27.5639 18.2414C27.4943 18.2414 26.5543 18.2763 26.5543 19.6688C26.5543 20.9917 28.0513 21.0613 28.2602 21.0613H28.295L28.6779 22.6279C28.6779 22.6279 27.6335 22.6627 27.6335 24.0204C27.6335 24.9952 28.3646 25.1345 28.7824 25.1345C28.9216 25.1345 29.0261 25.0997 29.0261 25.0997L29.7223 27.5366C28.4691 28.1284 28.7476 29.9387 28.7476 29.9387L6.60631 34.6037C6.50187 34.6385 6.39743 34.6385 6.3278 34.6385C5.70117 34.6385 5.14415 34.2207 4.97009 33.5941L0.722865 17.2319C0.548798 16.466 1.00137 15.7349 1.76726 15.5608L24.3611 10.1648ZM25.127 9.25961L24.2218 9.50331L1.5932 14.8297C1.03618 14.969 0.583612 15.2823 0.305105 15.7697C0.026599 16.2571 -0.0778409 16.8141 0.0614123 17.3711L4.30863 33.7682C4.55233 34.7081 5.38785 35.3348 6.3278 35.3348C6.46706 35.3348 6.60631 35.3348 6.74556 35.2999L28.9913 30.635L29.6527 30.4957L29.5483 29.8343C29.5483 29.8343 29.3742 28.5114 30.1053 28.1632L30.6623 27.9195L30.4882 27.3277L29.792 24.8908L29.6179 24.299L28.9913 24.4034C28.9913 24.4034 28.9216 24.4034 28.852 24.4034C28.3994 24.4034 28.3994 24.1945 28.3994 23.9856C28.3994 23.4286 28.6431 23.3242 28.7824 23.2894H29.6875L29.409 22.419L29.0261 20.8524L28.8868 20.2954L28.3298 20.3302C28.0165 20.3302 27.3202 20.2606 27.3202 19.634C27.3202 19.2162 27.4247 18.9377 27.6335 18.9029L28.5039 18.9377L28.3298 18.0674L28.0165 16.5008L27.912 15.9786L27.3898 15.9438C27.3898 15.9438 26.4499 15.8393 26.4499 15.4216C26.4499 14.8994 26.8328 14.7601 26.9373 14.7253L27.5987 14.5512L27.4247 13.8898L26.9373 11.7662L26.8328 11.2788L26.3454 11.244C25.1966 11.1395 25.127 10.4085 25.1618 10.1996L25.127 9.25961Z" fill="#494949"/>
<path d="M6.32771 34.9867C5.527 34.9867 4.83074 34.4296 4.62186 33.6637L0.374635 17.3015C0.270195 16.8489 0.339821 16.3615 0.583514 15.9786C0.827207 15.5957 1.21015 15.3171 1.66273 15.1779L24.7439 9.7122L24.7091 10.1996C24.7091 10.3388 24.7091 11.4529 26.2061 11.5921L26.4498 11.6269L27.0764 14.3076L26.7979 14.3772C26.7283 14.412 26.032 14.6209 26.032 15.4216C26.032 16.1875 27.2853 16.2919 27.3201 16.2919L27.5986 16.3267L28.086 18.5896H27.6334C27.529 18.5896 26.972 18.6592 26.972 19.6688C26.972 20.0866 27.1461 20.3651 27.529 20.5391C27.8771 20.6784 28.2601 20.7132 28.3297 20.7132H28.6082L28.7127 20.9917L29.2 22.9761L28.7823 23.0109C28.6778 23.0109 28.086 23.1153 28.086 24.0553C28.086 24.3686 28.1905 24.5775 28.3645 24.6819C28.5386 24.7864 28.7475 24.8212 28.8867 24.8212C28.9912 24.8212 29.0608 24.8212 29.0956 24.8212L29.4089 24.7864L29.5134 25.0997L30.3141 27.8499L30.0356 27.9892C29.026 28.4418 29.2697 30.0084 29.2697 30.0432L29.3045 30.3565L6.67584 34.9518C6.5714 34.9518 6.46696 34.9867 6.32771 34.9867Z" fill="white"/>
<path d="M24.3611 10.1648C24.3611 10.1648 24.2566 11.7314 26.1714 11.9402L26.6588 14.0638C26.6588 14.0638 25.6492 14.3424 25.6492 15.4564C25.6492 16.5704 27.2506 16.6748 27.2506 16.6748L27.5639 18.2414C27.4943 18.2414 26.5543 18.2763 26.5543 19.6688C26.5543 20.9917 28.0513 21.0613 28.2602 21.0613H28.295L28.6779 22.6279C28.6779 22.6279 27.6335 22.6627 27.6335 24.0204C27.6335 24.9952 28.3646 25.1345 28.7824 25.1345C28.9216 25.1345 29.0261 25.0997 29.0261 25.0997L29.7223 27.5366C28.4691 28.1284 28.7476 29.9387 28.7476 29.9387L6.60631 34.6037C6.50187 34.6385 6.39743 34.6385 6.3278 34.6385C5.70117 34.6385 5.14415 34.2207 4.97009 33.5941L0.722865 17.2319C0.548798 16.466 1.00137 15.7349 1.76726 15.5608L24.3611 10.1648ZM25.127 9.25961L24.2218 9.50331L1.5932 14.8297C1.03618 14.969 0.583612 15.2823 0.305105 15.7697C0.026599 16.2571 -0.0778409 16.8141 0.0614123 17.3711L4.30863 33.7682C4.55233 34.7081 5.38785 35.3348 6.3278 35.3348C6.46706 35.3348 6.60631 35.3348 6.74556 35.2999L28.9913 30.635L29.6527 30.4957L29.5483 29.8343C29.5483 29.8343 29.3742 28.5114 30.1053 28.1632L30.6623 27.9195L30.4882 27.3277L29.792 24.8908L29.6179 24.299L28.9913 24.4034C28.9913 24.4034 28.9216 24.4034 28.852 24.4034C28.3994 24.4034 28.3994 24.1945 28.3994 23.9856C28.3994 23.4286 28.6431 23.3242 28.7824 23.2894H29.6875L29.409 22.419L29.0261 20.8524L28.8868 20.2954L28.3298 20.3302C28.0165 20.3302 27.3202 20.2606 27.3202 19.634C27.3202 19.2162 27.4247 18.9377 27.6335 18.9029L28.5039 18.9377L28.3298 18.0674L28.0165 16.5008L27.912 15.9786L27.3898 15.9438C27.3898 15.9438 26.4499 15.8393 26.4499 15.4216C26.4499 14.8994 26.8328 14.7601 26.9373 14.7253L27.5987 14.5512L27.4247 13.8898L26.9373 11.7662L26.8328 11.2788L26.3454 11.244C25.1966 11.1395 25.127 10.4085 25.1618 10.1996L25.127 9.25961Z" fill="#494949"/>
<path d="M33.3777 30.7046C33.3429 30.0779 33.6214 28.9291 34.7702 28.5113L34.6658 25.9352C34.074 25.7263 33.3081 25.2041 33.3429 24.1597C33.3777 23.1501 34.074 22.6975 34.6658 22.5583L34.5613 21.5487C34.2828 21.5139 33.8651 21.3746 33.5518 21.0265C33.2384 20.7132 33.0992 20.2606 33.0992 19.7036C33.134 18.6244 33.7258 18.137 34.3525 17.9977V17.1274C33.8651 16.9533 32.8903 16.5008 32.8903 15.526C32.8903 14.586 33.691 14.1335 34.1436 13.9594L33.9347 11.6269C33.4473 11.4528 32.4029 10.861 32.1592 9.57292L32.0896 9.18997L40.5492 8.59814C40.584 8.59814 40.6189 8.59814 40.6537 8.59814C41.5588 8.59814 42.3247 9.29441 42.3943 10.2344L43.6824 28.3721C43.7521 29.3121 43.0558 30.1476 42.1158 30.2172L33.4125 31.0527L33.3777 30.7046Z" fill="white"/>
<path d="M40.6537 8.94627C41.3848 8.94627 41.9767 9.50328 42.0463 10.2344L43.3344 28.3721C43.3692 29.138 42.8122 29.7646 42.0811 29.8342L33.7259 30.6349C33.7259 30.6349 33.6563 29.0335 35.1184 28.7202L35.014 25.587C35.014 25.587 33.6563 25.3085 33.6911 24.09C33.7259 22.8368 35.0488 22.7671 35.0488 22.7671L34.8747 21.1309C34.8051 21.1309 33.3778 21.1309 33.4474 19.6339C33.4822 18.3459 34.3874 18.2414 34.631 18.2414C34.6659 18.2414 34.7007 18.2414 34.7007 18.2414V16.7793C34.7007 16.7793 33.2385 16.4311 33.2385 15.4215C33.2385 14.412 34.5266 14.0986 34.5266 14.0986L34.2481 11.3832C34.2481 11.3832 32.7511 11.0003 32.4726 9.50328L40.5841 8.94627C40.6189 8.94627 40.6189 8.94627 40.6537 8.94627ZM40.6537 8.25C40.6189 8.25 40.5493 8.25 40.5145 8.25L32.403 8.80701L31.6023 8.87664L31.7764 9.64253C32.0201 10.9654 32.9948 11.5921 33.5867 11.8706L33.7607 13.7157C33.1689 14.029 32.5074 14.586 32.5074 15.4912C32.5074 16.4659 33.2733 17.0578 33.9696 17.3363V17.7192C33.3081 17.9629 32.7511 18.5895 32.7163 19.6688C32.6815 20.4695 32.9948 20.9569 33.2733 21.2354C33.5518 21.5487 33.9348 21.6879 34.2133 21.7924L34.2481 22.2798C33.6215 22.5234 32.9948 23.1153 32.96 24.1249C32.9252 25.2389 33.6563 25.8655 34.2829 26.144L34.3525 28.2676C33.2385 28.7898 32.96 30.0431 32.9948 30.7046L33.0296 31.4357L33.7607 31.366L42.1159 30.5653C43.2647 30.4609 44.0655 29.4861 43.9958 28.3373L42.7077 10.1995C42.6729 9.12033 41.7678 8.25 40.6537 8.25Z" fill="#494949"/>
<path d="M26.192 22.3221C26.4121 18.3061 23.5252 14.8824 19.7438 14.6752C15.9625 14.468 12.7187 17.5556 12.4986 21.5716C12.2785 25.5877 15.1655 29.0113 18.9468 29.2185C22.7281 29.4258 25.9719 26.3381 26.192 22.3221Z" fill="#797979"/>
<path d="M21.761 25.6695L22.3165 26.9181L21.3721 27.3938L20.8722 26.3235C20.4833 26.5019 20.2056 26.6208 19.9834 26.6803C19.8723 26.6803 19.7612 26.7397 19.5945 26.7397C19.4279 26.7397 19.3168 26.7992 19.0946 26.7992L17.928 24.2424C18.5946 24.6586 19.1501 24.7181 19.6501 24.4803C20.0389 24.3019 20.15 24.0046 20.0389 23.6478C19.9278 23.41 19.7056 23.2911 19.3168 23.1722L18.7612 23.0532C18.2057 22.9343 17.7613 22.7559 17.428 22.4586C17.0947 22.2208 16.817 21.8641 16.6503 21.4478C16.0948 20.1992 16.2615 19.0695 17.1503 17.9992L16.6503 16.8695L17.5947 16.3938L18.0946 17.4641C18.539 17.2857 18.9835 17.2262 19.4834 17.2262L20.5944 19.7235C19.9278 19.3668 19.3723 19.3073 18.9279 19.4857C18.7612 19.5451 18.6501 19.6641 18.5946 19.8424C18.539 19.9614 18.539 20.1397 18.5946 20.2586C18.6501 20.437 18.9279 20.5559 19.3723 20.6749L19.9278 20.7938C20.2056 20.8532 20.4278 20.9127 20.65 21.0316C20.8722 21.1505 21.0388 21.21 21.2055 21.3884C21.3721 21.5073 21.5388 21.6857 21.6499 21.8641C21.761 22.0424 21.8721 22.2208 21.9832 22.4586C22.5943 23.5884 22.4832 24.6586 21.761 25.6695Z" fill="white"/>
</g>
<defs>
<clipPath id="clip0">
<rect width="44" height="44" fill="white"/>
</clipPath>
</defs>
</svg>
