<svg width="294" height="250" viewBox="0 0 294 250" fill="none" xmlns="http://www.w3.org/2000/svg">
<g filter="url(#filter0_d)">
<path d="M140.016 118.867L50.3007 48.664C47.8255 46.7271 44.1861 48.2703 43.8576 51.396L30.9252 174.439C30.5927 177.602 33.9062 179.87 36.734 178.414L139.381 125.574C141.975 124.238 142.313 120.665 140.016 118.867Z" fill="white" stroke="#494949" stroke-width="2"/>
<path d="M151.439 120.066L253.79 70.0501C256.614 68.6701 259.853 70.9363 259.524 74.062L246.592 197.105C246.259 200.268 242.547 201.797 240.083 199.785L150.665 126.758C148.406 124.913 148.818 121.347 151.439 120.066Z" fill="white" stroke="#494949" stroke-width="2"/>
<g filter="url(#filter1_d)">
<path d="M243.441 196.12L149.946 105.51C148.96 104.555 147.452 104.39 146.283 105.111L34.3428 174.128C31.9065 175.63 32.7571 179.366 35.6037 179.665L241.039 201.257C243.874 201.555 245.488 198.103 243.441 196.12Z" fill="white"/>
<path d="M243.441 196.12L149.946 105.51C148.96 104.555 147.452 104.39 146.283 105.111L34.3428 174.128C31.9065 175.63 32.7571 179.366 35.6037 179.665L241.039 201.257C243.874 201.555 245.488 198.103 243.441 196.12Z" stroke="#494949" stroke-width="2"/>
</g>
<g filter="url(#filter2_d)">
<path d="M256.218 74.5528L145.927 143.744C144.764 144.473 143.255 144.32 142.262 143.373L47.1169 52.5898C45.046 50.6139 46.6549 47.1366 49.5014 47.4357L254.937 69.0279C257.772 69.3258 258.632 73.0379 256.218 74.5528Z" fill="white"/>
<path d="M256.218 74.5528L145.927 143.744C144.764 144.473 143.255 144.32 142.262 143.373L47.1169 52.5898C45.046 50.6139 46.6549 47.1366 49.5014 47.4357L254.937 69.0279C257.772 69.3258 258.632 73.0379 256.218 74.5528Z" stroke="#494949" stroke-width="2"/>
</g>
<path d="M115.558 80.4729C115.533 80.7143 115.451 80.9168 115.312 81.0805C115.172 81.2441 115.019 81.3687 114.85 81.4543C114.625 81.2711 114.38 81.1092 114.113 80.9685C113.855 80.8288 113.546 80.74 113.184 80.7019C112.469 80.6268 111.898 80.792 111.47 81.1976C111.044 81.5938 110.789 82.1911 110.705 82.9894C110.618 83.8155 110.756 84.4635 111.12 84.9334C111.494 85.395 112.047 85.6643 112.781 85.7414C113.161 85.7814 113.487 85.764 113.757 85.6892C114.037 85.6154 114.305 85.5262 114.56 85.4216C114.704 85.5682 114.808 85.7387 114.872 85.9331C114.946 86.1192 114.971 86.3329 114.945 86.5743C114.923 86.7878 114.847 86.9768 114.717 87.1415C114.587 87.3061 114.381 87.4347 114.099 87.527C113.924 87.5837 113.68 87.6331 113.366 87.6752C113.052 87.7172 112.676 87.7153 112.24 87.6695C111.609 87.6031 111.029 87.453 110.5 87.2191C109.97 86.9852 109.521 86.6657 109.15 86.2608C108.78 85.8559 108.508 85.3627 108.335 84.7814C108.162 84.1908 108.117 83.5057 108.199 82.726C108.275 82.002 108.453 81.3732 108.735 80.8397C109.025 80.3071 109.386 79.8711 109.815 79.5315C110.255 79.1928 110.749 78.9539 111.298 78.8146C111.848 78.6752 112.425 78.6373 113.028 78.7007C113.882 78.7905 114.526 78.999 114.961 79.3262C115.405 79.6544 115.604 80.0367 115.558 80.4729ZM117.412 88.0723C116.948 88.0236 116.622 87.9142 116.433 87.7442C116.246 87.5649 116.175 87.2572 116.221 86.8209L117.069 78.7454C117.174 78.7283 117.321 78.7156 117.51 78.7072C117.708 78.6999 117.918 78.7079 118.141 78.7313C118.605 78.7801 118.931 78.8941 119.118 79.0734C119.307 79.2433 119.378 79.5465 119.332 79.9827L118.484 88.0583C118.379 88.0754 118.227 88.0876 118.029 88.095C117.841 88.1033 117.635 88.0958 117.412 88.0723ZM120.858 81.579C120.963 81.5619 121.11 81.5491 121.299 81.5408C121.497 81.5335 121.707 81.5415 121.93 81.5649C122.394 81.6137 122.72 81.7277 122.907 81.907C123.096 82.0769 123.167 82.3801 123.122 82.8163L122.526 88.4831C122.421 88.5002 122.269 88.5125 122.072 88.5198C121.883 88.5282 121.677 88.5206 121.455 88.4972C120.99 88.4484 120.664 88.339 120.476 88.1691C120.288 87.9898 120.217 87.682 120.263 87.2458L120.858 81.579ZM120.955 79.5902C120.992 79.2374 121.139 78.9526 121.397 78.7357C121.663 78.5197 121.992 78.4322 122.381 78.4732C122.771 78.5141 123.07 78.6675 123.276 78.9332C123.492 79.1999 123.582 79.5096 123.545 79.8624C123.508 80.2151 123.356 80.4994 123.089 80.7154C122.832 80.9324 122.508 81.0203 122.118 80.9794C121.728 80.9384 121.425 80.7846 121.209 80.5178C121.003 80.2521 120.918 79.9429 120.955 79.5902ZM128.483 83.957C128.251 83.9326 128.024 83.9463 127.803 83.9981C127.591 84.0509 127.398 84.1433 127.225 84.2752C127.061 84.4081 126.92 84.5811 126.804 84.7941C126.689 84.9978 126.616 85.2436 126.586 85.5313C126.525 86.1068 126.643 86.5509 126.939 86.8635C127.234 87.1761 127.623 87.3578 128.106 87.4085C128.384 87.4378 128.634 87.4311 128.854 87.3886C129.075 87.3368 129.269 87.282 129.435 87.2244C129.597 87.3728 129.713 87.5257 129.78 87.683C129.858 87.8413 129.885 88.0272 129.863 88.2407C129.824 88.612 129.607 88.8895 129.212 89.0732C128.827 89.258 128.295 89.3147 127.618 89.2435C127.033 89.182 126.511 89.0522 126.054 88.8539C125.606 88.6473 125.231 88.3779 124.928 88.0458C124.635 87.7053 124.424 87.3077 124.293 86.8529C124.164 86.3888 124.13 85.8644 124.191 85.2796C124.255 84.667 124.409 84.1435 124.652 83.7092C124.904 83.2758 125.217 82.9287 125.592 82.6677C125.966 82.4068 126.384 82.2255 126.845 82.1238C127.316 82.0231 127.802 81.9991 128.303 82.0517C128.971 82.122 129.474 82.2968 129.81 82.5762C130.147 82.8556 130.295 83.1856 130.255 83.5661C130.237 83.7425 130.178 83.9052 130.077 84.0542C129.978 84.1939 129.867 84.3136 129.744 84.4133C129.594 84.3225 129.411 84.2329 129.195 84.1445C128.98 84.0468 128.743 83.9843 128.483 83.957ZM133.439 89.6301C133.334 89.6472 133.182 89.6594 132.984 89.6668C132.796 89.6751 132.59 89.6676 132.367 89.6442C131.903 89.5954 131.577 89.486 131.388 89.316C131.201 89.1368 131.13 88.829 131.176 88.3927L132.024 80.3172C132.129 80.3001 132.276 80.2874 132.465 80.2791C132.663 80.2717 132.873 80.2797 133.096 80.3031C133.56 80.3519 133.886 80.4659 134.073 80.6452C134.262 80.8152 134.333 81.1183 134.287 81.5546L133.901 85.2303L136.553 83.0315C137.036 83.0822 137.41 83.2295 137.675 83.4732C137.95 83.7179 138.07 84.0027 138.036 84.3276C138.021 84.4668 137.985 84.5943 137.925 84.7101C137.867 84.8166 137.781 84.9249 137.666 85.0348C137.561 85.1457 137.422 85.2625 137.249 85.3851C137.087 85.4995 136.895 85.6341 136.672 85.789L135.776 86.4127L137.785 88.8622C137.692 89.2935 137.527 89.614 137.289 89.8237C137.061 90.0343 136.747 90.1186 136.348 90.0766C136.051 90.0454 135.794 89.948 135.576 89.7844C135.36 89.6115 135.135 89.3391 134.902 88.9674L133.703 87.11L133.439 89.6301ZM144.306 90.9975C143.489 90.9116 142.877 90.6596 142.471 90.2415C142.073 89.8244 141.919 89.1981 142.006 88.3627L142.656 82.1808C142.761 82.1636 142.908 82.1509 143.097 82.1426C143.295 82.1259 143.502 82.1288 143.715 82.1513C144.17 82.1991 144.491 82.3126 144.679 82.4919C144.866 82.6711 144.938 82.9743 144.893 83.4012L144.814 84.1531L146.638 84.3448C146.683 84.4528 146.72 84.5881 146.75 84.7508C146.79 84.9051 146.8 85.0751 146.781 85.2608C146.747 85.5857 146.647 85.8145 146.483 85.9475C146.329 86.072 146.132 86.1217 145.891 86.0963L144.624 85.9631L144.363 88.4415C144.338 88.6828 144.394 88.8623 144.532 88.9801C144.679 89.0987 144.892 89.1727 145.17 89.202C145.309 89.2166 145.454 89.2225 145.605 89.2195C145.756 89.2073 145.889 89.1884 146.005 89.163C146.077 89.2739 146.135 89.3973 146.177 89.5331C146.229 89.6606 146.246 89.8125 146.228 89.9888C146.19 90.3416 146.026 90.6152 145.733 90.8097C145.45 91.0051 144.974 91.0677 144.306 90.9975ZM154.69 88.457C154.631 89.0139 154.49 89.5059 154.267 89.9329C154.053 90.3609 153.767 90.7156 153.409 90.9971C153.061 91.2702 152.656 91.4669 152.193 91.5872C151.73 91.7074 151.22 91.7383 150.663 91.6797C150.106 91.6212 149.613 91.4896 149.184 91.285C148.756 91.0711 148.396 90.7939 148.103 90.4534C147.821 90.1047 147.615 89.6982 147.485 89.2342C147.365 88.7711 147.334 88.2564 147.394 87.6902C147.452 87.1425 147.592 86.6552 147.815 86.2282C148.038 85.8012 148.324 85.4511 148.672 85.178C149.03 84.8965 149.44 84.6957 149.903 84.5754C150.366 84.4552 150.872 84.4238 151.419 84.4814C151.967 84.5389 152.454 84.6793 152.881 84.9025C153.309 85.1164 153.665 85.3977 153.947 85.7465C154.24 86.087 154.451 86.4892 154.58 86.9533C154.71 87.4174 154.746 87.9186 154.69 88.457ZM151.225 86.3332C150.835 86.2922 150.517 86.4137 150.271 86.6975C150.027 86.9721 149.875 87.3879 149.817 87.9448C149.755 88.5296 149.816 88.9817 149.998 89.3012C150.181 89.6114 150.468 89.787 150.857 89.8279C151.247 89.8689 151.565 89.7521 151.809 89.4775C152.054 89.2029 152.207 88.7779 152.267 88.2024C152.326 87.6454 152.264 87.2072 152.082 86.8878C151.9 86.559 151.615 86.3742 151.225 86.3332ZM165.834 89.6283C165.776 90.1853 165.635 90.6772 165.412 91.1042C165.198 91.5322 164.912 91.8869 164.554 92.1684C164.206 92.4415 163.8 92.6382 163.337 92.7585C162.874 92.8787 162.364 92.9096 161.807 92.8511C161.25 92.7925 160.757 92.6609 160.328 92.4563C159.9 92.2424 159.54 91.9652 159.247 91.6248C158.965 91.276 158.759 90.8696 158.63 90.4055C158.509 89.9424 158.479 89.4277 158.538 88.8615C158.596 88.3139 158.736 87.8265 158.96 87.3995C159.183 86.9725 159.468 86.6224 159.816 86.3493C160.174 86.0678 160.585 85.867 161.048 85.7467C161.511 85.6265 162.016 85.5951 162.564 85.6527C163.112 85.7103 163.599 85.8506 164.026 86.0738C164.454 86.2877 164.809 86.5691 165.091 86.9178C165.384 87.2583 165.595 87.6606 165.725 88.1247C165.854 88.5887 165.891 89.09 165.834 89.6283ZM162.369 87.5045C161.979 87.4635 161.662 87.585 161.416 87.8689C161.171 88.1434 161.02 88.5592 160.961 89.1161C160.9 89.7009 160.96 90.153 161.142 90.4725C161.326 90.7827 161.612 90.9583 162.002 90.9993C162.392 91.0402 162.709 90.9234 162.954 90.6488C163.198 90.3742 163.351 89.9492 163.412 89.3737C163.47 88.8168 163.408 88.3786 163.226 88.0591C163.045 87.7303 162.759 87.5455 162.369 87.5045ZM170.206 93.7197C169.983 93.6963 169.781 93.6562 169.599 93.5996C169.416 93.5522 169.249 93.4924 169.097 93.4201L168.839 95.8706C168.734 95.8878 168.583 95.9 168.385 95.9074C168.196 95.9157 167.991 95.9082 167.768 95.8847C167.304 95.836 166.978 95.7219 166.79 95.5427C166.602 95.3727 166.53 95.0696 166.576 94.6333L167.289 87.8527C167.315 87.602 167.388 87.3986 167.508 87.2422C167.637 87.0868 167.801 86.9586 167.999 86.8574C168.306 86.702 168.688 86.592 169.146 86.5275C169.613 86.4546 170.125 86.4475 170.682 86.506C171.239 86.5645 171.742 86.6878 172.192 86.8758C172.641 87.0638 173.018 87.3193 173.322 87.6421C173.626 87.965 173.843 88.3585 173.972 88.8226C174.111 89.2876 174.148 89.8311 174.082 90.453C174.02 91.0471 173.877 91.5622 173.652 91.9985C173.429 92.4256 173.144 92.7756 172.796 93.0488C172.448 93.3219 172.052 93.5149 171.609 93.6279C171.175 93.7418 170.707 93.7724 170.206 93.7197ZM170.04 91.8159C170.504 91.8647 170.872 91.7532 171.145 91.4816C171.427 91.2109 171.598 90.7832 171.66 90.1984C171.722 89.6043 171.651 89.1605 171.448 88.8669C171.253 88.5743 170.933 88.4046 170.488 88.3578C170.311 88.3393 170.146 88.3454 169.993 88.3762C169.841 88.3977 169.71 88.4309 169.602 88.4759L169.281 91.539C169.386 91.6064 169.502 91.6655 169.628 91.7163C169.754 91.7671 169.891 91.8003 170.04 91.8159ZM177.267 91.7732C177.362 92.121 177.555 92.3806 177.847 92.552C178.14 92.7142 178.476 92.8152 178.857 92.8552C179.247 92.8962 179.623 92.8888 179.985 92.8331C180.349 92.7681 180.644 92.6818 180.871 92.5743C181.01 92.6827 181.122 92.8258 181.206 93.0036C181.291 93.1814 181.323 93.3632 181.304 93.5488C181.279 93.7809 181.193 93.9736 181.046 94.127C180.898 94.2805 180.698 94.4002 180.445 94.4862C180.201 94.5732 179.915 94.6228 179.585 94.6351C179.254 94.6566 178.894 94.6469 178.504 94.6059C177.956 94.5484 177.454 94.4205 176.996 94.2222C176.548 94.0156 176.169 93.7411 175.858 93.3987C175.546 93.0563 175.318 92.6428 175.172 92.1582C175.025 91.6736 174.985 91.1204 175.05 90.4984C175.115 89.8858 175.267 89.3716 175.508 88.9558C175.759 88.5318 176.062 88.1976 176.416 87.9532C176.78 87.7006 177.178 87.5313 177.61 87.4452C178.042 87.3499 178.476 87.3252 178.912 87.371C179.404 87.4227 179.842 87.5438 180.226 87.7343C180.618 87.9257 180.945 88.1665 181.205 88.4566C181.475 88.7478 181.67 89.0826 181.79 89.4612C181.909 89.8398 181.947 90.2426 181.902 90.6696C181.869 90.9852 181.755 91.2172 181.561 91.3658C181.367 91.5143 181.11 91.5952 180.79 91.6085L177.267 91.7732ZM178.745 89.099C178.392 89.0619 178.084 89.1374 177.82 89.3255C177.566 89.5146 177.395 89.8017 177.307 90.1867L179.715 90.0456C179.716 89.9518 179.698 89.856 179.661 89.7583C179.625 89.6513 179.57 89.5517 179.495 89.4594C179.421 89.3671 179.321 89.2909 179.196 89.2308C179.071 89.1614 178.921 89.1175 178.745 89.099ZM189.375 95.5092C189.27 95.5263 189.118 95.5385 188.92 95.5459C188.732 95.5542 188.526 95.5467 188.303 95.5233C187.839 95.4745 187.513 95.3651 187.324 95.1951C187.137 95.0159 187.066 94.7081 187.112 94.2719L187.457 90.986C187.487 90.6982 187.421 90.4801 187.258 90.3316C187.106 90.1748 186.89 90.0818 186.612 90.0525C186.426 90.033 186.247 90.0377 186.075 90.0665C185.913 90.0963 185.753 90.1406 185.597 90.1992L185.086 95.0585C184.981 95.0756 184.83 95.0878 184.632 95.0952C184.443 95.1035 184.238 95.096 184.015 95.0726C183.551 95.0238 183.224 94.9144 183.036 94.7444C182.848 94.5652 182.777 94.2574 182.823 93.8211L183.264 89.6302C183.29 89.3796 183.363 89.1808 183.481 89.0337C183.609 88.8876 183.773 88.7593 183.972 88.6489C184.311 88.4593 184.724 88.3244 185.211 88.2442C185.709 88.1557 186.25 88.1422 186.834 88.2036C187.883 88.3139 188.666 88.6308 189.184 89.1544C189.702 89.6688 189.918 90.339 189.831 91.1651L189.375 95.5092Z" fill="#202020"/>
<g filter="url(#filter3_d)">
<ellipse cx="144.135" cy="134.615" rx="31.9433" ry="31.8918" transform="rotate(6 144.135 134.615)" fill="#1BD27F"/>
</g>
<path fill-rule="evenodd" clip-rule="evenodd" d="M154.356 133.459L152.997 133.316L153.413 129.359C153.897 124.752 150.429 120.598 145.684 120.099C140.938 119.6 136.682 122.943 136.198 127.549L135.782 131.507L134.423 131.364C132.922 131.206 131.58 132.26 131.427 133.717L130.318 144.271C130.165 145.727 131.258 147.037 132.759 147.195L152.692 149.29C154.193 149.447 155.535 148.394 155.688 146.937L156.797 136.383C156.95 134.927 155.857 133.617 154.356 133.459ZM148.467 132.84L140.312 131.983L140.728 128.025C140.958 125.843 142.973 124.26 145.222 124.496C147.47 124.733 149.112 126.7 148.883 128.882L148.467 132.84Z" fill="white"/>
</g>
<defs>
<filter id="filter0_d" x="14.6796" y="39" width="271.017" height="181.127" filterUnits="userSpaceOnUse" color-interpolation-filters="sRGB">
<feFlood flood-opacity="0" result="BackgroundImageFix"/>
<feColorMatrix in="SourceAlpha" type="matrix" values="0 0 0 0 0 0 0 0 0 0 0 0 0 0 0 0 0 0 127 0" result="hardAlpha"/>
<feOffset dx="5" dy="5"/>
<feGaussianBlur stdDeviation="5"/>
<feColorMatrix type="matrix" values="0 0 0 0 0 0 0 0 0 0 0 0 0 0 0 0 0 0 0.2 0"/>
<feBlend mode="normal" in2="BackgroundImageFix" result="effect1_dropShadow"/>
<feBlend mode="normal" in="SourceGraphic" in2="effect1_dropShadow" result="shape"/>
</filter>
<filter id="filter1_d" x="0.91333" y="81.6641" width="279.451" height="164.611" filterUnits="userSpaceOnUse" color-interpolation-filters="sRGB">
<feFlood flood-opacity="0" result="BackgroundImageFix"/>
<feColorMatrix in="SourceAlpha" type="matrix" values="0 0 0 0 0 0 0 0 0 0 0 0 0 0 0 0 0 0 127 0" result="hardAlpha"/>
<feOffset dx="2" dy="11"/>
<feGaussianBlur stdDeviation="16.5"/>
<feComposite in2="hardAlpha" operator="out"/>
<feColorMatrix type="matrix" values="0 0 0 0 0 0 0 0 0 0 0 0 0 0 0 0 0 0 0.12 0"/>
<feBlend mode="normal" in2="BackgroundImageFix" result="effect1_dropShadow"/>
<feBlend mode="normal" in="SourceGraphic" in2="effect1_dropShadow" result="shape"/>
</filter>
<filter id="filter2_d" x="14.176" y="24.418" width="279.451" height="164.785" filterUnits="userSpaceOnUse" color-interpolation-filters="sRGB">
<feFlood flood-opacity="0" result="BackgroundImageFix"/>
<feColorMatrix in="SourceAlpha" type="matrix" values="0 0 0 0 0 0 0 0 0 0 0 0 0 0 0 0 0 0 127 0" result="hardAlpha"/>
<feOffset dx="2" dy="11"/>
<feGaussianBlur stdDeviation="16.5"/>
<feComposite in2="hardAlpha" operator="out"/>
<feColorMatrix type="matrix" values="0 0 0 0 0 0 0 0 0 0 0 0 0 0 0 0 0 0 0.12 0"/>
<feBlend mode="normal" in2="BackgroundImageFix" result="effect1_dropShadow"/>
<feBlend mode="normal" in="SourceGraphic" in2="effect1_dropShadow" result="shape"/>
</filter>
<filter id="filter3_d" x="106.19" y="98.7188" width="79.8906" height="79.791" filterUnits="userSpaceOnUse" color-interpolation-filters="sRGB">
<feFlood flood-opacity="0" result="BackgroundImageFix"/>
<feColorMatrix in="SourceAlpha" type="matrix" values="0 0 0 0 0 0 0 0 0 0 0 0 0 0 0 0 0 0 127 0" result="hardAlpha"/>
<feOffset dx="2" dy="4"/>
<feGaussianBlur stdDeviation="4"/>
<feColorMatrix type="matrix" values="0 0 0 0 0 0 0 0 0 0 0 0 0 0 0 0 0 0 0.24 0"/>
<feBlend mode="normal" in2="BackgroundImageFix" result="effect1_dropShadow"/>
<feBlend mode="normal" in="SourceGraphic" in2="effect1_dropShadow" result="shape"/>
</filter>
</defs>
</svg>
