<svg width="60" height="60" viewBox="0 0 60 60" fill="none" xmlns="http://www.w3.org/2000/svg">
<path fill-rule="evenodd" clip-rule="evenodd" d="M25.3261 38.8512C25.3261 43.4704 25.3318 47.9118 25.3198 52.3532C25.3182 52.989 25.2924 53.6363 25.1756 54.2589C24.5958 57.3542 22.1659 59.6548 19.0332 59.9138C17.7794 60.0175 16.4491 59.9601 15.2364 59.6512C12.1703 58.8698 10.2126 56.1041 10.2071 52.7765C10.1942 45.2015 10.2029 37.6266 10.2029 30.0512C10.2027 22.5435 10.1998 15.0361 10.2039 7.52838C10.2063 2.93747 13.1255 0.00918352 17.7049 0.0069613C26.1889 0.00271887 34.673 -0.00980638 43.157 0.0148401C46.4877 0.0245371 49.2829 2.27726 49.9776 5.40333C50.7756 8.99383 49.2954 12.4132 46.1843 13.7938C45.1718 14.2431 43.9835 14.4771 42.8716 14.4912C37.4184 14.5607 31.9639 14.5229 26.5097 14.5229H25.3782V24.3641C25.7742 24.3641 26.1606 24.3637 26.5473 24.3641C30.2843 24.3684 34.0221 24.3217 37.7578 24.3926C40.7819 24.4498 43.176 26.214 44.1748 28.9354C45.2279 31.8039 44.4972 35.0413 42.34 37.0227C40.9019 38.3441 39.1829 38.8684 37.2505 38.8565C33.7158 38.8348 30.1806 38.8508 26.6457 38.8512H25.3261Z" fill="#808080"/>
</svg>
