<svg width="104" height="104" viewBox="0 0 104 104" fill="none" xmlns="http://www.w3.org/2000/svg">
<path d="M104 52C104 80.704 80.704 104 52 104C23.296 104 0 80.704 0 52C0 23.296 23.296 0 52 0C80.704 0 104 23.296 104 52Z" fill="#F7F7F7"/>
<path d="M29.2239 75.6081C26.3119 75.6081 23.9199 73.2161 23.9199 70.3041V33.6961C23.9199 30.7841 26.3119 28.3921 29.2239 28.3921H74.8799C77.7919 28.3921 80.1839 30.7841 80.1839 33.6961V70.3041C80.1839 73.2161 77.7919 75.6081 74.8799 75.6081H29.2239Z" fill="white"/>
<path d="M74.7759 28.9121C77.3759 28.9121 79.5599 31.0961 79.5599 33.6961V70.3041C79.5599 72.9041 77.3759 75.0881 74.7759 75.0881H29.2239C26.6239 75.0881 24.4399 72.9041 24.4399 70.3041V33.6961C24.4399 31.0961 26.6239 28.9121 29.2239 28.9121H74.7759ZM74.7759 27.8721H29.2239C25.9999 27.8721 23.3999 30.4721 23.3999 33.6961V70.3041C23.3999 73.5281 25.9999 76.128 29.2239 76.128H74.8799C78.1039 76.128 80.7039 73.5281 80.7039 70.3041V33.6961C80.5999 30.4721 77.9999 27.8721 74.7759 27.8721Z" fill="#262626"/>
<path d="M34.2158 49.6082C35.7758 47.5282 38.7918 46.8002 41.0798 47.8402C42.6398 48.5682 43.9918 49.9202 45.6558 50.0242C48.2558 50.1282 50.0238 47.2162 52.6238 46.8002C55.3278 46.2802 57.8238 48.5682 60.5278 48.6722C63.6478 48.7762 66.0398 46.1762 68.0158 43.6802" stroke="#262626" stroke-width="2" stroke-miterlimit="10" stroke-linecap="round"/>
<path d="M34.2158 61.7761C36.3998 61.5681 38.6878 61.3601 40.7678 62.2961C42.2238 62.9201 43.6798 64.1681 45.2398 63.9601C46.3838 63.7521 47.2158 63.0241 48.1518 62.4001C49.5038 61.5681 51.1678 61.1521 52.8318 61.2561C54.9118 61.4641 56.8878 62.5041 58.8638 61.8801C59.4878 61.6721 60.0078 61.3601 60.6318 61.1521" stroke="#262626" stroke-width="2" stroke-miterlimit="10" stroke-linecap="round"/>
<path d="M92.0401 26.7279C91.0001 27.1439 89.7521 27.8719 88.2961 28.8079C85.3841 30.7839 81.9521 33.6959 78.7281 36.8159C75.4001 40.1439 71.1361 45.0319 69.1601 48.2559C68.2241 48.0479 67.2881 48.3599 66.5601 48.9839C65.9361 49.6079 65.6241 50.5439 65.7281 51.3759L61.7761 52.9359C61.5681 53.0399 61.3601 53.1439 61.3601 53.3519L58.9681 61.7759C58.8641 62.2959 59.2801 62.8159 59.9041 62.6079L68.3281 60.2159C68.5361 60.1119 68.7441 60.0079 68.8481 59.7999L70.2001 55.8479C71.1361 56.0559 72.0721 55.7439 72.6961 55.0159C73.4241 54.2879 73.6321 53.3519 73.4241 52.4159C76.6481 50.4399 81.5361 46.1759 84.8641 42.8479C87.9841 39.7279 90.8961 36.2959 92.8721 33.2799C93.9121 31.8239 94.5361 30.5759 94.9521 29.5359C95.1601 29.0159 95.6801 27.5599 94.8481 26.7279C94.0161 25.9999 92.5601 26.5199 92.0401 26.7279Z" fill="#262626"/>
<path d="M67.4961 58.968L61.9841 60.528L65.5201 56.992C65.8321 56.68 65.8321 56.264 65.5201 55.952C65.2081 55.64 64.7921 55.64 64.4801 55.952L60.9441 59.488L62.5041 53.976L66.1441 52.624C68.7441 55.224 66.0401 52.52 68.6401 55.12L67.4961 58.968Z" fill="white"/>
<path d="M71.552 54.0799C71.032 54.5999 70.096 54.5999 69.576 54.0799L67.6 52.1039C67.08 51.5839 67.08 50.6479 67.6 50.1279C68.016 49.7119 68.64 49.6079 69.16 49.8159C69.576 50.0239 69.576 50.1279 71.552 52.1039C72.176 52.6239 72.072 53.5599 71.552 54.0799Z" fill="white"/>
<path d="M91.52 32.76C89.648 35.568 86.84 38.896 83.824 41.808C80.184 45.448 75.504 49.4 72.8 51.168C72.696 51.064 72.8 51.168 70.616 48.984L70.512 48.88C72.28 46.072 76.128 41.496 79.872 37.856C82.888 34.84 86.216 32.032 88.92 30.16C92.248 27.872 93.704 27.664 93.912 27.768C93.912 28.08 93.808 29.432 91.52 32.76Z" fill="white"/>
</svg>
