<svg width="69" height="30" viewBox="0 0 69 30" fill="none" xmlns="http://www.w3.org/2000/svg">
<g clip-path="url(#clip0)">
<path d="M8.322 19.6682C6.832 19.6682 5.572 19.1882 4.58 18.2282C3.586 17.2682 3.09 16.0342 3.09 14.4902C3.09 12.9472 3.586 11.7122 4.58 10.7522C5.572 9.79418 6.832 9.31318 8.322 9.31318C9.712 9.31318 10.905 9.79318 11.898 10.7532C12.891 11.7132 13.388 12.9472 13.388 14.4902C13.388 15.9982 12.891 17.2332 11.898 18.1952C10.905 19.1552 9.713 19.6682 8.322 19.6682ZM16.414 6.65318H13.188V8.31718C11.942 6.92418 10.122 6.21018 7.728 6.21018C5.652 6.21018 3.832 6.99318 2.299 8.55618C0.766 10.1202 0 12.0562 0 14.3342C0 16.6102 0.766 18.5482 2.331 20.1462C3.896 21.7442 5.716 22.5262 7.791 22.5262C10.187 22.5262 12.007 21.8122 13.253 20.4182V21.5062C13.253 23.1372 12.806 24.4292 11.911 25.3812C11.017 26.3322 9.803 26.8082 8.302 26.8082C7.089 26.8082 6.099 26.5722 5.334 26.0942C4.567 25.6192 3.864 24.8702 3.257 23.8182L0.542 25.9602C1.916 28.6442 4.502 30.0032 8.302 30.0032C10.826 30.0032 12.806 29.2892 14.275 27.8952C15.742 26.5032 16.478 24.5652 16.478 22.0842L16.414 6.65318ZM29.238 20.8512C27.688 20.8512 26.401 20.2142 25.378 19.1752C24.357 18.1372 23.862 16.7622 23.862 15.0542C23.862 13.3442 24.357 11.9712 25.379 10.9322C26.401 9.89418 27.689 9.39118 29.239 9.39118C30.656 9.39118 31.909 9.92718 32.998 11.0002C34.086 12.0712 34.614 13.4462 34.614 15.1202C34.614 16.7962 34.086 18.1702 32.998 19.2422C31.91 20.3162 30.656 20.8522 29.238 20.8522V20.8512ZM38.108 6.67918H34.678V8.58918C33.195 7.01518 31.216 6.21018 28.744 6.21018C26.534 6.21018 24.622 7.04818 23.007 8.68918C21.391 10.3302 20.6 12.4412 20.6 14.9872C20.6 17.5652 21.391 19.6762 22.973 21.3192C24.557 22.9592 26.468 23.7962 28.678 23.7962C31.151 23.7962 33.128 22.9922 34.612 21.4192V23.3272H38.042L38.108 6.67918ZM52.024 20.8002C50.6 20.8002 49.341 20.2822 48.248 19.2462C47.155 18.2102 46.624 16.8822 46.624 15.2632C46.624 13.6432 47.155 12.3152 48.248 11.2792C49.341 10.2432 50.6 9.72518 52.024 9.72518C53.582 9.72518 54.874 10.2432 55.902 11.2472C56.928 12.2512 57.425 13.5792 57.425 15.2302C57.425 16.8822 56.928 18.2102 55.902 19.2152C54.874 20.2172 53.582 20.8002 52.024 20.8002ZM52.582 6.80718C52.6047 6.80711 52.6273 6.80711 52.65 6.80718H52.582ZM52.614 6.80718C50.148 6.81518 48.174 7.59218 46.692 9.10918V0.000178299H43.25V23.3402H46.692V21.4902C48.181 23.0142 50.167 23.7922 52.65 23.7922C54.866 23.7922 56.785 23.0142 58.374 21.4252C59.962 19.8372 60.757 17.7952 60.757 15.2992C60.757 12.8352 59.962 10.7942 58.34 9.20618C56.727 7.62418 54.818 6.81418 52.614 6.80618V6.80718ZM64.88 7.24118H67.97V23.7932H64.88V7.24118ZM66.971 0.000178299C66.9503 -5.9433e-05 66.9297 -5.9433e-05 66.909 0.000178299L66.971 0.000178299ZM68.406 0.610178C68.812 1.02718 68.999 1.50818 68.999 2.08618C68.999 2.69518 68.812 3.17618 68.438 3.56118C68.063 3.94618 67.565 4.13818 66.971 4.13818C66.378 4.13818 65.879 3.94618 65.473 3.56118C65.068 3.17618 64.88 2.69518 64.88 2.08618C64.88 1.50818 65.068 1.02618 65.473 0.609178C65.873 0.199178 66.361 0.0071783 66.94 0.000178299C67.52 0.0071783 68.008 0.200178 68.406 0.610178Z" fill="#3979E6"/>
</g>
<defs>
<clipPath id="clip0">
<rect width="69" height="30" fill="white"/>
</clipPath>
</defs>
</svg>
