<svg width="104" height="104" viewBox="0 0 104 104" fill="none" xmlns="http://www.w3.org/2000/svg">
<path d="M0 20C0 8.95431 8.95431 0 20 0H84C95.0457 0 104 8.95431 104 20V84C104 95.0457 95.0457 104 84 104H20C8.95431 104 0 95.0457 0 84V20Z" fill="#494949"/>
<path d="M22.4788 57.4021C20.7817 57.4021 19.3465 56.8554 18.2166 55.7619C17.0845 54.6685 16.5195 53.263 16.5195 51.5043C16.5195 49.7469 17.0845 48.3402 18.2166 47.2468C19.3465 46.1556 20.7817 45.6077 22.4788 45.6077C24.062 45.6077 25.4208 46.1545 26.5518 47.2479C27.6829 48.3413 28.249 49.7469 28.249 51.5043C28.249 53.222 27.6829 54.6286 26.5518 55.7243C25.4208 56.8178 24.0631 57.4021 22.4788 57.4021ZM31.6956 42.578H28.0212V44.4733C26.602 42.8867 24.529 42.0734 21.8022 42.0734C19.4376 42.0734 17.3647 42.9652 15.6186 44.7455C13.8725 46.5269 13 48.732 13 51.3267C13 53.919 13.8725 56.1264 15.655 57.9465C17.4376 59.7667 19.5105 60.6574 21.874 60.6574C24.603 60.6574 26.676 59.8441 28.0952 58.2564V59.4956C28.0952 61.3533 27.5861 62.8249 26.5667 63.9092C25.5484 64.9924 24.1656 65.5346 22.456 65.5346C21.0744 65.5346 19.9468 65.2658 19.0754 64.7213C18.2018 64.1803 17.4011 63.3272 16.7097 62.129L13.6173 64.5687C15.1823 67.6258 18.1278 69.1737 22.456 69.1737C25.3308 69.1737 27.5861 68.3604 29.2593 66.7727C30.9302 65.1872 31.7685 62.9798 31.7685 60.1539L31.6956 42.578ZM46.3021 58.7495C44.5367 58.7495 43.0708 58.024 41.9056 56.8406C40.7427 55.6583 40.1789 54.0922 40.1789 52.1467C40.1789 50.199 40.7427 48.6352 41.9067 47.4518C43.0708 46.2695 44.5378 45.6966 46.3033 45.6966C47.9172 45.6966 49.3444 46.3071 50.5848 47.5292C51.824 48.7491 52.4254 50.3152 52.4254 52.2219C52.4254 54.1309 51.824 55.6959 50.5848 56.9169C49.3456 58.1402 47.9172 58.7507 46.3021 58.7507V58.7495ZM56.4051 42.6076H52.4983V44.7831C50.8092 42.9903 48.5551 42.0734 45.7395 42.0734C43.2223 42.0734 41.0445 43.0279 39.205 44.897C37.3644 46.7661 36.4634 49.1705 36.4634 52.0704C36.4634 55.0068 37.3644 57.4112 39.1663 59.2826C40.9705 61.1506 43.1471 62.1039 45.6643 62.1039C48.481 62.1039 50.7329 61.1881 52.4231 59.3965V61.5697H56.3299L56.4051 42.6076ZM72.2554 58.6915C70.6335 58.6915 69.1995 58.1014 67.9546 56.9214C66.7096 55.7414 66.1048 54.2288 66.1048 52.3848C66.1048 50.5396 66.7096 49.027 67.9546 47.847C69.1995 46.667 70.6335 46.077 72.2554 46.077C74.03 46.077 75.5016 46.667 76.6725 47.8106C77.8411 48.9541 78.4072 50.4667 78.4072 52.3472C78.4072 54.2288 77.8411 55.7414 76.6725 56.8861C75.5016 58.0274 74.03 58.6915 72.2554 58.6915ZM72.891 42.7534C72.9168 42.7533 72.9426 42.7533 72.9685 42.7534H72.891ZM72.9274 42.7534C70.1187 42.7625 67.8703 43.6475 66.1823 45.3754V35.0002H62.2618V61.5845H66.1823V59.4774C67.8783 61.2132 70.1403 62.0993 72.9685 62.0993C75.4925 62.0993 77.6782 61.2132 79.4881 59.4033C81.2968 57.5946 82.2023 55.2687 82.2023 52.4258C82.2023 49.6193 81.2968 47.2946 79.4494 45.4859C77.6122 43.684 75.4378 42.7614 72.9274 42.7523V42.7534ZM86.8984 43.2477H90.418V62.1005H86.8984V43.2477ZM89.2801 35.0002C89.2566 34.9999 89.233 34.9999 89.2095 35.0002L89.2801 35.0002ZM90.9146 35.695C91.377 36.17 91.59 36.7178 91.59 37.3762C91.59 38.0698 91.377 38.6177 90.951 39.0562C90.5239 39.4947 89.9567 39.7134 89.2801 39.7134C88.6047 39.7134 88.0363 39.4947 87.5739 39.0562C87.1126 38.6177 86.8984 38.0698 86.8984 37.3762C86.8984 36.7178 87.1126 36.1688 87.5739 35.6939C88.0295 35.2269 88.5853 35.0082 89.2448 35.0002C89.9054 35.0082 90.4612 35.228 90.9146 35.695Z" fill="white"/>
</svg>
