<svg width="28" height="28" viewBox="0 0 28 28" fill="none" xmlns="http://www.w3.org/2000/svg">
<path d="M7.50453 16.4341L6.69233 19.4662L3.72376 19.529C2.83659 17.8835 2.33337 16.0008 2.33337 14.0002C2.33337 12.0655 2.80387 10.2412 3.63785 8.63477H3.63849L6.28135 9.1193L7.43909 11.7463C7.19678 12.4527 7.06471 13.2111 7.06471 14.0002C7.0648 14.8566 7.21993 15.6771 7.50453 16.4341Z" fill="#FBBB00"/>
<path d="M25.4627 11.8203C25.5967 12.5261 25.6665 13.2549 25.6665 13.9998C25.6665 14.8351 25.5787 15.6498 25.4114 16.4357C24.8435 19.1101 23.3595 21.4453 21.3037 23.0979L21.3031 23.0972L17.9743 22.9274L17.5031 19.9863C18.8672 19.1864 19.9333 17.9344 20.4948 16.4357H14.2563V11.8203H20.5858H25.4627Z" fill="#518EF8"/>
<path d="M21.3033 23.099L21.304 23.0996C19.3047 24.7067 16.7649 25.6682 14.0002 25.6682C9.55721 25.6682 5.6944 23.1849 3.72388 19.5304L7.50465 16.4355C8.48989 19.065 11.0264 20.9368 14.0002 20.9368C15.2783 20.9368 16.4758 20.5913 17.5033 19.9881L21.3033 23.099Z" fill="#28B446"/>
<path d="M21.4469 5.01987L17.6674 8.11408C16.604 7.44936 15.3469 7.06536 14.0001 7.06536C10.9591 7.06536 8.37511 9.02304 7.43922 11.7468L3.63858 8.63526H3.63794C5.57962 4.89167 9.49114 2.33398 14.0001 2.33398C16.8309 2.33398 19.4264 3.34233 21.4469 5.01987Z" fill="#F14336"/>
</svg>
