<svg width="80" height="18" viewBox="0 0 80 18" fill="none" xmlns="http://www.w3.org/2000/svg">
<path d="M40.536 14.8755C43.184 14.8755 44.948 13.1595 44.948 10.2635V2.85547H42.052V10.1475C42.052 11.4955 41.568 12.1635 40.552 12.1635C39.572 12.1635 39.152 11.4795 39.152 10.1475V2.85547H36.24V10.2635C36.244 13.2235 37.856 14.8755 40.536 14.8755Z" fill="#B6B6B6"/>
<path d="M52.7079 3.50347C51.9079 2.93947 50.9599 2.85547 49.7119 2.85547H45.7839V14.6915H48.6799V10.8795H49.5119C50.7439 10.8795 51.6759 10.7955 52.4279 10.3475C53.6079 9.63147 54.3079 8.36747 54.3079 6.83547C54.3079 5.35147 53.7599 4.23547 52.7079 3.50347ZM49.2479 8.31547H48.7159V5.50347H49.4799C50.7639 5.50347 51.3799 5.90347 51.3799 6.88347C51.3759 7.94747 50.6799 8.31547 49.2479 8.31547Z" fill="#B6B6B6"/>
<path d="M70.324 8.09947L74.736 14.6915H77.28V2.85547H74.388V9.43147L70.04 2.85547H67.428V14.6915H70.324V8.09947Z" fill="#B6B6B6"/>
<path d="M33.6601 4.38863C32.5121 3.25662 31.0161 2.64062 29.4321 2.64062C27.7521 2.64062 26.2841 3.22463 25.1201 4.37263C23.9561 5.52063 23.3201 7.02063 23.3201 8.65263C23.3201 10.4006 23.8881 11.8646 25.0001 13.0486C26.1641 14.2806 27.6641 14.9126 29.4121 14.9126C31.0601 14.9126 32.6241 14.2646 33.7721 13.0646C34.888 11.9166 35.488 10.4006 35.488 8.70463C35.492 7.08463 34.8601 5.56862 33.6601 4.38863ZM29.4161 11.9806C27.7841 11.9806 26.3041 10.5486 26.3041 8.68463C26.3041 6.95263 27.6841 5.57263 29.4521 5.57263C31.1161 5.57263 32.5001 6.95263 32.5001 8.68463C32.4961 10.6126 31.1161 11.9806 29.4161 11.9806Z" fill="#B6B6B6"/>
<path d="M65.028 4.38863C63.88 3.25662 62.38 2.64062 60.8 2.64062C59.116 2.64062 57.652 3.22463 56.488 4.37263C55.324 5.52063 54.688 7.02063 54.688 8.65263C54.688 10.4006 55.256 11.8646 56.368 13.0486C57.536 14.2806 59.032 14.9126 60.78 14.9126C62.428 14.9126 63.992 14.2646 65.14 13.0646C66.256 11.9166 66.856 10.4006 66.856 8.70463C66.86 7.08463 66.228 5.56862 65.028 4.38863ZM60.784 11.9806C59.152 11.9806 57.672 10.5486 57.672 8.68463C57.672 6.95263 59.056 5.57263 60.82 5.57263C62.484 5.57263 63.868 6.95263 63.868 8.68463C63.864 10.6126 62.48 11.9806 60.784 11.9806Z" fill="#B6B6B6"/>
<path d="M3.16406 13.0452C4.32806 14.2772 5.81206 14.9252 7.56006 14.9252C9.57606 14.9252 11.4721 13.9252 12.6041 12.2772C13.2881 11.2772 13.6201 10.1452 13.6201 8.81319C13.6201 8.56519 13.6041 8.29719 13.5881 8.02919H6.84406V10.3932H10.2241C9.64006 11.4252 8.66006 11.9932 7.56006 11.9932C5.92806 11.9932 4.46406 10.5452 4.46406 8.66119C4.46406 6.96119 5.82806 5.54919 7.56006 5.54919C8.49206 5.54919 9.25606 5.93319 9.99206 6.69719H13.2881C12.3401 4.16519 10.1241 2.61719 7.59606 2.61719C5.91606 2.61719 4.45206 3.21719 3.28406 4.36519C2.12006 5.51319 1.48806 7.01319 1.48806 8.64519C1.48406 10.3972 2.04806 11.8612 3.16406 13.0452Z" fill="#B6B6B6"/>
<path d="M20.1921 10.6275C21.8721 10.1595 22.8721 8.73147 22.8721 6.81547C22.8721 5.35147 22.3241 4.23547 21.2721 3.50347C20.4721 2.93947 19.5241 2.85547 18.2761 2.85547H14.3481V14.6915H17.2441V10.8795L19.5081 14.6915H23.0881L20.1921 10.6275ZM17.8121 8.31547H17.2481V5.50347H18.0481C19.3281 5.50347 19.9441 5.90347 19.9441 6.88347C19.9441 7.94747 19.2441 8.31547 17.8121 8.31547Z" fill="#B6B6B6"/>
<path d="M79.0201 4.35626C79.2681 4.35626 79.4801 4.26826 79.6521 4.09226C79.8281 3.91626 79.9121 3.70426 79.9121 3.46026C79.9121 3.21226 79.8241 3.00426 79.6521 2.83226C79.4801 2.66027 79.2681 2.57227 79.0201 2.57227C78.7761 2.57227 78.5641 2.66027 78.3921 2.83226C78.2161 3.00826 78.1321 3.21626 78.1321 3.46026C78.1321 3.70826 78.2201 3.92026 78.3921 4.09226C78.5641 4.26826 78.7721 4.35626 79.0201 4.35626ZM78.4801 2.91626C78.6321 2.76427 78.8121 2.68827 79.0241 2.68827C79.2361 2.68827 79.4201 2.76427 79.5681 2.91626C79.7161 3.06426 79.7921 3.24826 79.7921 3.46026C79.7921 3.67226 79.7161 3.85626 79.5681 4.00826C79.4201 4.16026 79.2401 4.23626 79.0241 4.23626C78.8121 4.23626 78.6281 4.16026 78.4801 4.00826C78.3321 3.85626 78.2561 3.67626 78.2561 3.46026C78.2561 3.24826 78.3281 3.06826 78.4801 2.91626Z" fill="#B6B6B6"/>
<path d="M79.416 3.93284C79.412 3.92484 79.408 3.90884 79.408 3.88084C79.408 3.85684 79.404 3.82884 79.404 3.80884V3.73684C79.404 3.68884 79.388 3.63684 79.352 3.58484C79.316 3.53284 79.26 3.50084 79.184 3.48884C79.244 3.48084 79.292 3.46484 79.324 3.44084C79.388 3.40084 79.42 3.33284 79.42 3.24884C79.42 3.12484 79.368 3.04084 79.268 3.00084C79.212 2.97684 79.124 2.96484 79 2.96484H78.656V3.94484H78.828V3.56084H78.964C79.056 3.56084 79.12 3.57284 79.156 3.59284C79.22 3.62884 79.248 3.70484 79.248 3.81684V3.89284L79.252 3.92484C79.252 3.92884 79.252 3.93284 79.252 3.93684C79.252 3.94084 79.252 3.94484 79.256 3.94484H79.416V3.93284ZM79.156 3.41684C79.12 3.43284 79.064 3.43684 78.992 3.43684H78.836V3.08084H78.984C79.08 3.08084 79.148 3.09284 79.192 3.11684C79.236 3.14084 79.256 3.18884 79.256 3.26084C79.256 3.34084 79.22 3.39284 79.156 3.41684Z" fill="#B6B6B6"/>
</svg>
