<svg width="40" height="40" viewBox="0 0 40 40" fill="none" xmlns="http://www.w3.org/2000/svg">
<path d="M19.9998 33C19.7286 33 19.4783 32.8927 19.2488 32.764C14.7429 30.3614 11.2591 27.5726 8.60983 24.269C6.25258 21.2871 5.06352 18.2195 5.00093 14.8944C4.93835 10.6469 8.02574 7.19307 12.0727 7.02145C12.1979 7.02145 12.3022 7.02145 12.4273 7.02145C16.3074 7.02145 19.52 10.0677 19.8955 14.1221C19.9372 14.4653 19.9789 14.6584 20.0206 14.7013C20.0832 14.637 20.1041 14.2937 20.1249 14.165V14.0792C20.4587 10.5611 23.0454 7.62211 26.1537 7.23597C26.6752 7.08581 27.2384 7 27.7808 7C31.5566 7 34.936 10.4967 34.9986 14.4868C35.0403 17.4686 34.1433 20.3432 32.2867 23.0033C29.5331 26.9934 25.7156 30.1898 20.6256 32.7855C20.4378 32.9142 20.2292 33 19.9998 33Z" fill="white"/>
<path d="M27.622 7.62751C31.0549 7.62751 34.3243 10.7651 34.3856 14.6138C34.447 17.6259 33.4866 20.3242 31.7905 22.7297C28.8685 26.934 24.9247 29.9043 20.4497 32.1633C20.3066 32.2888 20.1636 32.3307 20.0001 32.3307C19.8162 32.3307 19.6119 32.247 19.4075 32.1424C15.4842 30.0507 11.9287 27.457 9.08834 23.9429C7.00407 21.3492 5.67586 18.4208 5.61456 14.9903C5.55326 11.037 8.47532 7.81577 12.2352 7.64843C12.3373 7.64843 12.46 7.64843 12.5621 7.64843C16.2402 7.62751 19.2236 10.4513 19.571 14.2792C19.6119 14.6138 19.6527 15.1368 20.0001 15.1368C20.3475 15.1368 20.3679 14.5929 20.4088 14.2373C20.7357 10.9533 23.1469 8.19228 26.0894 7.83669C26.6003 7.69027 27.1111 7.62751 27.622 7.62751ZM27.622 7C27.0703 7 26.4981 7.08367 25.9668 7.23009C23.1265 7.6066 20.7153 10.0121 20.0001 13.0451C19.6323 11.4972 18.8558 10.1167 17.7319 9.0708C16.3424 7.7321 14.5034 7 12.5621 7C12.4395 7 12.3169 7 12.2147 7C8.10751 7.20917 4.9198 10.7232 5.00154 15.0113C5.06284 18.3371 6.24801 21.391 8.61836 24.3612C11.2339 27.6243 14.6668 30.3644 19.1214 32.7281C19.3871 32.8745 19.6527 33 20.0001 33C20.2862 33 20.5314 32.9163 20.7766 32.7281C25.8034 30.1762 29.5632 27.0386 32.2809 23.1062C34.1404 20.4497 35.0395 17.5841 34.9987 14.6138C34.9578 12.6058 34.1404 10.7023 32.7101 9.23813C31.3001 7.81577 29.4406 7 27.622 7Z" fill="#494949"/>
<path d="M12 10.4481C11.9623 10.8551 11.7364 10.9269 11.4728 10.9748C9.64664 11.1902 8.46055 12.4829 7.78278 14.5657C7.66982 14.9248 7.50038 15.0923 7.21797 14.9487C6.91674 14.7811 6.99205 14.446 7.06736 14.1348C7.5192 12.1239 9.57133 10.0651 11.2281 10.0172C11.5293 9.99324 11.8682 9.92142 12 10.4481Z" fill="#1BD27F"/>
</svg>
