<svg width="160" height="160" viewBox="0 0 160 160" fill="none" xmlns="http://www.w3.org/2000/svg">
<path d="M24.6527 159.168C21.4927 159.168 18.8315 156.507 18.8315 153.347V6.65281C18.8315 3.49273 21.4927 0.831604 24.6527 0.831604H135.089C138.249 0.831604 140.911 3.49273 140.911 6.65281V153.347C140.911 156.507 138.249 159.168 135.089 159.168H24.6527Z" fill="white"/>
<path d="M135.089 1.6632C137.917 1.6632 140.079 3.82536 140.079 6.65281V153.347C140.079 156.175 137.917 158.337 135.089 158.337H24.6528C21.8254 158.337 19.6632 156.175 19.6632 153.347V6.65281C19.6632 3.82536 21.8254 1.6632 24.6528 1.6632H135.089ZM135.089 0H24.6528C20.9938 0 18 2.99376 18 6.65281V153.347C18 157.006 20.9938 160 24.6528 160H135.089C138.748 160 141.742 157.006 141.742 153.347V6.65281C141.742 2.99376 138.748 0 135.089 0Z" fill="#262626"/>
<path d="M132.428 25.1144H67.0645C66.2329 25.1144 65.5676 24.4491 65.5676 23.6175V22.1206C65.5676 21.289 66.2329 20.6237 67.0645 20.6237H132.428C133.26 20.6237 133.925 21.289 133.925 22.1206V23.6175C133.925 24.2828 133.26 25.1144 132.428 25.1144Z" fill="#ECECEC"/>
<path d="M132.428 33.5967H67.0645C66.2329 33.5967 65.5676 32.9314 65.5676 32.0998V30.6029C65.5676 29.7713 66.2329 29.106 67.0645 29.106H132.428C133.26 29.106 133.925 29.7713 133.925 30.6029V32.0998C133.925 32.9314 133.26 33.5967 132.428 33.5967Z" fill="#ECECEC"/>
<path d="M130.432 128.067H28.977C27.1475 128.067 25.6506 126.57 25.6506 124.74V93.9709C25.6506 92.1414 27.1475 90.6445 28.977 90.6445H130.599C132.428 90.6445 133.925 92.1414 133.925 93.9709V124.74C133.759 126.57 132.428 128.067 130.432 128.067Z" fill="#ECECEC"/>
<path d="M45.1101 39.9168H32.9687C28.977 39.9168 25.6506 36.5904 25.6506 32.5988V20.4574C25.817 16.4657 28.977 13.3056 32.9687 13.3056H45.1101C49.1018 13.3056 52.4282 16.632 52.4282 20.6237V32.7651C52.4282 36.5904 49.1018 39.9168 45.1101 39.9168Z" fill="#262626"/>
<path d="M39.1227 33.7629C35.131 33.7629 31.9709 30.6028 31.9709 26.6111C31.9709 22.6194 35.131 19.4593 39.1227 19.4593C43.1144 19.4593 46.2745 22.6194 46.2745 26.6111C46.2745 30.6028 43.1144 33.7629 39.1227 33.7629Z" fill="#F4EEE8"/>
<path d="M32.1372 22.7857C33.8004 24.4489 38.9563 27.2764 46.2744 23.7837C46.2744 23.7837 45.9418 26.1121 40.1206 26.4448C33.1351 26.9437 32.1372 22.7857 32.1372 22.7857Z" fill="#262626"/>
<path d="M32.4697 29.7713C34.4656 30.9355 38.1246 33.4303 45.4427 30.1039C43.4469 33.4303 35.2972 35.0935 32.4697 29.7713Z" fill="#262626"/>
<path fill-rule="evenodd" clip-rule="evenodd" d="M103.185 97V99.9093C104.535 100.052 105.727 100.408 106.801 100.994L107.549 101.401L106.039 105.104L105.076 104.597C104.576 104.333 103.403 103.714 101.546 103.714C99.7896 103.714 99.1631 104.527 99.1631 105.288C99.1631 106.112 99.6418 106.663 102.473 107.749C105.043 108.72 108 110.311 108 114.007C108 116.776 106.021 119.012 102.994 119.771V123H99.0542V119.978C97.3794 119.811 95.7176 119.295 94.6359 118.581L94 118.159L95.4533 114.4L96.4629 115.023C97.5933 115.722 99.1009 116.14 100.502 116.14C102.175 116.14 103.3 115.363 103.3 114.212C103.3 113.436 102.941 112.581 100.342 111.605C97.457 110.555 94.4941 109.024 94.4941 105.639C94.4941 102.958 96.3444 100.865 99.2761 100.138V97H103.185Z" fill="#1BD27F"/>
<path fill-rule="evenodd" clip-rule="evenodd" d="M82.1848 97V99.9093C83.5347 100.052 84.7273 100.408 85.8014 100.994L86.5487 101.401L85.0387 105.104L84.0759 104.597C83.5759 104.333 82.4027 103.714 80.5464 103.714C78.7896 103.714 78.1631 104.527 78.1631 105.288C78.1631 106.112 78.6418 106.663 81.4727 107.749C84.0426 108.72 87 110.311 87 114.007C87 116.776 85.0213 119.012 81.9942 119.771V123H78.0542V119.978C76.3794 119.811 74.7176 119.295 73.6359 118.581L73 118.159L74.4533 114.4L75.4629 115.023C76.5933 115.722 78.1009 116.14 79.502 116.14C81.1748 116.14 82.2997 115.363 82.2997 114.212C82.2997 113.436 81.9415 112.581 79.3423 111.605C76.457 110.555 73.4941 109.024 73.4941 105.639C73.4941 102.958 75.3444 100.865 78.2761 100.138V97H82.1848Z" fill="#1BD27F"/>
<path fill-rule="evenodd" clip-rule="evenodd" d="M61.1848 97V99.9093C62.5347 100.052 63.7273 100.408 64.8014 100.994L65.5487 101.401L64.0387 105.104L63.0759 104.597C62.5759 104.333 61.4027 103.714 59.5464 103.714C57.7896 103.714 57.1631 104.527 57.1631 105.288C57.1631 106.112 57.6418 106.663 60.4727 107.749C63.0426 108.72 66 110.311 66 114.007C66 116.776 64.0213 119.012 60.9942 119.771V123H57.0542V119.978C55.3794 119.811 53.7176 119.295 52.6359 118.581L52 118.159L53.4533 114.4L54.4629 115.023C55.5933 115.722 57.1009 116.14 58.502 116.14C60.1748 116.14 61.2997 115.363 61.2997 114.212C61.2997 113.436 60.9415 112.581 58.3423 111.605C55.457 110.555 52.4941 109.024 52.4941 105.639C52.4941 102.958 54.3444 100.865 57.2761 100.138V97H61.1848Z" fill="#1BD27F"/>
<path d="M47.8624 95.227C53.7638 93.2938 59.4605 90.7159 65.485 89.1667C70.6923 87.8277 75.5841 87.4271 80.9396 87.2288C84.0402 87.1139 87.0894 86.3891 90.2025 86.3583C93.0186 86.3304 95.3866 86.8236 98.1022 87.5244C104.269 89.1157 110.24 91.5867 114.887 96.0811C117.383 98.4951 120.035 101.165 120.865 104.654C121.679 108.072 122.284 112.5 121.703 116.052C121.213 119.048 118.372 121.703 116.447 123.837C113.597 126.999 109.72 128.51 105.805 129.815C101.885 131.122 98.0073 132.624 93.9799 133.593C89.1655 134.75 84.0893 135.136 79.1494 135.136C74.9637 135.136 69.9801 135.841 65.912 134.824C60.513 133.475 54.9146 132.331 50.1125 129.388C47.5298 127.805 45.8998 125.133 44.6434 122.441C43.483 119.954 43.4528 117.261 43.0668 114.607C42.7239 112.25 42.3774 109.066 43.1325 106.756C45.8739 98.3709 53.4317 92.9097 59.3918 86.9496" stroke="#EB001B" stroke-linecap="round" stroke-linejoin="round"/>
</svg>
