<svg width="360" height="190" viewBox="0 0 360 190" fill="none" xmlns="http://www.w3.org/2000/svg">
<path d="M360.3 77.6567H0.300293V189.757H360.3V77.6567Z" fill="#F7F7F7"/>
<path d="M360.2 77.6567H86.8003" stroke="#262626" stroke-width="0.5" stroke-miterlimit="10"/>
<path d="M360.2 95.7568H161.3L130.2 171.557H360.2V95.7568Z" fill="white" stroke="#262626" stroke-width="0.5" stroke-miterlimit="10"/>
<path d="M357.2 96.0566C358.9 101.257 359.9 107.957 358.4 115.957C354.7 136.357 353.1 143.057 354.4 156.357C354.9 161.757 357.4 166.957 360.3 171.257H318.3C313.3 162.857 311.5 148.057 320 130.157C328.4 112.557 336.1 96.1566 336.1 96.1566H357.2V96.0566Z" fill="#F4F4F4"/>
<path d="M196.7 171.157C198.4 165.957 200.5 159.257 199 151.257C195.3 130.857 190 124.157 191.3 110.857C191.8 105.457 194.3 100.257 197.2 95.957H172.2C167.2 104.357 167.3 115.557 173 134.357C177.5 148.957 172.3 162.057 166.4 171.057H196.7V171.157Z" fill="#F4F4F4"/>
<path d="M288.1 96.0566C289.8 101.257 290.8 107.957 289.3 115.957C285.6 136.357 284 143.057 285.3 156.357C285.8 161.757 288.3 166.957 291.2 171.257H266.2C261.2 162.857 259.4 148.057 267.9 130.157C276.3 112.557 267 96.1566 267 96.1566H288.1V96.0566Z" fill="#F4F4F4"/>
<path d="M233.2 153.857C231.9 142.857 247.3 134.357 251.1 117.457C253.7 105.657 251.6 100.057 248.3 95.957H221.3C226.3 107.957 221.4 116.857 215 134.257C207.8 153.857 209.6 163.357 218.8 171.057H243.5C239.5 167.257 234 160.657 233.2 153.857Z" fill="#F4F4F4"/>
<path d="M323.2 26.3569V100.057" stroke="#262626" stroke-width="0.5" stroke-miterlimit="10"/>
<path d="M301 15.957V31.157C301 35.057 311 38.157 323.3 38.157C335.6 38.157 345.6 35.057 345.6 31.157V15.957H301Z" fill="white" stroke="#262626" stroke-width="0.5" stroke-miterlimit="10"/>
<path d="M323.2 22.957C335.516 22.957 345.5 19.823 345.5 15.957C345.5 12.091 335.516 8.95703 323.2 8.95703C310.884 8.95703 300.9 12.091 300.9 15.957C300.9 19.823 310.884 22.957 323.2 22.957Z" fill="#EBEBEB" stroke="#262626" stroke-width="0.5" stroke-miterlimit="10"/>
<path d="M323.2 22.9572C324.5 22.9572 325.8 22.9572 327.1 22.8572C326.6 21.3572 324.9 20.1572 322.7 20.1572C320.6 20.1572 318.8 21.2572 318.4 22.7572C320 22.8572 321.6 22.9572 323.2 22.9572Z" fill="white" stroke="#262626" stroke-width="0.5" stroke-miterlimit="10"/>
<path d="M223.3 111.234L223.4 113.734L224.2 113.534V111.034L223.3 111.234Z" fill="#EBEBEB" stroke="#262626" stroke-width="0.5" stroke-miterlimit="10"/>
<path d="M217.6 109.134V112.034L223.4 113.734V110.734L217.6 109.134Z" fill="white" stroke="#262626" stroke-width="0.5" stroke-miterlimit="10"/>
<path d="M321.5 137.534L321.6 140.034L322.4 139.934V137.334L321.5 137.534Z" fill="#EBEBEB" stroke="#262626" stroke-width="0.5" stroke-miterlimit="10"/>
<path d="M315.8 135.534V138.434L321.6 140.034V137.034L315.8 135.534Z" fill="white" stroke="#262626" stroke-width="0.5" stroke-miterlimit="10"/>
<path d="M325.4 111.435L216 83.4346V110.435L325.4 140.035V111.435Z" fill="white" stroke="#262626" stroke-width="0.5" stroke-miterlimit="10"/>
<path d="M321.9 114.534L219.9 88.5342V107.634L321.9 134.834V114.534Z" fill="#EBEBEB" stroke="#262626" stroke-width="0.5" stroke-miterlimit="10"/>
<path d="M257.1 111.934L267.1 101.934C267.1 101.934 279.6 105.634 281.6 106.234C281.5 107.734 282.7 108.434 282.7 108.434L272.6 119.834L258.1 115.934C256.5 115.234 255.9 113.234 257.1 111.934Z" fill="#EBEBEB" stroke="#262626" stroke-width="0.5" stroke-miterlimit="10"/>
<path d="M272.5 119.734C272.5 119.734 271 118.534 272.1 117.034" stroke="#262626" stroke-miterlimit="10"/>
<path d="M257.1 113.034L272.1 116.934L282.9 104.734L267.9 101.034L256.8 112.134C256.5 112.434 256.7 112.934 257.1 113.034Z" fill="white" stroke="#262626" stroke-width="0.5" stroke-miterlimit="10"/>
<path d="M269.5 101.234L261.5 109.234C261.5 109.234 261.5 109.234 261.4 109.334C260.3 110.634 260.9 112.634 262.5 113.234L277 117.134L287 105.734L269.5 101.234Z" fill="#EBEBEB" stroke="#262626" stroke-width="0.5" stroke-miterlimit="10"/>
<path d="M277.1 117.034C277.1 117.034 275.7 116.034 276.6 114.234" stroke="#262626" stroke-miterlimit="10"/>
<path d="M269.5 101.234L261.3 109.434C261 109.734 261.1 110.334 261.6 110.434L276.5 114.334L284.7 105.134L269.5 101.234Z" fill="white" stroke="#262626" stroke-width="0.5" stroke-miterlimit="10"/>
<path d="M234.1 92.1342L219.9 88.5342V107.634L234.1 92.1342Z" fill="#C1C1C1" stroke="#262626" stroke-width="0.5" stroke-miterlimit="10"/>
<path d="M216 83.4344L325.4 111.434L357.2 82.2344L243.6 58.2344L216 83.4344Z" fill="white" stroke="#262626" stroke-width="0.5" stroke-miterlimit="10"/>
<path d="M325.4 140.034L357.2 109.834V82.2344L325.4 111.434V140.034Z" fill="white" stroke="#262626" stroke-width="0.5" stroke-miterlimit="10"/>
<path d="M232 102.434C232 102.334 232 102.234 232.1 102.134C232.4 101.834 233.5 100.934 235.1 100.034C236.3 99.3342 236.8 102.434 237 103.734C237 103.934 236.8 104.234 236.6 104.134L232.3 103.234C232.1 103.234 232 103.034 232 102.834V102.434Z" fill="#C1C1C1" stroke="#262626" stroke-width="0.5" stroke-miterlimit="10"/>
<path d="M234.1 101.234C234.1 101.234 236.3 100.634 238.6 100.834C240.9 101.034 242.6 101.834 242.6 101.834L241.5 105.834L234.1 101.234Z" fill="#C1C1C1" stroke="#262626" stroke-width="0.5" stroke-miterlimit="10"/>
<path d="M239.9 104.434C239.9 104.434 242.7 102.434 242.9 98.7341C243.1 95.6341 241.1 94.4341 238.2 94.2341C235.6 94.0341 232.7 95.734 232.7 99.334C232.7 103.134 234.8 104.134 234.8 104.134L239.9 104.434Z" fill="white" stroke="#262626" stroke-width="0.5" stroke-miterlimit="10"/>
<path d="M241 98.234C241.11 98.234 241.2 98.1444 241.2 98.034C241.2 97.9235 241.11 97.834 241 97.834C240.889 97.834 240.8 97.9235 240.8 98.034C240.8 98.1444 240.889 98.234 241 98.234Z" fill="#EBEBEB"/>
<path d="M239.4 96.4342C239.511 96.4342 239.6 96.3446 239.6 96.2342C239.6 96.1237 239.511 96.0342 239.4 96.0342C239.29 96.0342 239.2 96.1237 239.2 96.2342C239.2 96.3446 239.29 96.4342 239.4 96.4342Z" fill="#EBEBEB"/>
<path d="M239.7 102.134C239.81 102.134 239.9 102.044 239.9 101.934C239.9 101.823 239.81 101.734 239.7 101.734C239.59 101.734 239.5 101.823 239.5 101.934C239.5 102.044 239.59 102.134 239.7 102.134Z" fill="#EBEBEB"/>
<path d="M237.4 100.734C237.566 100.734 237.7 100.6 237.7 100.434C237.7 100.269 237.566 100.134 237.4 100.134C237.234 100.134 237.1 100.269 237.1 100.434C237.1 100.6 237.234 100.734 237.4 100.734Z" fill="#EBEBEB"/>
<path d="M236.2 96.5341C236.366 96.5341 236.5 96.3998 236.5 96.2341C236.5 96.0684 236.366 95.9341 236.2 95.9341C236.034 95.9341 235.9 96.0684 235.9 96.2341C235.9 96.3998 236.034 96.5341 236.2 96.5341Z" fill="#EBEBEB"/>
<path d="M234.5 99.3339C234.666 99.3339 234.8 99.1996 234.8 99.0339C234.8 98.8682 234.666 98.7339 234.5 98.7339C234.335 98.7339 234.2 98.8682 234.2 99.0339C234.2 99.1996 234.335 99.3339 234.5 99.3339Z" fill="#EBEBEB"/>
<path d="M242.7 101.934C242.6 102.434 241 104.034 239.4 103.734C237.5 104.734 237.5 109.534 237.5 110.534C237.5 110.634 237.6 110.734 237.7 110.634L240.7 109.134C240.7 109.134 242.6 107.134 242.7 101.934Z" fill="#EBEBEB" stroke="#262626" stroke-width="0.5" stroke-miterlimit="10"/>
<path d="M232 102.634C232 103.834 232 107.934 233.2 109.534L237.4 110.734C237.5 110.734 237.6 110.734 237.7 110.634C238.2 109.934 240.1 107.034 239.7 104.134C239.7 103.834 239.4 103.634 239.2 103.634C238.2 103.634 235.8 103.434 232.3 102.334C232.1 102.334 232 102.434 232 102.634Z" fill="white" stroke="#262626" stroke-width="0.5" stroke-miterlimit="10"/>
<path d="M231.6 44.2342L268.4 38.0342C269.3 37.8342 270.1 38.5342 270.1 39.5342V64.5342L230.6 73.2342L230 73.3342L229.4 46.7342C229.5 45.4342 230.4 44.4342 231.6 44.2342Z" fill="#EBEBEB" stroke="#262626" stroke-width="0.5" stroke-miterlimit="10"/>
<path d="M282.9 79.534L244.9 89.234C243.8 89.534 242.7 89.134 242 88.234L230.2 73.834L284.3 77.734C284.2 78.634 283.7 79.334 282.9 79.534Z" fill="white" stroke="#262626" stroke-width="0.5" stroke-miterlimit="10" stroke-linecap="round" stroke-linejoin="round"/>
<path d="M283.6 78.5341L244.4 88.7341C243.6 88.9341 242.8 88.6341 242.3 88.0341L230.2 73.8341C229.9 73.4341 230.1 72.9341 230.6 72.8341L269.7 64.5341C270 64.4341 270.4 64.5341 270.6 64.8341L284 77.0341C284.5 77.5341 284.2 78.3341 283.6 78.5341Z" fill="white" stroke="#262626" stroke-width="0.5" stroke-miterlimit="10"/>
<path d="M241.1 73.3345L240.1 73.5345C239.9 73.5345 239.9 73.7345 240 73.9345L240.4 74.5345C240.5 74.6345 240.6 74.6345 240.7 74.6345L241.7 74.4345C241.9 74.4345 241.9 74.2345 241.8 74.0345L241.3 73.4345C241.3 73.3345 241.2 73.3345 241.1 73.3345Z" fill="#EBEBEB"/>
<path d="M243.6 72.7344L242.6 72.9344C242.4 72.9344 242.4 73.1344 242.5 73.3344L242.9 73.9344C243 74.0344 243.1 74.0344 243.2 74.0344L244.2 73.8344C244.4 73.8344 244.4 73.6344 244.3 73.4344L243.8 72.8344C243.7 72.7344 243.6 72.7344 243.6 72.7344Z" fill="#EBEBEB"/>
<path d="M246.2 72.1343L245.2 72.3343C245 72.3343 245 72.5343 245.1 72.7343L245.5 73.3343C245.6 73.4343 245.7 73.4343 245.8 73.4343L246.8 73.2343C247 73.2343 247 73.0343 246.9 72.8343L246.4 72.2343C246.4 72.2343 246.3 72.1343 246.2 72.1343Z" fill="#EBEBEB"/>
<path d="M248.6 71.5342L247.6 71.7342C247.4 71.7342 247.4 71.9342 247.5 72.1342L247.9 72.7342C248 72.8342 248.1 72.8342 248.2 72.8342L249.2 72.6342C249.4 72.6342 249.4 72.4342 249.3 72.2342L248.8 71.6342C248.8 71.6342 248.7 71.5342 248.6 71.5342Z" fill="#EBEBEB"/>
<path d="M261.7 68.7344L260.7 68.9344C260.5 68.9344 260.5 69.1344 260.6 69.3344L261 69.9344C261.1 70.0344 261.2 70.0344 261.3 70.0344L262.3 69.8344C262.5 69.8344 262.5 69.6344 262.4 69.4344L261.9 68.8344C261.9 68.7344 261.8 68.7344 261.7 68.7344Z" fill="#EBEBEB"/>
<path d="M264.1 68.1343L263.1 68.3343C262.9 68.3343 262.9 68.5343 263 68.7343L263.4 69.3343C263.5 69.4343 263.6 69.4343 263.7 69.4343L264.7 69.2343C264.9 69.2343 264.9 69.0343 264.8 68.8343L264.3 68.2343C264.3 68.2343 264.2 68.1343 264.1 68.1343Z" fill="#EBEBEB"/>
<path d="M251.5 71.0342L250.5 71.2342C250.3 71.2342 250.3 71.4342 250.4 71.6342L250.8 72.2342C250.9 72.3342 251 72.3342 251.1 72.3342L252.1 72.1342C252.3 72.1342 252.3 71.9342 252.2 71.7342L251.7 71.1342C251.6 71.0342 251.6 71.0342 251.5 71.0342Z" fill="#EBEBEB"/>
<path d="M253.9 70.4341L252.9 70.6341C252.7 70.6341 252.7 70.8341 252.8 71.0341L253.2 71.6341C253.3 71.7341 253.4 71.7341 253.5 71.7341L254.5 71.5341C254.7 71.5341 254.7 71.3341 254.6 71.1341L254.1 70.5341C254.1 70.4341 254 70.4341 253.9 70.4341Z" fill="#EBEBEB"/>
<path d="M256.6 69.8345L255.6 70.0345C255.4 70.0345 255.4 70.2345 255.5 70.4345L255.9 71.0345C256 71.1345 256.1 71.1345 256.2 71.1345L257.2 70.9345C257.4 70.9345 257.4 70.7345 257.3 70.5345L256.8 69.9345C256.7 69.8345 256.6 69.8345 256.6 69.8345Z" fill="#EBEBEB"/>
<path d="M259 69.2344L258 69.4344C257.8 69.4344 257.8 69.6344 257.9 69.8344L258.3 70.4344C258.4 70.5344 258.5 70.5344 258.6 70.5344L259.6 70.3344C259.8 70.3344 259.8 70.1344 259.7 69.9344L259.2 69.3344C259.2 69.2344 259.1 69.2344 259 69.2344Z" fill="#EBEBEB"/>
<path d="M243.4 74.7344L242.4 74.9344C242.2 74.9344 242.2 75.1344 242.3 75.3344L242.7 75.9344C242.8 76.0344 242.9 76.0344 243 76.0344L244 75.8344C244.2 75.8344 244.2 75.6344 244.1 75.4344L243.6 74.8344C243.6 74.8344 243.5 74.7344 243.4 74.7344Z" fill="#EBEBEB"/>
<path d="M245.8 74.2343L244.8 74.4343C244.6 74.4343 244.6 74.6343 244.7 74.8343L245.1 75.4343C245.2 75.5343 245.3 75.5343 245.4 75.5343L246.4 75.3343C246.6 75.3343 246.6 75.1343 246.5 74.9343L246 74.3343C246 74.2343 245.9 74.1343 245.8 74.2343Z" fill="#EBEBEB"/>
<path d="M248.5 73.6343L247.5 73.8343C247.3 73.8343 247.3 74.0343 247.4 74.2343L247.8 74.8343C247.9 74.9343 248 74.9343 248.1 74.9343L249.1 74.7343C249.3 74.7343 249.3 74.5343 249.2 74.3343L248.7 73.7343C248.6 73.6343 248.5 73.6343 248.5 73.6343Z" fill="#EBEBEB"/>
<path d="M250.9 73.0342L249.9 73.2342C249.7 73.2342 249.7 73.4342 249.8 73.6342L250.2 74.2342C250.3 74.3342 250.4 74.3342 250.5 74.3342L251.5 74.1342C251.7 74.1342 251.7 73.9342 251.6 73.7342L251.1 73.1342C251.1 73.0342 251 73.0342 250.9 73.0342Z" fill="#EBEBEB"/>
<path d="M264 70.2344L263 70.4344C262.8 70.4344 262.8 70.6344 262.9 70.8344L263.3 71.4344C263.4 71.5344 263.5 71.5344 263.6 71.5344L264.6 71.3344C264.8 71.3344 264.8 71.1344 264.7 70.9344L264.2 70.3344C264.1 70.2344 264 70.2344 264 70.2344Z" fill="#EBEBEB"/>
<path d="M266.4 69.6343L265.4 69.8343C265.2 69.8343 265.2 70.0343 265.3 70.2343L265.7 70.8343C265.8 70.9343 265.9 70.9343 266 70.9343L267 70.7343C267.2 70.7343 267.2 70.5343 267.1 70.3343L266.6 69.7343C266.6 69.6343 266.5 69.6343 266.4 69.6343Z" fill="#EBEBEB"/>
<path d="M253.7 72.4341L252.7 72.6341C252.5 72.6341 252.5 72.8341 252.6 73.0341L253 73.6341C253.1 73.7341 253.2 73.7341 253.3 73.7341L254.3 73.5341C254.5 73.5341 254.5 73.3341 254.4 73.1341L253.9 72.5341C253.9 72.4341 253.8 72.4341 253.7 72.4341Z" fill="#EBEBEB"/>
<path d="M256.2 71.8345L255.2 72.0345C255 72.0345 255 72.2345 255.1 72.4345L255.5 73.0345C255.6 73.1345 255.7 73.1345 255.8 73.1345L256.8 72.9345C257 72.9345 257 72.7345 256.9 72.5345L256.4 71.9345C256.4 71.8345 256.3 71.8345 256.2 71.8345Z" fill="#EBEBEB"/>
<path d="M258.8 71.2344L257.8 71.4344C257.6 71.4344 257.6 71.6344 257.7 71.8344L258.1 72.4344C258.2 72.5344 258.3 72.5344 258.4 72.5344L259.4 72.3344C259.6 72.3344 259.6 72.1344 259.5 71.9344L259 71.3344C259 71.3344 258.9 71.2344 258.8 71.2344Z" fill="#EBEBEB"/>
<path d="M261.3 70.6343L260.3 70.8343C260.1 70.8343 260.1 71.0343 260.2 71.2343L260.6 71.8343C260.7 71.9343 260.8 71.9343 260.9 71.9343L261.9 71.7343C262.1 71.7343 262.1 71.5343 262 71.3343L261.5 70.7343C261.5 70.7343 261.4 70.6343 261.3 70.6343Z" fill="#EBEBEB"/>
<path d="M245.7 76.5341L244.7 76.7341C244.5 76.7341 244.5 76.9341 244.6 77.1341L245 77.7341C245.1 77.8341 245.2 77.8341 245.3 77.8341L246.3 77.6341C246.5 77.6341 246.5 77.4341 246.4 77.2341L245.9 76.6341C245.8 76.5341 245.7 76.4341 245.7 76.5341Z" fill="#EBEBEB"/>
<path d="M248.1 75.9345L247.1 76.1345C246.9 76.1345 246.9 76.3345 247 76.5345L247.4 77.1345C247.5 77.2345 247.6 77.2345 247.7 77.2345L248.7 77.0345C248.9 77.0345 248.9 76.8345 248.8 76.6345L248.3 76.0345C248.3 75.9345 248.2 75.8345 248.1 75.9345Z" fill="#EBEBEB"/>
<path d="M250.7 75.3345L249.7 75.5345C249.5 75.5345 249.5 75.7345 249.6 75.9345L250 76.5345C250.1 76.6345 250.2 76.6345 250.3 76.6345L251.3 76.4345C251.5 76.4345 251.5 76.2345 251.4 76.0345L250.9 75.4345C250.9 75.3345 250.8 75.3345 250.7 75.3345Z" fill="#EBEBEB"/>
<path d="M253.2 74.7344L252.2 74.9344C252 74.9344 252 75.1344 252.1 75.3344L252.5 75.9344C252.6 76.0344 252.7 76.0344 252.8 76.0344L253.8 75.8344C254 75.8344 254 75.6344 253.9 75.4344L253.4 74.8344C253.4 74.7344 253.3 74.7344 253.2 74.7344Z" fill="#EBEBEB"/>
<path d="M266.2 71.9341L265.2 72.1341C265 72.1341 265 72.3341 265.1 72.5341L265.5 73.1341C265.6 73.2341 265.7 73.2341 265.8 73.2341L266.8 73.0341C267 73.0341 267 72.8341 266.9 72.6341L266.4 72.0341C266.4 71.9341 266.3 71.9341 266.2 71.9341Z" fill="#EBEBEB"/>
<path d="M268.7 71.3345L267.7 71.5345C267.5 71.5345 267.5 71.7345 267.6 71.9345L268 72.5345C268.1 72.6345 268.2 72.6345 268.3 72.6345L269.3 72.4345C269.5 72.4345 269.5 72.2345 269.4 72.0345L268.9 71.4345C268.9 71.3345 268.8 71.3345 268.7 71.3345Z" fill="#EBEBEB"/>
<path d="M256 74.1343L255 74.3343C254.8 74.3343 254.8 74.5343 254.9 74.7343L255.3 75.3343C255.4 75.4343 255.5 75.4343 255.6 75.4343L256.6 75.2343C256.8 75.2343 256.8 75.0343 256.7 74.8343L256.2 74.2343C256.2 74.1343 256.1 74.1343 256 74.1343Z" fill="#EBEBEB"/>
<path d="M258.5 73.5342L257.5 73.7342C257.3 73.7342 257.3 73.9342 257.4 74.1342L257.8 74.7342C257.9 74.8342 258 74.8342 258.1 74.8342L259.1 74.6342C259.3 74.6342 259.3 74.4342 259.2 74.2342L258.7 73.6342C258.7 73.5342 258.6 73.5342 258.5 73.5342Z" fill="#EBEBEB"/>
<path d="M261.1 72.9341L260.1 73.1341C259.9 73.1341 259.9 73.3341 260 73.5341L260.4 74.1341C260.5 74.2341 260.6 74.2341 260.7 74.2341L261.7 74.0341C261.9 74.0341 261.9 73.8341 261.8 73.6341L261.3 73.0341C261.3 73.0341 261.2 72.9341 261.1 72.9341Z" fill="#EBEBEB"/>
<path d="M263.6 72.4345L262.6 72.6345C262.4 72.6345 262.4 72.8345 262.5 73.0345L262.9 73.6345C263 73.7345 263.1 73.7345 263.2 73.7345L264.2 73.5345C264.4 73.5345 264.4 73.3345 264.3 73.1345L263.8 72.5345C263.8 72.4345 263.7 72.3345 263.6 72.4345Z" fill="#EBEBEB"/>
<path d="M245.5 78.4341L244.5 78.6341C244.3 78.6341 244.3 78.8341 244.4 79.0341L244.8 79.6341C244.9 79.7341 245 79.7341 245.1 79.7341L246.1 79.5341C246.3 79.5341 246.3 79.3341 246.2 79.1341L245.7 78.5341C245.7 78.4341 245.6 78.4341 245.5 78.4341Z" fill="#EBEBEB"/>
<path d="M247.9 77.8345L246.9 78.0345C246.7 78.0345 246.7 78.2345 246.8 78.4345L247.2 79.0345C247.3 79.1345 247.4 79.1345 247.5 79.1345L248.5 78.9345C248.7 78.9345 248.7 78.7345 248.6 78.5345L248.1 77.9345C248.1 77.8345 248 77.8345 247.9 77.8345Z" fill="#EBEBEB"/>
<path d="M250.6 77.2344L249.6 77.4344C249.4 77.4344 249.4 77.6344 249.5 77.8344L249.9 78.4344C250 78.5344 250.1 78.5344 250.2 78.5344L251.2 78.3344C251.4 78.3344 251.4 78.1344 251.3 77.9344L250.8 77.3344C250.7 77.2344 250.7 77.2344 250.6 77.2344Z" fill="#EBEBEB"/>
<path d="M253 76.6343L252 76.8343C251.8 76.8343 251.8 77.0343 251.9 77.2343L252.3 77.8343C252.4 77.9343 252.5 77.9343 252.6 77.9343L253.6 77.7343C253.8 77.7343 253.8 77.5343 253.7 77.3343L253.2 76.7343C253.2 76.7343 253.1 76.6343 253 76.6343Z" fill="#EBEBEB"/>
<path d="M266.1 73.8345L265.1 74.0345C264.9 74.0345 264.9 74.2345 265 74.4345L265.4 75.0345C265.5 75.1345 265.6 75.1345 265.7 75.1345L266.7 74.9345C266.9 74.9345 266.9 74.7345 266.8 74.5345L266.3 73.9345C266.2 73.8345 266.1 73.8345 266.1 73.8345Z" fill="#EBEBEB"/>
<path d="M268.5 73.2344L267.5 73.4344C267.3 73.4344 267.3 73.6344 267.4 73.8344L267.8 74.4344C267.9 74.5344 268 74.5344 268.1 74.5344L269.1 74.3344C269.3 74.3344 269.3 74.1344 269.2 73.9344L268.7 73.3344C268.7 73.3344 268.6 73.2344 268.5 73.2344Z" fill="#EBEBEB"/>
<path d="M260.7 74.9341L254.9 76.2341C254.7 76.2341 254.6 76.5341 254.7 76.6341L255.1 77.2341C255.2 77.3341 255.3 77.3341 255.4 77.3341L261.3 75.9341C261.5 75.9341 261.6 75.6341 261.5 75.5341L261.1 75.0341C260.9 74.9341 260.8 74.9341 260.7 74.9341Z" fill="#EBEBEB"/>
<path d="M262.6 77.1344L255.1 78.8344C254.7 78.9344 254.5 79.4344 254.8 79.8344L257.2 82.9344C257.3 83.1344 257.6 83.2344 257.8 83.1344L265.4 81.3344C265.8 81.2344 266 80.7344 265.7 80.3344L263.2 77.3344C263.1 77.1344 262.8 77.0344 262.6 77.1344Z" fill="#EBEBEB"/>
<path d="M263.4 74.3345L262.4 74.5345C262.2 74.5345 262.2 74.7345 262.3 74.9345L262.7 75.5345C262.8 75.6345 262.9 75.6345 263 75.6345L264 75.4345C264.2 75.4345 264.2 75.2345 264.1 75.0345L263.6 74.4345C263.6 74.3345 263.5 74.3345 263.4 74.3345Z" fill="#EBEBEB"/>
<path d="M293.2 87.8341L313.3 79.9341L320.9 84.8341C320.9 85.4341 320.6 85.9341 320.1 86.2341L301 95.7341C300.1 96.1341 299 96.0341 298.3 95.3341L292.9 89.3341C292.4 88.8341 292.6 88.0341 293.2 87.8341Z" fill="#EBEBEB" stroke="#262626" stroke-width="0.5" stroke-miterlimit="10"/>
<path d="M293.1 87.8343L312.2 79.0343C312.8 78.7343 313.6 78.8343 314.1 79.2343L320.6 84.2343C321 84.5343 320.9 85.2343 320.5 85.4343L300.8 95.2343C300.1 95.6343 299.2 95.4343 298.7 94.8343L292.9 88.9343C292.6 88.5343 292.7 88.0343 293.1 87.8343Z" fill="#EBEBEB" stroke="#262626" stroke-width="0.5" stroke-miterlimit="10"/>
<path d="M314.8 112.734L312.2 130.434C312.1 130.934 312.4 131.334 312.8 131.534L314.6 132.234C315.2 132.434 315.9 132.034 316 131.434L318.4 113.634L314.8 112.734Z" fill="white" stroke="#262626" stroke-width="0.5" stroke-miterlimit="10"/>
<path d="M316.7 113.234L314 131.234C313.9 131.734 314.2 132.134 314.6 132.334L316.4 133.034C317 133.234 317.7 132.834 317.8 132.234L320.3 114.234L316.7 113.234Z" fill="white" stroke="#262626" stroke-width="0.5" stroke-miterlimit="10"/>
<path d="M318.2 113.634L315.5 131.834C315.4 132.334 315.7 132.734 316.1 132.934L317.9 133.634C318.5 133.834 319.2 133.434 319.3 132.834L321.8 114.634L318.2 113.634Z" fill="white" stroke="#262626" stroke-width="0.5" stroke-miterlimit="10"/>
<path d="M324.9 95.8342C326.2 95.3342 328.1 96.7342 328.1 98.2342" stroke="#262626" stroke-miterlimit="10"/>
<path d="M325.5 96.4341C325.9 97.3341 325 99.3341 323.5 100.034C322.7 100.334 317.8 102.034 316.3 100.734C314.9 99.4341 325.5 96.4341 325.5 96.4341Z" fill="white" stroke="#262626" stroke-width="0.5" stroke-miterlimit="10"/>
<path d="M314.4 95.3344C314.8 94.0344 322.6 91.3344 324.9 94.9344C326.6 97.6344 324.4 98.5344 322.9 99.1344C321.7 99.6344 317.6 101.634 316.4 100.734C315.1 99.7344 313.7 97.5344 314.4 95.3344Z" fill="white" stroke="#262626" stroke-width="0.5" stroke-miterlimit="10"/>
<path d="M316.5 94.0342C316.5 94.0342 316.2 98.2342 319.6 100.534L316.5 94.0342Z" fill="white"/>
<path d="M316.5 94.0342C316.5 94.0342 316.2 98.2342 319.6 100.534" stroke="#262626" stroke-width="0.5" stroke-miterlimit="10"/>
<path d="M319.6 93.1343C319.6 93.1343 319 97.0343 322.4 99.3343L319.6 93.1343Z" fill="white"/>
<path d="M319.6 93.1343C319.6 93.1343 319 97.0343 322.4 99.3343" stroke="#262626" stroke-width="0.5" stroke-miterlimit="10"/>
<path d="M330.5 100.534C330.4 100.034 330.2 98.8345 329.8 98.2345C330.1 98.0345 329.8 97.3345 329.4 97.3345C328.3 97.4345 326.4 97.8345 326.1 98.3345C325.8 98.8345 326.2 99.1345 326.4 99.3345C326.3 100.034 326.6 101.034 326.7 101.534C326.7 101.634 326.8 101.834 326.9 101.934C327.7 103.434 330 103.034 330.4 101.434C330.5 101.134 330.6 100.834 330.5 100.534Z" fill="white" stroke="#262626" stroke-width="0.5" stroke-miterlimit="10"/>
<path d="M251 68.4342L262.2 66.0342C264.4 53.4342 266.5 41.4342 267 38.5342L256.4 40.2342L251 68.4342Z" fill="white"/>
<path d="M305 92.8344L311.5 89.6344L316.3 80.9344L314.2 79.3344C313.7 78.9344 313 78.8344 312.3 79.1344L310.9 79.7344L305 92.8344Z" fill="white"/>
<path d="M164.5 130.857C157.2 132.257 154.5 137.157 153.1 141.557C151.8 145.957 148 142.257 146.7 141.557C145.4 140.857 131.7 130.357 113.9 137.257C96.2003 144.257 96.0003 158.457 96.0003 158.457C96.0003 158.457 93.0003 158.957 91.3003 163.157C91.1003 163.557 91.6003 163.857 91.9003 163.657C93.0003 162.857 94.8003 161.757 95.3003 162.157C95.3003 162.157 93.4003 167.657 94.2003 170.357C95.0003 173.057 117.7 171.357 119.7 171.257C121.7 171.157 148.7 167.757 151.9 168.157C155 168.457 170.2 169.857 176.3 163.957C182.4 158.057 178.1 155.557 177.7 155.457C177.3 155.357 175 154.457 174.4 152.257C173.8 150.057 171 144.857 163.7 144.657C163.7 144.657 162 139.057 163.8 135.957C165.8 132.557 166.1 130.657 164.5 130.857Z" fill="white" stroke="#262626" stroke-width="0.5" stroke-miterlimit="10"/>
<path d="M96.2002 169.257C94.6002 168.857 89.8002 169.557 88.7002 172.957C87.6002 176.357 113.4 172.557 116.5 171.357C119.7 170.157 123.2 165.157 123.5 161.357" fill="white"/>
<path d="M96.2002 169.257C94.6002 168.857 89.8002 169.557 88.7002 172.957C87.6002 176.357 113.4 172.557 116.5 171.357C119.7 170.157 123.2 165.157 123.5 161.357" stroke="#262626" stroke-width="0.5" stroke-miterlimit="10"/>
<path d="M136.7 163.857C133.9 164.057 127.8 166.857 128.1 170.257C128.4 173.657 145.7 168.057 149.4 168.057" fill="white"/>
<path d="M136.7 163.857C133.9 164.057 127.8 166.857 128.1 170.257C128.4 173.657 145.7 168.057 149.4 168.057" stroke="#262626" stroke-width="0.5" stroke-miterlimit="10"/>
<path d="M151.7 143.457C150.9 143.757 149.9 143.457 149 142.957C145.3 150.057 147.6 165.157 150.2 167.957C151 167.957 151.6 167.957 151.9 167.957C152.3 167.957 153 168.057 153.8 168.157C148.1 155.457 151.7 143.457 151.7 143.457Z" fill="#EBEBEB" stroke="#262626" stroke-width="0.5" stroke-miterlimit="10"/>
<path d="M163.5 143.657C163.1 141.957 162.4 138.157 163.8 135.757C164.2 135.157 164.5 134.557 164.8 134.057C162.1 135.257 159.2 138.957 159.4 144.657C159.4 145.957 162.4 144.557 163.5 143.657Z" fill="#EBEBEB" stroke="#262626" stroke-width="0.5" stroke-miterlimit="10"/>
<path d="M177.8 155.257C177.4 155.157 175.1 154.257 174.5 152.057C174.3 151.357 173.8 150.257 173.1 149.157C173 149.957 172.6 150.857 172.3 151.757C169.3 158.757 160.1 154.357 156.9 159.057C154.1 163.157 157.2 167.057 159.5 168.357C165.3 168.357 172.7 167.457 176.5 163.857C182.4 157.957 178.1 155.357 177.8 155.257Z" fill="white" stroke="#262626" stroke-width="0.5" stroke-miterlimit="10"/>
<path d="M178.8 156.057H178.6C178.6 156.057 176.1 156.057 175.9 157.457C175.7 158.857 177.8 160.157 178.9 160.757C180.1 158.457 179.5 156.857 178.8 156.057Z" fill="#262626"/>
<path d="M171.5 160.257C171.5 160.257 172.6 163.657 176.4 163.357" stroke="#262626" stroke-miterlimit="10" stroke-linecap="round"/>
<path d="M168.1 152.157C168.1 152.157 166.1 150.257 164.2 152.357" stroke="#262626" stroke-miterlimit="10" stroke-linecap="round"/>
<path fill-rule="evenodd" clip-rule="evenodd" d="M154.1 74.3568C150.9 70.2568 139.1 71.9568 139.1 71.9568C138.8 71.9568 130.3 71.9568 130.5 73.8568C129.5 77.1568 127.1 85.0568 131.5 94.5568L135.4 96.9568L150.2 95.2568C154.6 84.2568 154.3 76.9568 154.1 74.3568Z" fill="#EBEBEB" stroke="#262626" stroke-width="0.5" stroke-miterlimit="10"/>
<path fill-rule="evenodd" clip-rule="evenodd" d="M145 75.9568C146.7 70.4568 143.7 69.1568 143.5 40.7568C143.3 15.0568 134.9 3.65684 133.3 1.75684H133.2V1.85684C134.1 4.45684 139.4 20.1568 138.4 33.8568C137.3 48.7568 134.8 64.0568 142.8 75.9568H145Z" fill="white" stroke="#262626" stroke-width="0.5" stroke-miterlimit="10"/>
<path fill-rule="evenodd" clip-rule="evenodd" d="M139.1 75.9567C135.2 68.8568 134 57.4567 133.5 46.0568C132.9 31.8568 127.2 18.1568 125.4 14.0568C125.3 13.9568 125.4 13.8568 125.5 13.7568C125.6 13.6568 125.7 13.7568 125.8 13.8568C129 17.9568 139.7 34.4567 143 75.9567H139.1Z" fill="white" stroke="#262626" stroke-width="0.5" stroke-miterlimit="10"/>
<path fill-rule="evenodd" clip-rule="evenodd" d="M142.8 75.7568C139.3 31.9568 154.9 13.7568 159.1 9.75684C159.2 9.75684 159.3 9.75684 159.3 9.75684C159.4 9.85684 159.4 9.85684 159.4 9.95684C157 13.7568 149.6 26.8568 149.8 41.2568C150.1 58.2568 148.4 68.4568 147.3 75.7568C147.3 75.8568 147.2 75.9568 147.1 75.8568H143C142.9 75.9568 142.8 75.8568 142.8 75.7568Z" fill="white" stroke="#262626" stroke-width="0.5" stroke-miterlimit="10"/>
<path fill-rule="evenodd" clip-rule="evenodd" d="M139.9 75.9566C138.7 60.5567 130.9 49.9567 128.5 47.0567C128.5 47.0567 128.4 46.9567 128.3 47.0567C128.2 47.0567 128.2 47.1567 128.3 47.2567C129.7 49.8567 133.3 57.6567 133.9 65.0567C134.5 73.2567 135.7 75.9566 135.7 75.9566H139.9Z" fill="white" stroke="#262626" stroke-width="0.5" stroke-miterlimit="10"/>
<path fill-rule="evenodd" clip-rule="evenodd" d="M147.9 75.9568C147.9 75.9568 146.9 64.4568 157.6 49.7568C157.6 49.7568 157.7 49.6568 157.7 49.7568C157.7 49.8568 157.8 49.8568 157.8 49.8568C157 52.1568 153.4 59.2568 152.9 67.2568C152.5 74.1568 151.4 75.9568 151.4 75.9568H147.9Z" fill="white" stroke="#262626" stroke-width="0.5" stroke-miterlimit="10"/>
<path fill-rule="evenodd" clip-rule="evenodd" d="M133.4 76.7568C133.4 76.7568 131.9 75.2568 129.8 68.6568C127.4 61.0568 122.2 54.9568 120.8 52.9568C120.8 52.9568 120.8 52.8568 120.8 52.7568C120.8 52.7568 120.9 52.7568 121 52.7568C135 64.4568 136.8 75.7568 136.8 75.7568L133.4 76.7568Z" fill="white" stroke="#262626" stroke-width="0.5" stroke-miterlimit="10"/>
<path fill-rule="evenodd" clip-rule="evenodd" d="M145 75.9566C143.7 46.3566 159.3 32.8566 163 30.0566C163.1 30.0566 163.1 30.0566 163.2 30.0566C163.3 30.1566 163.3 30.1566 163.2 30.2566C161.1 33.0566 154.1 43.3566 152.3 54.3566C150.2 67.5566 149.3 75.8566 149.3 75.8566H145V75.9566Z" fill="white" stroke="#262626" stroke-width="0.5" stroke-miterlimit="10"/>
<path d="M139.9 36.2566C139.8 36.2566 139.8 36.2566 139.7 36.1566V36.0566C140.4 32.7566 140.3 29.4566 140.1 27.2566C140.1 27.1566 140.2 27.0566 140.3 27.0566C140.4 27.0566 140.5 27.1566 140.5 27.2566C140.7 29.4566 140.8 32.7566 140 36.1566C140 36.2566 140 36.2566 139.9 36.2566Z" fill="#EBEBEB"/>
<path d="M140.2 25.9568C140.1 25.9568 140 25.8568 140 25.7568C139.9 24.6568 139.7 24.0568 139.7 23.9568C139.7 23.8568 139.7 23.7568 139.8 23.7568C139.9 23.7568 140 23.7568 140 23.8568C140 23.8568 140.1 24.5568 140.3 25.6568C140.4 25.8568 140.3 25.9568 140.2 25.9568Z" fill="#EBEBEB"/>
<path d="M144.9 66.9569C144.8 66.9569 144.7 66.8569 144.7 66.7569C144.5 60.4569 145.7 49.7569 146.4 43.9569C146.4 43.9569 146.4 43.8569 146.5 43.8569H146.6C146.6 43.8569 146.7 43.8569 146.7 43.9569V44.0569C146 49.8569 144.8 60.4569 145 66.7569C145.1 66.8569 145 66.8569 144.9 66.9569Z" fill="#EBEBEB"/>
<path d="M146.8 43.0567C146.7 43.0567 146.6 42.9567 146.6 42.8567C146.9 40.4567 147.1 38.8567 147.1 38.8567C147.1 38.7567 147.2 38.6567 147.3 38.6567C147.4 38.6567 147.5 38.7567 147.5 38.8567C147.5 38.8567 147.3 40.4567 147 42.8567C147 42.9567 146.9 43.0567 146.8 43.0567Z" fill="#EBEBEB"/>
<path d="M141.2 76.1569C141.1 76.1569 141.1 76.1569 141.1 76.0569V75.9569C141.4 70.3569 139.4 61.9569 138.3 57.5569C138.3 57.4569 138.3 57.3569 138.4 57.3569C138.5 57.3569 138.6 57.3569 138.6 57.4569C139.8 61.9569 141.7 70.2569 141.4 75.9569C141.3 76.0569 141.3 76.1569 141.2 76.1569Z" fill="#EBEBEB"/>
<path d="M138.1 56.8569C138 56.8569 137.9 56.7569 137.9 56.7569C137.6 55.5569 137.1 54.1569 137.1 54.0569V53.9569L137.2 53.8569H137.3L137.4 53.9569C137.4 53.9569 137.8 55.4569 138.2 56.6569C138.3 56.7569 138.3 56.8569 138.1 56.8569C138.2 56.8569 138.1 56.8569 138.1 56.8569Z" fill="#EBEBEB"/>
<path d="M138.1 76.1569C138 76.1569 137.9 76.0569 137.9 75.9569C137.7 74.0569 136.4 68.1569 136.4 68.0569C136.4 67.9569 136.4 67.9569 136.5 67.8569C136.5 67.8569 136.6 67.7569 136.7 67.8569C136.8 67.8569 136.8 67.9569 136.8 67.9569C136.9 68.1569 138.1 73.9569 138.3 75.8569C138.3 76.0569 138.3 76.0569 138.1 76.1569Z" fill="#EBEBEB"/>
<path d="M147.6 68.5569C147.5 68.5569 147.4 68.4569 147.4 68.3569C147.2 66.2569 147.7 63.1569 148.2 60.9569C148.2 60.8569 148.3 60.7569 148.4 60.8569C148.5 60.8569 148.6 60.9569 148.5 61.0569C148 63.2569 147.5 66.2569 147.7 68.3569C147.8 68.4569 147.7 68.5569 147.6 68.5569Z" fill="#EBEBEB"/>
<path d="M148.6 60.3569C148.5 60.3569 148.5 60.3569 148.4 60.2569V60.1569C148.6 59.3569 148.7 58.9569 148.7 58.9569C148.7 58.8569 148.8 58.8569 148.8 58.8569C148.9 58.8569 148.9 58.8569 149 58.8569C149 58.8569 149.1 58.9569 149 59.0569C149 59.0569 148.9 59.5569 148.7 60.2569C148.8 60.3569 148.7 60.3569 148.6 60.3569Z" fill="#EBEBEB"/>
<path d="M152.6 61.6567C152.5 61.6567 152.4 61.5567 152.4 61.4567C153.4 56.9567 157.6 49.8567 157.7 49.7567C157.7 49.6567 157.8 49.6567 157.9 49.6567C158 49.6567 158 49.6567 158.1 49.7567C158.1 49.8567 158.1 49.8567 158.1 49.9567C158.1 50.0567 153.9 57.0567 152.9 61.5567C152.8 61.5567 152.7 61.6567 152.6 61.6567Z" fill="#EBEBEB"/>
<path fill-rule="evenodd" clip-rule="evenodd" d="M152 75.457C152 75.157 151.7 74.857 151.4 74.857L133.7 75.757C133.4 75.757 131.1 75.757 130.4 73.957C129.4 77.257 126.8 86.057 131.2 95.557L135.1 97.957L149.9 96.257C154.4 85.257 152 75.457 152 75.457Z" fill="#EBEBEB" stroke="#262626" stroke-width="0.5" stroke-miterlimit="10"/>
<path fill-rule="evenodd" clip-rule="evenodd" d="M154.1 74.6566C154.1 74.3566 153.8 74.0566 153.5 74.0566L133.7 75.7566C133.4 75.7566 133.1 76.0566 133.1 76.3566C133.1 76.3566 130 86.9566 135 98.0566L151.9 96.3566C156.6 85.2566 154.1 74.6566 154.1 74.6566Z" fill="white" stroke="#262626" stroke-width="0.5" stroke-miterlimit="10"/>
<path d="M113.2 109.957L120.3 108.057C121 107.857 121.5 107.257 121.5 106.557C121.5 105.557 120.5 104.757 119.5 105.057L112.4 106.857C111.7 107.057 111.2 107.657 111.2 108.357V108.457C111.2 109.457 112.2 110.157 113.2 109.957Z" fill="white" stroke="#262626" stroke-width="0.5" stroke-miterlimit="10"/>
<path d="M20.4004 134.057L27.5004 132.157C28.2004 131.957 28.7004 131.357 28.7004 130.657C28.7004 129.657 27.7004 128.857 26.7004 129.157L19.6004 130.957C18.9004 131.157 18.4004 131.757 18.4004 132.457V132.557C18.4004 133.557 19.4004 134.257 20.4004 134.057Z" fill="white" stroke="#262626" stroke-width="0.5" stroke-miterlimit="10"/>
<path d="M3.80029 113.557L132.5 80.5571V102.257L3.80029 136.457V113.557Z" fill="white" stroke="#262626" stroke-width="0.5" stroke-miterlimit="10"/>
<path d="M7.40039 116.057L129.5 84.6567V100.057L7.40039 132.357V116.057Z" fill="#EBEBEB" stroke="#262626" stroke-width="0.5" stroke-miterlimit="10"/>
<path d="M26.8004 117.157C26.8004 117.057 26.8004 116.957 26.7004 116.857C26.4004 116.557 25.4004 115.657 23.8004 114.757C22.7004 114.157 22.1004 117.157 21.9004 118.357C21.9004 118.557 22.1004 118.757 22.3004 118.757L26.5004 117.857C26.7004 117.857 26.8004 117.657 26.8004 117.557V117.157Z" fill="#C1C1C1" stroke="#262626" stroke-miterlimit="10"/>
<path d="M24.7004 115.957C24.7004 115.957 22.6004 115.357 20.3004 115.557C18.1004 115.757 16.4004 116.557 16.4004 116.557L17.5004 120.457L24.7004 115.957Z" fill="#C1C1C1" stroke="#262626" stroke-miterlimit="10"/>
<path d="M19.1002 119.057L24.0002 118.757C24.0002 118.757 26.1002 117.757 26.1002 114.057C26.1002 113.057 25.8002 112.157 25.4002 111.457L16.2002 113.857C16.5002 117.157 19.1002 119.057 19.1002 119.057Z" fill="white" stroke="#262626" stroke-width="0.5" stroke-miterlimit="10"/>
<path d="M19.3001 116.857C19.4106 116.857 19.5001 116.767 19.5001 116.657C19.5001 116.547 19.4106 116.457 19.3001 116.457C19.1896 116.457 19.1001 116.547 19.1001 116.657C19.1001 116.767 19.1896 116.857 19.3001 116.857Z" fill="#EBEBEB"/>
<path d="M21.6003 115.457C21.766 115.457 21.9003 115.323 21.9003 115.157C21.9003 114.991 21.766 114.857 21.6003 114.857C21.4346 114.857 21.3003 114.991 21.3003 115.157C21.3003 115.323 21.4346 115.457 21.6003 115.457Z" fill="#EBEBEB"/>
<path d="M24.4001 114.057C24.5658 114.057 24.7001 113.923 24.7001 113.757C24.7001 113.591 24.5658 113.457 24.4001 113.457C24.2344 113.457 24.1001 113.591 24.1001 113.757C24.1001 113.923 24.2344 114.057 24.4001 114.057Z" fill="#EBEBEB"/>
<path d="M16.4004 116.657C16.5004 117.157 18.0004 118.757 19.6004 118.457C21.5004 119.457 21.5004 124.057 21.5004 125.157C21.5004 125.257 21.4004 125.357 21.3004 125.257L18.3004 123.757C18.4004 123.657 16.5004 121.757 16.4004 116.657Z" fill="#EBEBEB" stroke="#262626" stroke-width="0.5" stroke-miterlimit="10"/>
<path d="M26.8004 117.257C26.8004 118.357 26.8004 122.457 25.6004 123.957L21.5004 125.157C21.4004 125.157 21.3004 125.157 21.2004 125.057C20.7004 124.357 18.8004 121.557 19.2004 118.757C19.2004 118.457 19.5004 118.257 19.7004 118.257C20.6004 118.257 23.0004 118.057 26.4004 116.957C26.7004 117.057 26.8004 117.157 26.8004 117.257Z" fill="white" stroke="#262626" stroke-width="0.5" stroke-miterlimit="10"/>
<path d="M132.5 80.5569L3.8002 113.557L0.200195 108.157L0.300195 83.5569L110.4 60.3569L132.5 80.5569Z" fill="white" stroke="#262626" stroke-width="0.5" stroke-miterlimit="10"/>
<path d="M90.9004 102.357L84.4004 96.2568L53.4004 104.157L61.4004 114.757L91.4004 107.057C92.2004 104.457 90.9004 102.357 90.9004 102.357Z" fill="white" stroke="#262626" stroke-width="0.5" stroke-miterlimit="10"/>
<path d="M90.9001 102.357L61.7001 110.157L56.6001 103.457L84.5001 96.2568L90.9001 102.357Z" fill="#EBEBEB" stroke="#262626" stroke-width="0.5" stroke-miterlimit="10"/>
<path d="M64.7673 86.3865C78.6838 83.078 89.313 77.6517 88.5082 74.2666C87.7034 70.8815 75.7694 70.8194 61.8529 74.128C47.9364 77.4365 37.3072 82.8628 38.112 86.2479C38.9168 89.633 50.8507 89.6951 64.7673 86.3865Z" fill="#EBEBEB" stroke="#262626" stroke-width="0.5" stroke-miterlimit="10"/>
<path d="M58.9004 77.7571L56.9004 68.7571L63.0004 67.5571V77.4571C63.0004 78.3571 62.3004 79.1571 61.4004 79.3571C60.3004 79.6571 59.2004 78.9571 58.9004 77.7571Z" fill="white" stroke="#262626" stroke-width="0.5" stroke-miterlimit="10"/>
<path d="M7.90022 32.457L13.3002 86.657C13.6002 89.3569 16.5002 90.957 18.9002 89.657C32.2002 82.3569 69.9002 63.9569 110.5 65.3569C112.4 65.4569 114.1 63.857 114.1 61.957V4.75695C114.1 2.65695 112.5 0.856952 110.4 0.556952C93.7002 -1.54305 43.3002 1.55695 12.4002 22.757C9.30022 24.957 7.60022 28.657 7.90022 32.457Z" fill="white" stroke="#262626" stroke-width="0.5" stroke-miterlimit="10"/>
<path d="M10.4001 30.6569L15.8001 87.0569C15.9001 87.6569 16.6001 88.0569 17.1001 87.7569C24.8001 83.5569 67.9001 61.3569 110.6 63.1569C111.2 63.1569 111.7 62.6569 111.7 62.0569V5.35687C111.7 3.95687 110.7 2.85687 109.3 2.75687C96.7001 1.65687 42.0001 4.15686 12.7001 25.6569C11.1001 26.7569 10.2001 28.7569 10.4001 30.6569Z" fill="#EBEBEB" stroke="#262626" stroke-width="0.5" stroke-miterlimit="10"/>
<path d="M61.7004 110.057C61.7004 110.057 62.5004 112.257 61.4004 114.757" stroke="black" stroke-miterlimit="10"/>
<path d="M129.5 100.057L119.2 87.3567L129.5 84.6567V100.057Z" fill="#C1C1C1" stroke="#262626" stroke-width="0.5" stroke-miterlimit="10"/>
<path d="M109.7 2.95695C105.2 2.55695 94.4001 2.85695 90.6001 3.15695L81.6001 65.057C88.6001 63.557 100.2 62.857 105.1 62.957C105.4 59.357 109.7 2.95695 109.7 2.95695Z" fill="white"/>
<path d="M83.4 3.75684C80 4.05684 69.8 5.35684 68 5.75684L58 70.6568C63 68.9568 73.4 66.5568 73.4 66.5568C73.4 66.6568 83.4 3.75684 83.4 3.75684Z" fill="white"/>
<path d="M0.200195 108.157V132.157L3.8002 136.457V113.557L0.200195 108.157Z" fill="#EBEBEB" stroke="#262626" stroke-width="0.5" stroke-miterlimit="10"/>
</svg>
