<svg width="100" height="100" viewBox="0 0 100 100" fill="none" xmlns="http://www.w3.org/2000/svg">/Users/dipeshthetime/Downloads/Graphics/Group 6.svg
<path fill-rule="evenodd" clip-rule="evenodd" d="M50.3343 24.1873C33.5997 24.1873 20.0339 37.7531 20.0339 54.4876C20.0339 71.2219 33.5997 84.788 50.3343 84.788C67.0689 84.788 80.6347 71.2219 80.6347 54.4876C80.6347 37.7531 67.0689 24.1873 50.3343 24.1873Z" fill="#3DDB93"/>
<path fill-rule="evenodd" clip-rule="evenodd" d="M67.4642 45.9675L64.7106 43.192C64.1404 42.6172 63.2123 42.6132 62.6375 43.1834L45.3671 60.3152L38.0618 52.9505C37.4916 52.3754 36.5632 52.3718 35.9884 52.942L33.2126 55.6956C32.6378 56.2658 32.6341 57.1939 33.2043 57.769L44.2958 68.9501C44.8661 69.5252 45.7945 69.5292 46.3693 68.9586L67.456 48.0412C68.0308 47.471 68.0345 46.5426 67.4642 45.9675Z" fill="white"/>
<path fill-rule="evenodd" clip-rule="evenodd" d="M17.2475 22.2978L14.3021 26.7872L12.5303 21.7186L7.35047 20.3047L11.6235 17.0533L11.3675 11.6901L15.7802 14.7493L20.8018 12.8485L19.256 17.9905L22.6155 22.179L17.2475 22.2978Z" fill="#FF2A77"/>
<path fill-rule="evenodd" clip-rule="evenodd" d="M86.6341 86.6873L90.578 83.0438L91.071 88.3905L95.7549 91.0155L90.8223 93.1365L89.7731 98.4024L86.2316 94.3666L80.8993 94.996L83.6432 90.3808L81.3968 85.5039L86.6341 86.6873Z" fill="#6E54EE"/>
<path fill-rule="evenodd" clip-rule="evenodd" d="M79.2392 21.2634L91.4321 17.0638L88.3571 30.3831L79.2392 21.2634Z" fill="#F79E1B"/>
<path fill-rule="evenodd" clip-rule="evenodd" d="M1.09525 49.8073L5.69765 54.1758L-0.492852 55.9509L1.09525 49.8073Z" fill="#6E54EE"/>
<path d="M10.1768 85.1831C12.5021 84.8034 15.8441 85.9893 15.6383 89.6327C15.5011 92.0617 16.8467 93.2653 19.675 93.2435" stroke="#F79E1B" stroke-width="2"/>
<path d="M101 59C100.365 63.2224 98.4775 67.4448 96.5041 63.2224C95.1885 60.4075 94.0205 61.3333 93 66" stroke="#FF2A77" stroke-width="2"/>
<path d="M49.4798 4.50471C50.0786 2.22604 52.5213 -0.344674 55.7661 1.32523C57.9292 2.4385 59.5761 1.69881 60.7066 -0.893846" stroke="#6E54EE" stroke-width="2"/>
</svg>
