<svg width="40" height="40" viewBox="0 0 40 40" fill="none" xmlns="http://www.w3.org/2000/svg">
<path d="M0 0H40V40H0V0Z" fill="white"/>
<rect width="40" height="40" rx="10" fill="#4FCE5D"/>
<path fill-rule="evenodd" clip-rule="evenodd" d="M19.5 8C12.0434 8 6 12.9096 6 18.9688C6 21.5844 7.12852 23.9785 9.00586 25.8611C8.34668 28.5189 6.14238 30.8867 6.11602 30.9131C6 31.0344 5.96836 31.2137 6.03691 31.3719C6.10547 31.5301 6.25313 31.625 6.42188 31.625C9.91816 31.625 12.5391 29.948 13.8363 28.9145C15.5607 29.5631 17.475 29.9375 19.5 29.9375C26.9566 29.9375 33 25.0279 33 18.9688C33 12.9096 26.9566 8 19.5 8Z" fill="white"/>
</svg>
