<svg width="15" height="15" viewBox="0 0 15 15" fill="none" xmlns="http://www.w3.org/2000/svg">
<path fill-rule="evenodd" clip-rule="evenodd" d="M7.47311 3.16072C6.94061 3.16072 6.50887 3.59247 6.50887 4.12504C6.50887 4.65762 6.94061 5.08928 7.47311 5.08928C8.00568 5.08928 8.43743 4.65762 8.43743 4.12504C8.43743 3.59247 8.00568 3.16072 7.47311 3.16072ZM6.38833 10.3928H6.74992V6.7767H6.38833C6.18863 6.7767 6.02674 6.61488 6.02674 6.41518V6.17404C6.02674 5.97442 6.18863 5.81253 6.38833 5.81253H7.83469C8.03439 5.81253 8.19628 5.97442 8.19628 6.17404V10.3928H8.55795C8.75765 10.3928 8.91954 10.5547 8.91954 10.7543V10.9955C8.91954 11.1952 8.75765 11.357 8.55795 11.357H6.38833C6.18863 11.357 6.02674 11.1952 6.02674 10.9955V10.7543C6.02674 10.5547 6.18863 10.3928 6.38833 10.3928ZM7.47311 0.0268555C3.34614 0.0268555 0 3.37413 0 7.49996C0 11.6282 3.34614 14.9731 7.47311 14.9731C11.6002 14.9731 14.9462 11.6282 14.9462 7.49996C14.9462 3.37413 11.6002 0.0268555 7.47311 0.0268555ZM7.4731 0.991094C11.0476 0.991094 13.982 3.88617 13.982 7.49996C13.982 11.0947 11.0708 14.0087 7.4731 14.0087C3.87984 14.0087 0.964238 11.099 0.964238 7.49996C0.964238 3.90799 3.87522 0.991094 7.4731 0.991094Z" fill="black"/>
<mask id="mask0" mask-type="alpha" maskUnits="userSpaceOnUse" x="0" y="0" width="15" height="15">
<path fill-rule="evenodd" clip-rule="evenodd" d="M7.47311 3.16072C6.94061 3.16072 6.50887 3.59247 6.50887 4.12504C6.50887 4.65762 6.94061 5.08928 7.47311 5.08928C8.00568 5.08928 8.43743 4.65762 8.43743 4.12504C8.43743 3.59247 8.00568 3.16072 7.47311 3.16072ZM6.38833 10.3928H6.74992V6.7767H6.38833C6.18863 6.7767 6.02674 6.61488 6.02674 6.41518V6.17404C6.02674 5.97442 6.18863 5.81253 6.38833 5.81253H7.83469C8.03439 5.81253 8.19628 5.97442 8.19628 6.17404V10.3928H8.55795C8.75765 10.3928 8.91954 10.5547 8.91954 10.7543V10.9955C8.91954 11.1952 8.75765 11.357 8.55795 11.357H6.38833C6.18863 11.357 6.02674 11.1952 6.02674 10.9955V10.7543C6.02674 10.5547 6.18863 10.3928 6.38833 10.3928ZM7.47311 0.0268555C3.34614 0.0268555 0 3.37413 0 7.49996C0 11.6282 3.34614 14.9731 7.47311 14.9731C11.6002 14.9731 14.9462 11.6282 14.9462 7.49996C14.9462 3.37413 11.6002 0.0268555 7.47311 0.0268555ZM7.4731 0.991094C11.0476 0.991094 13.982 3.88617 13.982 7.49996C13.982 11.0947 11.0708 14.0087 7.4731 14.0087C3.87984 14.0087 0.964238 11.099 0.964238 7.49996C0.964238 3.90799 3.87522 0.991094 7.4731 0.991094Z" fill="white"/>
</mask>
<g mask="url(#mask0)">
</g>
</svg>
