<svg width="47" height="47" viewBox="0 0 47 47" fill="none" xmlns="http://www.w3.org/2000/svg">
<path fill-rule="evenodd" clip-rule="evenodd" d="M33.5219 12.9107C35.3365 12.9257 37.1352 13.1875 38.5793 13.9041C40.2213 14.7188 41.0869 15.8466 41.5761 17.4507C42.0819 19.1088 42.0112 21.0835 41.2336 22.6578C39.0717 27.0342 30.1035 33.5998 30.1035 33.5998L42.004 31.4114L39.1786 40.4667L5.17969 46.896L24.8807 28.0158L31.1305 30.5058L30.2744 24.9968L37.2951 20.243L29.7231 21.8353L28.8192 17.6019L23.9389 22.8733L16.2333 24.4687L21.1136 26.657L20.0004 27.8646L10.326 29.6757C10.326 29.6757 11.0285 25.633 13.4939 22.8085C15.6103 20.3835 17.2828 18.3922 20.1718 16.6961C22.7264 15.1969 26.3918 13.6736 29.4185 13.2248C30.6896 13.0363 32.1107 12.8991 33.5219 12.9107ZM38.2882 0.12739C39.3591 0.375683 39.9122 1.03297 39.9359 2.09356C39.9516 2.79191 39.9489 3.49121 39.9274 4.18909C39.9239 4.30303 39.785 4.50599 39.7003 4.51026C39.1258 4.53898 38.5487 4.52521 37.9104 4.52521C37.9104 3.66378 37.9267 2.87191 37.8995 2.08121C37.8922 1.87375 37.8095 1.60765 37.6579 1.47852C37.3281 1.19771 36.8075 1.41704 36.7211 1.83743C36.6969 1.95469 36.6951 2.07718 36.6951 2.19753C36.6936 4.75024 36.6939 7.30272 36.6939 9.8552C36.6939 9.92214 36.6909 9.98979 36.6951 10.0567C36.7241 10.512 36.9217 10.7171 37.3221 10.7095C37.7024 10.7019 37.8955 10.5085 37.9044 10.0641C37.9194 9.29856 37.9107 8.53279 37.9119 7.76703V7.39269C38.5392 7.39269 39.1413 7.38604 39.7423 7.40218C39.8088 7.40408 39.9269 7.53677 39.9267 7.60846C39.9247 8.54751 39.9511 9.49012 39.8772 10.4249C39.8122 11.2469 39.2642 11.7656 38.4378 11.9844C37.6741 12.1865 36.8952 12.1855 36.1335 11.9747C35.3082 11.7459 34.821 11.213 34.7094 10.3943C34.6746 10.142 34.6559 9.88582 34.6554 9.6316C34.6514 7.25359 34.6519 4.87605 34.6549 2.49804C34.6552 2.2704 34.6732 2.04157 34.6994 1.81512C34.7986 0.962708 35.2812 0.407016 36.1505 0.16893C36.8575 -0.0247666 37.5744 -0.0380595 38.2882 0.12739ZM20.2744 0.262479C20.7775 0.284318 21.2821 0.268414 21.8537 0.268414C21.6179 1.02041 21.4048 1.71093 21.1852 2.39908C20.8817 3.34952 20.5637 4.2957 20.2749 5.25018C20.2162 5.44387 20.2107 5.6765 20.2619 5.87186C20.7356 7.68231 21.2277 9.48825 21.7131 11.2958C21.7578 11.4622 21.7918 11.6308 21.8417 11.8442H19.7098C19.2387 9.9008 18.775 7.98757 18.3114 6.07434L18.2012 6.08478V11.8197H16.186V0.306394H18.1877V5.32661C18.2165 5.33302 18.2449 5.3399 18.2737 5.34655C18.3086 5.27439 18.3536 5.20484 18.3771 5.12959C18.847 3.62417 19.3229 2.12017 19.7743 0.609995C19.8567 0.334166 19.9846 0.249661 20.2744 0.262479ZM31.7079 0.360918C32.9357 0.46204 33.4678 1.08776 33.5208 2.25777C33.5453 2.79376 33.5455 3.33284 33.522 3.86907C33.4776 4.8893 33.0464 5.3714 31.9957 5.62421C31.8883 5.65008 31.7821 5.67951 31.6655 5.78776C31.7889 5.80319 31.9123 5.81838 32.0357 5.83452C33.0494 5.96887 33.5191 6.4759 33.5285 7.46219C33.5358 8.20114 33.5051 8.94079 33.5378 9.67831C33.5693 10.3828 33.6614 11.085 33.7314 11.8406C33.1781 11.8406 32.5378 11.8489 31.8985 11.8301C31.8163 11.8275 31.6877 11.6939 31.6682 11.6037C31.5945 11.2635 31.5201 10.9172 31.5128 10.572C31.4903 9.53802 31.4973 8.50355 31.4971 7.46931C31.4968 6.67625 31.1571 6.39543 30.2495 6.50107V11.8168H28.2608V0.341216C29.4272 0.341216 30.575 0.268105 31.7079 0.360918ZM25.743 0.373499C26.9644 0.485065 27.5002 1.18176 27.5027 2.3532C27.5042 3.25237 27.5022 4.15154 27.5029 5.05071C27.5042 6.56397 26.8504 7.22838 25.2484 7.32475C24.9291 7.34398 24.6076 7.3276 24.2382 7.3276V11.8223H22.2197V0.350711C23.4105 0.350711 24.5864 0.267868 25.743 0.373499ZM24.2661 1.61022V5.94015C25.1957 6.08637 25.4762 5.87108 25.4777 5.03481C25.479 4.23153 25.4785 3.42802 25.4782 2.62451C25.478 1.72463 25.2604 1.53378 24.2661 1.61022ZM30.269 1.63989V4.98306C31.2048 5.13474 31.4951 4.91066 31.4958 4.07297C31.4963 3.56285 31.4968 3.05274 31.4961 2.54262C31.4948 1.71965 31.1673 1.47135 30.269 1.63989Z" fill="black" fill-opacity="0.52"/>
</svg>
