<svg width="188" height="64" viewBox="0 0 188 64" fill="none" xmlns="http://www.w3.org/2000/svg">
<circle cx="32" cy="32" r="31.5" fill="white" stroke="#E1E1E1"/>
<path d="M40.7807 49.1716C40.6525 49.1716 40.5642 49.0828 40.5642 48.9549V42.6062H38.4075C38.2793 42.6062 38.1909 42.5178 38.1909 42.3898V41.5141C38.1909 41.3858 38.2793 41.2971 38.4075 41.2971H44.1483C44.2764 41.2971 44.3646 41.3859 44.3646 41.5141V42.3898C44.3646 42.5176 44.2764 42.6062 44.1483 42.6062H41.9917V48.9549C41.9917 49.0828 41.903 49.1716 41.7752 49.1716H40.7807ZM24.2601 46.002L23.128 42.7541L21.9857 46.002H24.2601ZM26.771 48.9151C26.8205 49.0434 26.7416 49.1716 26.6037 49.1716H25.5798C25.432 49.1716 25.3433 49.1029 25.2939 48.9645L24.7132 47.2918H21.5331L20.9514 48.9645C20.9025 49.103 20.8136 49.1716 20.6662 49.1716H19.7015C19.5733 49.1716 19.4845 49.0433 19.5338 48.9151L22.2022 41.4944C22.2516 41.3561 22.3402 41.2975 22.4876 41.2975H23.807C23.9549 41.2975 24.0534 41.3562 24.1026 41.4944L26.771 48.9151ZM34.4196 48.1084C35.0495 48.1084 35.4731 47.8038 35.8178 47.2818L34.2229 45.569C33.6122 45.9137 33.2181 46.2578 33.2181 46.947C33.2182 47.6263 33.7693 48.1084 34.4196 48.1084ZM34.8626 42.3404C34.3508 42.3404 34.0554 42.6656 34.0554 43.0986C34.0554 43.4332 34.2322 43.7285 34.6361 44.1617C35.3351 43.7579 35.6307 43.5119 35.6307 43.079C35.6307 42.6751 35.3748 42.3404 34.8626 42.3404ZM39.225 48.896C39.3529 49.0339 39.2743 49.1716 39.1163 49.1716H37.8658C37.6984 49.1716 37.6098 49.1321 37.5016 49.004L36.7532 48.1775C36.2512 48.8469 35.5515 49.3487 34.3898 49.3487C32.9523 49.3487 31.8196 48.4826 31.8196 46.9966C31.8196 45.8545 32.4305 45.2441 33.3562 44.7324C32.9029 44.2108 32.6965 43.6595 32.6965 43.1775C32.6965 41.9566 33.5531 41.1201 34.8427 41.1201C36.1622 41.1201 36.9698 41.898 36.9698 43.0494C36.9698 44.0337 36.261 44.5844 35.5124 44.9981L36.6154 46.1894L37.2356 45.1063C37.3143 44.9786 37.403 44.9292 37.5603 44.9292H38.5152C38.673 44.9292 38.7616 45.0377 38.6635 45.205L37.5604 47.0945L39.225 48.896ZM29.3984 49.1716C29.5264 49.1716 29.6154 49.0828 29.6154 48.9549V42.6062H31.7715C31.8995 42.6062 31.988 42.5178 31.988 42.3898V41.5141C31.988 41.3858 31.8995 41.2971 31.7715 41.2971H26.0308C25.9026 41.2971 25.8141 41.3859 25.8141 41.5141V42.3898C25.8141 42.5176 25.9026 42.6062 26.0308 42.6062H28.1868V48.9549C28.1868 49.0828 28.2757 49.1716 28.4036 49.1716H29.3984Z" fill="black"/>
<path d="M25.7296 32.3418C27.3995 33.6344 29.4955 34.4111 31.7696 34.4111C34.2581 34.4111 36.5268 33.4872 38.2583 31.9705C38.2793 31.952 38.2689 31.9397 38.2482 31.952C37.4713 32.4709 35.2568 33.6036 31.7696 33.6036C28.7391 33.6036 26.824 32.9274 25.7424 32.3237C25.7217 32.3135 25.7141 32.329 25.7296 32.3418ZM32.4382 32.845C34.862 32.845 37.5255 32.1843 39.1185 30.8764C39.5545 30.52 39.9697 30.0457 40.3416 29.4083C40.5557 29.0415 40.7651 28.6058 40.9356 28.1775C40.9432 28.1566 40.9303 28.1465 40.9146 28.1699C39.4332 30.35 35.1434 31.7097 30.714 31.7097C27.5831 31.7097 24.2143 30.7085 22.8954 28.7968C22.8825 28.7791 22.8695 28.7867 22.8774 28.807C24.106 31.4185 27.8335 32.845 32.4382 32.845ZM29.7899 28.5128C24.7487 28.5128 22.3717 26.1649 21.9405 24.5626C21.9352 24.5395 21.9199 24.5445 21.9199 24.5654C21.9199 25.1048 21.9739 25.8009 22.0668 26.2629C22.1111 26.4878 22.2941 26.8408 22.5625 27.1221C23.7832 28.3945 26.8266 30.1774 32.0972 30.1774C39.2782 30.1774 40.9201 27.7854 41.2554 26.9987C41.4951 26.4361 41.6193 25.4195 41.6193 24.5654C41.6193 24.3588 41.6142 24.1937 41.6063 24.0316C41.6063 24.0053 41.5911 24.0032 41.5858 24.0288C41.227 25.9536 35.0917 28.5128 29.7899 28.5128ZM22.8695 20.3416C22.5806 20.9148 22.2604 21.882 22.1652 22.3825C22.1235 22.597 22.1413 22.7 22.2165 22.86C22.8207 24.142 25.877 26.1932 33.006 26.1932C37.3552 26.1932 40.7338 25.1247 41.2811 23.1748C41.3819 22.8159 41.3873 22.4369 41.2578 21.9262C41.1132 21.3556 40.8422 20.6902 40.6129 20.2229C40.6053 20.2077 40.592 20.2099 40.5947 20.2279C40.6799 22.7854 33.548 24.4336 29.9496 24.4336C26.0519 24.4336 22.8001 22.8806 22.8001 20.9197C22.8001 20.7313 22.8391 20.5429 22.8878 20.3467C22.8927 20.3288 22.8773 20.3259 22.8695 20.3416ZM38.2742 17.2016C38.3156 17.2665 38.3363 17.3357 38.3363 17.4289C38.3363 18.5228 34.9882 20.458 29.6585 20.458C25.7424 20.458 25.0093 19.0053 25.0093 18.0814C25.0093 17.7512 25.1359 17.4132 25.4149 17.0701C25.4301 17.0496 25.4172 17.0418 25.3996 17.057C24.8908 17.4881 24.4234 17.9732 24.0133 18.4969C23.8174 18.7446 23.6958 18.964 23.6958 19.0954C23.6958 21.01 28.4965 22.3982 32.9854 22.3982C37.7684 22.3982 39.903 20.8368 39.903 19.4646C39.903 18.9742 39.7121 18.688 39.2237 18.1329C38.9067 17.7719 38.6069 17.4779 38.2896 17.1885C38.2742 17.1759 38.2635 17.1862 38.2742 17.2016ZM36.8079 16.1079C35.3318 15.2231 33.6176 14.7197 31.7696 14.7197C29.9088 14.7197 28.143 15.2407 26.6615 16.1489C26.2172 16.4224 25.9671 16.6415 25.9671 16.9233C25.9671 17.7537 27.9079 18.6467 31.3512 18.6467C34.7588 18.6467 37.4017 17.6686 37.4017 16.7272C37.4017 16.5024 37.2053 16.3452 36.8079 16.1079Z" fill="#00A8E0"/>
<circle cx="156" cy="32" r="31.5" fill="white" stroke="#E1E1E1"/>
<path fill-rule="evenodd" clip-rule="evenodd" d="M160.358 26.5351L165.3 24.1353L167.652 29.1767L165.566 28.4214C165.097 30.0093 164.004 31.4005 162.427 32.1827C160.29 33.2427 157.841 32.8989 156.084 31.5054L156.078 31.5117L153.755 29.5174L153.756 12.6641C155.596 12.6641 157.088 14.1853 157.088 16.0626V21.1436C157.109 21.1323 157.13 21.1216 157.152 21.1108C160.115 19.6421 163.677 20.8699 165.165 23.8517L162.16 25.3109C161.469 24.0313 159.908 23.516 158.606 24.1619C157.704 24.6092 157.154 25.4999 157.088 26.4519C157.083 26.5162 157.081 26.5815 157.081 26.6468C157.08 27.0527 157.168 27.465 157.354 27.8548C157.511 28.1842 157.723 28.4673 157.974 28.6978C158.02 28.741 158.068 28.7815 158.117 28.8202C158.906 29.4521 160.01 29.6097 160.974 29.1321C161.734 28.755 162.244 28.0622 162.425 27.2836L160.358 26.5351ZM147.807 15.1285L147.866 15.0998C148.321 14.8838 148.803 14.7742 149.3 14.7742C150.616 14.7742 151.826 15.56 152.381 16.7762L153.277 19.0371V27.1475L147.807 15.1285ZM150.532 22.3046L153.321 28.4032V29.1445L145 22.0022C146.183 20.5646 148.284 20.3769 149.693 21.5836L150.532 22.3046Z" fill="#3DDB93"/>
<path fill-rule="evenodd" clip-rule="evenodd" d="M147.067 47.1844H148.898V38.6191H147.067V47.1844ZM138.819 45.3314V43.567H139.557C139.91 43.567 140.179 43.6418 140.365 43.7912C140.551 43.9406 140.644 44.1553 140.644 44.4348C140.644 45.0326 140.297 45.3314 139.602 45.3314H138.819ZM139.489 41.9063H138.819V40.4004H139.444C140.143 40.4004 140.492 40.6361 140.492 41.1073C140.492 41.3718 140.405 41.571 140.23 41.7051C140.055 41.8393 139.808 41.9063 139.489 41.9063ZM139.467 38.6822H136.594V47.0845H139.799C140.768 47.0845 141.533 46.8651 142.095 46.4265C142.656 45.9878 142.937 45.3871 142.937 44.6247C142.937 44.1112 142.822 43.6936 142.593 43.3718C142.364 43.05 141.994 42.82 141.483 42.6821V42.6247C141.87 42.5288 142.182 42.3143 142.418 41.981C142.655 41.6477 142.773 41.2453 142.773 40.7741C142.773 40.0575 142.502 39.5298 141.96 39.1907C141.417 38.8516 140.586 38.6822 139.467 38.6822ZM145.813 47.1845H143.982V41.8906H145.813V47.1845ZM143.942 39.4498C143.888 39.5772 143.861 39.713 143.861 39.8575C143.861 40.0019 143.888 40.1379 143.942 40.2651C143.996 40.3925 144.07 40.5042 144.164 40.6005C144.259 40.6969 144.368 40.7725 144.493 40.8275C144.618 40.8827 144.751 40.9101 144.893 40.9101C145.034 40.9101 145.167 40.8827 145.292 40.8275C145.417 40.7725 145.527 40.6969 145.621 40.6005C145.715 40.5042 145.789 40.3925 145.844 40.2651C145.897 40.1379 145.924 40.0019 145.924 39.8575C145.924 39.713 145.897 39.5772 145.844 39.4498C145.789 39.3226 145.715 39.2109 145.621 39.1145C145.527 39.0182 145.417 38.9426 145.292 38.8875C145.167 38.8324 145.034 38.8049 144.893 38.8049C144.751 38.8049 144.618 38.8324 144.493 38.8875C144.368 38.9426 144.259 39.0182 144.164 39.1145C144.07 39.2109 143.996 39.3226 143.942 39.4498ZM151.984 47.1844H150.153V38.6191H151.984V47.1844ZM155.75 40.2084V38.6192H155.74H153.919H153.909V40.2084H152.429V41.7666H153.909V47.1845H153.919H155.74H155.75V41.7666H157.229V40.2084H155.75ZM159.658 41.8906H157.827V47.1845H159.658V44.9142C159.658 44.4189 159.764 44.0422 159.977 43.7843C160.189 43.5262 160.508 43.3973 160.933 43.3973C161.216 43.3973 161.479 43.4592 161.722 43.583V41.7977C161.647 41.784 161.582 41.7771 161.524 41.7771H161.368C160.99 41.7771 160.66 41.8613 160.376 42.0299C160.093 42.1986 159.854 42.4411 159.658 42.7575V41.8906ZM162.541 47.1845H164.372V41.8906H162.541V47.1845ZM162.42 39.8575C162.42 39.713 162.446 39.5772 162.5 39.4498C162.554 39.3226 162.628 39.2109 162.723 39.1145C162.817 39.0182 162.927 38.9426 163.052 38.8875C163.176 38.8324 163.31 38.8049 163.451 38.8049C163.593 38.8049 163.726 38.8324 163.851 38.8875C163.976 38.9426 164.085 39.0182 164.18 39.1145C164.274 39.2109 164.348 39.3226 164.402 39.4498C164.456 39.5772 164.483 39.713 164.483 39.8575C164.483 40.0019 164.456 40.1379 164.402 40.2651C164.348 40.3925 164.274 40.5042 164.18 40.6005C164.085 40.6969 163.976 40.7725 163.851 40.8275C163.726 40.8827 163.593 40.9101 163.451 40.9101C163.31 40.9101 163.176 40.8827 163.052 40.8275C162.927 40.7725 162.817 40.6969 162.723 40.6005C162.628 40.5042 162.554 40.3925 162.5 40.2651C162.446 40.1379 162.42 40.0019 162.42 39.8575ZM167.457 41.8904H165.626V47.1843H167.457V44.5734C167.457 44.2915 167.479 44.0627 167.523 43.8872C167.566 43.7117 167.627 43.5742 167.705 43.4744C167.782 43.3747 167.872 43.3078 167.973 43.2732C168.074 43.2389 168.182 43.2216 168.296 43.2216C168.431 43.2216 168.549 43.2407 168.651 43.2784C168.752 43.3162 168.834 43.3867 168.898 43.4899C168.962 43.5931 169.011 43.7324 169.045 43.9078C169.079 44.0833 169.096 44.3051 169.096 44.5734V47.1843H170.926V44.5734C170.926 43.6998 171.22 43.2629 171.806 43.2629C171.914 43.2629 172.015 43.2802 172.11 43.3145C172.204 43.3489 172.287 43.4142 172.358 43.5106C172.429 43.6069 172.483 43.7412 172.52 43.913C172.557 44.0851 172.575 44.3051 172.575 44.5734V47.1843H174.406V43.7479C174.406 43.3971 174.361 43.0978 174.27 42.8501C174.179 42.6024 174.055 42.4012 173.9 42.2463C173.745 42.0916 173.56 41.9781 173.344 41.9059C173.128 41.8337 172.899 41.7975 172.656 41.7975C171.894 41.7975 171.307 42.1313 170.896 42.7985C170.492 42.1381 169.905 41.8078 169.136 41.8078C168.516 41.8078 167.956 42.0521 167.457 42.5405V41.8904Z" fill="#262626"/>
<path fill-rule="evenodd" clip-rule="evenodd" d="M103.516 22H103.113C102.846 22 102.629 22.2167 102.629 22.4839V26.9446C100.892 23.9863 97.6784 22 94 22C88.6463 22 84.2752 26.2072 84.0125 31.4957C83.9988 31.7706 84.2208 32 84.496 32H84.8999C85.156 32 85.3695 31.8004 85.3828 31.5446C85.6192 27.0087 89.3668 23.371 94 23.371C97.3412 23.371 100.239 25.2692 101.673 28.0484H97.0645C96.7973 28.0484 96.5806 28.265 96.5806 28.5323V28.9355C96.5806 29.2027 96.7973 29.4194 97.0645 29.4194H103.516C103.783 29.4194 104 29.2027 104 28.9355V22.4839C104 22.2167 103.783 22 103.516 22ZM103.504 32H103.1C102.844 32 102.631 32.1996 102.617 32.4554C102.381 37.0064 98.6188 40.629 94 40.629C90.669 40.629 87.7632 38.7358 86.3267 35.9516H90.9355C91.2027 35.9516 91.4194 35.735 91.4194 35.4677V35.0645C91.4194 34.7973 91.2027 34.5806 90.9355 34.5806H84.4839C84.2167 34.5806 84 34.7973 84 35.0645V41.5161C84 41.7833 84.2167 42 84.4839 42H84.8871C85.1543 42 85.371 41.7833 85.371 41.5161V37.0554C87.1077 40.0137 90.3217 42 94 42C99.3538 42 103.725 37.7928 103.987 32.5043C104.001 32.2294 103.779 32 103.504 32Z" fill="black"/>
</svg>
