<svg width="236" height="28" viewBox="0 0 236 28" fill="none" xmlns="http://www.w3.org/2000/svg">
<path fill-rule="evenodd" clip-rule="evenodd" d="M22.7598 18.3129C20.4679 18.3129 18.6108 16.5447 18.6108 14.3602C18.6108 12.1757 20.4679 10.3991 22.7598 10.3991C24.7524 10.3991 26.4201 11.7416 26.8205 13.528H25.3551C24.9906 12.4953 23.9673 11.7473 22.7598 11.7473C21.245 11.7473 20.0144 12.9164 20.0144 14.3602C20.0144 15.8039 21.245 16.9733 22.7598 16.9733C23.9576 16.9733 24.9742 16.2371 25.3463 15.2174H26.8117C26.4009 16.9891 24.7428 18.3129 22.7598 18.3129ZM13.9023 18.3129C11.6544 18.3129 9.83136 16.6035 9.7622 14.4767H9.75324V14.3519V8.13933H11.1658V11.3811C11.8964 10.7691 12.8526 10.3991 13.9023 10.3991C16.1942 10.3991 18.0515 12.1675 18.0515 14.3519C18.0515 16.5363 16.1942 18.3129 13.9023 18.3129ZM9.2743 14.3602V18.2963H7.86184V17.331C7.13118 17.943 6.17498 18.3129 5.12526 18.3129C2.83332 18.3129 0.97622 16.5447 0.97622 14.3602C0.97622 12.1757 2.83332 10.3991 5.12526 10.3991C7.37324 10.3991 9.19618 12.1085 9.26548 14.2355H9.2743V14.3602ZM14 0.839844C6.26808 0.839844 0 6.73502 0 14.0068C0 21.2788 6.26808 27.174 14 27.174C21.7321 27.174 28 21.2788 28 14.0068C28 6.73502 21.7321 0.839844 14 0.839844ZM5.1252 11.7473C3.61054 11.7473 2.3798 12.9164 2.3798 14.3602C2.3798 15.8039 3.61054 16.9733 5.1252 16.9733C6.64 16.9733 7.86178 15.8039 7.86178 14.3602C7.86178 12.9164 6.64 11.7473 5.1252 11.7473ZM13.9023 11.7389C12.3877 11.7389 11.1658 12.9081 11.1658 14.352C11.1658 15.7956 12.3877 16.9649 13.9023 16.9649C15.4171 16.9649 16.6477 15.7956 16.6477 14.352C16.6477 12.9081 15.4171 11.7389 13.9023 11.7389Z" fill="black" fill-opacity="0.52"/>
<path fill-rule="evenodd" clip-rule="evenodd" d="M71.9704 7.69175C73.0515 7.70066 74.123 7.85664 74.9834 8.28356C75.9616 8.7689 76.4772 9.44076 76.7686 10.3964C77.07 11.3842 77.0279 12.5606 76.5646 13.4985C75.2767 16.1057 69.9339 20.0171 69.9339 20.0171L77.0236 18.7134L75.3404 24.1081L55.0857 27.9383L66.8225 16.6905L70.5457 18.1739L70.0357 14.892L74.2183 12.0599L69.7073 13.0085L69.1688 10.4865L66.2614 13.6269L61.6708 14.5773L64.5782 15.881L63.9151 16.6004L58.1516 17.6794C58.1516 17.6794 58.5701 15.271 60.0388 13.5883C61.2997 12.1436 62.296 10.9573 64.0172 9.94688C65.539 9.05371 67.7227 8.14625 69.5259 7.87884C70.2831 7.76655 71.1297 7.68482 71.9704 7.69175ZM74.8099 0.0761412C75.4479 0.22406 75.7774 0.615636 75.7915 1.24747C75.8009 1.66352 75.7993 2.08012 75.7865 2.49588C75.7844 2.56376 75.7016 2.68467 75.6512 2.68721C75.3089 2.70432 74.9651 2.69612 74.5849 2.69612C74.5849 2.18293 74.5945 1.71117 74.5783 1.24012C74.574 1.11653 74.5247 0.958 74.4344 0.881071C74.238 0.713778 73.9278 0.844444 73.8763 1.09489C73.8619 1.16475 73.8608 1.23772 73.8608 1.30941C73.8599 2.83018 73.8601 4.35081 73.8601 5.87143C73.8601 5.91131 73.8583 5.95162 73.8608 5.9915C73.8781 6.26273 73.9958 6.38491 74.2344 6.38038C74.4609 6.37586 74.5759 6.26061 74.5813 5.99588C74.5902 5.53982 74.585 5.08362 74.5858 4.62741V4.4044C74.9595 4.4044 75.3181 4.40044 75.6762 4.41006C75.7158 4.41119 75.7862 4.49024 75.786 4.53295C75.7848 5.09238 75.8006 5.65394 75.7565 6.21083C75.7179 6.70055 75.3913 7.00954 74.899 7.13992C74.4441 7.26026 73.98 7.2597 73.5263 7.13412C73.0346 6.9978 72.7444 6.68032 72.6778 6.19259C72.6572 6.04226 72.646 5.88968 72.6457 5.73822C72.6433 4.32154 72.6436 2.90513 72.6454 1.48844C72.6455 1.35283 72.6563 1.2165 72.6719 1.0816C72.731 0.573778 73.0185 0.242727 73.5364 0.100889C73.9576 -0.0145052 74.3847 -0.0224244 74.8099 0.0761412ZM64.0783 0.15662C64.378 0.16963 64.6786 0.160155 65.0192 0.160155C64.8787 0.608155 64.7517 1.01953 64.6209 1.42949C64.4401 1.99571 64.2506 2.55939 64.0786 3.12801C64.0436 3.24341 64.0403 3.38199 64.0708 3.49838C64.353 4.57694 64.6462 5.65282 64.9354 6.72969C64.962 6.82882 64.9822 6.92923 65.012 7.05636H63.742C63.4613 5.8986 63.1851 4.7588 62.9088 3.619L62.8432 3.62523V7.04179H61.6427V0.182782H62.8352V3.17355C62.8523 3.17737 62.8693 3.18147 62.8864 3.18543C62.9072 3.14244 62.934 3.101 62.948 3.05618C63.2279 2.15933 63.5114 1.26333 63.7803 0.36365C63.8295 0.199327 63.9057 0.148984 64.0783 0.15662ZM70.8897 0.215264C71.6212 0.275507 71.9382 0.648275 71.9698 1.34531C71.9843 1.66462 71.9845 1.98577 71.9705 2.30522C71.944 2.91302 71.6871 3.20023 71.0612 3.35084C70.9972 3.36626 70.934 3.38379 70.8644 3.44828C70.938 3.45747 71.0115 3.46652 71.085 3.47613C71.6889 3.55617 71.9687 3.85823 71.9744 4.44581C71.9787 4.88603 71.9604 5.32668 71.9799 5.76605C71.9986 6.18577 72.0535 6.60407 72.0952 7.05419C71.7656 7.05419 71.3841 7.05914 71.0033 7.04797C70.9543 7.04642 70.8777 6.9668 70.8661 6.91306C70.8222 6.71042 70.7778 6.50409 70.7735 6.29848C70.7601 5.68248 70.7643 5.06619 70.7641 4.45005C70.764 3.97759 70.5616 3.8103 70.0209 3.87322V7.04005H68.8361V0.203527C69.531 0.203527 70.2148 0.159972 70.8897 0.215264ZM67.3362 0.222759C68.0638 0.289224 68.383 0.704275 68.3845 1.40215C68.3854 1.93783 68.3842 2.47351 68.3847 3.00918C68.3854 3.9107 67.9959 4.30652 67.0415 4.36393C66.8513 4.37539 66.6598 4.36563 66.4397 4.36563V7.04331H65.2372V0.209184C65.9466 0.209184 66.6471 0.15983 67.3362 0.222759ZM66.4564 0.959527V3.53906C67.0101 3.62617 67.1773 3.49791 67.1781 2.99971C67.1789 2.52116 67.1786 2.04248 67.1784 1.56379C67.1783 1.02769 67.0487 0.913992 66.4564 0.959527ZM70.0325 0.977204V2.96888C70.59 3.05924 70.763 2.92575 70.7634 2.4267C70.7637 2.1228 70.764 1.8189 70.7635 1.515C70.7628 1.02472 70.5677 0.8768 70.0325 0.977204Z" fill="black" fill-opacity="0.52"/>
<g clip-path="url(#clip0)">
<path fill-rule="evenodd" clip-rule="evenodd" d="M130.103 19.5862C129.28 19.2211 128.46 18.9436 127.547 19.1801C126.669 19.4077 125.97 19.8661 125.47 20.6178C124.685 21.7992 124.744 23.3754 125.602 24.4873C126.631 25.8202 127.963 26.0796 130.123 25.3557V26.2781C130.123 27.3452 130.123 27.345 129.048 27.526C128.952 27.5422 128.838 27.5149 128.779 27.6283H127.54C126.928 27.4174 126.285 27.3105 125.698 27.0085C123.562 25.9093 122.463 23.6508 122.96 21.3362C123.421 19.1916 125.539 17.436 127.798 17.3273C127.819 17.3264 127.839 17.3259 127.86 17.325C130.022 17.236 130.195 17.4066 130.103 19.5862ZM105.886 17.4154C107.963 19.3128 109.949 21.1264 111.934 22.9394C112.133 22.8046 112.041 22.6235 112.042 22.4768C112.05 21.0119 112.061 19.5466 112.037 18.082C112.031 17.6908 112.149 17.6109 112.523 17.6114C113.969 17.6136 114.039 17.6007 114.042 18.8812L114.043 27.4988C111.944 25.58 109.966 23.7717 107.988 21.9629C107.781 22.0932 107.884 22.2741 107.883 22.4156C107.873 23.8805 107.861 25.3458 107.887 26.8102C107.894 27.2031 107.778 27.2814 107.406 27.2824C105.935 27.286 105.887 27.2991 105.886 25.9508L105.886 17.4154ZM115.49 17.5989C116.768 17.6171 118.048 17.5655 119.323 17.6327C120.443 17.6917 121.366 18.1742 121.731 19.329C122.084 20.4477 121.818 21.4032 120.749 22.1078C122.028 22.7715 122.567 23.7315 122.34 25.0539C122.148 26.1739 121.46 26.8788 120.371 27.1883C120.196 27.2381 120.008 27.2657 119.825 27.2666C118.424 27.2737 117.022 27.2608 115.62 27.2802C115.271 27.2851 115.17 27.1885 115.171 26.834C115.185 23.9068 115.179 20.9797 115.18 18.0526C115.18 17.8353 115.114 17.5936 115.49 17.5989ZM118.744 23.0406L118.608 23.0411C117.238 23.0493 117.191 23.0443 117.19 24.2821L117.19 24.5551C117.191 25.8451 117.238 25.8473 118.626 25.8395C118.871 25.838 119.122 25.8335 119.358 25.777C119.879 25.6519 120.221 25.3087 120.35 24.7913C120.484 24.2539 120.348 23.7796 119.934 23.3927C119.589 23.0705 119.175 23.0412 118.744 23.0406ZM118.446 19.0854C117.235 19.0782 117.191 19.078 117.19 20.1923L117.19 20.4527C117.191 21.6195 117.235 21.6186 118.474 21.5941C119.366 21.5765 119.936 21.0984 119.948 20.3582C119.96 19.61 119.348 19.0906 118.446 19.0854ZM127.177 10.5876C129.141 9.26556 131.258 10.0326 131.921 12.3018C131.931 12.3358 131.973 12.3604 132 12.3894V13.3806C131.293 15.3095 130.503 15.8515 128.403 15.8515H119.533C119.585 15.6302 119.778 15.5797 119.912 15.4891C122.331 13.8511 124.753 12.2189 127.177 10.5876ZM106.627 9.97088C107.309 9.88155 107.951 10.0263 108.513 10.4024C111.147 12.165 113.769 13.9445 116.395 15.7199C116.418 15.7354 116.423 15.7773 116.456 15.8515H107.603C105.496 15.8515 104.693 15.3009 104 13.3806V12.3894C104.4 11.0671 105.183 10.1599 106.627 9.97088ZM123.948 5.50118C124.486 4.30053 125.613 3.70336 126.974 3.82378C128.124 3.9255 129.111 4.76575 129.449 5.93072C129.778 7.06584 129.422 8.36462 128.456 9.03352C125.614 11.0007 122.739 12.9204 119.876 14.8573C119.864 14.8653 119.838 14.8522 119.829 14.8508C120.214 13.982 120.597 13.1273 120.973 12.2702C121.964 10.0136 122.94 7.74998 123.948 5.50118ZM108.671 3.87534C109.944 3.56238 111.38 4.11619 111.925 5.30767C113.298 8.3095 114.592 11.3475 115.915 14.3721C115.95 14.4523 116.071 14.5449 115.934 14.6343C115.767 14.7444 115.676 14.5822 115.567 14.5086C113.644 13.2065 111.721 11.9025 109.8 10.5977C109.103 10.1245 108.405 9.65288 107.713 9.17217C106.855 8.5755 106.436 7.74727 106.442 6.70383C106.452 5.3462 107.355 4.1987 108.671 3.87534ZM121.717 0C123.033 0.404142 123.935 1.18455 124.138 2.62196C124.207 3.10689 124.142 3.57359 123.953 4.0102C122.588 7.16998 121.21 10.3244 119.76 13.6576C119.568 12.3411 119.401 11.2026 119.236 10.0638C118.999 8.43556 118.789 6.80301 118.518 5.1805C118.376 4.32885 118.672 3.78644 119.551 3.49281C119.267 3.2755 119.023 3.27018 118.801 3.30586C118.235 3.3968 118.191 3.08037 118.254 2.65864C118.469 1.20685 119.361 0.383204 120.726 0H121.717ZM115.307 0.102634C116.831 0.323165 117.925 1.77793 117.708 3.30727C117.224 6.71088 116.735 10.1139 116.229 13.6535C115.584 12.1763 114.987 10.8121 114.393 9.44671C113.607 7.63909 112.791 5.8435 112.047 4.01842C111.337 2.27499 112.441 0.364669 114.251 0.102634H115.307Z" fill="black" fill-opacity="0.52"/>
</g>
<path d="M163.505 16.4341L162.692 19.4662L159.724 19.529C158.837 17.8835 158.333 16.0008 158.333 14.0002C158.333 12.0655 158.804 10.2412 159.638 8.63477H159.638L162.281 9.1193L163.439 11.7463C163.197 12.4527 163.065 13.2111 163.065 14.0002C163.065 14.8566 163.22 15.6771 163.505 16.4341Z" fill="#808080"/>
<path d="M181.463 11.8203C181.597 12.5261 181.667 13.2549 181.667 13.9998C181.667 14.8351 181.579 15.6498 181.411 16.4357C180.843 19.1101 179.359 21.4453 177.304 23.0979L177.303 23.0972L173.974 22.9274L173.503 19.9863C174.867 19.1864 175.933 17.9344 176.495 16.4357H170.256V11.8203H176.586H181.463Z" fill="#808080"/>
<path d="M177.303 23.097L177.304 23.0977C175.305 24.7047 172.765 25.6663 170 25.6663C165.557 25.6663 161.694 23.1829 159.724 19.5285L163.505 16.4336C164.49 19.0631 167.026 20.9349 170 20.9349C171.278 20.9349 172.476 20.5893 173.503 19.9861L177.303 23.097Z" fill="#808080"/>
<path d="M177.447 5.01889L173.667 8.11311C172.604 7.44838 171.347 7.06438 170 7.06438C166.959 7.06438 164.375 9.02206 163.439 11.7458L159.639 8.63428H159.638C161.58 4.8907 165.491 2.33301 170 2.33301C172.831 2.33301 175.426 3.34135 177.447 5.01889Z" fill="#808080"/>
<rect x="217.8" y="3.5" width="12.6" height="24.5" fill="white"/>
<path fill-rule="evenodd" clip-rule="evenodd" d="M230.75 0H213.25C210.35 0 208 2.35032 208 5.25V22.7501C208 25.6498 210.35 28 213.25 28H221.552V16.5361H218.686V12.5857L221.552 12.5835L221.547 10.2572C221.547 7.0329 222.421 5.07206 226.216 5.07206H229.378V9.02482H227.401C225.922 9.02482 225.851 9.57642 225.851 10.6058L225.846 12.5835H229.4L228.982 16.5337L225.851 16.536L225.848 28H230.75C233.65 28 236 25.6498 236 22.7501V5.25C236 2.35032 233.65 0 230.75 0Z" fill="#808080"/>
<defs>
<clipPath id="clip0">
<rect width="28" height="28" fill="white" transform="translate(104)"/>
</clipPath>
</defs>
</svg>
