<svg width="24" height="24" viewBox="0 0 24 24" fill="none" xmlns="http://www.w3.org/2000/svg">
<path fill-rule="evenodd" clip-rule="evenodd" d="M6 12C6 11.3376 5.4624 10.8 4.8 10.8H1.2C0.5376 10.8 0 11.3376 0 12C0 12.6624 0.5376 13.2 1.2 13.2H4.8C5.4624 13.2 6 12.6624 6 12ZM22.8 10.8H19.2C18.5376 10.8 18 11.3376 18 12C18 12.6624 18.5376 13.2 19.2 13.2H22.8C23.4624 13.2 24 12.6624 24 12C24 11.3376 23.4624 10.8 22.8 10.8ZM12 18C11.3376 18 10.8 18.5376 10.8 19.2V22.8C10.8 23.4636 11.3376 24 12 24C12.6624 24 13.2 23.4636 13.2 22.8V19.2C13.2 18.5376 12.6624 18 12 18ZM12 0C11.3376 0 10.8 0.5376 10.8 1.2V4.8C10.8 5.4624 11.3376 6 12 6C12.6624 6 13.2 5.4624 13.2 4.8V1.2C13.2 0.5376 12.6624 0 12 0ZM7.6392 2.0472C7.308 1.4736 6.5748 1.2756 6 1.608C5.4252 1.9392 5.2296 2.6736 5.5608 3.2472L7.3608 6.3648C7.692 6.9384 8.4252 7.1352 9 6.804C9.5748 6.4728 9.7704 5.7384 9.4392 5.1648L7.6392 2.0472ZM16.6392 17.6352C16.308 17.0616 15.5748 16.8648 15 17.196C14.4252 17.5272 14.2296 18.2616 14.5608 18.8352L16.3608 21.9528C16.692 22.5264 17.4252 22.7244 18 22.392C18.5748 22.0608 18.7704 21.3264 18.4392 20.7528L16.6392 17.6352ZM6.80401 15C6.47281 14.4252 5.73841 14.2296 5.16481 14.5608L2.04721 16.3608C1.47361 16.692 1.27561 17.4252 1.60801 18C1.93921 18.5748 2.67361 18.7704 3.24721 18.4392L6.36481 16.6392C6.93841 16.308 7.13521 15.5748 6.80401 15ZM17.196 9C17.5272 9.5748 18.2616 9.7704 18.8352 9.4392L21.9528 7.6392C22.5264 7.308 22.7244 6.5748 22.392 6C22.0608 5.4252 21.3264 5.2296 20.7528 5.5608L17.6352 7.3608C17.0616 7.692 16.8648 8.4252 17.196 9ZM2.04721 7.6392L5.16481 9.4392C5.73841 9.7704 6.47281 9.5748 6.80401 9C7.13521 8.4252 6.93841 7.692 6.36481 7.3608L3.24721 5.5608C2.67361 5.2296 1.93921 5.4252 1.60801 6C1.27561 6.5748 1.47361 7.308 2.04721 7.6392ZM21.9528 16.3608L18.8352 14.5608C18.2616 14.2296 17.5272 14.4252 17.196 15C16.8648 15.5748 17.0616 16.308 17.6352 16.6392L20.7528 18.4392C21.3264 18.7704 22.0608 18.5748 22.392 18C22.7244 17.4252 22.5264 16.692 21.9528 16.3608ZM9 17.196C8.4252 16.8648 7.692 17.0616 7.3608 17.6352L5.5608 20.7528C5.2296 21.3264 5.4252 22.0608 6 22.392C6.5748 22.7244 7.308 22.5264 7.6392 21.9528L9.4392 18.8352C9.7704 18.2616 9.5748 17.5272 9 17.196ZM15 6.804C15.5748 7.1352 16.308 6.9384 16.6392 6.3648L18.4392 3.2472C18.7704 2.6736 18.5748 1.9392 18 1.608C17.4252 1.2756 16.692 1.4736 16.3608 2.0472L14.5608 5.1648C14.2296 5.7384 14.4252 6.4728 15 6.804Z" fill="url(#paint0_angular)"/>
<defs>
<radialGradient id="paint0_angular" cx="0" cy="0" r="1" gradientUnits="userSpaceOnUse" gradientTransform="translate(12 12) scale(12)">
<stop offset="0.700435" stop-color="#8E8E93" stop-opacity="0.01"/>
<stop offset="0.703211" stop-color="#606067" stop-opacity="0.6"/>
</radialGradient>
</defs>
</svg>
