<svg width="12" height="20" viewBox="0 0 12 20" fill="none" xmlns="http://www.w3.org/2000/svg">
<path fill-rule="evenodd" clip-rule="evenodd" d="M9.33224 9.4375H8.89831V8.17188C8.89831 6.69883 7.66523 5.5 6.1501 5.5C4.63496 5.5 3.40188 6.69883 3.40188 8.17188V9.4375H2.96795C2.48883 9.4375 2.1001 9.81543 2.1001 10.2812V13.6562C2.1001 14.1221 2.48883 14.5 2.96795 14.5H9.33224C9.81137 14.5 10.2001 14.1221 10.2001 13.6562V10.2812C10.2001 9.81543 9.81137 9.4375 9.33224 9.4375ZM7.45196 9.4375H4.84839V8.17188C4.84839 7.47402 5.43238 6.90625 6.15018 6.90625C6.86797 6.90625 7.45196 7.47402 7.45196 8.17188V9.4375Z" fill="#494949"/>
</svg>
