<svg width="24" height="24" viewBox="0 0 24 24" fill="none" xmlns="http://www.w3.org/2000/svg">
<path fill-rule="evenodd" clip-rule="evenodd" d="M18.6642 10.875H17.7964V8.34375C17.7964 5.39766 15.3302 3 12.3 3C9.26968 3 6.80352 5.39766 6.80352 8.34375V10.875H5.93567C4.97741 10.875 4.19995 11.6309 4.19995 12.5625V19.3125C4.19995 20.2441 4.97741 21 5.93567 21H18.6642C19.6225 21 20.4 20.2441 20.4 19.3125V12.5625C20.4 11.6309 19.6225 10.875 18.6642 10.875ZM14.9036 10.875H9.69641V8.34375C9.69641 6.94805 10.8644 5.8125 12.3 5.8125C13.7356 5.8125 14.9036 6.94805 14.9036 8.34375V10.875Z" fill="#494949"/>
</svg>
