<svg width="146" height="56" viewBox="0 0 146 56" fill="none" xmlns="http://www.w3.org/2000/svg">
<path fill-rule="evenodd" clip-rule="evenodd" d="M33.6862 33.3859L40.7847 29.9944L44.1638 37.1189L41.1674 36.0515C40.4938 38.2955 38.924 40.2615 36.6578 41.367C33.5886 42.8649 30.0708 42.379 27.5459 40.4098L27.5384 40.4186L24.201 37.6003L24.203 13.7834C26.8457 13.7834 28.9883 15.9333 28.9883 18.5862V25.7666C29.0187 25.7507 29.0498 25.7355 29.0808 25.7202C33.3364 23.6447 38.4532 25.3799 40.5908 29.5937L36.2744 31.6558C35.282 29.8475 33.0398 29.1192 31.169 30.032C29.873 30.6642 29.084 31.9229 28.9883 33.2682C28.9814 33.3591 28.9782 33.4514 28.9782 33.5436C28.9776 34.1173 29.1037 34.7 29.3705 35.2508C29.5961 35.7164 29.9009 36.1164 30.2621 36.4421C30.328 36.5032 30.3965 36.5604 30.4662 36.6151C31.6006 37.5081 33.1869 37.7307 34.5702 37.0559C35.6628 36.5229 36.3948 35.544 36.6553 34.4436L33.6862 33.3859ZM15.6556 17.2666L15.7416 17.226C16.3945 16.9208 17.0875 16.7659 17.801 16.7659C19.6915 16.7659 21.4289 17.8764 22.2273 19.5952L23.5135 22.7902V34.2517L15.6556 17.2666ZM19.5711 27.4076L23.5768 36.0261V37.0736L11.624 26.9802C13.323 24.9487 16.3415 24.6834 18.3657 26.3887L19.5711 27.4076Z" fill="#3DDB93"/>
<path fill-rule="evenodd" clip-rule="evenodd" d="M77.5625 36.8777H81.3671V19.3665H77.5625V36.8777ZM60.4208 33.0901V29.4828H61.9544C62.6879 29.4828 63.248 29.6357 63.6345 29.941C64.0208 30.2466 64.2139 30.6855 64.2139 31.2569C64.2139 32.4792 63.4919 33.0901 62.0481 33.0901H60.4208ZM61.8137 26.0873H60.4208V23.0086H61.7202C63.172 23.0086 63.8978 23.4906 63.8978 24.4538C63.8978 24.9947 63.7164 25.4018 63.3532 25.6761C62.9903 25.9504 62.4772 26.0873 61.8137 26.0873ZM61.7671 19.4958H55.7964V36.6738H62.4578C64.4712 36.6738 66.0617 36.2254 67.2284 35.3286C68.3951 34.4317 68.9785 33.2037 68.9785 31.6451C68.9785 30.5951 68.7404 29.7414 68.2643 29.0834C67.7882 28.4255 67.0194 27.9554 65.9583 27.6734V27.5561C66.7618 27.36 67.4098 26.9214 67.9014 26.24C68.3932 25.5586 68.639 24.7359 68.639 23.7726C68.639 22.3075 68.0751 21.2288 66.9476 20.5355C65.8196 19.8422 64.0929 19.4958 61.7671 19.4958ZM74.9561 36.8777H71.1514V26.0545H74.9561V36.8777ZM71.0672 21.0648C70.9547 21.3252 70.899 21.6029 70.899 21.8982C70.899 22.1935 70.9547 22.4714 71.0672 22.7316C71.1791 22.992 71.333 23.2204 71.5297 23.4173C71.7257 23.6143 71.9533 23.769 72.213 23.8813C72.472 23.9943 72.7489 24.0502 73.0431 24.0502C73.3374 24.0502 73.6141 23.9943 73.8733 23.8813C74.1327 23.769 74.3603 23.6143 74.5565 23.4173C74.7528 23.2204 74.9067 22.992 75.019 22.7316C75.1311 22.4714 75.1873 22.1935 75.1873 21.8982C75.1873 21.6029 75.1311 21.3252 75.019 21.0648C74.9067 20.8046 74.7528 20.5764 74.5565 20.3792C74.3603 20.1823 74.1327 20.0278 73.8733 19.9151C73.6141 19.8026 73.3374 19.7462 73.0431 19.7462C72.7489 19.7462 72.472 19.8026 72.213 19.9151C71.9533 20.0278 71.7257 20.1823 71.5297 20.3792C71.333 20.5764 71.1791 20.8046 71.0672 21.0648ZM87.7787 36.8777H83.974V19.3665H87.7787V36.8777ZM95.6057 22.6155V19.3665H95.5844H91.8008H91.7795V22.6155H88.7049V25.8012H91.7795V36.8777H91.8008H95.5844H95.6057V25.8012H98.6803V22.6155H95.6057ZM103.727 26.0545H99.9227V36.8776H103.727V32.2361C103.727 31.2234 103.948 30.4534 104.39 29.926C104.831 29.3984 105.493 29.1348 106.376 29.1348C106.965 29.1348 107.511 29.2615 108.016 29.5145V25.8646C107.862 25.8365 107.725 25.8224 107.606 25.8224H107.28C106.495 25.8224 105.809 25.9947 105.22 26.3393C104.631 26.6841 104.134 27.18 103.727 27.8267V26.0545ZM109.718 36.8777H113.523V26.0545H109.718V36.8777ZM109.466 21.8982C109.466 21.6029 109.522 21.3252 109.634 21.0648C109.746 20.8046 109.9 20.5764 110.097 20.3792C110.293 20.1823 110.52 20.0278 110.78 19.9151C111.039 19.8026 111.316 19.7462 111.61 19.7462C111.904 19.7462 112.181 19.8026 112.44 19.9151C112.7 20.0278 112.927 20.1823 113.124 20.3792C113.32 20.5764 113.474 20.8046 113.586 21.0648C113.698 21.3252 113.754 21.6029 113.754 21.8982C113.754 22.1935 113.698 22.4714 113.586 22.7316C113.474 22.992 113.32 23.2204 113.124 23.4173C112.927 23.6143 112.7 23.769 112.44 23.8813C112.181 23.9943 111.904 24.0502 111.61 24.0502C111.316 24.0502 111.039 23.9943 110.78 23.8813C110.52 23.769 110.293 23.6143 110.097 23.4173C109.9 23.2204 109.746 22.992 109.634 22.7316C109.522 22.4714 109.466 22.1935 109.466 21.8982ZM119.934 26.0545H116.13V36.8776H119.934V31.5399C119.934 30.9634 119.98 30.4956 120.071 30.1369C120.162 29.7781 120.288 29.497 120.449 29.293C120.61 29.0892 120.796 28.9523 121.007 28.8815C121.217 28.8115 121.441 28.7761 121.679 28.7761C121.959 28.7761 122.205 28.8151 122.415 28.8922C122.625 28.9696 122.796 29.1136 122.93 29.3247C123.063 29.5356 123.164 29.8204 123.235 30.1791C123.305 30.5378 123.34 30.9913 123.34 31.5399V36.8776H127.145V31.5399C127.145 29.7537 127.754 28.8605 128.973 28.8605C129.198 28.8605 129.408 28.8959 129.604 28.9659C129.8 29.0365 129.972 29.17 130.119 29.3669C130.266 29.5638 130.378 29.8384 130.455 30.1896C130.532 30.5415 130.571 30.9913 130.571 31.5399V36.8776H134.376V29.8521C134.376 29.1348 134.281 28.523 134.092 28.0166C133.903 27.5102 133.647 27.0988 133.325 26.7822C133.002 26.4659 132.617 26.2339 132.169 26.0862C131.72 25.9386 131.244 25.8646 130.739 25.8646C129.155 25.8646 127.936 26.547 127.082 27.9112C126.241 26.5609 125.022 25.8856 123.424 25.8856C122.134 25.8856 120.971 26.3852 119.934 27.3836V26.0545Z" fill="black"/>
</svg>
