<svg width="116" height="44" viewBox="0 0 116 44" fill="none" xmlns="http://www.w3.org/2000/svg">
<path fill-rule="evenodd" clip-rule="evenodd" d="M26.7647 26.2317L32.4046 23.5671L35.0893 29.1648L32.7087 28.3262C32.1735 30.0893 30.9262 31.6341 29.1257 32.5026C26.6871 33.6795 23.8922 33.2978 21.8861 31.7505L21.8801 31.7575L19.2285 29.5431L19.2301 10.8298C21.3297 10.8298 23.0321 12.519 23.0321 14.6034V20.2452C23.0563 20.2327 23.0809 20.2207 23.1055 20.2088L23.1056 20.2087C26.4867 18.578 30.5521 19.9413 32.2505 23.2522L28.8211 24.8724C28.0326 23.4516 26.2511 22.8794 24.7647 23.5966C23.7351 24.0932 23.1082 25.0823 23.0321 26.1393C23.0266 26.2107 23.0241 26.2832 23.0241 26.3557C23.0236 26.8064 23.1238 27.2642 23.3357 27.697C23.515 28.0628 23.7572 28.3772 24.0442 28.6331C24.0966 28.681 24.151 28.726 24.2064 28.769C25.1077 29.4706 26.368 29.6456 27.4671 29.1153C28.3351 28.6966 28.9167 27.9274 29.1237 27.0629L26.7647 26.2317ZM12.439 13.5666L12.5074 13.5347C13.0261 13.2949 13.5767 13.1732 14.1436 13.1732C15.6456 13.1732 17.026 14.0458 17.6603 15.3962L18.6823 17.9066V26.912L12.439 13.5666ZM15.5499 21.5345L18.7326 28.3062V29.1293L9.23584 21.1987C10.5857 19.6025 12.984 19.3941 14.5922 20.734L15.5499 21.5345Z" fill="white"/>
<path fill-rule="evenodd" clip-rule="evenodd" d="M61.6246 28.9756H64.6475V15.2168H61.6246V28.9756ZM48.0052 25.9996V23.1654H49.2237C49.8065 23.1654 50.2515 23.2855 50.5586 23.5254C50.8655 23.7655 51.0189 24.1103 51.0189 24.5593C51.0189 25.5196 50.4453 25.9996 49.2982 25.9996H48.0052ZM49.1119 20.4975H48.0052V18.0785H49.0377C50.1911 18.0785 50.7678 18.4572 50.7678 19.214C50.7678 19.639 50.6236 19.9588 50.3351 20.1744C50.0468 20.3899 49.6391 20.4975 49.1119 20.4975ZM49.0749 15.3184H44.3311V28.8154H49.6237C51.2234 28.8154 52.4871 28.4631 53.414 27.7584C54.341 27.0538 54.8045 26.0889 54.8045 24.8643C54.8045 24.0393 54.6154 23.3685 54.2371 22.8516C53.8588 22.3346 53.248 21.9653 52.4049 21.7436V21.6515C53.0433 21.4975 53.5582 21.1528 53.9488 20.6174C54.3395 20.082 54.5348 19.4356 54.5348 18.6788C54.5348 17.5276 54.0868 16.6801 53.1909 16.1353C52.2947 15.5906 50.9228 15.3184 49.0749 15.3184ZM59.5538 28.9756H56.5309V20.4717H59.5538V28.9756ZM56.4641 16.5512C56.3746 16.7558 56.3304 16.974 56.3304 17.206C56.3304 17.438 56.3746 17.6564 56.4641 17.8608C56.5529 18.0654 56.6752 18.2449 56.8315 18.3996C56.9872 18.5544 57.1681 18.676 57.3744 18.7642C57.5801 18.8529 57.8002 18.8969 58.0339 18.8969C58.2677 18.8969 58.4876 18.8529 58.6935 18.7642C58.8996 18.676 59.0805 18.5544 59.2364 18.3996C59.3923 18.2449 59.5146 18.0654 59.6038 17.8608C59.6929 17.6564 59.7375 17.438 59.7375 17.206C59.7375 16.974 59.6929 16.7558 59.6038 16.5512C59.5146 16.3468 59.3923 16.1675 59.2364 16.0126C59.0805 15.8578 58.8996 15.7364 58.6935 15.6478C58.4876 15.5594 58.2677 15.5152 58.0339 15.5152C57.8002 15.5152 57.5801 15.5594 57.3744 15.6478C57.1681 15.7364 56.9872 15.8578 56.8315 16.0126C56.6752 16.1675 56.5529 16.3468 56.4641 16.5512ZM69.7416 28.9756H66.7187V15.2168H69.7416V28.9756ZM75.9604 17.7696V15.2168H75.9434H72.9373H72.9203V17.7696H70.4775V20.2727H72.9203V28.9756H72.9373H75.9434H75.9604V20.2727H78.4032V17.7696H75.9604ZM82.4132 20.4717H79.3903V28.9756H82.4132V25.3287C82.4132 24.5329 82.5888 23.928 82.9395 23.5136C83.2901 23.099 83.8164 22.8919 84.5177 22.8919C84.9854 22.8919 85.4197 22.9914 85.8205 23.1903V20.3225C85.6979 20.3004 85.5891 20.2893 85.4948 20.2893H85.2359C84.6121 20.2893 84.0667 20.4247 83.5992 20.6954C83.1315 20.9664 82.7362 21.356 82.4132 21.8642V20.4717ZM87.1732 28.9756H90.1961V20.4717H87.1732V28.9756ZM86.9727 17.206C86.9727 16.974 87.0171 16.7558 87.1064 16.5512C87.1952 16.3468 87.3177 16.1675 87.4736 16.0126C87.6295 15.8578 87.8104 15.7364 88.0165 15.6478C88.2225 15.5594 88.4425 15.5152 88.6763 15.5152C88.91 15.5152 89.1297 15.5594 89.3358 15.6478C89.542 15.7364 89.7228 15.8578 89.8787 16.0126C90.0346 16.1675 90.1569 16.3468 90.2461 16.5512C90.3352 16.7558 90.3798 16.974 90.3798 17.206C90.3798 17.438 90.3352 17.6564 90.2461 17.8608C90.1569 18.0654 90.0346 18.2449 89.8787 18.3996C89.7228 18.5544 89.542 18.676 89.3358 18.7642C89.1297 18.8529 88.91 18.8969 88.6763 18.8969C88.4425 18.8969 88.2225 18.8529 88.0165 18.7642C87.8104 18.676 87.6295 18.5544 87.4736 18.3996C87.3177 18.2449 87.1952 18.0654 87.1064 17.8608C87.0171 17.6564 86.9727 17.438 86.9727 17.206ZM95.2899 20.4717H92.267V28.9756H95.2899V24.7816C95.2899 24.3287 95.326 23.9611 95.3985 23.6793C95.4709 23.3974 95.5712 23.1765 95.6992 23.0162C95.8271 22.8561 95.9747 22.7485 96.1418 22.6929C96.3088 22.6379 96.4867 22.6101 96.6762 22.6101C96.8988 22.6101 97.0937 22.6407 97.2608 22.7013C97.4277 22.7621 97.564 22.8753 97.67 23.0411C97.7757 23.2068 97.8563 23.4306 97.9123 23.7124C97.9677 23.9943 97.9955 24.3506 97.9955 24.7816V28.9756H101.019V24.7816C101.019 23.3782 101.503 22.6764 102.472 22.6764C102.65 22.6764 102.817 22.7042 102.973 22.7593C103.129 22.8147 103.265 22.9196 103.382 23.0743C103.499 23.229 103.588 23.4447 103.649 23.7207C103.71 23.9972 103.741 24.3506 103.741 24.7816V28.9756H106.764V23.4555C106.764 22.8919 106.689 22.4112 106.539 22.0133C106.388 21.6155 106.185 21.2922 105.929 21.0435C105.673 20.795 105.367 20.6126 105.01 20.4966C104.654 20.3806 104.275 20.3225 103.875 20.3225C102.616 20.3225 101.648 20.8586 100.969 21.9305C100.301 20.8696 99.3319 20.339 98.0626 20.339C97.0379 20.339 96.1138 20.7315 95.2899 21.516V20.4717Z" fill="white"/>
</svg>
