<svg width="160" height="160" viewBox="0 0 160 160" fill="none" xmlns="http://www.w3.org/2000/svg">
<g clip-path="url(#clip0)">
<path d="M79.9991 130C78.9143 130 77.913 129.583 76.9952 129.083C58.9715 119.75 45.0366 108.917 34.4393 96.0833C25.0103 84.5 20.2541 72.5833 20.0037 59.6667C19.7534 43.1667 32.1029 29.75 48.2908 29.0833C48.7915 29.0833 49.2087 29.0833 49.7094 29.0833C65.2297 29.0833 78.0799 40.9167 79.5819 56.6667C79.7488 58 79.9156 58.75 80.0825 58.9167C80.3329 58.6667 80.4163 57.3333 80.4997 56.8333V56.5C81.8348 42.8333 92.1817 31.4167 104.615 29.9167C106.701 29.3333 108.954 29 111.123 29C126.226 29 139.744 42.5833 139.994 58.0833C140.161 69.6667 136.573 80.8333 129.147 91.1667C118.132 106.667 102.862 119.083 82.5024 129.167C81.7514 129.667 80.917 130 79.9991 130Z" fill="white"/>
<path d="M110.996 30.4859C124.957 30.4859 138.252 42.9155 138.502 58.1625C138.751 70.0949 134.845 80.7844 127.948 90.3138C116.065 106.969 100.027 118.736 81.8286 127.685C81.2469 128.183 80.6652 128.348 80.0004 128.348C79.2525 128.348 78.4215 128.017 77.5906 127.603C61.6357 119.316 47.1766 109.041 35.6259 95.1199C27.1499 84.8447 21.7485 73.2438 21.4992 59.6541C21.2499 43.9928 33.133 31.2317 48.4231 30.5688C48.8385 30.5688 49.3371 30.5688 49.7526 30.5688C64.7103 30.4859 76.8427 41.6726 78.2554 56.8367C78.4216 58.1625 78.5877 60.2341 80.0004 60.2341C81.4131 60.2341 81.4962 58.0796 81.6624 56.671C82.992 43.6613 92.7976 32.7232 104.764 31.3146C106.841 30.7345 108.919 30.4859 110.996 30.4859ZM110.996 28C108.752 28 106.426 28.3315 104.265 28.9115C92.7145 30.4031 82.9089 39.9324 80.0004 51.9477C78.5046 45.8158 75.3469 40.3467 70.7765 36.2035C65.1258 30.9002 57.647 28 49.7526 28C49.254 28 48.7554 28 48.34 28C31.6372 28.8286 18.6739 42.7498 19.0063 59.7369C19.2555 72.9123 24.0752 85.0105 33.7147 96.7771C44.3512 109.704 58.3118 120.559 76.4272 129.923C77.5075 130.503 78.5877 131 80.0004 131C81.1638 131 82.161 130.669 83.1581 129.923C103.6 119.813 118.89 107.384 129.943 91.8053C137.504 81.2816 141.161 69.9292 140.995 58.1625C140.828 50.2076 137.504 42.6669 131.688 36.8665C125.954 31.2317 118.392 28 110.996 28Z" fill="#494949"/>
<path d="M51 39.5235C50.8343 40.9072 49.8403 41.1514 48.6805 41.3142C40.6452 42.0467 35.4264 46.442 32.4442 53.5233C31.9472 54.7442 31.2017 55.3139 29.9591 54.8256C28.6337 54.2558 28.965 53.1163 29.2964 52.0582C31.2845 45.2211 40.3139 38.2212 47.6036 38.0584C48.929 37.977 50.4201 37.7328 51 39.5235Z" fill="#1BD27F"/>
<path d="M15.0825 132.723C18.8029 132.116 24.1501 134.013 23.8209 139.843C23.6014 143.729 25.7543 145.655 30.2796 145.62" stroke="#ECECEC" stroke-width="2"/>
<path d="M157.2 90.8303C156.183 97.5861 153.164 104.342 150.007 97.5861C147.902 93.0822 146.033 94.5636 144.4 102.03" stroke="#ECECEC" stroke-width="2"/>
<path d="M76.3677 11.6372C77.3258 7.99135 81.2341 3.87821 86.4257 6.55006C89.8868 8.33129 92.5217 7.14778 94.3305 2.99953" stroke="#ECECEC" stroke-width="2"/>
<path fill-rule="evenodd" clip-rule="evenodd" d="M138.826 26.4769L138.226 24.8501C136.086 19.0865 134.673 15.2839 136.212 12.317C137.467 9.89947 140.353 8.98589 142.77 10.2407C144.136 10.9495 145.117 12.2657 145.451 13.7144C146.828 13.1538 148.468 13.1983 149.834 13.9072C152.252 15.162 153.165 18.0473 151.911 20.4648C150.371 23.4318 146.447 24.4641 140.498 26.0394L138.826 26.4769Z" fill="#ECECEC"/>
<path fill-rule="evenodd" clip-rule="evenodd" d="M19.4903 22.8972L17.5884 22.4201C10.842 20.7416 6.38954 19.6362 4.60156 16.3058C3.14469 13.5921 4.13216 10.3153 6.84581 8.8584C8.37885 8.03536 10.2334 7.95909 11.7992 8.57126C12.1541 6.92793 13.2423 5.42434 14.7753 4.6013C17.489 3.14443 20.7658 4.1319 22.2227 6.84555C24.0107 10.1759 22.472 14.4978 20.1482 21.0572L19.4903 22.8972Z" fill="#ECECEC"/>
<path fill-rule="evenodd" clip-rule="evenodd" d="M122.596 152.736L121.824 151.472C119.075 146.993 117.26 144.038 118.045 141.263C118.684 139.001 120.932 137.718 123.155 138.346C124.411 138.701 125.448 139.636 125.969 140.798C127.022 140.081 128.395 139.827 129.651 140.182C131.874 140.81 133.118 143.08 132.479 145.341C131.695 148.117 128.602 149.685 123.915 152.07L122.596 152.736Z" fill="#ECECEC"/>
<path fill-rule="evenodd" clip-rule="evenodd" d="M9.70167 91.3758L10.2613 92.2646C12.2517 95.4117 13.5661 97.4878 13.0372 99.4618C12.6062 101.07 11.0253 102.001 9.44411 101.577C8.55087 101.338 7.80691 100.685 7.42645 99.867C6.68779 100.386 5.71714 100.579 4.8239 100.339C3.24276 99.9158 2.33906 98.3191 2.77004 96.7107C3.29896 94.7367 5.47535 93.596 8.774 91.8604L9.70167 91.3758Z" fill="#ECECEC"/>
<path fill-rule="evenodd" clip-rule="evenodd" d="M45.0724 156.56L45.3257 155.54C46.2168 151.925 46.8036 149.539 48.5937 148.553C50.0522 147.749 51.8187 148.245 52.6084 149.679C53.0546 150.489 53.0992 151.477 52.7725 152.319C53.6581 152.492 54.4699 153.058 54.916 153.868C55.7057 155.302 55.1802 157.06 53.7216 157.863C51.9316 158.849 49.6013 158.07 46.0645 156.893L45.0724 156.56Z" fill="#ECECEC"/>
</g>
<defs>
<clipPath id="clip0">
<rect width="160" height="160" fill="white"/>
</clipPath>
</defs>
</svg>
