<svg width="60" height="60" viewBox="0 0 60 60" fill="none" xmlns="http://www.w3.org/2000/svg">
<rect width="60" height="60" rx="30" fill="#F7F7F7"/>
<g clip-path="url(#clip0)">
<path d="M19.7067 20.1683C19.5638 19.998 19.586 19.7442 19.7563 19.6013L21.4666 18.1661C21.6369 18.0233 21.8908 18.0455 22.0336 18.2157L44.6463 45.1645C44.7892 45.3348 44.767 45.5886 44.5967 45.7315L42.8864 47.1666C42.7161 47.3095 42.4622 47.2873 42.3194 47.117L19.7067 20.1683Z" fill="white"/>
<path fill-rule="evenodd" clip-rule="evenodd" d="M19.4369 20.3946C19.1691 20.0754 19.2107 19.5994 19.53 19.3315L21.2403 17.8964C21.5596 17.6285 22.0355 17.6701 22.3034 17.9894L44.9161 44.9381C45.184 45.2574 45.1423 45.7333 44.8231 46.0012L43.1127 47.4364C42.7935 47.7043 42.3175 47.6626 42.0496 47.3434L19.4369 20.3946ZM19.9827 19.871C19.9614 19.8889 19.9586 19.9206 19.9765 19.9419L42.5891 46.8907C42.607 46.912 42.6387 46.9147 42.66 46.8969L44.3704 45.4617C44.3917 45.4439 44.3944 45.4121 44.3766 45.3908L21.7639 18.4421C21.746 18.4208 21.7143 18.418 21.693 18.4359L19.9827 19.871Z" fill="#494949"/>
<path d="M19.7067 20.1683C19.5638 19.998 19.586 19.7442 19.7563 19.6013L21.4667 18.1661C21.6369 18.0233 21.8908 18.0455 22.0336 18.2157L26.3225 23.327C26.4654 23.4973 26.4432 23.7511 26.2729 23.894L24.5625 25.3292C24.3923 25.472 24.1384 25.4498 23.9956 25.2796L19.7067 20.1683Z" fill="#797979"/>
<path fill-rule="evenodd" clip-rule="evenodd" d="M19.4369 20.3946C19.1691 20.0754 19.2107 19.5994 19.53 19.3315L21.2403 17.8964C21.5596 17.6285 22.0355 17.6701 22.3034 17.9894L26.5923 23.1007C26.8602 23.4199 26.8185 23.8959 26.4993 24.1637L24.7889 25.5989C24.4697 25.8668 23.9937 25.8251 23.7258 25.5059L19.4369 20.3946ZM19.9827 19.871C19.9614 19.8889 19.9586 19.9206 19.9765 19.9419L24.2653 25.0532C24.2832 25.0745 24.3149 25.0773 24.3362 25.0594L26.0466 23.6242C26.0678 23.6064 26.0706 23.5746 26.0528 23.5534L21.7639 18.4421C21.746 18.4208 21.7143 18.418 21.693 18.4359L19.9827 19.871Z" fill="#494949"/>
<path fill-rule="evenodd" clip-rule="evenodd" d="M15.6852 13.0129C15.9619 12.7807 16.3744 12.8168 16.6065 13.0935L18.7844 15.6889C19.0165 15.9656 18.9804 16.3781 18.7037 16.6103C18.4271 16.8424 18.0146 16.8063 17.7824 16.5297L15.6046 13.9342C15.3724 13.6575 15.4085 13.245 15.6852 13.0129Z" fill="#494949"/>
<path fill-rule="evenodd" clip-rule="evenodd" d="M14.4544 26.0132C14.2286 25.7313 14.2742 25.3197 14.5561 25.0939L17.9248 22.3964C18.2067 22.1707 18.6183 22.2162 18.844 22.4981C19.0698 22.78 19.0243 23.1916 18.7423 23.4174L15.3736 26.1149C15.0917 26.3407 14.6801 26.2951 14.4544 26.0132Z" fill="#494949"/>
<path fill-rule="evenodd" clip-rule="evenodd" d="M29.1564 13.8732C29.3805 14.1564 29.3327 14.5677 29.0495 14.7919L25.842 17.3308C25.5588 17.555 25.1475 17.5071 24.9233 17.2239C24.6991 16.9407 24.747 16.5294 25.0302 16.3053L28.2377 13.7663C28.5209 13.5422 28.9322 13.59 29.1564 13.8732Z" fill="#494949"/>
<path fill-rule="evenodd" clip-rule="evenodd" d="M11.5432 19.3233C11.5747 18.9635 11.8919 18.6973 12.2517 18.7288L16.1554 19.0703C16.5152 19.1018 16.7814 19.419 16.7499 19.7788C16.7184 20.1386 16.4012 20.4048 16.0414 20.3733L12.1377 20.0317C11.7779 20.0003 11.5117 19.6831 11.5432 19.3233Z" fill="#494949"/>
<path fill-rule="evenodd" clip-rule="evenodd" d="M22.6212 10.0278C22.981 10.0593 23.2472 10.3765 23.2157 10.7363L22.8742 14.64C22.8427 14.9998 22.5255 15.266 22.1657 15.2345C21.8059 15.203 21.5397 14.8858 21.5712 14.526L21.9127 10.6223C21.9442 10.2625 22.2614 9.99633 22.6212 10.0278Z" fill="#494949"/>
</g>
<defs>
<clipPath id="clip0">
<rect width="44" height="44" fill="white" transform="translate(8 8)"/>
</clipPath>
</defs>
</svg>
