<svg width="40" height="40" viewBox="0 0 40 40" fill="none" xmlns="http://www.w3.org/2000/svg">
<path d="M0 10C0 4.47715 4.47715 0 10 0H30C35.5228 0 40 4.47715 40 10V30C40 35.5228 35.5228 40 30 40H10C4.47715 40 0 35.5228 0 30V10Z" fill="url(#paint0_linear)"/>
<path d="M8.76405 11.375C8.5533 11.375 8.35475 11.4113 8.16683 11.4861L11.9307 15.3611L15.7363 19.3055L15.8057 19.3889L15.9168 19.5L16.028 19.6111L16.2502 19.8472L19.5141 23.1944C19.5684 23.2282 19.7259 23.3741 19.8489 23.4356C20.0074 23.5148 20.1792 23.5878 20.3563 23.5941C20.5473 23.601 20.7426 23.5462 20.9146 23.4626C21.0433 23.3999 21.1006 23.3102 21.2502 23.1944L25.028 19.2916L28.8474 15.3611L32.528 11.5694C32.2917 11.4414 32.03 11.375 31.7502 11.375H8.76405ZM7.61127 11.8472C7.20989 12.2275 6.9585 12.7993 6.9585 13.4444V26.1666C6.9585 26.689 7.12627 27.1636 7.40294 27.5278L7.93072 27.0278L11.8613 23.2083L15.3474 19.8333L15.278 19.75L11.4585 15.8194L7.63905 11.875L7.61127 11.8472ZM33.028 11.9722L29.3058 15.8194L25.5002 19.75L25.4307 19.8194L29.0558 23.3333L32.9863 27.1528L33.2224 27.375C33.4341 27.0354 33.5558 26.6171 33.5558 26.1666V13.4444C33.5558 12.8692 33.3564 12.3475 33.028 11.9722ZM15.7918 20.2916L12.3196 23.6666L8.37516 27.4861L7.87516 27.9722C8.13876 28.142 8.43874 28.25 8.76405 28.25H31.7502C32.1413 28.25 32.496 28.0995 32.7919 27.8611L32.5419 27.6111L28.5974 23.7916L24.9724 20.2916L21.7085 23.6528C21.5319 23.7699 21.4138 23.8998 21.2413 23.9795C20.9637 24.1079 20.6595 24.2165 20.3537 24.2118C20.047 24.2071 19.7464 24.0871 19.4712 23.9517C19.3331 23.8838 19.2594 23.8163 19.0974 23.6805L15.7918 20.2916Z" fill="white"/>
<defs>
<linearGradient id="paint0_linear" x1="20.2801" y1="39.8394" x2="20.319" y2="0.482894" gradientUnits="userSpaceOnUse">
<stop stop-color="#70EFFF"/>
<stop offset="1" stop-color="#5770FF"/>
</linearGradient>
</defs>
</svg>
