<svg width="140" height="140" viewBox="0 0 140 140" fill="none" xmlns="http://www.w3.org/2000/svg">
<rect width="140" height="140" rx="68" fill="#F7F7F7"/>
<path d="M14.5958 76.826C15.0398 76.826 15.4398 76.9 15.7958 77.048C16.1558 77.196 16.4598 77.406 16.7078 77.678C16.9598 77.95 17.1518 78.28 17.2838 78.668C17.4198 79.052 17.4878 79.482 17.4878 79.958C17.4878 80.438 17.4198 80.87 17.2838 81.254C17.1518 81.638 16.9598 81.966 16.7078 82.238C16.4598 82.51 16.1558 82.72 15.7958 82.868C15.4398 83.012 15.0398 83.084 14.5958 83.084C14.1518 83.084 13.7498 83.012 13.3898 82.868C13.0338 82.72 12.7298 82.51 12.4778 82.238C12.2258 81.966 12.0318 81.638 11.8958 81.254C11.7598 80.87 11.6918 80.438 11.6918 79.958C11.6918 79.482 11.7598 79.052 11.8958 78.668C12.0318 78.28 12.2258 77.95 12.4778 77.678C12.7298 77.406 13.0338 77.196 13.3898 77.048C13.7498 76.9 14.1518 76.826 14.5958 76.826ZM14.5958 82.25C15.1958 82.25 15.6438 82.05 15.9398 81.65C16.2358 81.246 16.3838 80.684 16.3838 79.964C16.3838 79.24 16.2358 78.676 15.9398 78.272C15.6438 77.868 15.1958 77.666 14.5958 77.666C14.2918 77.666 14.0278 77.718 13.8038 77.822C13.5798 77.926 13.3918 78.076 13.2398 78.272C13.0918 78.468 12.9798 78.71 12.9038 78.998C12.8318 79.282 12.7958 79.604 12.7958 79.964C12.7958 80.324 12.8318 80.646 12.9038 80.93C12.9798 81.214 13.0918 81.454 13.2398 81.65C13.3918 81.842 13.5798 81.99 13.8038 82.094C14.0278 82.198 14.2918 82.25 14.5958 82.25ZM19.0437 83V77.834L18.3717 77.756C18.2877 77.736 18.2177 77.706 18.1617 77.666C18.1097 77.622 18.0837 77.56 18.0837 77.48V77.042H19.0437V76.454C19.0437 76.106 19.0917 75.798 19.1877 75.53C19.2877 75.258 19.4277 75.03 19.6077 74.846C19.7917 74.658 20.0117 74.516 20.2677 74.42C20.5237 74.324 20.8117 74.276 21.1317 74.276C21.4037 74.276 21.6557 74.316 21.8877 74.396L21.8637 74.93C21.8597 75.01 21.8257 75.058 21.7617 75.074C21.6977 75.09 21.6077 75.098 21.4917 75.098H21.3057C21.1217 75.098 20.9537 75.122 20.8017 75.17C20.6537 75.218 20.5257 75.296 20.4177 75.404C20.3097 75.512 20.2257 75.654 20.1657 75.83C20.1097 76.006 20.0817 76.224 20.0817 76.484V77.042H21.8397V77.816H20.1177V83H19.0437ZM25.167 83V76.922H25.803C25.955 76.922 26.051 76.996 26.091 77.144L26.175 77.804C26.439 77.512 26.733 77.276 27.057 77.096C27.385 76.916 27.763 76.826 28.191 76.826C28.523 76.826 28.815 76.882 29.067 76.994C29.323 77.102 29.535 77.258 29.703 77.462C29.875 77.662 30.005 77.904 30.093 78.188C30.181 78.472 30.225 78.786 30.225 79.13V83H29.157V79.13C29.157 78.67 29.051 78.314 28.839 78.062C28.631 77.806 28.311 77.678 27.879 77.678C27.563 77.678 27.267 77.754 26.991 77.906C26.719 78.058 26.467 78.264 26.235 78.524V83H25.167ZM34.241 76.826C34.605 76.826 34.941 76.888 35.249 77.012C35.557 77.132 35.823 77.308 36.047 77.54C36.271 77.768 36.445 78.052 36.569 78.392C36.697 78.728 36.761 79.112 36.761 79.544C36.761 79.712 36.743 79.824 36.707 79.88C36.671 79.936 36.603 79.964 36.503 79.964H32.459C32.467 80.348 32.519 80.682 32.615 80.966C32.711 81.25 32.843 81.488 33.011 81.68C33.179 81.868 33.379 82.01 33.611 82.106C33.843 82.198 34.103 82.244 34.391 82.244C34.659 82.244 34.889 82.214 35.081 82.154C35.277 82.09 35.445 82.022 35.585 81.95C35.725 81.878 35.841 81.812 35.933 81.752C36.029 81.688 36.111 81.656 36.179 81.656C36.267 81.656 36.335 81.69 36.383 81.758L36.683 82.148C36.551 82.308 36.393 82.448 36.209 82.568C36.025 82.684 35.827 82.78 35.615 82.856C35.407 82.932 35.191 82.988 34.967 83.024C34.743 83.064 34.521 83.084 34.301 83.084C33.881 83.084 33.493 83.014 33.137 82.874C32.785 82.73 32.479 82.522 32.219 82.25C31.963 81.974 31.763 81.634 31.619 81.23C31.475 80.826 31.403 80.362 31.403 79.838C31.403 79.414 31.467 79.018 31.595 78.65C31.727 78.282 31.915 77.964 32.159 77.696C32.403 77.424 32.701 77.212 33.053 77.06C33.405 76.904 33.801 76.826 34.241 76.826ZM34.265 77.612C33.749 77.612 33.343 77.762 33.047 78.062C32.751 78.358 32.567 78.77 32.495 79.298H35.801C35.801 79.05 35.767 78.824 35.699 78.62C35.631 78.412 35.531 78.234 35.399 78.086C35.267 77.934 35.105 77.818 34.913 77.738C34.725 77.654 34.509 77.612 34.265 77.612ZM37.336 76.922H38.176C38.264 76.922 38.336 76.944 38.392 76.988C38.448 77.032 38.486 77.084 38.506 77.144L39.67 81.056C39.702 81.2 39.732 81.34 39.76 81.476C39.788 81.608 39.812 81.742 39.832 81.878C39.864 81.742 39.9 81.608 39.94 81.476C39.98 81.34 40.022 81.2 40.066 81.056L41.35 77.12C41.37 77.06 41.404 77.01 41.452 76.97C41.504 76.93 41.568 76.91 41.644 76.91H42.106C42.186 76.91 42.252 76.93 42.304 76.97C42.356 77.01 42.392 77.06 42.412 77.12L43.666 81.056C43.71 81.196 43.748 81.334 43.78 81.47C43.816 81.606 43.85 81.74 43.882 81.872C43.902 81.74 43.928 81.602 43.96 81.458C43.992 81.314 44.026 81.18 44.062 81.056L45.25 77.144C45.27 77.08 45.308 77.028 45.364 76.988C45.42 76.944 45.486 76.922 45.562 76.922H46.366L44.398 83H43.552C43.448 83 43.376 82.932 43.336 82.796L41.992 78.674C41.96 78.582 41.934 78.49 41.914 78.398C41.894 78.302 41.874 78.208 41.854 78.116C41.834 78.208 41.814 78.302 41.794 78.398C41.774 78.494 41.748 78.588 41.716 78.68L40.354 82.796C40.31 82.932 40.228 83 40.108 83H39.304L37.336 76.922ZM49.6358 83V76.922H50.2718C50.4238 76.922 50.5198 76.996 50.5598 77.144L50.6378 77.768C50.8618 77.492 51.1118 77.266 51.3878 77.09C51.6678 76.914 51.9918 76.826 52.3598 76.826C52.7718 76.826 53.1038 76.94 53.3558 77.168C53.6118 77.396 53.7958 77.704 53.9078 78.092C53.9918 77.872 54.1018 77.682 54.2378 77.522C54.3778 77.362 54.5338 77.23 54.7058 77.126C54.8778 77.022 55.0598 76.946 55.2518 76.898C55.4478 76.85 55.6458 76.826 55.8458 76.826C56.1658 76.826 56.4498 76.878 56.6978 76.982C56.9498 77.082 57.1618 77.23 57.3338 77.426C57.5098 77.622 57.6438 77.864 57.7358 78.152C57.8278 78.436 57.8738 78.762 57.8738 79.13V83H56.8058V79.13C56.8058 78.654 56.7018 78.294 56.4938 78.05C56.2858 77.802 55.9838 77.678 55.5878 77.678C55.4118 77.678 55.2438 77.71 55.0838 77.774C54.9278 77.834 54.7898 77.924 54.6698 78.044C54.5498 78.164 54.4538 78.316 54.3818 78.5C54.3138 78.68 54.2798 78.89 54.2798 79.13V83H53.2118V79.13C53.2118 78.642 53.1138 78.278 52.9178 78.038C52.7218 77.798 52.4358 77.678 52.0598 77.678C51.7958 77.678 51.5498 77.75 51.3218 77.894C51.0978 78.034 50.8918 78.226 50.7038 78.47V83H49.6358ZM61.8972 76.826C62.2612 76.826 62.5972 76.888 62.9052 77.012C63.2132 77.132 63.4792 77.308 63.7032 77.54C63.9272 77.768 64.1012 78.052 64.2252 78.392C64.3532 78.728 64.4172 79.112 64.4172 79.544C64.4172 79.712 64.3992 79.824 64.3632 79.88C64.3272 79.936 64.2592 79.964 64.1592 79.964H60.1152C60.1232 80.348 60.1752 80.682 60.2712 80.966C60.3672 81.25 60.4992 81.488 60.6672 81.68C60.8352 81.868 61.0352 82.01 61.2672 82.106C61.4992 82.198 61.7592 82.244 62.0472 82.244C62.3152 82.244 62.5452 82.214 62.7372 82.154C62.9332 82.09 63.1012 82.022 63.2412 81.95C63.3812 81.878 63.4972 81.812 63.5892 81.752C63.6852 81.688 63.7672 81.656 63.8352 81.656C63.9232 81.656 63.9912 81.69 64.0392 81.758L64.3392 82.148C64.2072 82.308 64.0492 82.448 63.8652 82.568C63.6812 82.684 63.4832 82.78 63.2712 82.856C63.0632 82.932 62.8472 82.988 62.6232 83.024C62.3992 83.064 62.1772 83.084 61.9572 83.084C61.5372 83.084 61.1492 83.014 60.7932 82.874C60.4412 82.73 60.1352 82.522 59.8752 82.25C59.6192 81.974 59.4192 81.634 59.2752 81.23C59.1312 80.826 59.0592 80.362 59.0592 79.838C59.0592 79.414 59.1232 79.018 59.2512 78.65C59.3832 78.282 59.5712 77.964 59.8152 77.696C60.0592 77.424 60.3572 77.212 60.7092 77.06C61.0612 76.904 61.4572 76.826 61.8972 76.826ZM61.9212 77.612C61.4052 77.612 60.9992 77.762 60.7032 78.062C60.4072 78.358 60.2232 78.77 60.1512 79.298H63.4572C63.4572 79.05 63.4232 78.824 63.3552 78.62C63.2872 78.412 63.1872 78.234 63.0552 78.086C62.9232 77.934 62.7612 77.818 62.5692 77.738C62.3812 77.654 62.1652 77.612 61.9212 77.612ZM65.7842 83V76.922H66.4202C66.5722 76.922 66.6682 76.996 66.7082 77.144L66.7862 77.768C67.0102 77.492 67.2602 77.266 67.5362 77.09C67.8162 76.914 68.1402 76.826 68.5082 76.826C68.9202 76.826 69.2522 76.94 69.5042 77.168C69.7602 77.396 69.9442 77.704 70.0562 78.092C70.1402 77.872 70.2502 77.682 70.3862 77.522C70.5262 77.362 70.6822 77.23 70.8542 77.126C71.0262 77.022 71.2082 76.946 71.4002 76.898C71.5962 76.85 71.7942 76.826 71.9942 76.826C72.3142 76.826 72.5982 76.878 72.8462 76.982C73.0982 77.082 73.3102 77.23 73.4822 77.426C73.6582 77.622 73.7922 77.864 73.8842 78.152C73.9762 78.436 74.0222 78.762 74.0222 79.13V83H72.9542V79.13C72.9542 78.654 72.8502 78.294 72.6422 78.05C72.4342 77.802 72.1322 77.678 71.7362 77.678C71.5602 77.678 71.3922 77.71 71.2322 77.774C71.0762 77.834 70.9382 77.924 70.8182 78.044C70.6982 78.164 70.6022 78.316 70.5302 78.5C70.4622 78.68 70.4282 78.89 70.4282 79.13V83H69.3602V79.13C69.3602 78.642 69.2622 78.278 69.0662 78.038C68.8702 77.798 68.5842 77.678 68.2082 77.678C67.9442 77.678 67.6982 77.75 67.4702 77.894C67.2462 78.034 67.0402 78.226 66.8522 78.47V83H65.7842ZM75.6757 83V74.162H76.7497V77.798C77.0017 77.506 77.2897 77.272 77.6137 77.096C77.9417 76.916 78.3157 76.826 78.7357 76.826C79.0877 76.826 79.4057 76.892 79.6897 77.024C79.9737 77.156 80.2157 77.354 80.4157 77.618C80.6157 77.878 80.7697 78.202 80.8777 78.59C80.9857 78.974 81.0397 79.418 81.0397 79.922C81.0397 80.37 80.9797 80.788 80.8597 81.176C80.7397 81.56 80.5657 81.894 80.3377 82.178C80.1137 82.458 79.8377 82.68 79.5097 82.844C79.1857 83.004 78.8197 83.084 78.4117 83.084C78.0197 83.084 77.6857 83.008 77.4097 82.856C77.1377 82.704 76.8997 82.492 76.6957 82.22L76.6417 82.772C76.6097 82.924 76.5177 83 76.3657 83H75.6757ZM78.3877 77.678C78.0397 77.678 77.7337 77.758 77.4697 77.918C77.2097 78.078 76.9697 78.304 76.7497 78.596V81.536C76.9417 81.8 77.1537 81.986 77.3857 82.094C77.6217 82.202 77.8837 82.256 78.1717 82.256C78.7397 82.256 79.1757 82.054 79.4797 81.65C79.7837 81.246 79.9357 80.67 79.9357 79.922C79.9357 79.526 79.8997 79.186 79.8277 78.902C79.7597 78.618 79.6597 78.386 79.5277 78.206C79.3957 78.022 79.2337 77.888 79.0417 77.804C78.8497 77.72 78.6317 77.678 78.3877 77.678ZM84.7488 76.826C85.1128 76.826 85.4488 76.888 85.7568 77.012C86.0648 77.132 86.3308 77.308 86.5548 77.54C86.7788 77.768 86.9528 78.052 87.0768 78.392C87.2048 78.728 87.2688 79.112 87.2688 79.544C87.2688 79.712 87.2508 79.824 87.2148 79.88C87.1788 79.936 87.1108 79.964 87.0108 79.964H82.9668C82.9748 80.348 83.0268 80.682 83.1228 80.966C83.2188 81.25 83.3508 81.488 83.5188 81.68C83.6868 81.868 83.8868 82.01 84.1188 82.106C84.3508 82.198 84.6108 82.244 84.8988 82.244C85.1668 82.244 85.3968 82.214 85.5888 82.154C85.7848 82.09 85.9528 82.022 86.0928 81.95C86.2328 81.878 86.3488 81.812 86.4408 81.752C86.5368 81.688 86.6188 81.656 86.6868 81.656C86.7748 81.656 86.8428 81.69 86.8908 81.758L87.1908 82.148C87.0588 82.308 86.9008 82.448 86.7168 82.568C86.5328 82.684 86.3348 82.78 86.1228 82.856C85.9148 82.932 85.6988 82.988 85.4748 83.024C85.2508 83.064 85.0288 83.084 84.8088 83.084C84.3888 83.084 84.0008 83.014 83.6448 82.874C83.2928 82.73 82.9868 82.522 82.7268 82.25C82.4708 81.974 82.2708 81.634 82.1268 81.23C81.9828 80.826 81.9108 80.362 81.9108 79.838C81.9108 79.414 81.9748 79.018 82.1028 78.65C82.2348 78.282 82.4228 77.964 82.6668 77.696C82.9108 77.424 83.2088 77.212 83.5608 77.06C83.9128 76.904 84.3088 76.826 84.7488 76.826ZM84.7728 77.612C84.2568 77.612 83.8508 77.762 83.5548 78.062C83.2588 78.358 83.0748 78.77 83.0028 79.298H86.3088C86.3088 79.05 86.2748 78.824 86.2068 78.62C86.1388 78.412 86.0388 78.234 85.9068 78.086C85.7748 77.934 85.6128 77.818 85.4208 77.738C85.2328 77.654 85.0168 77.612 84.7728 77.612ZM88.6358 83V76.922H89.2478C89.3638 76.922 89.4438 76.944 89.4878 76.988C89.5318 77.032 89.5618 77.108 89.5778 77.216L89.6498 78.164C89.8578 77.74 90.1138 77.41 90.4178 77.174C90.7258 76.934 91.0858 76.814 91.4978 76.814C91.6658 76.814 91.8178 76.834 91.9538 76.874C92.0898 76.91 92.2158 76.962 92.3318 77.03L92.1938 77.828C92.1658 77.928 92.1038 77.978 92.0078 77.978C91.9518 77.978 91.8658 77.96 91.7498 77.924C91.6338 77.884 91.4718 77.864 91.2638 77.864C90.8918 77.864 90.5798 77.972 90.3278 78.188C90.0798 78.404 89.8718 78.718 89.7038 79.13V83H88.6358ZM96.9556 77.924C96.9076 78.012 96.8336 78.056 96.7336 78.056C96.6736 78.056 96.6056 78.034 96.5296 77.99C96.4536 77.946 96.3596 77.898 96.2476 77.846C96.1396 77.79 96.0096 77.74 95.8576 77.696C95.7056 77.648 95.5256 77.624 95.3176 77.624C95.1376 77.624 94.9756 77.648 94.8316 77.696C94.6876 77.74 94.5636 77.802 94.4596 77.882C94.3596 77.962 94.2816 78.056 94.2256 78.164C94.1736 78.268 94.1476 78.382 94.1476 78.506C94.1476 78.662 94.1916 78.792 94.2796 78.896C94.3716 79 94.4916 79.09 94.6396 79.166C94.7876 79.242 94.9556 79.31 95.1436 79.37C95.3316 79.426 95.5236 79.488 95.7196 79.556C95.9196 79.62 96.1136 79.692 96.3016 79.772C96.4896 79.852 96.6576 79.952 96.8056 80.072C96.9536 80.192 97.0716 80.34 97.1596 80.516C97.2516 80.688 97.2976 80.896 97.2976 81.14C97.2976 81.42 97.2476 81.68 97.1476 81.92C97.0476 82.156 96.8996 82.362 96.7036 82.538C96.5076 82.71 96.2676 82.846 95.9836 82.946C95.6996 83.046 95.3716 83.096 94.9996 83.096C94.5756 83.096 94.1916 83.028 93.8476 82.892C93.5036 82.752 93.2116 82.574 92.9716 82.358L93.2236 81.95C93.2556 81.898 93.2936 81.858 93.3376 81.83C93.3816 81.802 93.4396 81.788 93.5116 81.788C93.5836 81.788 93.6596 81.816 93.7396 81.872C93.8196 81.928 93.9156 81.99 94.0276 82.058C94.1436 82.126 94.2816 82.188 94.4416 82.244C94.6056 82.3 94.8096 82.328 95.0536 82.328C95.2616 82.328 95.4436 82.302 95.5996 82.25C95.7556 82.194 95.8856 82.12 95.9896 82.028C96.0936 81.936 96.1696 81.83 96.2176 81.71C96.2696 81.59 96.2956 81.462 96.2956 81.326C96.2956 81.158 96.2496 81.02 96.1576 80.912C96.0696 80.8 95.9516 80.706 95.8036 80.63C95.6556 80.55 95.4856 80.482 95.2936 80.426C95.1056 80.366 94.9116 80.304 94.7116 80.24C94.5156 80.176 94.3216 80.104 94.1296 80.024C93.9416 79.94 93.7736 79.836 93.6256 79.712C93.4776 79.588 93.3576 79.436 93.2656 79.256C93.1776 79.072 93.1336 78.85 93.1336 78.59C93.1336 78.358 93.1816 78.136 93.2776 77.924C93.3736 77.708 93.5136 77.52 93.6976 77.36C93.8816 77.196 94.1076 77.066 94.3756 76.97C94.6436 76.874 94.9496 76.826 95.2936 76.826C95.6936 76.826 96.0516 76.89 96.3676 77.018C96.6876 77.142 96.9636 77.314 97.1956 77.534L96.9556 77.924ZM101.239 83V77.834L100.567 77.756C100.483 77.736 100.413 77.706 100.357 77.666C100.305 77.622 100.279 77.56 100.279 77.48V77.042H101.239V76.706C101.239 76.334 101.297 75.994 101.413 75.686C101.529 75.374 101.703 75.106 101.935 74.882C102.167 74.658 102.455 74.484 102.799 74.36C103.147 74.236 103.551 74.174 104.011 74.174C104.163 74.174 104.317 74.184 104.473 74.204C104.633 74.224 104.771 74.254 104.887 74.294L104.851 74.852C104.843 74.904 104.819 74.938 104.779 74.954C104.739 74.966 104.681 74.972 104.605 74.972C104.561 74.972 104.515 74.972 104.467 74.972C104.419 74.968 104.365 74.966 104.305 74.966C103.597 74.966 103.081 75.114 102.757 75.41C102.437 75.702 102.277 76.144 102.277 76.736V77.042H105.949V83H104.881V77.816H102.313V83H101.239ZM107.843 83V76.922H108.479C108.631 76.922 108.727 76.996 108.767 77.144L108.851 77.804C109.115 77.512 109.409 77.276 109.733 77.096C110.061 76.916 110.439 76.826 110.867 76.826C111.199 76.826 111.491 76.882 111.743 76.994C111.999 77.102 112.211 77.258 112.379 77.462C112.551 77.662 112.681 77.904 112.769 78.188C112.857 78.472 112.901 78.786 112.901 79.13V83H111.833V79.13C111.833 78.67 111.727 78.314 111.515 78.062C111.307 77.806 110.987 77.678 110.555 77.678C110.239 77.678 109.943 77.754 109.667 77.906C109.395 78.058 109.143 78.264 108.911 78.524V83H107.843ZM118.789 83C118.637 83 118.541 82.926 118.501 82.778L118.405 82.04C118.145 82.356 117.847 82.61 117.511 82.802C117.179 82.99 116.797 83.084 116.365 83.084C116.017 83.084 115.701 83.018 115.417 82.886C115.133 82.75 114.891 82.552 114.691 82.292C114.491 82.032 114.337 81.708 114.229 81.32C114.121 80.932 114.067 80.486 114.067 79.982C114.067 79.534 114.127 79.118 114.247 78.734C114.367 78.346 114.539 78.01 114.763 77.726C114.991 77.442 115.267 77.22 115.591 77.06C115.915 76.896 116.283 76.814 116.695 76.814C117.067 76.814 117.385 76.878 117.649 77.006C117.913 77.13 118.149 77.306 118.357 77.534V74.162H119.425V83H118.789ZM116.719 82.22C117.067 82.22 117.371 82.14 117.631 81.98C117.895 81.82 118.137 81.594 118.357 81.302V78.362C118.161 78.098 117.945 77.914 117.709 77.81C117.477 77.702 117.219 77.648 116.935 77.648C116.367 77.648 115.931 77.85 115.627 78.254C115.323 78.658 115.171 79.234 115.171 79.982C115.171 80.378 115.205 80.718 115.273 81.002C115.341 81.282 115.441 81.514 115.573 81.698C115.705 81.878 115.867 82.01 116.059 82.094C116.251 82.178 116.471 82.22 116.719 82.22ZM127.998 83H127.524C127.42 83 127.336 82.984 127.272 82.952C127.208 82.92 127.166 82.852 127.146 82.748L127.026 82.184C126.866 82.328 126.71 82.458 126.558 82.574C126.406 82.686 126.246 82.782 126.078 82.862C125.91 82.938 125.73 82.996 125.538 83.036C125.35 83.076 125.14 83.096 124.908 83.096C124.672 83.096 124.45 83.064 124.242 83C124.038 82.932 123.86 82.832 123.708 82.7C123.556 82.568 123.434 82.402 123.342 82.202C123.254 81.998 123.21 81.758 123.21 81.482C123.21 81.242 123.276 81.012 123.408 80.792C123.54 80.568 123.752 80.37 124.044 80.198C124.34 80.026 124.726 79.886 125.202 79.778C125.678 79.666 126.26 79.602 126.948 79.586V79.112C126.948 78.64 126.846 78.284 126.642 78.044C126.442 77.8 126.144 77.678 125.748 77.678C125.488 77.678 125.268 77.712 125.088 77.78C124.912 77.844 124.758 77.918 124.626 78.002C124.498 78.082 124.386 78.156 124.29 78.224C124.198 78.288 124.106 78.32 124.014 78.32C123.942 78.32 123.878 78.302 123.822 78.266C123.77 78.226 123.728 78.178 123.696 78.122L123.504 77.78C123.84 77.456 124.202 77.214 124.59 77.054C124.978 76.894 125.408 76.814 125.88 76.814C126.22 76.814 126.522 76.87 126.786 76.982C127.05 77.094 127.272 77.25 127.452 77.45C127.632 77.65 127.768 77.892 127.86 78.176C127.952 78.46 127.998 78.772 127.998 79.112V83ZM125.226 82.346C125.414 82.346 125.586 82.328 125.742 82.292C125.898 82.252 126.044 82.198 126.18 82.13C126.32 82.058 126.452 81.972 126.576 81.872C126.704 81.772 126.828 81.658 126.948 81.53V80.264C126.456 80.28 126.038 80.32 125.694 80.384C125.35 80.444 125.07 80.524 124.854 80.624C124.638 80.724 124.48 80.842 124.38 80.978C124.284 81.114 124.236 81.266 124.236 81.434C124.236 81.594 124.262 81.732 124.314 81.848C124.366 81.964 124.436 82.06 124.524 82.136C124.612 82.208 124.716 82.262 124.836 82.298C124.956 82.33 125.086 82.346 125.226 82.346ZM21.5162 95.924C21.4682 96.012 21.3942 96.056 21.2942 96.056C21.2342 96.056 21.1662 96.034 21.0902 95.99C21.0142 95.946 20.9202 95.898 20.8082 95.846C20.7002 95.79 20.5702 95.74 20.4182 95.696C20.2662 95.648 20.0862 95.624 19.8782 95.624C19.6982 95.624 19.5362 95.648 19.3922 95.696C19.2482 95.74 19.1242 95.802 19.0202 95.882C18.9202 95.962 18.8422 96.056 18.7862 96.164C18.7342 96.268 18.7082 96.382 18.7082 96.506C18.7082 96.662 18.7522 96.792 18.8402 96.896C18.9322 97 19.0522 97.09 19.2002 97.166C19.3482 97.242 19.5162 97.31 19.7042 97.37C19.8922 97.426 20.0842 97.488 20.2802 97.556C20.4802 97.62 20.6742 97.692 20.8622 97.772C21.0502 97.852 21.2182 97.952 21.3662 98.072C21.5142 98.192 21.6322 98.34 21.7202 98.516C21.8122 98.688 21.8582 98.896 21.8582 99.14C21.8582 99.42 21.8082 99.68 21.7082 99.92C21.6082 100.156 21.4602 100.362 21.2642 100.538C21.0682 100.71 20.8282 100.846 20.5442 100.946C20.2602 101.046 19.9322 101.096 19.5602 101.096C19.1362 101.096 18.7522 101.028 18.4082 100.892C18.0642 100.752 17.7722 100.574 17.5322 100.358L17.7842 99.95C17.8162 99.898 17.8542 99.858 17.8982 99.83C17.9422 99.802 18.0002 99.788 18.0722 99.788C18.1442 99.788 18.2202 99.816 18.3002 99.872C18.3802 99.928 18.4762 99.99 18.5882 100.058C18.7042 100.126 18.8422 100.188 19.0022 100.244C19.1662 100.3 19.3702 100.328 19.6142 100.328C19.8222 100.328 20.0042 100.302 20.1602 100.25C20.3162 100.194 20.4462 100.12 20.5502 100.028C20.6542 99.936 20.7302 99.83 20.7782 99.71C20.8302 99.59 20.8562 99.462 20.8562 99.326C20.8562 99.158 20.8102 99.02 20.7182 98.912C20.6302 98.8 20.5122 98.706 20.3642 98.63C20.2162 98.55 20.0462 98.482 19.8542 98.426C19.6662 98.366 19.4722 98.304 19.2722 98.24C19.0762 98.176 18.8822 98.104 18.6902 98.024C18.5022 97.94 18.3342 97.836 18.1862 97.712C18.0382 97.588 17.9182 97.436 17.8262 97.256C17.7382 97.072 17.6942 96.85 17.6942 96.59C17.6942 96.358 17.7422 96.136 17.8382 95.924C17.9342 95.708 18.0742 95.52 18.2582 95.36C18.4422 95.196 18.6682 95.066 18.9362 94.97C19.2042 94.874 19.5102 94.826 19.8542 94.826C20.2542 94.826 20.6122 94.89 20.9282 95.018C21.2482 95.142 21.5242 95.314 21.7562 95.534L21.5162 95.924ZM27.7033 101H27.2293C27.1253 101 27.0413 100.984 26.9773 100.952C26.9133 100.92 26.8713 100.852 26.8513 100.748L26.7313 100.184C26.5713 100.328 26.4153 100.458 26.2633 100.574C26.1113 100.686 25.9513 100.782 25.7833 100.862C25.6153 100.938 25.4353 100.996 25.2433 101.036C25.0553 101.076 24.8453 101.096 24.6133 101.096C24.3773 101.096 24.1553 101.064 23.9473 101C23.7433 100.932 23.5653 100.832 23.4133 100.7C23.2613 100.568 23.1393 100.402 23.0473 100.202C22.9593 99.998 22.9153 99.758 22.9153 99.482C22.9153 99.242 22.9813 99.012 23.1133 98.792C23.2453 98.568 23.4573 98.37 23.7493 98.198C24.0453 98.026 24.4313 97.886 24.9073 97.778C25.3833 97.666 25.9653 97.602 26.6533 97.586V97.112C26.6533 96.64 26.5513 96.284 26.3473 96.044C26.1473 95.8 25.8493 95.678 25.4533 95.678C25.1933 95.678 24.9733 95.712 24.7933 95.78C24.6173 95.844 24.4633 95.918 24.3313 96.002C24.2033 96.082 24.0913 96.156 23.9953 96.224C23.9033 96.288 23.8113 96.32 23.7193 96.32C23.6473 96.32 23.5833 96.302 23.5273 96.266C23.4753 96.226 23.4333 96.178 23.4013 96.122L23.2093 95.78C23.5453 95.456 23.9073 95.214 24.2953 95.054C24.6833 94.894 25.1133 94.814 25.5853 94.814C25.9253 94.814 26.2273 94.87 26.4913 94.982C26.7553 95.094 26.9773 95.25 27.1573 95.45C27.3373 95.65 27.4733 95.892 27.5653 96.176C27.6573 96.46 27.7033 96.772 27.7033 97.112V101ZM24.9313 100.346C25.1193 100.346 25.2913 100.328 25.4473 100.292C25.6033 100.252 25.7493 100.198 25.8853 100.13C26.0253 100.058 26.1573 99.972 26.2813 99.872C26.4093 99.772 26.5333 99.658 26.6533 99.53V98.264C26.1613 98.28 25.7433 98.32 25.3993 98.384C25.0553 98.444 24.7753 98.524 24.5593 98.624C24.3433 98.724 24.1853 98.842 24.0853 98.978C23.9893 99.114 23.9413 99.266 23.9413 99.434C23.9413 99.594 23.9673 99.732 24.0193 99.848C24.0713 99.964 24.1413 100.06 24.2293 100.136C24.3173 100.208 24.4213 100.262 24.5413 100.298C24.6613 100.33 24.7913 100.346 24.9313 100.346ZM28.3658 94.922H29.2418C29.3258 94.922 29.3958 94.944 29.4518 94.988C29.5078 95.032 29.5478 95.084 29.5718 95.144L31.1138 99.056C31.1698 99.2 31.2138 99.344 31.2458 99.488C31.2778 99.632 31.3078 99.774 31.3358 99.914C31.3678 99.774 31.4018 99.632 31.4378 99.488C31.4738 99.344 31.5198 99.2 31.5758 99.056L33.1358 95.144C33.1598 95.08 33.1978 95.028 33.2498 94.988C33.3058 94.944 33.3738 94.922 33.4538 94.922H34.2878L31.8098 101H30.8438L28.3658 94.922ZM36.4624 94.922V101H35.3944V94.922H36.4624ZM36.7024 93.014C36.7024 93.118 36.6804 93.216 36.6364 93.308C36.5964 93.396 36.5404 93.476 36.4684 93.548C36.4004 93.616 36.3204 93.67 36.2284 93.71C36.1364 93.75 36.0384 93.77 35.9344 93.77C35.8304 93.77 35.7324 93.75 35.6404 93.71C35.5524 93.67 35.4724 93.616 35.4004 93.548C35.3324 93.476 35.2784 93.396 35.2384 93.308C35.1984 93.216 35.1784 93.118 35.1784 93.014C35.1784 92.91 35.1984 92.812 35.2384 92.72C35.2784 92.624 35.3324 92.542 35.4004 92.474C35.4724 92.402 35.5524 92.346 35.6404 92.306C35.7324 92.266 35.8304 92.246 35.9344 92.246C36.0384 92.246 36.1364 92.266 36.2284 92.306C36.3204 92.346 36.4004 92.402 36.4684 92.474C36.5404 92.542 36.5964 92.624 36.6364 92.72C36.6804 92.812 36.7024 92.91 36.7024 93.014ZM38.3448 101V94.922H38.9808C39.1328 94.922 39.2288 94.996 39.2688 95.144L39.3528 95.804C39.6168 95.512 39.9108 95.276 40.2348 95.096C40.5628 94.916 40.9408 94.826 41.3688 94.826C41.7008 94.826 41.9928 94.882 42.2448 94.994C42.5008 95.102 42.7128 95.258 42.8808 95.462C43.0528 95.662 43.1828 95.904 43.2708 96.188C43.3588 96.472 43.4028 96.786 43.4028 97.13V101H42.3348V97.13C42.3348 96.67 42.2288 96.314 42.0168 96.062C41.8088 95.806 41.4888 95.678 41.0568 95.678C40.7408 95.678 40.4448 95.754 40.1688 95.906C39.8968 96.058 39.6448 96.264 39.4128 96.524V101H38.3448ZM47.0587 94.82C47.3227 94.82 47.5687 94.85 47.7967 94.91C48.0287 94.966 48.2387 95.05 48.4267 95.162H50.0767V95.558C50.0767 95.69 49.9927 95.774 49.8247 95.81L49.1347 95.906C49.2707 96.166 49.3387 96.456 49.3387 96.776C49.3387 97.072 49.2807 97.342 49.1647 97.586C49.0527 97.826 48.8947 98.032 48.6907 98.204C48.4907 98.376 48.2507 98.508 47.9707 98.6C47.6947 98.692 47.3907 98.738 47.0587 98.738C46.7747 98.738 46.5067 98.704 46.2547 98.636C46.1267 98.716 46.0287 98.802 45.9607 98.894C45.8967 98.986 45.8647 99.076 45.8647 99.164C45.8647 99.308 45.9227 99.418 46.0387 99.494C46.1547 99.566 46.3087 99.618 46.5007 99.65C46.6927 99.682 46.9107 99.702 47.1547 99.71C47.3987 99.718 47.6467 99.732 47.8987 99.752C48.1547 99.768 48.4047 99.798 48.6487 99.842C48.8927 99.886 49.1107 99.958 49.3027 100.058C49.4947 100.158 49.6487 100.296 49.7647 100.472C49.8807 100.648 49.9387 100.876 49.9387 101.156C49.9387 101.416 49.8727 101.668 49.7407 101.912C49.6127 102.156 49.4267 102.372 49.1827 102.56C48.9387 102.752 48.6407 102.904 48.2887 103.016C47.9367 103.132 47.5387 103.19 47.0947 103.19C46.6507 103.19 46.2607 103.146 45.9247 103.058C45.5927 102.97 45.3167 102.852 45.0967 102.704C44.8767 102.556 44.7107 102.384 44.5987 102.188C44.4907 101.996 44.4367 101.794 44.4367 101.582C44.4367 101.282 44.5307 101.028 44.7187 100.82C44.9107 100.608 45.1727 100.44 45.5047 100.316C45.3327 100.236 45.1947 100.13 45.0907 99.998C44.9907 99.862 44.9407 99.682 44.9407 99.458C44.9407 99.37 44.9567 99.28 44.9887 99.188C45.0207 99.092 45.0687 98.998 45.1327 98.906C45.2007 98.814 45.2827 98.726 45.3787 98.642C45.4747 98.558 45.5867 98.484 45.7147 98.42C45.4147 98.252 45.1787 98.03 45.0067 97.754C44.8387 97.474 44.7547 97.148 44.7547 96.776C44.7547 96.48 44.8107 96.212 44.9227 95.972C45.0387 95.728 45.1987 95.522 45.4027 95.354C45.6067 95.182 45.8487 95.05 46.1287 94.958C46.4127 94.866 46.7227 94.82 47.0587 94.82ZM48.9547 101.33C48.9547 101.178 48.9127 101.056 48.8287 100.964C48.7447 100.872 48.6307 100.802 48.4867 100.754C48.3427 100.702 48.1767 100.664 47.9887 100.64C47.8007 100.616 47.6027 100.6 47.3947 100.592C47.1867 100.58 46.9747 100.568 46.7587 100.556C46.5427 100.544 46.3367 100.522 46.1407 100.49C45.9127 100.598 45.7267 100.73 45.5827 100.886C45.4427 101.042 45.3727 101.228 45.3727 101.444C45.3727 101.58 45.4067 101.706 45.4747 101.822C45.5467 101.942 45.6547 102.044 45.7987 102.128C45.9427 102.216 46.1227 102.284 46.3387 102.332C46.5587 102.384 46.8167 102.41 47.1127 102.41C47.4007 102.41 47.6587 102.384 47.8867 102.332C48.1147 102.28 48.3067 102.206 48.4627 102.11C48.6227 102.014 48.7447 101.9 48.8287 101.768C48.9127 101.636 48.9547 101.49 48.9547 101.33ZM47.0587 98.03C47.2747 98.03 47.4647 98 47.6287 97.94C47.7967 97.88 47.9367 97.796 48.0487 97.688C48.1607 97.58 48.2447 97.452 48.3007 97.304C48.3567 97.152 48.3847 96.986 48.3847 96.806C48.3847 96.434 48.2707 96.138 48.0427 95.918C47.8187 95.698 47.4907 95.588 47.0587 95.588C46.6307 95.588 46.3027 95.698 46.0747 95.918C45.8507 96.138 45.7387 96.434 45.7387 96.806C45.7387 96.986 45.7667 97.152 45.8227 97.304C45.8827 97.452 45.9687 97.58 46.0807 97.688C46.1927 97.796 46.3307 97.88 46.4947 97.94C46.6587 98 46.8467 98.03 47.0587 98.03ZM56.9419 95.924C56.8939 96.012 56.8199 96.056 56.7199 96.056C56.6599 96.056 56.5919 96.034 56.5159 95.99C56.4399 95.946 56.3459 95.898 56.2339 95.846C56.1259 95.79 55.9959 95.74 55.8439 95.696C55.6919 95.648 55.5119 95.624 55.3039 95.624C55.1239 95.624 54.9619 95.648 54.8179 95.696C54.6739 95.74 54.5499 95.802 54.4459 95.882C54.3459 95.962 54.2679 96.056 54.2119 96.164C54.1599 96.268 54.1339 96.382 54.1339 96.506C54.1339 96.662 54.1779 96.792 54.2659 96.896C54.3579 97 54.4779 97.09 54.6259 97.166C54.7739 97.242 54.9419 97.31 55.1299 97.37C55.3179 97.426 55.5099 97.488 55.7059 97.556C55.9059 97.62 56.0999 97.692 56.2879 97.772C56.4759 97.852 56.6439 97.952 56.7919 98.072C56.9399 98.192 57.0579 98.34 57.1459 98.516C57.2379 98.688 57.2839 98.896 57.2839 99.14C57.2839 99.42 57.2339 99.68 57.1339 99.92C57.0339 100.156 56.8859 100.362 56.6899 100.538C56.4939 100.71 56.2539 100.846 55.9699 100.946C55.6859 101.046 55.3579 101.096 54.9859 101.096C54.5619 101.096 54.1779 101.028 53.8339 100.892C53.4899 100.752 53.1979 100.574 52.9579 100.358L53.2099 99.95C53.2419 99.898 53.2799 99.858 53.3239 99.83C53.3679 99.802 53.4259 99.788 53.4979 99.788C53.5699 99.788 53.6459 99.816 53.7259 99.872C53.8059 99.928 53.9019 99.99 54.0139 100.058C54.1299 100.126 54.2679 100.188 54.4279 100.244C54.5919 100.3 54.7959 100.328 55.0399 100.328C55.2479 100.328 55.4299 100.302 55.5859 100.25C55.7419 100.194 55.8719 100.12 55.9759 100.028C56.0799 99.936 56.1559 99.83 56.2039 99.71C56.2559 99.59 56.2819 99.462 56.2819 99.326C56.2819 99.158 56.2359 99.02 56.1439 98.912C56.0559 98.8 55.9379 98.706 55.7899 98.63C55.6419 98.55 55.4719 98.482 55.2799 98.426C55.0919 98.366 54.8979 98.304 54.6979 98.24C54.5019 98.176 54.3079 98.104 54.1159 98.024C53.9279 97.94 53.7599 97.836 53.6119 97.712C53.4639 97.588 53.3439 97.436 53.2519 97.256C53.1639 97.072 53.1199 96.85 53.1199 96.59C53.1199 96.358 53.1679 96.136 53.2639 95.924C53.3599 95.708 53.4999 95.52 53.6839 95.36C53.8679 95.196 54.0939 95.066 54.3619 94.97C54.6299 94.874 54.9359 94.826 55.2799 94.826C55.6799 94.826 56.0379 94.89 56.3539 95.018C56.6739 95.142 56.9499 95.314 57.1819 95.534L56.9419 95.924ZM60.5071 101.096C60.0271 101.096 59.6571 100.962 59.3971 100.694C59.1411 100.426 59.0131 100.04 59.0131 99.536V95.816H58.2811C58.2171 95.816 58.1631 95.798 58.1191 95.762C58.0751 95.722 58.0531 95.662 58.0531 95.582V95.156L59.0491 95.03L59.2951 93.152C59.3031 93.092 59.3291 93.044 59.3731 93.008C59.4171 92.968 59.4731 92.948 59.5411 92.948H60.0811V95.042H61.8211V95.816H60.0811V99.464C60.0811 99.72 60.1431 99.91 60.2671 100.034C60.3911 100.158 60.5511 100.22 60.7471 100.22C60.8591 100.22 60.9551 100.206 61.0351 100.178C61.1191 100.146 61.1911 100.112 61.2511 100.076C61.3111 100.04 61.3611 100.008 61.4011 99.98C61.4451 99.948 61.4831 99.932 61.5151 99.932C61.5711 99.932 61.6211 99.966 61.6651 100.034L61.9771 100.544C61.7931 100.716 61.5711 100.852 61.3111 100.952C61.0511 101.048 60.7831 101.096 60.5071 101.096ZM63.1416 101V94.922H63.7536C63.8696 94.922 63.9496 94.944 63.9936 94.988C64.0376 95.032 64.0676 95.108 64.0836 95.216L64.1556 96.164C64.3636 95.74 64.6196 95.41 64.9236 95.174C65.2316 94.934 65.5916 94.814 66.0036 94.814C66.1716 94.814 66.3236 94.834 66.4596 94.874C66.5956 94.91 66.7216 94.962 66.8376 95.03L66.6996 95.828C66.6716 95.928 66.6096 95.978 66.5136 95.978C66.4576 95.978 66.3716 95.96 66.2556 95.924C66.1396 95.884 65.9776 95.864 65.7696 95.864C65.3976 95.864 65.0856 95.972 64.8336 96.188C64.5856 96.404 64.3776 96.718 64.2096 97.13V101H63.1416ZM72.2228 101H71.7488C71.6448 101 71.5608 100.984 71.4968 100.952C71.4328 100.92 71.3908 100.852 71.3708 100.748L71.2508 100.184C71.0908 100.328 70.9348 100.458 70.7828 100.574C70.6308 100.686 70.4708 100.782 70.3028 100.862C70.1348 100.938 69.9548 100.996 69.7628 101.036C69.5748 101.076 69.3648 101.096 69.1328 101.096C68.8968 101.096 68.6748 101.064 68.4668 101C68.2628 100.932 68.0848 100.832 67.9328 100.7C67.7808 100.568 67.6588 100.402 67.5668 100.202C67.4788 99.998 67.4348 99.758 67.4348 99.482C67.4348 99.242 67.5008 99.012 67.6328 98.792C67.7648 98.568 67.9768 98.37 68.2688 98.198C68.5648 98.026 68.9508 97.886 69.4268 97.778C69.9028 97.666 70.4848 97.602 71.1728 97.586V97.112C71.1728 96.64 71.0708 96.284 70.8668 96.044C70.6668 95.8 70.3688 95.678 69.9728 95.678C69.7128 95.678 69.4928 95.712 69.3128 95.78C69.1368 95.844 68.9828 95.918 68.8508 96.002C68.7228 96.082 68.6108 96.156 68.5148 96.224C68.4228 96.288 68.3308 96.32 68.2388 96.32C68.1668 96.32 68.1028 96.302 68.0468 96.266C67.9948 96.226 67.9528 96.178 67.9208 96.122L67.7288 95.78C68.0648 95.456 68.4268 95.214 68.8148 95.054C69.2028 94.894 69.6328 94.814 70.1048 94.814C70.4448 94.814 70.7468 94.87 71.0108 94.982C71.2748 95.094 71.4968 95.25 71.6768 95.45C71.8568 95.65 71.9928 95.892 72.0848 96.176C72.1768 96.46 72.2228 96.772 72.2228 97.112V101ZM69.4508 100.346C69.6388 100.346 69.8108 100.328 69.9668 100.292C70.1228 100.252 70.2688 100.198 70.4048 100.13C70.5448 100.058 70.6768 99.972 70.8008 99.872C70.9288 99.772 71.0528 99.658 71.1728 99.53V98.264C70.6808 98.28 70.2628 98.32 69.9188 98.384C69.5748 98.444 69.2948 98.524 69.0788 98.624C68.8628 98.724 68.7048 98.842 68.6048 98.978C68.5088 99.114 68.4608 99.266 68.4608 99.434C68.4608 99.594 68.4868 99.732 68.5388 99.848C68.5908 99.964 68.6608 100.06 68.7488 100.136C68.8368 100.208 68.9408 100.262 69.0608 100.298C69.1808 100.33 69.3108 100.346 69.4508 100.346ZM75.0288 94.922V101H73.9608V94.922H75.0288ZM75.2688 93.014C75.2688 93.118 75.2468 93.216 75.2028 93.308C75.1628 93.396 75.1068 93.476 75.0348 93.548C74.9668 93.616 74.8868 93.67 74.7948 93.71C74.7028 93.75 74.6048 93.77 74.5008 93.77C74.3968 93.77 74.2988 93.75 74.2068 93.71C74.1188 93.67 74.0388 93.616 73.9668 93.548C73.8988 93.476 73.8448 93.396 73.8048 93.308C73.7648 93.216 73.7448 93.118 73.7448 93.014C73.7448 92.91 73.7648 92.812 73.8048 92.72C73.8448 92.624 73.8988 92.542 73.9668 92.474C74.0388 92.402 74.1188 92.346 74.2068 92.306C74.2988 92.266 74.3968 92.246 74.5008 92.246C74.6048 92.246 74.7028 92.266 74.7948 92.306C74.8868 92.346 74.9668 92.402 75.0348 92.474C75.1068 92.542 75.1628 92.624 75.2028 92.72C75.2468 92.812 75.2688 92.91 75.2688 93.014ZM78.9572 94.82C79.2212 94.82 79.4672 94.85 79.6952 94.91C79.9272 94.966 80.1372 95.05 80.3252 95.162H81.9752V95.558C81.9752 95.69 81.8912 95.774 81.7232 95.81L81.0332 95.906C81.1692 96.166 81.2372 96.456 81.2372 96.776C81.2372 97.072 81.1792 97.342 81.0632 97.586C80.9512 97.826 80.7932 98.032 80.5892 98.204C80.3892 98.376 80.1492 98.508 79.8692 98.6C79.5932 98.692 79.2892 98.738 78.9572 98.738C78.6732 98.738 78.4052 98.704 78.1532 98.636C78.0252 98.716 77.9272 98.802 77.8592 98.894C77.7952 98.986 77.7632 99.076 77.7632 99.164C77.7632 99.308 77.8212 99.418 77.9372 99.494C78.0532 99.566 78.2072 99.618 78.3992 99.65C78.5912 99.682 78.8092 99.702 79.0532 99.71C79.2972 99.718 79.5452 99.732 79.7972 99.752C80.0532 99.768 80.3032 99.798 80.5472 99.842C80.7912 99.886 81.0092 99.958 81.2012 100.058C81.3932 100.158 81.5472 100.296 81.6632 100.472C81.7792 100.648 81.8372 100.876 81.8372 101.156C81.8372 101.416 81.7712 101.668 81.6392 101.912C81.5112 102.156 81.3252 102.372 81.0812 102.56C80.8372 102.752 80.5392 102.904 80.1872 103.016C79.8352 103.132 79.4372 103.19 78.9932 103.19C78.5492 103.19 78.1592 103.146 77.8232 103.058C77.4912 102.97 77.2152 102.852 76.9952 102.704C76.7752 102.556 76.6092 102.384 76.4972 102.188C76.3892 101.996 76.3352 101.794 76.3352 101.582C76.3352 101.282 76.4292 101.028 76.6172 100.82C76.8092 100.608 77.0712 100.44 77.4032 100.316C77.2312 100.236 77.0932 100.13 76.9892 99.998C76.8892 99.862 76.8392 99.682 76.8392 99.458C76.8392 99.37 76.8552 99.28 76.8872 99.188C76.9192 99.092 76.9672 98.998 77.0312 98.906C77.0992 98.814 77.1812 98.726 77.2772 98.642C77.3732 98.558 77.4852 98.484 77.6132 98.42C77.3132 98.252 77.0772 98.03 76.9052 97.754C76.7372 97.474 76.6532 97.148 76.6532 96.776C76.6532 96.48 76.7092 96.212 76.8212 95.972C76.9372 95.728 77.0972 95.522 77.3012 95.354C77.5052 95.182 77.7472 95.05 78.0272 94.958C78.3112 94.866 78.6212 94.82 78.9572 94.82ZM80.8532 101.33C80.8532 101.178 80.8112 101.056 80.7272 100.964C80.6432 100.872 80.5292 100.802 80.3852 100.754C80.2412 100.702 80.0752 100.664 79.8872 100.64C79.6992 100.616 79.5012 100.6 79.2932 100.592C79.0852 100.58 78.8732 100.568 78.6572 100.556C78.4412 100.544 78.2352 100.522 78.0392 100.49C77.8112 100.598 77.6252 100.73 77.4812 100.886C77.3412 101.042 77.2712 101.228 77.2712 101.444C77.2712 101.58 77.3052 101.706 77.3732 101.822C77.4452 101.942 77.5532 102.044 77.6972 102.128C77.8412 102.216 78.0212 102.284 78.2372 102.332C78.4572 102.384 78.7152 102.41 79.0112 102.41C79.2992 102.41 79.5572 102.384 79.7852 102.332C80.0132 102.28 80.2052 102.206 80.3612 102.11C80.5212 102.014 80.6432 101.9 80.7272 101.768C80.8112 101.636 80.8532 101.49 80.8532 101.33ZM78.9572 98.03C79.1732 98.03 79.3632 98 79.5272 97.94C79.6952 97.88 79.8352 97.796 79.9472 97.688C80.0592 97.58 80.1432 97.452 80.1992 97.304C80.2552 97.152 80.2832 96.986 80.2832 96.806C80.2832 96.434 80.1692 96.138 79.9412 95.918C79.7172 95.698 79.3892 95.588 78.9572 95.588C78.5292 95.588 78.2012 95.698 77.9732 95.918C77.7492 96.138 77.6372 96.434 77.6372 96.806C77.6372 96.986 77.6652 97.152 77.7212 97.304C77.7812 97.452 77.8672 97.58 77.9792 97.688C78.0912 97.796 78.2292 97.88 78.3932 97.94C78.5572 98 78.7452 98.03 78.9572 98.03ZM83.0401 101V92.162H84.1081V95.738C84.3681 95.462 84.6561 95.242 84.9721 95.078C85.2881 94.91 85.6521 94.826 86.0641 94.826C86.3961 94.826 86.6881 94.882 86.9401 94.994C87.1961 95.102 87.4081 95.258 87.5761 95.462C87.7481 95.662 87.8781 95.904 87.9661 96.188C88.0541 96.472 88.0981 96.786 88.0981 97.13V101H87.0301V97.13C87.0301 96.67 86.9241 96.314 86.7121 96.062C86.5041 95.806 86.1841 95.678 85.7521 95.678C85.4361 95.678 85.1401 95.754 84.8641 95.906C84.5921 96.058 84.3401 96.264 84.1081 96.524V101H83.0401ZM91.55 101.096C91.07 101.096 90.7 100.962 90.44 100.694C90.184 100.426 90.056 100.04 90.056 99.536V95.816H89.324C89.26 95.816 89.206 95.798 89.162 95.762C89.118 95.722 89.096 95.662 89.096 95.582V95.156L90.092 95.03L90.338 93.152C90.346 93.092 90.372 93.044 90.416 93.008C90.46 92.968 90.516 92.948 90.584 92.948H91.124V95.042H92.864V95.816H91.124V99.464C91.124 99.72 91.186 99.91 91.31 100.034C91.434 100.158 91.594 100.22 91.79 100.22C91.902 100.22 91.998 100.206 92.078 100.178C92.162 100.146 92.234 100.112 92.294 100.076C92.354 100.04 92.404 100.008 92.444 99.98C92.488 99.948 92.526 99.932 92.558 99.932C92.614 99.932 92.664 99.966 92.708 100.034L93.02 100.544C92.836 100.716 92.614 100.852 92.354 100.952C92.094 101.048 91.826 101.096 91.55 101.096ZM100.969 101H100.495C100.391 101 100.307 100.984 100.243 100.952C100.179 100.92 100.137 100.852 100.117 100.748L99.9969 100.184C99.8369 100.328 99.6809 100.458 99.5289 100.574C99.3769 100.686 99.2169 100.782 99.0489 100.862C98.8809 100.938 98.7009 100.996 98.5089 101.036C98.3209 101.076 98.1109 101.096 97.8789 101.096C97.6429 101.096 97.4209 101.064 97.2129 101C97.0089 100.932 96.8309 100.832 96.6789 100.7C96.5269 100.568 96.4049 100.402 96.3129 100.202C96.2249 99.998 96.1809 99.758 96.1809 99.482C96.1809 99.242 96.2469 99.012 96.3789 98.792C96.5109 98.568 96.7229 98.37 97.0149 98.198C97.3109 98.026 97.6969 97.886 98.1729 97.778C98.6489 97.666 99.2309 97.602 99.9189 97.586V97.112C99.9189 96.64 99.8169 96.284 99.6129 96.044C99.4129 95.8 99.1149 95.678 98.7189 95.678C98.4589 95.678 98.2389 95.712 98.0589 95.78C97.8829 95.844 97.7289 95.918 97.5969 96.002C97.4689 96.082 97.3569 96.156 97.2609 96.224C97.1689 96.288 97.0769 96.32 96.9849 96.32C96.9129 96.32 96.8489 96.302 96.7929 96.266C96.7409 96.226 96.6989 96.178 96.6669 96.122L96.4749 95.78C96.8109 95.456 97.1729 95.214 97.5609 95.054C97.9489 94.894 98.3789 94.814 98.8509 94.814C99.1909 94.814 99.4929 94.87 99.7569 94.982C100.021 95.094 100.243 95.25 100.423 95.45C100.603 95.65 100.739 95.892 100.831 96.176C100.923 96.46 100.969 96.772 100.969 97.112V101ZM98.1969 100.346C98.3849 100.346 98.5569 100.328 98.7129 100.292C98.8689 100.252 99.0149 100.198 99.1509 100.13C99.2909 100.058 99.4229 99.972 99.5469 99.872C99.6749 99.772 99.7989 99.658 99.9189 99.53V98.264C99.4269 98.28 99.0089 98.32 98.6649 98.384C98.3209 98.444 98.0409 98.524 97.8249 98.624C97.6089 98.724 97.4509 98.842 97.3509 98.978C97.2549 99.114 97.2069 99.266 97.2069 99.434C97.2069 99.594 97.2329 99.732 97.2849 99.848C97.3369 99.964 97.4069 100.06 97.4949 100.136C97.5829 100.208 97.6869 100.262 97.8069 100.298C97.9269 100.33 98.0569 100.346 98.1969 100.346ZM101.701 94.922H102.541C102.629 94.922 102.701 94.944 102.757 94.988C102.813 95.032 102.851 95.084 102.871 95.144L104.035 99.056C104.067 99.2 104.097 99.34 104.125 99.476C104.153 99.608 104.177 99.742 104.197 99.878C104.229 99.742 104.265 99.608 104.305 99.476C104.345 99.34 104.387 99.2 104.431 99.056L105.715 95.12C105.735 95.06 105.769 95.01 105.817 94.97C105.869 94.93 105.933 94.91 106.009 94.91H106.471C106.551 94.91 106.617 94.93 106.669 94.97C106.721 95.01 106.757 95.06 106.777 95.12L108.031 99.056C108.075 99.196 108.113 99.334 108.145 99.47C108.181 99.606 108.215 99.74 108.247 99.872C108.267 99.74 108.293 99.602 108.325 99.458C108.357 99.314 108.391 99.18 108.427 99.056L109.615 95.144C109.635 95.08 109.673 95.028 109.729 94.988C109.785 94.944 109.851 94.922 109.927 94.922H110.731L108.763 101H107.917C107.813 101 107.741 100.932 107.701 100.796L106.357 96.674C106.325 96.582 106.299 96.49 106.279 96.398C106.259 96.302 106.239 96.208 106.219 96.116C106.199 96.208 106.179 96.302 106.159 96.398C106.139 96.494 106.113 96.588 106.081 96.68L104.719 100.796C104.675 100.932 104.593 101 104.473 101H103.669L101.701 94.922ZM116.145 101H115.671C115.567 101 115.483 100.984 115.419 100.952C115.355 100.92 115.313 100.852 115.293 100.748L115.173 100.184C115.013 100.328 114.857 100.458 114.705 100.574C114.553 100.686 114.393 100.782 114.225 100.862C114.057 100.938 113.877 100.996 113.685 101.036C113.497 101.076 113.287 101.096 113.055 101.096C112.819 101.096 112.597 101.064 112.389 101C112.185 100.932 112.007 100.832 111.855 100.7C111.703 100.568 111.581 100.402 111.489 100.202C111.401 99.998 111.357 99.758 111.357 99.482C111.357 99.242 111.423 99.012 111.555 98.792C111.687 98.568 111.899 98.37 112.191 98.198C112.487 98.026 112.873 97.886 113.349 97.778C113.825 97.666 114.407 97.602 115.095 97.586V97.112C115.095 96.64 114.993 96.284 114.789 96.044C114.589 95.8 114.291 95.678 113.895 95.678C113.635 95.678 113.415 95.712 113.235 95.78C113.059 95.844 112.905 95.918 112.773 96.002C112.645 96.082 112.533 96.156 112.437 96.224C112.345 96.288 112.253 96.32 112.161 96.32C112.089 96.32 112.025 96.302 111.969 96.266C111.917 96.226 111.875 96.178 111.843 96.122L111.651 95.78C111.987 95.456 112.349 95.214 112.737 95.054C113.125 94.894 113.555 94.814 114.027 94.814C114.367 94.814 114.669 94.87 114.933 94.982C115.197 95.094 115.419 95.25 115.599 95.45C115.779 95.65 115.915 95.892 116.007 96.176C116.099 96.46 116.145 96.772 116.145 97.112V101ZM113.373 100.346C113.561 100.346 113.733 100.328 113.889 100.292C114.045 100.252 114.191 100.198 114.327 100.13C114.467 100.058 114.599 99.972 114.723 99.872C114.851 99.772 114.975 99.658 115.095 99.53V98.264C114.603 98.28 114.185 98.32 113.841 98.384C113.497 98.444 113.217 98.524 113.001 98.624C112.785 98.724 112.627 98.842 112.527 98.978C112.431 99.114 112.383 99.266 112.383 99.434C112.383 99.594 112.409 99.732 112.461 99.848C112.513 99.964 112.583 100.06 112.671 100.136C112.759 100.208 112.863 100.262 112.983 100.298C113.103 100.33 113.233 100.346 113.373 100.346ZM119.357 102.794C119.321 102.874 119.275 102.938 119.219 102.986C119.167 103.034 119.085 103.058 118.973 103.058H118.181L119.291 100.646L116.783 94.922H117.707C117.799 94.922 117.871 94.946 117.923 94.994C117.975 95.038 118.013 95.088 118.037 95.144L119.663 98.972C119.699 99.06 119.729 99.148 119.753 99.236C119.781 99.324 119.805 99.414 119.825 99.506C119.853 99.414 119.881 99.324 119.909 99.236C119.937 99.148 119.969 99.058 120.005 98.966L121.583 95.144C121.607 95.08 121.647 95.028 121.703 94.988C121.763 94.944 121.827 94.922 121.895 94.922H122.747L119.357 102.794Z" fill="#494949"/>
<path d="M55.5271 52.12C54.9871 52.12 54.4738 52.03 53.9871 51.85C53.5071 51.67 53.0838 51.4067 52.7171 51.06C52.3504 50.7067 52.0571 50.2767 51.8371 49.77C51.6238 49.2567 51.5171 48.67 51.5171 48.01C51.5171 47.3833 51.6338 46.7967 51.8671 46.25C52.1004 45.7033 52.4271 45.2267 52.8471 44.82C53.2671 44.4133 53.7671 44.0933 54.3471 43.86C54.9271 43.6267 55.5638 43.51 56.2571 43.51C56.9438 43.51 57.5671 43.6233 58.1271 43.85C58.6871 44.0767 59.1671 44.3933 59.5671 44.8C59.9671 45.2067 60.2738 45.6933 60.4871 46.26C60.7071 46.8267 60.8171 47.4533 60.8171 48.14C60.8171 48.5533 60.7771 48.9467 60.6971 49.32C60.6238 49.6867 60.5138 50.0467 60.3671 50.4C60.2204 50.7533 60.0438 51.1067 59.8371 51.46C59.6371 51.8067 59.4071 52.1667 59.1471 52.54L55.6571 57.58C55.5704 57.7067 55.4471 57.81 55.2871 57.89C55.1271 57.9633 54.9438 58 54.7371 58H53.0971L57.4571 52.29C57.6038 52.0967 57.7404 51.9133 57.8671 51.74C57.9938 51.5667 58.1138 51.3933 58.2271 51.22C57.8604 51.5133 57.4471 51.7367 56.9871 51.89C56.5271 52.0433 56.0404 52.12 55.5271 52.12ZM59.1071 47.93C59.1071 47.4833 59.0338 47.08 58.8871 46.72C58.7471 46.3533 58.5504 46.0433 58.2971 45.79C58.0438 45.5367 57.7404 45.3433 57.3871 45.21C57.0404 45.07 56.6571 45 56.2371 45C55.7971 45 55.3938 45.0733 55.0271 45.22C54.6671 45.36 54.3571 45.5567 54.0971 45.81C53.8438 46.0633 53.6471 46.3667 53.5071 46.72C53.3671 47.0733 53.2971 47.46 53.2971 47.88C53.2971 48.3333 53.3604 48.74 53.4871 49.1C53.6204 49.4533 53.8071 49.7533 54.0471 50C54.2938 50.2467 54.5904 50.4333 54.9371 50.56C55.2904 50.6867 55.6838 50.75 56.1171 50.75C56.5971 50.75 57.0204 50.6733 57.3871 50.52C57.7604 50.36 58.0738 50.15 58.3271 49.89C58.5804 49.63 58.7738 49.33 58.9071 48.99C59.0404 48.65 59.1071 48.2967 59.1071 47.93ZM64.5087 56.64H67.5887V46.87C67.5887 46.5767 67.5987 46.28 67.6187 45.98L65.0587 48.17C64.992 48.2233 64.9253 48.2633 64.8587 48.29C64.792 48.31 64.7287 48.32 64.6687 48.32C64.5687 48.32 64.4787 48.3 64.3987 48.26C64.3187 48.2133 64.2587 48.16 64.2187 48.1L63.6587 47.33L67.9187 43.64H69.3687V56.64H72.1887V58H64.5087V56.64ZM80.3102 47.13C80.3102 47.69 80.2236 48.1933 80.0502 48.64C79.8769 49.08 79.6436 49.4533 79.3502 49.76C79.0636 50.06 78.7269 50.29 78.3402 50.45C77.9536 50.61 77.5502 50.69 77.1302 50.69C76.6769 50.69 76.2569 50.61 75.8702 50.45C75.4902 50.29 75.1569 50.06 74.8702 49.76C74.5836 49.4533 74.3602 49.08 74.2002 48.64C74.0402 48.1933 73.9602 47.69 73.9602 47.13C73.9602 46.5567 74.0402 46.0467 74.2002 45.6C74.3602 45.1533 74.5836 44.7767 74.8702 44.47C75.1569 44.1633 75.4902 43.93 75.8702 43.77C76.2569 43.61 76.6769 43.53 77.1302 43.53C77.5769 43.53 77.9936 43.61 78.3802 43.77C78.7736 43.93 79.1102 44.1633 79.3902 44.47C79.6769 44.7767 79.9002 45.1533 80.0602 45.6C80.2269 46.0467 80.3102 46.5567 80.3102 47.13ZM78.9202 47.13C78.9202 46.69 78.8736 46.3167 78.7802 46.01C78.6869 45.7033 78.5569 45.4533 78.3902 45.26C78.2302 45.06 78.0402 44.9167 77.8202 44.83C77.6069 44.7433 77.3769 44.7 77.1302 44.7C76.8836 44.7 76.6502 44.7433 76.4302 44.83C76.2169 44.9167 76.0302 45.06 75.8702 45.26C75.7102 45.4533 75.5836 45.7033 75.4902 46.01C75.4036 46.3167 75.3602 46.69 75.3602 47.13C75.3602 47.5633 75.4036 47.9333 75.4902 48.24C75.5836 48.54 75.7102 48.7867 75.8702 48.98C76.0302 49.1667 76.2169 49.3033 76.4302 49.39C76.6502 49.47 76.8836 49.51 77.1302 49.51C77.3769 49.51 77.6069 49.47 77.8202 49.39C78.0402 49.3033 78.2302 49.1667 78.3902 48.98C78.5569 48.7867 78.6869 48.54 78.7802 48.24C78.8736 47.9333 78.9202 47.5633 78.9202 47.13ZM85.3202 44.03C85.4069 43.9167 85.4969 43.83 85.5902 43.77C85.6902 43.7033 85.8202 43.67 85.9802 43.67H87.2602L76.7902 57.71C76.7236 57.7967 76.6436 57.8667 76.5502 57.92C76.4569 57.9733 76.3469 58 76.2202 58H74.9002L85.3202 44.03ZM88.2302 54.62C88.2302 55.18 88.1436 55.68 87.9702 56.12C87.7969 56.56 87.5636 56.9333 87.2702 57.24C86.9836 57.54 86.6469 57.77 86.2602 57.93C85.8802 58.09 85.4802 58.17 85.0602 58.17C84.6069 58.17 84.1869 58.09 83.8002 57.93C83.4202 57.77 83.0869 57.54 82.8002 57.24C82.5136 56.9333 82.2902 56.56 82.1302 56.12C81.9702 55.68 81.8902 55.18 81.8902 54.62C81.8902 54.0467 81.9702 53.5367 82.1302 53.09C82.2902 52.6367 82.5136 52.2567 82.8002 51.95C83.0869 51.6433 83.4202 51.41 83.8002 51.25C84.1869 51.09 84.6069 51.01 85.0602 51.01C85.5069 51.01 85.9236 51.09 86.3102 51.25C86.6969 51.41 87.0336 51.6433 87.3202 51.95C87.6069 52.2567 87.8302 52.6367 87.9902 53.09C88.1502 53.5367 88.2302 54.0467 88.2302 54.62ZM86.8502 54.62C86.8502 54.18 86.8036 53.8067 86.7102 53.5C86.6169 53.1867 86.4869 52.9333 86.3202 52.74C86.1602 52.5467 85.9702 52.4067 85.7502 52.32C85.5369 52.2333 85.3069 52.19 85.0602 52.19C84.8136 52.19 84.5802 52.2333 84.3602 52.32C84.1469 52.4067 83.9602 52.5467 83.8002 52.74C83.6402 52.9333 83.5136 53.1867 83.4202 53.5C83.3336 53.8067 83.2902 54.18 83.2902 54.62C83.2902 55.0533 83.3336 55.42 83.4202 55.72C83.5136 56.02 83.6402 56.2667 83.8002 56.46C83.9602 56.6467 84.1469 56.7833 84.3602 56.87C84.5802 56.95 84.8136 56.99 85.0602 56.99C85.3069 56.99 85.5369 56.95 85.7502 56.87C85.9702 56.7833 86.1602 56.6467 86.3202 56.46C86.4869 56.2667 86.6169 56.02 86.7102 55.72C86.8036 55.42 86.8502 55.0533 86.8502 54.62Z" fill="#202020"/>
</svg>
