<svg width="47" height="47" viewBox="0 0 47 47" fill="none" xmlns="http://www.w3.org/2000/svg">
<g clip-path="url(#clip0)">
<path fill-rule="evenodd" clip-rule="evenodd" d="M43.8154 32.8769C42.4341 32.264 41.0578 31.7982 39.5259 32.1952C38.0506 32.5772 36.8773 33.3467 36.039 34.6084C34.7211 36.5915 34.8209 39.2373 36.2611 41.1037C37.9874 43.341 40.2236 43.7765 43.8487 42.5614V44.1097C43.8487 45.9009 43.8484 45.9005 42.045 46.2043C41.8838 46.2315 41.6927 46.1858 41.5929 46.3761H39.5132C38.4857 46.0221 37.4065 45.8426 36.4216 45.3356C32.8361 43.4906 30.991 39.6996 31.8256 35.8144C32.599 32.2145 36.1552 29.2677 39.9464 29.0851C39.9809 29.0836 40.0157 29.0828 40.0502 29.0813C43.6794 28.9318 43.9705 29.2182 43.8154 32.8769ZM3.16518 29.2329C6.65192 32.4179 9.98496 35.4621 13.317 38.5055C13.6524 38.2792 13.4977 37.9752 13.4989 37.7289C13.5127 35.2699 13.5316 32.8103 13.491 30.352C13.4802 29.6952 13.678 29.5611 14.3061 29.5619C16.7335 29.5657 16.851 29.544 16.8567 31.6934L16.8569 46.1588C13.3342 42.9378 10.0149 39.9026 6.69434 36.8663C6.34725 37.0851 6.51882 37.3887 6.51736 37.6262C6.50156 40.0852 6.48097 42.5448 6.52506 45.0029C6.53691 45.6624 6.34184 45.7938 5.71753 45.7954C3.24751 45.8015 3.16784 45.8235 3.16527 43.5603L3.16518 29.2329ZM19.2863 29.541C21.4311 29.5716 23.5806 29.4849 25.7199 29.5978C27.6014 29.6968 29.1501 30.5066 29.7623 32.4451C30.3557 34.323 29.9081 35.9268 28.1148 37.1095C30.261 38.2236 31.1663 39.8351 30.7847 42.0547C30.4617 43.9347 29.3075 45.118 27.4799 45.6375C27.1854 45.7211 26.8698 45.7675 26.5638 45.7689C24.2109 45.7808 21.8578 45.7592 19.5053 45.7918C18.9189 45.7999 18.7489 45.6379 18.7518 45.0427C18.7754 40.1293 18.7645 35.216 18.7662 30.3026C18.7664 29.9378 18.6549 29.5321 19.2863 29.541ZM24.7492 38.6753L24.5204 38.6761C22.2205 38.69 22.1424 38.6815 22.1397 40.7592L22.1397 41.2175C22.1423 43.3828 22.22 43.3865 24.5505 43.3734C24.9613 43.3709 25.3839 43.3634 25.7792 43.2686C26.6535 43.0585 27.2275 42.4825 27.444 41.614C27.6686 40.7119 27.4404 39.9158 26.7454 39.2663C26.1662 38.7255 25.4713 38.6762 24.7492 38.6753ZM24.2486 32.0362C22.2149 32.0242 22.1423 32.0237 22.1397 33.8942L22.1397 34.3313C22.1423 36.2899 22.2153 36.2884 24.296 36.2473C25.7927 36.2177 26.7493 35.4152 26.7699 34.1726C26.7903 32.9167 25.7617 32.0449 24.2486 32.0362ZM38.9033 17.7721C42.2002 15.5529 45.7549 16.8404 46.8677 20.6495C46.8844 20.7065 46.9547 20.7479 47 20.7965V22.4602C45.8123 25.698 44.4876 26.6079 40.9615 26.6079H26.0732C26.1603 26.2365 26.4845 26.1516 26.7089 25.9996C30.7692 23.2501 34.8357 20.5104 38.9033 17.7721ZM4.40864 16.7368C5.55411 16.5869 6.63116 16.8298 7.5747 17.4612C11.996 20.4199 16.3982 23.4069 20.8052 26.387C20.8435 26.413 20.852 26.4833 20.9086 26.6079H6.04782C2.51138 26.6079 1.16356 25.6837 0 22.4602V20.7965C0.671934 18.5769 1.98481 17.0542 4.40864 16.7368ZM33.4841 9.23413C34.3877 7.21874 36.279 6.21635 38.5639 6.41849C40.494 6.58923 42.1504 7.99965 42.7174 9.95514C43.2697 11.8605 42.6722 14.0406 41.0505 15.1634C36.28 18.4655 31.4546 21.6879 26.649 24.939C26.629 24.9525 26.5849 24.9305 26.5701 24.9282C27.2169 23.4697 27.8585 22.0352 28.4905 20.5965C30.1542 16.8086 31.7911 13.0089 33.4841 9.23413ZM7.83975 6.50503C9.977 5.97971 12.3873 6.90931 13.3021 8.90931C15.6072 13.9481 17.7788 19.0476 19.9996 24.1246C20.0583 24.2592 20.2611 24.4147 20.0323 24.5647C19.7507 24.7496 19.5985 24.4773 19.4163 24.3538C16.1877 22.1681 12.9609 19.9793 9.73534 17.789C8.56554 16.9948 7.39346 16.203 6.23239 15.3961C4.7914 14.3946 4.08952 13.0043 4.09919 11.2529C4.11531 8.97399 5.63199 7.04782 7.83975 6.50503ZM29.7388 0C31.9476 0.678381 33.4629 1.98835 33.8035 4.40115C33.9185 5.21513 33.8089 5.99853 33.4924 6.7314C31.201 12.0353 28.8887 17.3303 26.4536 22.9252C26.1313 20.7154 25.8514 18.8044 25.5739 16.8928C25.1771 14.1597 24.824 11.4193 24.3696 8.69583C24.1311 7.26628 24.6285 6.35581 26.1026 5.86294C25.6263 5.49817 25.2175 5.48923 24.845 5.54912C23.8948 5.70177 23.8204 5.17062 23.9254 4.46271C24.287 2.02578 25.784 0.643235 28.0751 0H29.7388ZM18.9795 0.172278C21.5368 0.542455 23.374 2.98438 23.0092 5.55149C22.1973 11.2647 21.3765 16.9769 20.5263 22.9184C19.4445 20.4388 18.4425 18.1489 17.4457 15.857C16.126 12.8228 14.7561 9.80873 13.5079 6.74521C12.3159 3.81873 14.1694 0.612123 17.2063 0.172278H18.9795Z" fill="black" fill-opacity="0.52"/>
</g>
<defs>
<clipPath id="clip0">
<rect width="47" height="47" fill="white"/>
</clipPath>
</defs>
</svg>
