<svg width="28" height="28" viewBox="0 0 28 28" fill="none" xmlns="http://www.w3.org/2000/svg">
<path fill-rule="evenodd" clip-rule="evenodd" d="M20.1382 2.62196C20.2067 3.10688 20.1414 3.57359 19.9529 4.01019C18.9173 6.40722 17.8746 8.80117 16.7982 11.2724L16.7931 11.2841C16.4522 12.0666 16.108 12.8569 15.7596 13.6576L15.582 12.4411C15.4608 11.6115 15.3478 10.8377 15.2355 10.0638C15.1643 9.57319 15.0954 9.08222 15.0265 8.59124C14.8668 7.45269 14.7072 6.31415 14.518 5.1805C14.3759 4.32885 14.6723 3.78644 15.5504 3.49281C15.2667 3.2755 15.0231 3.27018 14.8012 3.30586C14.2352 3.3968 14.1908 3.08037 14.2534 2.65864C14.4688 1.20685 15.3606 0.383204 16.7256 0H17.7167C19.0326 0.404142 19.9353 1.18455 20.1382 2.62196ZM23.5399 27.6282C23.3268 27.5549 23.1101 27.4941 22.8932 27.4332C22.487 27.3193 22.0806 27.2053 21.6981 27.0084C19.562 25.9092 18.4628 23.6508 18.96 21.3362C19.4208 19.1916 21.5394 17.436 23.7979 17.3272L23.8198 17.3264L23.8598 17.325C26.0218 17.2359 26.1953 17.4065 26.1029 19.5862C25.28 19.2211 24.46 18.9435 23.5474 19.18C22.6685 19.4076 21.9695 19.866 21.4701 20.6177C20.685 21.7992 20.7445 23.3753 21.6024 24.4873C22.6309 25.8201 23.9631 26.0796 26.1227 25.3557V26.278C26.1227 27.3449 26.1226 27.3449 25.049 27.5258L25.0482 27.5259C25.0255 27.5297 25.0018 27.5311 24.9781 27.5326H24.978C24.9013 27.5371 24.8242 27.5417 24.7788 27.6282H23.5399ZM10.0425 27.4992L3.98815 21.9632C3.83169 22.0619 3.85214 22.1894 3.87098 22.3069C3.87704 22.3447 3.88293 22.3815 3.88272 22.4159L3.88075 22.7184C3.8718 24.0825 3.86284 25.4469 3.8873 26.8106C3.89437 27.2034 3.77815 27.2817 3.40622 27.2827L3.3645 27.2828C2.62442 27.2847 2.25472 27.2856 2.07003 27.1013C1.88567 26.9172 1.88567 26.5485 1.88567 25.8117V18.136V17.4157L6.65701 21.7738L7.93355 22.9398C8.08624 22.8368 8.06845 22.7067 8.05189 22.5857C8.04678 22.5483 8.04178 22.5118 8.04196 22.4771L8.04397 22.124V22.124V22.1239V22.1238V22.1237V22.1237V22.1236V22.1235C8.05172 20.7764 8.05947 19.4291 8.03725 18.0824C8.03081 17.6911 8.14863 17.6112 8.52279 17.6117L8.566 17.6118C9.3048 17.6128 9.67391 17.6134 9.85833 17.7982C10.0425 17.9828 10.0425 18.351 10.0425 19.087V26.7628V27.4992ZM27.9211 12.3016C27.2582 10.0323 25.1405 9.26531 23.1764 10.5874C20.7531 12.2187 18.3305 13.8509 15.9116 15.4889C15.8813 15.5094 15.848 15.5279 15.8139 15.5467C15.6976 15.6111 15.573 15.6801 15.5329 15.8513H24.4026C26.5032 15.8513 27.2924 15.3092 27.9999 13.3803V12.3892C27.9914 12.38 27.9813 12.3712 27.9712 12.3624C27.9496 12.3436 27.9279 12.3247 27.9211 12.3016ZM2.62642 9.9711C3.30883 9.88178 3.95048 10.0265 4.51258 10.4026C6.62811 11.8183 8.73628 13.2449 10.8445 14.6715L10.8446 14.6715L10.8447 14.6716L10.8448 14.6717L10.8449 14.6718C11.3615 15.0213 11.878 15.3708 12.3946 15.7201C12.4088 15.7298 12.4161 15.7496 12.4277 15.7811C12.4348 15.8002 12.4434 15.8237 12.4562 15.8517H6.5126H3.60296C1.49614 15.8517 0.693186 15.3011 0 13.3808V12.3896C0.400301 11.0673 1.18244 10.1602 2.62642 9.9711ZM11.307 0.102877H10.2506C8.44142 0.364912 7.33716 2.27523 8.04732 4.01866C8.57422 5.31186 9.1375 6.59024 9.70077 7.86859L9.70079 7.86864C9.93246 8.3944 10.1641 8.92017 10.3932 9.44695C10.7925 10.3651 11.1932 11.2826 11.6088 12.2344L11.6101 12.2372L11.6101 12.2372C11.8122 12.7 12.0178 13.1708 12.2285 13.6538C12.3676 12.6814 12.5054 11.7194 12.6422 10.7648L12.6456 10.7407L12.648 10.7245L12.6502 10.7088C13.0085 8.20788 13.3594 5.75786 13.7077 3.30751C13.925 1.77817 12.8305 0.323408 11.307 0.102877ZM16.2009 14.0141C16.4603 13.4306 16.718 12.8512 16.973 12.2706C17.2933 11.5415 17.6118 10.8116 17.9304 10.0818C18.5978 8.55275 19.2652 7.02372 19.948 5.50149C20.4863 4.30084 21.613 3.70367 22.9742 3.8241C24.1241 3.92581 25.1109 4.76606 25.4486 5.93103C25.7777 7.06615 25.4217 8.36493 24.4556 9.03383C22.3661 10.4801 20.259 11.9008 18.1519 13.3214L18.1514 13.3217L18.151 13.322C17.3924 13.8335 16.6338 14.3449 15.876 14.8576C15.8672 14.8635 15.8508 14.858 15.8391 14.8541C15.8349 14.8527 15.8313 14.8515 15.829 14.8511C15.9533 14.5708 16.0773 14.292 16.2009 14.0141ZM5.48285 10.3823L5.48287 10.3824L5.79979 10.5974C7.72138 11.9023 9.64371 13.2062 11.5672 14.5084C11.5926 14.5256 11.6171 14.5477 11.6418 14.5701C11.7225 14.643 11.8057 14.7183 11.9341 14.634C12.0386 14.5655 11.992 14.4951 11.9488 14.4298C11.9357 14.4099 11.9228 14.3905 11.9147 14.3718C11.5579 13.5562 11.2032 12.7395 10.8486 11.9229L10.8485 11.9228C9.88805 9.71124 8.92758 7.49967 7.92469 5.3074C7.37968 4.11591 5.94375 3.56211 4.67049 3.87506C3.35524 4.19842 2.45168 5.34593 2.44214 6.70356C2.43632 7.74699 2.85446 8.57522 3.71292 9.17189C4.29978 9.57975 4.89137 9.98109 5.48285 10.3823ZM15.3579 25.7775C15.8787 25.6524 16.2207 25.3092 16.3496 24.7918C16.4834 24.2544 16.3475 23.7801 15.9335 23.3932C15.5521 23.0371 15.0865 23.0388 14.6079 23.0416L14.5904 23.0417C13.1897 23.0501 13.1896 23.0501 13.1896 24.4176C13.1896 25.8454 13.1896 25.848 14.6259 25.84C14.8706 25.8385 15.1223 25.834 15.3579 25.7775ZM15.9481 20.3583C15.9602 19.6101 15.3475 19.0908 14.446 19.0856C13.8155 19.0818 13.5014 19.08 13.3449 19.2361C13.1896 19.3911 13.1896 19.7018 13.1896 20.3209C13.1896 20.9726 13.1896 21.2973 13.3519 21.4559C13.513 21.6133 13.8342 21.607 14.4742 21.5943C15.3659 21.5767 15.9358 21.0986 15.9481 20.3583ZM17.7308 19.3293C18.0842 20.448 17.8176 21.4035 16.7493 22.1081C18.0279 22.7718 18.5672 23.7318 18.3398 25.0542C18.1474 26.1742 17.4598 26.8791 16.371 27.1886C16.1956 27.2384 16.0075 27.266 15.8253 27.2669C15.2905 27.2696 14.7557 27.2694 14.221 27.2692C13.354 27.2688 12.487 27.2685 11.6202 27.2805C11.2708 27.2854 11.1696 27.1889 11.1713 26.8343C11.1816 24.6877 11.1809 22.5411 11.1802 20.3945C11.1799 19.614 11.1796 18.8335 11.1799 18.0529C11.1799 18.0243 11.1788 17.9953 11.1776 17.9665C11.1702 17.7763 11.1631 17.5946 11.4897 17.5992C11.9626 17.606 12.4359 17.6031 12.9091 17.6003C13.7145 17.5955 14.5197 17.5907 15.3225 17.6331C16.4434 17.692 17.366 18.1745 17.7308 19.3293Z" fill="#262626"/>
<g clip-path="url(#clip0)">
<path d="M13.999 2.13594C13.5625 1.04608 12.4991 -0.130969 10.5075 0.0307064C7.97056 0.306517 7.1799 2.73781 7.56333 4.1883C6.5529 3.50408 4.83475 3.20319 3.33505 4.4878C1.39875 6.42884 2.43441 9.0538 3.49889 9.68347C2.32575 9.57482 0.471696 10.3675 0.06151 12.4411C-0.37484 15.0157 1.58782 16.5166 3.49889 16.5166H24.691C26.9009 16.5166 28.1271 14.6048 27.9895 12.8018C27.7727 10.4486 25.6193 9.54574 24.4448 9.73916C25.4261 9.19169 26.7368 6.61974 24.7439 4.59784C23.1619 3.0931 21.1452 3.64058 20.4361 4.2969C20.8184 3.03989 20.1916 0.441484 17.6257 0.0304593C17.4483 0.0106634 17.2776 0 17.1148 0C15.1561 0.000246832 14.2754 1.43202 13.999 2.13594Z" fill="white"/>
<path d="M3.68805 4.89884C2.56916 5.91169 2.16194 8.20664 4.1789 9.54822L12.2253 15.0686L8.32381 6.13044C7.5063 4.02121 5.2698 3.56126 3.68805 4.89884Z" fill="#F37021"/>
<path d="M10.6144 0.550828C9.3065 0.577437 7.3425 2.135 8.21653 4.51337L12.2516 14.0298L13.6695 4.0203C13.9977 1.53317 12.1155 0.385105 10.6144 0.550828Z" fill="#CC004C"/>
<path d="M14.2992 3.64052H15.0622C15.0622 3.64052 15.4696 3.64052 15.5251 3.8327C15.2248 4.07791 14.4076 4.10861 14.516 5.4184L15.7987 14.0304L19.8063 4.48893C20.626 2.35852 18.9054 0.579308 17.3791 0.524906C17.3078 0.519772 17.2363 0.515625 17.1623 0.515625C15.7923 0.515625 14.2225 1.51125 14.2992 3.64052Z" fill="#6460AA"/>
<path d="M19.6449 6.21085L15.8544 15.0418L23.8984 9.49229C25.7527 8.17707 25.4536 6.07435 24.4157 5.03504C23.9805 4.54587 23.1816 4.16797 22.3352 4.16797C21.3353 4.16777 20.2653 4.69816 19.6449 6.21085Z" fill="#0089D0"/>
<path d="M22.9979 10.7483L15.4436 16.025H24.7451C26.6534 16.025 27.8798 14.0573 27.3346 12.2517C26.9695 11.1168 25.8892 10.2259 24.6353 10.2246C24.1076 10.2248 23.5479 10.3838 22.9979 10.7483Z" fill="#0DB14B"/>
<path d="M3.47125 16.0241H12.6355L5.07936 10.7475C3.33372 9.62586 1.37081 10.2821 0.662203 12.1433C0.0615619 14.274 1.56126 16.0241 3.47125 16.0241Z" fill="#FCB711"/>
</g>
<defs>
<clipPath id="clip0">
<rect width="28" height="16.5166" fill="white"/>
</clipPath>
</defs>
</svg>
