<svg width="32" height="32" viewBox="0 0 32 32" fill="none" xmlns="http://www.w3.org/2000/svg">
<g opacity="0.5">
<path fill-rule="evenodd" clip-rule="evenodd" d="M23.0151 2.99653C23.0934 3.55073 23.0188 4.08411 22.8033 4.58308C21.6198 7.32265 20.428 10.0587 19.1978 12.8831C18.8064 13.7817 18.4111 14.6892 18.0109 15.6086L17.8079 14.2178L17.8078 14.2169L17.8063 14.2072L17.8052 14.1992L17.8045 14.1945C17.6673 13.2554 17.5393 12.3785 17.412 11.5015C17.3306 10.9408 17.2519 10.3797 17.1732 9.8186L17.1732 9.81854C16.9907 8.51735 16.8082 7.21616 16.592 5.92057C16.4296 4.94726 16.7683 4.32736 17.7719 3.99179C17.4477 3.74343 17.1693 3.73734 16.9157 3.77812C16.2688 3.88205 16.2181 3.52042 16.2896 3.03844C16.5358 1.37926 17.555 0.437947 19.1149 0H20.2477C21.7515 0.461876 22.7832 1.35377 23.0151 2.99653ZM26.9027 31.5751C26.6592 31.4913 26.4115 31.4218 26.1637 31.3523C25.6994 31.2221 25.235 31.0918 24.7978 30.8668C22.3566 29.6105 21.1004 27.0294 21.6686 24.3842C22.1952 21.9332 24.6164 19.9269 27.1976 19.8025L27.233 19.8013L27.2683 19.8C29.7392 19.6982 29.9375 19.8932 29.8318 22.3842C28.8914 21.9669 27.9543 21.6498 26.9113 21.9201C25.9069 22.1802 25.108 22.7041 24.5372 23.5631C23.64 24.9133 23.7079 26.7147 24.6885 27.9855C25.8638 29.5087 27.3864 29.8052 29.8545 28.9779V30.0321C29.8545 31.2513 29.8543 31.2513 28.6274 31.458L28.6264 31.4582C28.6005 31.4626 28.5734 31.4642 28.5463 31.4658C28.4587 31.471 28.3705 31.4762 28.3186 31.5751H26.9027ZM11.4771 31.4272L4.55788 25.1004C4.37907 25.2131 4.40244 25.3589 4.42397 25.4933C4.43089 25.5365 4.43763 25.5785 4.43739 25.6178L4.43513 25.9634C4.4249 27.5225 4.41467 29.0818 4.44262 30.6403C4.4507 31.0893 4.31788 31.1787 3.89282 31.1799L3.84511 31.18H3.84509C2.99931 31.1821 2.57681 31.1832 2.36574 30.9725C2.15505 30.7621 2.15505 30.3407 2.15505 29.4987V20.7265V19.9033L7.58215 24.8603L9.06691 26.2165C9.24141 26.0988 9.22108 25.9501 9.20216 25.8118C9.19631 25.7691 9.1906 25.7273 9.1908 25.6878L9.1931 25.2842C9.20195 23.7445 9.21081 22.2045 9.18542 20.6652C9.17806 20.218 9.31271 20.1267 9.74032 20.1273L9.78971 20.1273C10.634 20.1286 11.0559 20.1292 11.2667 20.3404C11.4771 20.5513 11.4771 20.9722 11.4771 21.8134V30.5856V31.4272ZM31.9099 14.0592C31.1522 11.4657 28.732 10.5891 26.4873 12.1001C23.7179 13.9644 20.9492 15.8298 18.1847 17.7018C18.1501 17.7252 18.112 17.7463 18.0731 17.7679C17.9402 17.8415 17.7978 17.9204 17.7519 18.1159H27.8887C30.2894 18.1159 31.1913 17.4965 32 15.292V14.1593C31.9902 14.1488 31.9786 14.1387 31.9671 14.1287L31.9671 14.1287L31.9671 14.1287L31.9671 14.1287C31.9424 14.1072 31.9176 14.0856 31.9099 14.0592ZM3.00163 11.3953C3.78152 11.2932 4.51483 11.4586 5.15724 11.8885C7.57433 13.506 9.98303 15.1359 12.3918 16.7659L12.393 16.7667L12.3943 16.7676L12.3944 16.7677C12.9847 17.1671 13.5749 17.5665 14.1652 17.9657C14.1814 17.9767 14.1898 17.9994 14.2031 18.0353C14.2112 18.0572 14.2211 18.084 14.2356 18.116H7.44297H4.11766C1.70988 18.116 0.792212 17.4868 0 15.2921V14.1594C0.457487 12.6482 1.35136 11.6114 3.00163 11.3953ZM12.9222 0.117359H11.715C9.64733 0.416828 8.38531 2.60005 9.19692 4.59255C9.79908 6.07045 10.4428 7.53144 11.0865 8.99238L11.0866 8.99244L11.0866 8.99248C11.3514 9.59337 11.6161 10.1943 11.878 10.7963C12.3348 11.8467 12.7933 12.8965 13.2688 13.9855L13.2708 13.9901L13.2739 13.9971C13.5032 14.5222 13.7364 15.0563 13.9754 15.6041C14.1375 14.4711 14.2981 13.3504 14.4574 12.2385L14.4575 12.2376C14.8669 9.37969 15.268 6.57993 15.6659 3.7798C15.9142 2.03198 14.6634 0.369395 12.9222 0.117359ZM18.5153 16.0158L18.5155 16.0152C18.812 15.3485 19.1064 14.6865 19.3978 14.0231C19.7638 13.1898 20.1279 12.3557 20.492 11.5215C21.2547 9.7741 22.0174 8.02667 22.7977 6.28703C23.4129 4.91485 24.7006 4.23237 26.2562 4.37C27.5704 4.48625 28.6982 5.44653 29.0841 6.77793C29.4602 8.07521 29.0534 9.55953 27.9493 10.324C25.5614 11.9768 23.1533 13.6004 20.7453 15.2239L20.7451 15.224C19.8777 15.8088 19.0104 16.3936 18.144 16.9797C18.134 16.9865 18.1152 16.9802 18.1019 16.9757L18.1018 16.9757C18.097 16.9741 18.093 16.9728 18.0903 16.9723C18.2324 16.652 18.374 16.3334 18.5153 16.0158ZM6.26612 11.8659L6.26623 11.866L6.62832 12.1117C8.82443 13.603 11.0214 15.0932 13.2196 16.5814C13.2487 16.6011 13.2766 16.6264 13.3049 16.6519C13.3971 16.7353 13.4922 16.8213 13.639 16.725C13.7584 16.6467 13.7051 16.5662 13.6558 16.4916C13.6408 16.4689 13.6261 16.4467 13.6168 16.4253C13.2091 15.4933 12.8038 14.5601 12.3985 13.627L12.3983 13.6264L12.3983 13.6264C11.3006 11.0989 10.2029 8.57142 9.05678 6.06598C8.43392 4.70429 6.79286 4.07136 5.33771 4.42903C3.83455 4.79859 2.80192 6.11002 2.79101 7.66159C2.78436 8.85409 3.26224 9.80064 4.24333 10.4826C4.91404 10.9487 5.59014 11.4073 6.26612 11.8659ZM17.5518 29.4595C18.1471 29.3164 18.5379 28.9242 18.6853 28.3329C18.8382 27.7187 18.6829 27.1767 18.2097 26.7345C17.7738 26.3276 17.2417 26.3294 16.6948 26.3327L16.6747 26.3328C15.074 26.3424 15.0738 26.3424 15.0738 27.9052C15.0738 29.537 15.0738 29.54 16.7153 29.5308C16.9949 29.5291 17.2827 29.524 17.5518 29.4595ZM18.2264 23.2665C18.2403 22.4114 17.5399 21.8178 16.5097 21.8119C15.7891 21.8076 15.4302 21.8055 15.2513 21.9839C15.0738 22.1611 15.0738 22.5161 15.0738 23.2237C15.0738 23.9685 15.0738 24.3396 15.2593 24.5208C15.4435 24.7007 15.8105 24.6935 16.542 24.679C17.561 24.6589 18.2124 24.1125 18.2264 23.2665ZM20.2637 22.0902C20.6677 23.3688 20.363 24.4608 19.142 25.266C20.6033 26.0245 21.2196 27.1217 20.9598 28.6329C20.7399 29.9129 19.9541 30.7186 18.7098 31.0723C18.5093 31.1292 18.2943 31.1608 18.086 31.1618C17.4749 31.1649 16.8637 31.1646 16.2525 31.1644C15.2617 31.164 14.2709 31.1636 13.2802 31.1774C12.8809 31.1829 12.7653 31.0726 12.7672 30.6673C12.779 28.2141 12.7781 25.7609 12.7773 23.3077C12.777 22.4157 12.7767 21.5236 12.777 20.6315C12.777 20.5989 12.7757 20.5657 12.7744 20.5328C12.7659 20.3154 12.7578 20.1077 13.1311 20.113C13.6716 20.1207 14.2124 20.1175 14.7532 20.1142C15.6737 20.1087 16.594 20.1032 17.5114 20.1517C18.7924 20.2191 19.8469 20.7704 20.2637 22.0902Z" fill="black"/>
</g>
</svg>
