<svg width="60" height="60" viewBox="0 0 60 60" fill="none" xmlns="http://www.w3.org/2000/svg">
<path fill-rule="evenodd" clip-rule="evenodd" d="M43.1535 5.6185C43.3003 6.65761 43.1604 7.6577 42.7564 8.59327C40.5374 13.7297 38.303 18.8595 35.9965 24.1548C35.2625 25.84 34.5211 27.5419 33.7707 29.2662C33.6406 28.3743 33.5159 27.5205 33.395 26.6928L33.3905 26.6619C33.1307 24.8833 32.8885 23.2244 32.6477 21.5652C32.4951 20.514 32.3475 19.4618 32.1999 18.4097L32.1999 18.4096C31.8577 15.9699 31.5156 13.5303 31.1103 11.1011C30.8057 9.2761 31.4408 8.1138 33.3226 7.4846C32.7146 7.01894 32.1926 7.00752 31.7172 7.08398C30.5041 7.27885 30.4091 6.6008 30.5432 5.69708C31.0049 2.58611 32.9158 0.82115 35.8407 0H37.9646C40.7843 0.866018 42.7187 2.53832 43.1535 5.6185ZM50.4425 59.2035C49.986 59.0462 49.5215 58.916 49.0569 58.7856L49.0568 58.7856L49.0568 58.7856L49.0567 58.7856L49.0567 58.7856L49.0567 58.7856L49.0566 58.7856L49.0566 58.7856C48.1863 58.5415 47.3155 58.2972 46.4958 57.8753C41.9185 55.5199 39.5631 50.6803 40.6285 45.7205C41.6159 41.1249 46.1557 37.363 50.9955 37.1299C51.0176 37.1289 51.0397 37.1282 51.0618 37.1275L51.063 37.1274C51.0847 37.1267 51.1064 37.126 51.128 37.1251C55.761 36.9342 56.1327 37.2998 55.9346 41.9705C54.1713 41.1881 52.4143 40.5934 50.4587 41.1002C48.5753 41.5879 47.0775 42.5702 46.0073 44.1809C44.3249 46.7126 44.4523 50.0901 46.2908 52.4729C48.4946 55.329 51.3494 55.8849 55.9771 54.3337V56.3102C55.9771 58.5963 55.9769 58.5963 53.6763 58.9839L53.6746 58.9842C53.6259 58.9924 53.5751 58.9954 53.5242 58.9985C53.3599 59.0082 53.1947 59.018 53.0974 59.2035H50.4425ZM21.5196 58.9261L12.1101 50.3223L8.54609 47.0633C8.21081 47.2747 8.25463 47.548 8.295 47.7999C8.30798 47.8809 8.32061 47.9596 8.32016 48.0334L8.31594 48.6815C8.29675 51.6047 8.27757 54.5284 8.32998 57.4505C8.34511 58.2924 8.09609 58.4602 7.2991 58.4623L7.20967 58.4625C5.6238 58.4665 4.83158 58.4685 4.43582 58.0734C4.04078 57.679 4.04078 56.8889 4.04078 55.3102V38.8622V37.3186C7.5249 40.5012 10.8888 43.5737 14.226 46.6217L17.0005 49.1559C17.3277 48.9352 17.2896 48.6565 17.2541 48.3971C17.2431 48.317 17.2324 48.2387 17.2328 48.1646L17.2371 47.4077V47.4076V47.4075V47.4074V47.4072V47.4071V47.407V47.4069C17.2537 44.5202 17.2703 41.6331 17.2227 38.7472C17.2089 37.9088 17.4614 37.7376 18.2632 37.7386L18.3557 37.7388C19.9389 37.7411 20.7299 37.7422 21.125 38.1383C21.5196 38.5338 21.5196 39.3229 21.5196 40.9001V57.348V58.9261ZM59.8313 26.3611C58.4106 21.4984 53.8727 19.8548 49.6639 22.6878C44.4713 26.1834 39.2799 29.681 34.0966 33.191C34.0317 33.235 33.9602 33.2745 33.8872 33.315C33.6381 33.4529 33.371 33.6008 33.285 33.9675H52.2914C56.7928 33.9675 58.4839 32.806 60.0001 28.6726V26.5488C59.9817 26.529 59.9602 26.5103 59.9386 26.4915L59.9385 26.4914C59.8921 26.4511 59.8458 26.4107 59.8313 26.3611ZM5.62817 21.3662C7.09048 21.1747 8.46543 21.4848 9.66994 22.2908C14.2036 25.3247 18.7215 28.3819 23.2395 31.4391C24.3462 32.188 25.453 32.937 26.5599 33.6855C26.5903 33.7062 26.606 33.7487 26.6309 33.8162L26.631 33.8162C26.6461 33.8572 26.6646 33.9074 26.6919 33.9675H13.9557H7.72074C3.20614 33.9675 1.48552 32.7877 0.00012207 28.6726V26.5487C0.85791 23.7152 2.53393 21.7713 5.62817 21.3662ZM24.2292 0.21993H21.9657C18.0888 0.781434 15.7225 4.87497 17.2443 8.6109C18.3732 11.3818 19.5802 14.1211 20.7871 16.8602L20.7872 16.8604L20.7873 16.8605L20.7874 16.8607L20.7874 16.8608C21.2838 17.9875 21.7803 19.1141 22.2712 20.2429C23.1262 22.2088 23.9842 24.1736 24.874 26.2113L24.8763 26.2165L24.8788 26.2223C25.3118 27.2138 25.7524 28.2228 26.2039 29.2575C26.5079 27.1332 26.8089 25.0319 27.1075 22.9471L27.1076 22.9465C27.8753 17.5875 28.6274 12.3376 29.3735 7.08701C29.8392 3.80984 27.4939 0.692496 24.2292 0.21993ZM34.716 30.0302L34.7169 30.0282C35.2727 28.7782 35.8246 27.537 36.3709 26.2934C37.0572 24.7309 37.7399 23.1668 38.4226 21.6028C39.8528 18.3264 41.2829 15.05 42.7458 11.7882C43.8994 9.21542 46.3137 7.93577 49.2306 8.19382C51.6946 8.41179 53.8092 10.2123 54.5329 12.7087C55.238 15.1411 54.4753 17.9242 52.405 19.3575C47.9277 22.4566 43.4126 25.5008 38.8974 28.5449L38.897 28.5452L38.8969 28.5453L38.8936 28.5475L38.8927 28.5481C37.2679 29.6435 35.6431 30.739 34.0201 31.837C34.0014 31.8497 33.966 31.8379 33.9411 31.8296C33.9321 31.8265 33.9245 31.824 33.9194 31.8232C34.1856 31.2231 34.451 30.6261 34.7156 30.0312L34.716 30.0302ZM7.95636 19.6547C9.21387 20.5286 10.4815 21.3886 11.7489 22.2484L12.4282 22.7093C16.5459 25.5054 20.6652 28.2997 24.7869 31.09C24.8414 31.1269 24.8938 31.1743 24.9468 31.2222C25.1196 31.3785 25.2981 31.5399 25.5733 31.3592C25.7971 31.2124 25.6973 31.0615 25.6047 30.9216C25.5765 30.879 25.5491 30.8375 25.5316 30.7974C24.767 29.0495 24.007 27.2995 23.247 25.5495L23.2469 25.5493L23.2468 25.5492C21.1887 20.8102 19.1306 16.0712 16.9816 11.3736C15.8137 8.8204 12.7367 7.63368 10.0083 8.3043C7.1899 8.99722 5.2537 11.4562 5.23326 14.3654C5.22078 16.6013 6.1168 18.3761 7.95636 19.6547ZM32.9097 55.2365C34.0258 54.9683 34.7586 54.2329 35.0349 53.1243C35.3217 51.9726 35.0304 50.9563 34.1432 50.1272C33.326 49.3642 32.3283 49.3676 31.3027 49.3737L31.2652 49.374C28.2637 49.392 28.2634 49.392 28.2634 52.3222C28.2634 55.382 28.2634 55.3875 31.3412 55.3703C31.8656 55.3671 32.405 55.3575 32.9097 55.2365ZM34.1745 43.6246C34.2005 42.0213 32.8874 40.9084 30.9557 40.8973C29.6047 40.8893 28.9316 40.8853 28.5963 41.2198C28.2634 41.552 28.2634 42.2177 28.2634 43.5444C28.2634 44.9409 28.2634 45.6367 28.6112 45.9765C28.9566 46.3138 29.6448 46.3002 31.0163 46.2731C32.927 46.2354 34.1482 45.2109 34.1745 43.6246ZM37.9946 41.4192C38.752 43.8166 38.1807 45.864 35.8914 47.3738C38.6312 48.796 39.7869 50.8533 39.2997 53.6868C38.8874 56.0868 37.414 57.5975 35.0809 58.2606C34.7049 58.3674 34.3019 58.4266 33.9114 58.4284C32.7654 58.4342 31.6195 58.4338 30.4735 58.4333C28.6157 58.4326 26.758 58.4319 24.9005 58.4576C24.1518 58.468 23.9349 58.2612 23.9387 57.5013C23.9607 52.9017 23.9591 48.3021 23.9575 43.7024C23.957 42.0297 23.9564 40.3569 23.957 38.6842C23.957 38.6229 23.9546 38.5608 23.9522 38.499C23.9362 38.0914 23.921 37.7021 24.621 37.712C25.6343 37.7264 26.6484 37.7203 27.6624 37.7143C29.3883 37.704 31.1138 37.6936 32.8341 37.7845C35.2359 37.9108 37.213 38.9446 37.9946 41.4192Z" fill="#808080"/>
</svg>
