<svg width="104" height="104" viewBox="0 0 104 104" fill="none" xmlns="http://www.w3.org/2000/svg">
<path fill-rule="evenodd" clip-rule="evenodd" d="M52.0001 104C21.3611 104 -3.23637 77.2448 0.43168 45.9585C3.02089 22.2241 22.2242 3.02074 46.1744 0.215766C77.4607 -3.23652 104 21.1452 104 51.7842C104 80.6971 80.6972 104 52.0001 104Z" fill="#F7F7F7"/>
<path fill-rule="evenodd" clip-rule="evenodd" d="M52.0001 104C64.2989 104 75.5188 99.6846 84.3652 92.5643V86.9543C84.3652 83.502 83.0706 80.4813 81.1287 77.6763C76.8134 70.9875 69.4773 66.8879 61.7096 66.0249C58.9047 65.8091 55.4524 65.5933 51.7843 65.5933C48.3321 65.5933 45.0955 65.8091 42.2906 66.0249C34.5229 66.8879 27.6184 70.7717 23.0872 77.029C20.9296 80.0498 19.4192 83.2863 19.4192 86.9543V92.3485C28.2657 99.6846 39.7013 104 52.0001 104Z" fill="white"/>
<path d="M85.4438 91.7012V86.9543C85.4438 83.7178 84.3649 80.4813 81.9915 77.029C77.4604 70.1245 70.1243 65.8091 61.7093 64.946C55.0205 64.2987 48.5475 64.2987 42.0745 64.946C33.8753 65.8091 26.755 69.9087 22.0081 76.3817C19.4189 79.834 18.1243 83.5021 18.1243 86.9543V91.4855C18.7716 92.1328 19.6346 92.5643 20.2819 93.2116V86.9543C20.2819 83.9336 21.3608 80.9129 23.7342 77.6763C28.0496 71.6348 34.7384 67.751 42.2902 67.1037C48.5475 66.4564 55.0205 66.4564 61.4936 67.1037C69.2612 67.9668 75.95 71.8506 80.2654 78.1079C82.2073 81.1286 83.2861 83.9336 83.2861 86.7386V93.2116C83.9334 92.7801 84.7965 92.1328 85.4438 91.7012Z" fill="#262626"/>
<path fill-rule="evenodd" clip-rule="evenodd" d="M50.2736 59.9834C59.1201 60.1992 66.4562 52 66.672 41.8589C66.8877 31.7178 59.9832 23.0871 51.1367 22.8714C42.2902 22.6556 34.9541 30.8548 34.5226 40.9958C34.3068 51.3527 41.4272 59.7676 50.2736 59.9834Z" fill="white"/>
<path d="M44.8796 59.9834C38.1908 57.1784 33.4439 49.8423 33.6597 40.9959C33.8754 30.2075 41.8588 21.5768 51.1368 21.7925C60.6306 22.0083 67.9667 31.0705 67.7509 41.8589C67.5352 52.6473 59.5518 61.278 50.2738 61.0622C48.3319 61.0622 46.3899 60.6307 44.8796 59.9834ZM55.668 25.029C54.1576 24.3817 52.6472 24.166 51.1368 23.9502C42.9377 23.7344 36.0331 31.5021 35.8173 40.9959C35.6016 50.7054 42.0746 58.6888 50.2738 58.9046C58.4729 59.1203 65.3775 51.3527 65.5933 41.8589C65.809 34.0913 61.7094 27.4025 55.668 25.029Z" fill="#262626"/>
<path fill-rule="evenodd" clip-rule="evenodd" d="M71.4191 27.6183C67.5353 46.8216 44.0166 33.2282 39.917 33.6598C35.6017 34.0913 37.3278 42.9378 36.249 42.9378C34.9543 42.9378 34.9543 42.722 34.7386 42.722C32.7967 42.2905 33.6597 35.1702 33.444 34.3071C31.7178 27.6183 31.7178 23.3029 38.1909 20.0664C38.4066 19.8507 37.112 19.4191 37.3278 18.9876C37.7593 18.3403 39.7012 19.4191 39.917 19.2033C48.5477 16.8299 74.0083 15.3195 71.4191 27.6183Z" fill="white"/>
<path d="M34.0913 43.8008C32.3652 42.9378 32.581 39.2697 32.581 36.249C32.581 35.6017 32.581 34.9544 32.581 34.7386C31.0706 28.9129 30.4233 23.7345 36.6805 20.0664C36.4648 19.6349 36.249 19.2033 36.6805 18.7718C37.3279 17.4772 39.054 18.1245 39.9171 18.3403H40.1328C47.2532 16.1826 63.8673 15.1038 70.1245 20.4979C72.2822 22.4398 73.1453 25.0291 72.498 28.0498C71.6349 32.5809 69.693 35.6017 66.4565 37.5436C60.1992 41.2116 50.9212 38.1909 44.8797 36.249C42.722 35.6017 40.5644 34.9544 39.9171 34.9544C38.1909 35.1701 37.7594 37.9751 37.7594 40.9959C37.7594 42.9378 37.5436 44.2324 36.249 44.4481C35.1702 44.4481 34.7386 44.4481 34.3071 44.2324C34.3071 43.8008 34.0913 43.8008 34.0913 43.8008ZM39.4855 20.7137V21.1452L38.8382 21.361C33.0125 24.166 32.7967 27.6183 34.5229 34.3071C34.5229 34.7386 34.5229 35.1701 34.5229 36.4647C34.5229 37.7593 34.3071 41.4274 34.9544 42.0747L34.7386 43.1535L35.1702 42.0747C35.1702 42.0747 35.1702 42.0747 35.3859 42.0747C35.3859 41.6432 35.3859 41.2116 35.3859 40.7801C35.6017 37.9751 35.8175 33.2282 39.4855 32.7967C40.7801 32.5809 42.722 33.2282 45.3113 34.0913C51.137 35.8174 59.7677 38.6224 65.1619 35.3859C67.7511 33.8755 69.2615 31.2863 70.1245 27.4025C70.5561 25.2448 70.1245 23.3029 68.3984 22.0083C62.7884 17.0457 46.8216 18.3403 40.1328 20.7137C40.1328 20.7137 39.9171 20.7137 39.4855 20.7137Z" fill="#262626"/>
</svg>
