<svg width="20" height="24" viewBox="0 0 20 24" fill="none" xmlns="http://www.w3.org/2000/svg">
<path d="M19.4686 5.54062L14.242 0.39375C14.1717 0.323437 14.0733 0.28125 13.9702 0.28125H4.32798C2.87017 0.28125 1.68892 1.52813 1.68892 3.06563V13.3406H0.404541V20.3063H1.68892V20.9344C1.68892 22.4672 2.87485 23.7188 4.32798 23.7188H16.9561C18.4139 23.7188 19.5952 22.4719 19.5952 20.9344V5.84531C19.5952 5.73281 19.553 5.62031 19.4686 5.54062ZM13.8389 1.14375L18.3858 5.625H15.9108C14.767 5.625 13.8389 4.71094 13.8389 3.59062V1.14375ZM18.7983 20.9344C18.7983 22.0078 17.9733 22.8797 16.9561 22.8797H4.32798C3.31079 22.8797 2.48579 22.0078 2.48579 20.9344V20.3063H11.2514C12.9624 20.3063 14.3452 18.7453 14.3452 16.8234C14.3452 14.9016 12.9577 13.3406 11.2514 13.3406H2.48579V3.06563C2.48579 1.99219 3.31079 1.12031 4.32798 1.12031H13.042V3.59062C13.042 5.175 14.3264 6.46406 15.9108 6.46406H18.7983V20.9344ZM2.87017 18.5812V15.0656H4.21548C4.60454 15.0656 4.90923 15.1641 5.12485 15.3656C5.34048 15.5672 5.45298 15.8297 5.45298 16.1578C5.45298 16.4859 5.34517 16.7531 5.12485 16.95C4.90454 17.1469 4.59985 17.25 4.21548 17.25H3.4561V18.5812H2.87017ZM6.16548 18.5812V15.0656H7.32798C7.77329 15.0656 8.13423 15.2062 8.41548 15.4828C8.69673 15.7594 8.83267 16.1203 8.83267 16.5563V17.0906C8.83267 17.5312 8.69204 17.8875 8.41548 18.1641C8.13423 18.4406 7.77329 18.5812 7.32798 18.5812H6.16548ZM11.6311 16.6125V17.0812H10.2155V18.5812H9.62486V15.0656H11.8749V15.5344H10.2108V16.6078H11.6311V16.6125Z" fill="#202020"/>
</svg>
