<svg width="160" height="160" viewBox="0 0 160 160" fill="none" xmlns="http://www.w3.org/2000/svg">
<path d="M77.8112 131.015C70.676 131.012 63.5589 130.296 56.5659 128.878C14.5332 119.261 11.9105 87.8563 11.9105 87.5371V87.0652C11.6885 69.2742 22.6928 58.3665 32.0179 52.3575C46.7412 42.8097 60.6318 38.7297 78.4634 38.7297C85.0427 38.7823 91.6132 39.2226 98.1407 40.0481C106.356 41.0195 133.97 46.3624 144.614 74.2008C146.46 79.3565 146.999 84.8896 146.183 90.3048C145.367 95.72 143.221 100.848 139.937 105.231C128.656 120.885 104.302 131.015 77.8112 131.015Z" fill="white"/>
<path d="M78.4079 39.4237C84.9595 39.4776 91.5022 39.9178 98.0019 40.7421C114.89 42.7404 135.469 52.3576 143.92 74.4506C154.397 105.384 119.691 130.322 77.8112 130.322C70.7271 130.32 63.661 129.608 56.7186 128.198C17.8081 119.289 12.5905 90.8817 12.5905 87.5372C12.5905 84.1927 11.4942 66.4711 32.3371 52.9404C47.6015 43.0319 61.6864 39.4237 78.4079 39.4237ZM78.4079 38.036C60.3681 38.036 46.4914 42.1992 31.5878 51.7747C22.1655 57.8808 10.9947 68.969 11.2028 87.0792V87.5372C11.2028 89.2857 12.5905 97.5984 18.946 106.591C24.4967 114.432 35.5981 124.785 56.4133 129.558C63.4568 130.984 70.6249 131.705 77.8112 131.709C104.51 131.709 129.155 121.412 140.451 105.633C143.8 101.168 145.989 95.941 146.822 90.4215C147.655 84.9019 147.106 79.2619 145.224 74.0066C134.428 45.7519 106.481 40.3396 98.1684 39.3127C91.6131 38.4869 85.0149 38.0467 78.4079 37.9943V38.036Z" fill="#494949"/>
<path d="M69.6241 120.482C78.8105 114.931 87.4696 119.983 89.0516 119.983C94.2509 119.124 99.4016 117.994 104.483 116.597C122.217 111.365 129.932 101.692 129.932 101.692L79.9762 80.0432L60.3683 97.2791C52.0423 97.5567 53.1663 105.342 53.1663 105.342C53.1663 105.342 46.4916 111.906 44.0354 112.766C47.7682 116.083 69.6241 120.482 69.6241 120.482Z" fill="#1BD27F" stroke="#494949" stroke-width="2" stroke-miterlimit="10"/>
<path d="M69.4852 121.162C68.5832 120.982 47.4073 116.694 43.5773 113.294L42.6892 112.503L43.8132 112.114C45.6172 111.476 50.4463 107.021 52.4446 105.078C52.2889 102.969 52.9219 100.877 54.2208 99.2082C54.9726 98.3833 55.8905 97.7268 56.9142 97.2819C57.9378 96.837 59.044 96.6138 60.16 96.627L79.865 79.2662L131.112 101.47L130.543 102.122C130.224 102.525 122.55 112.031 104.746 117.263C99.5786 118.678 94.3397 119.817 89.0514 120.677C88.76 120.677 88.2466 120.677 87.5389 120.58C86.0541 120.455 83.7922 120.274 80.8642 120.274C77.1455 120.276 73.433 120.578 69.7628 121.176H69.6379L69.4852 121.162Z" fill="#1BD27F"/>
<path d="M79.9204 80.0432L129.877 101.692C129.877 101.692 122.217 111.406 104.427 116.597C99.3648 118.006 94.2327 119.151 89.0513 120.024C88.1355 120.024 85.1936 119.622 80.8641 119.622C77.0993 119.623 73.3406 119.925 69.6239 120.524C69.6239 120.524 47.768 116.125 44.0351 112.808C46.4913 111.948 53.1661 105.384 53.1661 105.384C53.1661 105.384 52.042 97.5983 60.3681 97.3208L79.9204 80.0432ZM79.6568 78.3918L79.0046 78.9746L59.7714 95.9191C58.6038 95.9275 57.4506 96.1786 56.3852 96.6564C55.3197 97.1342 54.3653 97.8283 53.5824 98.6946C52.2616 100.43 51.6068 102.582 51.7367 104.759C49.1834 107.229 45.062 110.907 43.5772 111.42L41.3569 112.198L43.1193 113.807C47.0186 117.249 67.0706 121.412 69.3463 121.842H69.5961H69.8459C73.4891 121.253 77.1735 120.956 80.8641 120.954C83.7643 120.954 86.0123 121.135 87.4833 121.26C88.2187 121.26 88.7044 121.357 89.0513 121.357C90.9802 121.357 102.526 118.581 104.871 117.915C122.911 112.614 130.695 102.941 131.029 102.539L132.139 101.151L130.543 100.415L80.5865 78.7804L79.6568 78.3918Z" fill="#494949"/>
<path d="M35.7507 121.037C38.3597 115.362 42.3564 114.348 43.2446 113.53" stroke="#494949" stroke-miterlimit="10"/>
<path d="M80.2673 79.4604L80.42 78.8915C82.3269 72.4981 85.679 66.6292 90.217 61.7388C97.1553 54.3421 107.965 49.027 108.756 49.027C112.642 49.5821 134.706 60.5731 137.481 75.1168C137.816 76.9469 137.919 78.812 137.786 80.6678C137.678 82.4266 137.729 84.1917 137.939 85.9413C138.688 91.8115 135.982 97.5706 130.349 102.178L130.002 102.442L80.2673 79.4604Z" fill="#1BD27F"/>
<path d="M108.756 49.7485C112.573 50.2759 134.026 61.0726 136.829 75.2555C137.62 79.2522 136.69 81.4865 137.273 86.0938C138.328 94.3093 132.236 99.8049 129.932 101.692L81.0862 79.0718C82.981 72.804 86.2739 67.0482 90.7166 62.2383C95.9341 57.029 102.044 52.7986 108.756 49.7485ZM108.756 48.3608C107.646 48.3608 96.6698 53.9118 89.7036 61.2808C85.0937 66.258 81.6853 72.2254 79.7401 78.7249L79.4487 79.8489L80.5034 80.3347L129.35 102.955L130.14 103.316L130.807 102.761C136.649 98.0008 139.438 92.0195 138.647 85.9134C138.448 84.2001 138.401 82.4725 138.508 80.751C138.653 78.8255 138.545 76.8895 138.189 74.9918C135.192 59.8375 112.961 48.9298 108.951 48.3747H108.756V48.3608Z" fill="#494949"/>
<path d="M32.4771 58.7273L33.4068 58.0334C33.9619 57.5755 47.0893 47.8612 54.6382 46.4734C55.8803 46.3097 57.1321 46.2309 58.385 46.2375C63.5282 46.2788 68.6342 45.3611 73.4412 43.5314C75.1224 42.9357 76.9065 42.6856 78.6866 42.7959C89.121 43.2232 99.4149 45.3562 109.16 49.1102L110.076 49.471L109.438 50.2065C105.927 54.2449 100.556 60.5036 100.126 61.1836C99.7068 61.8849 99.3759 62.6353 99.141 63.4179C98.7015 65.1742 97.6606 66.7209 96.1991 67.7894C94.7206 68.9018 93.051 69.7342 91.2729 70.2457C89.8035 70.5944 88.4881 71.4129 87.5261 72.5771C84.5565 75.8522 80.4629 80.5012 80.4629 80.5012L80.1298 80.8898L32.4771 58.7273Z" fill="#F7F7F7"/>
<path d="M78.7283 43.4898C89.0629 43.9163 99.2582 46.0305 108.91 49.7486C108.91 49.7486 100.154 59.8376 99.5296 60.8506C98.1142 63.1266 98.6276 65.2082 95.8522 67.2898C91.3978 70.5372 90.024 68.8996 87.0544 72.1747C84.0847 75.4498 79.9911 80.1127 79.9911 80.1127L33.8232 58.5886C33.8232 58.5886 47.2836 48.4857 54.7632 47.1813C58.1352 46.5984 65.3373 47.5837 73.7466 44.1837C75.3442 43.6221 77.0381 43.3862 78.7283 43.4898ZM78.7283 42.1021C76.8426 41.9897 74.9538 42.2636 73.1776 42.907C68.4534 44.6973 63.4369 45.5915 58.385 45.5437C57.0848 45.5421 55.7863 45.6349 54.4995 45.8213C46.784 47.209 33.5317 57.0621 32.9628 57.4784L31.1172 58.8662L33.2126 59.8515L79.3389 81.3061L80.2825 81.7502L80.9625 80.9592C80.9625 80.9592 85.1255 76.2825 88.0119 73.0351C88.9091 71.969 90.1254 71.2197 91.4811 70.898C93.3329 70.3754 95.0699 69.5091 96.6016 68.3445C98.1896 67.2017 99.3245 65.5361 99.8071 63.64C100.02 62.9115 100.323 62.2123 100.709 61.5584C101.181 60.8229 106.634 54.4947 109.951 50.6645L111.242 49.249L109.424 48.5274C99.6083 44.7422 89.2393 42.5905 78.7283 42.1576V42.1021Z" fill="#494949"/>
<path d="M43.6889 113.377C42.4122 112.628 31.1998 106.091 29.8121 103.913C29.0679 102.949 28.276 102.022 27.4392 101.137C24.5112 97.8204 20.5702 93.3657 20.3482 90.6319V90.2988C20.0429 86.5519 19.4185 78.7665 20.9865 74.8808C22.2853 72.1073 23.8368 69.4594 25.6214 66.9706C26.4011 65.8811 27.1147 64.7457 27.7584 63.5706C28.8383 61.8409 30.2538 60.345 31.9214 59.1714L32.2406 58.9494L81.0867 79.7796L80.4345 80.5012C80.4345 80.5012 74.2871 87.2457 71.8171 90.049C70.0749 91.877 68.1757 93.5487 66.1415 95.0449C64.5878 96.1992 63.105 97.4458 61.7009 98.778C60.5931 99.9428 59.6584 101.261 58.9256 102.691C58.0749 104.366 56.9858 105.909 55.6923 107.271C52.7227 110.255 44.5909 113.308 44.244 113.433L43.9248 113.544L43.6889 113.377Z" fill="#1BD27F"/>
<path d="M32.2822 59.7405L79.9211 80.0433C79.9211 80.0433 73.7875 86.7184 71.2897 89.6188C68.7919 92.5192 63.8518 95.6139 61.1597 98.2784C58.4676 100.943 58.0929 103.829 55.1927 106.771C52.2925 109.714 43.9942 112.767 43.9942 112.767C43.9942 112.767 31.6994 105.647 30.2978 103.524C28.8963 101.401 21.2779 94.0874 21.0004 90.5764C20.7228 87.0654 20.0151 78.9886 21.5555 75.1307C23.0958 71.2727 27.4808 65.7356 28.3273 63.8621C29.3451 62.2303 30.6749 60.8155 32.2406 59.6988L32.2822 59.7405ZM32.0602 58.1029L31.4218 58.5747C29.6612 59.8136 28.1734 61.4007 27.0506 63.2376C26.4593 64.3942 25.8013 65.5155 25.0801 66.596C23.273 69.1195 21.7029 71.8047 20.3898 74.6172C18.7524 78.6694 19.3907 86.5658 19.696 90.3682V90.6874C19.918 93.4629 23.0958 97.2376 26.9119 101.554C27.7269 102.438 28.4958 103.365 29.2154 104.329C30.7002 106.536 40.4278 112.295 43.3836 114.043L43.9525 114.376L44.5631 114.14C44.91 114.016 53.1945 110.907 56.2612 107.812C57.602 106.404 58.733 104.811 59.6194 103.08C60.2778 101.669 61.143 100.364 62.1866 99.2082C63.5765 97.8993 65.0406 96.6714 66.5716 95.5307C68.638 94.0165 70.5694 92.3264 72.3444 90.4792C74.8006 87.7037 80.8786 81.0147 80.948 80.9454L82.3356 79.5576L80.5317 78.7805L32.8373 58.4637L32.1018 58.1445L32.0602 58.1029Z" fill="#494949"/>
<path opacity="0.5" d="M107.827 88.2032C109.636 88.2032 111.102 87.2713 111.102 86.1216C111.102 84.972 109.636 84.04 107.827 84.04C106.018 84.04 104.552 84.972 104.552 86.1216C104.552 87.2713 106.018 88.2032 107.827 88.2032Z" stroke="#494949" stroke-miterlimit="10"/>
<path d="M124.937 82.9436C128.279 82.9436 130.988 81.2164 130.988 79.0857C130.988 76.955 128.279 75.2277 124.937 75.2277C121.595 75.2277 118.886 76.955 118.886 79.0857C118.886 81.2164 121.595 82.9436 124.937 82.9436Z" fill="black" fill-opacity="0.2"/>
<path d="M82.5434 100.374C85.2872 100.374 87.5115 98.6466 87.5115 96.5159C87.5115 94.3852 85.2872 92.658 82.5434 92.658C79.7995 92.658 77.5752 94.3852 77.5752 96.5159C77.5752 98.6466 79.7995 100.374 82.5434 100.374Z" fill="black" fill-opacity="0.2"/>
<path d="M15.3661 81.653C15.5807 81.653 15.7547 81.5163 15.7547 81.3477C15.7547 81.1791 15.5807 81.0424 15.3661 81.0424C15.1515 81.0424 14.9775 81.1791 14.9775 81.3477C14.9775 81.5163 15.1515 81.653 15.3661 81.653Z" fill="#494949"/>
<path d="M16.629 81.3477C16.8437 81.3477 17.0176 81.211 17.0176 81.0424C17.0176 80.8738 16.8437 80.7371 16.629 80.7371C16.4144 80.7371 16.2405 80.8738 16.2405 81.0424C16.2405 81.211 16.4144 81.3477 16.629 81.3477Z" fill="#494949"/>
<path d="M16.518 80.5429C17.0622 80.5429 17.5033 80.2012 17.5033 79.7796C17.5033 79.3581 17.0622 79.0164 16.518 79.0164C15.9739 79.0164 15.5327 79.3581 15.5327 79.7796C15.5327 80.2012 15.9739 80.5429 16.518 80.5429Z" fill="#494949"/>
<path d="M47.1226 123.541C47.409 123.299 47.4885 122.922 47.3002 122.699C47.1118 122.477 46.7269 122.494 46.4405 122.737C46.1541 122.98 46.0746 123.357 46.2629 123.579C46.4513 123.801 46.8362 123.784 47.1226 123.541Z" fill="#494949"/>
<path d="M46.6173 121.296C46.9914 120.979 47.0977 120.489 46.8548 120.203C46.6119 119.916 46.1118 119.941 45.7377 120.259C45.3636 120.576 45.2572 121.065 45.5001 121.352C45.743 121.638 46.2432 121.613 46.6173 121.296Z" fill="#494949"/>
<path d="M120.507 49.2691C120.881 48.9518 120.988 48.4624 120.745 48.176C120.502 47.8895 120.002 47.9145 119.628 48.2318C119.254 48.5491 119.147 49.0385 119.39 49.3249C119.633 49.6113 120.133 49.5863 120.507 49.2691Z" fill="#494949"/>
<path d="M127.74 110.672C127.904 110.533 127.948 110.316 127.839 110.188C127.73 110.059 127.509 110.067 127.345 110.206C127.182 110.345 127.137 110.562 127.247 110.69C127.356 110.819 127.577 110.811 127.74 110.672Z" fill="#494949"/>
<path d="M127.762 112.535C128.177 112.183 128.293 111.637 128.02 111.315C127.748 110.994 127.19 111.019 126.775 111.371C126.36 111.722 126.245 112.268 126.517 112.59C126.79 112.911 127.347 112.887 127.762 112.535Z" fill="#494949"/>
<path d="M107.771 93.1436C106.843 93.5607 106.041 94.2153 105.447 95.0413C104.852 95.8673 104.486 96.8354 104.385 97.848C104.385 100.873 107.535 103.399 111.435 103.399C115.335 103.399 118.374 101.095 118.471 98.1811L107.771 93.1436Z" fill="black" fill-opacity="0.2"/>
<path d="M35.5996 91.5894C39.4931 91.5894 42.6494 89.1414 42.6494 86.1216C42.6494 83.1019 39.4931 80.6539 35.5996 80.6539C31.7061 80.6539 28.5498 83.1019 28.5498 86.1216C28.5498 89.1414 31.7061 91.5894 35.5996 91.5894Z" fill="black" fill-opacity="0.2"/>
<path opacity="0.2" d="M102.568 52.9959C103.94 53.0129 105.304 52.7777 106.592 52.302L108.757 49.7485L108.438 49.5681C104.837 48.1967 101.152 47.0564 97.4052 46.1542C96.894 46.4893 96.4609 46.9304 96.1352 47.4476C95.8095 47.9648 95.599 48.546 95.5178 49.1518C95.5178 51.275 98.6264 52.9959 102.568 52.9959Z" fill="#494949"/>
<path d="M64.0318 56.8399C66.5074 56.8399 68.5142 55.8086 68.5142 54.5363C68.5142 53.264 66.5074 52.2326 64.0318 52.2326C61.5562 52.2326 59.5493 53.264 59.5493 54.5363C59.5493 55.8086 61.5562 56.8399 64.0318 56.8399Z" stroke="#494949" stroke-miterlimit="10"/>
<path d="M89.8009 80.5845C91.7246 80.5845 93.2842 79.6525 93.2842 78.5028C93.2842 77.3532 91.7246 76.4212 89.8009 76.4212C87.8771 76.4212 86.3176 77.3532 86.3176 78.5028C86.3176 79.6525 87.8771 80.5845 89.8009 80.5845Z" fill="black" fill-opacity="0.2"/>
<path opacity="0.2" d="M46.1307 56.84C47.1884 56.84 48.0458 56.3305 48.0458 55.702C48.0458 55.0736 47.1884 54.5641 46.1307 54.5641C45.073 54.5641 44.2156 55.0736 44.2156 55.702C44.2156 56.3305 45.073 56.84 46.1307 56.84Z" fill="#494949"/>
<path opacity="0.2" d="M84.5694 65.7494C86.4932 65.7494 88.0527 64.8174 88.0527 63.6678C88.0527 62.5181 86.4932 61.5861 84.5694 61.5861C82.6457 61.5861 81.0862 62.5181 81.0862 63.6678C81.0862 64.8174 82.6457 65.7494 84.5694 65.7494Z" fill="#494949"/>
<path opacity="0.5" d="M25.7743 99.2081C26.8151 98.764 28.6885 98.0562 28.5498 96.3493C28.389 95.5703 27.9456 94.8784 27.305 94.4069C26.6644 93.9354 25.8719 93.7177 25.0804 93.7958C24.1268 93.7762 23.1973 94.0959 22.4575 94.6979C23.3247 96.3628 24.4434 97.8841 25.7743 99.2081V99.2081Z" stroke="#494949" stroke-miterlimit="10"/>
<path opacity="0.5" d="M48.8646 92.3665C50.7884 92.3665 52.3479 91.4345 52.3479 90.2849C52.3479 89.1352 50.7884 88.2032 48.8646 88.2032C46.9409 88.2032 45.3813 89.1352 45.3813 90.2849C45.3813 91.4345 46.9409 92.3665 48.8646 92.3665Z" stroke="#494949" stroke-miterlimit="10"/>
<path d="M61.9226 72.369L56.9961 70.2457C55.8442 70.5927 55.0532 71.2865 55.0532 72.1053C55.0532 73.2572 56.6075 74.2008 58.5365 74.2008C60.4655 74.2008 61.7006 73.3959 61.9226 72.369Z" fill="black" fill-opacity="0.2"/>
<path opacity="0.5" d="M82.5436 116.736C85.3947 116.736 87.706 115.157 87.706 113.211C87.706 111.264 85.3947 109.686 82.5436 109.686C79.6924 109.686 77.3811 111.264 77.3811 113.211C77.3811 115.157 79.6924 116.736 82.5436 116.736Z" stroke="#494949" stroke-miterlimit="10"/>
<path d="M63.4769 113.211C60.632 113.211 58.3145 114.793 58.3145 116.735C58.3195 117.173 58.434 117.602 58.6475 117.984C61.423 118.692 64.1985 119.372 66.1553 119.747C66.8209 119.547 67.4122 119.154 67.8544 118.618C68.2966 118.082 68.5698 117.427 68.6393 116.735C68.6393 114.793 66.3357 113.211 63.4769 113.211Z" fill="black" fill-opacity="0.2"/>
<path opacity="0.5" d="M107.022 62.2384C108.831 62.2384 110.297 61.5549 110.297 60.7118C110.297 59.8688 108.831 59.1853 107.022 59.1853C105.213 59.1853 103.747 59.8688 103.747 60.7118C103.747 61.5549 105.213 62.2384 107.022 62.2384Z" stroke="#494949" stroke-miterlimit="10"/>
<path d="M74.356 61.7387V35.5795" stroke="#494949" stroke-miterlimit="10" stroke-linecap="round"/>
<path fill-rule="evenodd" clip-rule="evenodd" d="M95.5192 32.582L74.356 20.8V43.7396L95.5192 32.582Z" fill="white" stroke="#494949" stroke-linecap="round" stroke-linejoin="round"/>
<path fill-rule="evenodd" clip-rule="evenodd" d="M80.4482 27.3225C80.6362 27.3131 80.8241 27.342 81.0006 27.4075C81.177 27.473 81.3383 27.5738 81.4746 27.7036C81.6109 27.8334 81.7194 27.9896 81.7934 28.1626C81.8675 28.3357 81.9055 28.522 81.9053 28.7102V30.9445C82.5223 30.6404 83.2345 30.5922 83.8868 30.8105C84.5392 31.0288 85.0789 31.496 85.3886 32.1102L84.0841 32.7347C83.9373 32.473 83.6962 32.2771 83.41 32.1869C83.1239 32.0966 82.814 32.1189 82.5437 32.249C82.3555 32.336 82.1943 32.4722 82.077 32.6431C81.9598 32.8141 81.8909 33.0136 81.8775 33.2204V33.2898C81.8729 33.4674 81.911 33.6435 81.9886 33.8033C82.0571 33.9403 82.1513 34.0628 82.2661 34.1641C82.4422 34.2983 82.6514 34.382 82.8714 34.4065C83.0914 34.4309 83.3139 34.3951 83.5151 34.3029C83.6723 34.227 83.8103 34.1163 83.9184 33.9793C84.0266 33.8423 84.1023 33.6824 84.1396 33.5119L83.3624 33.2482L85.5135 32.2213L86.5404 34.3723L85.6245 34.0531C85.5166 34.4009 85.3375 34.7224 85.0986 34.9971C84.8597 35.2719 84.5662 35.4939 84.2367 35.649C83.7936 35.8637 83.2997 35.9514 82.8098 35.9024C82.3198 35.8534 81.853 35.6697 81.4612 35.3715L80.4482 34.511V27.3225ZM78.6857 31.1249L79.0465 31.4302L80.2678 33.9837V34.3029L76.6318 31.2498C76.8822 30.9565 77.2377 30.7733 77.6219 30.7396C78.006 30.7058 78.388 30.8243 78.6857 31.0694V31.1249ZM78.5053 28.2245C78.7942 28.2136 79.0799 28.2881 79.3267 28.4387C79.5735 28.5892 79.7705 28.8092 79.8931 29.071L80.2816 30.0425V33.498L77.8114 28.4327C78.0059 28.3384 78.2198 28.2909 78.4359 28.2939" fill="#3DDB93"/>
<path fill-rule="evenodd" clip-rule="evenodd" d="M71.0533 60.7952C72.6492 59.1576 77.9921 59.9764 77.9921 61.6278C77.9921 63.0156 74.9806 63.0156 73.5512 63.0156C72.1218 63.0156 69.957 61.947 71.0533 60.7952Z" stroke="#494949" stroke-linecap="round" stroke-linejoin="round"/>
<path d="M130.099 102.775C131.622 103.414 132.986 104.379 134.096 105.601C135.206 106.824 136.035 108.275 136.524 109.852" stroke="#494949" stroke-miterlimit="10"/>
<path d="M110.283 49.582C111.427 47.5302 112.976 45.7315 114.835 44.2947" stroke="#494949" stroke-miterlimit="10"/>
<path d="M32.6299 58.9633C30.7564 57.7676 28.7046 56.8776 26.5515 56.3265" stroke="#494949" stroke-miterlimit="10"/>
<path d="M28.5338 19.5264C28.9221 19.5264 29.2847 19.584 29.6218 19.6992C29.9589 19.8144 30.249 19.9829 30.4922 20.2048C30.7397 20.4224 30.9338 20.6891 31.0746 21.0048C31.2154 21.3205 31.2858 21.6789 31.2858 22.08C31.2858 22.4213 31.2346 22.7371 31.1322 23.0272C31.0298 23.3173 30.8911 23.5968 30.7162 23.8656C30.5413 24.1301 30.3386 24.3883 30.1082 24.64C29.8821 24.8875 29.641 25.1413 29.385 25.4016L26.9722 27.872C27.1429 27.8251 27.3157 27.7888 27.4906 27.7632C27.6655 27.7333 27.8341 27.7184 27.9962 27.7184H31.0682C31.1919 27.7184 31.2901 27.7547 31.3626 27.8272C31.4351 27.8997 31.4714 27.9936 31.4714 28.1088V28.8H25.353V28.4096C25.353 28.3285 25.3679 28.2453 25.3978 28.16C25.4319 28.0747 25.4853 27.9957 25.5578 27.9232L28.4954 24.9728C28.7386 24.7253 28.9605 24.4885 29.161 24.2624C29.3615 24.032 29.5322 23.8016 29.673 23.5712C29.8181 23.3408 29.929 23.1083 30.0058 22.8736C30.0826 22.6347 30.121 22.3808 30.121 22.112C30.121 21.8432 30.0783 21.6085 29.993 21.408C29.9077 21.2032 29.7903 21.0347 29.641 20.9024C29.4917 20.7701 29.3167 20.672 29.1162 20.608C28.9157 20.5397 28.7002 20.5056 28.4698 20.5056C28.2394 20.5056 28.0261 20.5397 27.8298 20.608C27.6335 20.6763 27.4586 20.7723 27.305 20.896C27.1557 21.0155 27.0277 21.1584 26.921 21.3248C26.8186 21.4912 26.7461 21.6747 26.7034 21.8752C26.6693 21.9989 26.6181 22.0885 26.5498 22.144C26.4815 22.1995 26.3919 22.2272 26.281 22.2272C26.2597 22.2272 26.2362 22.2272 26.2106 22.2272C26.1893 22.2229 26.1637 22.2187 26.1338 22.2144L25.5386 22.112C25.5983 21.6939 25.7135 21.3248 25.8842 21.0048C26.0549 20.6805 26.2703 20.4096 26.5306 20.192C26.7951 19.9744 27.0959 19.8101 27.433 19.6992C27.7743 19.584 28.1413 19.5264 28.5338 19.5264Z" fill="#494949"/>
<path d="M38.3716 20.128C38.3716 20.2901 38.3204 20.4245 38.218 20.5312C38.1156 20.6336 37.9428 20.6848 37.6996 20.6848H34.8196L34.3972 23.0912C34.8751 22.9888 35.3167 22.9376 35.722 22.9376C36.1999 22.9376 36.6201 23.008 36.9828 23.1488C37.3497 23.2896 37.6569 23.4837 37.9044 23.7312C38.1519 23.9787 38.3375 24.2709 38.4612 24.608C38.5892 24.9451 38.6532 25.312 38.6532 25.7088C38.6532 26.1952 38.5679 26.6347 38.3972 27.0272C38.2265 27.4197 37.9919 27.7568 37.6932 28.0384C37.3988 28.3157 37.0511 28.5291 36.65 28.6784C36.2489 28.8277 35.8159 28.9024 35.3508 28.9024C35.082 28.9024 34.8239 28.8747 34.5764 28.8192C34.3289 28.768 34.0985 28.6976 33.8852 28.608C33.6719 28.5184 33.4735 28.416 33.29 28.3008C33.1065 28.1856 32.9444 28.064 32.8036 27.936L33.1492 27.4496C33.226 27.3387 33.3284 27.2832 33.4564 27.2832C33.5375 27.2832 33.6313 27.3173 33.738 27.3856C33.8489 27.4496 33.9812 27.5221 34.1348 27.6032C34.2884 27.6843 34.4676 27.7589 34.6724 27.8272C34.8815 27.8912 35.1289 27.9232 35.4148 27.9232C35.7348 27.9232 36.0228 27.872 36.2788 27.7696C36.5348 27.6672 36.7524 27.5221 36.9316 27.3344C37.1151 27.1424 37.2559 26.9141 37.354 26.6496C37.4521 26.3851 37.5012 26.0885 37.5012 25.76C37.5012 25.4741 37.4585 25.216 37.3732 24.9856C37.2921 24.7552 37.1663 24.5589 36.9956 24.3968C36.8292 24.2347 36.6201 24.1088 36.3684 24.0192C36.1167 23.9296 35.8223 23.8848 35.4852 23.8848C35.2548 23.8848 35.0159 23.904 34.7684 23.9424C34.5209 23.9808 34.2649 24.0427 34.0004 24.128L33.2836 23.9168L34.026 19.6288H38.3716V20.128Z" fill="#494949"/>
<path d="M44.0622 21.8432C44.0622 22.2016 44.0067 22.5237 43.8958 22.8096C43.7849 23.0912 43.6355 23.3301 43.4478 23.5264C43.2643 23.7184 43.0489 23.8656 42.8014 23.968C42.5539 24.0704 42.2958 24.1216 42.027 24.1216C41.7369 24.1216 41.4681 24.0704 41.2206 23.968C40.9774 23.8656 40.7641 23.7184 40.5806 23.5264C40.3971 23.3301 40.2542 23.0912 40.1518 22.8096C40.0494 22.5237 39.9982 22.2016 39.9982 21.8432C39.9982 21.4763 40.0494 21.1499 40.1518 20.864C40.2542 20.5781 40.3971 20.3371 40.5806 20.1408C40.7641 19.9445 40.9774 19.7952 41.2206 19.6928C41.4681 19.5904 41.7369 19.5392 42.027 19.5392C42.3129 19.5392 42.5795 19.5904 42.827 19.6928C43.0787 19.7952 43.2942 19.9445 43.4734 20.1408C43.6569 20.3371 43.7998 20.5781 43.9022 20.864C44.0089 21.1499 44.0622 21.4763 44.0622 21.8432ZM43.1726 21.8432C43.1726 21.5616 43.1427 21.3227 43.083 21.1264C43.0233 20.9301 42.9401 20.7701 42.8334 20.6464C42.731 20.5184 42.6094 20.4267 42.4686 20.3712C42.3321 20.3157 42.1849 20.288 42.027 20.288C41.8691 20.288 41.7198 20.3157 41.579 20.3712C41.4425 20.4267 41.323 20.5184 41.2206 20.6464C41.1182 20.7701 41.0371 20.9301 40.9774 21.1264C40.9219 21.3227 40.8942 21.5616 40.8942 21.8432C40.8942 22.1205 40.9219 22.3573 40.9774 22.5536C41.0371 22.7456 41.1182 22.9035 41.2206 23.0272C41.323 23.1467 41.4425 23.2341 41.579 23.2896C41.7198 23.3408 41.8691 23.3664 42.027 23.3664C42.1849 23.3664 42.3321 23.3408 42.4686 23.2896C42.6094 23.2341 42.731 23.1467 42.8334 23.0272C42.9401 22.9035 43.0233 22.7456 43.083 22.5536C43.1427 22.3573 43.1726 22.1205 43.1726 21.8432ZM47.2686 19.8592C47.3241 19.7867 47.3817 19.7312 47.4414 19.6928C47.5054 19.6501 47.5886 19.6288 47.691 19.6288H48.5102L41.8094 28.6144C41.7667 28.6699 41.7155 28.7147 41.6558 28.7488C41.5961 28.7829 41.5257 28.8 41.4446 28.8H40.5998L47.2686 19.8592ZM49.131 26.6368C49.131 26.9952 49.0755 27.3152 48.9646 27.5968C48.8537 27.8784 48.7043 28.1173 48.5166 28.3136C48.3331 28.5056 48.1177 28.6528 47.8702 28.7552C47.627 28.8576 47.371 28.9088 47.1022 28.9088C46.8121 28.9088 46.5433 28.8576 46.2958 28.7552C46.0526 28.6528 45.8393 28.5056 45.6558 28.3136C45.4723 28.1173 45.3294 27.8784 45.227 27.5968C45.1246 27.3152 45.0734 26.9952 45.0734 26.6368C45.0734 26.2699 45.1246 25.9435 45.227 25.6576C45.3294 25.3675 45.4723 25.1243 45.6558 24.928C45.8393 24.7317 46.0526 24.5824 46.2958 24.48C46.5433 24.3776 46.8121 24.3264 47.1022 24.3264C47.3881 24.3264 47.6547 24.3776 47.9022 24.48C48.1497 24.5824 48.3651 24.7317 48.5486 24.928C48.7321 25.1243 48.875 25.3675 48.9774 25.6576C49.0798 25.9435 49.131 26.2699 49.131 26.6368ZM48.2478 26.6368C48.2478 26.3552 48.2179 26.1163 48.1582 25.92C48.0985 25.7195 48.0153 25.5573 47.9086 25.4336C47.8062 25.3099 47.6846 25.2203 47.5438 25.1648C47.4073 25.1093 47.2601 25.0816 47.1022 25.0816C46.9443 25.0816 46.795 25.1093 46.6542 25.1648C46.5177 25.2203 46.3982 25.3099 46.2958 25.4336C46.1934 25.5573 46.1123 25.7195 46.0526 25.92C45.9971 26.1163 45.9694 26.3552 45.9694 26.6368C45.9694 26.9141 45.9971 27.1488 46.0526 27.3408C46.1123 27.5328 46.1934 27.6907 46.2958 27.8144C46.3982 27.9339 46.5177 28.0213 46.6542 28.0768C46.795 28.128 46.9443 28.1536 47.1022 28.1536C47.2601 28.1536 47.4073 28.128 47.5438 28.0768C47.6846 28.0213 47.8062 27.9339 47.9086 27.8144C48.0153 27.6907 48.0985 27.5328 48.1582 27.3408C48.2179 27.1488 48.2478 26.9141 48.2478 26.6368Z" fill="#494949"/>
<path d="M1.18921 3.54559H2.63561C2.78494 3.54559 2.90868 3.58186 3.00681 3.65439C3.10921 3.72266 3.17748 3.81653 3.21161 3.93599L4.78601 9.47199C4.82441 9.60853 4.85854 9.75786 4.88841 9.91999C4.92254 10.0779 4.95454 10.2464 4.98441 10.4256C5.01854 10.2464 5.05481 10.0779 5.09321 9.91999C5.13588 9.75786 5.18068 9.60853 5.22761 9.47199L7.04521 3.93599C7.07934 3.83786 7.14548 3.74826 7.24361 3.66719C7.34601 3.58613 7.46974 3.54559 7.61481 3.54559H8.12041C8.26974 3.54559 8.39348 3.58186 8.49161 3.65439C8.58974 3.72266 8.65801 3.81653 8.69641 3.93599L10.5012 9.47199C10.5951 9.74506 10.6761 10.048 10.7444 10.3808C10.7743 10.2144 10.8041 10.0544 10.834 9.90079C10.8681 9.74719 10.9023 9.60426 10.9364 9.47199L12.5108 3.93599C12.5407 3.82933 12.6068 3.73759 12.7092 3.66079C12.8116 3.58399 12.9353 3.54559 13.0804 3.54559H14.4308L11.5572 12.8H10.002L7.97961 6.47679C7.95401 6.39573 7.92628 6.30826 7.89641 6.21439C7.87081 6.12053 7.84521 6.02026 7.81961 5.91359C7.79401 6.02026 7.76628 6.12053 7.73641 6.21439C7.71081 6.30826 7.68521 6.39573 7.65961 6.47679L5.61801 12.8H4.06281L1.18921 3.54559Z" fill="#494949"/>
<path d="M17.8083 6.13119C18.2222 6.13119 18.6019 6.19733 18.9475 6.32959C19.2974 6.46186 19.5982 6.65599 19.8499 6.91199C20.1016 7.16373 20.2979 7.47519 20.4387 7.84639C20.5795 8.21333 20.6499 8.63359 20.6499 9.10719C20.6499 9.22666 20.6435 9.32693 20.6307 9.40799C20.6222 9.48479 20.603 9.54666 20.5731 9.59359C20.5475 9.63626 20.5112 9.66826 20.4643 9.68959C20.4174 9.70666 20.3576 9.71519 20.2851 9.71519H16.2275C16.2744 10.3893 16.4558 10.8843 16.7715 11.2C17.0872 11.5157 17.5054 11.6736 18.0259 11.6736C18.2819 11.6736 18.5016 11.6437 18.6851 11.584C18.8728 11.5243 19.035 11.4581 19.1715 11.3856C19.3123 11.3131 19.4339 11.2469 19.5363 11.1872C19.643 11.1275 19.7454 11.0976 19.8435 11.0976C19.9075 11.0976 19.963 11.1104 20.0099 11.136C20.0568 11.1616 20.0974 11.1979 20.1315 11.2448L20.5923 11.8208C20.4174 12.0256 20.2211 12.1984 20.0035 12.3392C19.7859 12.4757 19.5576 12.5867 19.3187 12.672C19.084 12.7531 18.843 12.8107 18.5955 12.8448C18.3523 12.8789 18.1155 12.896 17.8851 12.896C17.4286 12.896 17.004 12.8213 16.6115 12.672C16.219 12.5184 15.8776 12.2944 15.5875 12C15.2974 11.7013 15.0691 11.3344 14.9027 10.8992C14.7363 10.4597 14.6531 9.95199 14.6531 9.37599C14.6531 8.92799 14.7256 8.50773 14.8707 8.11519C15.0158 7.71839 15.2227 7.37493 15.4915 7.08479C15.7646 6.79039 16.0952 6.55786 16.4835 6.38719C16.876 6.21653 17.3176 6.13119 17.8083 6.13119ZM17.8403 7.26399C17.3795 7.26399 17.019 7.39413 16.7587 7.65439C16.4984 7.91466 16.332 8.28373 16.2595 8.76159H19.2291C19.2291 8.55679 19.2014 8.36479 19.1459 8.18559C19.0904 8.00213 19.0051 7.84213 18.8899 7.70559C18.7747 7.56906 18.6296 7.46239 18.4547 7.38559C18.2798 7.30453 18.075 7.26399 17.8403 7.26399Z" fill="#494949"/>
<path d="M27.1208 6.13119C27.5347 6.13119 27.9144 6.19733 28.26 6.32959C28.6099 6.46186 28.9107 6.65599 29.1624 6.91199C29.4141 7.16373 29.6104 7.47519 29.7512 7.84639C29.892 8.21333 29.9624 8.63359 29.9624 9.10719C29.9624 9.22666 29.956 9.32693 29.9432 9.40799C29.9347 9.48479 29.9155 9.54666 29.8856 9.59359C29.86 9.63626 29.8237 9.66826 29.7768 9.68959C29.7299 9.70666 29.6701 9.71519 29.5976 9.71519H25.54C25.5869 10.3893 25.7683 10.8843 26.084 11.2C26.3997 11.5157 26.8179 11.6736 27.3384 11.6736C27.5944 11.6736 27.8141 11.6437 27.9976 11.584C28.1853 11.5243 28.3475 11.4581 28.484 11.3856C28.6248 11.3131 28.7464 11.2469 28.8488 11.1872C28.9555 11.1275 29.0579 11.0976 29.156 11.0976C29.22 11.0976 29.2755 11.1104 29.3224 11.136C29.3693 11.1616 29.4099 11.1979 29.444 11.2448L29.9048 11.8208C29.7299 12.0256 29.5336 12.1984 29.316 12.3392C29.0984 12.4757 28.8701 12.5867 28.6312 12.672C28.3965 12.7531 28.1555 12.8107 27.908 12.8448C27.6648 12.8789 27.428 12.896 27.1976 12.896C26.7411 12.896 26.3165 12.8213 25.924 12.672C25.5315 12.5184 25.1901 12.2944 24.9 12C24.6099 11.7013 24.3816 11.3344 24.2152 10.8992C24.0488 10.4597 23.9656 9.95199 23.9656 9.37599C23.9656 8.92799 24.0381 8.50773 24.1832 8.11519C24.3283 7.71839 24.5352 7.37493 24.804 7.08479C25.0771 6.79039 25.4077 6.55786 25.796 6.38719C26.1885 6.21653 26.6301 6.13119 27.1208 6.13119ZM27.1528 7.26399C26.692 7.26399 26.3315 7.39413 26.0712 7.65439C25.8109 7.91466 25.6445 8.28373 25.572 8.76159H28.5416C28.5416 8.55679 28.5139 8.36479 28.4584 8.18559C28.4029 8.00213 28.3176 7.84213 28.2024 7.70559C28.0872 7.56906 27.9421 7.46239 27.7672 7.38559C27.5923 7.30453 27.3875 7.26399 27.1528 7.26399Z" fill="#494949"/>
<path d="M36.3903 12.8H35.6799C35.5306 12.8 35.4132 12.7787 35.3279 12.736C35.2426 12.6891 35.1786 12.5973 35.1359 12.4608L34.9951 11.9936C34.8287 12.1429 34.6644 12.2752 34.5023 12.3904C34.3444 12.5013 34.1802 12.5952 34.0095 12.672C33.8388 12.7488 33.6575 12.8064 33.4655 12.8448C33.2735 12.8832 33.0602 12.9024 32.8255 12.9024C32.5482 12.9024 32.2922 12.8661 32.0575 12.7936C31.8228 12.7168 31.6202 12.6037 31.4495 12.4544C31.2831 12.3051 31.153 12.1195 31.0591 11.8976C30.9652 11.6757 30.9183 11.4176 30.9183 11.1232C30.9183 10.8757 30.9823 10.6325 31.1103 10.3936C31.2426 10.1504 31.4602 9.93279 31.7631 9.74079C32.066 9.54453 32.4692 9.38239 32.9727 9.25439C33.4762 9.12639 34.1012 9.05386 34.8479 9.03679V8.65279C34.8479 8.21333 34.754 7.88906 34.5663 7.67999C34.3828 7.46666 34.114 7.35999 33.7599 7.35999C33.5039 7.35999 33.2906 7.38986 33.1199 7.44959C32.9492 7.50933 32.7999 7.57759 32.6719 7.65439C32.5482 7.72693 32.433 7.79306 32.3263 7.85279C32.2196 7.91253 32.1023 7.94239 31.9743 7.94239C31.8676 7.94239 31.7759 7.91466 31.6991 7.85919C31.6223 7.80373 31.5604 7.73546 31.5135 7.65439L31.2255 7.14879C31.9807 6.45759 32.8916 6.11199 33.9583 6.11199C34.3423 6.11199 34.6836 6.17599 34.9823 6.30399C35.2852 6.42773 35.5412 6.60266 35.7503 6.82879C35.9594 7.05066 36.1172 7.31733 36.2239 7.62879C36.3348 7.94026 36.3903 8.28159 36.3903 8.65279V12.8ZM33.3183 11.8144C33.4804 11.8144 33.6298 11.7995 33.7663 11.7696C33.9028 11.7397 34.0308 11.6949 34.1503 11.6352C34.274 11.5755 34.3914 11.5029 34.5023 11.4176C34.6175 11.328 34.7327 11.2235 34.8479 11.104V9.99679C34.3871 10.0181 34.001 10.0587 33.6895 10.1184C33.3823 10.1739 33.1348 10.2464 32.9471 10.336C32.7594 10.4256 32.625 10.5301 32.5439 10.6496C32.4671 10.7691 32.4287 10.8992 32.4287 11.04C32.4287 11.3173 32.5098 11.5157 32.6719 11.6352C32.8383 11.7547 33.0538 11.8144 33.3183 11.8144Z" fill="#494949"/>
<path d="M37.9447 12.8V6.23359H38.8727C39.0348 6.23359 39.1479 6.26346 39.2119 6.32319C39.2759 6.38293 39.3186 6.48533 39.3399 6.63039L39.4359 7.42399C39.6706 7.01866 39.9458 6.69866 40.2615 6.46399C40.5772 6.22933 40.9314 6.11199 41.3239 6.11199C41.6482 6.11199 41.917 6.18666 42.1303 6.33599L41.9255 7.51999C41.9127 7.59679 41.885 7.65226 41.8423 7.68639C41.7996 7.71626 41.742 7.73119 41.6695 7.73119C41.6055 7.73119 41.518 7.71626 41.4071 7.68639C41.2962 7.65653 41.149 7.64159 40.9655 7.64159C40.637 7.64159 40.3554 7.73333 40.1207 7.91679C39.886 8.09599 39.6876 8.36053 39.5255 8.71039V12.8H37.9447Z" fill="#494949"/>
<path d="M43.1697 12.8V6.23359H44.1361C44.3409 6.23359 44.4753 6.32959 44.5393 6.52159L44.6481 7.03999C44.7804 6.90346 44.919 6.77973 45.0641 6.66879C45.2134 6.55786 45.3692 6.46186 45.5313 6.38079C45.6977 6.29973 45.8748 6.23786 46.0625 6.19519C46.2502 6.15253 46.455 6.13119 46.6769 6.13119C47.0353 6.13119 47.3532 6.19306 47.6305 6.31679C47.9078 6.43626 48.1382 6.60693 48.3217 6.82879C48.5094 7.04639 48.6502 7.30879 48.7441 7.61599C48.8422 7.91893 48.8913 8.25386 48.8913 8.62079V12.8H47.3105V8.62079C47.3105 8.21973 47.2166 7.91039 47.0289 7.69279C46.8454 7.47093 46.5681 7.35999 46.1969 7.35999C45.9238 7.35999 45.6678 7.42186 45.4289 7.54559C45.19 7.66933 44.9638 7.83786 44.7505 8.05119V12.8H43.1697Z" fill="#494949"/>
<path d="M114.825 149.229V149.741C114.825 149.886 114.808 150.005 114.774 150.099C114.744 150.193 114.712 150.272 114.678 150.336L110.883 157.997C110.827 158.108 110.75 158.204 110.652 158.285C110.554 158.362 110.422 158.4 110.255 158.4H109.443L113.295 150.835C113.351 150.729 113.406 150.63 113.462 150.541C113.522 150.451 113.588 150.366 113.66 150.285H108.873C108.801 150.285 108.734 150.257 108.675 150.202C108.619 150.142 108.591 150.076 108.591 150.003V149.229H114.825Z" fill="#494949"/>
<path d="M121.572 149.728C121.572 149.89 121.52 150.025 121.418 150.131C121.316 150.234 121.143 150.285 120.9 150.285H118.02L117.597 152.691C118.075 152.589 118.517 152.538 118.922 152.538C119.4 152.538 119.82 152.608 120.183 152.749C120.55 152.89 120.857 153.084 121.104 153.331C121.352 153.579 121.538 153.871 121.661 154.208C121.789 154.545 121.853 154.912 121.853 155.309C121.853 155.795 121.768 156.235 121.597 156.627C121.427 157.02 121.192 157.357 120.893 157.638C120.599 157.916 120.251 158.129 119.85 158.278C119.449 158.428 119.016 158.502 118.551 158.502C118.282 158.502 118.024 158.475 117.776 158.419C117.529 158.368 117.299 158.298 117.085 158.208C116.872 158.118 116.674 158.016 116.49 157.901C116.307 157.786 116.144 157.664 116.004 157.536L116.349 157.05C116.426 156.939 116.528 156.883 116.656 156.883C116.738 156.883 116.831 156.917 116.938 156.986C117.049 157.05 117.181 157.122 117.335 157.203C117.488 157.284 117.668 157.359 117.872 157.427C118.082 157.491 118.329 157.523 118.615 157.523C118.935 157.523 119.223 157.472 119.479 157.37C119.735 157.267 119.952 157.122 120.132 156.934C120.315 156.742 120.456 156.514 120.554 156.25C120.652 155.985 120.701 155.689 120.701 155.36C120.701 155.074 120.659 154.816 120.573 154.586C120.492 154.355 120.366 154.159 120.196 153.997C120.029 153.835 119.82 153.709 119.568 153.619C119.317 153.53 119.022 153.485 118.685 153.485C118.455 153.485 118.216 153.504 117.968 153.542C117.721 153.581 117.465 153.643 117.2 153.728L116.484 153.517L117.226 149.229H121.572V149.728Z" fill="#494949"/>
<path d="M127.262 151.443C127.262 151.802 127.207 152.124 127.096 152.41C126.985 152.691 126.836 152.93 126.648 153.126C126.464 153.318 126.249 153.466 126.001 153.568C125.754 153.67 125.496 153.722 125.227 153.722C124.937 153.722 124.668 153.67 124.421 153.568C124.177 153.466 123.964 153.318 123.781 153.126C123.597 152.93 123.454 152.691 123.352 152.41C123.249 152.124 123.198 151.802 123.198 151.443C123.198 151.076 123.249 150.75 123.352 150.464C123.454 150.178 123.597 149.937 123.781 149.741C123.964 149.545 124.177 149.395 124.421 149.293C124.668 149.19 124.937 149.139 125.227 149.139C125.513 149.139 125.78 149.19 126.027 149.293C126.279 149.395 126.494 149.545 126.673 149.741C126.857 149.937 127 150.178 127.102 150.464C127.209 150.75 127.262 151.076 127.262 151.443ZM126.373 151.443C126.373 151.162 126.343 150.923 126.283 150.726C126.223 150.53 126.14 150.37 126.033 150.246C125.931 150.118 125.809 150.027 125.669 149.971C125.532 149.916 125.385 149.888 125.227 149.888C125.069 149.888 124.92 149.916 124.779 149.971C124.643 150.027 124.523 150.118 124.421 150.246C124.318 150.37 124.237 150.53 124.177 150.726C124.122 150.923 124.094 151.162 124.094 151.443C124.094 151.721 124.122 151.957 124.177 152.154C124.237 152.346 124.318 152.504 124.421 152.627C124.523 152.747 124.643 152.834 124.779 152.89C124.92 152.941 125.069 152.966 125.227 152.966C125.385 152.966 125.532 152.941 125.669 152.89C125.809 152.834 125.931 152.747 126.033 152.627C126.14 152.504 126.223 152.346 126.283 152.154C126.343 151.957 126.373 151.721 126.373 151.443ZM130.469 149.459C130.524 149.387 130.582 149.331 130.641 149.293C130.705 149.25 130.789 149.229 130.891 149.229H131.71L125.009 158.214C124.967 158.27 124.916 158.315 124.856 158.349C124.796 158.383 124.726 158.4 124.645 158.4H123.8L130.469 149.459ZM132.331 156.237C132.331 156.595 132.276 156.915 132.165 157.197C132.054 157.478 131.904 157.717 131.717 157.914C131.533 158.106 131.318 158.253 131.07 158.355C130.827 158.458 130.571 158.509 130.302 158.509C130.012 158.509 129.743 158.458 129.496 158.355C129.253 158.253 129.039 158.106 128.856 157.914C128.672 157.717 128.529 157.478 128.427 157.197C128.325 156.915 128.273 156.595 128.273 156.237C128.273 155.87 128.325 155.544 128.427 155.258C128.529 154.968 128.672 154.724 128.856 154.528C129.039 154.332 129.253 154.182 129.496 154.08C129.743 153.978 130.012 153.926 130.302 153.926C130.588 153.926 130.855 153.978 131.102 154.08C131.35 154.182 131.565 154.332 131.749 154.528C131.932 154.724 132.075 154.968 132.177 155.258C132.28 155.544 132.331 155.87 132.331 156.237ZM131.448 156.237C131.448 155.955 131.418 155.716 131.358 155.52C131.299 155.32 131.215 155.157 131.109 155.034C131.006 154.91 130.885 154.82 130.744 154.765C130.607 154.709 130.46 154.682 130.302 154.682C130.144 154.682 129.995 154.709 129.854 154.765C129.718 154.82 129.598 154.91 129.496 155.034C129.393 155.157 129.312 155.32 129.253 155.52C129.197 155.716 129.169 155.955 129.169 156.237C129.169 156.514 129.197 156.749 129.253 156.941C129.312 157.133 129.393 157.291 129.496 157.414C129.598 157.534 129.718 157.621 129.854 157.677C129.995 157.728 130.144 157.754 130.302 157.754C130.46 157.754 130.607 157.728 130.744 157.677C130.885 157.621 131.006 157.534 131.109 157.414C131.215 157.291 131.299 157.133 131.358 156.941C131.418 156.749 131.448 156.514 131.448 156.237Z" fill="#494949"/>
<path d="M113.087 138.803V142.4H111.365V138.803L107.993 133.146H109.509C109.659 133.146 109.776 133.182 109.861 133.254C109.951 133.327 110.026 133.419 110.085 133.53L111.781 136.621C111.88 136.804 111.965 136.979 112.037 137.146C112.11 137.308 112.176 137.468 112.236 137.626C112.291 137.464 112.353 137.301 112.421 137.139C112.494 136.973 112.579 136.8 112.677 136.621L114.361 133.53C114.408 133.436 114.478 133.348 114.572 133.267C114.666 133.186 114.785 133.146 114.93 133.146H116.453L113.087 138.803Z" fill="#494949"/>
<path d="M119.035 135.731C119.526 135.731 119.97 135.81 120.367 135.968C120.768 136.126 121.109 136.35 121.391 136.64C121.672 136.93 121.89 137.284 122.043 137.702C122.197 138.121 122.274 138.588 122.274 139.104C122.274 139.625 122.197 140.094 122.043 140.512C121.89 140.93 121.672 141.286 121.391 141.581C121.109 141.875 120.768 142.101 120.367 142.259C119.97 142.417 119.526 142.496 119.035 142.496C118.545 142.496 118.099 142.417 117.698 142.259C117.297 142.101 116.953 141.875 116.667 141.581C116.386 141.286 116.166 140.93 116.008 140.512C115.855 140.094 115.778 139.625 115.778 139.104C115.778 138.588 115.855 138.121 116.008 137.702C116.166 137.284 116.386 136.93 116.667 136.64C116.953 136.35 117.297 136.126 117.698 135.968C118.099 135.81 118.545 135.731 119.035 135.731ZM119.035 141.28C119.582 141.28 119.985 141.097 120.245 140.73C120.51 140.363 120.642 139.825 120.642 139.117C120.642 138.409 120.51 137.869 120.245 137.498C119.985 137.126 119.582 136.941 119.035 136.941C118.481 136.941 118.071 137.129 117.807 137.504C117.542 137.875 117.41 138.413 117.41 139.117C117.41 139.821 117.542 140.358 117.807 140.73C118.071 141.097 118.481 141.28 119.035 141.28Z" fill="#494949"/>
<path d="M124.954 135.834V140.006C124.954 140.408 125.045 140.719 125.229 140.941C125.417 141.158 125.696 141.267 126.067 141.267C126.34 141.267 126.596 141.208 126.835 141.088C127.074 140.964 127.3 140.796 127.514 140.582V135.834H129.094V142.4H128.128C127.923 142.4 127.789 142.304 127.725 142.112L127.616 141.587C127.48 141.724 127.339 141.85 127.194 141.965C127.049 142.076 126.893 142.172 126.726 142.253C126.564 142.33 126.387 142.389 126.195 142.432C126.008 142.479 125.805 142.502 125.587 142.502C125.229 142.502 124.911 142.443 124.634 142.323C124.361 142.2 124.13 142.027 123.942 141.805C123.755 141.583 123.612 141.321 123.514 141.018C123.42 140.71 123.373 140.373 123.373 140.006V135.834H124.954Z" fill="#494949"/>
<path d="M134.857 132.89V138.336H135.152C135.258 138.336 135.342 138.321 135.401 138.291C135.461 138.261 135.525 138.206 135.593 138.125L137.225 136.109C137.298 136.024 137.375 135.957 137.456 135.91C137.537 135.859 137.643 135.834 137.776 135.834H139.222L137.18 138.272C137.108 138.362 137.033 138.445 136.956 138.522C136.88 138.594 136.796 138.658 136.707 138.714C136.796 138.778 136.875 138.852 136.944 138.938C137.012 139.023 137.08 139.115 137.148 139.213L139.337 142.4H137.91C137.786 142.4 137.682 142.379 137.596 142.336C137.511 142.293 137.434 142.221 137.366 142.118L135.696 139.629C135.632 139.531 135.568 139.467 135.504 139.437C135.44 139.407 135.344 139.392 135.216 139.392H134.857V142.4H133.276V132.89H134.857Z" fill="#494949"/>
<path d="M142.646 135.731C143.06 135.731 143.439 135.797 143.785 135.93C144.135 136.062 144.436 136.256 144.687 136.512C144.939 136.764 145.135 137.075 145.276 137.446C145.417 137.813 145.487 138.234 145.487 138.707C145.487 138.827 145.481 138.927 145.468 139.008C145.46 139.085 145.441 139.147 145.411 139.194C145.385 139.236 145.349 139.268 145.302 139.29C145.255 139.307 145.195 139.315 145.123 139.315H141.065C141.112 139.989 141.293 140.484 141.609 140.8C141.925 141.116 142.343 141.274 142.863 141.274C143.119 141.274 143.339 141.244 143.523 141.184C143.71 141.124 143.873 141.058 144.009 140.986C144.15 140.913 144.271 140.847 144.374 140.787C144.481 140.728 144.583 140.698 144.681 140.698C144.745 140.698 144.801 140.71 144.847 140.736C144.894 140.762 144.935 140.798 144.969 140.845L145.43 141.421C145.255 141.626 145.059 141.798 144.841 141.939C144.623 142.076 144.395 142.187 144.156 142.272C143.922 142.353 143.681 142.411 143.433 142.445C143.19 142.479 142.953 142.496 142.723 142.496C142.266 142.496 141.842 142.421 141.449 142.272C141.057 142.118 140.715 141.894 140.425 141.6C140.135 141.301 139.907 140.934 139.74 140.499C139.574 140.06 139.491 139.552 139.491 138.976C139.491 138.528 139.563 138.108 139.708 137.715C139.853 137.318 140.06 136.975 140.329 136.685C140.602 136.39 140.933 136.158 141.321 135.987C141.714 135.817 142.155 135.731 142.646 135.731ZM142.678 136.864C142.217 136.864 141.857 136.994 141.596 137.254C141.336 137.515 141.17 137.884 141.097 138.362H144.067C144.067 138.157 144.039 137.965 143.983 137.786C143.928 137.602 143.843 137.442 143.727 137.306C143.612 137.169 143.467 137.062 143.292 136.986C143.117 136.905 142.913 136.864 142.678 136.864Z" fill="#494949"/>
<path d="M149.483 135.731C149.897 135.731 150.277 135.797 150.623 135.93C150.972 136.062 151.273 136.256 151.525 136.512C151.777 136.764 151.973 137.075 152.114 137.446C152.255 137.813 152.325 138.234 152.325 138.707C152.325 138.827 152.319 138.927 152.306 139.008C152.297 139.085 152.278 139.147 152.248 139.194C152.223 139.236 152.186 139.268 152.139 139.29C152.092 139.307 152.033 139.315 151.96 139.315H147.903C147.95 139.989 148.131 140.484 148.447 140.8C148.762 141.116 149.18 141.274 149.701 141.274C149.957 141.274 150.177 141.244 150.36 141.184C150.548 141.124 150.71 141.058 150.847 140.986C150.987 140.913 151.109 140.847 151.211 140.787C151.318 140.728 151.42 140.698 151.519 140.698C151.583 140.698 151.638 140.71 151.685 140.736C151.732 140.762 151.772 140.798 151.807 140.845L152.267 141.421C152.092 141.626 151.896 141.798 151.679 141.939C151.461 142.076 151.233 142.187 150.994 142.272C150.759 142.353 150.518 142.411 150.271 142.445C150.027 142.479 149.791 142.496 149.56 142.496C149.104 142.496 148.679 142.421 148.287 142.272C147.894 142.118 147.553 141.894 147.263 141.6C146.972 141.301 146.744 140.934 146.578 140.499C146.411 140.06 146.328 139.552 146.328 138.976C146.328 138.528 146.401 138.108 146.546 137.715C146.691 137.318 146.898 136.975 147.167 136.685C147.44 136.39 147.77 136.158 148.159 135.987C148.551 135.817 148.993 135.731 149.483 135.731ZM149.515 136.864C149.055 136.864 148.694 136.994 148.434 137.254C148.174 137.515 148.007 137.884 147.935 138.362H150.904C150.904 138.157 150.876 137.965 150.821 137.786C150.766 137.602 150.68 137.442 150.565 137.306C150.45 137.169 150.305 137.062 150.13 136.986C149.955 136.905 149.75 136.864 149.515 136.864Z" fill="#494949"/>
<path d="M153.607 144.544V135.834H154.574C154.676 135.834 154.764 135.857 154.836 135.904C154.909 135.951 154.956 136.024 154.977 136.122L155.105 136.73C155.369 136.427 155.672 136.181 156.014 135.994C156.359 135.806 156.762 135.712 157.223 135.712C157.582 135.712 157.908 135.787 158.202 135.936C158.501 136.085 158.757 136.303 158.97 136.589C159.188 136.87 159.354 137.22 159.47 137.638C159.589 138.052 159.649 138.528 159.649 139.066C159.649 139.556 159.583 140.011 159.45 140.429C159.318 140.847 159.128 141.21 158.881 141.517C158.638 141.824 158.341 142.065 157.991 142.24C157.646 142.411 157.257 142.496 156.826 142.496C156.455 142.496 156.14 142.441 155.879 142.33C155.623 142.214 155.393 142.057 155.188 141.856V144.544H153.607ZM156.679 136.96C156.351 136.96 156.069 137.03 155.834 137.171C155.604 137.308 155.389 137.502 155.188 137.754V140.698C155.367 140.92 155.561 141.075 155.77 141.165C155.984 141.25 156.212 141.293 156.455 141.293C156.694 141.293 156.91 141.248 157.102 141.158C157.298 141.069 157.462 140.932 157.594 140.749C157.731 140.565 157.836 140.335 157.908 140.058C157.981 139.776 158.017 139.445 158.017 139.066C158.017 138.682 157.985 138.357 157.921 138.093C157.861 137.824 157.774 137.606 157.658 137.44C157.543 137.274 157.402 137.152 157.236 137.075C157.074 136.998 156.888 136.96 156.679 136.96Z" fill="#494949"/>
</svg>
