<svg width="160" height="160" viewBox="0 0 160 160" fill="none" xmlns="http://www.w3.org/2000/svg">
<path d="M78.3662 144.065C69.9718 144.061 61.5987 143.219 53.3717 141.551C3.92151 130.236 0.835982 93.2896 0.835982 92.9141V92.359C0.574772 71.4283 13.521 58.5957 24.4918 51.5263C41.8132 40.2937 58.1551 35.4937 79.1335 35.4937C86.8739 35.5555 94.6038 36.0734 102.283 37.0447C111.948 38.1875 144.436 44.4732 156.958 77.2243C159.129 83.2899 159.764 89.7994 158.804 96.1702C157.843 102.541 155.319 108.574 151.456 113.73C138.183 132.147 109.532 144.065 78.3662 144.065Z" fill="white"/>
<path d="M79.0681 36.3101C86.7759 36.3734 94.4731 36.8913 102.12 37.8611C121.988 40.2121 146.199 51.5264 156.141 77.5182C168.467 113.91 127.637 143.249 78.3661 143.249C70.0319 143.247 61.7188 142.41 53.5512 140.751C7.77429 130.269 1.63587 96.8488 1.63587 92.9141C1.63587 88.9794 0.346147 68.1305 24.8672 52.2121C42.8253 40.5549 59.3958 36.3101 79.0681 36.3101ZM79.0681 34.6774C57.8449 34.6774 41.5193 39.5754 23.9856 50.8407C12.9005 58.0243 -0.241573 71.0692 0.00331056 92.3754V92.9141C0.00331056 94.9713 1.63587 104.751 9.11299 115.33C15.6432 124.555 28.7037 136.735 53.1921 142.351C61.4786 144.028 69.9116 144.876 78.3661 144.881C109.777 144.881 138.771 132.767 152.06 114.204C156 108.95 158.575 102.801 159.555 96.3074C160.535 89.8138 159.89 83.1785 157.676 76.9958C144.975 43.7549 112.095 37.3876 102.316 36.1794C94.6036 35.2079 86.841 34.69 79.0681 34.6284V34.6774Z" fill="#202020"/>
<path d="M68.7342 131.673C79.5417 125.143 89.7289 131.086 91.59 131.086C97.7068 130.076 103.766 128.746 109.744 127.102C130.608 120.947 139.685 109.567 139.685 109.567L80.913 84.0979L57.845 104.375C48.0496 104.702 49.372 113.861 49.372 113.861C49.372 113.861 41.5194 121.584 38.6298 122.596C43.0213 126.498 68.7342 131.673 68.7342 131.673Z" fill="#1BD27F" stroke="#202020" stroke-width="2" stroke-miterlimit="10"/>
<path d="M68.5708 132.473C67.5096 132.261 42.5968 127.216 38.0909 123.216L37.0461 122.286L38.3685 121.828C40.4908 121.077 46.1721 115.837 48.523 113.551C48.3398 111.069 49.0845 108.608 50.6126 106.645C51.4972 105.674 52.577 104.902 53.7813 104.379C54.9856 103.855 56.287 103.593 57.6 103.608L80.7823 83.1836L141.073 109.306L140.403 110.073C140.028 110.547 131 121.731 110.054 127.886C103.975 129.55 97.8113 130.891 91.5899 131.902C91.247 131.902 90.643 131.902 89.8104 131.788C88.0636 131.641 85.4025 131.428 81.9578 131.428C77.5829 131.431 73.2152 131.786 68.8973 132.49H68.7504L68.5708 132.473Z" fill="#1BD27F"/>
<path d="M80.8476 84.0979L139.62 109.567C139.62 109.567 130.608 120.996 109.679 127.102C103.723 128.76 97.6855 130.106 91.5898 131.135C90.5123 131.135 87.0513 130.661 81.9577 130.661C77.5286 130.663 73.1067 131.017 68.734 131.722C68.734 131.722 43.0212 126.547 38.6296 122.645C41.5192 121.633 49.3718 113.91 49.3718 113.91C49.3718 113.91 48.0495 104.751 57.8448 104.424L80.8476 84.0979ZM80.5374 82.155L79.7701 82.8407L57.1428 102.775C55.7691 102.785 54.4125 103.081 53.159 103.643C51.9056 104.205 50.7827 105.021 49.8616 106.041C48.3078 108.083 47.5375 110.614 47.6903 113.175C44.6864 116.082 39.8377 120.408 38.0909 121.012L35.4788 121.926L37.5521 123.82C42.1396 127.869 65.7301 132.767 68.4075 133.273H68.7013H68.9952C73.2813 132.58 77.616 132.231 81.9577 132.228C85.3698 132.228 88.0145 132.441 89.745 132.588C90.6103 132.588 91.1817 132.702 91.5898 132.702C93.8591 132.702 107.442 129.437 110.201 128.653C131.424 122.416 140.583 111.037 140.975 110.563L142.281 108.931L140.403 108.065L81.6312 82.6122L80.5374 82.155Z" fill="#202020"/>
<path d="M28.8832 132.326C31.9526 125.649 36.6547 124.457 37.6996 123.494" stroke="#202020" stroke-miterlimit="10"/>
<path d="M81.2558 83.4122L81.4354 82.7428C83.6788 75.2213 87.6225 68.3167 92.9612 62.5633C101.124 53.8612 113.842 47.6082 114.772 47.6082C119.343 48.2612 145.301 61.1918 148.566 78.302C148.961 80.4551 149.081 82.6493 148.925 84.8326C148.798 86.9018 148.858 88.9784 149.105 91.0367C149.987 97.9428 146.803 104.718 140.175 110.139L139.767 110.449L81.2558 83.4122Z" fill="#1BD27F"/>
<path d="M114.772 48.4571C119.262 49.0775 144.501 61.7796 147.799 78.4653C148.729 83.1673 147.636 85.7959 148.321 91.2163C149.562 100.882 142.395 107.347 139.685 109.567L82.219 82.9551C84.4482 75.5812 88.3222 68.8097 93.549 63.151C99.6871 57.0223 106.876 52.0455 114.772 48.4571ZM114.772 46.8245C113.466 46.8245 100.553 53.3551 92.3572 62.0245C86.9337 67.88 82.9239 74.9005 80.6354 82.5469L80.2926 83.8694L81.5333 84.4408L138.999 111.053L139.93 111.478L140.714 110.824C147.587 105.224 150.868 98.1877 149.938 91.0041C149.703 88.9884 149.648 86.9559 149.774 84.9306C149.944 82.6654 149.818 80.3876 149.399 78.1551C145.872 60.3265 119.719 47.4939 115.001 46.8408H114.772V46.8245Z" fill="#202020"/>
<path d="M25.0319 59.0203L26.1257 58.2039C26.7787 57.6652 42.2227 46.2366 51.1038 44.6039C52.5651 44.4113 54.0378 44.3186 55.5117 44.3264C61.5627 44.3749 67.5696 43.2953 73.225 41.1427C75.2029 40.4419 77.3018 40.1476 79.3961 40.2774C91.6718 40.7801 103.782 43.2895 115.247 47.706L116.325 48.1305L115.574 48.9958C111.443 53.7468 105.125 61.1101 104.619 61.9101C104.126 62.735 103.736 63.6179 103.46 64.5386C102.943 66.6048 101.718 68.4245 99.999 69.6815C98.2595 70.9902 96.2953 71.9696 94.2034 72.5713C92.4748 72.9815 90.9272 73.9445 89.7955 75.3142C86.3018 79.1672 81.4858 84.6366 81.4858 84.6366L81.0939 85.0937L25.0319 59.0203Z" fill="#F7F7F7"/>
<path d="M79.445 41.0937C91.6033 41.5954 103.598 44.0827 114.953 48.4569C114.953 48.4569 104.652 60.3263 103.917 61.5182C102.252 64.1957 102.856 66.6447 99.5908 69.0937C94.3503 72.9141 92.734 70.9875 89.2403 74.8406C85.7467 78.6937 80.9306 84.1794 80.9306 84.1794L26.6154 58.8569C26.6154 58.8569 42.4512 46.9712 51.2507 45.4365C55.2178 44.7508 63.6908 45.91 73.5841 41.91C75.4636 41.2493 77.4565 40.9718 79.445 41.0937ZM79.445 39.461C77.2265 39.3289 75.0044 39.6511 72.9147 40.408C67.3568 42.5143 61.455 43.5662 55.5117 43.51C53.9821 43.5081 52.4543 43.6173 50.9405 43.8365C41.8635 45.4692 26.2725 57.061 25.6032 57.5508L23.4319 59.1835L25.897 60.3426L80.1633 85.5835L81.2735 86.1059L82.0734 85.1753C82.0734 85.1753 86.9711 79.6733 90.3668 75.8528C91.4223 74.5986 92.8533 73.7171 94.4482 73.3386C96.6268 72.7237 98.6704 71.7046 100.472 70.3345C102.341 68.99 103.676 67.0305 104.244 64.7998C104.495 63.9427 104.851 63.1201 105.305 62.3508C105.86 61.4855 112.276 54.0406 116.178 49.5345L117.696 47.8692L115.557 47.0202C104.01 42.5671 91.8108 40.0356 79.445 39.5263V39.461Z" fill="#202020"/>
<path d="M38.2221 123.314C36.7202 122.433 23.5291 114.743 21.8965 112.179C21.021 111.045 20.0893 109.955 19.1048 108.914C15.6601 105.012 11.0237 99.7713 10.7625 96.555V96.1631C10.4033 91.755 9.66865 82.5958 11.5134 78.0244C13.0414 74.7614 14.8667 71.6462 16.9662 68.7182C17.8835 67.4364 18.7231 66.1007 19.4803 64.7182C20.7508 62.6832 22.4162 60.9234 24.378 59.5427L24.7535 59.2815L82.2196 83.7876L81.4523 84.6366C81.4523 84.6366 74.22 92.5713 71.3141 95.8693C69.2644 98.0198 67.0301 99.9865 64.6369 101.747C62.8091 103.105 61.0646 104.571 59.4127 106.139C58.1094 107.509 57.0098 109.06 56.1476 110.743C55.1468 112.713 53.8655 114.528 52.3438 116.13C48.8501 119.641 39.2833 123.233 38.8751 123.379L38.4996 123.51L38.2221 123.314Z" fill="#1BD27F"/>
<path d="M24.8024 60.2122L80.8482 84.0979C80.8482 84.0979 73.6322 91.9509 70.6936 95.3632C67.755 98.7754 61.9431 102.416 58.776 105.551C55.6088 108.686 55.168 112.082 51.756 115.543C48.3439 119.004 38.5812 122.596 38.5812 122.596C38.5812 122.596 24.1167 114.22 22.4678 111.722C20.819 109.224 11.8562 100.62 11.5297 96.4897C11.2032 92.3591 10.3706 82.8571 12.1827 78.3183C13.9949 73.7795 19.1537 67.2652 20.1496 65.0612C21.347 63.1414 22.9115 61.477 24.7534 60.1632L24.8024 60.2122ZM24.5412 58.2856L23.7902 58.8407C21.7189 60.2983 19.9686 62.1654 18.6477 64.3265C17.9519 65.6872 17.1779 67.0064 16.3294 68.2775C14.2034 71.2464 12.3562 74.4054 10.8114 77.7142C8.88495 82.4816 9.63593 91.7714 9.99509 96.2448V96.6203C10.2563 99.8856 13.9949 104.326 18.4844 109.404C19.4432 110.445 20.3478 111.535 21.1944 112.669C22.9413 115.265 34.3855 122.041 37.8629 124.098L38.5322 124.49L39.2505 124.212C39.6587 124.065 49.4051 120.408 53.013 116.767C54.5904 115.111 55.921 113.236 56.9638 111.2C57.7384 109.54 58.7564 108.005 59.9841 106.645C61.6193 105.105 63.3417 103.66 65.1429 102.318C67.5739 100.537 69.8462 98.5486 71.9344 96.3754C74.824 93.1101 81.9746 85.2407 82.0562 85.1591L83.6888 83.5265L81.5665 82.6122L25.4554 58.7101L24.5902 58.3346L24.5412 58.2856Z" fill="#202020"/>
<path opacity="0.5" d="M113.679 93.6978C115.807 93.6978 117.532 92.6013 117.532 91.2488C117.532 89.8962 115.807 88.7998 113.679 88.7998C111.551 88.7998 109.825 89.8962 109.825 91.2488C109.825 92.6013 111.551 93.6978 113.679 93.6978Z" stroke="#202020" stroke-miterlimit="10"/>
<path d="M133.808 87.5102C137.74 87.5102 140.927 85.4781 140.927 82.9714C140.927 80.4647 137.74 78.4326 133.808 78.4326C129.877 78.4326 126.69 80.4647 126.69 82.9714C126.69 85.4781 129.877 87.5102 133.808 87.5102Z" fill="black" fill-opacity="0.2"/>
<path d="M83.9335 108.016C87.1616 108.016 89.7784 105.984 89.7784 103.477C89.7784 100.971 87.1616 98.9387 83.9335 98.9387C80.7055 98.9387 78.0886 100.971 78.0886 103.477C78.0886 105.984 80.7055 108.016 83.9335 108.016Z" fill="black" fill-opacity="0.2"/>
<path d="M4.9013 85.9918C5.15377 85.9918 5.35844 85.831 5.35844 85.6326C5.35844 85.4342 5.15377 85.2734 4.9013 85.2734C4.64882 85.2734 4.44415 85.4342 4.44415 85.6326C4.44415 85.831 4.64882 85.9918 4.9013 85.9918Z" fill="#202020"/>
<path d="M6.38701 85.6324C6.63949 85.6324 6.84416 85.4716 6.84416 85.2733C6.84416 85.0749 6.63949 84.9141 6.38701 84.9141C6.13454 84.9141 5.92987 85.0749 5.92987 85.2733C5.92987 85.4716 6.13454 85.6324 6.38701 85.6324Z" fill="#202020"/>
<path d="M6.25635 84.6855C6.89655 84.6855 7.41553 84.2835 7.41553 83.7876C7.41553 83.2917 6.89655 82.8896 6.25635 82.8896C5.61615 82.8896 5.09717 83.2917 5.09717 83.7876C5.09717 84.2835 5.61615 84.6855 6.25635 84.6855Z" fill="#202020"/>
<path d="M42.2618 135.272C42.5988 134.986 42.6923 134.543 42.4707 134.282C42.2491 134.02 41.7963 134.04 41.4593 134.326C41.1223 134.612 41.0288 135.055 41.2504 135.316C41.472 135.578 41.9249 135.558 42.2618 135.272Z" fill="#202020"/>
<path d="M41.6675 132.63C42.1076 132.257 42.2327 131.681 41.947 131.344C41.6612 131.007 41.0728 131.037 40.6326 131.41C40.1925 131.783 40.0674 132.359 40.3532 132.696C40.6389 133.033 41.2274 133.004 41.6675 132.63Z" fill="#202020"/>
<path d="M128.597 47.8931C129.037 47.5198 129.162 46.9441 128.876 46.6071C128.591 46.2701 128.002 46.2995 127.562 46.6728C127.122 47.046 126.997 47.6218 127.283 47.9588C127.568 48.2958 128.157 48.2663 128.597 47.8931Z" fill="#202020"/>
<path d="M137.106 120.132C137.299 119.968 137.351 119.713 137.223 119.562C137.094 119.411 136.834 119.42 136.642 119.584C136.449 119.747 136.397 120.002 136.525 120.153C136.654 120.305 136.914 120.295 137.106 120.132Z" fill="#202020"/>
<path d="M137.132 122.323C137.621 121.909 137.756 121.267 137.436 120.888C137.115 120.51 136.459 120.539 135.971 120.953C135.482 121.367 135.347 122.01 135.667 122.388C135.988 122.766 136.644 122.737 137.132 122.323Z" fill="#202020"/>
<path d="M113.613 99.51C112.521 100.001 111.578 100.771 110.879 101.743C110.179 102.714 109.748 103.853 109.63 105.045C109.63 108.604 113.336 111.575 117.923 111.575C122.511 111.575 126.087 108.865 126.201 105.437L113.613 99.51Z" fill="black" fill-opacity="0.2"/>
<path d="M28.7054 97.6815C33.286 97.6815 36.9993 94.8015 36.9993 91.2488C36.9993 87.6962 33.286 84.8162 28.7054 84.8162C24.1248 84.8162 20.4115 87.6962 20.4115 91.2488C20.4115 94.8015 24.1248 97.6815 28.7054 97.6815Z" fill="black" fill-opacity="0.2"/>
<path opacity="0.2" d="M107.491 52.2775C109.106 52.2975 110.711 52.0208 112.226 51.4612L114.773 48.4571L114.398 48.2448C110.161 46.6314 105.826 45.2899 101.418 44.2285C100.817 44.6227 100.307 45.1416 99.9239 45.7501C99.5407 46.3586 99.293 47.0424 99.1975 47.755C99.1975 50.253 102.855 52.2775 107.491 52.2775Z" fill="#202020"/>
<path d="M62.1551 56.7998C65.0676 56.7998 67.4286 55.5864 67.4286 54.0896C67.4286 52.5928 65.0676 51.3794 62.1551 51.3794C59.2427 51.3794 56.8817 52.5928 56.8817 54.0896C56.8817 55.5864 59.2427 56.7998 62.1551 56.7998Z" stroke="#202020" stroke-miterlimit="10"/>
<path d="M92.4717 84.7346C94.735 84.7346 96.5697 83.6382 96.5697 82.2857C96.5697 80.9331 94.735 79.8367 92.4717 79.8367C90.2085 79.8367 88.3738 80.9331 88.3738 82.2857C88.3738 83.6382 90.2085 84.7346 92.4717 84.7346Z" fill="black" fill-opacity="0.2"/>
<path opacity="0.2" d="M41.0949 56.7999C42.3392 56.7999 43.348 56.2005 43.348 55.4611C43.348 54.7217 42.3392 54.1223 41.0949 54.1223C39.8506 54.1223 38.8419 54.7217 38.8419 55.4611C38.8419 56.2005 39.8506 56.7999 41.0949 56.7999Z" fill="#202020"/>
<path opacity="0.2" d="M86.317 67.2815C88.5802 67.2815 90.415 66.1851 90.415 64.8325C90.415 63.48 88.5802 62.3835 86.317 62.3835C84.0538 62.3835 82.2191 63.48 82.2191 64.8325C82.2191 66.1851 84.0538 67.2815 86.317 67.2815Z" fill="#202020"/>
<path opacity="0.5" d="M17.1462 106.645C18.3707 106.122 20.5748 105.29 20.4115 103.281C20.2224 102.365 19.7008 101.551 18.9471 100.996C18.1934 100.442 17.2611 100.185 16.3299 100.277C15.208 100.254 14.1145 100.63 13.2441 101.339C14.2644 103.297 15.5805 105.087 17.1462 106.645V106.645Z" stroke="#202020" stroke-miterlimit="10"/>
<path opacity="0.5" d="M44.3112 98.5957C46.5745 98.5957 48.4092 97.4993 48.4092 96.1467C48.4092 94.7942 46.5745 93.6978 44.3112 93.6978C42.048 93.6978 40.2133 94.7942 40.2133 96.1467C40.2133 97.4993 42.048 98.5957 44.3112 98.5957Z" stroke="#202020" stroke-miterlimit="10"/>
<path d="M59.6737 75.0692L53.8778 72.5713C52.5227 72.9795 51.5921 73.7958 51.5921 74.759C51.5921 76.1141 53.4207 77.2243 55.6901 77.2243C57.9595 77.2243 59.4125 76.2774 59.6737 75.0692Z" fill="black" fill-opacity="0.2"/>
<path opacity="0.5" d="M83.9336 127.265C87.2879 127.265 90.007 125.409 90.007 123.118C90.007 120.828 87.2879 118.971 83.9336 118.971C80.5793 118.971 77.8601 120.828 77.8601 123.118C77.8601 125.409 80.5793 127.265 83.9336 127.265Z" stroke="#202020" stroke-miterlimit="10"/>
<path d="M61.5022 123.118C58.1553 123.118 55.4288 124.979 55.4288 127.265C55.4348 127.78 55.5695 128.285 55.8206 128.734C59.0859 129.567 62.3512 130.367 64.6533 130.808C65.4363 130.573 66.132 130.111 66.6523 129.48C67.1725 128.849 67.4939 128.079 67.5757 127.265C67.5757 124.979 64.8655 123.118 61.5022 123.118Z" fill="black" fill-opacity="0.2"/>
<path opacity="0.5" d="M112.732 63.1509C114.86 63.1509 116.585 62.3469 116.585 61.355C116.585 60.3631 114.86 59.5591 112.732 59.5591C110.604 59.5591 108.879 60.3631 108.879 61.355C108.879 62.3469 110.604 63.1509 112.732 63.1509Z" stroke="#202020" stroke-miterlimit="10"/>
<path d="M74.3011 62.5631V31.7876" stroke="#202020" stroke-miterlimit="10" stroke-linecap="round"/>
<path fill-rule="evenodd" clip-rule="evenodd" d="M99.1991 28.2611L74.3011 14.3999V41.3877L99.1991 28.2611Z" fill="white" stroke="#202020" stroke-linecap="round" stroke-linejoin="round"/>
<path fill-rule="evenodd" clip-rule="evenodd" d="M81.4683 22.0733C81.6895 22.0623 81.9106 22.0963 82.1182 22.1734C82.3258 22.2504 82.5156 22.369 82.6759 22.5217C82.8363 22.6744 82.9639 22.8581 83.051 23.0617C83.1381 23.2653 83.1829 23.4845 83.1826 23.706V26.3346C83.9085 25.9767 84.7464 25.9201 85.5138 26.1769C86.2813 26.4338 86.9163 26.9833 87.2806 27.706L85.7459 28.4407C85.5731 28.1328 85.2896 27.9023 84.9529 27.7961C84.6162 27.69 84.2517 27.7161 83.9336 27.8693C83.7122 27.9716 83.5226 28.1318 83.3847 28.3329C83.2467 28.5341 83.1656 28.7687 83.1499 29.0121V29.0937C83.1445 29.3027 83.1893 29.5098 83.2806 29.6978C83.3612 29.859 83.472 30.0031 83.6071 30.1223C83.8142 30.2801 84.0604 30.3787 84.3192 30.4074C84.578 30.4362 84.8398 30.3941 85.0765 30.2856C85.2615 30.1963 85.4237 30.0661 85.551 29.9049C85.6783 29.7437 85.7673 29.5556 85.8112 29.355L84.8969 29.0448L87.4275 27.8366L88.6357 30.3672L87.5581 29.9917C87.4312 30.4008 87.2205 30.7791 86.9394 31.1023C86.6583 31.4256 86.313 31.6868 85.9255 31.8693C85.4042 32.1218 84.8231 32.225 84.2467 32.1674C83.6703 32.1098 83.1211 31.8935 82.6602 31.5427L81.4683 30.5305V22.0733ZM79.3948 26.5468L79.8193 26.906L81.2561 29.9101V30.2856L76.9785 26.6937C77.2731 26.3487 77.6913 26.1331 78.1433 26.0935C78.5952 26.0538 79.0446 26.1931 79.3948 26.4815V26.5468ZM79.1826 23.1346C79.5225 23.1218 79.8586 23.2094 80.149 23.3865C80.4394 23.5636 80.6711 23.8224 80.8153 24.1305L81.2724 25.2733V29.3386L78.3663 23.3795C78.5951 23.2686 78.8467 23.2127 79.101 23.2162" fill="#3DDB93"/>
<path fill-rule="evenodd" clip-rule="evenodd" d="M70.4156 61.453C72.2932 59.5265 78.5789 60.4898 78.5789 62.4326C78.5789 64.0653 75.036 64.0653 73.3544 64.0653C71.6727 64.0653 69.1258 62.8081 70.4156 61.453Z" stroke="#202020" stroke-linecap="round" stroke-linejoin="round"/>
<path d="M139.881 110.841C141.672 111.593 143.277 112.728 144.583 114.166C145.889 115.605 146.864 117.312 147.44 119.167" stroke="#202020" stroke-miterlimit="10"/>
<path d="M116.568 48.2612C117.915 45.8472 119.736 43.7312 121.923 42.0408" stroke="#202020" stroke-miterlimit="10"/>
<path d="M25.2114 59.2978C23.0074 57.8912 20.5935 56.8441 18.0604 56.1958" stroke="#202020" stroke-miterlimit="10"/>
</svg>
