<svg width="80" height="80" viewBox="0 0 80 80" fill="none" xmlns="http://www.w3.org/2000/svg">
<rect width="80" height="80" rx="40" fill="#F7F7F7"/>
<g clip-path="url(#clip0)">
<path d="M61.4235 48.4784H19.2807C17.4625 48.4784 16.0339 47.0505 16.0339 45.2332V34.7836C16.0339 32.9663 17.4625 31.5385 19.2807 31.5385H61.4235C63.2417 31.5385 64.6703 32.9663 64.6703 34.7836V45.2332C64.6703 46.9856 63.1768 48.4784 61.4235 48.4784Z" fill="white" stroke="#262626" stroke-miterlimit="10" stroke-linejoin="round"/>
<path d="M27.7221 42.8317C29.3001 42.8317 30.5793 41.5531 30.5793 39.9759C30.5793 38.3987 29.3001 37.1202 27.7221 37.1202C26.1442 37.1202 24.865 38.3987 24.865 39.9759C24.865 41.5531 26.1442 42.8317 27.7221 42.8317Z" fill="#262626"/>
<path d="M36.1638 42.8317C37.7417 42.8317 39.0209 41.5531 39.0209 39.9759C39.0209 38.3987 37.7417 37.1202 36.1638 37.1202C34.5858 37.1202 33.3066 38.3987 33.3066 39.9759C33.3066 41.5531 34.5858 42.8317 36.1638 42.8317Z" fill="#262626"/>
<path d="M44.5405 42.8317C46.1184 42.8317 47.3976 41.5531 47.3976 39.9759C47.3976 38.3987 46.1184 37.1202 44.5405 37.1202C42.9625 37.1202 41.6833 38.3987 41.6833 39.9759C41.6833 41.5531 42.9625 42.8317 44.5405 42.8317Z" fill="#262626"/>
<path d="M52.9817 42.8317C54.5596 42.8317 55.8388 41.5531 55.8388 39.9759C55.8388 38.3987 54.5596 37.1202 52.9817 37.1202C51.4037 37.1202 50.1245 38.3987 50.1245 39.9759C50.1245 41.5531 51.4037 42.8317 52.9817 42.8317Z" fill="#262626"/>
</g>
<path fill-rule="evenodd" clip-rule="evenodd" d="M72.154 50C72.154 54.5892 68.4342 58.3077 63.8463 58.3077C59.2583 58.3077 55.5386 54.5892 55.5386 50C55.5386 45.4135 59.2583 41.6923 63.8463 41.6923C68.4342 41.6923 72.154 45.4135 72.154 50Z" fill="#ED3963"/>
<path fill-rule="evenodd" clip-rule="evenodd" d="M62.6337 50.6919L62.3853 46.136C62.3727 45.9058 62.556 45.7122 62.7866 45.7122H64.9099C65.1404 45.7122 65.3238 45.9058 65.3112 46.136L65.0628 50.6919C65.0511 50.905 64.8749 51.0719 64.6613 51.0719H63.0351C62.8216 51.0719 62.6454 50.905 62.6337 50.6919ZM62.3052 53.2159C62.3052 52.3649 62.9951 51.6749 63.8462 51.6749C64.6972 51.6749 65.3871 52.3649 65.3871 53.2159C65.3871 54.067 64.6972 54.7569 63.8462 54.7569C62.9951 54.7569 62.3052 54.067 62.3052 53.2159Z" fill="white"/>
<defs>
<clipPath id="clip0">
<rect width="50" height="19.2308" fill="white" transform="translate(15.3845 30.7692)"/>
</clipPath>
</defs>
</svg>
