<svg width="100" height="100" viewBox="0 0 100 100" fill="none" xmlns="http://www.w3.org/2000/svg">
<path d="M96.1538 48.0769C96.1538 74.6154 74.6154 96.1538 48.0769 96.1538C21.5385 96.1538 0 74.6154 0 48.0769C0 21.5385 21.5385 0 48.0769 0C74.6154 0 96.1538 21.5385 96.1538 48.0769Z" fill="#F7F7F7"/>
<path d="M75.5769 68.75H72.4039V65.3846C72.4039 64.4231 71.6346 63.6538 70.7692 63.6538V48.8461C71.7308 48.8461 72.4039 48.0769 72.4039 47.1154V43.75H75.3846C75.8654 43.75 76.1539 43.3654 76.1539 42.9808V37.1154C76.1539 36.8269 75.9616 36.5385 75.7692 36.4423L48.4615 19.8077C48.1731 19.6154 47.8846 19.6154 47.5962 19.8077L20.2885 36.3461C20 36.5385 19.9039 36.7308 19.9039 37.0192V42.8846C19.9039 43.3654 20.2885 43.6538 20.6731 43.6538H24.4231V47.1154C24.4231 48.0769 25.1923 48.8461 26.0577 48.8461V63.6538C25.0962 63.75 24.4231 64.4231 24.4231 65.3846V68.75H20.4808C20 68.75 19.7115 69.1346 19.7115 69.5192V75.5769C19.7115 76.0577 20.0962 76.3461 20.4808 76.3461H75.5769C76.0577 76.3461 76.3462 75.9615 76.3462 75.5769V69.5192C76.4423 69.1346 76.0577 68.75 75.5769 68.75ZM70.8654 65.3846V68.75H62.0192V65.3846C62.0192 65.2885 62.1154 65.2885 62.1154 65.2885H62.8846H70H70.7692C70.7692 65.2885 70.8654 65.2885 70.8654 65.3846ZM54.1346 68.75V65.3846C54.1346 64.4231 53.3654 63.6538 52.4039 63.6538V48.8461C53.3654 48.8461 54.1346 48.0769 54.1346 47.1154V43.75H60.3846V47.1154C60.3846 48.0769 61.1539 48.8461 62.0192 48.8461V63.5577C61.0577 63.5577 60.3846 64.3269 60.3846 65.2885V68.6538H54.1346V68.75ZM36.6346 68.75V65.3846C36.6346 64.4231 35.8654 63.6538 35 63.6538V48.8461C35.9615 48.75 36.6346 48.0769 36.6346 47.1154V43.75H42.0192V47.1154C42.0192 48.0769 42.7885 48.8461 43.75 48.8461V63.5577C42.7885 63.5577 42.0192 64.3269 42.0192 65.2885V68.6538H36.6346V68.75ZM27.7885 48.9423H33.3654V63.6538H27.7885V48.9423ZM45.2885 48.9423H50.7692V63.6538H45.2885V48.9423ZM52.4039 47.3077H51.6346H44.5192H43.75C43.6539 47.3077 43.6539 47.2115 43.6539 47.2115V43.8461H52.5V47.1154C52.5 47.2115 52.5 47.3077 52.4039 47.3077ZM43.6539 65.3846C43.6539 65.2885 43.75 65.2885 43.75 65.2885H44.5192H51.6346H52.4039C52.5 65.2885 52.5 65.3846 52.5 65.3846V68.75H43.6539V65.3846ZM69.2308 48.9423V63.6538H63.6539V48.9423H69.2308ZM70.8654 47.1154C70.8654 47.2115 70.7692 47.2115 70.7692 47.2115H70H62.8846H62.1154C62.0192 47.2115 62.0192 47.1154 62.0192 47.1154V43.75H70.8654V47.1154ZM21.5385 37.5L48.0769 21.4423L74.6154 37.5V42.1154H71.6346H61.1539H53.2692H42.7885H35.7692H25.2885H21.5385V37.5ZM26.0577 43.75H34.9039V47.1154C34.9039 47.2115 34.8077 47.2115 34.8077 47.2115H34.1346H26.9231H26.25C26.1539 47.2115 26.1539 47.1154 26.1539 47.1154V43.75H26.0577ZM26.0577 65.3846C26.0577 65.2885 26.1539 65.2885 26.1539 65.2885H26.9231H34.1346H34.8077C34.9039 65.2885 34.9039 65.3846 34.9039 65.3846V68.75H26.0577V65.3846ZM74.8077 74.8077H21.3462V70.3846H25.2885H35.7692H42.7885H53.2692H61.1539H71.6346H74.8077V74.8077Z" fill="black"/>
<path d="M70.8654 65.3846V68.75H62.0193V65.3846C62.0193 65.2885 62.1154 65.2885 62.1154 65.2885H62.8847H70.0001H70.7693C70.7693 65.2885 70.8654 65.2885 70.8654 65.3846Z" fill="white"/>
<path d="M33.3654 48.9423H27.7885V63.6538H33.3654V48.9423Z" fill="white"/>
<path d="M50.7692 48.9423H45.2885V63.6538H50.7692V48.9423Z" fill="white"/>
<path d="M52.4038 47.3077H51.6346H44.5192H43.75C43.6538 47.3077 43.6538 47.2116 43.6538 47.2116V43.8462H52.5V47.1154C52.5 47.2116 52.5 47.3077 52.4038 47.3077Z" fill="white"/>
<path d="M43.6538 65.3846C43.6538 65.2885 43.75 65.2885 43.75 65.2885H44.5192H51.6346H52.4038C52.5 65.2885 52.5 65.3846 52.5 65.3846V68.75H43.6538V65.3846Z" fill="white"/>
<path d="M69.2307 48.9423H63.6538V63.6538H69.2307V48.9423Z" fill="white"/>
<path d="M70.8654 47.1154C70.8654 47.2115 70.7693 47.2115 70.7693 47.2115H70.0001H62.8847H62.1154C62.0193 47.2115 62.0193 47.1154 62.0193 47.1154V43.75H70.8654V47.1154Z" fill="white"/>
<path d="M21.5385 37.5L48.0769 21.4423L74.6154 37.5V42.1153H71.6346H61.1538H53.3654H42.7885H35.7692H25.2885H21.5385V37.5Z" fill="white"/>
<path d="M48.0769 37.3077C50.4808 37.3077 52.4038 35.3846 52.4038 32.9807C52.4038 30.5769 50.4808 28.6538 48.0769 28.6538C45.6731 28.6538 43.75 30.5769 43.75 32.9807C43.75 35.3846 45.6731 37.3077 48.0769 37.3077ZM48.0769 30C49.7115 30 50.9615 31.3461 50.9615 32.8846C50.9615 34.5192 49.6154 35.7692 48.0769 35.7692C46.5385 35.7692 45.1923 34.423 45.1923 32.8846C45.1923 31.3461 46.4423 30 48.0769 30Z" fill="black"/>
<path d="M26.0577 43.75H34.9039V47.1154C34.9039 47.2115 34.8077 47.2115 34.8077 47.2115H34.1347H26.9231H26.25C26.1539 47.2115 26.1539 47.1154 26.1539 47.1154V43.75H26.0577Z" fill="white"/>
<path d="M26.0577 65.3846C26.0577 65.2885 26.1539 65.2885 26.1539 65.2885H26.9231H34.1347H34.8077C34.9039 65.2885 34.9039 65.3846 34.9039 65.3846V68.75H26.0577V65.3846Z" fill="white"/>
<path d="M74.8077 74.8077H21.3462V70.3846H25.2885H35.7693H42.7885H53.3654H61.1539H71.6347H74.8077V74.8077Z" fill="white"/>
</svg>
