<svg width="24" height="24" viewBox="0 0 24 24" fill="none" xmlns="http://www.w3.org/2000/svg">
<g opacity="0.5">
<path fill-rule="evenodd" clip-rule="evenodd" d="M1.35086 7.07462L1.53374 7.2233C2.7419 8.20718 4.7087 9.76346 8.11058 12.4273C8.23682 12.5266 8.39066 12.6549 8.55362 12.7907L8.57582 12.8092C9.53942 13.6134 10.8593 14.7149 11.98 14.715H12.0197C13.1403 14.715 14.4605 13.6134 15.4243 12.8091L15.4338 12.8011C15.6016 12.6612 15.7601 12.529 15.8902 12.4267C19.2904 9.7643 21.2571 8.20802 22.4663 7.2233L22.6492 7.07462V4.35086H1.35086V7.07462ZM1.35086 19.401H22.6492V8.8158L21.844 9.45708C20.6722 10.3907 19.0453 11.6718 16.7244 13.4891C16.5636 13.6157 16.3902 13.7599 16.2066 13.9126L16.195 13.9223C15.1077 14.827 13.6186 16.0658 12.0193 16.0658H11.9808C10.3749 16.0658 8.8235 14.7722 7.7969 13.9164C7.60406 13.7555 7.4321 13.6123 7.2761 13.4896C4.95926 11.6754 3.33254 10.3942 2.15606 9.45708L1.35086 8.8158V19.401ZM1.84692 20.752C0.82848 20.752 0 19.9234 0 18.9049V4.84692C0 3.82848 0.82848 3 1.84692 3H22.1531C23.1714 3 24 3.82848 24 4.84692V18.9049C24 19.9234 23.1714 20.752 22.1531 20.752H1.84692Z" fill="black"/>
<mask id="mask0" mask-type="alpha" maskUnits="userSpaceOnUse" x="0" y="3" width="24" height="18">
<path fill-rule="evenodd" clip-rule="evenodd" d="M1.35086 7.07462L1.53374 7.2233C2.7419 8.20718 4.7087 9.76346 8.11058 12.4273C8.23682 12.5266 8.39066 12.6549 8.55362 12.7907L8.57582 12.8092C9.53942 13.6134 10.8593 14.7149 11.98 14.715H12.0197C13.1403 14.715 14.4605 13.6134 15.4243 12.8091L15.4338 12.8011C15.6016 12.6612 15.7601 12.529 15.8902 12.4267C19.2904 9.7643 21.2571 8.20802 22.4663 7.2233L22.6492 7.07462V4.35086H1.35086V7.07462ZM1.35086 19.401H22.6492V8.8158L21.844 9.45708C20.6722 10.3907 19.0453 11.6718 16.7244 13.4891C16.5636 13.6157 16.3902 13.7599 16.2066 13.9126L16.195 13.9223C15.1077 14.827 13.6186 16.0658 12.0193 16.0658H11.9808C10.3749 16.0658 8.8235 14.7722 7.7969 13.9164C7.60406 13.7555 7.4321 13.6123 7.2761 13.4896C4.95926 11.6754 3.33254 10.3942 2.15606 9.45708L1.35086 8.8158V19.401ZM1.84692 20.752C0.82848 20.752 0 19.9234 0 18.9049V4.84692C0 3.82848 0.82848 3 1.84692 3H22.1531C23.1714 3 24 3.82848 24 4.84692V18.9049C24 19.9234 23.1714 20.752 22.1531 20.752H1.84692Z" fill="white"/>
</mask>
<g mask="url(#mask0)">
</g>
</g>
</svg>
