<svg width="24" height="24" viewBox="0 0 24 24" fill="none" xmlns="http://www.w3.org/2000/svg">
<g opacity="0.5">
<path fill-rule="evenodd" clip-rule="evenodd" d="M5.14288 5C4.19199 5 3.42859 4.25781 3.42859 3.33333C3.42859 1.71875 5.14288 2.13542 5.14288 0C5.78574 0 6.85716 1.53646 6.85716 2.91667C6.85716 4.29688 6.09377 5 5.14288 5ZM12 5C11.0491 5 10.2857 4.25781 10.2857 3.33333C10.2857 1.71875 12 2.13542 12 0C12.6429 0 13.7143 1.53646 13.7143 2.91667C13.7143 4.29688 12.9509 5 12 5ZM18.8571 5C17.9063 5 17.1429 4.25781 17.1429 3.33333C17.1429 1.71875 18.8571 2.13542 18.8571 0C19.5 0 20.5714 1.53646 20.5714 2.91667C20.5714 4.29688 19.808 5 18.8571 5ZM21.4286 10.6667H19.7143V5.83335H18V10.6667H12.8571V5.83335H11.1429V10.6667H6V5.83335H4.28571V10.6667H2.57143C1.15179 10.6667 0 11.7865 0 13.1667V24H24V13.1667C24 11.7865 22.8482 10.6667 21.4286 10.6667ZM22.2857 22.3333H1.71427V18.5811C2.58331 18.0874 2.99613 17.3333 4.00445 17.3333C5.50183 17.3333 5.67872 19 8.00892 19C10.3041 19 10.5384 17.3333 12 17.3333C13.5079 17.3333 13.6715 19 16.0045 19C18.3272 19 18.5098 17.3333 20.0089 17.3333C20.9993 17.3333 21.4149 18.0872 22.2857 18.581V22.3333ZM22.2857 16.4805C21.77 16.0704 21.1491 15.6667 20.0089 15.6667C17.6823 15.6667 17.5004 17.3333 16.0045 17.3333C14.5208 17.3333 14.3194 15.6667 12 15.6667C9.70488 15.6667 9.47045 17.3333 8.00892 17.3333C6.50099 17.3333 6.33738 15.6667 4.00445 15.6667C2.85465 15.6667 2.23118 16.0716 1.71427 16.4822V13.1667C1.71427 12.7072 2.09881 12.3333 2.57141 12.3333H21.4286C21.9012 12.3333 22.2857 12.7072 22.2857 13.1667V16.4805Z" fill="black"/>
</g>
</svg>
