<svg width="24" height="24" viewBox="0 0 24 24" fill="none" xmlns="http://www.w3.org/2000/svg">
<g opacity="0.5">
<path fill-rule="evenodd" clip-rule="evenodd" d="M12.2529 1.56997C9.48712 1.56997 7.237 3.81997 7.237 6.58585C7.237 9.35173 9.48712 11.6019 12.2529 11.6019C15.0186 11.6019 17.2688 9.35173 17.2688 6.58585C17.2688 3.81997 15.0186 1.56997 12.2529 1.56997ZM12.2529 13.1718C8.62143 13.1718 5.66703 10.2174 5.66703 6.58584C5.66703 2.9544 8.62143 0 12.2529 0C15.8843 0 18.8387 2.9544 18.8387 6.58584C18.8387 10.2174 15.8843 13.1718 12.2529 13.1718ZM7.92161 16.2655C5.41169 16.2655 3.36977 18.3074 3.36977 20.8175V22.4301H21.136V20.8175C21.136 18.3074 19.0941 16.2655 16.5843 16.2655C16.2794 16.2655 15.9532 16.3682 15.5403 16.4983C14.8165 16.7265 13.8253 17.0389 12.2529 17.0389C10.6931 17.0389 9.69581 16.7265 8.96777 16.4983C8.55245 16.3681 8.22449 16.2655 7.92161 16.2655ZM3.745 24C2.67232 24 1.7998 23.1275 1.7998 22.0549V20.8175C1.7998 17.442 4.546 14.6956 7.92161 14.6956C8.47457 14.6956 8.91149 14.8339 9.41753 14.9943C10.1205 15.2167 10.9172 15.4691 12.2529 15.4691C13.5896 15.4691 14.3877 15.2165 15.0917 14.9937C15.5974 14.8337 16.034 14.6956 16.5843 14.6956C19.9598 14.6956 22.7061 17.442 22.7061 20.8175V22.0549C22.7061 23.1275 21.8334 24 20.7609 24H3.745Z" fill="black"/>
<mask id="mask0" mask-type="alpha" maskUnits="userSpaceOnUse" x="1" y="0" width="22" height="24">
<path fill-rule="evenodd" clip-rule="evenodd" d="M12.2529 1.56997C9.48712 1.56997 7.237 3.81997 7.237 6.58585C7.237 9.35173 9.48712 11.6019 12.2529 11.6019C15.0186 11.6019 17.2688 9.35173 17.2688 6.58585C17.2688 3.81997 15.0186 1.56997 12.2529 1.56997ZM12.2529 13.1718C8.62143 13.1718 5.66703 10.2174 5.66703 6.58584C5.66703 2.9544 8.62143 0 12.2529 0C15.8843 0 18.8387 2.9544 18.8387 6.58584C18.8387 10.2174 15.8843 13.1718 12.2529 13.1718ZM7.92161 16.2655C5.41169 16.2655 3.36977 18.3074 3.36977 20.8175V22.4301H21.136V20.8175C21.136 18.3074 19.0941 16.2655 16.5843 16.2655C16.2794 16.2655 15.9532 16.3682 15.5403 16.4983C14.8165 16.7265 13.8253 17.0389 12.2529 17.0389C10.6931 17.0389 9.69581 16.7265 8.96777 16.4983C8.55245 16.3681 8.22449 16.2655 7.92161 16.2655ZM3.745 24C2.67232 24 1.7998 23.1275 1.7998 22.0549V20.8175C1.7998 17.442 4.546 14.6956 7.92161 14.6956C8.47457 14.6956 8.91149 14.8339 9.41753 14.9943C10.1205 15.2167 10.9172 15.4691 12.2529 15.4691C13.5896 15.4691 14.3877 15.2165 15.0917 14.9937C15.5974 14.8337 16.034 14.6956 16.5843 14.6956C19.9598 14.6956 22.7061 17.442 22.7061 20.8175V22.0549C22.7061 23.1275 21.8334 24 20.7609 24H3.745Z" fill="white"/>
</mask>
<g mask="url(#mask0)">
</g>
</g>
</svg>
