<svg width="24" height="24" viewBox="0 0 24 24" fill="none" xmlns="http://www.w3.org/2000/svg">
<g opacity="0.5">
<path fill-rule="evenodd" clip-rule="evenodd" d="M17.1878 22.3065C17.1878 22.562 16.9795 22.771 16.7233 22.771H6.79347C6.53721 22.771 6.32895 22.562 6.32895 22.3065V1.39319C6.32895 1.13693 6.53721 0.928676 6.79347 0.928676H9.18805L9.36457 1.42881C9.46521 1.71603 9.73618 1.90803 10.0412 1.90803H13.4763C13.7798 1.90803 14.0515 1.71603 14.153 1.42881L14.3295 0.928676H16.7233C16.9795 0.928676 17.1878 1.13693 17.1878 1.39319V22.3065ZM16.7233 0.000427246H6.79345C6.02545 0.000427246 5.3999 0.625201 5.3999 1.3932V22.3065C5.3999 23.0745 6.02545 23.6993 6.79345 23.6993H16.7233C17.492 23.6993 18.1168 23.0745 18.1168 22.3065V1.3932C18.1168 0.625201 17.492 0.000427246 16.7233 0.000427246ZM15.0417 21.5741C15.0417 21.41 14.9086 21.2768 14.7436 21.2768H8.77461C8.61048 21.2768 8.47732 21.41 8.47732 21.5741C8.47732 21.7383 8.61048 21.8714 8.77461 21.8714H14.7436C14.9086 21.8714 15.0417 21.7383 15.0417 21.5741Z" fill="black"/>
</g>
</svg>
