<svg width="18" height="18" viewBox="0 0 18 18" fill="none" xmlns="http://www.w3.org/2000/svg">
<path fill-rule="evenodd" clip-rule="evenodd" d="M9 0C4.02981 0 0 4.03128 0 9.00009C0 13.9717 4.02981 18 9 18C13.9702 18 18 13.9717 18 9.00009C18 4.03128 13.9702 0 9 0ZM9 1.16105C13.3048 1.16105 16.8387 4.64763 16.8387 8.99986C16.8387 13.3289 13.3327 16.8386 9 16.8386C4.67262 16.8386 1.16128 13.3343 1.16128 8.99986C1.16128 4.67385 4.66705 1.16105 9 1.16105ZM9.27837 11.1773H8.69768C8.45722 11.1773 8.26217 10.9823 8.26217 10.7418V10.728C8.26217 8.17514 11.0726 8.41916 11.0726 6.83013C11.0726 6.10373 10.428 5.37083 8.98803 5.37083C7.93035 5.37083 7.38164 5.72102 6.83923 6.41216C6.69744 6.59278 6.43807 6.6296 6.24959 6.49831L5.77296 6.16622C5.56877 6.02397 5.52401 5.73902 5.67694 5.54287C6.44729 4.5548 7.36117 3.91921 8.98803 3.91921C10.8867 3.91921 12.5241 4.99891 12.5241 6.83013C12.5241 9.27658 9.71379 9.14721 9.71379 10.728V10.7418C9.71379 10.9823 9.51883 11.1773 9.27837 11.1773ZM9 12.0483C8.43878 12.0483 7.98389 12.5032 7.98389 13.0645C7.98389 13.6257 8.43878 14.0806 9 14.0806C9.56123 14.0806 10.0161 13.6257 10.0161 13.0645C10.0161 12.5032 9.56123 12.0483 9 12.0483Z" fill="black"/>
<mask id="mask0" mask-type="alpha" maskUnits="userSpaceOnUse" x="0" y="0" width="18" height="18">
<path fill-rule="evenodd" clip-rule="evenodd" d="M9 0C4.02981 0 0 4.03128 0 9.00009C0 13.9717 4.02981 18 9 18C13.9702 18 18 13.9717 18 9.00009C18 4.03128 13.9702 0 9 0ZM9 1.16105C13.3048 1.16105 16.8387 4.64763 16.8387 8.99986C16.8387 13.3289 13.3327 16.8386 9 16.8386C4.67262 16.8386 1.16128 13.3343 1.16128 8.99986C1.16128 4.67385 4.66705 1.16105 9 1.16105ZM9.27837 11.1773H8.69768C8.45722 11.1773 8.26217 10.9823 8.26217 10.7418V10.728C8.26217 8.17514 11.0726 8.41916 11.0726 6.83013C11.0726 6.10373 10.428 5.37083 8.98803 5.37083C7.93035 5.37083 7.38164 5.72102 6.83923 6.41216C6.69744 6.59278 6.43807 6.6296 6.24959 6.49831L5.77296 6.16622C5.56877 6.02397 5.52401 5.73902 5.67694 5.54287C6.44729 4.5548 7.36117 3.91921 8.98803 3.91921C10.8867 3.91921 12.5241 4.99891 12.5241 6.83013C12.5241 9.27658 9.71379 9.14721 9.71379 10.728V10.7418C9.71379 10.9823 9.51883 11.1773 9.27837 11.1773ZM9 12.0483C8.43878 12.0483 7.98389 12.5032 7.98389 13.0645C7.98389 13.6257 8.43878 14.0806 9 14.0806C9.56123 14.0806 10.0161 13.6257 10.0161 13.0645C10.0161 12.5032 9.56123 12.0483 9 12.0483Z" fill="white"/>
</mask>
<g mask="url(#mask0)">
</g>
</svg>
