<svg width="183" height="62" viewBox="0 0 183 62" fill="none" xmlns="http://www.w3.org/2000/svg">
<g clip-path="url(#clip0)">
<path fill-rule="evenodd" clip-rule="evenodd" d="M162.609 9.53817C166.086 11.3912 168.332 13.5016 170.037 18.9999C170.033 19.1355 169.868 19.2386 169.744 19.1824C166.415 16.7561 164.027 14.8329 162.401 9.76926C162.387 9.65315 162.491 9.5372 162.609 9.53809V9.53817ZM169.625 9.71664C169.641 9.71884 169.653 9.7232 169.667 9.72869C172.238 12.7052 173.568 15.4816 173.166 21.2222C173.114 21.3474 172.924 21.3839 172.828 21.2872C170.603 17.8289 169.072 15.1772 169.39 9.87055C169.412 9.78544 169.494 9.7236 169.581 9.71647C169.595 9.71425 169.612 9.71425 169.626 9.71647L169.625 9.71664ZM175.922 16.0394C175.965 16.0417 176.006 16.0561 176.039 16.0839C177.567 19.7029 177.978 22.7486 175.823 28.0886C175.734 28.1915 175.542 28.1693 175.481 28.048C174.431 24.0763 173.793 21.085 175.733 16.1326C175.773 16.0706 175.848 16.0371 175.922 16.0394ZM164.968 17.6413C168.672 18.9908 171.196 20.7697 173.66 25.9756C173.675 26.1102 173.525 26.2328 173.394 26.1946C169.757 24.2569 167.121 22.6875 164.798 17.9009C164.766 17.7879 164.852 17.6569 164.968 17.6414V17.6413ZM180.974 21.5792C181.031 21.5876 181.084 21.6194 181.116 21.6685C181.481 25.577 180.953 28.6079 177.286 33.0566C177.171 33.1283 176.994 33.0446 176.973 32.9107C177.17 28.8083 177.46 25.7668 180.807 21.6238C180.851 21.5858 180.916 21.5707 180.974 21.5792ZM171.765 25.9836C171.809 25.9859 171.85 25.9998 171.884 26.0282C175.23 30.1712 175.524 33.2168 175.721 37.3191C175.701 37.4529 175.523 37.5326 175.408 37.461C171.741 33.0122 171.209 29.9814 171.574 26.0729C171.614 26.0115 171.693 25.9803 171.765 25.9836ZM181.809 29.9013C181.896 29.8983 181.986 29.9485 182.018 30.0311C181.538 33.9272 180.37 36.7746 175.835 40.3445C175.708 40.3901 175.551 40.2771 175.559 40.1418C176.628 36.1753 177.568 33.2606 181.724 29.9217C181.75 29.9077 181.78 29.9025 181.809 29.9012V29.9013ZM172.816 35.7739C172.859 35.7796 172.9 35.7991 172.93 35.8307C174.05 39.5949 174.122 42.6703 171.39 47.742C171.291 47.8347 171.099 47.7922 171.052 47.6649C170.447 43.6023 170.145 40.5568 172.62 35.8468C172.658 35.8009 172.713 35.7768 172.772 35.7739C172.786 35.7716 172.802 35.7716 172.816 35.7739ZM183.158 37.8992C183.258 37.9088 183.352 37.9994 183.353 38.1018C181.574 41.6048 179.505 43.8918 174.022 45.7183C173.886 45.7183 173.782 45.5551 173.835 45.4304C176.194 42.0608 178.07 39.6403 183.117 37.9031C183.132 37.9009 183.143 37.8975 183.158 37.8992ZM169.076 45.3614C169.149 45.3702 169.218 45.4159 169.247 45.4832C168.951 49.3974 167.921 52.2958 163.559 56.0724C163.433 56.1238 163.272 56.0132 163.274 55.8777C164.157 51.8658 164.955 48.9143 168.95 45.3858C168.988 45.3634 169.032 45.3562 169.076 45.3614ZM178.876 45.9818C178.992 45.9779 179.099 46.0925 179.087 46.2089C176.924 49.4909 174.611 51.5321 168.958 52.7343C168.822 52.7186 168.736 52.5441 168.803 52.4262C171.527 49.3415 173.663 47.1439 178.876 45.9818ZM173.586 53.363C174.539 53.3697 175.572 53.4616 176.724 53.655C176.835 53.6957 176.889 53.8395 176.834 53.9431C173.585 56.168 170.672 57.1907 164.981 56.1777C164.861 56.1122 164.846 55.9168 164.952 55.8329C167.837 54.402 170.186 53.3387 173.586 53.363Z" fill="#808080"/>
<path d="M33.2938 21.536V22.84H29.5898V33H28.0378V22.84H24.3178V21.536H33.2938ZM33.418 33V24.896H34.234C34.3887 24.896 34.4953 24.9253 34.554 24.984C34.6127 25.0427 34.6527 25.144 34.674 25.288L34.77 26.552C35.0473 25.9867 35.3887 25.5467 35.794 25.232C36.2047 24.912 36.6847 24.752 37.234 24.752C37.458 24.752 37.6607 24.7787 37.842 24.832C38.0233 24.88 38.1913 24.9493 38.346 25.04L38.162 26.104C38.1247 26.2373 38.042 26.304 37.914 26.304C37.8393 26.304 37.7247 26.28 37.57 26.232C37.4153 26.1787 37.1993 26.152 36.922 26.152C36.426 26.152 36.01 26.296 35.674 26.584C35.3433 26.872 35.066 27.2907 34.842 27.84V33H33.418ZM41.1031 24.896V30.064C41.1031 30.6773 41.2445 31.152 41.5271 31.488C41.8098 31.824 42.2365 31.992 42.8071 31.992C43.2231 31.992 43.6151 31.8933 43.9831 31.696C44.3511 31.4987 44.6898 31.224 44.9991 30.872V24.896H46.4231V33H45.5751C45.3725 33 45.2445 32.9013 45.1911 32.704L45.0791 31.832C44.7271 32.2213 44.3325 32.536 43.8951 32.776C43.4578 33.0107 42.9565 33.128 42.3911 33.128C41.9485 33.128 41.5565 33.056 41.2151 32.912C40.8791 32.7627 40.5965 32.5547 40.3671 32.288C40.1378 32.0213 39.9645 31.6987 39.8471 31.32C39.7351 30.9413 39.6791 30.5227 39.6791 30.064V24.896H41.1031ZM53.4018 26.232C53.3378 26.3493 53.2391 26.408 53.1058 26.408C53.0258 26.408 52.9351 26.3787 52.8338 26.32C52.7324 26.2613 52.6071 26.1973 52.4578 26.128C52.3138 26.0533 52.1404 25.9867 51.9378 25.928C51.7351 25.864 51.4951 25.832 51.2178 25.832C50.9778 25.832 50.7618 25.864 50.5698 25.928C50.3778 25.9867 50.2124 26.0693 50.0738 26.176C49.9404 26.2827 49.8364 26.408 49.7618 26.552C49.6924 26.6907 49.6578 26.8427 49.6578 27.008C49.6578 27.216 49.7164 27.3893 49.8338 27.528C49.9564 27.6667 50.1164 27.7867 50.3138 27.888C50.5111 27.9893 50.7351 28.08 50.9858 28.16C51.2364 28.2347 51.4924 28.3173 51.7538 28.408C52.0204 28.4933 52.2791 28.5893 52.5298 28.696C52.7804 28.8027 53.0044 28.936 53.2018 29.096C53.3991 29.256 53.5564 29.4533 53.6738 29.688C53.7964 29.9173 53.8578 30.1947 53.8578 30.52C53.8578 30.8933 53.7911 31.24 53.6578 31.56C53.5244 31.8747 53.3271 32.1493 53.0658 32.384C52.8044 32.6133 52.4844 32.7947 52.1058 32.928C51.7271 33.0613 51.2898 33.128 50.7938 33.128C50.2284 33.128 49.7164 33.0373 49.2578 32.856C48.7991 32.6693 48.4098 32.432 48.0898 32.144L48.4258 31.6C48.4684 31.5307 48.5191 31.4773 48.5778 31.44C48.6364 31.4027 48.7138 31.384 48.8098 31.384C48.9058 31.384 49.0071 31.4213 49.1138 31.496C49.2204 31.5707 49.3484 31.6533 49.4978 31.744C49.6524 31.8347 49.8364 31.9173 50.0498 31.992C50.2684 32.0667 50.5404 32.104 50.8658 32.104C51.1431 32.104 51.3858 32.0693 51.5938 32C51.8018 31.9253 51.9751 31.8267 52.1137 31.704C52.2524 31.5813 52.3538 31.44 52.4178 31.28C52.4871 31.12 52.5218 30.9493 52.5218 30.768C52.5218 30.544 52.4604 30.36 52.3378 30.216C52.2204 30.0667 52.0631 29.9413 51.8658 29.84C51.6684 29.7333 51.4418 29.6427 51.1858 29.568C50.9351 29.488 50.6764 29.4053 50.4098 29.32C50.1484 29.2347 49.8898 29.1387 49.6338 29.032C49.3831 28.92 49.1591 28.7813 48.9618 28.616C48.7644 28.4507 48.6044 28.248 48.4818 28.008C48.3644 27.7627 48.3058 27.4667 48.3058 27.12C48.3058 26.8107 48.3698 26.5147 48.4978 26.232C48.6258 25.944 48.8124 25.6933 49.0578 25.48C49.3031 25.2613 49.6044 25.088 49.9618 24.96C50.3191 24.832 50.7271 24.768 51.1858 24.768C51.7191 24.768 52.1964 24.8533 52.6178 25.024C53.0444 25.1893 53.4124 25.4187 53.7218 25.712L53.4018 26.232ZM58.1553 33.128C57.5153 33.128 57.0219 32.9493 56.6753 32.592C56.3339 32.2347 56.1633 31.72 56.1633 31.048V26.088H55.1873C55.1019 26.088 55.0299 26.064 54.9713 26.016C54.9126 25.9627 54.8833 25.8827 54.8833 25.776V25.208L56.2113 25.04L56.5393 22.536C56.5499 22.456 56.5846 22.392 56.6432 22.344C56.7019 22.2907 56.7766 22.264 56.8673 22.264H57.5873V25.056H59.9073V26.088H57.5873V30.952C57.5873 31.2933 57.6699 31.5467 57.8353 31.712C58.0006 31.8773 58.2139 31.96 58.4753 31.96C58.6246 31.96 58.7526 31.9413 58.8593 31.904C58.9713 31.8613 59.0673 31.816 59.1473 31.768C59.2273 31.72 59.2939 31.6773 59.3473 31.64C59.4059 31.5973 59.4566 31.576 59.4993 31.576C59.5739 31.576 59.6406 31.6213 59.6993 31.712L60.1153 32.392C59.8699 32.6213 59.5739 32.8027 59.2273 32.936C58.8806 33.064 58.5233 33.128 58.1553 33.128ZM64.876 24.768C65.3613 24.768 65.8093 24.8507 66.22 25.016C66.6307 25.176 66.9853 25.4107 67.284 25.72C67.5827 26.024 67.8147 26.4027 67.98 26.856C68.1507 27.304 68.236 27.816 68.236 28.392C68.236 28.616 68.212 28.7653 68.164 28.84C68.116 28.9147 68.0253 28.952 67.892 28.952H62.5C62.5107 29.464 62.58 29.9093 62.708 30.288C62.836 30.6667 63.012 30.984 63.236 31.24C63.46 31.4907 63.7267 31.68 64.036 31.808C64.3453 31.9307 64.692 31.992 65.076 31.992C65.4333 31.992 65.74 31.952 65.996 31.872C66.2573 31.7867 66.4813 31.696 66.668 31.6C66.8547 31.504 67.0093 31.416 67.132 31.336C67.26 31.2507 67.3693 31.208 67.46 31.208C67.5773 31.208 67.668 31.2533 67.732 31.344L68.132 31.864C67.956 32.0773 67.7453 32.264 67.5 32.424C67.2547 32.5787 66.9907 32.7067 66.708 32.808C66.4307 32.9093 66.1427 32.984 65.844 33.032C65.5453 33.0853 65.2493 33.112 64.956 33.112C64.396 33.112 63.8787 33.0187 63.404 32.832C62.9347 32.64 62.5267 32.3627 62.18 32C61.8387 31.632 61.572 31.1787 61.38 30.64C61.188 30.1013 61.092 29.4827 61.092 28.784C61.092 28.2187 61.1773 27.6907 61.348 27.2C61.524 26.7093 61.7747 26.2853 62.1 25.928C62.4253 25.5653 62.8227 25.2827 63.292 25.08C63.7613 24.872 64.2893 24.768 64.876 24.768ZM64.908 25.816C64.22 25.816 63.6787 26.016 63.284 26.416C62.8893 26.8107 62.644 27.36 62.548 28.064H66.956C66.956 27.7333 66.9107 27.432 66.82 27.16C66.7293 26.8827 66.596 26.6453 66.42 26.448C66.244 26.2453 66.028 26.0907 65.772 25.984C65.5213 25.872 65.2333 25.816 64.908 25.816ZM75.7626 33C75.56 33 75.432 32.9013 75.3786 32.704L75.2506 31.72C74.904 32.1413 74.5066 32.48 74.0586 32.736C73.616 32.9867 73.1066 33.112 72.5306 33.112C72.0666 33.112 71.6453 33.024 71.2666 32.848C70.888 32.6667 70.5653 32.4027 70.2986 32.056C70.032 31.7093 69.8266 31.2773 69.6826 30.76C69.5386 30.2427 69.4666 29.648 69.4666 28.976C69.4666 28.3787 69.5466 27.824 69.7066 27.312C69.8666 26.7947 70.096 26.3467 70.3946 25.968C70.6986 25.5893 71.0666 25.2933 71.4986 25.08C71.9306 24.8613 72.4213 24.752 72.9706 24.752C73.4666 24.752 73.8906 24.8373 74.2426 25.008C74.5946 25.1733 74.9093 25.408 75.1866 25.712V21.216H76.6106V33H75.7626ZM73.0026 31.96C73.4666 31.96 73.872 31.8533 74.2186 31.64C74.5706 31.4267 74.8933 31.1253 75.1866 30.736V26.816C74.9253 26.464 74.6373 26.2187 74.3226 26.08C74.0133 25.936 73.6693 25.864 73.2906 25.864C72.5333 25.864 71.952 26.1333 71.5466 26.672C71.1413 27.2107 70.9386 27.9787 70.9386 28.976C70.9386 29.504 70.984 29.9573 71.0746 30.336C71.1653 30.7093 71.2986 31.0187 71.4746 31.264C71.6506 31.504 71.8666 31.68 72.1226 31.792C72.3786 31.904 72.672 31.96 73.0026 31.96ZM86.2019 21.408C86.6232 21.408 87.0072 21.4773 87.3539 21.616C87.7005 21.7493 87.9992 21.928 88.2499 22.152C88.5059 22.376 88.7059 22.6373 88.8499 22.936C88.9992 23.2293 89.0845 23.536 89.1059 23.856L88.2179 24.032C88.1912 24.0373 88.1672 24.04 88.1459 24.04C88.0765 24.04 88.0099 24.0213 87.9459 23.984C87.8872 23.9467 87.8445 23.88 87.8179 23.784C87.7805 23.6453 87.7192 23.5013 87.6339 23.352C87.5539 23.2027 87.4472 23.0667 87.3139 22.944C87.1859 22.8213 87.0285 22.72 86.8419 22.64C86.6605 22.56 86.4472 22.52 86.2019 22.52C85.9352 22.52 85.6952 22.5627 85.4819 22.648C85.2685 22.7333 85.0845 22.8533 84.9299 23.008C84.7805 23.1573 84.6632 23.336 84.5779 23.544C84.4979 23.7467 84.4579 23.968 84.4579 24.208C84.4579 24.3947 84.4792 24.5733 84.5219 24.744C84.5699 24.9147 84.6392 25.088 84.7299 25.264C84.8205 25.4347 84.9379 25.6133 85.0819 25.8C85.2259 25.9813 85.3992 26.1733 85.6019 26.376L88.8979 29.728C89.1005 29.3707 89.2605 28.9973 89.3779 28.608C89.5005 28.2133 89.5832 27.8187 89.6259 27.424C89.6365 27.3227 89.6685 27.2427 89.7219 27.184C89.7752 27.1253 89.8499 27.096 89.9459 27.096H90.8259C90.8152 27.7093 90.7165 28.312 90.5299 28.904C90.3432 29.496 90.0739 30.0507 89.7219 30.568L92.1219 33H90.7459C90.5912 33 90.4659 32.9813 90.3699 32.944C90.2739 32.9067 90.1672 32.8293 90.0499 32.712L88.8979 31.552C88.3965 32.0373 87.8179 32.4213 87.1619 32.704C86.5112 32.9867 85.7939 33.128 85.0099 33.128C84.5832 33.128 84.1645 33.056 83.7539 32.912C83.3432 32.768 82.9752 32.56 82.6499 32.288C82.3299 32.0107 82.0712 31.6747 81.8739 31.28C81.6765 30.8853 81.5779 30.44 81.5779 29.944C81.5779 29.5707 81.6392 29.2187 81.7619 28.888C81.8899 28.552 82.0632 28.2427 82.2819 27.96C82.5059 27.6773 82.7699 27.424 83.0739 27.2C83.3779 26.976 83.7112 26.784 84.0739 26.624C83.7485 26.2133 83.5085 25.8133 83.3539 25.424C83.1992 25.0347 83.1219 24.632 83.1219 24.216C83.1219 23.8267 83.1912 23.4613 83.3299 23.12C83.4739 22.7787 83.6792 22.4827 83.9459 22.232C84.2125 21.976 84.5352 21.776 84.9139 21.632C85.2979 21.4827 85.7272 21.408 86.2019 21.408ZM83.0259 29.832C83.0259 30.1787 83.0899 30.4853 83.2179 30.752C83.3459 31.0133 83.5139 31.2347 83.7219 31.416C83.9299 31.5973 84.1672 31.736 84.4339 31.832C84.7005 31.9227 84.9725 31.968 85.2499 31.968C85.8472 31.968 86.3832 31.8587 86.8579 31.64C87.3325 31.4213 87.7512 31.1307 88.1139 30.768L84.7299 27.352C84.1645 27.656 83.7379 28.0213 83.4499 28.448C83.1672 28.8693 83.0259 29.3307 83.0259 29.832ZM103.722 21.536V22.8H98.2176V26.808H102.922V28.072H98.2176V33H96.6576V21.536H103.722ZM108.142 24.768C108.627 24.768 109.075 24.8507 109.486 25.016C109.896 25.176 110.251 25.4107 110.55 25.72C110.848 26.024 111.08 26.4027 111.246 26.856C111.416 27.304 111.502 27.816 111.502 28.392C111.502 28.616 111.478 28.7653 111.43 28.84C111.382 28.9147 111.291 28.952 111.158 28.952H105.766C105.776 29.464 105.846 29.9093 105.974 30.288C106.102 30.6667 106.278 30.984 106.502 31.24C106.726 31.4907 106.992 31.68 107.302 31.808C107.611 31.9307 107.958 31.992 108.342 31.992C108.699 31.992 109.006 31.952 109.262 31.872C109.523 31.7867 109.747 31.696 109.934 31.6C110.12 31.504 110.275 31.416 110.398 31.336C110.526 31.2507 110.635 31.208 110.726 31.208C110.843 31.208 110.934 31.2533 110.998 31.344L111.398 31.864C111.222 32.0773 111.011 32.264 110.766 32.424C110.52 32.5787 110.256 32.7067 109.974 32.808C109.696 32.9093 109.408 32.984 109.11 33.032C108.811 33.0853 108.515 33.112 108.222 33.112C107.662 33.112 107.144 33.0187 106.67 32.832C106.2 32.64 105.792 32.3627 105.446 32C105.104 31.632 104.838 31.1787 104.646 30.64C104.454 30.1013 104.358 29.4827 104.358 28.784C104.358 28.2187 104.443 27.6907 104.614 27.2C104.79 26.7093 105.04 26.2853 105.366 25.928C105.691 25.5653 106.088 25.2827 106.558 25.08C107.027 24.872 107.555 24.768 108.142 24.768ZM108.174 25.816C107.486 25.816 106.944 26.016 106.55 26.416C106.155 26.8107 105.91 27.36 105.814 28.064H110.222C110.222 27.7333 110.176 27.432 110.086 27.16C109.995 26.8827 109.862 26.6453 109.686 26.448C109.51 26.2453 109.294 26.0907 109.038 25.984C108.787 25.872 108.499 25.816 108.174 25.816ZM119.276 33H118.644C118.506 33 118.394 32.9787 118.308 32.936C118.223 32.8933 118.167 32.8027 118.14 32.664L117.98 31.912C117.767 32.104 117.559 32.2773 117.356 32.432C117.154 32.5813 116.94 32.7093 116.716 32.816C116.492 32.9173 116.252 32.9947 115.996 33.048C115.746 33.1013 115.466 33.128 115.156 33.128C114.842 33.128 114.546 33.0853 114.268 33C113.996 32.9093 113.759 32.776 113.556 32.6C113.354 32.424 113.191 32.2027 113.068 31.936C112.951 31.664 112.892 31.344 112.892 30.976C112.892 30.656 112.98 30.3493 113.156 30.056C113.332 29.7573 113.615 29.4933 114.004 29.264C114.399 29.0347 114.914 28.848 115.548 28.704C116.183 28.5547 116.959 28.4693 117.876 28.448V27.816C117.876 27.1867 117.74 26.712 117.468 26.392C117.202 26.0667 116.804 25.904 116.276 25.904C115.93 25.904 115.636 25.9493 115.396 26.04C115.162 26.1253 114.956 26.224 114.78 26.336C114.61 26.4427 114.46 26.5413 114.332 26.632C114.21 26.7173 114.087 26.76 113.964 26.76C113.868 26.76 113.783 26.736 113.708 26.688C113.639 26.6347 113.583 26.5707 113.54 26.496L113.284 26.04C113.732 25.608 114.215 25.2853 114.732 25.072C115.25 24.8587 115.823 24.752 116.452 24.752C116.906 24.752 117.308 24.8267 117.66 24.976C118.012 25.1253 118.308 25.3333 118.548 25.6C118.788 25.8667 118.97 26.1893 119.092 26.568C119.215 26.9467 119.276 27.3627 119.276 27.816V33ZM115.58 32.128C115.831 32.128 116.06 32.104 116.268 32.056C116.476 32.0027 116.671 31.9307 116.852 31.84C117.039 31.744 117.215 31.6293 117.38 31.496C117.551 31.3627 117.716 31.2107 117.876 31.04V29.352C117.22 29.3733 116.663 29.4267 116.204 29.512C115.746 29.592 115.372 29.6987 115.084 29.832C114.796 29.9653 114.586 30.1227 114.452 30.304C114.324 30.4853 114.26 30.688 114.26 30.912C114.26 31.1253 114.295 31.3093 114.364 31.464C114.434 31.6187 114.527 31.7467 114.644 31.848C114.762 31.944 114.9 32.016 115.06 32.064C115.22 32.1067 115.394 32.128 115.58 32.128ZM123.89 33.128C123.25 33.128 122.756 32.9493 122.41 32.592C122.068 32.2347 121.898 31.72 121.898 31.048V26.088H120.922C120.836 26.088 120.764 26.064 120.706 26.016C120.647 25.9627 120.618 25.8827 120.618 25.776V25.208L121.946 25.04L122.274 22.536C122.284 22.456 122.319 22.392 122.378 22.344C122.436 22.2907 122.511 22.264 122.602 22.264H123.322V25.056H125.642V26.088H123.322V30.952C123.322 31.2933 123.404 31.5467 123.57 31.712C123.735 31.8773 123.948 31.96 124.21 31.96C124.359 31.96 124.487 31.9413 124.594 31.904C124.706 31.8613 124.802 31.816 124.882 31.768C124.962 31.72 125.028 31.6773 125.082 31.64C125.14 31.5973 125.191 31.576 125.234 31.576C125.308 31.576 125.375 31.6213 125.434 31.712L125.85 32.392C125.604 32.6213 125.308 32.8027 124.962 32.936C124.615 33.064 124.258 33.128 123.89 33.128ZM128.634 24.896V30.064C128.634 30.6773 128.776 31.152 129.058 31.488C129.341 31.824 129.768 31.992 130.338 31.992C130.754 31.992 131.146 31.8933 131.514 31.696C131.882 31.4987 132.221 31.224 132.53 30.872V24.896H133.954V33H133.106C132.904 33 132.776 32.9013 132.722 32.704L132.61 31.832C132.258 32.2213 131.864 32.536 131.426 32.776C130.989 33.0107 130.488 33.128 129.922 33.128C129.48 33.128 129.088 33.056 128.746 32.912C128.41 32.7627 128.128 32.5547 127.898 32.288C127.669 32.0213 127.496 31.6987 127.378 31.32C127.266 30.9413 127.21 30.5227 127.21 30.064V24.896H128.634ZM136.293 33V24.896H137.109C137.264 24.896 137.37 24.9253 137.429 24.984C137.488 25.0427 137.528 25.144 137.549 25.288L137.645 26.552C137.922 25.9867 138.264 25.5467 138.669 25.232C139.08 24.912 139.56 24.752 140.109 24.752C140.333 24.752 140.536 24.7787 140.717 24.832C140.898 24.88 141.066 24.9493 141.221 25.04L141.037 26.104C141 26.2373 140.917 26.304 140.789 26.304C140.714 26.304 140.6 26.28 140.445 26.232C140.29 26.1787 140.074 26.152 139.797 26.152C139.301 26.152 138.885 26.296 138.549 26.584C138.218 26.872 137.941 27.2907 137.717 27.84V33H136.293ZM145.954 24.768C146.439 24.768 146.887 24.8507 147.298 25.016C147.709 25.176 148.063 25.4107 148.362 25.72C148.661 26.024 148.893 26.4027 149.058 26.856C149.229 27.304 149.314 27.816 149.314 28.392C149.314 28.616 149.29 28.7653 149.242 28.84C149.194 28.9147 149.103 28.952 148.97 28.952H143.578C143.589 29.464 143.658 29.9093 143.786 30.288C143.914 30.6667 144.09 30.984 144.314 31.24C144.538 31.4907 144.805 31.68 145.114 31.808C145.423 31.9307 145.77 31.992 146.154 31.992C146.511 31.992 146.818 31.952 147.074 31.872C147.335 31.7867 147.559 31.696 147.746 31.6C147.933 31.504 148.087 31.416 148.21 31.336C148.338 31.2507 148.447 31.208 148.538 31.208C148.655 31.208 148.746 31.2533 148.81 31.344L149.21 31.864C149.034 32.0773 148.823 32.264 148.578 32.424C148.333 32.5787 148.069 32.7067 147.786 32.808C147.509 32.9093 147.221 32.984 146.922 33.032C146.623 33.0853 146.327 33.112 146.034 33.112C145.474 33.112 144.957 33.0187 144.482 32.832C144.013 32.64 143.605 32.3627 143.258 32C142.917 31.632 142.65 31.1787 142.458 30.64C142.266 30.1013 142.17 29.4827 142.17 28.784C142.17 28.2187 142.255 27.6907 142.426 27.2C142.602 26.7093 142.853 26.2853 143.178 25.928C143.503 25.5653 143.901 25.2827 144.37 25.08C144.839 24.872 145.367 24.768 145.954 24.768ZM145.986 25.816C145.298 25.816 144.757 26.016 144.362 26.416C143.967 26.8107 143.722 27.36 143.626 28.064H148.034C148.034 27.7333 147.989 27.432 147.898 27.16C147.807 26.8827 147.674 26.6453 147.498 26.448C147.322 26.2453 147.106 26.0907 146.85 25.984C146.599 25.872 146.311 25.816 145.986 25.816ZM156.841 33C156.638 33 156.51 32.9013 156.457 32.704L156.329 31.72C155.982 32.1413 155.585 32.48 155.137 32.736C154.694 32.9867 154.185 33.112 153.609 33.112C153.145 33.112 152.723 33.024 152.345 32.848C151.966 32.6667 151.643 32.4027 151.377 32.056C151.11 31.7093 150.905 31.2773 150.761 30.76C150.617 30.2427 150.545 29.648 150.545 28.976C150.545 28.3787 150.625 27.824 150.785 27.312C150.945 26.7947 151.174 26.3467 151.473 25.968C151.777 25.5893 152.145 25.2933 152.577 25.08C153.009 24.8613 153.499 24.752 154.049 24.752C154.545 24.752 154.969 24.8373 155.321 25.008C155.673 25.1733 155.987 25.408 156.265 25.712V21.216H157.689V33H156.841ZM154.081 31.96C154.545 31.96 154.95 31.8533 155.297 31.64C155.649 31.4267 155.971 31.1253 156.265 30.736V26.816C156.003 26.464 155.715 26.2187 155.401 26.08C155.091 25.936 154.747 25.864 154.369 25.864C153.611 25.864 153.03 26.1333 152.625 26.672C152.219 27.2107 152.017 27.9787 152.017 28.976C152.017 29.504 152.062 29.9573 152.153 30.336C152.243 30.7093 152.377 31.0187 152.553 31.264C152.729 31.504 152.945 31.68 153.201 31.792C153.457 31.904 153.75 31.96 154.081 31.96Z" fill="#494949"/>
<path fill-rule="evenodd" clip-rule="evenodd" d="M20.391 9.53817C16.9142 11.3912 14.6686 13.5016 12.9628 18.9999C12.9666 19.1355 13.1321 19.2386 13.2562 19.1824C16.5853 16.7561 18.9722 14.8329 20.5987 9.76926C20.6129 9.65315 20.5085 9.5372 20.391 9.53809V9.53817ZM13.3742 9.71664C13.3598 9.71884 13.3471 9.7232 13.3334 9.72869C10.7623 12.7052 9.43177 15.4816 9.83331 21.2222C9.8859 21.3474 10.0762 21.3839 10.1715 21.2872C12.3973 17.8289 13.9285 15.1772 13.6105 9.87055C13.5889 9.78544 13.5056 9.7236 13.419 9.71647C13.4045 9.71425 13.3885 9.71425 13.3742 9.71647V9.71664ZM7.07881 16.0394C7.03504 16.0417 6.99467 16.0561 6.96071 16.0839C5.43314 19.7029 5.02179 22.7486 7.17664 28.0886C7.26532 28.1915 7.45811 28.1693 7.51893 28.048C8.56904 24.0763 9.2077 21.085 7.26632 16.1326C7.22733 16.0706 7.15176 16.0371 7.07881 16.0394ZM18.0316 17.6413C14.3281 18.9908 11.8039 20.7697 9.34028 25.9756C9.32462 26.1102 9.47438 26.2328 9.6051 26.1946C13.2432 24.2569 15.8789 22.6875 18.2027 17.9009C18.2332 17.7879 18.1481 17.6569 18.0316 17.6414V17.6413ZM2.0262 21.5792C1.96826 21.5876 1.91559 21.6194 1.88361 21.6685C1.51916 25.577 2.04656 28.6079 5.71381 33.0566C5.82944 33.1283 6.00615 33.0446 6.0275 32.9107C5.83019 28.8083 5.53991 25.7668 2.19326 21.6238C2.1486 21.5858 2.08415 21.5707 2.0262 21.5792ZM11.2349 25.9836C11.1912 25.9859 11.1502 25.9998 11.1167 26.0282C7.77009 30.1712 7.47585 33.2168 7.27837 37.3191C7.2998 37.4529 7.47651 37.5326 7.59214 37.461C11.2594 33.0122 11.7908 29.9814 11.4264 26.0729C11.3864 26.0115 11.3077 25.9803 11.2349 25.9836ZM1.19076 29.9013C1.10389 29.8983 1.01414 29.9485 0.982977 30.0311C1.46275 33.9272 2.62973 36.7746 7.16427 40.3445C7.2926 40.3901 7.44912 40.2771 7.44136 40.1418C6.37115 36.1753 5.43231 33.2606 1.27632 29.9217C1.25043 29.9077 1.21977 29.9025 1.19076 29.9012V29.9013ZM10.1836 35.7739C10.1403 35.7796 10.1003 35.7991 10.0695 35.8307C8.95105 39.5949 8.87818 42.6703 11.6098 47.742C11.7092 47.8347 11.9009 47.7922 11.9479 47.6649C12.553 43.6023 12.8558 40.5568 10.3791 35.8468C10.3426 35.8009 10.2868 35.7768 10.2284 35.7739C10.2139 35.7716 10.198 35.7716 10.1835 35.7739H10.1836ZM-0.157934 37.8992C-0.258732 37.9088 -0.351867 37.9994 -0.353516 38.1018C1.42609 41.6048 3.49489 43.8918 8.97751 45.7183C9.11375 45.7183 9.21834 45.5551 9.16494 45.4304C6.80601 42.0608 4.93064 39.6403 -0.117136 37.9031C-0.131807 37.9009 -0.143511 37.8975 -0.157934 37.8992ZM13.9242 45.3614C13.8517 45.3702 13.7822 45.4159 13.7531 45.4832C14.0496 49.3974 15.0791 52.2958 19.4413 56.0724C19.5673 56.1238 19.728 56.0132 19.7266 55.8777C18.8435 51.8658 18.0455 48.9143 14.0504 45.3858C14.0126 45.3634 13.9676 45.3562 13.9242 45.3614ZM4.12461 45.9818C4.00707 45.9779 3.90133 46.0925 3.9127 46.2089C6.0763 49.4909 8.38849 51.5321 14.0424 52.7343C14.1778 52.7186 14.2644 52.5441 14.1972 52.4262C11.4731 49.3415 9.33648 47.1439 4.12461 45.9818ZM9.41337 53.363C8.46127 53.3697 7.42797 53.4616 6.27591 53.655C6.16565 53.6957 6.11117 53.8395 6.16588 53.9431C9.41486 56.168 12.3278 57.1907 18.0191 56.1777C18.1385 56.1122 18.1546 55.9168 18.0478 55.8329C15.1624 54.402 12.814 53.3387 9.41337 53.363Z" fill="#808080"/>
<g clip-path="url(#clip1)">
<path d="M67.9171 42H54V56H67.9171V42Z" fill="#808080"/>
<path d="M82.9938 42H69.0768V56H82.9938V42Z" fill="#808080"/>
<path d="M98.0706 42H84.1536V56H98.0706V42Z" fill="#808080"/>
<path d="M113.148 42H99.2305V56H113.148V42Z" fill="#808080"/>
<path d="M128.224 42H114.307V56H128.224V42Z" fill="#808080"/>
<path d="M60.9586 51.4352L63.0752 50.8956L63.9595 53.6373L60.9586 51.4352ZM65.8296 47.8915H62.1039L60.9586 44.3623L59.8134 47.8915H56.0876L59.103 50.079L57.9578 53.6081L60.9731 51.4206L62.8287 50.079L65.8296 47.8915Z" fill="white"/>
<path d="M76.0354 51.4352L78.1519 50.8956L79.0363 53.6373L76.0354 51.4352ZM80.9064 47.8915H77.1807L76.0354 44.3623L74.8901 47.8915H71.1644L74.1798 50.079L73.0345 53.6081L76.0499 51.4206L77.9055 50.079L80.9064 47.8915Z" fill="white"/>
<path d="M91.1122 51.4352L93.2287 50.8956L94.1131 53.6373L91.1122 51.4352ZM95.9832 47.8915H92.2574L91.1122 44.3623L89.9669 47.8915H86.2412L89.2566 50.079L88.1113 53.6081L91.1267 51.4206L92.9823 50.079L95.9832 47.8915Z" fill="white"/>
<path d="M106.189 51.4352L108.306 50.8956L109.19 53.6373L106.189 51.4352ZM111.06 47.8915H107.334L106.189 44.3623L105.044 47.8915H101.318L104.333 50.079L103.188 53.6081L106.203 51.4206L108.059 50.079L111.06 47.8915Z" fill="white"/>
<path d="M121.266 51.4352L123.382 50.8956L124.267 53.6373L121.266 51.4352ZM126.137 47.8915H122.411L121.266 44.3623L120.121 47.8915H116.395L119.41 50.079L118.265 53.6081L121.28 51.4206L123.136 50.079L126.137 47.8915Z" fill="white"/>
</g>
</g>
<defs>
<clipPath id="clip0">
<rect width="183" height="62" fill="white"/>
</clipPath>
<clipPath id="clip1">
<rect width="74.2243" height="14" fill="white" transform="translate(54 42)"/>
</clipPath>
</defs>
</svg>
