<svg width="154" height="154" viewBox="0 0 154 154" fill="none" xmlns="http://www.w3.org/2000/svg">
<g clip-path="url(#clip0)">
<rect width="153.21" height="153.23" rx="76.605" fill="#F7F7F7"/>
<path d="M76.5463 69.714C74.0448 67.3129 71.4429 65.0053 69.1689 62.3835C65.5705 58.25 62.4938 53.8155 61.2096 48.3443C58.7014 37.6762 66.4734 26.9814 77.4158 26.0784C86.191 25.3561 93.341 29.6567 96.2772 37.6428C98.5045 43.6892 97.3273 49.4613 94.2841 54.9459C91.4147 60.1161 87.4552 64.3231 82.7264 67.8346C81.8636 68.4767 81.0008 69.1254 80.138 69.7675C80.051 69.8946 79.9306 69.9949 79.7902 70.0618C78.807 70.2558 77.8171 70.2692 76.8339 70.0484C76.6867 69.9816 76.5931 69.8679 76.5463 69.714Z" fill="white" stroke="#202020" stroke-width="1.5" stroke-miterlimit="10"/>
<path d="M78.1848 74.8774C78.5594 74.8841 78.9272 74.8975 79.3018 74.9042C79.3285 77.9006 79.1346 80.9038 79.3553 83.9002C78.9874 83.9805 78.6196 84.1343 78.2383 83.947C78.2183 80.9238 78.2049 77.9006 78.1848 74.8774Z" fill="#17FFA4"/>
<path d="M89.4348 87.1041C88.8462 84.8233 87.1674 83.6729 84.793 83.606C82.9737 83.5592 77.4625 84.1344 76.7267 84.1611C75.5964 83.0642 74.6199 81.8135 72.941 81.4055C71.1619 80.9774 69.3828 80.6698 67.5635 80.4423C60.5005 79.5528 53.4441 79.7802 46.4079 80.6162C41.1574 81.245 35.9003 81.7734 30.6231 81.8737C19.9349 82.0743 9.24002 82.1345 -1.44816 82.1813C-2.72566 82.188 -3.00657 82.5893 -2.99988 83.7933C-2.95307 93.2775 -2.97313 102.755 -2.97313 112.239C-2.97313 112.754 -2.95975 113.269 -2.97313 113.791C-2.9932 114.366 -2.7591 114.641 -2.15045 114.661C-0.886327 114.701 0.371106 114.834 1.62854 114.861C9.97575 115.022 18.3163 114.841 26.6635 115.102C34.6763 115.349 42.6958 115.283 50.7086 115.43C59.2765 115.59 67.8578 115.791 76.3923 114.661C77.6163 114.5 80.2181 114.346 80.4455 114.319C83.8299 113.978 87.2209 113.644 90.5919 113.182C92.5784 112.908 94.5582 112.48 96.3708 111.577C97.762 110.882 98.6515 109.123 98.4241 107.725C98.19 106.327 97.4142 105.665 95.5414 105.33C94.7655 105.19 93.9495 105.203 93.187 105.009C91.6821 104.621 88.5586 104.688 88.5586 104.688C88.5586 104.688 90.2374 99.7386 89.6823 97.217C89.689 97.217 90.2843 90.4282 89.4348 87.1041Z" fill="white" stroke="#202020" stroke-width="1.5" stroke-miterlimit="10"/>
<path d="M89.8026 97.3908C87.1005 98.9559 79.5893 100.936 78.8068 101.023C77.6831 101.15 76.8604 101.478 76.2183 102.568C75.4826 103.805 74.0513 103.986 72.7136 103.798C71.4762 103.631 70.2589 103.364 69.2222 102.487C68.4998 101.872 67.5166 102.347 66.8679 102.722C66.5067 102.929 67.0016 103.825 67.3093 104.333C68.9279 107.016 71.6568 107.557 74.3857 107.511C78.8402 107.437 83.1944 106.527 87.3546 104.828C87.7426 104.668 88.0971 104.4 88.5519 104.548C88.7258 105.611 87.776 105.598 87.2209 105.825C84.7662 106.848 82.1778 107.39 79.5693 107.872C79.2549 108.146 78.9272 108.353 78.4924 108.139C76.5461 108.086 74.6399 108.527 72.64 108.233C67.8778 107.537 66.4197 105.584 65.2559 101.049C64.9683 99.9325 64.8279 98.7821 64.6005 97.5514C63.4233 98.3272 62.4133 99.1767 61.1225 99.5178C60.8148 99.598 60.4536 99.8388 60.2663 99.4375C60.0657 99.0028 60.467 98.9091 60.7813 98.7954C63.323 97.859 64.9349 95.8592 66.4799 93.7858C66.7943 93.3644 66.9548 92.5551 67.6504 92.8159C68.2724 93.05 68.0183 93.8058 68.0383 94.3409C68.1387 96.6886 68.4664 99.0028 69.4897 101.143C70.3191 102.882 73.7637 103.611 75.2686 102.414C76.0444 101.799 76.1381 100.829 76.1849 99.986C76.4324 95.5181 77.1949 91.0635 76.5528 86.5689C76.4457 85.8131 76.2785 84.9703 76.8002 84.248C76.8872 84.2279 76.9741 84.2346 77.0544 84.2614C77.7166 86.6291 77.6296 89.057 77.6296 91.4782C77.6296 93.3711 77.6296 93.3778 79.4622 92.9229C82.5925 92.1404 85.6491 91.1171 88.6522 89.9533C88.9331 89.8463 89.2074 89.5586 89.622 89.9198C89.4415 90.4081 89.0468 90.7024 88.6255 90.9766C87.5553 91.8595 80.0843 94.0533 79.0074 94.3208C78.0777 94.5482 77.6697 95.0432 77.7232 95.993C77.7768 96.9227 77.7166 97.859 77.5226 98.7754C77.342 99.6382 77.6229 100.3 78.5526 100.1C79.0877 99.986 87.8964 97.4243 88.3445 97.1768C88.8395 96.9762 89.3344 96.6484 89.8026 97.217C89.7893 97.2638 89.7893 97.324 89.8026 97.3908Z" fill="#202020"/>
<path d="M79.8836 70.8175C80.646 71.7539 81.4085 72.6836 82.1576 73.6266C82.3984 73.9276 82.5924 74.262 82.3784 74.6433C82.1576 75.0513 81.743 74.9443 81.3818 74.9376C80.6862 74.9309 75.9374 74.8439 74.8137 74.9041C74.4124 74.9242 73.9308 75.1115 73.69 74.6031C73.4693 74.1416 73.777 73.7805 74.0579 73.4728C74.8672 72.5632 75.7033 71.6803 76.5259 70.784C76.5594 70.6235 76.6463 70.5165 76.7935 70.4496C77.7566 70.2289 78.7131 70.2088 79.6762 70.4563C79.8301 70.5299 79.8969 70.6503 79.8836 70.8175Z" fill="white" stroke="#202020" stroke-width="1.5" stroke-miterlimit="10"/>
<path d="M49.9862 103.491C50.2002 102.929 49.7119 101.886 50.3139 101.899C51.2503 101.919 50.8289 102.976 50.8557 103.598C50.8824 104.153 51.0764 105.183 50.4008 105.123C49.5514 105.043 50.2671 104.019 49.9862 103.491Z" fill="#202020"/>
<path d="M79.8837 127.623C79.964 124.198 79.4958 110.494 79.5627 107.878C79.2015 107.965 78.847 108.059 78.4858 108.146C78.4791 109.183 78.8136 124.212 78.7935 127.636C78.7935 128.118 79.8703 128.091 79.8837 127.623Z" fill="#17FFA4"/>
<path d="M71.4161 31.3622C71.3827 31.6698 71.1753 31.8571 70.9412 32.011C68.199 33.7834 66.6004 36.4454 65.2694 39.3215C65.0554 39.783 64.9617 40.6458 64.2193 40.3381C63.4167 40.0037 63.905 39.3014 64.1324 38.7663C65.4567 35.6629 67.2893 32.9407 70.1119 30.9943C70.4262 30.7736 70.7272 30.5328 71.1218 30.7736C71.3292 30.894 71.4429 31.1013 71.4161 31.3622Z" fill="#17FFA4"/>
<path d="M73.008 30.6533C72.5933 30.6667 72.2857 30.5396 72.2923 30.1249C72.3057 29.4494 72.8542 29.3223 73.3625 29.2353C73.7772 29.1684 74.1852 29.3557 74.125 29.8172C74.0514 30.4392 73.4428 30.4994 73.008 30.6533Z" fill="#17FFA4"/>
<path d="M67.1222 94.7554C67.3362 96.7352 67.6572 98.5544 68.199 100.34C68.2926 100.648 68.801 101.129 68.1321 101.384C67.5368 101.611 66.8546 101.939 66.2995 101.377C65.0287 100.073 65.4835 96.0663 67.1222 94.7554Z" fill="white"/>
<path d="M80.1378 69.7679C80.0509 69.7679 76.5394 69.7144 76.5394 69.7144C76.0846 70.0688 76.098 70.4233 76.5261 70.7845C76.5261 70.7845 79.8435 70.7778 79.877 70.818C80.3585 70.5638 80.3987 70.2026 80.1378 69.7679Z" fill="#17FFA4"/>
</g>
<defs>
<clipPath id="clip0">
<rect width="153.21" height="153.23" rx="76.605" fill="white"/>
</clipPath>
</defs>
</svg>
