<svg width="50" height="50" viewBox="0 0 50 50" fill="none" xmlns="http://www.w3.org/2000/svg">
<path fill-rule="evenodd" clip-rule="evenodd" d="M47.0834 26.0417C47.0834 38.1256 37.009 47.9167 24.5835 47.9167C12.1577 47.9167 2.08337 38.1256 2.08337 26.0417C2.08337 13.9649 12.1577 4.16669 24.5835 4.16669C37.009 4.16669 47.0834 13.9649 47.0834 26.0417Z" fill="#ED3963"/>
<path fill-rule="evenodd" clip-rule="evenodd" d="M21.7164 28.07L21.0446 15.7313C21.0106 15.1077 21.5061 14.5833 22.1298 14.5833H27.8709C28.4943 14.5833 28.99 15.1077 28.9561 15.7313L28.2843 28.07C28.2528 28.6474 27.7762 29.0994 27.1989 29.0994H22.8018C22.2244 29.0994 21.7478 28.6474 21.7164 28.07ZM20.8334 34.9059C20.8334 32.6011 22.6989 30.7325 25.0002 30.7325C27.3012 30.7325 29.1667 32.6011 29.1667 34.9059C29.1667 37.2109 27.3012 39.0795 25.0002 39.0795C22.6989 39.0795 20.8334 37.2109 20.8334 34.9059Z" fill="white"/>
</svg>
