<svg width="104" height="104" viewBox="0 0 104 104" fill="none" xmlns="http://www.w3.org/2000/svg">
<rect width="104" height="104" rx="52" fill="#F7F7F7"/>
<path fill-rule="evenodd" clip-rule="evenodd" d="M62.9833 73.7453L19.3769 82.0222C18.2219 82.2339 17.055 81.7183 16.4333 80.722C15.8928 79.8547 15.8551 78.7652 16.3348 77.863L37.8442 37.9398L62.9833 73.7453Z" fill="white"/>
<path fill-rule="evenodd" clip-rule="evenodd" d="M62.9833 73.7453L19.3769 82.0222C18.2219 82.2339 17.055 81.7183 16.4333 80.722C15.8928 79.8547 15.8551 78.7652 16.3348 77.863L37.8442 37.9398L62.9833 73.7453Z" stroke="#202020" stroke-linecap="round" stroke-linejoin="round"/>
<path fill-rule="evenodd" clip-rule="evenodd" d="M54.9148 52.6985C61.837 62.6007 65.4176 72.0479 62.9122 73.7993C60.4068 75.5511 52.7639 68.9433 45.8412 59.0411C38.9189 49.1389 35.3383 39.6912 37.8438 37.9398C40.3496 36.1885 47.9925 42.7958 54.9148 52.6985Z" fill="#E0E0E0"/>
<path fill-rule="evenodd" clip-rule="evenodd" d="M54.9148 52.6985C61.837 62.6007 65.4176 72.0479 62.9122 73.7993C60.4068 75.5511 52.7639 68.9433 45.8412 59.0411C38.9189 49.1389 35.3383 39.6912 37.8438 37.9398C40.3496 36.1885 47.9925 42.7958 54.9148 52.6985Z" stroke="#202020"/>
<mask id="mask0" mask-type="alpha" maskUnits="userSpaceOnUse" x="40" y="87" width="2" height="1">
<path d="M40.5427 87.6274H41.0545V88H40.5427V87.6274Z" fill="white"/>
</mask>
<g mask="url(#mask0)">
<path fill-rule="evenodd" clip-rule="evenodd" d="M40.5427 87.871C40.7673 87.6942 40.9618 87.6397 41.0545 87.9976C40.8777 87.9814 40.6775 88.0578 40.5427 87.871Z" fill="#797979"/>
</g>
<path d="M48.5848 24.8739C47.6224 25.6357 45.3397 27.0004 44.2655 24.3153C43.1917 21.6298 46.5181 19.4445 48.8534 20.6674C51.1887 21.8907 56.6224 26.1947 51.1222 37.4268C49.6915 39.9078 46.5506 43.9582 42.4333 46.5171" stroke="#202020" stroke-linecap="round" stroke-linejoin="round"/>
<path d="M64.068 19.3278C64.068 19.3278 66.8257 32.046 49.6448 48.9674" stroke="#202020" stroke-linecap="round" stroke-linejoin="round"/>
<path d="M77.9515 16C74.6619 21.2397 78.5393 27.5159 73.8448 31.6456C69.1503 35.7762 60.2239 39.8814 59.9792 42.3467" stroke="#202020" stroke-linecap="round" stroke-linejoin="round"/>
<path d="M77.0754 34.9771C77.2981 33.2569 81.1123 31.7416 81.7044 36.3099C82.296 40.8787 75.1166 44.2992 68.1471 45.5244C61.1775 46.7497 56.8022 49.7148 50.5337 59.777" stroke="#202020" stroke-linecap="round" stroke-linejoin="round"/>
<path d="M62.9797 59.2335C62.9797 59.2335 74.9056 43.8632 87.1885 51.4488" stroke="#202020" stroke-linecap="round" stroke-linejoin="round"/>
<path d="M59.4692 67.9592C61.6989 66.0262 69.919 60.8864 75.4335 63.6379C80.9485 66.3894 80.2804 71.7414 77.1189 72.4702C73.9569 73.1994 73.1589 71.4299 73.7749 70.0211C74.3913 68.6129 76.5479 69.009 76.5479 69.009" stroke="#202020" stroke-linecap="round" stroke-linejoin="round"/>
<path d="M45.453 29.9853C47.3281 31.3199 47.2946 33.0665 46.6423 34.3553C45.9905 35.6441 44.8628 35.8754 44.6387 34.4504C44.4146 33.0249 46.5506 32.7793 47.4456 34.449C48.3407 36.1191 47.8862 37.9803 47.8862 37.9803" stroke="#202020" stroke-linecap="round" stroke-linejoin="round"/>
<path d="M55.4404 38.3982C57.8804 34.4181 58.2039 31.8262 57.3762 31.508C56.9987 31.3627 56.0765 31.6901 56.3703 33.0735C56.6647 34.4578 59.2939 34.3594 59.8224 30.6345C60.3504 26.9096 59.8721 25.4416 58.504 25.0072C57.1349 24.5724 57.1622 28.0125 58.7458 28.2939C60.3289 28.5759 62.1156 24.1748 61.3907 21.0004" stroke="#202020" stroke-linecap="round" stroke-linejoin="round"/>
<path d="M64.762 43.909C67.3773 43.3896 70.5603 42.3727 70.4485 40.5143C70.3362 38.6569 68.581 39.7574 68.429 41.266C68.2776 42.775 70.4394 43.6309 72.6175 41.8566C74.796 40.0818 75.627 38.5866 75.627 38.5866" stroke="#202020" stroke-linecap="round" stroke-linejoin="round"/>
<path d="M70.6414 55.0644C71.9473 53.2318 75.6417 51.8494 78.8486 51.6984" stroke="#202020" stroke-linecap="round" stroke-linejoin="round"/>
<path fill-rule="evenodd" clip-rule="evenodd" d="M68.372 31.7343L66.979 33.4011L65.3123 32.0081L66.7052 30.3414L68.372 31.7343Z" fill="#797979"/>
<path fill-rule="evenodd" clip-rule="evenodd" d="M30.0056 42.1561L29.273 44.2009L27.2283 43.4683L27.9608 41.4236L30.0056 42.1561Z" fill="#797979"/>
<path fill-rule="evenodd" clip-rule="evenodd" d="M21.9373 43.8773L23.9443 47.5912L20.2304 49.1079L18.2234 45.4365L21.9373 43.8773Z" fill="#797979"/>
<path fill-rule="evenodd" clip-rule="evenodd" d="M79.1103 58.6652L78.1446 60.6106L76.1987 59.6448L77.165 57.6995L79.1103 58.6652Z" fill="#797979"/>
<path fill-rule="evenodd" clip-rule="evenodd" d="M64.9938 78.4249L67.6598 83.191L62.4024 84.2786L60.7715 80.0558L64.9938 78.4249Z" fill="#797979"/>
<path fill-rule="evenodd" clip-rule="evenodd" d="M66.1245 52.1054L63.6243 52.6229L63.1445 50.3067L65.6447 49.7887L66.1245 52.1054Z" fill="#797979"/>
<path fill-rule="evenodd" clip-rule="evenodd" d="M57.6354 82.4419L55.1353 82.9594L54.656 80.6432L57.1562 80.1252L57.6354 82.4419Z" fill="#797979"/>
</svg>
