<svg width="101" height="102" viewBox="0 0 101 102" fill="none" xmlns="http://www.w3.org/2000/svg">
<path fill-rule="evenodd" clip-rule="evenodd" d="M52.8056 100.732L58.1181 93.1427L64.7274 98.6902C65.063 98.9719 65.5766 98.8343 65.7264 98.4225L68.8936 89.7168L76.7152 93.3654C77.1123 93.5506 77.5728 93.2848 77.6109 92.8482L78.4168 83.6216L86.917 85.1217C87.3486 85.1978 87.7245 84.8219 87.6484 84.3903L86.0379 75.2644L94.637 74.5133C95.0736 74.4752 95.3394 74.0147 95.1541 73.6176L91.2381 65.2227L99.3482 62.2722C99.76 62.1224 99.8976 61.6088 99.6159 61.2731L93.6604 54.1776L100.731 49.2284C101.09 48.9771 101.09 48.4454 100.731 48.1941L93.1432 42.8828L98.6906 36.2735C98.9723 35.9378 98.8347 35.4243 98.4229 35.2744L89.7172 32.1072L93.3661 24.2851C93.5513 23.8879 93.2855 23.4275 92.8489 23.3893L83.6201 22.5832L85.1201 14.0832C85.1963 13.6516 84.8203 13.2757 84.3888 13.3518L75.2658 14.9618L74.5147 6.36294C74.4766 5.92637 74.0161 5.66053 73.619 5.84579L65.2242 9.76178L62.2732 1.65055C62.1234 1.23873 61.6098 1.10112 61.2741 1.38286L54.1776 7.33924L49.2286 0.269257C48.9773 -0.0897523 48.4456 -0.0897523 48.1943 0.269257L42.8822 7.85798L36.2719 2.30976C35.9363 2.02802 35.4227 2.16563 35.2729 2.57745L32.106 11.2821L24.284 7.63331C23.8868 7.44805 23.4264 7.71389 23.3883 8.15046L22.582 17.3806L14.083 15.8807C13.6515 15.8046 13.2755 16.1805 13.3517 16.6121L14.9613 25.7331L6.36309 26.4842C5.92653 26.5223 5.66068 26.9827 5.84594 27.3799L9.76244 35.7758L1.65186 38.7265C1.24004 38.8763 1.10243 39.3899 1.38417 39.7256L7.34031 46.8218L0.269257 51.7716C-0.089752 52.0229 -0.0897526 52.5546 0.269257 52.8059L7.85779 58.1178L2.30991 64.7277C2.02817 65.0633 2.16579 65.5769 2.5776 65.7267L11.2828 68.8938L7.63446 76.7149C7.44921 77.112 7.71505 77.5725 8.15161 77.6106L17.3802 78.4167L15.88 86.918C15.8038 87.3495 16.1798 87.7255 16.6113 87.6493L25.7343 86.0394L26.4854 94.6382C26.5235 95.0748 26.984 95.3406 27.3811 95.1554L35.7764 91.2391L38.7271 99.3494C38.8769 99.7612 39.3904 99.8988 39.7261 99.6171L46.8219 93.6613L51.7713 100.732C52.0226 101.091 52.5543 101.091 52.8056 100.732Z" fill="url(#paint0_linear)"/>
<path fill-rule="evenodd" clip-rule="evenodd" d="M50.5005 87.1463C70.7214 87.1463 87.1137 70.754 87.1137 50.5331C87.1137 30.3122 70.7214 13.9199 50.5005 13.9199C30.2796 13.9199 13.8873 30.3122 13.8873 50.5331C13.8873 70.754 30.2796 87.1463 50.5005 87.1463ZM78.6548 52.5531C79.9099 52.5531 80.9273 51.5357 80.9273 50.2806C80.9273 49.0255 79.9099 48.008 78.6548 48.008C77.3997 48.008 76.3822 49.0255 76.3822 50.2806C76.3822 51.5357 77.3997 52.5531 78.6548 52.5531ZM23.4825 50.2806C23.4825 51.5357 22.4651 52.5531 21.21 52.5531C19.9549 52.5531 18.9374 51.5357 18.9374 50.2806C18.9374 49.0255 19.9549 48.008 21.21 48.008C22.4651 48.008 23.4825 49.0255 23.4825 50.2806ZM50.5005 73.2585C63.0514 73.2585 73.2259 63.084 73.2259 50.5331C73.2259 37.9822 63.0514 27.8077 50.5005 27.8077C37.9496 27.8077 27.7751 37.9822 27.7751 50.5331C27.7751 63.084 37.9496 73.2585 50.5005 73.2585Z" fill="white"/>
<path d="M36.4045 46.449H34.4445V45.1195C34.9785 45.1195 35.4046 45.0741 35.7228 44.9832C36.0523 44.8923 36.3136 44.7446 36.5068 44.54C36.7 44.3241 36.8704 44.0174 37.0181 43.6197H38.2794V55.5505H36.4045V46.449Z" fill="#262626"/>
<path d="M44.3367 55.7209C43.4163 55.7209 42.7118 55.4596 42.2232 54.9369C41.7346 54.4142 41.4903 53.6757 41.4903 52.7212V46.449C41.4903 45.4945 41.7346 44.7559 42.2232 44.2332C42.7118 43.7106 43.4163 43.4492 44.3367 43.4492C45.2571 43.4492 45.9615 43.7106 46.4501 44.2332C46.9387 44.7559 47.183 45.4945 47.183 46.449V52.7212C47.183 53.6757 46.9387 54.4142 46.4501 54.9369C45.9615 55.4596 45.2571 55.7209 44.3367 55.7209ZM44.3367 54.0165C44.9843 54.0165 45.3082 53.6245 45.3082 52.8405V46.3297C45.3082 45.5456 44.9843 45.1536 44.3367 45.1536C43.689 45.1536 43.3652 45.5456 43.3652 46.3297V52.8405C43.3652 53.6245 43.689 54.0165 44.3367 54.0165Z" fill="#262626"/>
<path d="M52.1836 55.7209C51.2632 55.7209 50.5587 55.4596 50.0701 54.9369C49.5815 54.4142 49.3372 53.6757 49.3372 52.7212V46.449C49.3372 45.4945 49.5815 44.7559 50.0701 44.2332C50.5587 43.7106 51.2632 43.4492 52.1836 43.4492C53.104 43.4492 53.8085 43.7106 54.2971 44.2332C54.7857 44.7559 55.03 45.4945 55.03 46.449V52.7212C55.03 53.6757 54.7857 54.4142 54.2971 54.9369C53.8085 55.4596 53.104 55.7209 52.1836 55.7209ZM52.1836 54.0165C52.8313 54.0165 53.1551 53.6245 53.1551 52.8405V46.3297C53.1551 45.5456 52.8313 45.1536 52.1836 45.1536C51.5359 45.1536 51.2121 45.5456 51.2121 46.3297V52.8405C51.2121 53.6245 51.5359 54.0165 52.1836 54.0165Z" fill="#262626"/>
<path d="M59.0249 50.2498C58.4341 50.2498 57.9852 50.085 57.6784 49.7555C57.3717 49.426 57.2183 48.9545 57.2183 48.3409V45.3582C57.2183 44.7446 57.3717 44.273 57.6784 43.9435C57.9852 43.614 58.4341 43.4492 59.0249 43.4492C59.6158 43.4492 60.0646 43.614 60.3714 43.9435C60.6782 44.273 60.8316 44.7446 60.8316 45.3582V48.3409C60.8316 48.9545 60.6782 49.426 60.3714 49.7555C60.0646 50.085 59.6158 50.2498 59.0249 50.2498ZM63.3541 43.6197H64.5472L59.9283 55.5505H58.7352L63.3541 43.6197ZM59.0249 49.176C59.434 49.176 59.6385 48.926 59.6385 48.4261V45.2729C59.6385 44.773 59.434 44.523 59.0249 44.523C58.6159 44.523 58.4113 44.773 58.4113 45.2729V48.4261C58.4113 48.926 58.6159 49.176 59.0249 49.176ZM64.2575 55.7209C63.6666 55.7209 63.2178 55.5562 62.911 55.2267C62.6042 54.8971 62.4508 54.4256 62.4508 53.812V50.8293C62.4508 50.2157 62.6042 49.7442 62.911 49.4146C63.2178 49.0851 63.6666 48.9204 64.2575 48.9204C64.8483 48.9204 65.2971 49.0851 65.6039 49.4146C65.9107 49.7442 66.0641 50.2157 66.0641 50.8293V53.812C66.0641 54.4256 65.9107 54.8971 65.6039 55.2267C65.2971 55.5562 64.8483 55.7209 64.2575 55.7209ZM64.2575 54.6472C64.6665 54.6472 64.871 54.3972 64.871 53.8972V50.7441C64.871 50.2441 64.6665 49.9941 64.2575 49.9941C63.8484 49.9941 63.6439 50.2441 63.6439 50.7441V53.8972C63.6439 54.3972 63.8484 54.6472 64.2575 54.6472Z" fill="#262626"/>
<path fill-rule="evenodd" clip-rule="evenodd" d="M34.1288 46.7658V44.8051H34.4444C34.9647 44.8051 35.3579 44.7603 35.636 44.6809L35.6388 44.6801C35.9228 44.6017 36.1287 44.4805 36.2744 44.3275C36.431 44.1514 36.5833 43.885 36.7222 43.5109L36.7986 43.3052H38.595V55.8673H36.0889V46.7658H34.1288ZM36.4045 46.4502V55.5517H38.2793V43.6208H37.0181C36.8704 44.0185 36.6999 44.3253 36.5067 44.5412C36.3136 44.7457 36.0522 44.8935 35.7227 44.9844C35.4046 45.0753 34.9785 45.1207 34.4444 45.1207V46.4502H36.4045ZM44.3366 56.0378C43.3553 56.0378 42.5568 55.7572 41.9926 55.1536C41.4332 54.5552 41.1746 53.7295 41.1746 52.7224V46.4502C41.1746 45.443 41.4332 44.6173 41.9926 44.0189C42.5568 43.4153 43.3553 43.1348 44.3366 43.1348C45.3179 43.1348 46.1164 43.4153 46.6807 44.0189C47.2401 44.6173 47.4986 45.443 47.4986 46.4502V52.7224C47.4986 53.7295 47.2401 54.5552 46.6807 55.1536C46.1164 55.7572 45.3179 56.0378 44.3366 56.0378ZM44.8219 53.5227C44.9177 53.4068 44.9925 53.1981 44.9925 52.8417V46.3308C44.9925 45.9744 44.9177 45.7657 44.8219 45.6498C44.7357 45.5455 44.5942 45.4704 44.3366 45.4704C44.079 45.4704 43.9375 45.5455 43.8513 45.6498C43.7556 45.7657 43.6807 45.9744 43.6807 46.3308V52.8417C43.6807 53.1981 43.7556 53.4068 43.8513 53.5227C43.9375 53.627 44.079 53.7021 44.3366 53.7021C44.5942 53.7021 44.7357 53.627 44.8219 53.5227ZM52.1836 56.0378C51.2022 56.0378 50.4037 55.7572 49.8395 55.1536C49.2801 54.5552 49.0216 53.7295 49.0216 52.7224V46.4502C49.0216 45.443 49.2801 44.6173 49.8395 44.0189C50.4037 43.4153 51.2022 43.1348 52.1836 43.1348C53.1649 43.1348 53.9634 43.4153 54.5276 44.0189C55.087 44.6173 55.3455 45.443 55.3455 46.4502V52.7224C55.3455 53.7295 55.087 54.5552 54.5276 55.1536C53.9634 55.7572 53.1649 56.0378 52.1836 56.0378ZM52.6688 53.5227C52.7646 53.4068 52.8394 53.1981 52.8394 52.8417V46.3308C52.8394 45.9744 52.7646 45.7657 52.6688 45.6498C52.5827 45.5455 52.4412 45.4704 52.1836 45.4704C51.9259 45.4704 51.7845 45.5455 51.6983 45.6498C51.6025 45.7657 51.5277 45.9744 51.5277 46.3308V52.8417C51.5277 53.1981 51.6025 53.4068 51.6983 53.5227C51.7845 53.627 51.9259 53.7021 52.1836 53.7021C52.4412 53.7021 52.5827 53.627 52.6688 53.5227ZM63.1378 43.3052H65.0078L62.7546 49.1253C63.1328 48.7663 63.6488 48.6059 64.2574 48.6059C64.9071 48.6059 65.4513 48.7887 65.8349 49.2007C66.2132 49.6071 66.3797 50.1664 66.3797 50.8305V53.8132C66.3797 54.4772 66.2132 55.0366 65.8349 55.4429C65.4513 55.855 64.9071 56.0378 64.2574 56.0378C63.6077 56.0378 63.0635 55.855 62.6799 55.4429C62.3016 55.0366 62.1351 54.4772 62.1351 53.8132V50.8305C62.1351 50.7938 62.1356 50.7575 62.1366 50.7215L60.1445 55.8673H58.2745L60.5277 50.0472C60.1495 50.4062 59.6335 50.5666 59.0249 50.5666C58.3752 50.5666 57.831 50.3838 57.4474 49.9718C57.0691 49.5654 56.9026 49.0061 56.9026 48.342V45.3593C56.9026 44.6953 57.0691 44.136 57.4474 43.7296C57.831 43.3176 58.3752 43.1348 59.0249 43.1348C59.6746 43.1348 60.2188 43.3176 60.6024 43.7296C60.9807 44.136 61.1472 44.6953 61.1472 45.3593V48.342C61.1472 48.3787 61.1467 48.415 61.1457 48.451L63.1378 43.3052ZM63.3541 43.6208H64.5472L59.9282 55.5517H58.7351L63.3541 43.6208ZM59.2408 48.7898C59.2776 48.7449 59.3228 48.6423 59.3228 48.4273V45.2741C59.3228 45.0591 59.2776 44.9565 59.2408 44.9115C59.2139 44.8787 59.1622 44.8398 59.0249 44.8398C58.8876 44.8398 58.8359 44.8787 58.809 44.9115C58.7722 44.9565 58.7269 45.0591 58.7269 45.2741V48.4273C58.7269 48.6423 58.7722 48.7449 58.809 48.7898C58.8359 48.8227 58.8876 48.8616 59.0249 48.8616C59.1622 48.8616 59.2139 48.8227 59.2408 48.7898ZM64.4733 54.261C64.5101 54.216 64.5554 54.1134 64.5554 53.8984V50.7453C64.5554 50.5303 64.5101 50.4276 64.4733 50.3827C64.4464 50.3498 64.3947 50.3109 64.2574 50.3109C64.1201 50.3109 64.0684 50.3498 64.0415 50.3827C64.0047 50.4276 63.9595 50.5303 63.9595 50.7453V53.8984C63.9595 54.1134 64.0047 54.216 64.0415 54.261C64.0684 54.2938 64.1201 54.3327 64.2574 54.3327C64.3947 54.3327 64.4464 54.2938 64.4733 54.261ZM42.2232 54.9381C42.7118 55.4608 43.4163 55.7221 44.3366 55.7221C45.257 55.7221 45.9615 55.4608 46.4501 54.9381C46.9387 54.4154 47.183 53.6768 47.183 52.7224V46.4502C47.183 45.4957 46.9387 44.7571 46.4501 44.2344C45.9615 43.7117 45.257 43.4504 44.3366 43.4504C43.4163 43.4504 42.7118 43.7117 42.2232 44.2344C41.7346 44.7571 41.4903 45.4957 41.4903 46.4502V52.7224C41.4903 53.6768 41.7346 54.4154 42.2232 54.9381ZM45.3081 52.8417C45.3081 53.6257 44.9843 54.0177 44.3366 54.0177C43.689 54.0177 43.3651 53.6257 43.3651 52.8417V46.3308C43.3651 45.5468 43.689 45.1548 44.3366 45.1548C44.9843 45.1548 45.3081 45.5468 45.3081 46.3308V52.8417ZM50.0701 54.9381C50.5587 55.4608 51.2632 55.7221 52.1836 55.7221C53.1039 55.7221 53.8084 55.4608 54.297 54.9381C54.7856 54.4154 55.0299 53.6768 55.0299 52.7224V46.4502C55.0299 45.4957 54.7856 44.7571 54.297 44.2344C53.8084 43.7117 53.1039 43.4504 52.1836 43.4504C51.2632 43.4504 50.5587 43.7117 50.0701 44.2344C49.5815 44.7571 49.3372 45.4957 49.3372 46.4502V52.7224C49.3372 53.6768 49.5815 54.4154 50.0701 54.9381ZM53.1551 52.8417C53.1551 53.6257 52.8312 54.0177 52.1836 54.0177C51.5359 54.0177 51.212 53.6257 51.212 52.8417V46.3308C51.212 45.5468 51.5359 45.1548 52.1836 45.1548C52.8312 45.1548 53.1551 45.5468 53.1551 46.3308V52.8417ZM57.6784 49.7567C57.9852 50.0862 58.434 50.251 59.0249 50.251C59.6157 50.251 60.0646 50.0862 60.3714 49.7567C60.6782 49.4272 60.8316 48.9556 60.8316 48.342V45.3593C60.8316 44.7457 60.6782 44.2742 60.3714 43.9447C60.0646 43.6152 59.6157 43.4504 59.0249 43.4504C58.434 43.4504 57.9852 43.6152 57.6784 43.9447C57.3716 44.2742 57.2182 44.7457 57.2182 45.3593V48.342C57.2182 48.9556 57.3716 49.4272 57.6784 49.7567ZM59.6385 48.4273C59.6385 48.9272 59.4339 49.1772 59.0249 49.1772C58.6158 49.1772 58.4113 48.9272 58.4113 48.4273V45.2741C58.4113 44.7742 58.6158 44.5242 59.0249 44.5242C59.4339 44.5242 59.6385 44.7742 59.6385 45.2741V48.4273ZM62.9109 55.2278C63.2177 55.5574 63.6665 55.7221 64.2574 55.7221C64.8483 55.7221 65.2971 55.5574 65.6039 55.2278C65.9107 54.8983 66.0641 54.4268 66.0641 53.8132V50.8305C66.0641 50.2169 65.9107 49.7453 65.6039 49.4158C65.2971 49.0863 64.8483 48.9215 64.2574 48.9215C63.6665 48.9215 63.2177 49.0863 62.9109 49.4158C62.6041 49.7453 62.4507 50.2169 62.4507 50.8305V53.8132C62.4507 54.4268 62.6041 54.8983 62.9109 55.2278ZM64.871 53.8984C64.871 54.3984 64.6665 54.6483 64.2574 54.6483C63.8484 54.6483 63.6438 54.3984 63.6438 53.8984V50.7453C63.6438 50.2453 63.8484 49.9953 64.2574 49.9953C64.6665 49.9953 64.871 50.2453 64.871 50.7453V53.8984Z" fill="#262626"/>
<path d="M50.1853 30.9316L51.8127 33.8736L55.2884 34.4212L52.8185 36.787L53.3392 40.0673L50.1853 38.5876L47.0314 40.0673L47.5521 36.787L45.0822 34.4212L48.5579 33.8736L50.1853 30.9316Z" fill="white"/>
<path d="M41.6632 34.0879L42.6205 36.1105L44.665 36.4869L43.2121 38.1134L43.5184 40.3687L41.6632 39.3513L39.808 40.3687L40.1143 38.1134L38.6614 36.4869L40.7059 36.1105L41.6632 34.0879Z" fill="white"/>
<path d="M59.0228 34.0879L60.0759 36.1105L62.3248 36.4869L60.7267 38.1134L61.0636 40.3687L59.0228 39.3513L56.9821 40.3687L57.319 38.1134L55.7208 36.4869L57.9698 36.1105L59.0228 34.0879Z" fill="white"/>
<path d="M50.3126 58.707L51.9851 61.9195L55.5572 62.5174L53.0188 65.1008L53.5539 68.6828L50.3126 67.067L47.0712 68.6828L47.6064 65.1008L45.068 62.5174L48.64 61.9195L50.3126 58.707Z" fill="white"/>
<path d="M41.1219 58.707L42.2369 60.8487L44.6183 61.2473L42.926 62.9695L43.2828 65.3576L41.1219 64.2803L38.961 65.3576L39.3177 62.9695L37.6255 61.2473L40.0069 60.8487L41.1219 58.707Z" fill="white"/>
<path d="M59.5033 58.707L60.6184 60.8487L62.9997 61.2473L61.3075 62.9695L61.6642 65.3576L59.5033 64.2803L57.3425 65.3576L57.6992 62.9695L56.007 61.2473L58.3883 60.8487L59.5033 58.707Z" fill="white"/>
<path d="M29.8346 35.6733L27.8748 34.0553C28.6009 34.0976 29.123 33.9262 29.441 33.5409C29.5611 33.3955 29.6213 33.2458 29.6214 33.0919C29.6189 32.9359 29.5598 32.81 29.4439 32.7144C29.2769 32.5765 29.0317 32.5416 28.7081 32.6097L28.2671 32.7077C27.9785 32.7774 27.7135 32.8214 27.472 32.8395C27.2279 32.8554 27.0011 32.8448 26.7916 32.8077C26.5794 32.7684 26.3809 32.7043 26.1963 32.6152C26.0116 32.5262 25.8344 32.4116 25.6647 32.2715C25.3737 32.0313 25.1249 31.7126 24.9182 31.3155C24.8257 31.1258 24.7555 30.9365 24.7076 30.7475C24.6571 30.5563 24.6325 30.3639 24.6339 30.1702C24.6269 29.6299 24.8092 29.1348 25.1806 28.6849C25.512 28.2836 25.952 27.9673 26.5006 27.7363L28.4079 29.3109C28.0816 29.2726 27.7856 29.2909 27.5198 29.3659C27.2513 29.4387 27.047 29.56 26.9069 29.7297C26.8002 29.859 26.75 29.9965 26.7565 30.1423C26.7581 30.2886 26.8101 30.404 26.9124 30.4885C27.0794 30.6264 27.3396 30.6487 27.693 30.5553L28.1112 30.4521C28.6607 30.3078 29.1335 30.2701 29.5297 30.3389C29.928 30.4051 30.3077 30.5872 30.6687 30.8852C31.2829 31.3923 31.6348 31.9976 31.7243 32.7012C31.8139 33.4048 31.6218 34.0435 31.1481 34.6173C30.8211 35.0133 30.3833 35.3653 29.8346 35.6733Z" fill="black"/>
<path d="M39.5706 27.4989L37.6904 28.7499L36.9862 27.9849L35.7603 28.8005L36.1809 29.7543L34.3007 31.0053L31.4375 23.1926L33.6624 21.7123L39.5706 27.4989ZM35.8117 26.6831L35.1714 25.9762C35.1666 25.9752 35.1346 25.9398 35.0756 25.87C35.0272 25.8099 34.8283 25.5772 34.4789 25.1719C34.4402 25.1263 34.3884 25.0643 34.3236 24.9857C34.2568 24.9043 34.1726 24.803 34.071 24.6818L33.5905 24.0826C33.6253 24.1475 33.662 24.2217 33.7007 24.305C33.7423 24.3864 33.7873 24.4761 33.8356 24.574C33.9352 24.7679 34.0039 24.9026 34.0416 24.9782C34.0794 25.0538 34.1016 25.0999 34.1084 25.1163L34.5246 26.0163L35.0439 27.194L35.8117 26.6831Z" fill="black"/>
<path d="M45.0175 25.8375L42.8717 26.4336L38.9189 19.1348L41.1303 18.5204L42.1325 20.6404C42.5138 21.4517 42.8946 22.372 43.2747 23.4012C43.1818 22.9231 43.1057 22.4729 43.0464 22.0506C42.9871 21.6284 42.9407 21.2135 42.9073 20.8058L42.6904 18.0871L44.9775 17.4517L45.0175 25.8375Z" fill="black"/>
<path d="M51.7336 25.2507H49.5486V17.1602H51.7336V25.2507Z" fill="black"/>
<path d="M55.1084 25.5609L57.2739 17.7656L59.2833 18.3238L59.5783 21.3534C59.5907 21.5309 59.6032 21.7337 59.6159 21.9621C59.632 22.1913 59.6459 22.4544 59.6577 22.7514L59.684 23.4983C59.7946 22.8003 59.8965 22.205 59.9898 21.7124C60.0831 21.2199 60.1751 20.8104 60.2658 20.4839L60.7525 18.732L62.7619 19.2902L60.5964 27.0855L58.587 26.5273L58.3234 23.365C58.2974 23.0279 58.2759 22.7137 58.2589 22.4226C58.2462 22.129 58.2398 21.8517 58.2398 21.5907C58.1312 22.1515 58.0304 22.6383 57.9375 23.0512C57.8445 23.464 57.7555 23.8236 57.6704 24.1299L57.1178 26.1191L55.1084 25.5609Z" fill="black"/>
<path d="M67.5491 25.8685L70.0881 27.5578L69.9024 27.837C69.0393 29.1342 68.2247 29.9391 67.4586 30.2517C66.6228 30.5935 65.7919 30.4896 64.9659 29.9401C64.1545 29.4002 63.7207 28.671 63.6647 27.7526C63.6154 26.8302 63.9488 25.831 64.6648 24.7549C65.3904 23.6643 66.1935 22.9587 67.0739 22.6382C67.9543 22.3177 68.7958 22.4245 69.5986 22.9586C70.663 23.6668 71.0656 24.7361 70.8062 26.1664L68.6142 25.6393C68.7293 25.4096 68.7795 25.2017 68.7648 25.0157C68.7549 24.8288 68.6787 24.6879 68.5362 24.593C68.036 24.2602 67.3282 24.7816 66.4129 26.1573C66.0239 26.7418 65.7967 27.2032 65.7311 27.5414C65.6655 27.8796 65.7534 28.129 65.9948 28.2896C66.0908 28.3535 66.1935 28.3883 66.303 28.394C66.4125 28.3997 66.5215 28.3778 66.63 28.3283C66.7413 28.2807 66.8512 28.207 66.9597 28.1071C67.0729 28.0062 67.1789 27.8816 67.2776 27.7333L66.6058 27.2863L67.5491 25.8685Z" fill="black"/>
<path d="M68.9743 32.8703L70.9341 31.2523C70.755 31.9573 70.8245 32.5024 71.1426 32.8876C71.2627 33.033 71.3983 33.1204 71.5493 33.1498C71.703 33.1769 71.8378 33.1426 71.9537 33.0469C72.1207 32.9091 72.2014 32.6748 72.1957 32.3443L72.183 31.8927C72.1692 31.5961 72.1762 31.3275 72.2042 31.087C72.2348 30.8443 72.2882 30.6236 72.3642 30.4249C72.443 30.224 72.5435 30.0413 72.666 29.8768C72.7884 29.7123 72.9344 29.56 73.1041 29.4199C73.3951 29.1797 73.7551 28.9957 74.1842 28.868C74.3879 28.813 74.5871 28.7799 74.7817 28.7687C74.9791 28.7553 75.1727 28.7676 75.3626 28.8056C75.8944 28.9011 76.346 29.1738 76.7174 29.6236C77.0488 30.025 77.276 30.517 77.399 31.0994L75.4918 32.674C75.5912 32.361 75.6292 32.0668 75.6058 31.7916C75.5852 31.5142 75.5048 31.2907 75.3647 31.121C75.258 30.9917 75.1324 30.9164 74.988 30.8952C74.8441 30.869 74.721 30.8982 74.6186 30.9827C74.4516 31.1206 74.3804 31.3718 74.4052 31.7365L74.4273 32.1666C74.465 32.7335 74.4125 33.2049 74.2699 33.5809C74.1295 33.9595 73.8788 34.2979 73.5178 34.5959C72.9036 35.103 72.2426 35.3339 71.5348 35.2886C70.827 35.2433 70.2362 34.9337 69.7625 34.3599C69.4355 33.9639 69.1728 33.4674 68.9743 32.8703Z" fill="black"/>
<path d="M22.6016 60.8564L23.7421 63.6847L23.4311 63.8101C21.9861 64.3928 20.8592 64.5967 20.0505 64.4219C19.1677 64.2317 18.5408 63.6765 18.1698 62.7564C17.8053 61.8525 17.8594 61.0058 18.332 60.2163C18.8125 59.4275 19.652 58.7914 20.8508 58.308C22.0657 57.8181 23.1269 57.6896 24.0345 57.9225C24.942 58.1555 25.576 58.7191 25.9366 59.6132C26.4148 60.799 26.1428 61.9087 25.1208 62.9423L23.6098 61.269C23.8346 61.1445 23.9934 61.0014 24.0864 60.8396C24.1839 60.6797 24.2006 60.5204 24.1366 60.3617C23.9119 59.8044 23.0333 59.8348 21.5009 60.4527C20.8497 60.7153 20.4015 60.9676 20.1563 61.2096C19.9112 61.4516 19.8428 61.707 19.9512 61.9759C19.9943 62.0829 20.0594 62.1696 20.1466 62.2362C20.2337 62.3027 20.336 62.3462 20.4534 62.3667C20.5722 62.3904 20.7045 62.3916 20.8504 62.3704C21.0009 62.3512 21.1587 62.3083 21.3239 62.2416L21.0222 61.4932L22.6016 60.8564Z" fill="black"/>
<path d="M29.8531 66.2575L31.1935 67.9832L26.6744 71.4932C26.2965 71.7868 25.9442 71.9653 25.6175 72.0288C25.282 72.1037 24.9099 72.083 24.5013 71.967C23.9535 71.8085 23.4772 71.4686 23.0722 70.9471C22.6136 70.3567 22.3752 69.7479 22.3569 69.1208C22.3351 68.3238 22.7339 67.6072 23.5532 66.9707L27.8281 63.6504L29.1685 65.3761L25.0467 68.5775C24.7681 68.7939 24.5965 68.9802 24.5321 69.1365C24.4698 69.2954 24.5008 69.4549 24.6251 69.6149C24.7536 69.7805 24.8964 69.8532 25.0532 69.8331C25.2156 69.8087 25.4403 69.685 25.7272 69.4622L29.8531 66.2575Z" fill="black"/>
<path d="M32.5596 79.1915L30.7392 77.8549L31.2161 76.9309L30.0292 76.0595L29.2778 76.7819L27.4574 75.4453L33.8126 70.0744L35.9667 71.656L32.5596 79.1915ZM32.0356 75.3809L32.4798 74.5369C32.4791 74.532 32.5013 74.4899 32.5466 74.4104C32.5865 74.3444 32.7368 74.0777 32.9975 73.6104C33.0271 73.5584 33.0676 73.4884 33.1191 73.4006C33.1727 73.3099 33.2389 73.196 33.3179 73.059L33.7157 72.402C33.6667 72.457 33.6097 72.517 33.5446 72.5819C33.4824 72.6489 33.4137 72.722 33.3383 72.801C33.1904 72.9611 33.0874 73.0718 33.0294 73.1332C32.9713 73.1946 32.9357 73.2313 32.9225 73.2433L32.2201 73.9432L31.2922 74.8351L32.0356 75.3809Z" fill="black"/>
<path d="M41.3848 82.8489L39.1699 82.0247L39.1634 78.9472C39.1706 78.8977 39.1752 78.8304 39.177 78.7454C39.1821 78.6615 39.1861 78.5605 39.1891 78.4424L39.0174 78.9488L38.0306 81.6007L35.9925 80.8423L38.8142 73.2598L40.9112 74.0401C41.8344 74.3837 42.4576 74.8225 42.7808 75.3564C43.1905 76.0382 43.2358 76.808 42.9166 77.6658C42.5755 78.5825 41.9485 79.0704 41.0356 79.1295L41.3848 82.8489ZM39.5554 77.5332L39.6929 77.5843C39.9286 77.6721 40.1586 77.6551 40.3827 77.5335C40.6069 77.4119 40.7708 77.212 40.8743 76.9337C41.0851 76.3673 40.8942 75.9739 40.3016 75.7533L40.2279 75.7259L39.5554 77.5332Z" fill="black"/>
<path d="M51.016 83.9857L48.7647 83.8071L48.684 82.7704L47.2162 82.654L46.9573 83.6637L44.706 83.4851L47.2838 75.5737L49.9478 75.785L51.016 83.9857ZM48.5652 81.0211L48.4988 80.0697C48.4955 80.0659 48.4923 80.0184 48.489 79.927C48.4882 79.8498 48.4756 79.544 48.4515 79.0094C48.4492 78.9496 48.4468 78.8688 48.4444 78.767C48.4422 78.6617 48.4387 78.53 48.4337 78.372L48.4263 77.6039C48.4135 77.6765 48.3966 77.7575 48.3755 77.8469C48.3578 77.9367 48.3378 78.0349 48.3153 78.1418C48.2738 78.3558 48.2445 78.5041 48.2274 78.5869C48.2103 78.6696 48.1994 78.7196 48.1945 78.7367L47.9655 79.7015L47.6459 80.9482L48.5652 81.0211Z" fill="black"/>
<path d="M54.8043 83.583L53.2135 75.6504L55.2583 75.2403L56.8905 77.8096C56.9817 77.9623 57.0846 78.1377 57.1991 78.3356C57.317 78.5328 57.4483 78.7613 57.593 79.0208L57.9541 79.6752C57.7372 79.0026 57.5591 78.4255 57.4198 77.944C57.2805 77.4624 57.1775 77.0555 57.1109 76.7233L56.7534 74.9405L58.7981 74.5304L60.389 82.463L58.3442 82.8731L56.68 80.1712C56.5045 79.8822 56.3434 79.6117 56.1966 79.3597C56.0526 79.1035 55.9216 78.859 55.8037 78.6261C55.9602 79.1755 56.0902 79.6553 56.1939 80.0656C56.2976 80.476 56.3807 80.837 56.4432 81.1486L56.8491 83.1729L54.8043 83.583Z" fill="black"/>
<path d="M66.5216 79.7624L64.559 80.7231L61.8544 75.1978L60.7719 75.7277L59.9196 73.9863L64.0894 71.9452L64.9418 73.6866L63.817 74.2372L66.5216 79.7624Z" fill="black"/>
<path d="M71.0954 76.8703L65.9286 70.6445L69.0536 68.0511L70.2683 69.5148L68.8248 70.7128L69.5777 71.6201L70.8721 70.5459L72.0399 71.9531L70.7456 73.0273L71.5353 73.9789L72.9789 72.7809L74.2204 74.2769L71.0954 76.8703Z" fill="black"/>
<path d="M77.0336 71.1811L70.5471 66.3457L72.9742 63.0898L74.4992 64.2267L73.3781 65.7307L74.3233 66.4353L75.3286 65.0868L76.7948 66.1797L75.7895 67.5283L76.781 68.2674L77.9021 66.7634L79.4607 67.9253L77.0336 71.1811Z" fill="black"/>
<path d="M81.5232 64.2171L74.0198 61.1914L74.7252 59.4419C75.1289 58.4408 75.712 57.7701 76.4745 57.4297C77.4728 56.981 78.6038 57.0114 79.8673 57.5209C81.1114 58.0225 81.9472 58.7193 82.3748 59.6111C82.7386 60.3718 82.7094 61.2753 82.2875 62.3218L81.5232 64.2171ZM80.5277 61.4596C80.7847 60.7195 80.3057 60.1045 79.0908 59.6146C78.4914 59.3729 77.9812 59.2745 77.5601 59.3194C77.1357 59.363 76.8601 59.5419 76.7334 59.8562L76.7079 59.9194L80.5277 61.4596Z" fill="black"/>
<defs>
<linearGradient id="paint0_linear" x1="21.2942" y1="21.2921" x2="79.9787" y2="81.059" gradientUnits="userSpaceOnUse">
<stop offset="0.0729167" stop-color="#FFC83C"/>
<stop offset="0.3125" stop-color="#FFB800"/>
<stop offset="0.453138" stop-color="#FFEDBE"/>
<stop offset="0.630208" stop-color="#FFB800"/>
<stop offset="0.739583" stop-color="#CF800A"/>
<stop offset="0.833333" stop-color="#FFBD46"/>
<stop offset="1" stop-color="#FFC83C"/>
</linearGradient>
</defs>
</svg>
