<svg width="232" height="95" viewBox="0 0 232 95" fill="none" xmlns="http://www.w3.org/2000/svg">
<path d="M83.5 77.3331V69.7109H142.5V79.5466C142.5 81.379 142.365 83.1354 141.471 84.5579C138.834 88.7519 131.206 94.4856 114.268 94.4856C99.1449 94.4856 90.4882 89.9113 86.3047 85.9064C84.087 83.7834 83.5 80.5814 83.5 77.3331Z" fill="#F7F7F7" stroke="#494949"/>
<path d="M142.5 69.6338C142.5 73.6704 139.351 77.4475 133.982 80.2452C128.638 83.0301 121.221 84.7676 113 84.7676C104.779 84.7676 97.362 83.0301 92.0179 80.2452C86.6494 77.4475 83.5 73.6704 83.5 69.6338C83.5 65.5972 86.6494 61.8201 92.0179 59.0224C97.362 56.2375 104.779 54.5 113 54.5C121.221 54.5 128.638 56.2375 133.982 59.0224C139.351 61.8201 142.5 65.5972 142.5 69.6338Z" fill="white" stroke="#494949"/>
<ellipse cx="113" cy="69.6343" rx="19.0141" ry="9.71831" fill="#F7F7F7"/>
<line x1="98.7113" y1="85.7676" x2="98.7113" y2="89.838" stroke="#E8E8E8" stroke-linecap="round" stroke-linejoin="round"/>
<line x1="0.5" y1="-0.5" x2="4.57042" y2="-0.5" transform="matrix(5.1725e-08 1 1 -3.6939e-08 127.789 85.2676)" stroke="#E8E8E8" stroke-linecap="round" stroke-linejoin="round"/>
<line x1="113.922" y1="87.457" x2="113.922" y2="93.2176" stroke="#E8E8E8" stroke-linecap="round" stroke-linejoin="round"/>
<path d="M113.737 70.5635C114.287 70.0937 114.706 69.5942 115.14 69.0997C115.392 68.8129 115.685 68.5384 116.093 68.2961C116.9 67.8189 118.209 67.9104 118.727 68.4692C118.874 68.6274 118.921 68.7931 118.942 68.9612C119.015 69.609 118.764 70.2247 118.167 70.8107C117.868 71.1025 117.963 71.1989 118.607 71.2978C119.287 71.4017 119.979 71.4882 120.664 71.5846C121.125 71.6489 121.429 71.5698 121.623 71.3646C121.973 70.9887 122.225 70.603 122.361 70.1975C122.534 69.6684 122.539 69.6684 123.665 69.6659C125.251 69.6634 125.251 69.6634 125.251 68.9118C125.251 68.803 125.256 68.6942 125.251 68.5854C125.23 68.2343 125.099 68.175 124.351 68.1651C124.016 68.1601 123.68 68.1651 123.34 68.1626C122.345 68.1601 122.361 68.1576 122.015 67.7076C121.178 66.6197 119.607 65.9472 117.093 65.8755C114.868 65.8112 113.365 66.3601 112.271 67.223C111.596 67.7546 111.198 68.3431 110.669 68.9068C110.465 69.1269 110.229 69.3371 109.904 69.52C108.957 70.0615 107.381 69.9626 106.784 69.3198C106.464 68.9761 106.386 68.6126 106.485 68.2392C106.637 67.6631 106.956 67.1117 107.527 66.5925C107.862 66.2884 107.773 66.1994 107.077 66.0955C106.475 66.0065 105.867 65.9274 105.26 65.8483C104.443 65.7419 104.249 65.7815 103.867 66.1499C103.385 66.6197 103.139 67.1216 102.967 67.6335C102.83 68.034 102.794 68.0464 101.914 68.0513C101.516 68.0538 101.113 68.0538 100.715 68.0563C100.212 68.0587 99.9192 68.1725 99.9087 68.4173C99.8982 68.6942 99.8982 68.9736 99.914 69.2505C99.9244 69.478 100.186 69.5942 100.673 69.5942C101.218 69.5942 101.768 69.6066 102.312 69.5967C102.867 69.5843 103.15 69.6981 103.296 69.9503C103.632 70.5313 104.291 71.0258 105.276 71.4066C107.998 72.4649 111.983 72.0618 113.737 70.5635Z" fill="#E8E8E8"/>
<ellipse cx="212.258" cy="69.989" rx="2.74886" ry="3.61958" transform="rotate(8.57433 212.258 69.989)" fill="#0DD77B" fill-opacity="0.3"/>
<ellipse cx="131.5" cy="32" rx="6.5" ry="7" fill="#0DD77B" fill-opacity="0.3"/>
<path d="M80.5 63.3331V55.7109H139.5V65.5466C139.5 67.379 139.365 69.1354 138.471 70.5579C135.834 74.7519 128.206 80.4856 111.268 80.4856C96.1449 80.4856 87.4882 75.9113 83.3047 71.9064C81.087 69.7834 80.5 66.5814 80.5 63.3331Z" fill="#F7F7F7" stroke="#494949"/>
<path d="M139.5 55.6338C139.5 59.6704 136.351 63.4475 130.982 66.2452C125.638 69.0301 118.221 70.7676 110 70.7676C101.779 70.7676 94.362 69.0301 89.0179 66.2452C83.6494 63.4475 80.5 59.6704 80.5 55.6338C80.5 51.5972 83.6494 47.8201 89.0179 45.0224C94.362 42.2375 101.779 40.5 110 40.5C118.221 40.5 125.638 42.2375 130.982 45.0224C136.351 47.8201 139.5 51.5972 139.5 55.6338Z" fill="white" stroke="#494949"/>
<ellipse cx="110" cy="55.6343" rx="19.0141" ry="9.71831" fill="#F7F7F7"/>
<line x1="95.7113" y1="71.7676" x2="95.7113" y2="75.838" stroke="#E8E8E8" stroke-linecap="round" stroke-linejoin="round"/>
<line x1="0.5" y1="-0.5" x2="4.57042" y2="-0.5" transform="matrix(5.1725e-08 1 1 -3.6939e-08 124.789 71.2676)" stroke="#E8E8E8" stroke-linecap="round" stroke-linejoin="round"/>
<line x1="110.922" y1="73.457" x2="110.922" y2="79.2176" stroke="#E8E8E8" stroke-linecap="round" stroke-linejoin="round"/>
<path d="M110.737 56.5635C111.287 56.0937 111.706 55.5942 112.14 55.0997C112.392 54.8129 112.685 54.5384 113.093 54.2961C113.9 53.8189 115.209 53.9104 115.727 54.4692C115.874 54.6274 115.921 54.7931 115.942 54.9612C116.015 55.609 115.764 56.2247 115.167 56.8107C114.868 57.1025 114.963 57.1989 115.607 57.2978C116.287 57.4017 116.979 57.4882 117.664 57.5846C118.125 57.6489 118.429 57.5698 118.623 57.3646C118.973 56.9887 119.225 56.603 119.361 56.1975C119.534 55.6684 119.539 55.6684 120.665 55.6659C122.251 55.6634 122.251 55.6634 122.251 54.9118C122.251 54.803 122.256 54.6942 122.251 54.5854C122.23 54.2343 122.099 54.175 121.351 54.1651C121.016 54.1601 120.68 54.1651 120.34 54.1626C119.345 54.1601 119.361 54.1576 119.015 53.7076C118.178 52.6197 116.607 51.9472 114.093 51.8755C111.868 51.8112 110.365 52.3601 109.271 53.223C108.596 53.7546 108.198 54.3431 107.669 54.9068C107.465 55.1269 107.229 55.3371 106.904 55.52C105.957 56.0615 104.381 55.9626 103.784 55.3198C103.464 54.9761 103.386 54.6126 103.485 54.2392C103.637 53.6631 103.956 53.1117 104.527 52.5925C104.862 52.2884 104.773 52.1994 104.077 52.0955C103.475 52.0065 102.867 51.9274 102.26 51.8483C101.443 51.7419 101.249 51.7815 100.867 52.1499C100.385 52.6197 100.139 53.1216 99.9666 53.6335C99.8304 54.034 99.7938 54.0464 98.9141 54.0513C98.5162 54.0538 98.113 54.0538 97.7151 54.0563C97.2124 54.0587 96.9192 54.1725 96.9087 54.4173C96.8982 54.6942 96.8982 54.9736 96.914 55.2505C96.9244 55.478 97.1862 55.5942 97.6732 55.5942C98.2177 55.5942 98.7675 55.6066 99.3121 55.5967C99.8671 55.5843 100.15 55.6981 100.296 55.9503C100.632 56.5313 101.291 57.0258 102.276 57.4066C104.998 58.4649 108.983 58.0618 110.737 56.5635Z" fill="#E8E8E8"/>
<path d="M85.5 53.3331V45.7109H144.5V55.5466C144.5 57.379 144.365 59.1354 143.471 60.5579C140.834 64.7519 133.206 70.4856 116.268 70.4856C101.145 70.4856 92.4882 65.9113 88.3047 61.9064C86.087 59.7834 85.5 56.5814 85.5 53.3331Z" fill="#F7F7F7" stroke="#494949"/>
<path d="M144.5 45.6338C144.5 49.6704 141.351 53.4475 135.982 56.2452C130.638 59.0301 123.221 60.7676 115 60.7676C106.779 60.7676 99.362 59.0301 94.0179 56.2452C88.6494 53.4475 85.5 49.6704 85.5 45.6338C85.5 41.5972 88.6494 37.8201 94.0179 35.0224C99.362 32.2375 106.779 30.5 115 30.5C123.221 30.5 130.638 32.2375 135.982 35.0224C141.351 37.8201 144.5 41.5972 144.5 45.6338Z" fill="white" stroke="#494949"/>
<ellipse cx="115" cy="45.6343" rx="19.0141" ry="9.71831" fill="#F7F7F7"/>
<line x1="100.711" y1="61.7676" x2="100.711" y2="65.838" stroke="#E8E8E8" stroke-linecap="round" stroke-linejoin="round"/>
<line x1="0.5" y1="-0.5" x2="4.57042" y2="-0.5" transform="matrix(5.1725e-08 1 1 -3.6939e-08 129.789 61.2676)" stroke="#E8E8E8" stroke-linecap="round" stroke-linejoin="round"/>
<line x1="115.922" y1="63.457" x2="115.922" y2="69.2176" stroke="#E8E8E8" stroke-linecap="round" stroke-linejoin="round"/>
<path d="M115.737 46.5635C116.287 46.0937 116.706 45.5942 117.14 45.0997C117.392 44.8129 117.685 44.5384 118.093 44.2961C118.9 43.8189 120.209 43.9104 120.727 44.4692C120.874 44.6274 120.921 44.7931 120.942 44.9612C121.015 45.609 120.764 46.2247 120.167 46.8107C119.868 47.1025 119.963 47.1989 120.607 47.2978C121.287 47.4017 121.979 47.4882 122.664 47.5846C123.125 47.6489 123.429 47.5698 123.623 47.3646C123.973 46.9887 124.225 46.603 124.361 46.1975C124.534 45.6684 124.539 45.6684 125.665 45.6659C127.251 45.6634 127.251 45.6634 127.251 44.9118C127.251 44.803 127.256 44.6942 127.251 44.5854C127.23 44.2343 127.099 44.175 126.351 44.1651C126.016 44.1601 125.68 44.1651 125.34 44.1626C124.345 44.1601 124.361 44.1576 124.015 43.7076C123.178 42.6197 121.607 41.9472 119.093 41.8755C116.868 41.8112 115.365 42.3601 114.271 43.223C113.596 43.7546 113.198 44.3431 112.669 44.9068C112.465 45.1269 112.229 45.3371 111.904 45.52C110.957 46.0615 109.381 45.9626 108.784 45.3198C108.464 44.9761 108.386 44.6126 108.485 44.2392C108.637 43.6631 108.956 43.1117 109.527 42.5925C109.862 42.2884 109.773 42.1994 109.077 42.0955C108.475 42.0065 107.867 41.9274 107.26 41.8483C106.443 41.7419 106.249 41.7815 105.867 42.1499C105.385 42.6197 105.139 43.1216 104.967 43.6335C104.83 44.034 104.794 44.0464 103.914 44.0513C103.516 44.0538 103.113 44.0538 102.715 44.0563C102.212 44.0587 101.919 44.1725 101.909 44.4173C101.898 44.6942 101.898 44.9736 101.914 45.2505C101.924 45.478 102.186 45.5942 102.673 45.5942C103.218 45.5942 103.768 45.6066 104.312 45.5967C104.867 45.5843 105.15 45.6981 105.296 45.9503C105.632 46.5313 106.291 47.0258 107.276 47.4066C109.998 48.4649 113.983 48.0618 115.737 46.5635Z" fill="#E8E8E8"/>
<ellipse cx="154.132" cy="11.6843" rx="3.18418" ry="1.86" transform="rotate(62.1389 154.132 11.6843)" fill="#0DD77B"/>
<ellipse cx="181.63" cy="34.7198" rx="1.42855" ry="4.66278" transform="rotate(33.0829 181.63 34.7198)" fill="#0DD77B"/>
<ellipse cx="39" cy="74" rx="8" ry="6" fill="#0DD77B" fill-opacity="0.3"/>
<ellipse cx="46.8139" cy="20.8694" rx="2.07946" ry="4.34587" transform="rotate(62.1389 46.8139 20.8694)" fill="#0DD77B" fill-opacity="0.3"/>
<ellipse cx="159.643" cy="68.0872" rx="3.47154" ry="6.22204" transform="rotate(-156.789 159.643 68.0872)" fill="#0DD77B" fill-opacity="0.3"/>
<ellipse cx="90.7535" cy="12.4742" rx="4.56123" ry="4.26813" transform="rotate(2.64723 90.7535 12.4742)" fill="#0DD77B" fill-opacity="0.3"/>
<ellipse cx="54.8021" cy="55.8793" rx="2.10104" ry="4.32125" transform="rotate(-62.0855 54.8021 55.8793)" fill="#0DD77B"/>
</svg>
