<svg width="104" height="105" viewBox="0 0 104 105" fill="none" xmlns="http://www.w3.org/2000/svg">
<path fill-rule="evenodd" clip-rule="evenodd" d="M94.8495 27.8219C94.7971 25.0496 94.7463 22.4299 94.7463 19.8967C94.7463 17.9108 93.1354 16.3015 91.1473 16.3015C75.753 16.3015 64.0329 11.8834 54.263 2.39734C52.8654 1.04003 50.6419 1.04078 49.2444 2.39734C39.476 11.8834 27.7574 16.3015 12.3646 16.3015C10.3765 16.3015 8.76486 17.9108 8.76486 19.8967C8.76486 22.4306 8.71552 25.0511 8.66162 27.8242C8.16819 53.6268 7.49257 88.9663 50.5751 103.879C50.957 104.011 51.3555 104.077 51.7533 104.077C52.1518 104.077 52.5504 104.011 52.9322 103.879C96.0178 88.9656 95.343 53.6261 94.8495 27.8219Z" fill="white"/>
<path fill-rule="evenodd" clip-rule="evenodd" d="M95.5311 21.4107L95.5405 22.4576L95.6817 30.9807L95.7085 33.424C95.8425 49.9 94.9071 59.1618 91.2962 69.2923L90.9645 70.2052C85.0719 86.1212 73.1332 97.7119 53.1885 104.615C52.7265 104.776 52.2415 104.857 51.7533 104.857C51.2658 104.857 50.7807 104.776 50.32 104.616C30.3756 97.7122 18.4379 86.1218 12.5459 70.2061C8.54187 59.3902 7.60634 49.8266 7.81844 31.8467L7.85305 29.417L7.92834 25.3142L7.97425 22.1101L7.98485 19.8966C7.98485 17.4799 9.94584 15.5214 12.3646 15.5214C27.5609 15.5214 39.0834 11.1773 48.7011 1.83763C50.4016 0.187065 53.1064 0.186782 54.8063 1.83771C64.4254 11.1773 75.9494 15.5214 91.1473 15.5214C93.566 15.5214 95.5263 17.4798 95.5263 19.8966C95.5263 20.4171 95.5277 20.9055 95.5311 21.4107ZM94.1217 30.9804L93.9807 22.4712L93.9664 19.8966C93.9664 18.3417 92.7049 17.0814 91.1474 17.0814C75.5567 17.0814 63.6405 12.5894 53.7196 2.95686C52.625 1.89376 50.883 1.89394 49.7879 2.95689C39.8686 12.5894 27.9539 17.0814 12.3647 17.0814C10.8071 17.0814 9.54497 18.3419 9.54497 19.8966C9.54497 20.2031 9.54442 20.504 9.54325 20.806L9.52191 23.1993L9.41314 29.4319C9.10135 48.2911 9.87255 58.0725 13.6842 68.7706L14.009 69.6645C19.7381 85.1402 31.3248 96.39 50.8315 103.142C51.1282 103.245 51.4399 103.297 51.7534 103.297C52.0676 103.297 52.3793 103.245 52.6772 103.141C72.1842 96.3896 83.7719 85.1396 89.5016 69.6636C93.3636 59.2325 94.3151 49.9238 94.1412 32.6258L94.1217 30.9804Z" fill="#262626"/>
<path fill-rule="evenodd" clip-rule="evenodd" d="M38.8368 71.3562C37.2099 71.3562 35.887 70.0333 35.887 68.4065V66.5313C35.887 61.411 40.0505 57.2476 45.1687 57.2476C46.0078 57.2476 46.6692 57.4595 47.4377 57.7014C48.5037 58.0374 49.711 58.4206 51.736 58.4206C53.7632 58.4206 54.9747 58.0374 56.0408 57.6992C56.8071 57.4573 57.4707 57.2476 58.3034 57.2476C63.4215 57.2476 67.5871 61.411 67.5871 66.5313V68.4065C67.5871 70.0333 66.2642 71.3562 64.6374 71.3562H38.8368Z" fill="#545454"/>
<path fill-rule="evenodd" clip-rule="evenodd" d="M51.737 54.9381C46.2314 54.9381 41.7511 50.4578 41.7511 44.9522C41.7511 39.4466 46.2314 34.9663 51.737 34.9663C57.2426 34.9663 61.7228 39.4466 61.7228 44.9522C61.7228 50.4578 57.2426 54.9381 51.737 54.9381Z" fill="#545454"/>
</svg>
