<svg width="60" height="60" viewBox="0 0 60 60" fill="none" xmlns="http://www.w3.org/2000/svg">
<path fill-rule="evenodd" clip-rule="evenodd" d="M50.8987 17.7186C50.8733 16.3724 50.8486 15.1004 50.8486 13.8703C50.8486 12.906 50.0664 12.1246 49.101 12.1246C41.6259 12.1246 35.9349 9.97925 31.1909 5.37308C30.5123 4.714 29.4326 4.71437 28.754 5.37308C24.0107 9.97925 18.3204 12.1246 10.8461 12.1246C9.88071 12.1246 9.09815 12.906 9.09815 13.8703C9.09815 15.1007 9.07419 16.3732 9.04802 17.7197C8.80842 30.2488 8.48036 47.4088 29.4002 54.6498C29.5856 54.7143 29.7791 54.7464 29.9723 54.7464C30.1658 54.7464 30.3593 54.7143 30.5447 54.6498C51.466 47.4085 51.1383 30.2485 50.8987 17.7186Z" fill="white"/>
<path fill-rule="evenodd" clip-rule="evenodd" d="M51.2297 14.6053L51.2343 15.1137L51.3028 19.2523L51.3158 20.4387C51.3809 28.439 50.9267 32.9363 49.1733 37.8555L49.0123 38.2987C46.151 46.0271 40.3538 51.6553 30.6692 55.0074C30.4448 55.0854 30.2093 55.125 29.9723 55.125C29.7355 55.125 29.5 55.0854 29.2763 55.0076C19.5918 51.6555 13.7951 46.0274 10.9341 38.2992C8.98989 33.0473 8.53562 28.4034 8.63861 19.6728L8.65542 18.493L8.69198 16.5008L8.71427 14.9449L8.71942 13.8702C8.71942 12.6966 9.67162 11.7457 10.8461 11.7457C18.2251 11.7457 23.8201 9.63627 28.4902 5.10115C29.3159 4.29968 30.6293 4.29954 31.4548 5.10119C36.1255 9.63625 41.7213 11.7457 49.101 11.7457C50.2755 11.7457 51.2274 12.6966 51.2274 13.8702C51.2274 14.1229 51.228 14.3601 51.2297 14.6053ZM50.5453 19.2525L50.4768 15.1206L50.4699 13.8705C50.4699 13.1154 49.8573 12.5035 49.101 12.5035C41.5306 12.5035 35.7444 10.3223 30.927 5.64493C30.3955 5.12872 29.5496 5.12881 29.0179 5.64495C24.2013 10.3223 18.4158 12.5035 10.8461 12.5035C10.0898 12.5035 9.47692 13.1155 9.47692 13.8705C9.47692 14.0193 9.47665 14.1654 9.47608 14.312L9.46572 15.4742L9.4129 18.5006C9.26151 27.6581 9.63598 32.4077 11.4868 37.6025L11.6445 38.0365C14.4264 45.5511 20.0527 51.0137 29.5247 54.2923C29.6687 54.3424 29.8201 54.3678 29.9723 54.3678C30.1249 54.3678 30.2762 54.3424 30.4209 54.2921C39.893 51.0135 45.5197 45.5508 48.3019 38.0361C50.1771 32.971 50.6392 28.4509 50.5547 20.0514L50.5453 19.2525Z" fill="#494949"/>
<path fill-rule="evenodd" clip-rule="evenodd" d="M23.9591 39.0002C23.1544 39.0002 22.5 38.3458 22.5 37.5411V36.6136C22.5 34.0809 24.5594 32.0215 27.0911 32.0215C27.5061 32.0215 27.8333 32.1263 28.2134 32.246C28.7407 32.4122 29.3379 32.6017 30.3395 32.6017C31.3422 32.6017 31.9415 32.4122 32.4688 32.2449C32.8479 32.1252 33.1761 32.0215 33.588 32.0215C36.1196 32.0215 38.1801 34.0809 38.1801 36.6136V37.5411C38.1801 38.3458 37.5258 39.0002 36.7211 39.0002H23.9591Z" fill="#1BD27F"/>
<path fill-rule="evenodd" clip-rule="evenodd" d="M30.3398 30.8788C27.6165 30.8788 25.4004 28.6627 25.4004 25.9394C25.4004 23.2161 27.6165 21 30.3398 21C33.0631 21 35.2792 23.2161 35.2792 25.9394C35.2792 28.6627 33.0631 30.8788 30.3398 30.8788Z" fill="#1BD27F"/>
</svg>
