<svg width="64" height="64" viewBox="0 0 64 64" fill="none" xmlns="http://www.w3.org/2000/svg">
<path d="M32.1739 63.624H32.0486C23.837 61.1793 17.4433 57.7944 13.1181 53.4692C8.73026 49.144 5.78413 43.1891 4.21704 35.7297V35.6671V12.1607C4.21704 11.91 4.40509 11.6592 4.65583 11.6592C7.79001 11.0951 11.8644 9.84139 16.6284 7.8982C21.7058 5.82964 26.9085 3.32229 31.9859 0.37616C32.0486 0.313477 32.1739 0.313477 32.2366 0.313477C32.2993 0.313477 32.4247 0.313477 32.4874 0.37616C38.5677 3.63571 43.7077 6.20574 47.8449 7.8982C51.7939 9.52797 55.8057 10.7816 59.7547 11.5965C60.0055 11.6592 60.1935 11.8473 60.1935 12.098V35.7297C59.1279 42.6249 56.1191 48.5799 51.2298 53.4692C46.3404 58.3585 39.9467 61.7435 32.362 63.624H32.2993H32.1739Z" fill="white"/>
<path fill-rule="evenodd" clip-rule="evenodd" d="M13.1181 53.4692C17.4433 57.7944 23.837 61.1793 32.0486 63.624H32.362C39.9467 61.7435 46.3404 58.3585 51.2298 53.4692C56.1191 48.5799 59.1279 42.6249 60.1935 35.7297V12.098C60.1935 11.8473 60.0055 11.6592 59.7547 11.5965C55.8057 10.7816 51.7939 9.52797 47.8449 7.8982C43.7077 6.20574 38.5677 3.63571 32.4874 0.37616C32.4247 0.313477 32.2993 0.313477 32.2366 0.313477C32.1739 0.313477 32.0486 0.313477 31.9859 0.37616C26.9085 3.32229 21.7058 5.82964 16.6284 7.8982C11.8644 9.84139 7.79001 11.0951 4.65583 11.6592C4.40509 11.6592 4.21704 11.91 4.21704 12.1607V35.7297C5.78413 43.1891 8.73026 49.144 13.1181 53.4692ZM5.14012 35.6334C6.68482 42.9191 9.5566 48.6624 13.7661 52.8118L13.7708 52.8165C17.9277 56.9733 24.1201 60.2849 32.1835 62.7009H32.2488C39.651 60.8485 45.8489 57.5447 50.5771 52.8165C55.3099 48.0837 58.2251 42.332 59.2705 35.6584V12.4383C55.3569 11.6099 51.3926 10.3608 47.4942 8.75207C43.3556 7.05891 38.2467 4.50703 32.2443 1.29315C27.1925 4.2109 22.0228 6.69721 16.977 8.75291C12.3366 10.6457 8.31226 11.9033 5.14012 12.5082V35.6334Z" fill="#262626"/>
<path d="M28.0365 43.6276C27.2216 43.6276 26.4694 43.3142 25.9679 42.7501L18.2579 34.9773C17.1295 33.849 17.1295 31.9685 18.2579 30.8402C19.3862 29.7118 21.2667 29.7118 22.395 30.8402L27.9738 36.5444L41.8269 22.5032C42.9552 21.3749 44.8357 21.3122 45.964 22.4405C47.0923 23.5688 47.155 25.4494 46.0267 26.5777L30.1677 42.7501C29.6036 43.3142 28.8514 43.6276 28.0365 43.6276Z" fill="#1BD27F"/>
</svg>
