<svg width="100" height="100" viewBox="0 0 100 100" fill="none" xmlns="http://www.w3.org/2000/svg">
<path d="M98.0769 50C98.0769 76.5385 76.5385 98.0769 50 98.0769C23.4616 98.0769 1.9231 76.5385 1.9231 50C1.9231 23.4616 23.4616 1.9231 50 1.9231C76.5385 1.9231 98.0769 23.4616 98.0769 50Z" fill="#F7F7F7"/>
<path d="M49.5799 78.5074H49.4669C42.0646 76.3037 36.3011 73.2524 32.4022 69.3535C28.4468 65.4546 25.791 60.0865 24.3784 53.3624V53.3058V32.1162C24.3784 31.8902 24.5479 31.6642 24.7739 31.6642C27.5992 31.1556 31.272 30.0255 35.5665 28.2738C40.1434 26.4091 44.8334 24.1489 49.4104 21.4932C49.4669 21.4366 49.5799 21.4366 49.6364 21.4366C49.6929 21.4366 49.8059 21.4366 49.8624 21.4932C55.3435 24.4314 59.9769 26.7482 63.7063 28.2738C67.2662 29.743 70.8825 30.8731 74.4424 31.6077C74.6684 31.6642 74.8379 31.8337 74.8379 32.0597V53.3624C73.8773 59.578 71.1651 64.946 66.7576 69.3535C62.3502 73.7609 56.5866 76.8122 49.7494 78.5074H49.6929H49.5799Z" fill="white"/>
<path d="M49.579 21.7189C49.6355 21.7189 49.6355 21.7189 49.692 21.7189C55.1731 24.7137 59.8066 26.9739 63.5924 28.4995C67.2088 29.9687 70.7687 31.0988 74.385 31.8899C74.498 31.8899 74.5545 32.0029 74.5545 32.0594V53.362C73.6504 59.5212 71.0512 64.7762 66.5872 69.1836C62.1798 73.5911 56.5857 76.5859 49.692 78.2246H49.6355H49.579C42.1768 76.0773 36.5262 73.026 32.6273 69.1836C28.7284 65.2847 26.0727 60.0297 24.66 53.362V32.1159C24.66 32.0029 24.7165 31.9464 24.8295 31.9464C27.6548 31.4378 31.2712 30.3077 35.6221 28.4995C40.2556 26.6349 44.889 24.3746 49.466 21.7189C49.5225 21.7189 49.5225 21.7189 49.579 21.7189ZM49.579 21.1538C49.466 21.1538 49.2965 21.2103 49.1835 21.2668C44.6065 23.8661 39.9731 26.1263 35.3961 27.991C31.1017 29.7427 27.5418 30.8728 24.66 31.3813C24.321 31.4378 24.0385 31.7769 24.0385 32.1159V53.3055V53.362V53.4186C25.5076 60.1992 28.2199 65.6238 32.1753 69.5792C36.1307 73.4781 41.8943 76.5859 49.353 78.7896C49.4095 78.7896 49.466 78.8461 49.579 78.8461C49.6355 78.8461 49.692 78.8461 49.7485 78.8461C56.6987 77.1509 62.4623 74.0996 66.9263 69.6357C71.3902 65.1717 74.159 59.7472 75.0631 53.5316V53.4751V53.362V32.0594C75.0631 31.7204 74.8371 31.3813 74.4415 31.3248C70.8817 30.5338 67.2653 29.4036 63.762 27.991C60.0326 26.4653 55.3991 24.2051 49.9181 21.2668C49.805 21.2103 49.692 21.1538 49.579 21.1538Z" fill="#262626"/>
<path d="M45.8502 60.4819C45.1156 60.4819 44.4375 60.1994 43.9855 59.6908L37.0353 52.6841C36.0182 51.667 36.0182 49.9719 37.0353 48.9548C38.0524 47.9377 39.7476 47.9377 40.7647 48.9548L45.7937 54.0968L58.2814 41.4395C59.2985 40.4224 60.9937 40.3659 62.0108 41.383C63.0279 42.4001 63.0844 44.0953 62.0673 45.1124L47.7714 59.6908C47.2628 60.1994 46.5848 60.4819 45.8502 60.4819Z" fill="#262626"/>
</svg>
