<svg width="104" height="104" viewBox="0 0 104 104" fill="none" xmlns="http://www.w3.org/2000/svg">
<path d="M52.2825 103.389H52.0788C38.735 99.4167 28.3452 93.9162 21.3168 86.8878C14.1865 79.8594 9.39906 70.1826 6.85254 58.0612V57.9593V19.7615C6.85254 19.354 7.15812 18.9466 7.56557 18.9466C12.6586 18.0298 19.2796 15.9926 27.021 12.8349C35.2717 9.47353 43.7262 5.39909 51.9769 0.611627C52.0788 0.509766 52.2825 0.509766 52.3844 0.509766C52.4862 0.509766 52.6899 0.509766 52.7918 0.611627C62.6723 5.90839 71.0249 10.0847 77.7477 12.8349C84.165 15.4833 90.6841 17.5205 97.1013 18.8447C97.5088 18.9466 97.8143 19.2522 97.8143 19.6596V58.0612C96.0827 69.2659 91.1934 78.9427 83.2482 86.8878C75.3031 94.833 64.9133 100.333 52.5881 103.389H52.4862H52.2825Z" fill="white"/>
<path fill-rule="evenodd" clip-rule="evenodd" d="M21.3168 86.8878C28.3452 93.9162 38.735 99.4167 52.0788 103.389H52.5881C64.9133 100.333 75.3031 94.833 83.2482 86.8878C91.1934 78.9427 96.0827 69.2659 97.8143 58.0612V19.6596C97.8143 19.2522 97.5088 18.9466 97.1013 18.8447C90.6841 17.5205 84.165 15.4833 77.7477 12.8349C71.0249 10.0847 62.6723 5.90839 52.7918 0.611627C52.6899 0.509766 52.4862 0.509766 52.3844 0.509766C52.2825 0.509766 52.0788 0.509766 51.9769 0.611627C43.7262 5.39909 35.2717 9.47353 27.021 12.8349C19.2796 15.9926 12.6586 18.0298 7.56557 18.9466C7.15812 18.9466 6.85254 19.354 6.85254 19.7615V58.0612C9.39906 70.1826 14.1865 79.8594 21.3168 86.8878ZM8.35254 57.9046C10.8627 69.7438 15.5293 79.0768 22.3698 85.8196L22.3775 85.8271C29.1323 92.582 39.195 97.9634 52.298 101.889H52.4041C64.4327 98.8791 74.5043 93.5105 82.1876 85.8272C89.8784 78.1363 94.6156 68.7899 96.3143 57.9452V20.2127C89.9548 18.8665 83.5128 16.8367 77.1779 14.2225C70.4526 11.4711 62.1507 7.32428 52.3969 2.10174C44.1877 6.84309 35.7869 10.8833 27.5875 14.2238C20.0469 17.2996 13.5073 19.3432 8.35254 20.3262V57.9046Z" fill="#262626"/>
<path fill-rule="evenodd" clip-rule="evenodd" d="M30.3573 32.5499L39.7889 30.5541C41.1643 30.2628 42.5772 30.9138 43.1386 32.1045L47.4895 41.3986C48.0041 42.4865 47.6579 43.7714 46.6567 44.5252L41.6134 48.3029C44.7947 54.2305 50.0626 59.0618 56.5468 61.9742L60.6731 57.3571C61.4965 56.4406 62.9 56.1236 64.0883 56.5948L74.231 60.578C75.5316 61.0919 76.2427 62.3768 75.9245 63.636L73.7538 72.262C73.445 73.4869 72.2661 74.3435 70.9 74.3435C47.3023 74.3435 28.093 56.8517 28.093 35.154C28.093 33.9034 29.0286 32.8241 30.3573 32.5499ZM70.8439 71.6024L72.996 63.0706L62.9469 59.1303L57.3796 65.3663C47.686 61.2033 42.4369 56.3806 37.9083 47.5405L44.72 42.4437L40.4159 33.2438L31.0966 35.214C31.1153 55.3013 48.9024 71.5767 70.8439 71.6024Z" fill="#494949"/>
<mask id="mask0" mask-type="alpha" maskUnits="userSpaceOnUse" x="28" y="30" width="48" height="45">
<path fill-rule="evenodd" clip-rule="evenodd" d="M30.3573 32.5499L39.7889 30.5541C41.1643 30.2628 42.5772 30.9138 43.1386 32.1045L47.4895 41.3986C48.0041 42.4865 47.6579 43.7714 46.6567 44.5252L41.6134 48.3029C44.7947 54.2305 50.0626 59.0618 56.5468 61.9742L60.6731 57.3571C61.4965 56.4406 62.9 56.1236 64.0883 56.5948L74.231 60.578C75.5316 61.0919 76.2427 62.3768 75.9245 63.636L73.7538 72.262C73.445 73.4869 72.2661 74.3435 70.9 74.3435C47.3023 74.3435 28.093 56.8517 28.093 35.154C28.093 33.9034 29.0286 32.8241 30.3573 32.5499ZM70.8439 71.6024L72.996 63.0706L62.9469 59.1303L57.3796 65.3663C47.686 61.2033 42.4369 56.3806 37.9083 47.5405L44.72 42.4437L40.4159 33.2438L31.0966 35.214C31.1153 55.3013 48.9024 71.5767 70.8439 71.6024Z" fill="white"/>
</mask>
<g mask="url(#mask0)">
</g>
</svg>
