<svg width="57" height="20" viewBox="0 0 57 20" fill="none" xmlns="http://www.w3.org/2000/svg">
<path fill-rule="evenodd" clip-rule="evenodd" d="M9.40491 6.39088V8.61544H11.9469V6.39088C11.9469 3.80236 9.78029 1.69531 7.1167 1.69531V4.16632C8.37832 4.16632 9.40491 5.16517 9.40491 6.39088Z" fill="#808080"/>
<path fill-rule="evenodd" clip-rule="evenodd" d="M12.7104 8.61523H7.11719V12.7518L9.94318 9.92663L10.7862 10.7696L7.11719 14.4378V17.5118H12.7104C13.5526 17.5118 14.2364 16.8476 14.2364 16.0291V10.0964C14.2364 9.27868 13.5526 8.61523 12.7104 8.61523Z" fill="#808080"/>
<path fill-rule="evenodd" clip-rule="evenodd" d="M4.83009 6.39072C4.83009 5.16419 5.85587 4.16534 7.11748 4.16534V1.69434C4.4547 1.69434 2.28809 3.80138 2.28809 6.3899V8.61528H4.83009V6.39072Z" fill="#808080"/>
<mask id="mask0" mask-type="alpha" maskUnits="userSpaceOnUse" x="0" y="8" width="8" height="10">
<path fill-rule="evenodd" clip-rule="evenodd" d="M0 8.61523H7.11744V17.5127H0V8.61523Z" fill="white"/>
</mask>
<g mask="url(#mask0)">
<path fill-rule="evenodd" clip-rule="evenodd" d="M6.96092 14.5944L6.12039 15.4382L6.11794 15.4374L6.11631 15.4391L5.76378 15.0882L3.74568 13.0872L4.58785 12.245L6.11386 13.758L7.11761 12.7526V8.61523H1.52439C0.683036 8.61523 0 9.2795 0 10.098V16.0307C0 16.8492 0.683036 17.5127 1.52602 17.5127H7.11597V14.4378L6.95929 14.5936L6.96092 14.5944Z" fill="#808080"/>
</g>
<path fill-rule="evenodd" clip-rule="evenodd" d="M10.7857 10.7689L9.94352 9.92676L7.11753 12.7519L6.11379 13.7557L4.58777 12.2443L3.74561 13.0865L5.76452 15.0867L6.11542 15.4384L6.11787 15.4367L6.1195 15.4376L6.96004 14.5938L7.11753 14.4371L10.7857 10.7689Z" fill="white"/>
<path fill-rule="evenodd" clip-rule="evenodd" d="M55.2768 2.7475V3.79531H52.1382V5.75792H54.6117V6.77227H52.1391V8.77487H55.2768V9.82757H50.8113V2.7475H55.2768ZM45.5927 7.06116V9.82757H44.2748V2.7475H46.434C46.9171 2.7475 47.3317 2.79728 47.6753 2.89684C48.0196 2.9964 48.302 3.13594 48.5223 3.31466C48.7427 3.49501 48.9042 3.70963 49.0071 3.95934C49.1107 4.20905 49.1621 4.48406 49.1621 4.78437C49.1621 5.02266 49.1262 5.24789 49.056 5.46006C48.9173 5.88441 48.6374 6.24918 48.2628 6.49318C48.0686 6.62375 47.8474 6.72821 47.5994 6.80655C47.7724 6.90774 47.9201 7.04647 48.0302 7.21294L49.8027 9.82757H48.6178C48.5166 9.83084 48.4162 9.80717 48.3265 9.75902C48.244 9.71088 48.1747 9.64396 48.1241 9.56317L46.6348 7.29618C46.5899 7.2211 46.5263 7.15908 46.4512 7.11501C46.3581 7.07421 46.257 7.05544 46.155 7.06116H45.5919H45.5927ZM45.5927 6.11617H46.4145C46.6625 6.11617 46.8796 6.08516 47.0632 6.02314C47.2476 5.96112 47.3994 5.87625 47.5186 5.76608C47.6377 5.65673 47.7267 5.52698 47.7854 5.37683C47.8458 5.21933 47.876 5.05122 47.8736 4.8823C47.8736 4.52324 47.7552 4.24741 47.5186 4.05482C47.2819 3.86223 46.9204 3.76594 46.434 3.76594H45.5927V6.11617ZM39.7857 8.76508C40.0403 8.76508 40.2671 8.72264 40.4687 8.63777C40.6694 8.5529 40.8392 8.43376 40.9779 8.27953C41.1215 8.11795 41.2301 7.92862 41.2962 7.72216C41.3688 7.50346 41.4055 7.25865 41.4055 6.98772V2.74669H42.7234V6.98608C42.7234 7.40798 42.6557 7.79642 42.5194 8.15467C42.3913 8.50068 42.1922 8.81567 41.9351 9.08007C41.6724 9.34447 41.3574 9.55175 41.0097 9.68722C40.6197 9.83737 40.2043 9.91082 39.7857 9.90429C39.3678 9.91082 38.9525 9.83737 38.5616 9.68722C38.2148 9.55175 37.9006 9.34529 37.6386 9.08007C37.3824 8.81567 37.1841 8.49986 37.056 8.15467C36.9172 7.78092 36.8479 7.38513 36.8519 6.98608V2.74751H38.1699V6.98282C38.1699 7.25293 38.2058 7.49856 38.28 7.71727C38.3535 7.93515 38.4588 8.12284 38.5959 8.27708C38.7329 8.43294 38.9019 8.5529 39.1018 8.63777C39.3034 8.72264 39.531 8.76508 39.7857 8.76508ZM35.0705 8.15793C35.1423 8.15793 35.2043 8.18568 35.2574 8.24117L35.7756 8.80424C35.4883 9.16004 35.135 9.43261 34.7147 9.62193C34.2961 9.81125 33.7926 9.90592 33.205 9.90592C32.6795 9.90592 32.207 9.81615 31.7883 9.63662C31.3811 9.46606 31.0147 9.21064 30.7128 8.88748C30.4092 8.55617 30.1775 8.16609 30.0298 7.74175C29.8674 7.27415 29.7874 6.78207 29.7923 6.28754C29.7923 5.75547 29.8812 5.26829 30.0567 4.82681C30.233 4.38369 30.481 4.00259 30.8017 3.6827C31.12 3.36281 31.5035 3.11391 31.9491 2.93601C32.42 2.75322 32.921 2.66264 33.4253 2.66835C33.9509 2.66835 34.4103 2.75322 34.8037 2.92132C35.197 3.08943 35.534 3.31303 35.8147 3.59049L35.3741 4.20253C35.3472 4.24251 35.3129 4.27679 35.2737 4.30453C35.2231 4.33636 35.1644 4.35186 35.1048 4.3486C35.0207 4.34534 34.9399 4.31433 34.8747 4.26047C34.647 4.09073 34.3907 3.96098 34.1182 3.87855C33.8897 3.81409 33.653 3.78389 33.4156 3.7896C33.0826 3.7896 32.7766 3.84836 32.4975 3.96424C32.2241 4.07604 31.9793 4.24578 31.7777 4.46203C31.5696 4.68971 31.4097 4.95656 31.3077 5.24707C31.191 5.58166 31.1347 5.93337 31.1396 6.28754C31.1396 6.68577 31.1951 7.03994 31.3077 7.35004C31.4203 7.66014 31.5729 7.92128 31.7647 8.13345C31.9589 8.34562 32.1849 8.50883 32.4461 8.62063C32.7072 8.73325 32.9879 8.78874 33.2883 8.78874C33.4678 8.78874 33.6302 8.78058 33.7754 8.76018C33.9207 8.74059 34.0545 8.70958 34.1769 8.66715C34.2993 8.62471 34.4152 8.57004 34.5246 8.50394C34.6339 8.43621 34.7433 8.35378 34.8502 8.25586C34.8812 8.22811 34.9163 8.20445 34.953 8.18486C34.9897 8.16691 35.0297 8.15712 35.0705 8.15793ZM28.8963 2.7475V3.79531H25.7569V5.75792H28.2304V6.77227H25.7577V8.77487H28.8954V9.82757H24.43V2.7475H28.8963ZM22.8052 4.03605C22.7783 4.09644 22.7351 4.14948 22.6804 4.18784C22.6298 4.21803 22.571 4.23272 22.5115 4.23109C22.4462 4.23109 22.3727 4.20661 22.2911 4.1552C22.2095 4.10542 22.1124 4.04911 22.0023 3.98627C21.8782 3.91854 21.7476 3.86142 21.613 3.81653C21.4433 3.76349 21.2654 3.73901 21.0866 3.74227C20.9038 3.74227 20.7447 3.76349 20.6092 3.80756C20.4844 3.84591 20.3677 3.90793 20.2665 3.99035C20.1751 4.06625 20.1033 4.16254 20.0584 4.27271C20.0119 4.38614 19.9882 4.50855 19.9899 4.63177C19.9842 4.78274 20.0339 4.93126 20.1294 5.04796C20.2224 5.16057 20.3448 5.25442 20.4991 5.33358C20.6517 5.41192 20.8263 5.48046 21.0222 5.54412C21.2237 5.60695 21.4237 5.67305 21.6228 5.7416C21.8268 5.8126 22.0267 5.89339 22.2218 5.98642C22.4176 6.08026 22.5923 6.19696 22.7465 6.33895C22.8991 6.48176 23.0239 6.65558 23.1162 6.86123C23.2092 7.06687 23.2557 7.31658 23.2557 7.60955C23.2557 7.92862 23.2002 8.22974 23.0925 8.5072C22.9823 8.78629 22.8232 9.03111 22.6118 9.23839C22.3907 9.45219 22.1279 9.61867 21.8399 9.72802C21.5069 9.85206 21.1536 9.91163 20.7978 9.9051C20.3538 9.90347 19.914 9.81697 19.5019 9.65131C19.3052 9.57133 19.1175 9.47341 18.9396 9.35753C18.7699 9.24818 18.6132 9.12087 18.4712 8.97643L18.8531 8.34399C18.8898 8.29911 18.9339 8.25994 18.9837 8.22974C19.0343 8.19873 19.093 8.18241 19.1518 8.18241C19.2342 8.18241 19.3215 8.21587 19.417 8.28279C19.5117 8.3497 19.6235 8.42478 19.7524 8.50639C19.8813 8.58799 20.0331 8.66144 20.2069 8.72835C20.3816 8.79608 20.5921 8.82954 20.8369 8.82954C21.2123 8.82954 21.502 8.73978 21.7077 8.56188C21.9133 8.38398 22.0161 8.12937 22.0161 7.79479C22.0161 7.60955 21.9704 7.45694 21.8774 7.34025C21.777 7.21621 21.6505 7.11502 21.5069 7.04402C21.3404 6.95915 21.165 6.89142 20.9846 6.84164C20.7839 6.78452 20.584 6.72413 20.3857 6.65966C20.1825 6.59438 19.9833 6.51604 19.7899 6.42545C19.5965 6.33569 19.4194 6.21491 19.2652 6.06639C19.1053 5.91052 18.9796 5.72365 18.8955 5.51637C18.8025 5.29604 18.7568 5.02429 18.7568 4.70032C18.7568 4.44408 18.8074 4.19192 18.9102 3.9471C19.0131 3.70229 19.1632 3.48522 19.3599 3.29671C19.5582 3.10657 19.8005 2.9556 20.0878 2.84135C20.402 2.72139 20.7357 2.66264 21.072 2.66835C21.4898 2.66835 21.8741 2.73363 22.2275 2.8642C22.58 2.99559 22.8803 3.17838 23.1284 3.41259L22.8052 4.03605Z" fill="#808080"/>
<path fill-rule="evenodd" clip-rule="evenodd" d="M47.2072 17.2586C46.9534 17.2586 46.7584 17.1868 46.6213 17.0424C46.4842 16.8996 46.4157 16.6996 46.4157 16.4475V14.8113H46.1186C46.0827 14.8113 46.0476 14.7974 46.0207 14.7738C45.993 14.7493 45.9791 14.7126 45.9791 14.6611V14.3829L46.4499 14.3053L46.5993 13.5048C46.6042 13.4697 46.6229 13.4387 46.6515 13.4175C46.6817 13.3955 46.7184 13.384 46.756 13.3848H47.1216V14.3086H47.8927V14.8113H47.1216V16.3993C47.1167 16.4769 47.1411 16.5528 47.1901 16.6131C47.2358 16.6637 47.2962 16.6907 47.3729 16.6907C47.4104 16.6923 47.4472 16.6866 47.4831 16.6744C47.5304 16.6588 47.5761 16.636 47.6185 16.6091C47.6495 16.5887 47.6895 16.5887 47.7214 16.6091C47.7377 16.6229 47.7516 16.6384 47.7646 16.6564L47.9751 16.9991C47.8723 17.0848 47.7548 17.1493 47.6218 17.1934C47.488 17.2374 47.3501 17.2586 47.2072 17.2586ZM43.0144 18.1694V14.2825H43.4461C43.4918 14.2825 43.5309 14.2923 43.5627 14.3135C43.5954 14.3347 43.6166 14.3666 43.6256 14.4114L43.6827 14.6824C43.801 14.5469 43.9357 14.4376 44.0899 14.3527C44.2433 14.2694 44.4229 14.2278 44.6285 14.2278C44.7885 14.2278 44.9345 14.2613 45.0667 14.3274C45.1989 14.3943 45.314 14.4906 45.4095 14.6179C45.5123 14.7591 45.5882 14.9174 45.6323 15.0863C45.6853 15.2716 45.7106 15.4845 45.7106 15.7245C45.7106 15.9448 45.6812 16.1464 45.6225 16.3324C45.5686 16.5079 45.4829 16.6727 45.3695 16.818C45.2601 16.9551 45.1279 17.0628 44.9729 17.1395C44.8097 17.2178 44.631 17.2578 44.4506 17.2554C44.2858 17.2554 44.1454 17.2309 44.0295 17.1803C43.9137 17.1297 43.8092 17.0579 43.7194 16.9698V18.1694H43.0144ZM44.3853 14.7852C44.2539 14.7811 44.1242 14.8129 44.0099 14.8774C43.8981 14.9468 43.8002 15.0349 43.7202 15.1385V16.4532C43.7888 16.543 43.8777 16.614 43.9814 16.6597C44.1715 16.7372 44.3853 16.7372 44.5755 16.6597C44.6636 16.618 44.7395 16.5544 44.7958 16.4752C44.8554 16.3936 44.9019 16.29 44.9345 16.1651C44.968 16.0199 44.9843 15.873 44.9819 15.7245C44.9819 15.5531 44.9688 15.4078 44.9411 15.2887C44.9198 15.1859 44.879 15.0871 44.8227 14.9982C44.7762 14.9288 44.7109 14.8725 44.635 14.8358C44.5559 14.8007 44.471 14.7844 44.3853 14.7852ZM41.0069 18.0184C40.9889 18.0616 40.9612 18.1008 40.9253 18.1302C40.8918 18.1571 40.8412 18.1702 40.7727 18.1702H40.2463L40.7947 16.9959L39.6098 14.2825H40.2267C40.2839 14.2825 40.3279 14.2956 40.3581 14.3225C40.3883 14.3486 40.412 14.3804 40.4267 14.4139L41.0526 15.9326C41.073 15.9832 41.0917 16.0338 41.1064 16.0868C41.1219 16.1407 41.135 16.1945 41.1464 16.2476C41.1611 16.1913 41.1782 16.1382 41.1962 16.0868C41.215 16.0354 41.2337 15.984 41.255 15.9301L41.8433 14.4139C41.8752 14.3347 41.9519 14.2833 42.0376 14.2833H42.6031L41.0069 18.0184ZM37.6333 17.2113V14.2825H38.0479C38.1213 14.2825 38.1703 14.2964 38.1988 14.3217C38.2282 14.3486 38.2462 14.3951 38.256 14.4588L38.2984 14.8138C38.4045 14.6326 38.5269 14.489 38.6672 14.3853C38.8035 14.2825 38.97 14.2262 39.1414 14.2286C39.2858 14.2286 39.4066 14.2613 39.5013 14.3282L39.4099 14.8562C39.4041 14.8905 39.3919 14.9158 39.3731 14.9296C39.3503 14.9451 39.3225 14.9525 39.2956 14.9508C39.2556 14.9492 39.2165 14.9419 39.1789 14.9296C39.1144 14.9158 39.0475 14.9092 38.9814 14.9109C38.8451 14.9076 38.7121 14.95 38.6044 15.0316C38.4885 15.1279 38.3971 15.2495 38.3384 15.3883V17.2121H37.6333V17.2113ZM36.9674 14.9027C36.9503 14.9264 36.9299 14.9468 36.907 14.9639C36.8866 14.981 36.8581 14.9876 36.8197 14.9876C36.7822 14.9876 36.7446 14.9753 36.7136 14.9549C36.6736 14.9296 36.6328 14.9043 36.5912 14.8815C36.4655 14.8072 36.3219 14.7705 36.1767 14.7738C36.0649 14.7713 35.9531 14.7933 35.8519 14.8407C35.7597 14.8847 35.6797 14.9508 35.6193 15.0325C35.554 15.1247 35.5067 15.2283 35.4806 15.3377C35.4487 15.4699 35.4332 15.6061 35.4349 15.7416C35.4349 15.8983 35.4512 16.0378 35.4838 16.1586C35.5181 16.2802 35.5654 16.383 35.6283 16.4663C35.6878 16.5462 35.7662 16.6107 35.8568 16.6539C35.9465 16.6972 36.0477 16.7192 36.1603 16.7192C36.3203 16.7241 36.4778 16.6776 36.6092 16.5862C36.6557 16.5528 36.6973 16.5209 36.7316 16.494C36.765 16.4671 36.8075 16.4532 36.8507 16.4532C36.9078 16.4532 36.9511 16.4752 36.9797 16.5185L37.1829 16.7764C37.1045 16.8661 37.0196 16.9445 36.9282 17.004C36.752 17.1248 36.5504 17.2032 36.3399 17.2325C36.237 17.248 36.1326 17.2554 36.029 17.2562C35.8478 17.2562 35.6772 17.2219 35.5173 17.155C35.3573 17.0873 35.2154 16.9861 35.0987 16.8588C34.9738 16.72 34.8783 16.5585 34.8163 16.383C34.7437 16.1774 34.7078 15.9595 34.7118 15.7416C34.7118 15.527 34.7429 15.3279 34.8049 15.1434C34.8669 14.9598 34.9575 14.8007 35.0783 14.6669C35.2007 14.5289 35.3533 14.4212 35.523 14.351C35.7001 14.2743 35.9033 14.2368 36.135 14.2368C36.3529 14.2368 36.5447 14.2727 36.7104 14.3421C36.8736 14.4131 37.0221 14.5134 37.1543 14.6456L36.9682 14.9027H36.9674ZM31.6614 17.2113V14.2825H32.0923C32.1845 14.2825 32.2441 14.3258 32.2719 14.4106L32.3208 14.6424C32.3804 14.5812 32.4424 14.5257 32.5085 14.4767C32.5738 14.4269 32.6432 14.3845 32.7166 14.3478C32.7917 14.3111 32.8708 14.2833 32.9524 14.2654C33.0365 14.2458 33.1279 14.2368 33.2266 14.2368C33.3866 14.2368 33.5286 14.2645 33.651 14.3176C33.7758 14.3731 33.8795 14.4482 33.9611 14.5461C34.0451 14.644 34.108 14.7607 34.1512 14.8962C34.1937 15.0333 34.2149 15.1842 34.2149 15.3483V17.2121H33.5098V15.3483C33.5098 15.1679 33.4682 15.03 33.3849 14.9313C33.3025 14.8342 33.1777 14.7852 33.012 14.7852C32.8921 14.7844 32.7745 14.8129 32.6693 14.8684C32.5567 14.9272 32.4546 15.0031 32.3665 15.0937V17.2121H31.6614V17.2113ZM29.8188 14.2368C30.0032 14.2368 30.1738 14.267 30.328 14.3258C30.6381 14.4416 30.8821 14.6889 30.9931 14.9998C31.0739 15.2234 31.1033 15.4625 31.0796 15.6984C31.0763 15.7269 31.0682 15.7547 31.0543 15.78C31.0429 15.7995 31.0249 15.8142 31.0045 15.8232C30.9792 15.833 30.9523 15.8379 30.9246 15.8371H29.1129C29.1349 16.1374 29.2149 16.3577 29.3561 16.4973C29.4973 16.6401 29.6825 16.7103 29.9167 16.7103C30.0302 16.7103 30.1289 16.698 30.2121 16.6686C30.2937 16.6442 30.3664 16.6148 30.4284 16.5821C30.4912 16.5495 30.5451 16.5201 30.5916 16.494C30.6316 16.4679 30.6789 16.454 30.7271 16.4532C30.7556 16.4532 30.7801 16.4597 30.8021 16.4695C30.8234 16.4818 30.8413 16.4981 30.856 16.5185L31.0616 16.7764C30.9858 16.8653 30.8976 16.942 30.7989 17.004C30.701 17.0685 30.5998 17.1175 30.4945 17.155C30.3892 17.1917 30.2815 17.2178 30.1713 17.2333C30.0661 17.2472 29.9592 17.2554 29.8531 17.2562C29.6491 17.2562 29.4597 17.2219 29.2843 17.155C29.1121 17.0889 28.9562 16.9861 28.8273 16.8547C28.6926 16.7143 28.589 16.547 28.5229 16.3626C28.4438 16.1464 28.4062 15.9154 28.4111 15.6853C28.4111 15.4854 28.4429 15.2977 28.5082 15.1214C28.6274 14.7738 28.8901 14.493 29.2296 14.351C29.4034 14.2752 29.6001 14.2368 29.8188 14.2368ZM29.8335 14.7428C29.6278 14.7428 29.4663 14.7991 29.3504 14.9166C29.2345 15.0316 29.1602 15.1981 29.1276 15.4095H30.4529C30.4529 15.3197 30.4406 15.234 30.4162 15.1524C30.3933 15.0741 30.3541 15.0014 30.3011 14.9394C30.248 14.8766 30.1819 14.8276 30.1077 14.7942C30.0204 14.7583 29.9273 14.7403 29.8335 14.7428ZM25.3599 16.5789H27.0132V17.2121H24.592V13.0837H25.3599V16.5789ZM23.7417 13.8337C23.7262 13.8696 23.7009 13.9006 23.6682 13.9218C23.6388 13.9406 23.6046 13.9487 23.5703 13.9471C23.5246 13.9447 23.4797 13.93 23.4422 13.9039C23.3867 13.8704 23.3296 13.8378 23.2732 13.8059C23.2006 13.7668 23.1239 13.7341 23.0447 13.7072C22.946 13.6762 22.8424 13.6607 22.7387 13.6623C22.6326 13.6623 22.5396 13.6745 22.4605 13.7007C22.3878 13.7235 22.3201 13.7602 22.2613 13.8076C22.2075 13.8516 22.165 13.9087 22.1389 13.9724C22.112 14.0393 22.0973 14.1103 22.0981 14.1813C22.0949 14.2703 22.1242 14.3559 22.1797 14.4245C22.2401 14.4947 22.3136 14.5518 22.3968 14.5902C22.4858 14.6359 22.5878 14.6775 22.702 14.7134C22.8163 14.7493 22.933 14.7885 23.0513 14.8284C23.1712 14.8709 23.2871 14.9174 23.4014 14.9721C23.5156 15.0259 23.6184 15.0945 23.7074 15.1769C23.7963 15.2601 23.8681 15.3621 23.9228 15.4821C23.9775 15.6021 24.0044 15.7465 24.0044 15.9179C24.0044 16.1064 23.9718 16.2802 23.9089 16.4426C23.8461 16.6025 23.7506 16.7478 23.6282 16.8678C23.4993 16.9934 23.3467 17.0897 23.1794 17.1542C22.9844 17.2268 22.7771 17.2619 22.5698 17.2578C22.1854 17.2562 21.8092 17.1452 21.4861 16.9379C21.3873 16.8743 21.2959 16.8 21.2135 16.7152L21.4371 16.3479C21.4575 16.321 21.4836 16.2973 21.513 16.2802C21.5424 16.2614 21.5767 16.2533 21.6109 16.2533C21.6583 16.2533 21.7089 16.272 21.7652 16.3112C21.8207 16.3504 21.886 16.3936 21.9602 16.4418C22.0361 16.4891 22.1251 16.5315 22.2271 16.5707C22.3283 16.6099 22.4507 16.6295 22.5935 16.6295C22.8122 16.6295 22.9819 16.5781 23.1019 16.4752C23.2218 16.37 23.2814 16.2214 23.2814 16.0272C23.2855 15.9317 23.2561 15.8379 23.1998 15.7612C23.141 15.6886 23.0676 15.6298 22.9844 15.5882C22.8864 15.5392 22.7844 15.4992 22.6792 15.4707C22.5649 15.438 22.4482 15.4029 22.3307 15.3646C22.2116 15.3262 22.0957 15.2797 21.9822 15.2275C21.8696 15.1753 21.766 15.1043 21.677 15.0186C21.5832 14.9288 21.5089 14.8186 21.4608 14.6971C21.402 14.5469 21.3751 14.3853 21.3792 14.2229C21.3792 14.072 21.4102 13.9251 21.469 13.7831C21.5285 13.6386 21.6191 13.5089 21.7325 13.402C21.8468 13.2918 21.9888 13.2037 22.1569 13.1368C22.3397 13.0666 22.5347 13.0323 22.7306 13.0364C22.9746 13.0364 23.199 13.0747 23.4046 13.1515C23.6103 13.2273 23.7857 13.3334 23.9293 13.4705L23.7417 13.8337ZM20.6766 13.8337C20.6611 13.8696 20.6358 13.9006 20.6031 13.9218C20.5737 13.9406 20.5395 13.9487 20.5052 13.9471C20.4595 13.9447 20.4146 13.93 20.3771 13.9039C20.3208 13.8704 20.2645 13.8378 20.2082 13.8059C20.1347 13.7668 20.058 13.7341 19.9797 13.7072C19.8809 13.6762 19.7773 13.6607 19.6736 13.6623C19.5676 13.6623 19.4745 13.6745 19.3954 13.7007C19.3227 13.7235 19.255 13.7602 19.1962 13.8076C19.1424 13.8516 19.1 13.9087 19.0738 13.9724C19.0469 14.0393 19.033 14.1103 19.033 14.1813C19.0298 14.2703 19.0592 14.3559 19.1146 14.4245C19.1742 14.4947 19.2485 14.5518 19.3317 14.5902C19.4207 14.6359 19.5227 14.6775 19.6369 14.7134C19.7512 14.7493 19.8679 14.7885 19.9862 14.8284C20.1061 14.8709 20.222 14.9174 20.3363 14.9721C20.4505 15.0259 20.5533 15.0945 20.6423 15.1769C20.7312 15.2601 20.8031 15.3621 20.8577 15.4821C20.9124 15.6021 20.9393 15.7465 20.9393 15.9179C20.9393 16.1064 20.9067 16.2802 20.8439 16.4426C20.781 16.6025 20.6855 16.7478 20.5631 16.8678C20.4342 16.9934 20.2816 17.0897 20.1143 17.1542C19.9193 17.2268 19.7128 17.2619 19.5047 17.2578C19.1204 17.2562 18.745 17.1452 18.421 16.9379C18.3223 16.8743 18.2309 16.8 18.1484 16.7152L18.372 16.3479C18.3924 16.321 18.4186 16.2973 18.4479 16.2802C18.4773 16.2614 18.5108 16.2533 18.5459 16.2533C18.5932 16.2533 18.6438 16.272 18.7001 16.3112C18.7556 16.3504 18.8209 16.3936 18.8951 16.4418C18.971 16.4891 19.06 16.5315 19.162 16.5707C19.2632 16.6099 19.3856 16.6295 19.5284 16.6295C19.7471 16.6295 19.9168 16.5781 20.0368 16.4752C20.1567 16.37 20.2163 16.2214 20.2163 16.0272C20.2204 15.9317 20.1918 15.8379 20.1347 15.7612C20.076 15.6886 20.0025 15.6298 19.9193 15.5882C19.8213 15.5392 19.7193 15.4992 19.6141 15.4707C19.4998 15.438 19.3831 15.4029 19.2656 15.3646C19.1465 15.3262 19.0306 15.2797 18.9172 15.2275C18.8045 15.1753 18.7009 15.1043 18.612 15.0186C18.5181 14.9288 18.4438 14.8186 18.3957 14.6971C18.3378 14.5469 18.3092 14.3853 18.3141 14.2229C18.3141 14.072 18.3451 13.9251 18.4039 13.7831C18.4634 13.6386 18.5532 13.5089 18.6674 13.402C18.7817 13.2918 18.9237 13.2037 19.0918 13.1368C19.2746 13.0666 19.4696 13.0323 19.6655 13.0364C19.9095 13.0364 20.1339 13.0747 20.3395 13.1515C20.5452 13.2273 20.7206 13.3334 20.8643 13.4705L20.6766 13.8337ZM53.2508 17.2116V14.282H53.6816C53.7739 14.282 53.8334 14.3261 53.8612 14.4101L53.9101 14.6427C53.9697 14.5807 54.0317 14.526 54.0978 14.4762C54.1631 14.4273 54.2325 14.384 54.3059 14.3473C54.381 14.3106 54.4602 14.2828 54.5418 14.2657C54.6258 14.2453 54.7172 14.2363 54.8159 14.2363C54.9759 14.2363 55.1179 14.2649 55.2403 14.3179C55.3652 14.3726 55.4688 14.4477 55.5504 14.5456C55.6344 14.6443 55.6973 14.761 55.7405 14.8965C55.783 15.0336 55.8042 15.1846 55.8042 15.3486V17.2125H55.0991V15.3486C55.0991 15.1682 55.0575 15.0295 54.9743 14.9316C54.8918 14.8345 54.767 14.7847 54.6013 14.7847C54.4822 14.7839 54.3647 14.8133 54.2586 14.8688C54.1468 14.9267 54.0448 15.0034 53.9558 15.0932V17.2125H53.2508V17.2116ZM51.2547 14.2363C51.4742 14.2363 51.6725 14.2722 51.8496 14.3424C52.0283 14.4134 52.1801 14.513 52.3058 14.6427C52.4306 14.7725 52.5286 14.9291 52.5971 15.116C52.6657 15.3029 52.6999 15.511 52.6999 15.7419C52.6999 15.9745 52.6657 16.1842 52.5971 16.3711C52.5343 16.5482 52.4347 16.7106 52.3058 16.8477C52.1801 16.9783 52.0283 17.0803 51.8488 17.1496C51.6725 17.2214 51.4734 17.2557 51.2547 17.2557C51.0344 17.2557 50.8361 17.2214 50.6582 17.1496C50.4852 17.0835 50.3285 16.9807 50.1995 16.8477C50.0698 16.7106 49.9694 16.5482 49.905 16.3711C49.8331 16.1695 49.798 15.9566 49.8013 15.7419C49.8013 15.511 49.8356 15.3029 49.905 15.1168C49.9686 14.9398 50.069 14.7782 50.1987 14.6427C50.3285 14.5105 50.4852 14.4085 50.6582 14.3424C50.8361 14.2722 51.0352 14.2363 51.2539 14.2363H51.2547ZM51.2547 16.7138C51.4987 16.7138 51.679 16.6306 51.7957 16.4682C51.9132 16.3042 51.9712 16.0643 51.9712 15.7468C51.9712 15.4318 51.9132 15.1911 51.7957 15.0254C51.679 14.8598 51.4987 14.7774 51.2547 14.7774C51.0066 14.7774 50.8246 14.8598 50.7063 15.0263C50.5888 15.1935 50.5292 15.4335 50.5292 15.7468C50.5292 16.0626 50.5888 16.3017 50.7063 16.465C50.8246 16.6298 51.0066 16.7138 51.2547 16.7138ZM49.3117 13.4284C49.3117 13.488 49.2994 13.5468 49.275 13.5998C49.2268 13.7067 49.1395 13.7916 49.0318 13.8356C48.8645 13.9083 48.6686 13.8699 48.5405 13.7393C48.4581 13.6569 48.4108 13.5459 48.4091 13.4284C48.405 13.182 48.6017 12.9788 48.849 12.9747C48.9722 12.9723 49.0905 13.0204 49.1762 13.1093C49.2619 13.1934 49.31 13.3085 49.3117 13.4284ZM48.5005 17.2116H49.2064V14.282H48.5005V17.2116Z" fill="#808080"/>
</svg>
