<svg width="40" height="40" viewBox="0 0 40 40" fill="none" xmlns="http://www.w3.org/2000/svg">
<path d="M0 10C0 4.47715 4.47715 0 10 0H30C35.5228 0 40 4.47715 40 10V30C40 35.5228 35.5228 40 30 40H10C4.47715 40 0 35.5228 0 30V10Z" fill="#0084B1"/>
<path d="M9.41359 6.0752C11.2456 6.07669 12.7566 7.58986 12.7527 9.43103C12.7483 11.3589 11.1484 12.812 9.39103 12.7701C7.60858 12.8062 6.04213 11.3174 6.04248 9.41831C6.04248 7.57643 7.55934 6.07379 9.41359 6.0752Z" fill="white"/>
<path d="M11.3598 33.921H7.43459C6.92517 33.921 6.51221 33.508 6.51221 32.9986V16.2534C6.51221 15.744 6.92517 15.3311 7.43459 15.3311H11.3598C11.8692 15.3311 12.2822 15.744 12.2822 16.2534V32.9987C12.2821 33.508 11.8692 33.921 11.3598 33.921Z" fill="white"/>
<path d="M33.9569 21.2128C33.9569 17.7023 31.1111 14.8564 27.6005 14.8564H26.5938C24.6732 14.8564 22.9764 15.8147 21.9558 17.2795C21.8445 17.4391 21.7414 17.6049 21.6468 17.7761C21.6141 17.7711 21.5947 17.7686 21.5942 17.7695V15.7141C21.5942 15.5026 21.4228 15.3311 21.2113 15.3311H16.3141C16.1027 15.3311 15.9312 15.5025 15.9312 15.7141V33.5383C15.9312 33.7498 16.1025 33.9212 16.3139 33.9213L21.3178 33.9225C21.5294 33.9226 21.7009 33.7511 21.7009 33.5396V23.242C21.7009 21.462 23.1206 19.984 24.9005 19.9639C25.8091 19.9537 26.6328 20.3177 27.2265 20.9118C27.8124 21.4973 28.1746 22.3069 28.1746 23.2008V33.5409C28.1746 33.7523 28.346 33.9238 28.5574 33.9238L33.5737 33.9251C33.7852 33.9252 33.9567 33.7537 33.9567 33.5421V21.2128H33.9569Z" fill="white"/>
</svg>
