<svg width="144" height="144" viewBox="0 0 144 144" fill="none" xmlns="http://www.w3.org/2000/svg">
<path d="M71.6028 142.973C70.9859 142.973 19.3743 142.767 14.0281 120.582V105.997H128.972V120.582C123.831 142.767 72.014 142.973 71.6028 142.973Z" fill="#ECECEC"/>
<path d="M127.944 107.024V120.377C125.271 131.264 110.466 136.399 98.3339 139.07C84.7627 141.946 71.6028 141.946 71.3972 141.946C71.1916 141.946 58.0316 141.946 44.4605 139.07C32.5343 136.605 17.7293 131.264 15.0562 120.582V107.23H71.6028H127.944V107.024ZM130 104.97H71.6028H13V120.582C18.3462 143.795 71.6028 143.795 71.6028 143.795C71.6028 143.795 124.859 143.795 130.206 120.582V104.97H130Z" fill="black"/>
<path d="M71.6028 130.031C54.3304 130.031 38.2917 126.745 27.188 120.787C18.7574 116.268 14.0281 110.722 14.0281 104.97C14.0281 91.2069 39.7311 80.1141 71.6028 80.1141C103.474 80.1141 129.177 91.4123 129.177 105.175C128.972 118.733 103.269 130.031 71.6028 130.031Z" fill="#ECECEC"/>
<path d="M71.6028 81.1412C102.241 81.1412 128.149 92.0285 128.149 105.175C128.149 118.322 102.035 129.004 71.6028 129.004C54.536 129.004 38.4974 125.718 27.5993 119.966C19.58 115.652 15.0562 110.311 15.0562 104.97C15.0562 92.0285 40.9648 81.1412 71.6028 81.1412ZM71.6028 79.087C39.1142 79.087 13 90.5906 13 104.97C13 111.338 18.1406 117.09 26.5712 121.609C37.2636 127.361 53.5079 130.853 71.3972 130.853C103.68 130.853 130 119.144 130 104.765C130 90.3852 103.886 79.087 71.6028 79.087Z" fill="black"/>
<path d="M123.214 104.354H121.158C121.158 94.699 98.334 86.6876 71.6029 86.6876C44.8718 86.6876 21.8419 94.699 21.8419 104.354H19.7856C19.7856 93.261 42.4043 84.6334 71.3972 84.6334C100.39 84.6334 123.214 93.261 123.214 104.354Z" fill="#262626"/>
<path d="M39.5255 84.6334C36.4412 84.6334 33.7681 82.1683 33.7681 78.8816V44.9871C33.7681 41.9058 36.2356 39.2354 39.5255 39.2354H99.9789C103.063 39.2354 105.736 41.7004 105.736 44.9871V78.8816C105.736 81.9629 103.269 84.6334 99.9789 84.6334H39.5255Z" fill="white"/>
<path d="M99.979 40.4679C102.652 40.4679 104.708 42.5221 104.708 45.1926V79.087C104.708 81.7575 102.652 83.8117 99.979 83.8117H39.5256C36.8525 83.8117 34.7962 81.7575 34.7962 79.087V44.9872C34.7962 42.3167 36.8525 40.2625 39.5256 40.2625H99.979V40.4679ZM99.979 38.4137H39.5256C35.8243 38.4137 32.74 41.495 32.74 45.1926V79.087C32.74 82.7846 35.8243 85.8659 39.5256 85.8659H99.979C103.68 85.8659 106.765 82.7846 106.765 79.087V44.9872C106.559 41.2896 103.68 38.4137 99.979 38.4137Z" fill="#262626"/>
<path d="M39.5255 88.7417C36.4412 88.7417 33.7681 86.2767 33.7681 82.99V49.0955C33.7681 46.0142 36.2356 43.3438 39.5255 43.3438H99.9789C103.063 43.3438 105.736 45.8088 105.736 49.0955V82.99C105.736 86.0713 103.269 88.7417 99.9789 88.7417H39.5255Z" fill="white"/>
<path d="M99.979 44.5763C102.652 44.5763 104.708 46.6305 104.708 49.301V83.1954C104.708 85.8659 102.652 87.9201 99.979 87.9201H39.5256C36.8525 87.9201 34.7962 85.8659 34.7962 83.1954V49.0956C34.7962 46.4251 36.8525 44.3709 39.5256 44.3709H99.979V44.5763ZM99.979 42.5221H39.5256C35.8243 42.5221 32.74 45.6034 32.74 49.301V83.1954C32.74 86.893 35.8243 89.9743 39.5256 89.9743H99.979C103.68 89.9743 106.765 86.893 106.765 83.1954V49.0956C106.559 45.398 103.68 42.5221 99.979 42.5221Z" fill="#262626"/>
<path d="M56.5925 76.0057V78.8816H54.3307V76.4166C53.5082 76.4166 52.6857 76.2112 52.2744 76.2112C52.0688 76.2112 51.8632 76.0057 51.4519 76.0057C51.0407 76.0057 50.8351 75.8003 50.4238 75.5949V69.8431C51.2463 71.2811 52.4801 71.8973 53.7138 71.8973C54.7419 71.8973 55.1532 71.4865 55.1532 70.6648C55.1532 70.254 54.7419 69.6377 54.1251 69.0214L53.0969 68.1997C52.0688 67.3781 51.4519 66.5564 51.0407 65.9401C50.6295 65.1184 50.4238 64.2967 50.4238 63.2696C50.4238 60.3938 51.8632 58.545 54.5363 57.3124V54.642H56.7982V57.5179C57.8263 57.7233 58.8544 57.9287 59.6769 58.545V64.0913C58.6488 62.8588 57.6207 62.0371 56.5925 62.0371C56.1813 62.0371 55.9757 62.0371 55.77 62.2425C55.5644 62.448 55.3588 62.6534 55.3588 63.0642C55.3588 63.4751 55.77 63.8859 56.5925 64.5022L57.6207 65.3239C58.0319 65.7347 58.4432 65.9401 58.8544 66.351C59.2657 66.7618 59.4713 67.1726 59.6769 67.5835C59.8825 67.9943 60.0881 68.4052 60.0881 68.816C60.0881 69.2268 60.2938 69.8431 60.2938 70.254C60.2938 72.9244 59.06 74.9786 56.5925 76.0057Z" fill="#3DDB93"/>
<path d="M73.6595 76.2111H68.5189V62.0371H66.4626V57.7233H73.4539V76.2111H73.6595Z" fill="#3DDB93"/>
<path d="M90.5205 67.1726C90.5205 70.0485 89.9037 72.3082 88.8755 74.1569C87.6418 75.8003 86.2024 76.622 84.1462 76.622C82.0899 76.622 80.445 75.8003 79.2112 73.9515C77.9775 72.3082 77.3606 69.8431 77.3606 66.7618C77.3606 63.8859 77.9775 61.6263 79.2112 59.7775C80.445 58.1341 82.0899 57.3124 84.1462 57.3124C86.2024 57.3124 87.8474 58.1341 88.8755 59.9829C89.9037 61.8317 90.5205 64.0913 90.5205 67.1726ZM85.5856 67.1726C85.5856 63.6805 84.9687 61.8317 83.9406 61.8317C82.9124 61.8317 82.2956 63.4751 82.2956 66.5564C82.2956 70.4594 82.9124 72.3082 83.9406 72.3082C84.5574 72.3082 84.9687 71.8973 85.1743 71.0756C85.3799 70.2539 85.5856 68.816 85.5856 67.1726Z" fill="#3DDB93"/>
<g opacity="0.2">
<path opacity="0.5" d="M71.5 107C92.763 107 110 104.985 110 102.5C110 100.015 92.763 98 71.5 98C50.237 98 33 100.015 33 102.5C33 104.985 50.237 107 71.5 107Z" fill="#191919"/>
</g>
<g opacity="0.2">
<path opacity="0.2" d="M71.6026 1.0271C43.4322 1.0271 20.6079 23.8288 20.6079 51.9715V102.3C20.6079 103.943 21.2248 105.586 22.4585 106.819C27.3935 111.338 41.9928 121.815 71.6026 121.815C101.212 121.815 115.812 111.133 120.747 106.819C121.98 105.586 122.597 103.943 122.597 102.3V51.9715C122.597 23.8288 99.7731 1.0271 71.6026 1.0271Z" fill="#ECECEC"/>
</g>
<path d="M71.6027 123.047C41.7872 123.047 26.7767 112.365 21.8417 107.641C20.4023 106.408 19.5798 104.354 19.5798 102.3V51.9715C19.5798 23.418 42.8153 0 71.6027 0C100.39 0 123.626 23.418 123.626 51.9715V102.3C123.626 104.354 122.803 106.203 121.364 107.641C116.223 112.16 101.418 123.047 71.6027 123.047ZM71.6027 2.05421C44.0491 2.05421 21.6361 24.4451 21.6361 51.9715V102.3C21.6361 103.738 22.2529 105.175 23.2811 105.997C28.0104 110.516 42.4041 120.787 71.6027 120.787C100.801 120.787 115.195 110.516 119.924 105.997C120.952 104.97 121.569 103.738 121.569 102.3V51.9715C121.569 24.4451 99.1563 2.05421 71.6027 2.05421Z" fill="black"/>
<g opacity="0.6">
<path opacity="0.6" d="M71.8086 120.787C71.8086 120.787 89.9035 119.555 96.4835 117.706L116.223 29.3752C112.728 22.5963 107.587 16.4337 101.213 11.9144L71.8086 120.787Z" fill="white"/>
</g>
</svg>
