<svg width="48" height="48" viewBox="0 0 48 48" fill="none" xmlns="http://www.w3.org/2000/svg">
<path d="M15.4998 21.1667C13.9415 21.1667 12.6665 22.4417 12.6665 24C12.6665 25.5584 13.9415 26.8334 15.4998 26.8334C17.0582 26.8334 18.3332 25.5584 18.3332 24C18.3332 22.4417 17.0582 21.1667 15.4998 21.1667ZM32.4998 21.1667C30.9415 21.1667 29.6665 22.4417 29.6665 24C29.6665 25.5584 30.9415 26.8334 32.4998 26.8334C34.0582 26.8334 35.3332 25.5584 35.3332 24C35.3332 22.4417 34.0582 21.1667 32.4998 21.1667ZM23.9998 21.1667C22.4415 21.1667 21.1665 22.4417 21.1665 24C21.1665 25.5584 22.4415 26.8334 23.9998 26.8334C25.5582 26.8334 26.8332 25.5584 26.8332 24C26.8332 22.4417 25.5582 21.1667 23.9998 21.1667Z" fill="#797979"/>
<rect x="0.5" y="0.5" width="47" height="47" rx="23.5" stroke="#E8E8E8"/>
</svg>
