<svg width="40" height="40" viewBox="0 0 40 40" fill="none" xmlns="http://www.w3.org/2000/svg">
<path d="M0 10C0 4.47715 4.47715 0 10 0H30C35.5228 0 40 4.47715 40 10V30C40 35.5228 35.5228 40 30 40H10C4.47715 40 0 35.5228 0 30V10Z" fill="#50ABF1"/>
<path d="M5.29952 29.6511C7.96162 31.3394 11.1194 32.3165 14.5045 32.3165C24.0144 32.3165 31.7234 24.6066 31.7234 15.0976C31.7234 14.8601 31.7184 14.6245 31.7093 14.3895C32.0533 14.1188 34.1807 12.4137 34.7021 11.3175C34.7021 11.3175 32.9745 12.0355 31.2837 12.2046C31.2804 12.2046 31.2762 12.2054 31.2729 12.2054C31.2729 12.2054 31.2762 12.2038 31.282 12.1996C31.4378 12.0955 33.616 10.6128 33.9109 8.84616C33.9109 8.84616 32.6889 9.49839 30.978 10.069C30.6948 10.1631 30.3983 10.2556 30.0926 10.3413C28.9897 9.16433 27.4221 8.42969 25.6821 8.42969C22.3444 8.42969 19.6398 11.1335 19.6398 14.4686C19.6398 14.9392 19.694 15.3973 19.7964 15.8371C19.33 15.818 12.2273 15.4198 7.39532 9.56825C7.39532 9.56825 4.50747 13.5107 9.11624 17.5646C9.11624 17.5646 7.71524 17.5088 6.50655 16.7866C6.50655 16.7866 6.0626 21.5628 11.2819 22.7839C11.2819 22.7839 10.2549 23.1729 8.61648 22.8956C8.61648 22.8956 9.53272 26.7547 14.1698 27.1154C14.1698 27.1154 10.503 30.4278 5.29785 29.6506L5.29952 29.6511Z" fill="white"/>
</svg>
