<svg width="40" height="40" viewBox="0 0 40 40" fill="none" xmlns="http://www.w3.org/2000/svg">
<path fill-rule="evenodd" clip-rule="evenodd" d="M32.5 0H7.5C3.3574 0 0 3.3576 0 7.5V32.5002C0 36.6426 3.3574 40 7.5 40H19.3594V23.623H15.2652V17.9796L19.3594 17.9764L19.3526 14.6532C19.3526 10.047 20.6014 7.2458 26.023 7.2458H30.5404V12.8926H27.7152C25.6034 12.8926 25.5008 13.6806 25.5008 15.1512L25.494 17.9764H30.571L29.974 23.6196L25.5008 23.6228L25.4976 40H32.5C36.6424 40 40 36.6426 40 32.5002V7.5C40 3.3576 36.6424 0 32.5 0Z" fill="#3B5998"/>
</svg>
