<svg width="26" height="28" viewBox="0 0 26 28" fill="none" xmlns="http://www.w3.org/2000/svg">
<path d="M1.1001 15.596C1.7651 18.7215 3.0286 21.2485 4.8241 23.044C6.6196 24.8395 9.2796 26.3025 12.8041 27.3C12.8041 27.3 12.8041 27.3 12.8706 27.3C16.1291 26.502 18.7891 25.1055 20.8506 23.044C22.9121 20.9825 24.1756 18.522 24.5746 15.596V5.55451C24.5746 5.48801 24.5746 5.48801 24.5081 5.48801C22.8456 5.08901 21.1166 4.55701 19.4541 3.89201C17.6586 3.16051 15.5306 2.09651 12.9371 0.700012H12.8706C10.6761 1.96351 8.5481 3.02751 6.3536 3.89201C4.2256 4.75651 2.5631 5.28851 1.1666 5.48801C1.1001 5.48801 1.1001 5.55451 1.1001 5.62101V15.596Z" fill="white" stroke="#494949" stroke-width="2" stroke-miterlimit="10"/>
<path d="M8.41504 14.3325L11.2745 17.2585L17.2595 11.207" stroke="#1BD27F" stroke-width="3" stroke-linecap="round" stroke-linejoin="round"/>
</svg>
