<svg width="160" height="160" viewBox="0 0 160 160" fill="none" xmlns="http://www.w3.org/2000/svg">
<path d="M110 2.5H50C46.6859 2.50372 43.5087 3.82188 41.1653 6.16528C38.8219 8.50867 37.5037 11.6859 37.5 15V145C37.5037 148.314 38.8219 151.491 41.1653 153.835C43.5087 156.178 46.6859 157.496 50 157.5H110C113.314 157.496 116.491 156.178 118.835 153.835C121.178 151.491 122.496 148.314 122.5 145V15C122.496 11.6859 121.178 8.50867 118.835 6.16528C116.491 3.82188 113.314 2.50372 110 2.5ZM95.9506 7.5L95.4506 15H64.5497L64.0497 7.5H95.9506ZM117.5 145C117.498 146.988 116.707 148.895 115.301 150.301C113.895 151.707 111.988 152.498 110 152.5H50C48.0116 152.498 46.1052 151.707 44.6992 150.301C43.2931 148.895 42.5022 146.988 42.5 145V15C42.5022 13.0116 43.2931 11.1052 44.6992 9.69917C46.1052 8.29313 48.0116 7.50223 50 7.5H58.9503L60.0484 16.9903C60.1618 17.557 60.468 18.067 60.915 18.4334C61.3619 18.7998 61.922 19 62.5 19H97.5C98.078 19 98.6381 18.7998 99.085 18.4334C99.532 18.067 99.8382 17.557 99.9516 16.9903L101.05 7.5H110C111.988 7.50223 113.895 8.29313 115.301 9.69917C116.707 11.1052 117.498 13.0116 117.5 15V145Z" fill="#202020"/>
<path fill-rule="evenodd" clip-rule="evenodd" d="M79.9999 53.8999C65.5851 53.8999 53.8999 65.5851 53.8999 79.9999C53.8999 94.4144 65.5851 106.1 79.9999 106.1C94.4147 106.1 106.1 94.4144 106.1 79.9999C106.1 65.5851 94.4147 53.8999 79.9999 53.8999Z" fill="#1BD27F"/>
<path fill-rule="evenodd" clip-rule="evenodd" d="M94.1487 72.6464L91.8744 70.228C91.4034 69.7271 90.6368 69.7237 90.162 70.2205L75.8973 85.1481L69.8634 78.731C69.3924 78.2299 68.6256 78.2267 68.1508 78.7235L65.8581 81.1229C65.3833 81.6197 65.3803 82.4284 65.8513 82.9295L75.0125 92.672C75.4834 93.1731 76.2503 93.1766 76.725 92.6795L94.1419 74.4533C94.6167 73.9565 94.6197 73.1475 94.1487 72.6464Z" fill="white"/>
</svg>
