<svg width="56" height="56" viewBox="0 0 56 56" fill="none" xmlns="http://www.w3.org/2000/svg">
<rect x="0.5" y="0.5" width="55" height="55" rx="27.5" fill="white"/>
<path fill-rule="evenodd" clip-rule="evenodd" d="M8.73292 29.7026C9.14806 30.0571 9.77116 30.2339 10.6022 30.2339C11.4086 30.2339 12.0317 30.063 12.4715 29.721C12.9113 29.3544 13.1312 28.8412 13.1312 28.1814C13.1312 27.8763 13.0715 27.5948 12.9297 27.3385C12.7998 27.1039 12.5795 26.8825 12.3127 26.7491C12.1438 26.6646 12.0407 26.6277 11.8326 26.5639C11.608 26.495 10.4902 26.1899 10.3772 26.1602C9.75432 26.0084 9.35883 25.8009 9.35602 25.4325C9.38825 24.7198 10.0525 24.6629 10.419 24.6629C10.7975 24.6629 11.0971 24.7424 11.3169 24.9011C11.7115 25.2083 11.6675 25.5983 11.6675 25.5983H12.9113C12.8867 24.9874 12.6668 24.4919 12.2516 24.1131C11.8485 23.7711 11.274 23.6 10.5289 23.6C9.73468 23.6 9.12985 23.7649 8.71458 24.0947C8.29918 24.4369 8.09162 24.9074 8.09162 25.5059C8.09357 26.275 8.45808 26.7283 8.78793 26.9353C8.98865 27.0554 9.44437 27.2395 10.0341 27.3568L10.5297 27.4647C11.3888 27.674 11.8822 27.9394 11.8667 28.3647C11.8574 28.6212 11.7691 28.8172 11.5735 28.9512C11.3945 29.0736 11.0907 29.1527 10.7122 29.1527C10.2844 29.1527 9.94852 29.0674 9.70421 28.8962C9.47197 28.7496 9.33142 28.493 9.28281 28.1265H8C8.03654 28.8229 8.28085 29.3483 8.73292 29.7026Z" fill="#202020"/>
<path fill-rule="evenodd" clip-rule="evenodd" d="M16.7453 27.7177C16.7453 27.2388 16.6576 26.2258 15.6772 26.2258C14.7464 26.2258 14.6458 27.2143 14.6458 27.7177C14.6458 28.9924 15.3702 29.1543 15.7141 29.1543C16.6042 29.1543 16.7453 28.21 16.7453 27.7177ZM14.6458 31.3276C14.6458 31.6555 14.3908 31.9539 14.0195 31.9539H13.3933V27.3677C13.4663 26.1477 13.9098 25.1752 15.7632 25.1088C16.5647 25.1189 17.1463 25.4379 17.4902 25.8396C17.8586 26.3185 18.0163 26.9137 18.0163 27.6624C18.0163 28.4359 17.8321 29.0622 17.4637 29.5411C17.0954 30.0078 16.6227 30.2408 16.0455 30.2408C15.1799 30.2408 14.7592 29.8806 14.6452 29.8131C14.6452 29.8549 14.6458 31.3276 14.6458 31.3276Z" fill="#202020"/>
<path fill-rule="evenodd" clip-rule="evenodd" d="M20.5989 29.1406C20.2815 29.1246 19.677 29.0624 19.6215 28.0044L22.7972 28.005C22.7977 27.9727 22.7972 27.6244 22.798 27.6238C22.776 26.8268 22.5849 26.2327 22.2115 25.7868C21.8083 25.347 21.2402 25.1271 20.5071 25.1271C19.8109 25.1271 19.2672 25.3533 18.8763 25.8051C18.4974 26.245 18.3081 26.856 18.3081 27.6377C18.3081 28.4564 18.5034 29.0856 18.8945 29.5253C19.2855 29.9774 19.8293 30.2034 20.5255 30.2034C21.0998 30.2034 21.5761 30.063 21.955 29.7818C22.3335 29.5134 22.5921 29.1209 22.7266 28.6077L21.6229 28.608C21.4603 29.0682 21.0455 29.163 20.5989 29.1406ZM20.5439 26.19C21.3315 26.1794 21.4538 26.8497 21.4784 27.1796H19.6093C19.6093 27.1796 19.5936 26.2076 20.5439 26.19Z" fill="#202020"/>
<path fill-rule="evenodd" clip-rule="evenodd" d="M26.2993 28.6094H27.5039C27.5039 28.6094 27.1769 30.2034 25.3573 30.2034C23.5377 30.2034 23.0896 28.7431 23.0896 27.7837C23.0896 26.8242 23.26 25.1851 25.2864 25.1276C27.1587 25.0997 27.4672 26.722 27.4672 26.722H26.1847C26.1847 26.722 26.0602 26.1735 25.2968 26.1907C24.5333 26.2079 24.3338 26.9251 24.3338 27.6064C24.3338 28.288 24.5032 29.1406 25.3509 29.1406C26.1571 29.1652 26.2281 28.7294 26.2993 28.6094Z" fill="#202020"/>
<path fill-rule="evenodd" clip-rule="evenodd" d="M29.0584 26.5399L29.8118 26.54L29.8112 25.2554H29.0599V24.4307C29.0599 24.2044 28.9341 23.8076 28.4552 23.8076H27.7954V29.1956C27.7954 29.7576 28.0134 30.0934 28.4853 30.0934C28.4907 30.0934 29.0387 30.094 29.0587 30.094L29.0584 26.5399Z" fill="#202020"/>
<path fill-rule="evenodd" clip-rule="evenodd" d="M31.1541 30.1029V27.5922C31.1541 27.2258 31.2394 26.9572 31.4107 26.7859C31.5817 26.615 31.8442 26.5294 32.1986 26.5294H32.6202V25.2282C32.6202 25.2282 31.9564 25.212 31.4749 25.3566C31.1654 25.4494 30.8912 25.5764 30.6593 25.7596C30.4146 25.9552 30.2223 26.215 30.082 26.5386C29.9414 26.8623 29.8713 27.2623 29.8713 27.7389V30.1029H31.1541Z" fill="#202020"/>
<path fill-rule="evenodd" clip-rule="evenodd" d="M32.9832 25.236H34.266V28.3515C34.266 28.3515 34.2196 29.194 35.1091 29.1945C35.9479 29.1949 35.9693 28.4407 35.9698 28.3873V25.8405C35.9698 25.8405 36.0132 25.236 36.5695 25.236H37.2349C37.2349 25.236 37.2342 28.1019 37.2347 28.1295C37.2259 28.2872 37.4028 30.2034 35.1091 30.1958C32.8366 30.1958 32.9978 28.257 32.9832 28.1428V25.236Z" fill="#202020"/>
<path fill-rule="evenodd" clip-rule="evenodd" d="M41.8668 30.1186H40.5961V26.9876C40.5961 26.6266 40.4476 26.1403 39.7303 26.1403C39.0267 26.1403 38.8833 26.6928 38.8833 26.9876V30.1186H37.594V27.2454C37.594 26.4106 37.8414 25.9006 38.2479 25.5694C38.6502 25.2414 39.1655 25.1337 39.6935 25.109C39.9759 25.109 40.2523 25.1398 40.5223 25.201C40.7923 25.2626 41.038 25.3852 41.2591 25.5694C41.4435 25.41 41.6611 25.2963 41.9131 25.2287C42.1646 25.1613 42.4252 25.1103 42.6957 25.109C44.2683 25.1006 44.8995 25.8206 44.9516 26.0517C44.9516 26.0551 44.9522 30.1186 44.9522 30.1186H44.2245C44.0403 30.1186 43.5982 29.9934 43.5982 29.4925V26.9876C43.6016 26.6325 43.4772 26.1403 42.7326 26.1403C41.9956 26.1403 41.8668 26.6928 41.8668 26.9876V30.1186Z" fill="#202020"/>
<path fill-rule="evenodd" clip-rule="evenodd" d="M45.3093 26.0494V30.1126L47.9861 28.0815L45.3093 26.0494Z" fill="#202020"/>
<rect x="0.5" y="0.5" width="55" height="55" rx="27.5" stroke="#E8E8E8"/>
</svg>
