<svg width="741" height="135" viewBox="0 0 741 135" fill="none" xmlns="http://www.w3.org/2000/svg">
<path d="M63.8399 7.26793C65.3071 4.29495 69.5465 4.29496 71.0138 7.26794L86.3124 38.2663C86.895 39.4469 88.0213 40.2652 89.3241 40.4545L123.533 45.4253C126.814 45.9021 128.124 49.934 125.75 52.2481L100.996 76.377C100.053 77.2959 99.6231 78.6199 99.8457 79.9175L105.689 113.988C106.25 117.256 102.82 119.747 99.8854 118.205L69.2882 102.119C68.1229 101.506 66.7308 101.506 65.5655 102.119L34.9682 118.205C32.0337 119.748 28.604 117.256 29.1644 113.988L35.008 79.9175C35.2305 78.6199 34.8003 77.2959 33.8576 76.377L9.10389 52.2481C6.72983 49.9339 8.03987 45.9021 11.3208 45.4253L45.5295 40.4545C46.8324 40.2652 47.9586 39.4469 48.5413 38.2663L63.8399 7.26793Z" fill="#1BD27F"/>
<path d="M215.376 7.26793C216.844 4.29495 221.083 4.29496 222.55 7.26794L237.849 38.2663C238.432 39.4469 239.558 40.2652 240.861 40.4545L275.069 45.4253C278.35 45.9021 279.66 49.934 277.286 52.2481L252.533 76.377C251.59 77.2959 251.16 78.6199 251.382 79.9175L257.226 113.988C257.786 117.256 254.357 119.747 251.422 118.205L220.825 102.119C219.659 101.506 218.267 101.506 217.102 102.119L186.505 118.205C183.57 119.748 180.141 117.256 180.701 113.988L186.545 79.9175C186.767 78.6199 186.337 77.2959 185.394 76.377L160.64 52.2481C158.266 49.9339 159.576 45.9021 162.857 45.4253L197.066 40.4545C198.369 40.2652 199.495 39.4469 200.078 38.2663L215.376 7.26793Z" fill="#1BD27F"/>
<path d="M366.913 7.26793C368.38 4.29495 372.62 4.29496 374.087 7.26794L389.386 38.2663C389.968 39.4469 391.094 40.2652 392.397 40.4545L426.606 45.4253C429.887 45.9021 431.197 49.934 428.823 52.2481L404.069 76.377C403.126 77.2959 402.696 78.6199 402.919 79.9175L408.762 113.988C409.323 117.256 405.893 119.747 402.959 118.205L372.361 102.119C371.196 101.506 369.804 101.506 368.639 102.119L338.041 118.205C335.107 119.748 331.677 117.256 332.238 113.988L338.081 79.9175C338.304 78.6199 337.874 77.2959 336.931 76.377L312.177 52.2481C309.803 49.9339 311.113 45.9021 314.394 45.4253L348.603 40.4545C349.906 40.2652 351.032 39.4469 351.614 38.2663L366.913 7.26793Z" fill="#1BD27F"/>
<path d="M518.45 7.26793C519.917 4.29495 524.156 4.29496 525.624 7.26794L540.922 38.2663C541.505 39.4469 542.631 40.2652 543.934 40.4545L578.143 45.4253C581.424 45.9021 582.734 49.934 580.359 52.2481L555.606 76.377C554.663 77.2959 554.233 78.6199 554.455 79.9175L560.299 113.988C560.859 117.256 557.43 119.747 554.495 118.205L523.898 102.119C522.733 101.506 521.34 101.506 520.175 102.119L489.578 118.205C486.643 119.748 483.214 117.256 483.774 113.988L489.618 79.9175C489.84 78.6199 489.41 77.2959 488.467 76.377L463.714 52.2481C461.34 49.9339 462.65 45.9021 465.93 45.4253L500.139 40.4545C501.442 40.2652 502.568 39.4469 503.151 38.2663L518.45 7.26793Z" fill="#1BD27F"/>
<path d="M669.986 7.26793C671.453 4.29495 675.693 4.29496 677.16 7.26794L692.459 38.2663C693.041 39.4469 694.168 40.2652 695.47 40.4545L729.679 45.4253C732.96 45.9021 734.27 49.934 731.896 52.2481L707.142 76.377C706.2 77.2959 705.769 78.6199 705.992 79.9175L711.836 113.988C712.396 117.256 708.966 119.747 706.032 118.205L675.434 102.119C674.269 101.506 672.877 101.506 671.712 102.119L641.115 118.205C638.18 119.748 634.75 117.256 635.311 113.988L641.154 79.9175C641.377 78.6199 640.947 77.2959 640.004 76.377L615.25 52.2481C612.876 49.9339 614.186 45.9021 617.467 45.4253L651.676 40.4545C652.979 40.2652 654.105 39.4469 654.688 38.2663L669.986 7.26793Z" fill="#808080"/>
<mask id="mask0" mask-type="alpha" maskUnits="userSpaceOnUse" x="614" y="5" width="120" height="114">
<path d="M669.986 7.26793C671.453 4.29495 675.693 4.29496 677.16 7.26794L692.459 38.2663C693.041 39.4469 694.168 40.2652 695.47 40.4545L729.679 45.4253C732.96 45.9021 734.27 49.934 731.896 52.2481L707.142 76.377C706.2 77.2959 705.769 78.6199 705.992 79.9175L711.836 113.988C712.396 117.256 708.966 119.747 706.032 118.205L675.434 102.119C674.269 101.506 672.877 101.506 671.712 102.119L641.115 118.205C638.18 119.748 634.75 117.256 635.311 113.988L641.154 79.9175C641.377 78.6199 640.947 77.2959 640.004 76.377L615.25 52.2481C612.876 49.9339 614.186 45.9021 617.467 45.4253L651.676 40.4545C652.979 40.2652 654.105 39.4469 654.688 38.2663L669.986 7.26793Z" fill="#262626"/>
</mask>
<g mask="url(#mask0)">
<rect x="603.366" width="112.61" height="126.512" fill="#1BD27F"/>
</g>
</svg>
