<svg width="118" height="23" viewBox="0 0 118 23" fill="none" xmlns="http://www.w3.org/2000/svg">
<g clip-path="url(#clip0)">
<path d="M22.7052 0.240723H0.833984V22.147H22.7052V0.240723Z" fill="#00B67A"/>
<path d="M46.399 0.240723H24.5278V22.147H46.399V0.240723Z" fill="#00B67A"/>
<path d="M70.0929 0.240723H48.2217V22.147H70.0929V0.240723Z" fill="#00B67A"/>
<path d="M93.7865 0.240723H71.9153V22.147H93.7865V0.240723Z" fill="#00B67A"/>
<path d="M117.48 0.240723H95.6091V22.147H117.48V0.240723Z" fill="#00B67A"/>
<path d="M11.7697 15.0047L15.0959 14.1604L16.4856 18.4504L11.7697 15.0047ZM19.4246 9.4597H13.5695L11.7697 3.9375L9.96984 9.4597H4.11475L8.8535 12.8826L7.05369 18.4048L11.7924 14.9819L14.7086 12.8826L19.4246 9.4597Z" fill="white"/>
<path d="M35.4635 15.0047L38.7898 14.1604L40.1795 18.4504L35.4635 15.0047ZM43.1184 9.4597H37.2633L35.4635 3.9375L33.6637 9.4597H27.8086L32.5473 12.8826L30.7475 18.4048L35.4863 14.9819L38.4024 12.8826L43.1184 9.4597Z" fill="white"/>
<path d="M59.1571 15.0047L62.4834 14.1604L63.8731 18.4504L59.1571 15.0047ZM66.812 9.4597H60.9569L59.1571 3.9375L57.3573 9.4597H51.5022L56.241 12.8826L54.4411 18.4048L59.1799 14.9819L62.0961 12.8826L66.812 9.4597Z" fill="white"/>
<path d="M82.851 15.0047L86.1772 14.1604L87.5669 18.4504L82.851 15.0047ZM90.5059 9.4597H84.6508L82.851 3.9375L81.0511 9.4597H75.196L79.9348 12.8826L78.135 18.4048L82.8737 14.9819L85.7899 12.8826L90.5059 9.4597Z" fill="white"/>
<path d="M106.545 15.0047L109.871 14.1604L111.261 18.4504L106.545 15.0047ZM114.2 9.4597H108.345L106.545 3.9375L104.745 9.4597H98.8899L103.629 12.8826L101.829 18.4048L106.568 14.9819L109.484 12.8826L114.2 9.4597Z" fill="white"/>
</g>
<defs>
<clipPath id="clip0">
<rect width="116.646" height="21.9063" fill="white" transform="translate(0.833984 0.240723)"/>
</clipPath>
</defs>
</svg>
