<svg width="60" height="60" viewBox="0 0 60 60" fill="none" xmlns="http://www.w3.org/2000/svg">
<rect width="60" height="60" rx="30" fill="#F7F7F7"/>
<path fill-rule="evenodd" clip-rule="evenodd" d="M44.7444 8.43138H15.4237C14.0126 8.43138 12.8682 9.57469 12.867 10.9858L12.8313 49.9368C12.8313 50.469 13.1662 50.9485 13.6644 51.1307C13.805 51.1814 13.9532 51.2077 14.103 51.2077C14.4769 51.2077 14.8292 51.0443 15.0717 50.7587L16.9644 48.5242C17.1041 48.3592 17.3583 48.3592 17.4981 48.524L19.4334 50.8053C19.6739 51.0917 20.0273 51.2553 20.4024 51.2553C20.7768 51.2553 21.1302 51.0917 21.372 50.8061L23.3088 48.5223C23.4486 48.3575 23.7028 48.3575 23.8425 48.5223L25.7794 50.8061C26.0139 51.0824 26.3673 51.2408 26.7493 51.2408C27.1306 51.2408 27.484 51.0824 27.7178 50.8061L29.6555 48.523C29.7955 48.3584 30.0494 48.3584 30.1892 48.5231L32.1244 50.8061C32.3601 51.0824 32.7133 51.2408 33.0946 51.2408C33.4758 51.2408 33.8291 51.0824 34.0629 50.8061L36 48.523C36.1397 48.3584 36.3937 48.3584 36.5335 48.523L38.4465 50.7778C38.6258 50.9894 38.8614 51.1526 39.1304 51.2191C39.6121 51.3376 40.1016 51.1714 40.4098 50.8096L42.3527 48.5216C42.4923 48.3572 42.7463 48.3572 42.8859 48.5216L45.0591 51.0803C45.2971 51.3605 45.6351 51.5507 46.0023 51.5673C46.175 51.5752 46.3443 51.5493 46.5008 51.4908C46.9989 51.3086 47.3335 50.8282 47.3335 50.2978L47.3011 10.9861C47.2999 9.57486 46.1555 8.43138 44.7444 8.43138Z" fill="white"/>
<mask id="mask0" mask-type="alpha" maskUnits="userSpaceOnUse" x="12" y="8" width="36" height="44">
<path fill-rule="evenodd" clip-rule="evenodd" d="M12.4 8H47.7649V52H12.4V8Z" fill="white"/>
</mask>
<g mask="url(#mask0)">
<path fill-rule="evenodd" clip-rule="evenodd" d="M42.6194 47.9668C42.849 47.9668 43.0661 48.0673 43.2148 48.2424L45.3879 50.8011C45.56 51.0037 45.7912 51.1259 46.022 51.1364C46.1373 51.1402 46.2476 51.125 46.3499 51.0867C46.6814 50.9654 46.9022 50.6488 46.9022 50.2978L46.8698 10.9865C46.8687 9.81557 45.9154 8.86276 44.7445 8.86276H15.4238C14.2528 8.86276 13.2995 9.8154 13.2985 10.9861L13.2627 49.9372C13.2627 50.2883 13.4838 50.6053 13.8127 50.7256C14.1355 50.8419 14.5182 50.7444 14.7429 50.4795L16.6354 48.2453C16.7838 48.07 17.001 47.9693 17.231 47.9693H17.2314C17.4614 47.9693 17.6785 48.0697 17.8272 48.245L19.7623 50.5263C19.9218 50.7161 20.1545 50.8239 20.4025 50.8239C20.6499 50.8239 20.8834 50.7159 21.0426 50.5275L22.9798 48.2433C23.1286 48.068 23.3457 47.9674 23.5757 47.9672C23.8057 47.9672 24.0227 48.0678 24.1715 48.2433L26.1085 50.5271C26.2607 50.7064 26.4943 50.8094 26.7494 50.8094C27.0039 50.8094 27.2368 50.7066 27.3885 50.5275L29.3267 48.2436C29.4756 48.0686 29.6925 47.9681 29.9224 47.9681H29.9227C30.1525 47.9682 30.3696 48.0688 30.5183 48.2441L32.4535 50.5273C32.6062 50.7061 32.8402 50.8094 33.0947 50.8094C33.3492 50.8094 33.5821 50.7066 33.7338 50.5275L35.671 48.2438C35.8199 48.0686 36.037 47.9681 36.2668 47.9681C36.4966 47.9681 36.7137 48.0686 36.8625 48.2436L38.7755 50.4988C38.8678 50.6075 39.0219 50.7478 39.2338 50.8003C39.5485 50.8769 39.8734 50.7742 40.0814 50.5299L42.0239 48.2424C42.1726 48.0673 42.3897 47.9668 42.6194 47.9668ZM46.0642 52C46.0371 52 46.01 51.9995 45.9827 51.9981C45.5134 51.9769 45.057 51.7441 44.7304 51.3595L42.6194 48.8741L40.7386 51.0888C40.3172 51.5838 39.6617 51.794 39.0273 51.6378C38.6822 51.5526 38.3678 51.3517 38.1176 51.0567L36.2668 48.8753L34.3921 51.0851C34.0763 51.458 33.6034 51.6722 33.0947 51.6722C32.5872 51.6722 32.1141 51.4585 31.7963 51.0862L29.9224 48.8755L28.0466 51.0853C27.7312 51.458 27.2582 51.6722 26.7494 51.6722C26.2407 51.6722 25.7674 51.4582 25.4508 51.0853L23.5757 48.8746L21.7009 51.0851C21.3777 51.4672 20.9043 51.6866 20.4025 51.6866C19.899 51.6866 19.4255 51.4665 19.103 51.0829L17.2314 48.8763L15.4008 51.0375C15.0763 51.4199 14.6033 51.639 14.1031 51.639C13.9036 51.639 13.7067 51.6045 13.5181 51.5364C12.8487 51.2917 12.4 50.6491 12.4 49.9368L12.4357 10.9854C12.4371 9.33933 13.7777 8 15.4238 8H44.7445C46.3908 8 47.7312 9.3395 47.7325 10.9858L47.765 50.2975C47.765 51.0096 47.3165 51.6518 46.6489 51.896C46.4643 51.965 46.2673 52 46.0642 52Z" fill="#262626"/>
</g>
<path fill-rule="evenodd" clip-rule="evenodd" d="M46.3768 11.8379C46.3761 10.5053 45.6219 9.42564 44.6918 9.42564H42.7822C43.7123 9.42564 44.4663 10.5053 44.4672 11.8379L44.4886 48.9615C44.4886 48.9758 44.4865 48.9896 44.4861 49.0037L44.8992 49.7005C45.0561 49.965 45.2788 50.1446 45.5209 50.1603C45.6346 50.1679 45.7461 50.1432 45.8493 50.088C46.1776 49.916 46.3982 49.4624 46.3982 48.9615L46.3768 11.8379Z" fill="#E8E8E8"/>
<path fill-rule="evenodd" clip-rule="evenodd" d="M23.614 15.0866V16.3845C24.2019 16.4484 24.7212 16.6068 25.189 16.8685L25.5145 17.0499L24.8569 18.7019L24.4376 18.4758C24.2198 18.358 23.7089 18.0817 22.9005 18.0817C22.1354 18.0817 21.8626 18.4444 21.8626 18.7842C21.8626 19.1519 22.0711 19.3974 23.3039 19.8821C24.4231 20.3152 25.711 21.0251 25.711 22.674C25.711 23.9092 24.8493 24.9064 23.531 25.2453V26.6857H21.8152V25.3376C21.0858 25.2632 20.3621 25.0327 19.8911 24.7142L19.6141 24.5259L20.247 22.8493L20.6867 23.1272C21.179 23.4389 21.8355 23.6254 22.4457 23.6254C23.1742 23.6254 23.664 23.2789 23.664 22.7654C23.664 22.4189 23.5081 22.0376 22.3761 21.6021C21.1196 21.1336 19.8293 20.4507 19.8293 18.9409C19.8293 17.7446 20.6351 16.8109 21.9118 16.4863V15.0866H23.614Z" fill="#545454"/>
<path fill-rule="evenodd" clip-rule="evenodd" d="M39.1437 31.8158C39.7876 31.8158 40.3467 32.2724 40.445 32.8791C40.5061 33.2519 40.4019 33.6289 40.1595 33.9145C39.9172 34.1999 39.563 34.3635 39.1885 34.3635H20.1769C19.533 34.3635 18.9739 33.9068 18.8755 33.3002C18.8146 32.9274 18.9189 32.5495 19.1611 32.265C19.4034 31.9801 19.7576 31.8158 20.1312 31.8158H39.1437Z" fill="#545454"/>
<path fill-rule="evenodd" clip-rule="evenodd" d="M26.3577 37.0676C27.0017 37.0676 27.5609 37.5242 27.6591 38.1308C27.7202 38.5037 27.616 38.8807 27.3735 39.1663C27.1313 39.4517 26.7772 39.6155 26.4035 39.6155H20.1406C19.4967 39.6155 18.9374 39.1585 18.8392 38.552C18.7782 38.1792 18.8824 37.8013 19.1246 37.5167C19.3671 37.232 19.7211 37.0676 20.0949 37.0676H26.3577Z" fill="#545454"/>
</svg>
