<svg width="33" height="32" viewBox="0 0 33 32" fill="none" xmlns="http://www.w3.org/2000/svg">
<g opacity="0.5">
<path fill-rule="evenodd" clip-rule="evenodd" d="M32.67 13.4401V8.32007C31.8134 8.32139 30.9568 8.32359 30.1001 8.32578C27.5783 8.33225 25.0565 8.33872 22.5349 8.32283C21.9297 8.319 21.7575 8.47967 21.7779 9.04011C21.8159 10.0893 21.8199 11.1396 21.8238 12.19C21.8254 12.604 21.8269 13.0181 21.8306 13.432L21.8142 13.432L21.8193 13.4368L21.8142 13.4321L21.8141 13.4473C19.9905 13.4473 18.1669 13.4474 16.3433 13.4476L16.3433 13.4324L16.3434 13.4323L16.3433 13.4323V13.4321L16.3431 13.4323L16.3267 13.4323C16.328 13.0173 16.3281 12.6022 16.3282 12.1872V12.1853C16.3283 11.0937 16.3285 10.0021 16.3522 8.91093C16.3624 8.44132 16.1907 8.32507 15.7075 8.32644C10.7208 8.34115 0.248992 8.32537 0 8.32016V13.4402C0.453327 13.4409 0.906694 13.4431 1.36006 13.4453H1.36007C2.50256 13.4508 3.64507 13.4564 4.78698 13.4372C5.34208 13.4278 5.48422 13.6017 5.48127 14.1076C5.46756 16.5089 5.47421 18.9101 5.48085 21.3114V21.3115C5.48304 22.101 5.48522 22.8905 5.48669 23.6801H10.8485C10.8564 23.6199 10.8664 23.5596 10.8765 23.4994C10.8981 23.3697 10.9198 23.24 10.92 23.1103C10.9206 22.6096 10.9213 22.109 10.922 21.6083V21.6083V21.6081C10.9257 19.1259 10.9294 16.6436 10.9066 14.1615C10.9013 13.6073 11.0636 13.4223 11.6741 13.4353C12.7863 13.4591 13.8993 13.4501 15.0124 13.441C15.4505 13.4375 15.8886 13.4339 16.3267 13.4323L16.3266 13.4476L16.3302 13.4443L16.3267 13.4476L16.3433 13.4476C16.3406 16.8532 16.3379 20.2589 16.3351 23.6647L16.3351 23.6723L16.3351 23.6801H32.67V18.56C31.8561 18.561 31.0421 18.5617 30.2281 18.5624H30.2281C27.6231 18.5647 25.0181 18.5671 22.4133 18.5779C21.9706 18.5798 21.781 18.4581 21.7889 18.0144C21.8085 16.9109 21.81 15.807 21.8115 14.7031V14.7031C21.812 14.2845 21.8126 13.8659 21.8141 13.4473H21.8307L21.8307 13.4473C21.8307 13.4473 21.8307 13.4473 21.8307 13.4473H21.8308L21.8307 13.4472C21.8307 13.4422 21.8306 13.4371 21.8306 13.432L32.67 13.4401Z" fill="black"/>
</g>
</svg>
