<svg width="60" height="60" viewBox="0 0 60 60" fill="none" xmlns="http://www.w3.org/2000/svg">
<path fill-rule="evenodd" clip-rule="evenodd" d="M59.4 25.2002V15.6001C57.8425 15.6026 56.285 15.6067 54.7275 15.6108C50.1424 15.6229 45.5573 15.6351 40.9725 15.6053C39.8722 15.5981 39.5591 15.8993 39.5961 16.9502C39.6653 18.9174 39.6725 20.8868 39.6797 22.8564C39.6825 23.6326 39.6854 24.4089 39.692 25.185L39.6621 25.185L39.6779 25.2001L39.6621 25.1852L39.662 25.2136C36.3463 25.2136 33.0306 25.2139 29.7149 25.2142L29.715 25.1856L29.7152 25.1854L29.715 25.1854V25.1852L29.7147 25.1854L29.6848 25.1855C29.6873 24.4062 29.6875 23.6268 29.6876 22.8474C29.6879 20.8007 29.6882 18.7538 29.7313 16.7079C29.7498 15.8274 29.4377 15.6094 28.5591 15.612C19.4923 15.6395 0.452713 15.61 0 15.6002V25.2003C0.823962 25.2016 1.648 25.2057 2.47204 25.2098L2.47287 25.2098C4.55012 25.2202 6.62739 25.2306 8.7036 25.1946C9.71288 25.1771 9.97131 25.503 9.96594 26.4516C9.94101 30.954 9.9531 35.4563 9.96519 39.9588V39.9589C9.96916 41.4393 9.97313 42.9196 9.97579 44.4H19.7245C19.7389 44.2871 19.7571 44.1742 19.7754 44.0613C19.8148 43.8181 19.8542 43.5749 19.8546 43.3317C19.8555 42.393 19.8569 41.4542 19.8582 40.5155V40.5154C19.8649 35.8611 19.8716 31.2067 19.8301 26.5527C19.8206 25.5137 20.1157 25.1667 21.2256 25.1911C23.2477 25.2357 25.2714 25.2187 27.2952 25.2018C28.0918 25.1951 28.8883 25.1884 29.6848 25.1855L29.6848 25.2141L29.6905 25.2087L29.6848 25.2142L29.7149 25.2142C29.7102 31.559 29.7052 37.9039 29.7001 44.249L29.7001 44.2634L29.7 44.4001H59.4V34.8C57.9201 34.8018 56.4401 34.8032 54.9602 34.8045H54.9601C50.2238 34.8089 45.4874 34.8132 40.7513 34.8336C39.9465 34.837 39.6018 34.609 39.6161 33.777C39.6517 31.708 39.6544 29.6383 39.6571 27.5687C39.6581 26.7836 39.6592 25.9986 39.662 25.2136H39.6921L39.6922 25.2137C39.6922 25.2137 39.6922 25.2136 39.6922 25.2136C39.6922 25.2041 39.6921 25.1946 39.692 25.185L59.4 25.2002Z" fill="#808080"/>
</svg>
