<svg width="24" height="24" viewBox="0 0 24 24" fill="none" xmlns="http://www.w3.org/2000/svg">
<path d="M2 10H3.5L6 10.5L10.5 7L12.5 1H16.25L17.125 4.75L15.5 8.5H18L22 9L21 16L20 19.5L18.5 23H11.5L8 21.5L4.5 21H2V10Z" fill="white"/>
<path d="M22.3699 13.4136C22.8411 12.7018 23.0764 11.9184 23.0764 11.0627C23.0764 10.0722 22.7115 9.21191 21.9809 8.48044C21.25 7.74973 20.3846 7.38445 19.3847 7.38445H16.8462C17.3076 6.43263 17.5387 5.50945 17.5387 4.61537C17.5387 3.49034 17.37 2.59621 17.0338 1.93273C16.6972 1.26906 16.2067 0.781227 15.5625 0.468584C14.918 0.156094 14.1923 0 13.3847 0C12.8941 0 12.4616 0.177866 12.0866 0.53375C11.6732 0.937523 11.3751 1.45688 11.1925 2.09151C11.0098 2.72593 10.8631 3.33419 10.7526 3.91593C10.6421 4.49762 10.4713 4.90867 10.2406 5.14902C9.76936 5.65863 9.25501 6.27416 8.69732 6.99522C7.7262 8.25468 7.06748 8.99994 6.72149 9.2308H2.76974C2.26014 9.2308 1.825 9.41134 1.46442 9.77162C1.10399 10.1323 0.923645 10.5673 0.923645 11.077V20.3074C0.923645 20.817 1.10378 21.252 1.46442 21.6126C1.8252 21.9733 2.26014 22.1537 2.76974 22.1537H6.9232C7.13476 22.1537 7.79809 22.346 8.91347 22.7306C10.0962 23.1441 11.137 23.4589 12.036 23.6753C12.935 23.8917 13.846 24 14.7692 24H16.1101H16.6296C17.9853 24 19.0765 23.6127 19.9035 22.8386C20.7302 22.0645 21.139 21.0093 21.1295 19.6728C21.7064 18.9324 21.9948 18.0767 21.9948 17.1057C21.9948 16.8942 21.9806 16.6875 21.9516 16.4854C22.3168 15.8414 22.4999 15.1491 22.4999 14.4087C22.4997 14.0625 22.4566 13.7306 22.3699 13.4136ZM20.9209 12.246C20.7142 12.6882 20.4569 12.9142 20.1492 12.9237C20.2934 13.0872 20.4137 13.3158 20.5099 13.6088C20.606 13.9021 20.6537 14.1688 20.6537 14.4093C20.6537 15.0724 20.3993 15.6447 19.8896 16.1253C20.0629 16.4328 20.1493 16.7647 20.1493 17.1203C20.1493 17.4761 20.0653 17.8294 19.8969 18.1803C19.7289 18.5309 19.5003 18.7834 19.212 18.9372C19.26 19.2256 19.2839 19.4949 19.2839 19.7448C19.2839 21.3504 18.3607 22.1533 16.5144 22.1533H14.7698C13.51 22.1533 11.866 21.8026 9.83706 21.1005C9.78891 21.0813 9.64969 21.0306 9.41878 20.949C9.18788 20.8675 9.01729 20.8073 8.90666 20.769C8.79603 20.7302 8.62791 20.6749 8.4018 20.603C8.17574 20.5307 7.99328 20.4778 7.85375 20.4443C7.71443 20.4108 7.55566 20.3795 7.37795 20.3506C7.20013 20.3217 7.04863 20.3074 6.92366 20.3074H6.46215V11.0774H6.92366C7.07748 11.0774 7.24812 11.034 7.43564 10.9476C7.6231 10.861 7.81551 10.7313 8.01258 10.5582C8.20974 10.385 8.39468 10.2144 8.56785 10.046C8.74096 9.87781 8.93323 9.6663 9.14484 9.4116C9.35635 9.15669 9.52219 8.95246 9.64247 8.79859C9.76259 8.64477 9.91399 8.44755 10.0967 8.2072C10.2793 7.9669 10.39 7.82262 10.4284 7.77448C10.9572 7.12076 11.3274 6.68329 11.5389 6.46203C11.9331 6.04871 12.2191 5.52228 12.397 4.88286C12.5751 4.24333 12.7217 3.63997 12.8366 3.07277C12.9519 2.50553 13.1348 2.09676 13.3851 1.84676C14.308 1.84676 14.9235 2.07261 15.2311 2.52458C15.5386 2.97644 15.6925 3.67361 15.6925 4.61588C15.6925 5.18312 15.4615 5.9547 14.9999 6.93056C14.5385 7.90653 14.308 8.67336 14.308 9.231H19.3845C19.8658 9.231 20.2935 9.41599 20.6683 9.78637C21.0434 10.1565 21.2312 10.5867 21.2312 11.0772C21.231 11.4137 21.1276 11.8032 20.9209 12.246Z" fill="#262626"/>
<rect x="2" y="11" width="4.5" height="10" fill="#262626"/>
<circle cx="4" cy="19" r="1" fill="#1BD27F"/>
</svg>
