<svg width="80" height="19" viewBox="0 0 80 19" fill="none" xmlns="http://www.w3.org/2000/svg">
<g clip-path="url(#clip0)">
<path fill-rule="evenodd" clip-rule="evenodd" d="M4.85539 7.64646C8.47774 6.39791 9.09431 3.1455 8.63188 0.155133C8.63188 0.0472334 8.72437 -0.0298379 8.81685 0.000990625C12.2851 1.69656 16.1849 5.39598 16.1849 10.9451C16.1849 15.1995 12.8862 18.9605 8.09238 18.9605C6.3818 19.0383 4.69403 18.5442 3.29546 17.5562C1.89688 16.5683 0.867147 15.1426 0.368788 13.5044C-0.12957 11.8662 -0.0681736 10.1087 0.543288 8.50922C1.15475 6.90977 2.28145 5.55949 3.74556 4.67151C3.83805 4.60985 3.96136 4.67151 3.96136 4.77941C4.00761 5.34974 4.16175 6.78326 4.79373 7.64646H4.85539Z" fill="#B6B6B6"/>
<path fill-rule="evenodd" clip-rule="evenodd" d="M26.3891 15.584L26.6511 15.2757L27.4681 17.8653L27.3602 17.9732C26.7436 18.5435 25.8188 18.8364 24.6319 18.8364H24.5856C23.5066 18.8364 22.6588 18.5281 22.0731 17.9578C21.4874 17.372 21.1791 16.4934 21.1791 15.3836V8.32385H19.0981V5.47222H21.1791V2.03484H24.3852V5.47222H26.9286V8.32385H24.3698V14.6899C24.3698 14.9828 24.4469 15.9231 25.3409 15.9231C25.8033 15.9231 26.2349 15.7535 26.3891 15.5686V15.584ZM28.0847 18.5435V5.48763H31.2908V18.5435H28.0847ZM29.6723 0.154297C30.0528 0.154309 30.4247 0.266935 30.7412 0.477979C31.0577 0.689022 31.3047 0.989039 31.4509 1.34022C31.5972 1.69139 31.6362 2.07801 31.5631 2.45134C31.49 2.82468 31.3081 3.16801 31.0401 3.43808C30.7722 3.70815 30.4303 3.89286 30.0576 3.96894C29.6848 4.04502 29.2979 4.00905 28.9456 3.86558C28.5933 3.72211 28.2913 3.47755 28.0777 3.16272C27.8642 2.8479 27.7486 2.4769 27.7455 2.09649C27.7455 1.04832 28.6242 0.154297 29.6723 0.154297ZM39.9074 5.16393C42.682 5.16393 44.208 6.67453 44.208 9.43368V18.5281H41.0018V10.2044C40.9402 8.72462 40.2311 8.0464 38.7205 8.0464C37.3641 8.0464 36.2696 8.87877 35.7147 9.58782V18.5281H32.5086V5.50305H35.7147V6.89033C36.6396 5.9963 38.1194 5.19476 39.9074 5.19476V5.16393ZM54.8747 6.84409V0.70921H58.0808V18.5589H54.8747V17.2025C54.3841 17.7199 53.7939 18.1328 53.1396 18.4162C52.4853 18.6997 51.7804 18.8478 51.0673 18.8518C47.5683 18.8518 45.2253 16.1081 45.2253 12.0233C45.2253 7.92308 47.5683 5.17935 51.0673 5.17935C51.7819 5.18261 52.4883 5.33197 53.143 5.61825C53.7978 5.90454 54.3871 6.32169 54.8747 6.84409ZM54.8747 9.60324C54.5173 9.13786 54.0608 8.75802 53.5381 8.49137C53.0155 8.22472 52.44 8.07798 51.8535 8.06181C49.865 8.06181 48.5394 9.64948 48.5394 12.0233C48.5394 14.3817 49.865 15.9693 51.8535 15.9693C53.0095 15.9693 54.2735 15.3528 54.8747 14.4587V9.60324ZM65.5722 5.17935C69.3641 5.17935 71.9999 8.10806 71.9999 12.2699V13.1485H62.3043C62.628 14.9828 64.077 16.1543 66.05 16.1543C67.2986 16.1543 68.6704 15.6148 69.4566 14.8287L69.6724 14.6437L71.1984 16.8325L71.0442 16.9713C69.5999 18.2519 67.7169 18.9256 65.788 18.8518C61.7803 18.8518 58.9594 16.031 58.9594 12.0079C58.9283 11.1196 59.0769 10.2343 59.3964 9.4049C59.7159 8.57554 60.1997 7.81928 60.8187 7.18154C61.4378 6.54379 62.1793 6.03769 62.9988 5.69363C63.8183 5.34958 64.6988 5.17465 65.5876 5.17935H65.5722ZM62.2889 10.7285H68.8708C68.6858 8.77087 67.0673 7.87684 65.5722 7.87684C63.3217 7.87684 62.4739 9.57241 62.2889 10.7439V10.7285ZM79.7533 5.17935H79.9845V8.41634L79.707 8.3701C79.4758 8.32385 79.183 8.29303 78.8901 8.29303C77.8573 8.29303 76.4238 9.0175 75.8843 9.78821V18.5281H72.6781V5.48763H75.8997V6.93657C76.9633 5.82674 78.366 5.17935 79.7533 5.17935Z" fill="#B6B6B6"/>
</g>
<defs>
<clipPath id="clip0">
<rect width="80" height="18.9595" fill="white"/>
</clipPath>
</defs>
</svg>
