<svg width="183" height="62" viewBox="0 0 183 62" fill="none" xmlns="http://www.w3.org/2000/svg">
<g clip-path="url(#clip0)">
<path fill-rule="evenodd" clip-rule="evenodd" d="M162.609 6.53817C166.087 8.39125 168.332 10.5016 170.037 15.9999C170.034 16.1355 169.868 16.2386 169.745 16.1824C166.416 13.7561 164.028 11.8329 162.402 6.76926C162.387 6.65315 162.492 6.5372 162.609 6.53809V6.53817ZM169.626 6.71664C169.641 6.71884 169.653 6.7232 169.668 6.72869C172.238 9.70522 173.569 12.4816 173.167 18.2222C173.114 18.3474 172.925 18.3839 172.829 18.2872C170.604 14.8289 169.073 12.1772 169.391 6.87055C169.412 6.78544 169.495 6.7236 169.581 6.71647C169.596 6.71425 169.613 6.71425 169.627 6.71647L169.626 6.71664ZM175.922 13.0394C175.965 13.0417 176.006 13.0561 176.04 13.0839C177.567 16.7029 177.979 19.7486 175.824 25.0886C175.735 25.1915 175.543 25.1693 175.482 25.048C174.432 21.0763 173.793 18.085 175.734 13.1326C175.773 13.0706 175.849 13.0371 175.922 13.0394ZM164.969 14.6413C168.673 15.9908 171.197 17.7697 173.66 22.9756C173.676 23.1102 173.526 23.2328 173.395 23.1946C169.758 21.2569 167.121 19.6875 164.798 14.9009C164.767 14.7879 164.852 14.6569 164.969 14.6414V14.6413ZM180.974 18.5792C181.032 18.5876 181.085 18.6194 181.117 18.6685C181.482 22.577 180.954 25.6079 177.287 30.0566C177.171 30.1283 176.995 30.0446 176.973 29.9107C177.17 25.8083 177.461 22.7668 180.807 18.6238C180.852 18.5858 180.917 18.5707 180.974 18.5792ZM171.765 22.9836C171.81 22.9859 171.851 22.9998 171.884 23.0282C175.231 27.1712 175.525 30.2168 175.722 34.3191C175.701 34.4529 175.524 34.5326 175.409 34.461C171.741 30.0122 171.21 26.9814 171.575 23.0729C171.614 23.0115 171.693 22.9803 171.765 22.9836ZM181.809 26.9013C181.897 26.8983 181.987 26.9485 182.018 27.0311C181.538 30.9272 180.371 33.7746 175.836 37.3445C175.709 37.3901 175.551 37.2771 175.56 37.1418C176.629 33.1753 177.569 30.2606 181.724 26.9217C181.75 26.9077 181.78 26.9025 181.809 26.9012V26.9013ZM172.817 32.7739C172.86 32.7796 172.901 32.7991 172.931 32.8307C174.05 36.5949 174.122 39.6703 171.391 44.742C171.291 44.8347 171.099 44.7922 171.053 44.6649C170.448 40.6023 170.145 37.5568 172.621 32.8468C172.658 32.8009 172.713 32.7768 172.772 32.7739C172.787 32.7716 172.802 32.7716 172.817 32.7739ZM183.158 34.8992C183.259 34.9088 183.352 34.9994 183.354 35.1018C181.574 38.6048 179.505 40.8918 174.023 42.7183C173.887 42.7183 173.783 42.5551 173.835 42.4304C176.195 39.0608 178.07 36.6403 183.117 34.9031C183.133 34.9009 183.144 34.8975 183.158 34.8992ZM169.076 42.3614C169.149 42.3702 169.219 42.4159 169.248 42.4832C168.951 46.3974 167.922 49.2958 163.56 53.0724C163.434 53.1238 163.273 53.0132 163.274 52.8777C164.157 48.8658 164.955 45.9143 168.95 42.3858C168.989 42.3634 169.033 42.3562 169.076 42.3614ZM178.877 42.9818C178.993 42.9779 179.1 43.0925 179.088 43.2089C176.924 46.4909 174.612 48.5321 168.959 49.7343C168.823 49.7186 168.737 49.5441 168.804 49.4262C171.528 46.3415 173.664 44.1439 178.877 42.9818ZM173.587 50.363C174.54 50.3697 175.573 50.4616 176.725 50.655C176.835 50.6957 176.889 50.8395 176.834 50.9431C173.586 53.168 170.672 54.1907 164.982 53.1777C164.862 53.1122 164.846 52.9168 164.953 52.8329C167.838 51.402 170.186 50.3387 173.587 50.363Z" fill="#808080"/>
<path d="M33.2938 18.536V19.84H29.5898V30H28.0378V19.84H24.3178V18.536H33.2938ZM33.418 30V21.896H34.234C34.3887 21.896 34.4953 21.9253 34.554 21.984C34.6127 22.0427 34.6527 22.144 34.674 22.288L34.77 23.552C35.0473 22.9867 35.3887 22.5467 35.794 22.232C36.2047 21.912 36.6847 21.752 37.234 21.752C37.458 21.752 37.6607 21.7787 37.842 21.832C38.0233 21.88 38.1913 21.9493 38.346 22.04L38.162 23.104C38.1247 23.2373 38.042 23.304 37.914 23.304C37.8393 23.304 37.7247 23.28 37.57 23.232C37.4153 23.1787 37.1993 23.152 36.922 23.152C36.426 23.152 36.01 23.296 35.674 23.584C35.3433 23.872 35.066 24.2907 34.842 24.84V30H33.418ZM41.1031 21.896V27.064C41.1031 27.6773 41.2445 28.152 41.5271 28.488C41.8098 28.824 42.2365 28.992 42.8071 28.992C43.2231 28.992 43.6151 28.8933 43.9831 28.696C44.3511 28.4987 44.6898 28.224 44.9991 27.872V21.896H46.4231V30H45.5751C45.3725 30 45.2445 29.9013 45.1911 29.704L45.0791 28.832C44.7271 29.2213 44.3325 29.536 43.8951 29.776C43.4578 30.0107 42.9565 30.128 42.3911 30.128C41.9485 30.128 41.5565 30.056 41.2151 29.912C40.8791 29.7627 40.5965 29.5547 40.3671 29.288C40.1378 29.0213 39.9645 28.6987 39.8471 28.32C39.7351 27.9413 39.6791 27.5227 39.6791 27.064V21.896H41.1031ZM53.4018 23.232C53.3378 23.3493 53.2391 23.408 53.1058 23.408C53.0258 23.408 52.9351 23.3787 52.8338 23.32C52.7324 23.2613 52.6071 23.1973 52.4578 23.128C52.3138 23.0533 52.1404 22.9867 51.9378 22.928C51.7351 22.864 51.4951 22.832 51.2178 22.832C50.9778 22.832 50.7618 22.864 50.5698 22.928C50.3778 22.9867 50.2124 23.0693 50.0738 23.176C49.9404 23.2827 49.8364 23.408 49.7618 23.552C49.6924 23.6907 49.6578 23.8427 49.6578 24.008C49.6578 24.216 49.7164 24.3893 49.8338 24.528C49.9564 24.6667 50.1164 24.7867 50.3138 24.888C50.5111 24.9893 50.7351 25.08 50.9858 25.16C51.2364 25.2347 51.4924 25.3173 51.7538 25.408C52.0204 25.4933 52.2791 25.5893 52.5298 25.696C52.7804 25.8027 53.0044 25.936 53.2018 26.096C53.3991 26.256 53.5564 26.4533 53.6738 26.688C53.7964 26.9173 53.8578 27.1947 53.8578 27.52C53.8578 27.8933 53.7911 28.24 53.6578 28.56C53.5244 28.8747 53.3271 29.1493 53.0658 29.384C52.8044 29.6133 52.4844 29.7947 52.1058 29.928C51.7271 30.0613 51.2898 30.128 50.7938 30.128C50.2284 30.128 49.7164 30.0373 49.2578 29.856C48.7991 29.6693 48.4098 29.432 48.0898 29.144L48.4258 28.6C48.4684 28.5307 48.5191 28.4773 48.5778 28.44C48.6364 28.4027 48.7138 28.384 48.8098 28.384C48.9058 28.384 49.0071 28.4213 49.1138 28.496C49.2204 28.5707 49.3484 28.6533 49.4978 28.744C49.6524 28.8347 49.8364 28.9173 50.0498 28.992C50.2684 29.0667 50.5404 29.104 50.8658 29.104C51.1431 29.104 51.3858 29.0693 51.5938 29C51.8018 28.9253 51.9751 28.8267 52.1137 28.704C52.2524 28.5813 52.3538 28.44 52.4178 28.28C52.4871 28.12 52.5218 27.9493 52.5218 27.768C52.5218 27.544 52.4604 27.36 52.3378 27.216C52.2204 27.0667 52.0631 26.9413 51.8658 26.84C51.6684 26.7333 51.4418 26.6427 51.1858 26.568C50.9351 26.488 50.6764 26.4053 50.4098 26.32C50.1484 26.2347 49.8898 26.1387 49.6338 26.032C49.3831 25.92 49.1591 25.7813 48.9618 25.616C48.7644 25.4507 48.6044 25.248 48.4818 25.008C48.3644 24.7627 48.3058 24.4667 48.3058 24.12C48.3058 23.8107 48.3698 23.5147 48.4978 23.232C48.6258 22.944 48.8124 22.6933 49.0578 22.48C49.3031 22.2613 49.6044 22.088 49.9618 21.96C50.3191 21.832 50.7271 21.768 51.1858 21.768C51.7191 21.768 52.1964 21.8533 52.6178 22.024C53.0444 22.1893 53.4124 22.4187 53.7218 22.712L53.4018 23.232ZM58.1553 30.128C57.5153 30.128 57.0219 29.9493 56.6753 29.592C56.3339 29.2347 56.1633 28.72 56.1633 28.048V23.088H55.1873C55.1019 23.088 55.0299 23.064 54.9713 23.016C54.9126 22.9627 54.8833 22.8827 54.8833 22.776V22.208L56.2113 22.04L56.5393 19.536C56.5499 19.456 56.5846 19.392 56.6432 19.344C56.7019 19.2907 56.7766 19.264 56.8673 19.264H57.5873V22.056H59.9073V23.088H57.5873V27.952C57.5873 28.2933 57.6699 28.5467 57.8353 28.712C58.0006 28.8773 58.2139 28.96 58.4753 28.96C58.6246 28.96 58.7526 28.9413 58.8593 28.904C58.9713 28.8613 59.0673 28.816 59.1473 28.768C59.2273 28.72 59.2939 28.6773 59.3473 28.64C59.4059 28.5973 59.4566 28.576 59.4993 28.576C59.5739 28.576 59.6406 28.6213 59.6993 28.712L60.1153 29.392C59.8699 29.6213 59.5739 29.8027 59.2273 29.936C58.8806 30.064 58.5233 30.128 58.1553 30.128ZM64.876 21.768C65.3613 21.768 65.8093 21.8507 66.22 22.016C66.6307 22.176 66.9853 22.4107 67.284 22.72C67.5827 23.024 67.8147 23.4027 67.98 23.856C68.1507 24.304 68.236 24.816 68.236 25.392C68.236 25.616 68.212 25.7653 68.164 25.84C68.116 25.9147 68.0253 25.952 67.892 25.952H62.5C62.5107 26.464 62.58 26.9093 62.708 27.288C62.836 27.6667 63.012 27.984 63.236 28.24C63.46 28.4907 63.7267 28.68 64.036 28.808C64.3453 28.9307 64.692 28.992 65.076 28.992C65.4333 28.992 65.74 28.952 65.996 28.872C66.2573 28.7867 66.4813 28.696 66.668 28.6C66.8547 28.504 67.0093 28.416 67.132 28.336C67.26 28.2507 67.3693 28.208 67.46 28.208C67.5773 28.208 67.668 28.2533 67.732 28.344L68.132 28.864C67.956 29.0773 67.7453 29.264 67.5 29.424C67.2547 29.5787 66.9907 29.7067 66.708 29.808C66.4307 29.9093 66.1427 29.984 65.844 30.032C65.5453 30.0853 65.2493 30.112 64.956 30.112C64.396 30.112 63.8787 30.0187 63.404 29.832C62.9347 29.64 62.5267 29.3627 62.18 29C61.8387 28.632 61.572 28.1787 61.38 27.64C61.188 27.1013 61.092 26.4827 61.092 25.784C61.092 25.2187 61.1773 24.6907 61.348 24.2C61.524 23.7093 61.7747 23.2853 62.1 22.928C62.4253 22.5653 62.8227 22.2827 63.292 22.08C63.7613 21.872 64.2893 21.768 64.876 21.768ZM64.908 22.816C64.22 22.816 63.6787 23.016 63.284 23.416C62.8893 23.8107 62.644 24.36 62.548 25.064H66.956C66.956 24.7333 66.9107 24.432 66.82 24.16C66.7293 23.8827 66.596 23.6453 66.42 23.448C66.244 23.2453 66.028 23.0907 65.772 22.984C65.5213 22.872 65.2333 22.816 64.908 22.816ZM75.7626 30C75.56 30 75.432 29.9013 75.3786 29.704L75.2506 28.72C74.904 29.1413 74.5066 29.48 74.0586 29.736C73.616 29.9867 73.1066 30.112 72.5306 30.112C72.0666 30.112 71.6453 30.024 71.2666 29.848C70.888 29.6667 70.5653 29.4027 70.2986 29.056C70.032 28.7093 69.8266 28.2773 69.6826 27.76C69.5386 27.2427 69.4666 26.648 69.4666 25.976C69.4666 25.3787 69.5466 24.824 69.7066 24.312C69.8666 23.7947 70.096 23.3467 70.3946 22.968C70.6986 22.5893 71.0666 22.2933 71.4986 22.08C71.9306 21.8613 72.4213 21.752 72.9706 21.752C73.4666 21.752 73.8906 21.8373 74.2426 22.008C74.5946 22.1733 74.9093 22.408 75.1866 22.712V18.216H76.6106V30H75.7626ZM73.0026 28.96C73.4666 28.96 73.872 28.8533 74.2186 28.64C74.5706 28.4267 74.8933 28.1253 75.1866 27.736V23.816C74.9253 23.464 74.6373 23.2187 74.3226 23.08C74.0133 22.936 73.6693 22.864 73.2906 22.864C72.5333 22.864 71.952 23.1333 71.5466 23.672C71.1413 24.2107 70.9386 24.9787 70.9386 25.976C70.9386 26.504 70.984 26.9573 71.0746 27.336C71.1653 27.7093 71.2986 28.0187 71.4746 28.264C71.6506 28.504 71.8666 28.68 72.1226 28.792C72.3786 28.904 72.672 28.96 73.0026 28.96ZM86.2019 18.408C86.6232 18.408 87.0072 18.4773 87.3539 18.616C87.7005 18.7493 87.9992 18.928 88.2499 19.152C88.5059 19.376 88.7059 19.6373 88.8499 19.936C88.9992 20.2293 89.0845 20.536 89.1059 20.856L88.2179 21.032C88.1912 21.0373 88.1672 21.04 88.1459 21.04C88.0765 21.04 88.0099 21.0213 87.9459 20.984C87.8872 20.9467 87.8445 20.88 87.8179 20.784C87.7805 20.6453 87.7192 20.5013 87.6339 20.352C87.5539 20.2027 87.4472 20.0667 87.3139 19.944C87.1859 19.8213 87.0285 19.72 86.8419 19.64C86.6605 19.56 86.4472 19.52 86.2019 19.52C85.9352 19.52 85.6952 19.5627 85.4819 19.648C85.2685 19.7333 85.0845 19.8533 84.9299 20.008C84.7805 20.1573 84.6632 20.336 84.5779 20.544C84.4979 20.7467 84.4579 20.968 84.4579 21.208C84.4579 21.3947 84.4792 21.5733 84.5219 21.744C84.5699 21.9147 84.6392 22.088 84.7299 22.264C84.8205 22.4347 84.9379 22.6133 85.0819 22.8C85.2259 22.9813 85.3992 23.1733 85.6019 23.376L88.8979 26.728C89.1005 26.3707 89.2605 25.9973 89.3779 25.608C89.5005 25.2133 89.5832 24.8187 89.6259 24.424C89.6365 24.3227 89.6685 24.2427 89.7219 24.184C89.7752 24.1253 89.8499 24.096 89.9459 24.096H90.8259C90.8152 24.7093 90.7165 25.312 90.5299 25.904C90.3432 26.496 90.0739 27.0507 89.7219 27.568L92.1219 30H90.7459C90.5912 30 90.4659 29.9813 90.3699 29.944C90.2739 29.9067 90.1672 29.8293 90.0499 29.712L88.8979 28.552C88.3965 29.0373 87.8179 29.4213 87.1619 29.704C86.5112 29.9867 85.7939 30.128 85.0099 30.128C84.5832 30.128 84.1645 30.056 83.7539 29.912C83.3432 29.768 82.9752 29.56 82.6499 29.288C82.3299 29.0107 82.0712 28.6747 81.8739 28.28C81.6765 27.8853 81.5779 27.44 81.5779 26.944C81.5779 26.5707 81.6392 26.2187 81.7619 25.888C81.8899 25.552 82.0632 25.2427 82.2819 24.96C82.5059 24.6773 82.7699 24.424 83.0739 24.2C83.3779 23.976 83.7112 23.784 84.0739 23.624C83.7485 23.2133 83.5085 22.8133 83.3539 22.424C83.1992 22.0347 83.1219 21.632 83.1219 21.216C83.1219 20.8267 83.1912 20.4613 83.3299 20.12C83.4739 19.7787 83.6792 19.4827 83.9459 19.232C84.2125 18.976 84.5352 18.776 84.9139 18.632C85.2979 18.4827 85.7272 18.408 86.2019 18.408ZM83.0259 26.832C83.0259 27.1787 83.0899 27.4853 83.2179 27.752C83.3459 28.0133 83.5139 28.2347 83.7219 28.416C83.9299 28.5973 84.1672 28.736 84.4339 28.832C84.7005 28.9227 84.9725 28.968 85.2499 28.968C85.8472 28.968 86.3832 28.8587 86.8579 28.64C87.3325 28.4213 87.7512 28.1307 88.1139 27.768L84.7299 24.352C84.1645 24.656 83.7379 25.0213 83.4499 25.448C83.1672 25.8693 83.0259 26.3307 83.0259 26.832ZM103.722 18.536V19.8H98.2176V23.808H102.922V25.072H98.2176V30H96.6576V18.536H103.722ZM108.142 21.768C108.627 21.768 109.075 21.8507 109.486 22.016C109.896 22.176 110.251 22.4107 110.55 22.72C110.848 23.024 111.08 23.4027 111.246 23.856C111.416 24.304 111.502 24.816 111.502 25.392C111.502 25.616 111.478 25.7653 111.43 25.84C111.382 25.9147 111.291 25.952 111.158 25.952H105.766C105.776 26.464 105.846 26.9093 105.974 27.288C106.102 27.6667 106.278 27.984 106.502 28.24C106.726 28.4907 106.992 28.68 107.302 28.808C107.611 28.9307 107.958 28.992 108.342 28.992C108.699 28.992 109.006 28.952 109.262 28.872C109.523 28.7867 109.747 28.696 109.934 28.6C110.12 28.504 110.275 28.416 110.398 28.336C110.526 28.2507 110.635 28.208 110.726 28.208C110.843 28.208 110.934 28.2533 110.998 28.344L111.398 28.864C111.222 29.0773 111.011 29.264 110.766 29.424C110.52 29.5787 110.256 29.7067 109.974 29.808C109.696 29.9093 109.408 29.984 109.11 30.032C108.811 30.0853 108.515 30.112 108.222 30.112C107.662 30.112 107.144 30.0187 106.67 29.832C106.2 29.64 105.792 29.3627 105.446 29C105.104 28.632 104.838 28.1787 104.646 27.64C104.454 27.1013 104.358 26.4827 104.358 25.784C104.358 25.2187 104.443 24.6907 104.614 24.2C104.79 23.7093 105.04 23.2853 105.366 22.928C105.691 22.5653 106.088 22.2827 106.558 22.08C107.027 21.872 107.555 21.768 108.142 21.768ZM108.174 22.816C107.486 22.816 106.944 23.016 106.55 23.416C106.155 23.8107 105.91 24.36 105.814 25.064H110.222C110.222 24.7333 110.176 24.432 110.086 24.16C109.995 23.8827 109.862 23.6453 109.686 23.448C109.51 23.2453 109.294 23.0907 109.038 22.984C108.787 22.872 108.499 22.816 108.174 22.816ZM119.276 30H118.644C118.506 30 118.394 29.9787 118.308 29.936C118.223 29.8933 118.167 29.8027 118.14 29.664L117.98 28.912C117.767 29.104 117.559 29.2773 117.356 29.432C117.154 29.5813 116.94 29.7093 116.716 29.816C116.492 29.9173 116.252 29.9947 115.996 30.048C115.746 30.1013 115.466 30.128 115.156 30.128C114.842 30.128 114.546 30.0853 114.268 30C113.996 29.9093 113.759 29.776 113.556 29.6C113.354 29.424 113.191 29.2027 113.068 28.936C112.951 28.664 112.892 28.344 112.892 27.976C112.892 27.656 112.98 27.3493 113.156 27.056C113.332 26.7573 113.615 26.4933 114.004 26.264C114.399 26.0347 114.914 25.848 115.548 25.704C116.183 25.5547 116.959 25.4693 117.876 25.448V24.816C117.876 24.1867 117.74 23.712 117.468 23.392C117.202 23.0667 116.804 22.904 116.276 22.904C115.93 22.904 115.636 22.9493 115.396 23.04C115.162 23.1253 114.956 23.224 114.78 23.336C114.61 23.4427 114.46 23.5413 114.332 23.632C114.21 23.7173 114.087 23.76 113.964 23.76C113.868 23.76 113.783 23.736 113.708 23.688C113.639 23.6347 113.583 23.5707 113.54 23.496L113.284 23.04C113.732 22.608 114.215 22.2853 114.732 22.072C115.25 21.8587 115.823 21.752 116.452 21.752C116.906 21.752 117.308 21.8267 117.66 21.976C118.012 22.1253 118.308 22.3333 118.548 22.6C118.788 22.8667 118.97 23.1893 119.092 23.568C119.215 23.9467 119.276 24.3627 119.276 24.816V30ZM115.58 29.128C115.831 29.128 116.06 29.104 116.268 29.056C116.476 29.0027 116.671 28.9307 116.852 28.84C117.039 28.744 117.215 28.6293 117.38 28.496C117.551 28.3627 117.716 28.2107 117.876 28.04V26.352C117.22 26.3733 116.663 26.4267 116.204 26.512C115.746 26.592 115.372 26.6987 115.084 26.832C114.796 26.9653 114.586 27.1227 114.452 27.304C114.324 27.4853 114.26 27.688 114.26 27.912C114.26 28.1253 114.295 28.3093 114.364 28.464C114.434 28.6187 114.527 28.7467 114.644 28.848C114.762 28.944 114.9 29.016 115.06 29.064C115.22 29.1067 115.394 29.128 115.58 29.128ZM123.89 30.128C123.25 30.128 122.756 29.9493 122.41 29.592C122.068 29.2347 121.898 28.72 121.898 28.048V23.088H120.922C120.836 23.088 120.764 23.064 120.706 23.016C120.647 22.9627 120.618 22.8827 120.618 22.776V22.208L121.946 22.04L122.274 19.536C122.284 19.456 122.319 19.392 122.378 19.344C122.436 19.2907 122.511 19.264 122.602 19.264H123.322V22.056H125.642V23.088H123.322V27.952C123.322 28.2933 123.404 28.5467 123.57 28.712C123.735 28.8773 123.948 28.96 124.21 28.96C124.359 28.96 124.487 28.9413 124.594 28.904C124.706 28.8613 124.802 28.816 124.882 28.768C124.962 28.72 125.028 28.6773 125.082 28.64C125.14 28.5973 125.191 28.576 125.234 28.576C125.308 28.576 125.375 28.6213 125.434 28.712L125.85 29.392C125.604 29.6213 125.308 29.8027 124.962 29.936C124.615 30.064 124.258 30.128 123.89 30.128ZM128.634 21.896V27.064C128.634 27.6773 128.776 28.152 129.058 28.488C129.341 28.824 129.768 28.992 130.338 28.992C130.754 28.992 131.146 28.8933 131.514 28.696C131.882 28.4987 132.221 28.224 132.53 27.872V21.896H133.954V30H133.106C132.904 30 132.776 29.9013 132.722 29.704L132.61 28.832C132.258 29.2213 131.864 29.536 131.426 29.776C130.989 30.0107 130.488 30.128 129.922 30.128C129.48 30.128 129.088 30.056 128.746 29.912C128.41 29.7627 128.128 29.5547 127.898 29.288C127.669 29.0213 127.496 28.6987 127.378 28.32C127.266 27.9413 127.21 27.5227 127.21 27.064V21.896H128.634ZM136.293 30V21.896H137.109C137.264 21.896 137.37 21.9253 137.429 21.984C137.488 22.0427 137.528 22.144 137.549 22.288L137.645 23.552C137.922 22.9867 138.264 22.5467 138.669 22.232C139.08 21.912 139.56 21.752 140.109 21.752C140.333 21.752 140.536 21.7787 140.717 21.832C140.898 21.88 141.066 21.9493 141.221 22.04L141.037 23.104C141 23.2373 140.917 23.304 140.789 23.304C140.714 23.304 140.6 23.28 140.445 23.232C140.29 23.1787 140.074 23.152 139.797 23.152C139.301 23.152 138.885 23.296 138.549 23.584C138.218 23.872 137.941 24.2907 137.717 24.84V30H136.293ZM145.954 21.768C146.439 21.768 146.887 21.8507 147.298 22.016C147.709 22.176 148.063 22.4107 148.362 22.72C148.661 23.024 148.893 23.4027 149.058 23.856C149.229 24.304 149.314 24.816 149.314 25.392C149.314 25.616 149.29 25.7653 149.242 25.84C149.194 25.9147 149.103 25.952 148.97 25.952H143.578C143.589 26.464 143.658 26.9093 143.786 27.288C143.914 27.6667 144.09 27.984 144.314 28.24C144.538 28.4907 144.805 28.68 145.114 28.808C145.423 28.9307 145.77 28.992 146.154 28.992C146.511 28.992 146.818 28.952 147.074 28.872C147.335 28.7867 147.559 28.696 147.746 28.6C147.933 28.504 148.087 28.416 148.21 28.336C148.338 28.2507 148.447 28.208 148.538 28.208C148.655 28.208 148.746 28.2533 148.81 28.344L149.21 28.864C149.034 29.0773 148.823 29.264 148.578 29.424C148.333 29.5787 148.069 29.7067 147.786 29.808C147.509 29.9093 147.221 29.984 146.922 30.032C146.623 30.0853 146.327 30.112 146.034 30.112C145.474 30.112 144.957 30.0187 144.482 29.832C144.013 29.64 143.605 29.3627 143.258 29C142.917 28.632 142.65 28.1787 142.458 27.64C142.266 27.1013 142.17 26.4827 142.17 25.784C142.17 25.2187 142.255 24.6907 142.426 24.2C142.602 23.7093 142.853 23.2853 143.178 22.928C143.503 22.5653 143.901 22.2827 144.37 22.08C144.839 21.872 145.367 21.768 145.954 21.768ZM145.986 22.816C145.298 22.816 144.757 23.016 144.362 23.416C143.967 23.8107 143.722 24.36 143.626 25.064H148.034C148.034 24.7333 147.989 24.432 147.898 24.16C147.807 23.8827 147.674 23.6453 147.498 23.448C147.322 23.2453 147.106 23.0907 146.85 22.984C146.599 22.872 146.311 22.816 145.986 22.816ZM156.841 30C156.638 30 156.51 29.9013 156.457 29.704L156.329 28.72C155.982 29.1413 155.585 29.48 155.137 29.736C154.694 29.9867 154.185 30.112 153.609 30.112C153.145 30.112 152.723 30.024 152.345 29.848C151.966 29.6667 151.643 29.4027 151.377 29.056C151.11 28.7093 150.905 28.2773 150.761 27.76C150.617 27.2427 150.545 26.648 150.545 25.976C150.545 25.3787 150.625 24.824 150.785 24.312C150.945 23.7947 151.174 23.3467 151.473 22.968C151.777 22.5893 152.145 22.2933 152.577 22.08C153.009 21.8613 153.499 21.752 154.049 21.752C154.545 21.752 154.969 21.8373 155.321 22.008C155.673 22.1733 155.987 22.408 156.265 22.712V18.216H157.689V30H156.841ZM154.081 28.96C154.545 28.96 154.95 28.8533 155.297 28.64C155.649 28.4267 155.971 28.1253 156.265 27.736V23.816C156.003 23.464 155.715 23.2187 155.401 23.08C155.091 22.936 154.747 22.864 154.369 22.864C153.611 22.864 153.03 23.1333 152.625 23.672C152.219 24.2107 152.017 24.9787 152.017 25.976C152.017 26.504 152.062 26.9573 152.153 27.336C152.243 27.7093 152.377 28.0187 152.553 28.264C152.729 28.504 152.945 28.68 153.201 28.792C153.457 28.904 153.75 28.96 154.081 28.96Z" fill="#494949"/>
<path fill-rule="evenodd" clip-rule="evenodd" d="M20.391 6.53817C16.9142 8.39125 14.6686 10.5016 12.9628 15.9999C12.9666 16.1355 13.1321 16.2386 13.2562 16.1824C16.5853 13.7561 18.9722 11.8329 20.5987 6.76926C20.6129 6.65315 20.5085 6.5372 20.391 6.53809V6.53817ZM13.3742 6.71664C13.3598 6.71884 13.3471 6.7232 13.3334 6.72869C10.7623 9.70522 9.43177 12.4816 9.83331 18.2222C9.8859 18.3474 10.0762 18.3839 10.1715 18.2872C12.3973 14.8289 13.9285 12.1772 13.6105 6.87055C13.5889 6.78544 13.5056 6.7236 13.419 6.71647C13.4045 6.71425 13.3885 6.71425 13.3742 6.71647V6.71664ZM7.07881 13.0394C7.03504 13.0417 6.99467 13.0561 6.96071 13.0839C5.43314 16.7029 5.02179 19.7486 7.17664 25.0886C7.26532 25.1915 7.45811 25.1693 7.51893 25.048C8.56904 21.0763 9.2077 18.085 7.26632 13.1326C7.22733 13.0706 7.15176 13.0371 7.07881 13.0394ZM18.0316 14.6413C14.3281 15.9908 11.8039 17.7697 9.34028 22.9756C9.32462 23.1102 9.47438 23.2328 9.6051 23.1946C13.2432 21.2569 15.8789 19.6875 18.2027 14.9009C18.2332 14.7879 18.1481 14.6569 18.0316 14.6414V14.6413ZM2.0262 18.5792C1.96826 18.5876 1.91559 18.6194 1.88361 18.6685C1.51916 22.577 2.04656 25.6079 5.71381 30.0566C5.82944 30.1283 6.00615 30.0446 6.0275 29.9107C5.83019 25.8083 5.53991 22.7668 2.19326 18.6238C2.1486 18.5858 2.08415 18.5707 2.0262 18.5792ZM11.2349 22.9836C11.1912 22.9859 11.1502 22.9998 11.1167 23.0282C7.77009 27.1712 7.47585 30.2168 7.27837 34.3191C7.2998 34.4529 7.47651 34.5326 7.59214 34.461C11.2594 30.0122 11.7908 26.9814 11.4264 23.0729C11.3864 23.0115 11.3077 22.9803 11.2349 22.9836ZM1.19076 26.9013C1.10389 26.8983 1.01414 26.9485 0.982977 27.0311C1.46275 30.9272 2.62973 33.7746 7.16427 37.3445C7.2926 37.3901 7.44912 37.2771 7.44136 37.1418C6.37115 33.1753 5.43231 30.2606 1.27632 26.9217C1.25043 26.9077 1.21977 26.9025 1.19076 26.9012V26.9013ZM10.1836 32.7739C10.1403 32.7796 10.1003 32.7991 10.0695 32.8307C8.95105 36.5949 8.87818 39.6703 11.6098 44.742C11.7092 44.8347 11.9009 44.7922 11.9479 44.6649C12.553 40.6023 12.8558 37.5568 10.3791 32.8468C10.3426 32.8009 10.2868 32.7768 10.2284 32.7739C10.2139 32.7716 10.198 32.7716 10.1835 32.7739H10.1836ZM-0.157934 34.8992C-0.258732 34.9088 -0.351867 34.9994 -0.353516 35.1018C1.42609 38.6048 3.49489 40.8918 8.97751 42.7183C9.11375 42.7183 9.21834 42.5551 9.16494 42.4304C6.80601 39.0608 4.93064 36.6403 -0.117136 34.9031C-0.131807 34.9009 -0.143511 34.8975 -0.157934 34.8992ZM13.9242 42.3614C13.8517 42.3702 13.7822 42.4159 13.7531 42.4832C14.0496 46.3974 15.0791 49.2958 19.4413 53.0724C19.5673 53.1238 19.728 53.0132 19.7266 52.8777C18.8435 48.8658 18.0455 45.9143 14.0504 42.3858C14.0126 42.3634 13.9676 42.3562 13.9242 42.3614ZM4.12461 42.9818C4.00707 42.9779 3.90133 43.0925 3.9127 43.2089C6.0763 46.4909 8.38849 48.5321 14.0424 49.7343C14.1778 49.7186 14.2644 49.5441 14.1972 49.4262C11.4731 46.3415 9.33648 44.1439 4.12461 42.9818ZM9.41337 50.363C8.46127 50.3697 7.42797 50.4616 6.27591 50.655C6.16565 50.6957 6.11117 50.8395 6.16588 50.9431C9.41486 53.168 12.3278 54.1907 18.0191 53.1777C18.1385 53.1122 18.1546 52.9168 18.0478 52.8329C15.1624 51.402 12.814 50.3387 9.41337 50.363Z" fill="#808080"/>
<g clip-path="url(#clip1)">
<path d="M67.9171 39H54V53H67.9171V39Z" fill="#808080"/>
<path d="M82.9942 39H69.0771V53H82.9942V39Z" fill="#808080"/>
<path d="M98.0704 39H84.1533V53H98.0704V39Z" fill="#808080"/>
<path d="M113.148 39H99.2305V53H113.148V39Z" fill="#808080"/>
<path d="M128.225 39H114.308V53H128.225V39Z" fill="#808080"/>
<path d="M60.9589 48.4352L63.0754 47.8956L63.9597 50.6373L60.9589 48.4352ZM65.8298 44.8915H62.1041L60.9589 41.3623L59.8136 44.8915H56.0879L59.1033 47.079L57.958 50.6081L60.9734 48.4206L62.829 47.079L65.8298 44.8915Z" fill="white"/>
<path d="M76.035 48.4352L78.1516 47.8956L79.0359 50.6373L76.035 48.4352ZM80.906 44.8915H77.1803L76.035 41.3623L74.8898 44.8915H71.1641L74.1794 47.079L73.0342 50.6081L76.0495 48.4206L77.9051 47.079L80.906 44.8915Z" fill="white"/>
<path d="M91.1122 48.4352L93.2287 47.8956L94.1131 50.6373L91.1122 48.4352ZM95.9832 44.8915H92.2574L91.1122 41.3623L89.9669 44.8915H86.2412L89.2566 47.079L88.1113 50.6081L91.1267 48.4206L92.9823 47.079L95.9832 44.8915Z" fill="white"/>
<path d="M106.189 48.4352L108.306 47.8956L109.19 50.6373L106.189 48.4352ZM111.06 44.8915H107.335L106.189 41.3623L105.044 44.8915H101.318L104.334 47.079L103.188 50.6081L106.204 48.4206L108.059 47.079L111.06 44.8915Z" fill="white"/>
<path d="M121.266 48.4352L123.382 47.8956L124.266 50.6373L121.266 48.4352ZM126.136 44.8915H122.411L121.266 41.3623L120.12 44.8915H116.395L119.41 47.079L118.265 50.6081L121.28 48.4206L123.136 47.079L126.136 44.8915Z" fill="white"/>
</g>
</g>
<defs>
<clipPath id="clip0">
<rect width="183" height="62" fill="white"/>
</clipPath>
<clipPath id="clip1">
<rect width="74.2243" height="14" fill="white" transform="translate(54 39)"/>
</clipPath>
</defs>
</svg>
