<svg width="69" height="13" viewBox="0 0 69 13" fill="none" xmlns="http://www.w3.org/2000/svg">
<path d="M7 0L5.06619 4.02845L0.342604 4.49139L3.87102 7.44405L2.8855 11.7586L7 9.555L11.1145 11.7586L10.129 7.44405L13.6574 4.49139L8.93381 4.02845L7 0Z" fill="#1BD27F"/>
<path d="M21 0L19.0662 4.02845L14.3426 4.49139L17.871 7.44405L16.8855 11.7586L21 9.555L25.1145 11.7586L24.129 7.44405L27.6574 4.49139L22.9338 4.02845L21 0Z" fill="#1BD27F"/>
<path d="M34.5 0L32.7043 4.02845L28.3181 4.49139L31.5945 7.44405L30.6794 11.7586L34.5 9.555L38.3206 11.7586L37.4055 7.44405L40.6819 4.49139L36.2957 4.02845L34.5 0Z" fill="#1BD27F"/>
<path d="M48 0L46.0662 4.02845L41.3426 4.49139L44.871 7.44405L43.8855 11.7586L48 9.555L52.1145 11.7586L51.129 7.44405L54.6574 4.49139L49.9338 4.02845L48 0Z" fill="#1BD27F"/>
<path d="M62 0L60.0662 4.02845L55.3426 4.49139L58.871 7.44405L57.8855 11.7586L62 9.555L66.1145 11.7586L65.129 7.44405L68.6574 4.49139L63.9338 4.02845L62 0Z" fill="#1BD27F"/>
</svg>
