<svg width="76" height="33" viewBox="0 0 76 33" fill="none" xmlns="http://www.w3.org/2000/svg">
<path d="M20.4379 6.38867H27.9292V7.77157H24.9796V15.5672H23.3628V7.77157H20.4255L20.4379 6.38867ZM27.6084 8.92195H28.9906V10.2069H29.0153C29.0647 10.0234 29.1511 9.85204 29.2745 9.68071C29.3979 9.50938 29.546 9.35028 29.7311 9.21566C29.9039 9.0688 30.1014 8.95866 30.3235 8.873C30.5333 8.78733 30.7555 8.73838 30.9776 8.73838C31.1504 8.73838 31.2738 8.75062 31.3355 8.75062C31.3972 8.76285 31.4713 8.77509 31.533 8.77509V10.1825C31.4343 10.158 31.3232 10.1458 31.2121 10.1335C31.101 10.1213 31.0023 10.109 30.8912 10.109C30.6444 10.109 30.4099 10.158 30.1878 10.2559C29.9656 10.3538 29.7805 10.5007 29.6077 10.6842C29.4473 10.88 29.3115 11.1126 29.2128 11.394C29.114 11.6755 29.0647 12.0059 29.0647 12.3731V15.5305H27.5837L27.6084 8.92195ZM38.3209 15.5672H36.8646V14.6371H36.8399C36.6548 14.9798 36.3833 15.2368 36.0254 15.4448C35.6674 15.6529 35.2972 15.7508 34.9269 15.7508C34.0507 15.7508 33.4089 15.5427 33.014 15.1022C32.6191 14.6738 32.4216 14.013 32.4216 13.1441V8.92195H33.9026V12.9972C33.9026 13.5846 34.0137 14.0007 34.2482 14.2333C34.4703 14.478 34.7912 14.6004 35.1985 14.6004C35.507 14.6004 35.7662 14.5515 35.976 14.4535C36.1858 14.3556 36.3586 14.2333 36.482 14.0742C36.6178 13.9151 36.7041 13.7193 36.7658 13.499C36.8276 13.2787 36.8522 13.0339 36.8522 12.7769V8.92195H38.3332V15.5672H38.3209ZM40.8386 13.4378C40.888 13.8661 41.0484 14.1598 41.3322 14.3434C41.6161 14.5147 41.9617 14.6004 42.3566 14.6004C42.4924 14.6004 42.6528 14.5882 42.8256 14.5637C42.9984 14.5392 43.1712 14.5025 43.3193 14.4413C43.4797 14.3801 43.6031 14.2945 43.7018 14.1721C43.8006 14.0497 43.8499 13.9028 43.8376 13.7193C43.8253 13.5357 43.7635 13.3766 43.6278 13.2542C43.492 13.1318 43.3316 13.0462 43.1341 12.9605C42.9367 12.8871 42.7022 12.8259 42.443 12.7769C42.1838 12.728 41.9246 12.6668 41.6531 12.6056C41.3816 12.5444 41.1101 12.471 40.8509 12.3853C40.5918 12.2997 40.3696 12.1895 40.1598 12.0304C39.9623 11.8836 39.7895 11.7 39.6785 11.4675C39.5551 11.2349 39.4933 10.9657 39.4933 10.623C39.4933 10.2559 39.5797 9.96218 39.7649 9.71742C39.9376 9.47266 40.1721 9.27685 40.4437 9.13C40.7152 8.98314 41.0237 8.873 41.3569 8.81181C41.6902 8.75062 42.011 8.72614 42.3072 8.72614C42.6528 8.72614 42.986 8.76285 43.2946 8.83628C43.6031 8.90971 43.8993 9.01985 44.1461 9.19119C44.4053 9.35028 44.6151 9.57056 44.7756 9.82756C44.9483 10.0846 45.0471 10.4028 45.0964 10.7699H43.5537C43.4797 10.415 43.3193 10.1825 43.0724 10.0601C42.8132 9.93771 42.5294 9.87652 42.1962 9.87652C42.0974 9.87652 41.9617 9.88875 41.8259 9.90099C41.6778 9.92547 41.5544 9.94995 41.4186 9.9989C41.2952 10.0479 41.1842 10.1213 41.0978 10.2069C41.0114 10.2926 40.962 10.415 40.962 10.5618C40.962 10.7454 41.0237 10.88 41.1471 10.9902C41.2705 11.1003 41.431 11.186 41.6408 11.2717C41.8383 11.3451 42.0727 11.4063 42.3319 11.4552C42.5911 11.5042 42.8626 11.5654 43.1341 11.6266C43.4056 11.6877 43.6648 11.7612 43.924 11.8468C44.1832 11.9325 44.4177 12.0427 44.6151 12.2017C44.8126 12.3486 44.9854 12.5322 45.1088 12.7525C45.2322 12.9727 45.2939 13.2542 45.2939 13.5724C45.2939 13.964 45.2075 14.2945 45.0224 14.5759C44.8373 14.8452 44.6028 15.0777 44.3189 15.249C44.0351 15.4204 43.7018 15.5427 43.3563 15.6284C42.9984 15.7018 42.6528 15.7508 42.3072 15.7508C41.8876 15.7508 41.4927 15.7018 41.1348 15.6039C40.7769 15.506 40.456 15.3592 40.1968 15.1756C39.9376 14.9798 39.7278 14.7473 39.5797 14.4535C39.4316 14.1721 39.3452 13.8294 39.3329 13.4256H40.8262V13.4378H40.8386ZM45.7135 8.92195H46.8366V6.91491H48.3176V8.90971H49.6505V9.9989H48.3176V13.5479C48.3176 13.707 48.33 13.8294 48.3423 13.9518C48.3546 14.0619 48.3917 14.1598 48.4287 14.2333C48.4781 14.3067 48.5521 14.3679 48.6385 14.4046C48.7372 14.4413 48.8606 14.4658 49.0334 14.4658C49.1322 14.4658 49.2432 14.4658 49.342 14.4535C49.4407 14.4413 49.5518 14.4291 49.6505 14.4046V15.5427C49.4901 15.5672 49.3296 15.5794 49.1692 15.5917C49.0087 15.6162 48.8606 15.6162 48.6879 15.6162C48.2929 15.6162 47.9844 15.5795 47.7499 15.506C47.5154 15.4326 47.3303 15.3225 47.1945 15.1878C47.0588 15.041 46.9724 14.8696 46.923 14.6616C46.8736 14.4535 46.849 14.1965 46.8366 13.9273V10.0111H45.7135V8.89747V8.92195ZM50.6872 8.92195H52.0818V9.82756H52.1065C52.3163 9.43594 52.6002 9.16671 52.9704 8.99538C53.3406 8.82404 53.7356 8.73838 54.1799 8.73838C54.7106 8.73838 55.1672 8.82404 55.5621 9.01985C55.9571 9.20342 56.278 9.44818 56.5371 9.77861C56.7963 10.0968 56.9938 10.4762 57.1172 10.9045C57.2406 11.3328 57.3147 11.7979 57.3147 12.2752C57.3147 12.728 57.2529 13.1563 57.1419 13.5724C57.0185 13.9885 56.8457 14.3679 56.6112 14.6861C56.3767 15.0043 56.0805 15.2613 55.7102 15.4571C55.34 15.6529 54.9204 15.7508 54.4267 15.7508C54.2169 15.7508 53.9948 15.7263 53.785 15.6896C53.5751 15.6529 53.3653 15.5917 53.1679 15.506C52.9704 15.4204 52.7853 15.3102 52.6248 15.1756C52.4521 15.041 52.3163 14.8819 52.2052 14.7105H52.1805V18.0271H50.6995V8.92195H50.6872ZM55.8583 12.2507C55.8583 11.957 55.8213 11.6633 55.7349 11.3818C55.6609 11.1003 55.5375 10.8556 55.377 10.6353C55.2166 10.415 55.0191 10.2437 54.797 10.109C54.5625 9.97442 54.291 9.91323 53.9948 9.91323C53.3777 9.91323 52.9087 10.1213 52.5878 10.5496C52.2793 10.9779 52.1188 11.5531 52.1188 12.2629C52.1188 12.6056 52.1559 12.9116 52.2422 13.193C52.3286 13.4745 52.4397 13.7193 52.6125 13.9273C52.7729 14.1354 52.9704 14.2945 53.2049 14.4168C53.4394 14.5392 53.6986 14.6004 54.0071 14.6004C54.3527 14.6004 54.6242 14.527 54.8587 14.3924C55.0932 14.2577 55.2783 14.0742 55.4387 13.8661C55.5868 13.6458 55.6979 13.4011 55.7596 13.1196C55.8213 12.8259 55.8583 12.5444 55.8583 12.2507ZM58.4624 6.38867H59.9434V7.77157H58.4624V6.38867ZM58.4624 8.92195H59.9434V15.5672H58.4624V8.92195ZM61.264 6.38867H62.745V15.5672H61.264V6.38867ZM67.262 15.7508C66.7313 15.7508 66.25 15.6651 65.8304 15.4815C65.4108 15.298 65.0652 15.0655 64.769 14.7595C64.4851 14.4535 64.263 14.0742 64.1149 13.6458C63.9668 13.2175 63.8804 12.7402 63.8804 12.2385C63.8804 11.7367 63.9544 11.2717 64.1149 10.8433C64.263 10.415 64.4851 10.0478 64.769 9.72966C65.0529 9.42371 65.4108 9.17895 65.8304 9.00762C66.25 8.83628 66.7313 8.73838 67.262 8.73838C67.7927 8.73838 68.274 8.82404 68.6936 9.00762C69.1133 9.17895 69.4588 9.42371 69.755 9.72966C70.0389 10.0356 70.261 10.415 70.4091 10.8433C70.5572 11.2717 70.6436 11.7367 70.6436 12.2385C70.6436 12.7525 70.5696 13.2175 70.4091 13.6458C70.2487 14.0742 70.0389 14.4413 69.755 14.7595C69.4712 15.0655 69.1133 15.3102 68.6936 15.4815C68.274 15.6529 67.805 15.7508 67.262 15.7508ZM67.262 14.5882C67.5829 14.5882 67.8791 14.5147 68.1136 14.3801C68.3604 14.2455 68.5455 14.0619 68.706 13.8416C68.8664 13.6214 68.9775 13.3644 69.0515 13.0951C69.1256 12.8136 69.1626 12.5322 69.1626 12.2385C69.1626 11.957 69.1256 11.6755 69.0515 11.394C68.9775 11.1126 68.8664 10.8678 68.706 10.6475C68.5455 10.4272 68.3481 10.2559 68.1136 10.1213C67.8667 9.98666 67.5829 9.91323 67.262 9.91323C66.9411 9.91323 66.6449 9.98666 66.4104 10.1213C66.1636 10.2559 65.9785 10.4395 65.818 10.6475C65.6576 10.8678 65.5465 11.1126 65.4725 11.394C65.3984 11.6755 65.3614 11.957 65.3614 12.2385C65.3614 12.5322 65.3984 12.8136 65.4725 13.0951C65.5465 13.3766 65.6576 13.6214 65.818 13.8416C65.9785 14.0619 66.1759 14.2455 66.4104 14.3801C66.6573 14.527 66.9411 14.5882 67.262 14.5882ZM71.0879 8.92195H72.211V6.91491H73.692V8.90971H75.0249V9.9989H73.692V13.5479C73.692 13.707 73.7043 13.8294 73.7167 13.9518C73.729 14.0619 73.766 14.1598 73.8031 14.2333C73.8524 14.3067 73.9265 14.3679 74.0129 14.4046C74.1116 14.4413 74.235 14.4658 74.4078 14.4658C74.5065 14.4658 74.6176 14.4658 74.7163 14.4535C74.8151 14.4413 74.9262 14.4291 75.0249 14.4046V15.5427C74.8644 15.5672 74.704 15.5794 74.5436 15.5917C74.3831 15.6162 74.235 15.6162 74.0622 15.6162C73.6673 15.6162 73.3588 15.5795 73.1243 15.506C72.8898 15.4326 72.7047 15.3225 72.5689 15.1878C72.4331 15.041 72.3468 14.8696 72.2974 14.6616C72.248 14.4535 72.2233 14.1965 72.211 13.9273V10.0111H71.0879V8.89747V8.92195Z" fill="#808080"/>
<path d="M18.71 6.38827H11.9345L9.84872 0L7.75064 6.38827L0.975098 6.37603L6.45478 10.3289L4.3567 16.7172L9.83638 12.7643L15.3161 16.7172L13.2303 10.3289L18.71 6.38827Z" fill="#808080"/>
<path d="M13.6993 11.7732L13.2304 10.3291L9.84875 12.7645L13.6993 11.7732Z" fill="#262626"/>
<path d="M17.1855 29.8487H17.9874V30.7789C17.9874 30.8609 17.9589 30.9321 17.9018 30.9927C17.8484 31.0533 17.77 31.0836 17.6666 31.0836H17.1855V32.8745H15.7421V31.0836H12.6094C12.5061 31.0836 12.4116 31.0515 12.3261 30.9874C12.2441 30.9232 12.1925 30.843 12.1711 30.7468L12 29.9289L15.6031 25.0855H17.1855V29.8487ZM15.7421 27.8173C15.7421 27.6925 15.7457 27.5589 15.7528 27.4163C15.7635 27.2702 15.7777 27.1205 15.7956 26.9673L13.7374 29.8487H15.7421V27.8173Z" fill="#808080"/>
<path d="M18.4907 32.0352C18.4907 31.9069 18.5139 31.7875 18.5602 31.677C18.6101 31.5665 18.676 31.4703 18.758 31.3883C18.8435 31.3063 18.9433 31.2422 19.0574 31.1959C19.1714 31.146 19.2962 31.121 19.4316 31.121C19.5635 31.121 19.6864 31.146 19.8005 31.1959C19.9145 31.2422 20.0143 31.3063 20.0998 31.3883C20.1854 31.4703 20.2513 31.5665 20.2976 31.677C20.3475 31.7875 20.3725 31.9069 20.3725 32.0352C20.3725 32.1635 20.3475 32.2846 20.2976 32.3987C20.2513 32.5092 20.1854 32.6054 20.0998 32.6874C20.0143 32.7693 19.9145 32.8335 19.8005 32.8798C19.6864 32.9261 19.5635 32.9493 19.4316 32.9493C19.2962 32.9493 19.1714 32.9261 19.0574 32.8798C18.9433 32.8335 18.8435 32.7693 18.758 32.6874C18.676 32.6054 18.6101 32.5092 18.5602 32.3987C18.5139 32.2846 18.4907 32.1635 18.4907 32.0352Z" fill="#808080"/>
<path d="M23.4338 29.838C23.1808 29.838 22.9277 29.7935 22.6747 29.7044C22.4217 29.6117 22.1918 29.4727 21.9851 29.2874C21.7819 29.1021 21.6162 28.8686 21.4879 28.5871C21.3596 28.3055 21.2955 27.9723 21.2955 27.5874C21.2955 27.2346 21.3596 26.9013 21.4879 26.5877C21.6198 26.2741 21.8051 25.9997 22.0439 25.7645C22.2862 25.5292 22.5749 25.3439 22.9099 25.2085C23.2449 25.0695 23.6191 25 24.0325 25C24.4531 25 24.8291 25.0642 25.1605 25.1925C25.492 25.3208 25.7717 25.5007 25.9998 25.7324C26.2315 25.964 26.4079 26.2402 26.5291 26.561C26.6538 26.8782 26.7162 27.2292 26.7162 27.6141C26.7162 27.8707 26.6948 28.1113 26.652 28.3358C26.6128 28.5603 26.5558 28.776 26.481 28.9827C26.4097 29.1858 26.3224 29.3818 26.219 29.5707C26.1157 29.756 25.9998 29.9396 25.8715 30.1213L24.1929 32.5056C24.1216 32.609 24.0094 32.6963 23.8561 32.7675C23.7029 32.8388 23.53 32.8745 23.3376 32.8745H21.8087L24.2785 29.9235C24.3284 29.863 24.3747 29.8059 24.4175 29.7525C24.4638 29.6955 24.5083 29.6384 24.5511 29.5814C24.3907 29.6669 24.2161 29.7311 24.0272 29.7739C23.8383 29.8166 23.6405 29.838 23.4338 29.838ZM25.1338 27.4644C25.1338 27.2756 25.1053 27.1098 25.0483 26.9673C24.9948 26.8212 24.9182 26.7 24.8184 26.6038C24.7222 26.5075 24.6046 26.4345 24.4656 26.3846C24.3266 26.3347 24.1751 26.3097 24.0112 26.3097C23.8437 26.3097 23.694 26.34 23.5621 26.4006C23.4338 26.4576 23.3233 26.5378 23.2307 26.6412C23.1416 26.7445 23.0721 26.8675 23.0222 27.01C22.9759 27.149 22.9527 27.3005 22.9527 27.4644C22.9527 28.2414 23.3126 28.6298 24.0325 28.6298C24.3854 28.6298 24.6562 28.5247 24.8451 28.3144C25.0376 28.1006 25.1338 27.8173 25.1338 27.4644Z" fill="#808080"/>
<path d="M31.9384 27.3736C32.334 27.3736 32.6904 27.4395 33.0076 27.5714C33.3283 27.7032 33.5992 27.8903 33.8202 28.1327C34.0447 28.375 34.2158 28.669 34.3334 29.0147C34.4545 29.3569 34.5151 29.74 34.5151 30.1641C34.5151 30.5918 34.4545 30.9767 34.3334 31.3188C34.2158 31.661 34.0447 31.9532 33.8202 32.1955C33.5992 32.4379 33.3283 32.625 33.0076 32.7569C32.6904 32.8852 32.334 32.9493 31.9384 32.9493C31.5428 32.9493 31.1847 32.8852 30.8639 32.7569C30.5467 32.625 30.2759 32.4379 30.0513 32.1955C29.8268 31.9532 29.654 31.661 29.5328 31.3188C29.4116 30.9767 29.351 30.5918 29.351 30.1641C29.351 29.74 29.4116 29.3569 29.5328 29.0147C29.654 28.669 29.8268 28.375 30.0513 28.1327C30.2759 27.8903 30.5467 27.7032 30.8639 27.5714C31.1847 27.4395 31.5428 27.3736 31.9384 27.3736ZM31.9384 32.2062C32.473 32.2062 32.8722 32.028 33.1359 31.6716C33.3996 31.3117 33.5315 30.811 33.5315 30.1695C33.5315 29.5244 33.3996 29.0219 33.1359 28.6619C32.8722 28.302 32.473 28.122 31.9384 28.122C31.6676 28.122 31.4323 28.1683 31.2328 28.261C31.0332 28.3536 30.8657 28.4873 30.7303 28.6619C30.5984 28.8366 30.4986 29.0522 30.4309 29.3088C30.3667 29.5618 30.3347 29.8487 30.3347 30.1695C30.3347 30.4902 30.3667 30.7771 30.4309 31.0301C30.4986 31.2832 30.5984 31.497 30.7303 31.6716C30.8657 31.8427 31.0332 31.9746 31.2328 32.0672C31.4323 32.1599 31.6676 32.2062 31.9384 32.2062Z" fill="#808080"/>
<path d="M36.5109 27.4591V30.9125C36.5109 31.3224 36.6053 31.6396 36.7942 31.8641C36.9831 32.0886 37.2682 32.2009 37.6496 32.2009C37.9275 32.2009 38.1895 32.135 38.4354 32.0031C38.6813 31.8712 38.9076 31.6877 39.1143 31.4525V27.4591H40.0659V32.8745H39.4992C39.3638 32.8745 39.2783 32.8085 39.2426 32.6767L39.1678 32.094C38.9326 32.3541 38.6688 32.5644 38.3766 32.7248C38.0844 32.8816 37.7494 32.96 37.3716 32.96C37.0758 32.96 36.8138 32.9119 36.5857 32.8157C36.3612 32.7159 36.1723 32.5769 36.0191 32.3987C35.8658 32.2205 35.75 32.0049 35.6716 31.7518C35.5968 31.4988 35.5593 31.219 35.5593 30.9125V27.4591H36.5109Z" fill="#808080"/>
<path d="M43.2698 32.96C42.8422 32.96 42.5125 32.8406 42.2808 32.6018C42.0527 32.363 41.9387 32.0191 41.9387 31.5701V28.2556H41.2865C41.2295 28.2556 41.1814 28.2396 41.1422 28.2075C41.103 28.1719 41.0834 28.1184 41.0834 28.0471V27.6676L41.9708 27.5553L42.19 25.8821C42.1971 25.8286 42.2203 25.7858 42.2595 25.7538C42.2987 25.7181 42.3486 25.7003 42.4091 25.7003H42.8903V27.566H44.4406V28.2556H42.8903V31.5059C42.8903 31.734 42.9455 31.9033 43.056 32.0138C43.1665 32.1243 43.309 32.1795 43.4837 32.1795C43.5835 32.1795 43.669 32.167 43.7403 32.1421C43.8151 32.1136 43.8793 32.0833 43.9327 32.0512C43.9862 32.0191 44.0307 31.9906 44.0664 31.9657C44.1056 31.9372 44.1394 31.9229 44.1679 31.9229C44.2178 31.9229 44.2624 31.9532 44.3016 32.0138L44.5796 32.4682C44.4156 32.6214 44.2178 32.7426 43.9862 32.8317C43.7545 32.9172 43.5157 32.96 43.2698 32.96Z" fill="#808080"/>
<path d="M49.8763 27.3736C50.2719 27.3736 50.6283 27.4395 50.9455 27.5714C51.2662 27.7032 51.5371 27.8903 51.7581 28.1327C51.9826 28.375 52.1537 28.669 52.2713 29.0147C52.3924 29.3569 52.453 29.74 52.453 30.1641C52.453 30.5918 52.3924 30.9767 52.2713 31.3188C52.1537 31.661 51.9826 31.9532 51.7581 32.1955C51.5371 32.4379 51.2662 32.625 50.9455 32.7569C50.6283 32.8852 50.2719 32.9493 49.8763 32.9493C49.4807 32.9493 49.1225 32.8852 48.8018 32.7569C48.4846 32.625 48.2138 32.4379 47.9892 32.1955C47.7647 31.9532 47.5919 31.661 47.4707 31.3188C47.3495 30.9767 47.2889 30.5918 47.2889 30.1641C47.2889 29.74 47.3495 29.3569 47.4707 29.0147C47.5919 28.669 47.7647 28.375 47.9892 28.1327C48.2138 27.8903 48.4846 27.7032 48.8018 27.5714C49.1225 27.4395 49.4807 27.3736 49.8763 27.3736ZM49.8763 32.2062C50.4109 32.2062 50.8101 32.028 51.0738 31.6716C51.3375 31.3117 51.4694 30.811 51.4694 30.1695C51.4694 29.5244 51.3375 29.0219 51.0738 28.6619C50.8101 28.302 50.4109 28.122 49.8763 28.122C49.6055 28.122 49.3702 28.1683 49.1707 28.261C48.9711 28.3536 48.8036 28.4873 48.6682 28.6619C48.5363 28.8366 48.4365 29.0522 48.3688 29.3088C48.3046 29.5618 48.2726 29.8487 48.2726 30.1695C48.2726 30.4902 48.3046 30.7771 48.3688 31.0301C48.4365 31.2832 48.5363 31.497 48.6682 31.6716C48.8036 31.8427 48.9711 31.9746 49.1707 32.0672C49.3702 32.1599 49.6055 32.2062 49.8763 32.2062Z" fill="#808080"/>
<path d="M53.8394 32.8745V28.2717L53.2406 28.2022C53.1658 28.1844 53.1034 28.1576 53.0535 28.122C53.0072 28.0828 52.984 28.0275 52.984 27.9563V27.566H53.8394V27.0421C53.8394 26.7321 53.8821 26.4576 53.9677 26.2189C54.0568 25.9765 54.1815 25.7734 54.3419 25.6094C54.5058 25.4419 54.7018 25.3154 54.9299 25.2299C55.158 25.1443 55.4146 25.1016 55.6997 25.1016C55.9421 25.1016 56.1666 25.1372 56.3733 25.2085L56.3519 25.6843C56.3484 25.7555 56.3181 25.7983 56.261 25.8126C56.204 25.8268 56.1238 25.834 56.0205 25.834H55.8548C55.6908 25.834 55.5411 25.8553 55.4057 25.8981C55.2738 25.9409 55.1598 26.0104 55.0636 26.1066C54.9673 26.2028 54.8925 26.3293 54.839 26.4862C54.7891 26.643 54.7642 26.8372 54.7642 27.0689V27.566H56.3305V28.2556H54.7963V32.8745H53.8394Z" fill="#808080"/>
<path d="M63.7428 25.6308C63.7428 25.7662 63.7001 25.8785 63.6145 25.9676C63.529 26.0531 63.3847 26.0959 63.1815 26.0959H60.7759L60.423 28.106C60.8222 28.0204 61.1911 27.9776 61.5296 27.9776C61.9288 27.9776 62.2799 28.0365 62.5828 28.1541C62.8893 28.2717 63.1459 28.4338 63.3526 28.6405C63.5593 28.8472 63.7143 29.0914 63.8177 29.3729C63.9246 29.6545 63.9781 29.961 63.9781 30.2924C63.9781 30.6987 63.9068 31.0658 63.7642 31.3937C63.6217 31.7215 63.4256 32.0031 63.1762 32.2383C62.9303 32.47 62.6398 32.6482 62.3048 32.7729C61.9698 32.8976 61.608 32.96 61.2196 32.96C60.9951 32.96 60.7794 32.9368 60.5727 32.8905C60.366 32.8477 60.1736 32.7889 59.9954 32.7141C59.8172 32.6392 59.6515 32.5537 59.4982 32.4575C59.345 32.3613 59.2095 32.2597 59.0919 32.1528L59.3806 31.7465C59.4448 31.6538 59.5303 31.6075 59.6372 31.6075C59.7049 31.6075 59.7833 31.636 59.8724 31.693C59.9651 31.7465 60.0756 31.8071 60.2039 31.8748C60.3322 31.9425 60.4819 32.0049 60.6529 32.0619C60.8276 32.1154 61.0343 32.1421 61.273 32.1421C61.5403 32.1421 61.7809 32.0993 61.9947 32.0138C62.2086 31.9282 62.3903 31.8071 62.54 31.6503C62.6933 31.4899 62.8109 31.2992 62.8928 31.0783C62.9748 30.8573 63.0158 30.6096 63.0158 30.3352C63.0158 30.0964 62.9802 29.8808 62.9089 29.6883C62.8412 29.4959 62.736 29.3319 62.5935 29.1965C62.4545 29.0611 62.2799 28.9559 62.0696 28.8811C61.8593 28.8063 61.6134 28.7688 61.3318 28.7688C61.1394 28.7688 60.9398 28.7849 60.7331 28.817C60.5264 28.849 60.3126 28.9007 60.0916 28.972L59.4929 28.7956L60.113 25.2138H63.7428V25.6308Z" fill="#808080"/>
</svg>
