<svg width="117" height="22" viewBox="0 0 117 22" fill="none" xmlns="http://www.w3.org/2000/svg">
<path d="M22 0H0V22H22V0Z" fill="#00B67A"/>
<path d="M45.8333 0H23.8333V22H45.8333V0Z" fill="#00B67A"/>
<path d="M69.6668 0H47.6667V22H69.6668V0Z" fill="#00B67A"/>
<path d="M93.5 0H71.5V22H93.5V0Z" fill="#00B67A"/>
<path d="M117.333 0H95.3333V22H117.333V0Z" fill="#00B67A"/>
<path d="M10.9998 14.8275L14.3456 13.9796L15.7436 18.2879L10.9998 14.8275ZM18.6998 9.25872H12.8102L10.9998 3.71289L9.18939 9.25872H3.2998L8.06647 12.6962L6.25605 18.2421L11.0227 14.8046L13.9561 12.6962L18.6998 9.25872Z" fill="white"/>
<path d="M34.8333 14.8275L38.1791 13.9796L39.5771 18.2879L34.8333 14.8275ZM42.5333 9.25872H36.6437L34.8333 3.71289L33.0229 9.25872H27.1333L31.9 12.6962L30.0896 18.2421L34.8562 14.8046L37.7895 12.6962L42.5333 9.25872Z" fill="white"/>
<path d="M58.6668 14.8275L62.0126 13.9796L63.4105 18.2879L58.6668 14.8275ZM66.3668 9.25872H60.4772L58.6668 3.71289L56.8564 9.25872H50.9668L55.7335 12.6962L53.923 18.2421L58.6897 14.8046L61.623 12.6962L66.3668 9.25872Z" fill="white"/>
<path d="M82.5 14.8275L85.8459 13.9796L87.2438 18.2879L82.5 14.8275ZM90.2001 9.25872H84.3105L82.5 3.71289L80.6896 9.25872H74.8L79.5667 12.6962L77.7563 18.2421L82.523 14.8046L85.4563 12.6962L90.2001 9.25872Z" fill="white"/>
<path d="M106.333 14.8275L109.679 13.9796L111.077 18.2879L106.333 14.8275ZM114.033 9.25872H108.144L106.333 3.71289L104.523 9.25872H98.6333L103.4 12.6962L101.59 18.2421L106.356 14.8046L109.29 12.6962L114.033 9.25872Z" fill="white"/>
</svg>
