<svg width="298" height="31" viewBox="0 0 298 31" fill="none" xmlns="http://www.w3.org/2000/svg">
<path d="M137.616 17.0692H138.619V18.2336C138.619 18.3362 138.584 18.4254 138.512 18.5012C138.445 18.5771 138.347 18.615 138.218 18.615H137.616V20.8567H135.809V18.615H131.888C131.758 18.615 131.64 18.5748 131.533 18.4945C131.43 18.4142 131.366 18.3139 131.339 18.1934L131.125 17.1696L135.635 11.1071H137.616V17.0692ZM135.809 14.5265C135.809 14.3703 135.813 14.203 135.822 14.0246C135.836 13.8417 135.853 13.6543 135.876 13.4625L133.3 17.0692H135.809V14.5265Z" fill="#808080"/>
<path d="M139.249 19.8061C139.249 19.6455 139.278 19.4961 139.336 19.3578C139.399 19.2195 139.481 19.099 139.584 18.9964C139.691 18.8938 139.816 18.8135 139.959 18.7555C140.101 18.6931 140.258 18.6618 140.427 18.6618C140.592 18.6618 140.746 18.6931 140.889 18.7555C141.032 18.8135 141.156 18.8938 141.264 18.9964C141.371 19.099 141.453 19.2195 141.511 19.3578C141.574 19.4961 141.605 19.6455 141.605 19.8061C141.605 19.9667 141.574 20.1184 141.511 20.2611C141.453 20.3994 141.371 20.5199 141.264 20.6225C141.156 20.7251 141.032 20.8054 140.889 20.8634C140.746 20.9214 140.592 20.9504 140.427 20.9504C140.258 20.9504 140.101 20.9214 139.959 20.8634C139.816 20.8054 139.691 20.7251 139.584 20.6225C139.481 20.5199 139.399 20.3994 139.336 20.2611C139.278 20.1184 139.249 19.9667 139.249 19.8061Z" fill="#808080"/>
<path d="M145.437 17.0559C145.12 17.0559 144.803 17.0001 144.487 16.8886C144.17 16.7726 143.882 16.5986 143.623 16.3666C143.369 16.1347 143.162 15.8425 143.001 15.49C142.84 15.1376 142.76 14.7205 142.76 14.2387C142.76 13.7971 142.84 13.38 143.001 12.9874C143.166 12.5948 143.398 12.2513 143.697 11.9569C144 11.6625 144.362 11.4305 144.781 11.261C145.2 11.087 145.669 11 146.186 11C146.713 11 147.183 11.0803 147.598 11.2409C148.013 11.4015 148.363 11.6268 148.649 11.9167C148.939 12.2067 149.159 12.5524 149.311 12.9539C149.467 13.351 149.545 13.7904 149.545 14.2722C149.545 14.5934 149.519 14.8945 149.465 15.1755C149.416 15.4566 149.345 15.7265 149.251 15.9852C149.162 16.2395 149.052 16.4848 148.923 16.7213C148.794 16.9533 148.649 17.183 148.488 17.4105L146.387 20.395C146.298 20.5243 146.157 20.6336 145.965 20.7228C145.774 20.8121 145.557 20.8567 145.316 20.8567H143.403L146.494 17.1629C146.556 17.0871 146.614 17.0157 146.668 16.9488C146.726 16.8774 146.782 16.806 146.835 16.7347C146.635 16.8417 146.416 16.922 146.18 16.9756C145.943 17.0291 145.695 17.0559 145.437 17.0559ZM147.565 14.0848C147.565 13.8484 147.529 13.6409 147.458 13.4625C147.391 13.2796 147.295 13.1279 147.17 13.0075C147.049 12.887 146.902 12.7956 146.728 12.7331C146.554 12.6707 146.365 12.6394 146.159 12.6394C145.95 12.6394 145.762 12.6774 145.597 12.7532C145.437 12.8246 145.298 12.9249 145.182 13.0543C145.071 13.1837 144.984 13.3376 144.921 13.516C144.864 13.69 144.835 13.8796 144.835 14.0848C144.835 15.0573 145.285 15.5436 146.186 15.5436C146.628 15.5436 146.967 15.412 147.203 15.1488C147.444 14.8811 147.565 14.5265 147.565 14.0848Z" fill="#808080"/>
<path d="M156.082 13.9711C156.577 13.9711 157.023 14.0536 157.42 14.2186C157.822 14.3837 158.161 14.6179 158.438 14.9213C158.719 15.2246 158.933 15.5926 159.08 16.0254C159.232 16.4536 159.308 16.9332 159.308 17.464C159.308 17.9994 159.232 18.4812 159.08 18.9094C158.933 19.3377 158.719 19.7035 158.438 20.0068C158.161 20.3102 157.822 20.5444 157.42 20.7095C157.023 20.8701 156.577 20.9504 156.082 20.9504C155.587 20.9504 155.139 20.8701 154.737 20.7095C154.34 20.5444 154.001 20.3102 153.72 20.0068C153.439 19.7035 153.223 19.3377 153.071 18.9094C152.919 18.4812 152.843 17.9994 152.843 17.464C152.843 16.9332 152.919 16.4536 153.071 16.0254C153.223 15.5926 153.439 15.2246 153.72 14.9213C154.001 14.6179 154.34 14.3837 154.737 14.2186C155.139 14.0536 155.587 13.9711 156.082 13.9711ZM156.082 20.0202C156.751 20.0202 157.251 19.7972 157.581 19.3511C157.911 18.9005 158.076 18.2737 158.076 17.4707C158.076 16.6633 157.911 16.0343 157.581 15.5837C157.251 15.1332 156.751 14.9079 156.082 14.9079C155.743 14.9079 155.449 14.9659 155.199 15.0819C154.949 15.1978 154.739 15.3651 154.57 15.5837C154.405 15.8023 154.28 16.0722 154.195 16.3934C154.115 16.7101 154.075 17.0692 154.075 17.4707C154.075 17.8722 154.115 18.2313 154.195 18.5481C154.28 18.8648 154.405 19.1325 154.57 19.3511C154.739 19.5652 154.949 19.7303 155.199 19.8462C155.449 19.9622 155.743 20.0202 156.082 20.0202Z" fill="#808080"/>
<path d="M161.806 14.0781V18.4009C161.806 18.9139 161.924 19.3109 162.16 19.592C162.397 19.873 162.754 20.0135 163.231 20.0135C163.579 20.0135 163.907 19.931 164.215 19.7659C164.522 19.6009 164.806 19.3711 165.064 19.0767V14.0781H166.256V20.8567H165.546C165.377 20.8567 165.27 20.7741 165.225 20.6091L165.131 19.8797C164.837 20.2054 164.507 20.4686 164.141 20.6693C163.775 20.8656 163.356 20.9637 162.883 20.9637C162.513 20.9637 162.185 20.9035 161.899 20.7831C161.618 20.6582 161.382 20.4842 161.19 20.2611C160.998 20.0381 160.853 19.7682 160.755 19.4514C160.661 19.1347 160.615 18.7845 160.615 18.4009V14.0781H161.806Z" fill="#808080"/>
<path d="M170.266 20.9637C169.731 20.9637 169.318 20.8143 169.028 20.5154C168.743 20.2165 168.6 19.786 168.6 19.2239V15.0752H167.783C167.712 15.0752 167.652 15.0551 167.603 15.0149C167.554 14.9703 167.529 14.9034 167.529 14.8142V14.3391L168.64 14.1986L168.914 12.1041C168.923 12.0372 168.952 11.9837 169.001 11.9435C169.05 11.8989 169.113 11.8766 169.189 11.8766H169.791V14.2119H171.731V15.0752H169.791V19.1436C169.791 19.4291 169.86 19.641 169.998 19.7793C170.137 19.9176 170.315 19.9868 170.534 19.9868C170.659 19.9868 170.766 19.9712 170.855 19.9399C170.949 19.9042 171.029 19.8663 171.096 19.8262C171.163 19.786 171.218 19.7503 171.263 19.7191C171.312 19.6834 171.354 19.6656 171.39 19.6656C171.453 19.6656 171.508 19.7035 171.557 19.7793L171.905 20.3481C171.7 20.5399 171.453 20.6916 171.163 20.8031C170.873 20.9102 170.574 20.9637 170.266 20.9637Z" fill="#808080"/>
<path d="M178.536 13.9711C179.031 13.9711 179.477 14.0536 179.874 14.2186C180.275 14.3837 180.614 14.6179 180.891 14.9213C181.172 15.2246 181.386 15.5926 181.533 16.0254C181.685 16.4536 181.761 16.9332 181.761 17.464C181.761 17.9994 181.685 18.4812 181.533 18.9094C181.386 19.3377 181.172 19.7035 180.891 20.0068C180.614 20.3102 180.275 20.5444 179.874 20.7095C179.477 20.8701 179.031 20.9504 178.536 20.9504C178.04 20.9504 177.592 20.8701 177.19 20.7095C176.793 20.5444 176.454 20.3102 176.173 20.0068C175.892 19.7035 175.676 19.3377 175.524 18.9094C175.373 18.4812 175.297 17.9994 175.297 17.464C175.297 16.9332 175.373 16.4536 175.524 16.0254C175.676 15.5926 175.892 15.2246 176.173 14.9213C176.454 14.6179 176.793 14.3837 177.19 14.2186C177.592 14.0536 178.04 13.9711 178.536 13.9711ZM178.536 20.0202C179.205 20.0202 179.704 19.7972 180.034 19.3511C180.365 18.9005 180.53 18.2737 180.53 17.4707C180.53 16.6633 180.365 16.0343 180.034 15.5837C179.704 15.1332 179.205 14.9079 178.536 14.9079C178.196 14.9079 177.902 14.9659 177.652 15.0819C177.402 15.1978 177.193 15.3651 177.023 15.5837C176.858 15.8023 176.733 16.0722 176.648 16.3934C176.568 16.7101 176.528 17.0692 176.528 17.4707C176.528 17.8722 176.568 18.2313 176.648 18.5481C176.733 18.8648 176.858 19.1325 177.023 19.3511C177.193 19.5652 177.402 19.7303 177.652 19.8462C177.902 19.9622 178.196 20.0202 178.536 20.0202Z" fill="#808080"/>
<path d="M183.496 20.8567V15.0952L182.747 15.0082C182.653 14.9859 182.575 14.9525 182.512 14.9079C182.454 14.8588 182.425 14.7897 182.425 14.7004V14.2119H183.496V13.5562C183.496 13.1681 183.55 12.8246 183.657 12.5257C183.768 12.2223 183.924 11.968 184.125 11.7628C184.33 11.5532 184.576 11.3948 184.861 11.2877C185.147 11.1807 185.468 11.1271 185.825 11.1271C186.128 11.1271 186.409 11.1717 186.668 11.261L186.641 11.8565C186.637 11.9457 186.599 11.9993 186.527 12.0171C186.456 12.035 186.356 12.0439 186.226 12.0439H186.019C185.814 12.0439 185.626 12.0706 185.457 12.1242C185.292 12.1777 185.149 12.2647 185.029 12.3852C184.908 12.5056 184.814 12.664 184.747 12.8603C184.685 13.0565 184.654 13.2997 184.654 13.5896V14.2119H186.614V15.0752H184.694V20.8567H183.496Z" fill="#808080"/>
<path d="M195.893 11.7896C195.893 11.9591 195.839 12.0996 195.732 12.2112C195.625 12.3182 195.444 12.3718 195.19 12.3718H192.179L191.737 14.8878C192.237 14.7807 192.698 14.7272 193.122 14.7272C193.622 14.7272 194.061 14.8008 194.441 14.948C194.824 15.0952 195.145 15.2982 195.404 15.557C195.663 15.8157 195.857 16.1213 195.986 16.4737C196.12 16.8261 196.187 17.2098 196.187 17.6246C196.187 18.1332 196.098 18.5927 195.919 19.0031C195.741 19.4135 195.496 19.7659 195.183 20.0604C194.875 20.3503 194.512 20.5734 194.093 20.7295C193.673 20.8857 193.22 20.9637 192.734 20.9637C192.453 20.9637 192.183 20.9347 191.924 20.8767C191.666 20.8232 191.425 20.7496 191.202 20.6559C190.979 20.5622 190.771 20.4552 190.579 20.3347C190.388 20.2143 190.218 20.0871 190.071 19.9533L190.432 19.4447C190.513 19.3288 190.62 19.2708 190.753 19.2708C190.838 19.2708 190.936 19.3065 191.048 19.3778C191.164 19.4447 191.302 19.5206 191.463 19.6053C191.623 19.6901 191.811 19.7682 192.025 19.8396C192.243 19.9065 192.502 19.9399 192.801 19.9399C193.136 19.9399 193.437 19.8864 193.704 19.7793C193.972 19.6723 194.2 19.5206 194.387 19.3243C194.579 19.1236 194.726 18.8849 194.829 18.6083C194.931 18.3317 194.983 18.0217 194.983 17.6782C194.983 17.3793 194.938 17.1094 194.849 16.8685C194.764 16.6276 194.632 16.4224 194.454 16.2529C194.28 16.0834 194.061 15.9518 193.798 15.8581C193.535 15.7644 193.227 15.7175 192.875 15.7175C192.634 15.7175 192.384 15.7376 192.125 15.7778C191.866 15.8179 191.599 15.8826 191.322 15.9718L190.573 15.751L191.349 11.2677H195.893V11.7896Z" fill="#808080"/>
<path d="M203.42 13.9711C203.915 13.9711 204.361 14.0536 204.758 14.2186C205.16 14.3837 205.499 14.6179 205.775 14.9213C206.056 15.2246 206.27 15.5926 206.418 16.0254C206.569 16.4536 206.645 16.9332 206.645 17.464C206.645 17.9994 206.569 18.4812 206.418 18.9094C206.27 19.3377 206.056 19.7035 205.775 20.0068C205.499 20.3102 205.16 20.5444 204.758 20.7095C204.361 20.8701 203.915 20.9504 203.42 20.9504C202.925 20.9504 202.476 20.8701 202.075 20.7095C201.678 20.5444 201.339 20.3102 201.058 20.0068C200.777 19.7035 200.56 19.3377 200.409 18.9094C200.257 18.4812 200.181 17.9994 200.181 17.464C200.181 16.9332 200.257 16.4536 200.409 16.0254C200.56 15.5926 200.777 15.2246 201.058 14.9213C201.339 14.6179 201.678 14.3837 202.075 14.2186C202.476 14.0536 202.925 13.9711 203.42 13.9711ZM203.42 20.0202C204.089 20.0202 204.589 19.7972 204.919 19.3511C205.249 18.9005 205.414 18.2737 205.414 17.4707C205.414 16.6633 205.249 16.0343 204.919 15.5837C204.589 15.1332 204.089 14.9079 203.42 14.9079C203.081 14.9079 202.786 14.9659 202.536 15.0819C202.287 15.1978 202.077 15.3651 201.907 15.5837C201.742 15.8023 201.617 16.0722 201.533 16.3934C201.452 16.7101 201.412 17.0692 201.412 17.4707C201.412 17.8722 201.452 18.2313 201.533 18.5481C201.617 18.8648 201.742 19.1325 201.907 19.3511C202.077 19.5652 202.287 19.7303 202.536 19.8462C202.786 19.9622 203.081 20.0202 203.42 20.0202Z" fill="#808080"/>
<path d="M208.113 20.8567V14.0781H208.822C208.992 14.0781 209.099 14.1606 209.143 14.3257L209.237 15.0618C209.531 14.7361 209.859 14.4729 210.221 14.2722C210.586 14.0714 211.008 13.9711 211.485 13.9711C211.856 13.9711 212.181 14.0335 212.462 14.1584C212.748 14.2789 212.984 14.4528 213.172 14.6804C213.363 14.9034 213.508 15.1733 213.606 15.49C213.705 15.8068 213.754 16.157 213.754 16.5406V20.8567H212.563V16.5406C212.563 16.0276 212.444 15.6306 212.208 15.3495C211.976 15.064 211.619 14.9213 211.137 14.9213C210.785 14.9213 210.455 15.006 210.147 15.1755C209.844 15.3451 209.563 15.5748 209.304 15.8648V20.8567H208.113Z" fill="#808080"/>
<g clip-path="url(#clip0)">
<path d="M23.0859 4H0V27.2235H23.0859V4Z" fill="#808080"/>
<path d="M48.0956 4H25.0097V27.2235H48.0956V4Z" fill="#808080"/>
<path d="M73.1053 4H50.0194V27.2235H73.1053V4Z" fill="#808080"/>
<path d="M98.1151 4H75.0292V27.2235H98.1151V4Z" fill="#808080"/>
<path d="M123.125 4H100.039V27.2235H123.125V4Z" fill="#808080"/>
<path d="M11.543 19.6516L15.054 18.7566L16.5209 23.3045L11.543 19.6516ZM19.623 13.7732H13.4428L11.543 7.91895L9.64321 13.7732H3.46292L8.46487 17.4019L6.56509 23.2561L11.567 19.6274L14.6452 17.4019L19.623 13.7732Z" fill="white"/>
<path d="M36.5527 19.6516L40.0637 18.7566L41.5306 23.3045L36.5527 19.6516ZM44.6328 13.7732H38.4525L36.5527 7.91895L34.6529 13.7732H28.4726L33.4746 17.4019L31.5748 23.2561L36.5768 19.6274L39.6549 17.4019L44.6328 13.7732Z" fill="white"/>
<path d="M61.5624 19.6516L65.0734 18.7566L66.5403 23.3045L61.5624 19.6516ZM69.6425 13.7732H63.4622L61.5624 7.91895L59.6627 13.7732H53.4824L58.4843 17.4019L56.5845 23.2561L61.5865 19.6274L64.6646 17.4019L69.6425 13.7732Z" fill="white"/>
<path d="M86.5722 19.6516L90.0831 18.7566L91.5501 23.3045L86.5722 19.6516ZM94.6522 13.7732H88.4719L86.5722 7.91895L84.6724 13.7732H78.4921L83.494 17.4019L81.5942 23.2561L86.5962 19.6274L89.6743 17.4019L94.6522 13.7732Z" fill="white"/>
<path d="M111.582 19.6516L115.093 18.7566L116.56 23.3045L111.582 19.6516ZM119.662 13.7732H113.482L111.582 7.91895L109.682 13.7732H103.502L108.504 17.4019L106.604 23.2561L111.606 19.6274L114.684 17.4019L119.662 13.7732Z" fill="white"/>
</g>
<path d="M242.192 12.3882H249.683V13.7711H246.733V21.5668H245.117V13.7711H242.179L242.192 12.3882ZM249.362 14.9215H250.744V16.2065H250.769C250.818 16.0229 250.905 15.8516 251.028 15.6803C251.152 15.5089 251.3 15.3499 251.485 15.2152C251.658 15.0684 251.855 14.9582 252.077 14.8726C252.287 14.7869 252.509 14.7379 252.731 14.7379C252.904 14.7379 253.028 14.7502 253.089 14.7502C253.151 14.7624 253.225 14.7747 253.287 14.7747V16.182C253.188 16.1576 253.077 16.1453 252.966 16.1331C252.855 16.1208 252.756 16.1086 252.645 16.1086C252.398 16.1086 252.164 16.1576 251.941 16.2555C251.719 16.3534 251.534 16.5002 251.361 16.6838C251.201 16.8796 251.065 17.1121 250.966 17.3936C250.868 17.6751 250.818 18.0055 250.818 18.3727V21.5301H249.337L249.362 14.9215ZM260.075 21.5668H258.618V20.6367H258.594C258.408 20.9794 258.137 21.2364 257.779 21.4444C257.421 21.6525 257.051 21.7504 256.681 21.7504C255.804 21.7504 255.163 21.5423 254.768 21.1017C254.373 20.6734 254.175 20.0126 254.175 19.1436V14.9215H255.656V18.9968C255.656 19.5842 255.767 20.0003 256.002 20.2328C256.224 20.4776 256.545 20.6 256.952 20.6C257.261 20.6 257.52 20.551 257.73 20.4531C257.94 20.3552 258.112 20.2328 258.236 20.0737C258.371 19.9146 258.458 19.7188 258.52 19.4986C258.581 19.2783 258.606 19.0335 258.606 18.7765V14.9215H260.087V21.5668H260.075ZM262.592 19.4374C262.642 19.8657 262.802 20.1594 263.086 20.343C263.37 20.5143 263.715 20.6 264.11 20.6C264.246 20.6 264.407 20.5877 264.579 20.5633C264.752 20.5388 264.925 20.5021 265.073 20.4409C265.233 20.3797 265.357 20.294 265.456 20.1716C265.554 20.0493 265.604 19.9024 265.591 19.7188C265.579 19.5353 265.517 19.3762 265.382 19.2538C265.246 19.1314 265.085 19.0457 264.888 18.9601C264.69 18.8866 264.456 18.8255 264.197 18.7765C263.938 18.7276 263.678 18.6664 263.407 18.6052C263.135 18.544 262.864 18.4706 262.605 18.3849C262.345 18.2992 262.123 18.1891 261.914 18.03C261.716 17.8831 261.543 17.6996 261.432 17.467C261.309 17.2345 261.247 16.9653 261.247 16.6226C261.247 16.2555 261.333 15.9618 261.519 15.717C261.691 15.4722 261.926 15.2764 262.197 15.1296C262.469 14.9827 262.777 14.8726 263.111 14.8114C263.444 14.7502 263.765 14.7257 264.061 14.7257C264.407 14.7257 264.74 14.7624 265.048 14.8359C265.357 14.9093 265.653 15.0194 265.9 15.1908C266.159 15.3499 266.369 15.5701 266.529 15.8271C266.702 16.0841 266.801 16.4023 266.85 16.7695H265.307C265.233 16.4146 265.073 16.182 264.826 16.0597C264.567 15.9373 264.283 15.8761 263.95 15.8761C263.851 15.8761 263.715 15.8883 263.58 15.9006C263.432 15.925 263.308 15.9495 263.172 15.9985C263.049 16.0474 262.938 16.1208 262.851 16.2065C262.765 16.2922 262.716 16.4146 262.716 16.5614C262.716 16.745 262.777 16.8796 262.901 16.9898C263.024 17.0999 263.185 17.1856 263.395 17.2712C263.592 17.3447 263.826 17.4058 264.086 17.4548C264.345 17.5038 264.616 17.5649 264.888 17.6261C265.159 17.6873 265.419 17.7607 265.678 17.8464C265.937 17.9321 266.171 18.0422 266.369 18.2013C266.566 18.3482 266.739 18.5317 266.863 18.752C266.986 18.9723 267.048 19.2538 267.048 19.572C267.048 19.9636 266.961 20.294 266.776 20.5755C266.591 20.8447 266.357 21.0773 266.073 21.2486C265.789 21.4199 265.456 21.5423 265.11 21.628C264.752 21.7014 264.407 21.7504 264.061 21.7504C263.641 21.7504 263.246 21.7014 262.889 21.6035C262.531 21.5056 262.21 21.3587 261.951 21.1752C261.691 20.9794 261.482 20.7468 261.333 20.4531C261.185 20.1716 261.099 19.829 261.087 19.4251H262.58V19.4374H262.592ZM267.467 14.9215H268.59V12.9145H270.071V14.9093H271.404V15.9985H270.071V19.5475C270.071 19.7066 270.084 19.829 270.096 19.9514C270.108 20.0615 270.145 20.1594 270.182 20.2328C270.232 20.3063 270.306 20.3675 270.392 20.4042C270.491 20.4409 270.614 20.4654 270.787 20.4654C270.886 20.4654 270.997 20.4654 271.096 20.4531C271.194 20.4409 271.305 20.4286 271.404 20.4042V21.5423C271.244 21.5668 271.083 21.579 270.923 21.5913C270.762 21.6157 270.614 21.6157 270.442 21.6157C270.047 21.6157 269.738 21.579 269.504 21.5056C269.269 21.4322 269.084 21.322 268.948 21.1874C268.812 21.0405 268.726 20.8692 268.677 20.6612C268.627 20.4531 268.603 20.1961 268.59 19.9269V16.0107H267.467V14.897V14.9215ZM272.441 14.9215H273.836V15.8271H273.86C274.07 15.4355 274.354 15.1663 274.724 14.9949C275.094 14.8236 275.489 14.7379 275.934 14.7379C276.464 14.7379 276.921 14.8236 277.316 15.0194C277.711 15.203 278.032 15.4478 278.291 15.7782C278.55 16.0964 278.747 16.4758 278.871 16.9041C278.994 17.3324 279.068 17.7975 279.068 18.2747C279.068 18.7276 279.007 19.1559 278.896 19.572C278.772 19.9881 278.599 20.3675 278.365 20.6856C278.13 21.0038 277.834 21.2608 277.464 21.4566C277.094 21.6524 276.674 21.7504 276.18 21.7504C275.971 21.7504 275.748 21.7259 275.539 21.6892C275.329 21.6525 275.119 21.5913 274.922 21.5056C274.724 21.4199 274.539 21.3098 274.379 21.1752C274.206 21.0405 274.07 20.8815 273.959 20.7101H273.934V24.0266H272.453V14.9215H272.441ZM277.612 18.2503C277.612 17.9566 277.575 17.6628 277.489 17.3814C277.415 17.0999 277.291 16.8551 277.131 16.6348C276.97 16.4146 276.773 16.2432 276.551 16.1086C276.316 15.974 276.045 15.9128 275.748 15.9128C275.131 15.9128 274.662 16.1209 274.342 16.5492C274.033 16.9775 273.873 17.5527 273.873 18.2625C273.873 18.6052 273.91 18.9111 273.996 19.1926C274.082 19.4741 274.193 19.7188 274.366 19.9269C274.527 20.1349 274.724 20.294 274.959 20.4164C275.193 20.5388 275.452 20.6 275.761 20.6C276.106 20.6 276.378 20.5266 276.612 20.3919C276.847 20.2573 277.032 20.0737 277.192 19.8657C277.341 19.6454 277.452 19.4007 277.513 19.1192C277.575 18.8255 277.612 18.544 277.612 18.2503ZM280.216 12.3882H281.697V13.7711H280.216V12.3882ZM280.216 14.9215H281.697V21.5668H280.216V14.9215ZM283.018 12.3882H284.499V21.5668H283.018V12.3882ZM289.016 21.7504C288.485 21.7504 288.004 21.6647 287.584 21.4811C287.164 21.2975 286.819 21.065 286.523 20.7591C286.239 20.4531 286.017 20.0737 285.869 19.6454C285.721 19.2171 285.634 18.7398 285.634 18.238C285.634 17.7363 285.708 17.2712 285.869 16.8429C286.017 16.4146 286.239 16.0474 286.523 15.7292C286.807 15.4233 287.164 15.1785 287.584 15.0072C288.004 14.8359 288.485 14.7379 289.016 14.7379C289.546 14.7379 290.028 14.8236 290.447 15.0072C290.867 15.1785 291.213 15.4233 291.509 15.7292C291.793 16.0352 292.015 16.4146 292.163 16.8429C292.311 17.2712 292.397 17.7363 292.397 18.238C292.397 18.752 292.323 19.2171 292.163 19.6454C292.002 20.0737 291.793 20.4409 291.509 20.7591C291.225 21.065 290.867 21.3098 290.447 21.4811C290.028 21.6525 289.559 21.7504 289.016 21.7504ZM289.016 20.5877C289.337 20.5877 289.633 20.5143 289.867 20.3797C290.114 20.2451 290.299 20.0615 290.46 19.8412C290.62 19.6209 290.731 19.3639 290.805 19.0947C290.879 18.8132 290.916 18.5317 290.916 18.238C290.916 17.9566 290.879 17.6751 290.805 17.3936C290.731 17.1121 290.62 16.8674 290.46 16.6471C290.299 16.4268 290.102 16.2555 289.867 16.1209C289.62 15.9862 289.337 15.9128 289.016 15.9128C288.695 15.9128 288.399 15.9862 288.164 16.1209C287.917 16.2555 287.732 16.439 287.572 16.6471C287.411 16.8674 287.3 17.1121 287.226 17.3936C287.152 17.6751 287.115 17.9566 287.115 18.238C287.115 18.5317 287.152 18.8132 287.226 19.0947C287.3 19.3762 287.411 19.6209 287.572 19.8412C287.732 20.0615 287.93 20.2451 288.164 20.3797C288.411 20.5266 288.695 20.5877 289.016 20.5877ZM292.842 14.9215H293.965V12.9145H295.446V14.9093H296.779V15.9985H295.446V19.5475C295.446 19.7066 295.458 19.829 295.47 19.9514C295.483 20.0615 295.52 20.1594 295.557 20.2328C295.606 20.3063 295.68 20.3675 295.767 20.4042C295.865 20.4409 295.989 20.4654 296.162 20.4654C296.26 20.4654 296.371 20.4654 296.47 20.4531C296.569 20.4409 296.68 20.4286 296.779 20.4042V21.5423C296.618 21.5668 296.458 21.579 296.297 21.5913C296.137 21.6157 295.989 21.6157 295.816 21.6157C295.421 21.6157 295.112 21.579 294.878 21.5056C294.644 21.4322 294.458 21.322 294.323 21.1874C294.187 21.0405 294.1 20.8692 294.051 20.6612C294.002 20.4531 293.977 20.1961 293.965 19.9269V16.0107H292.842V14.897V14.9215Z" fill="#808080"/>
<path d="M240.464 12.3883H233.688L231.603 6L229.504 12.3883L222.729 12.376L228.209 16.3289L226.11 22.7172L231.59 18.7643L237.07 22.7172L234.984 16.3289L240.464 12.3883Z" fill="#808080"/>
<path d="M235.453 17.773L234.984 16.3289L231.603 18.7643L235.453 17.773Z" fill="#202020"/>
<defs>
<clipPath id="clip0">
<rect width="123.125" height="23.2235" fill="white" transform="translate(0 4)"/>
</clipPath>
</defs>
</svg>
