<svg width="60" height="60" viewBox="0 0 60 60" fill="none" xmlns="http://www.w3.org/2000/svg">
<path fill-rule="evenodd" clip-rule="evenodd" d="M51.8146 53.0653C46.5593 53.0673 41.3048 53.0682 36.0491 53.0653C36.0478 52.1093 36.0482 51.1533 36.0486 50.1972C36.0492 48.9021 36.0498 47.6068 36.046 46.3112C36.5881 46.3035 37.1299 46.3047 37.6717 46.306H37.6724C38.0639 46.3069 38.4554 46.3078 38.847 46.3053C38.8483 44.8314 38.8483 43.3583 38.847 41.8856H25.9895C25.9923 42.4403 25.9909 42.9952 25.9894 43.5501V43.5502V43.5503V43.5504V43.5505V43.5506C25.987 44.4721 25.9846 45.3938 26.0016 46.3157C26.9322 46.302 27.8652 46.2979 28.7961 46.3166C28.7865 48.5634 28.7853 50.809 28.797 53.0558C25.4955 53.0722 22.1935 53.0695 18.8915 53.0669C16.9266 53.0653 14.9616 53.0637 12.9968 53.0662C12.9937 52.0105 12.9943 50.9548 12.9949 49.899V49.899V49.8989V49.8989V49.8988V49.8988C12.9955 48.7035 12.9961 47.5081 12.9915 46.3124C13.5921 46.303 14.1924 46.3044 14.7928 46.3058C15.1989 46.3067 15.605 46.3077 16.0113 46.3053C16.013 44.9293 16.0125 43.5531 16.0119 42.1769V42.1769V42.1768V42.1767V42.1767V42.1766C16.0112 40.1582 16.0104 38.1396 16.0168 36.1208C14.5827 36.1073 13.1482 36.1097 11.714 36.1122H11.7139H11.7138H11.7137H11.7137H11.7136C10.9618 36.1134 10.2101 36.1147 9.45856 36.1137C9.32537 36.1368 9.22669 36.056 9.13275 35.9791C9.10851 35.9593 9.08458 35.9397 9.06046 35.9222L8.5634 35.5112L8.56329 35.5111L8.56318 35.5111L8.56307 35.511L8.56295 35.5109L8.56284 35.5108C7.18358 34.3703 5.80417 33.2297 4.41511 32.0997C4.3965 26.1084 4.39991 20.1148 4.41387 14.1238C3.77792 14.1086 3.14159 14.1108 2.50544 14.113H2.5054H2.50536H2.50532H2.50528H2.50514H2.50507H2.505H2.50494H2.50487H2.50481C2.13273 14.1143 1.76071 14.1156 1.38886 14.1134C1.38762 11.8521 1.38762 9.59043 1.38886 7.32938C5.10455 7.32645 8.82024 7.32707 12.536 7.32768H12.5361H12.5362H12.5362H12.5363H12.5363C14.0846 7.32794 15.633 7.32819 17.1814 7.32819V14.1134C16.815 14.1146 16.4486 14.114 16.0822 14.1134C15.5134 14.1126 14.9446 14.1117 14.3757 14.1173L14.377 15.0357V15.0359V15.0361V15.0363V15.0365V15.0368C14.3811 17.9226 14.3852 20.8082 14.3726 23.693C17.133 23.7149 19.8947 23.7116 22.6563 23.7084H22.6563H22.6564H22.6564H22.6564H22.6565C24.2475 23.7065 25.8386 23.7046 27.4293 23.7076C27.4305 20.5095 27.4305 17.3118 27.4293 14.1134H24.6314C24.6314 13.4227 24.6311 12.7318 24.6308 12.041V12.0409V12.0407V12.0406V12.0405V12.0404C24.63 10.4697 24.6293 8.8988 24.6323 7.32819C29.8868 7.3273 35.1412 7.3273 40.3957 7.32819C40.3979 8.97295 40.3976 10.618 40.3972 12.2628L40.3969 14.1134H37.4073V23.7076C38.9828 23.7073 40.5581 23.7077 42.1334 23.708H42.1335H42.1336H42.1337H42.1338H42.1339C45.359 23.7088 48.5838 23.7096 51.8091 23.7046C51.8185 25.1951 51.817 26.6855 51.8154 28.1756V28.1758V28.1759V28.176V28.1762V28.1763C51.8147 28.9489 51.8139 29.7214 51.8146 30.4937C51.4894 30.493 51.1643 30.4941 50.8393 30.4952C50.1721 30.4975 49.5052 30.4997 48.8383 30.4866C48.8195 33.7502 48.8223 37.0143 48.8251 40.2785V40.2786V40.2786V40.2787V40.2788V40.2789C48.8269 42.2879 48.8286 44.297 48.8253 46.3062C49.212 46.3073 49.5986 46.3068 49.9852 46.3062H49.9863C50.5964 46.3054 51.2066 46.3045 51.8168 46.3103C51.8151 47.5279 51.8153 48.7451 51.8154 49.9625C51.8155 50.9966 51.8156 52.0308 51.8146 53.0653ZM53.2283 44.9551C52.8199 44.9495 52.4113 44.9519 52.0028 44.9542H52.0027H52.0027H52.0026H52.0026H52.0025C51.4234 44.9576 50.8444 44.961 50.2663 44.9415L50.2463 44.8528L50.246 44.8515C50.2335 44.7964 50.2197 44.7359 50.2117 44.6981C50.2152 42.7415 50.2144 40.7848 50.2136 38.8282C50.2127 36.4921 50.2118 34.156 50.2182 31.8198C51.2207 31.8219 52.2245 31.8219 53.2283 31.8198C53.2283 30.9247 53.2288 30.0294 53.2294 29.1341C53.2307 26.8741 53.232 24.6137 53.2249 22.3533C48.4154 22.3553 43.6056 22.3553 38.7961 22.3533C38.7939 20.0578 38.7949 17.7623 38.7961 15.4654H41.8115C41.8091 14.3124 41.8105 13.1593 41.8119 12.0062C41.8143 10.0042 41.8167 8.00196 41.7994 6H23.2165L23.2164 8.18497C23.2162 10.6118 23.2161 13.0389 23.2177 15.4654H26.0147V15.4668V15.4683V15.4698V15.4713V15.4728V15.4743C26.0156 17.7683 26.0165 20.0608 26.0147 22.3533C22.8131 22.3563 19.6115 22.3555 16.4099 22.3546L15.7677 22.3545V15.4654C16.1673 15.4648 16.5669 15.465 16.9666 15.4651H16.9684C17.5022 15.4653 18.0361 15.4655 18.5699 15.4642C18.5686 13.6267 18.5688 11.7891 18.5691 9.95139V9.95135V9.95131V9.95127V9.95122V9.94407C18.5692 8.62943 18.5694 7.31474 18.569 6H0V15.4654C0.370664 15.4669 0.741156 15.4661 1.11161 15.4654C1.74002 15.4641 2.36831 15.4629 2.99709 15.4728C2.98732 19.3628 2.98889 23.2527 2.99045 27.1427V27.1427V27.1428V27.1429V27.1429V27.143L2.99045 27.1441C2.99117 28.9392 2.99189 30.7343 2.9915 32.5295C2.96557 32.6669 3.06779 32.7551 3.16311 32.8374C3.17957 32.8516 3.19583 32.8656 3.21119 32.8797C4.44393 33.8874 5.672 34.9001 6.90001 35.9128L6.90063 35.9133L6.90355 35.9157C7.46404 36.3779 8.02451 36.8401 8.5854 37.3018C8.70486 37.4148 8.8659 37.4543 9.03005 37.4407C9.88166 37.4364 10.7333 37.4372 11.5849 37.438H11.5858C12.5869 37.4389 13.5879 37.4399 14.5889 37.4326C14.6013 39.1035 14.5991 40.7747 14.5969 42.4458V42.4461C14.5958 43.2818 14.5947 44.1174 14.5954 44.953C14.2029 44.9579 13.8101 44.9558 13.4173 44.9536C12.8104 44.9503 12.2034 44.947 11.5974 44.9697C11.6141 46.8834 11.6116 48.7978 11.6092 50.7123C11.6077 51.9306 11.6061 53.149 11.6095 54.3673H30.2054C30.2082 53.1954 30.2065 52.0232 30.2048 50.851C30.2019 48.8899 30.199 46.9287 30.2172 44.9685C29.503 44.9454 28.7879 44.9503 28.0727 44.9552H28.0727H28.0727H28.0726H28.0726H28.0722C27.8514 44.9568 27.6306 44.9583 27.4097 44.959C27.4011 44.5492 27.402 44.1398 27.4028 43.7303V43.7302V43.7301V43.7301V43.73V43.7297C27.4031 43.5658 27.4035 43.4019 27.4032 43.2378H37.4324C37.4333 43.4638 37.4331 43.6897 37.4329 43.9155C37.4327 44.2596 37.4324 44.6035 37.4358 44.9477C36.9042 44.956 36.3722 44.9548 35.8402 44.9537C35.4385 44.9528 35.0369 44.9519 34.6355 44.9551C34.6375 46.0956 34.6359 47.2363 34.6343 48.377V48.3771V48.3772V48.3773V48.3773V48.3774V48.3785C34.6316 50.3748 34.6288 52.3713 34.6454 54.3673H53.2296L53.2298 51.8C53.2302 49.5183 53.2306 47.2364 53.2283 44.9551ZM8.10128 8.6005H8.10129C10.6851 8.59993 13.2688 8.59936 15.8525 8.60252C15.8496 9.37703 15.8499 10.1514 15.8502 10.9257V10.9264V10.9264V10.9264V10.9264V10.9264V10.9264C15.8504 11.5643 15.8506 12.2021 15.8491 12.84C15.4387 12.8405 15.0281 12.8404 14.6174 12.8403H14.6174H14.6173H14.6173H14.6173H14.6172C14.0944 12.8401 13.5715 12.84 13.049 12.8412V30.4677C13.38 30.467 13.7109 30.4677 14.0419 30.4684H14.0419H14.0419H14.0419H14.0419H14.0419C14.7038 30.4698 15.3656 30.4712 16.0275 30.4615C16.0451 31.4019 16.0423 32.3428 16.0396 33.2836V33.2836V33.2837V33.2837V33.2838V33.2839C16.038 33.8017 16.0365 34.3196 16.0384 34.8372C13.956 34.8384 11.8737 34.8393 9.79131 34.8364C9.11488 34.2799 8.43876 33.7229 7.76264 33.1659C7.08652 32.609 6.4104 32.052 5.73397 31.4955C5.73855 28.6244 5.73751 25.7536 5.73647 22.8828C5.73526 19.5391 5.73404 16.1955 5.74172 12.8516C5.04416 12.8349 4.34615 12.8379 3.648 12.8409H3.64799H3.64798H3.64796H3.64795H3.64794C3.33931 12.8423 3.03065 12.8436 2.72199 12.8432C2.71716 11.964 2.71786 11.0851 2.71855 10.2061V10.2061C2.71897 9.67098 2.71939 9.13581 2.71857 8.60044C4.51277 8.60129 6.30701 8.6009 8.10126 8.6005H8.10127H8.10128ZM39.0647 8.60044H25.9633C25.9661 9.12818 25.9644 9.65588 25.9627 10.1835V10.1836V10.1837V10.1837V10.1838C25.9598 11.0715 25.9569 11.9591 25.9754 12.8465C26.417 12.838 26.8584 12.8392 27.2998 12.8405H27.2999C27.7811 12.8419 28.2623 12.8433 28.7438 12.832C28.7707 13.3715 28.7666 13.9115 28.7626 14.4514V14.4514V14.4515V14.4515V14.4516V14.4516C28.76 14.789 28.7574 15.1263 28.7624 15.4634C28.7591 17.3692 28.7609 19.2752 28.7626 21.1812V21.1813V21.1814V21.1815V21.1815C28.7654 24.279 28.7682 27.3767 28.7494 30.4739C28.1996 30.4666 27.6496 30.4675 27.0996 30.4685C26.7215 30.4691 26.3435 30.4698 25.9655 30.4677C25.9608 31.5078 25.9617 32.5486 25.9626 33.589C25.963 34.0052 25.9633 34.4213 25.9633 34.8372C27.9653 34.8384 29.9682 34.8393 31.9702 34.8372C32.1064 34.8572 32.2102 34.7705 32.3061 34.6902C32.3212 34.6776 32.3361 34.6651 32.3509 34.6532C32.8699 34.2035 33.3951 33.76 33.9203 33.3164L33.9205 33.3162L33.9207 33.3161L33.9208 33.316L33.9209 33.3159C34.6465 32.7031 35.3722 32.0902 36.0819 31.4608C36.0736 27.2176 36.075 22.9742 36.0765 18.7308C36.0771 16.7676 36.0778 14.8044 36.0775 12.8412C36.8427 12.8396 37.608 12.8397 38.3734 12.8399L39.0625 12.84C39.0664 11.8095 39.0657 10.7786 39.0651 9.74739V9.74729V9.74719V9.74709V9.74699C39.0649 9.36483 39.0647 8.98265 39.0647 8.60044ZM37.3748 24.9945C39.7899 24.9768 42.2052 24.9795 44.6206 24.9823C46.0559 24.9839 47.4912 24.9855 48.9265 24.9829C49.1161 24.9859 49.3058 24.9841 49.4955 24.9824H49.4956H49.4957H49.4957H49.4958C49.8272 24.9793 50.1589 24.9762 50.4901 24.9986C50.4804 25.8318 50.4818 26.6648 50.4833 27.4978C50.4843 28.072 50.4853 28.6462 50.4827 29.2203C50.1365 29.2194 49.7904 29.2203 49.4443 29.2212H49.4439H49.4438H49.4437C48.7994 29.2229 48.1553 29.2246 47.5116 29.2144C47.4805 34.8997 47.4911 40.5865 47.5018 46.2727L47.5042 47.5844C48.17 47.5789 48.8359 47.5798 49.5018 47.5808H49.503C49.8295 47.5813 50.1561 47.5818 50.4827 47.5815C50.4836 48.9845 50.4836 50.3889 50.4827 51.7919C46.1153 51.7931 41.7483 51.7931 37.3813 51.7919C37.3804 50.3889 37.3804 48.9845 37.3813 47.5815C37.7425 47.5771 38.1039 47.579 38.4653 47.581C39.0405 47.584 39.6157 47.5871 40.19 47.5649C40.1757 46.1749 40.1778 44.7847 40.1799 43.3943V43.3942V43.3942V43.3941C40.1813 42.4673 40.1827 41.5403 40.1792 40.6134C35.0051 40.6122 29.8323 40.6122 24.6594 40.6134C24.6594 41.2769 24.6591 41.9404 24.6587 42.6039V42.604V42.604C24.6578 44.2631 24.6569 45.9223 24.6616 47.5815C25.0166 47.5794 25.3717 47.5802 25.7267 47.5809C26.2982 47.5821 26.8697 47.5833 27.4412 47.5729C27.4716 48.9803 27.4651 50.3898 27.4446 51.7973C24.8191 51.7903 22.1941 51.7913 19.569 51.7923C17.8308 51.7929 16.0926 51.7936 14.3541 51.7919V47.5815C14.7385 47.5763 15.1232 47.5787 15.5079 47.5811H15.5082C16.1246 47.5848 16.7411 47.5886 17.3565 47.5616C17.3377 44.6229 17.3409 41.6835 17.3442 38.7443C17.3478 35.5666 17.3513 32.3889 17.327 29.2123C16.6883 29.225 16.049 29.223 15.4098 29.2211C15.0578 29.22 14.7059 29.219 14.3541 29.2203V24.9829L17.6302 24.9826H17.6303H17.6304H17.6306C20.9062 24.9822 24.1816 24.9818 27.4576 24.985C27.4572 25.4929 27.4574 26.001 27.4577 26.5092V26.5093V26.5093V26.5094C27.4582 27.4133 27.4587 28.3174 27.4551 29.2215C27.1019 29.2201 26.7485 29.2206 26.395 29.2212H26.395H26.3949H26.3949H26.3946C25.8201 29.2222 25.2456 29.2232 24.6715 29.2153C24.6527 30.6738 24.6556 32.1326 24.6585 33.5914C24.6601 34.4224 24.6618 35.2535 24.6594 36.0845L25.9477 36.0847C30.6913 36.0856 35.4358 36.0864 40.1792 36.0845C40.1835 35.1846 40.1815 34.2847 40.1796 33.3849V33.3841V33.3841V33.384C40.1766 32.0033 40.1736 30.6227 40.1931 29.2426C39.6239 29.2121 39.053 29.2163 38.4819 29.2205H38.4817H38.4816H38.4814C38.1146 29.2232 37.7478 29.2259 37.3813 29.2194C37.379 28.6385 37.3797 28.0576 37.3804 27.4766V27.4744C37.3814 26.6478 37.3824 25.8211 37.3748 24.9945ZM35.1677 34.083C34.9244 34.2909 34.6811 34.4987 34.4376 34.7064C35.3333 34.709 36.2293 34.7087 37.1252 34.7084H37.1252H37.1253C37.663 34.7082 38.2007 34.708 38.7383 34.7084C38.7383 34.3418 38.7386 33.9752 38.7389 33.6087L38.7389 33.5958V33.5956V33.5955C38.7396 32.753 38.7403 31.9107 38.7373 31.0678C37.5358 32.06 36.3516 33.0716 35.1677 34.083L35.1677 34.083ZM55.0225 52.287H56.8721C56.8712 52.4515 56.8712 52.6156 56.8712 52.7821C56.7428 52.7821 56.6153 52.7833 56.4879 52.7845H56.4876C56.4067 52.7853 56.3258 52.7861 56.2447 52.7865C56.2463 53.173 56.2461 53.5589 56.2458 53.9452V53.9453L56.2457 54.3673H55.6499L55.6496 53.9716C55.6492 53.5766 55.6488 53.182 55.6521 52.7874L55.4846 52.7856C55.3317 52.7838 55.1791 52.7821 55.0268 52.7821C55.0247 52.6168 55.0225 52.4515 55.0225 52.287ZM58.1694 52.2861C57.8454 52.287 57.5215 52.287 57.1985 52.287V54.3673H57.7682C57.7697 54.1726 57.7689 53.9779 57.7682 53.7831C57.7668 53.4267 57.7654 53.0702 57.7781 52.7135C58.0108 53.0923 58.1836 53.5001 58.3534 53.9076C58.4542 53.9139 58.5551 53.92 58.6567 53.9262C58.7084 53.9294 58.7602 53.9326 58.8123 53.9358C58.8685 53.8199 58.9216 53.7025 58.9748 53.585C59.0981 53.3124 59.2215 53.0397 59.3841 52.7854C59.4027 53.1421 59.4011 53.4998 59.3995 53.8575C59.3987 54.0275 59.3979 54.1974 59.3993 54.3673H59.9994C59.9994 54.1361 59.9996 53.9049 59.9997 53.6738C60 53.2117 60.0003 52.7496 59.9994 52.287C59.8418 52.2866 59.6845 52.2866 59.5273 52.2866C59.3701 52.2866 59.213 52.2866 59.0559 52.2861C59.0168 52.3713 58.98 52.4576 58.9431 52.5439C58.839 52.7877 58.7347 53.0319 58.5805 53.2522C58.4477 52.9278 58.3152 52.6043 58.1694 52.2861Z" fill="#808080"/>
</svg>
