<svg width="24" height="24" viewBox="0 0 24 24" fill="none" xmlns="http://www.w3.org/2000/svg">
<path fill-rule="evenodd" clip-rule="evenodd" d="M12 1.19922C6.03529 1.19922 1.20001 6.03449 1.20001 11.9992C1.20001 17.9638 6.03529 22.7992 12 22.7992C17.9647 22.7992 22.8 17.9638 22.8 11.9992C22.8 6.03449 17.9647 1.19922 12 1.19922Z" fill="#B6B6B6"/>
<path fill-rule="evenodd" clip-rule="evenodd" d="M17.8546 8.95787L16.9135 7.95714C16.7186 7.7499 16.4014 7.74847 16.205 7.95406L10.3023 14.131L7.80554 11.4756C7.61065 11.2683 7.29333 11.267 7.09689 11.4726L6.14816 12.4654C5.95171 12.671 5.95046 13.0056 6.14535 13.213L9.93619 17.2443C10.1311 17.4517 10.4484 17.4531 10.6448 17.2474L17.8518 9.70557C18.0483 9.49997 18.0495 9.16522 17.8546 8.95787Z" fill="white"/>
</svg>
