<svg width="60" height="60" viewBox="0 0 60 60" fill="none" xmlns="http://www.w3.org/2000/svg">
<rect width="60" height="60" rx="30" fill="#F7F7F7"/>
<g clip-path="url(#clip0)">
<path opacity="0.2" d="M14.3277 42.9867C13.527 42.9867 12.8307 42.4296 12.6219 41.6637L8.37463 25.3015C8.27019 24.8489 8.33982 24.3615 8.58351 23.9786C8.82721 23.5957 9.21015 23.3171 9.66273 23.1779L32.7439 17.7122L32.7091 18.1996C32.7091 18.3388 32.7091 19.4529 34.2061 19.5921L34.4498 19.6269L35.0764 22.3076L34.7979 22.3772C34.7283 22.412 34.032 22.6209 34.032 23.4216C34.032 24.1875 35.2853 24.2919 35.3201 24.2919L35.5986 24.3267L36.086 26.5896H35.6334C35.529 26.5896 34.972 26.6592 34.972 27.6688C34.972 28.0866 35.1461 28.3651 35.529 28.5391C35.8771 28.6784 36.2601 28.7132 36.3297 28.7132H36.6082L36.7127 28.9917L37.2 30.9761L36.7823 31.0109C36.6778 31.0109 36.086 31.1153 36.086 32.0553C36.086 32.3686 36.1905 32.5775 36.3645 32.6819C36.5386 32.7864 36.7475 32.8212 36.8867 32.8212C36.9912 32.8212 37.0608 32.8212 37.0956 32.8212L37.4089 32.7864L37.5134 33.0997L38.3141 35.8499L38.0356 35.9892C37.026 36.4418 37.2697 38.0084 37.2697 38.0432L37.3045 38.3565L14.6758 42.9518C14.5714 42.9518 14.467 42.9867 14.3277 42.9867Z" fill="white"/>
<path d="M32.3611 18.1648C32.3611 18.1648 32.2566 19.7314 34.1714 19.9402L34.6588 22.0638C34.6588 22.0638 33.6492 22.3424 33.6492 23.4564C33.6492 24.5704 35.2506 24.6748 35.2506 24.6748L35.5639 26.2414C35.4943 26.2414 34.5543 26.2763 34.5543 27.6688C34.5543 28.9917 36.0513 29.0613 36.2602 29.0613H36.295L36.6779 30.6279C36.6779 30.6279 35.6335 30.6627 35.6335 32.0204C35.6335 32.9952 36.3646 33.1345 36.7824 33.1345C36.9216 33.1345 37.0261 33.0997 37.0261 33.0997L37.7223 35.5366C36.4691 36.1284 36.7476 37.9387 36.7476 37.9387L14.6063 42.6037C14.5019 42.6385 14.3974 42.6385 14.3278 42.6385C13.7012 42.6385 13.1442 42.2207 12.9701 41.5941L8.72286 25.2319C8.5488 24.466 9.00137 23.7349 9.76726 23.5608L32.3611 18.1648ZM33.127 17.2596L32.2218 17.5033L9.5932 22.8297C9.03618 22.969 8.58361 23.2823 8.30511 23.7697C8.0266 24.2571 7.92216 24.8141 8.06141 25.3711L12.3086 41.7682C12.5523 42.7081 13.3878 43.3348 14.3278 43.3348C14.4671 43.3348 14.6063 43.3348 14.7456 43.2999L36.9913 38.635L37.6527 38.4957L37.5483 37.8343C37.5483 37.8343 37.3742 36.5114 38.1053 36.1632L38.6623 35.9195L38.4882 35.3277L37.792 32.8908L37.6179 32.299L36.9913 32.4034C36.9913 32.4034 36.9216 32.4034 36.852 32.4034C36.3994 32.4034 36.3994 32.1945 36.3994 31.9856C36.3994 31.4286 36.6431 31.3242 36.7824 31.2894H37.6875L37.409 30.419L37.0261 28.8524L36.8868 28.2954L36.3298 28.3302C36.0165 28.3302 35.3202 28.2606 35.3202 27.634C35.3202 27.2162 35.4247 26.9377 35.6335 26.9029L36.5039 26.9377L36.3298 26.0674L36.0165 24.5008L35.912 23.9786L35.3898 23.9438C35.3898 23.9438 34.4499 23.8393 34.4499 23.4216C34.4499 22.8994 34.8328 22.7601 34.9373 22.7253L35.5987 22.5512L35.4247 21.8898L34.9373 19.7662L34.8328 19.2788L34.3454 19.244C33.1966 19.1395 33.127 18.4085 33.1618 18.1996L33.127 17.2596Z" fill="#494949"/>
<path d="M14.3277 42.9867C13.527 42.9867 12.8307 42.4296 12.6219 41.6637L8.37463 25.3015C8.27019 24.8489 8.33982 24.3615 8.58351 23.9786C8.82721 23.5957 9.21015 23.3171 9.66273 23.1779L32.7439 17.7122L32.7091 18.1996C32.7091 18.3388 32.7091 19.4529 34.2061 19.5921L34.4498 19.6269L35.0764 22.3076L34.7979 22.3772C34.7283 22.412 34.032 22.6209 34.032 23.4216C34.032 24.1875 35.2853 24.2919 35.3201 24.2919L35.5986 24.3267L36.086 26.5896H35.6334C35.529 26.5896 34.972 26.6592 34.972 27.6688C34.972 28.0866 35.1461 28.3651 35.529 28.5391C35.8771 28.6784 36.2601 28.7132 36.3297 28.7132H36.6082L36.7127 28.9917L37.2 30.9761L36.7823 31.0109C36.6778 31.0109 36.086 31.1153 36.086 32.0553C36.086 32.3686 36.1905 32.5775 36.3645 32.6819C36.5386 32.7864 36.7475 32.8212 36.8867 32.8212C36.9912 32.8212 37.0608 32.8212 37.0956 32.8212L37.4089 32.7864L37.5134 33.0997L38.3141 35.8499L38.0356 35.9892C37.026 36.4418 37.2697 38.0084 37.2697 38.0432L37.3045 38.3565L14.6758 42.9518C14.5714 42.9518 14.467 42.9867 14.3277 42.9867Z" fill="white"/>
<path d="M32.3611 18.1648C32.3611 18.1648 32.2566 19.7314 34.1714 19.9402L34.6588 22.0638C34.6588 22.0638 33.6492 22.3424 33.6492 23.4564C33.6492 24.5704 35.2506 24.6748 35.2506 24.6748L35.5639 26.2414C35.4943 26.2414 34.5543 26.2763 34.5543 27.6688C34.5543 28.9917 36.0513 29.0613 36.2602 29.0613H36.295L36.6779 30.6279C36.6779 30.6279 35.6335 30.6627 35.6335 32.0204C35.6335 32.9952 36.3646 33.1345 36.7824 33.1345C36.9216 33.1345 37.0261 33.0997 37.0261 33.0997L37.7223 35.5366C36.4691 36.1284 36.7476 37.9387 36.7476 37.9387L14.6063 42.6037C14.5019 42.6385 14.3974 42.6385 14.3278 42.6385C13.7012 42.6385 13.1442 42.2207 12.9701 41.5941L8.72286 25.2319C8.5488 24.466 9.00137 23.7349 9.76726 23.5608L32.3611 18.1648ZM33.127 17.2596L32.2218 17.5033L9.5932 22.8297C9.03618 22.969 8.58361 23.2823 8.30511 23.7697C8.0266 24.2571 7.92216 24.8141 8.06141 25.3711L12.3086 41.7682C12.5523 42.7081 13.3878 43.3348 14.3278 43.3348C14.4671 43.3348 14.6063 43.3348 14.7456 43.2999L36.9913 38.635L37.6527 38.4957L37.5483 37.8343C37.5483 37.8343 37.3742 36.5114 38.1053 36.1632L38.6623 35.9195L38.4882 35.3277L37.792 32.8908L37.6179 32.299L36.9913 32.4034C36.9913 32.4034 36.9216 32.4034 36.852 32.4034C36.3994 32.4034 36.3994 32.1945 36.3994 31.9856C36.3994 31.4286 36.6431 31.3242 36.7824 31.2894H37.6875L37.409 30.419L37.0261 28.8524L36.8868 28.2954L36.3298 28.3302C36.0165 28.3302 35.3202 28.2606 35.3202 27.634C35.3202 27.2162 35.4247 26.9377 35.6335 26.9029L36.5039 26.9377L36.3298 26.0674L36.0165 24.5008L35.912 23.9786L35.3898 23.9438C35.3898 23.9438 34.4499 23.8393 34.4499 23.4216C34.4499 22.8994 34.8328 22.7601 34.9373 22.7253L35.5987 22.5512L35.4247 21.8898L34.9373 19.7662L34.8328 19.2788L34.3454 19.244C33.1966 19.1395 33.127 18.4085 33.1618 18.1996L33.127 17.2596Z" fill="#494949"/>
<path d="M41.3777 38.7046C41.3429 38.0779 41.6214 36.9291 42.7702 36.5113L42.6658 33.9352C42.074 33.7263 41.3081 33.2041 41.3429 32.1597C41.3777 31.1501 42.074 30.6975 42.6658 30.5583L42.5613 29.5487C42.2828 29.5139 41.8651 29.3746 41.5518 29.0265C41.2384 28.7132 41.0992 28.2606 41.0992 27.7036C41.134 26.6244 41.7258 26.137 42.3525 25.9977V25.1274C41.8651 24.9533 40.8903 24.5008 40.8903 23.526C40.8903 22.586 41.691 22.1335 42.1436 21.9594L41.9347 19.6269C41.4473 19.4528 40.4029 18.861 40.1592 17.5729L40.0896 17.19L48.5492 16.5981C48.584 16.5981 48.6189 16.5981 48.6537 16.5981C49.5588 16.5981 50.3247 17.2944 50.3943 18.2344L51.6824 36.3721C51.7521 37.3121 51.0558 38.1476 50.1158 38.2172L41.4125 39.0527L41.3777 38.7046Z" fill="white"/>
<path d="M48.6537 16.9463C49.3848 16.9463 49.9767 17.5033 50.0463 18.2344L51.3344 36.3721C51.3692 37.138 50.8122 37.7646 50.0811 37.8342L41.7259 38.6349C41.7259 38.6349 41.6563 37.0335 43.1184 36.7202L43.014 33.587C43.014 33.587 41.6563 33.3085 41.6911 32.09C41.7259 30.8368 43.0488 30.7671 43.0488 30.7671L42.8747 29.1309C42.8051 29.1309 41.3778 29.1309 41.4474 27.6339C41.4822 26.3459 42.3874 26.2414 42.631 26.2414C42.6659 26.2414 42.7007 26.2414 42.7007 26.2414V24.7793C42.7007 24.7793 41.2385 24.4311 41.2385 23.4215C41.2385 22.412 42.5266 22.0986 42.5266 22.0986L42.2481 19.3832C42.2481 19.3832 40.7511 19.0003 40.4726 17.5033L48.5841 16.9463C48.6189 16.9463 48.6189 16.9463 48.6537 16.9463ZM48.6537 16.25C48.6189 16.25 48.5493 16.25 48.5145 16.25L40.403 16.807L39.6023 16.8766L39.7764 17.6425C40.0201 18.9654 40.9948 19.5921 41.5867 19.8706L41.7607 21.7157C41.1689 22.029 40.5074 22.586 40.5074 23.4912C40.5074 24.4659 41.2733 25.0578 41.9696 25.3363V25.7192C41.3081 25.9629 40.7511 26.5895 40.7163 27.6688C40.6815 28.4695 40.9948 28.9569 41.2733 29.2354C41.5518 29.5487 41.9348 29.6879 42.2133 29.7924L42.2481 30.2798C41.6215 30.5234 40.9948 31.1153 40.96 32.1249C40.9252 33.2389 41.6563 33.8655 42.2829 34.144L42.3525 36.2676C41.2385 36.7898 40.96 38.0431 40.9948 38.7046L41.0296 39.4357L41.7607 39.366L50.1159 38.5653C51.2647 38.4609 52.0655 37.4861 51.9958 36.3373L50.7077 18.1995C50.6729 17.1203 49.7678 16.25 48.6537 16.25Z" fill="#494949"/>
<path d="M34.192 30.3221C34.4121 26.3061 31.5252 22.8824 27.7438 22.6752C23.9625 22.468 20.7187 25.5556 20.4986 29.5716C20.2785 33.5877 23.1655 37.0113 26.9468 37.2185C30.7281 37.4258 33.9719 34.3381 34.192 30.3221Z" fill="#797979"/>
<path d="M29.761 33.6695L30.3165 34.9181L29.3721 35.3938L28.8722 34.3235C28.4833 34.5019 28.2056 34.6208 27.9834 34.6803C27.8723 34.6803 27.7612 34.7397 27.5945 34.7397C27.4279 34.7397 27.3168 34.7992 27.0946 34.7992L25.928 32.2424C26.5946 32.6586 27.1501 32.7181 27.6501 32.4803C28.0389 32.3019 28.15 32.0046 28.0389 31.6478C27.9278 31.41 27.7056 31.2911 27.3168 31.1722L26.7612 31.0532C26.2057 30.9343 25.7613 30.7559 25.428 30.4586C25.0947 30.2208 24.817 29.8641 24.6503 29.4478C24.0948 28.1992 24.2615 27.0695 25.1503 25.9992L24.6503 24.8695L25.5947 24.3938L26.0946 25.4641C26.539 25.2857 26.9835 25.2262 27.4834 25.2262L28.5944 27.7235C27.9278 27.3668 27.3723 27.3073 26.9279 27.4857C26.7612 27.5451 26.6501 27.6641 26.5946 27.8424C26.539 27.9614 26.539 28.1397 26.5946 28.2586C26.6501 28.437 26.9279 28.5559 27.3723 28.6749L27.9278 28.7938C28.2056 28.8532 28.4278 28.9127 28.65 29.0316C28.8722 29.1505 29.0388 29.21 29.2055 29.3884C29.3721 29.5073 29.5388 29.6857 29.6499 29.8641C29.761 30.0424 29.8721 30.2208 29.9832 30.4586C30.5943 31.5884 30.4832 32.6586 29.761 33.6695Z" fill="white"/>
</g>
<defs>
<clipPath id="clip0">
<rect width="44" height="44" fill="white" transform="translate(8 8)"/>
</clipPath>
</defs>
</svg>
