<svg width="20" height="20" viewBox="0 0 20 20" fill="none" xmlns="http://www.w3.org/2000/svg">
<path fill-rule="evenodd" clip-rule="evenodd" d="M9.96435 0.00512695C4.47045 0.00512695 0.0168457 4.45873 0.0168457 9.95263C0.0168457 15.4464 4.47045 19.9001 9.96435 19.9001C15.4582 19.9001 19.9118 15.4464 19.9118 9.95263C19.9118 4.45873 15.4582 0.00512695 9.96435 0.00512695Z" fill="#E0E0E0"/>
<path fill-rule="evenodd" clip-rule="evenodd" d="M15.5882 7.15537L14.6842 6.24417C14.497 6.05547 14.1923 6.05417 14.0036 6.24137L8.33379 11.8657L5.93549 9.44787C5.74829 9.25907 5.44349 9.25787 5.25479 9.44507L4.34349 10.3491C4.15479 10.5363 4.15359 10.841 4.34079 11.0298L7.98209 14.7005C8.16929 14.8893 8.47409 14.8906 8.66279 14.7033L15.5855 7.83617C15.7742 7.64897 15.7754 7.34417 15.5882 7.15537Z" fill="white"/>
</svg>
