<svg width="1440" height="317" viewBox="0 0 1440 317" fill="none" xmlns="http://www.w3.org/2000/svg">
<g clip-path="url(#clip0)">
<rect width="1440" height="317" fill="#F7F7F7"/>
<path d="M99.5 -5.5C110.125 -5.5 93.7626 27.0957 103.5 36.5C111.591 44.3146 140 15.5 165 15.5C187.5 15.5 191.147 43.8788 203.811 41.258C219.522 38.0064 230.745 13.7923 242.605 -2.77561C247.836 -10.0836 253.607 -16.9515 259.724 -21.3537C262.916 -23.6505 272 -22.9508 272 -31" stroke="black" stroke-opacity="0.1" stroke-linecap="round" stroke-linejoin="round"/>
<path d="M1318 346C1347.5 313.5 1362.19 256.966 1351.69 242.554C1342.96 230.578 1312.33 274.737 1285.37 274.737C1261.11 274.737 1257.18 231.246 1243.53 235.262C1226.59 240.245 1214.48 277.354 1201.7 302.745C1196.06 313.945 1189.83 324.47 1183.24 331.217C1179.8 334.737 1170 333.664 1170 346" stroke="black" stroke-opacity="0.1" stroke-linecap="round" stroke-linejoin="round"/>
<path d="M452 338.892C469 334.728 503.5 247 476 234C448.5 221 401.5 227 373.5 253C345.5 279 366.883 307.81 347.668 319.527C390.5 326 388.5 284 426 284C445.5 289.5 449.941 336.549 445.5 338.892" stroke="black" stroke-opacity="0.1" stroke-linecap="round" stroke-linejoin="round"/>
<path d="M829.961 316.274C809.29 297.671 779.926 288.485 755.75 275.326C743.786 268.814 727.824 264.386 714.21 264.386C681.165 264.386 649.911 263.74 618.417 275.03C607.159 279.066 596.404 286.688 586.782 293.657C575.878 301.552 570.527 315.349 559.581 322.927C551.471 328.541 545.104 336.589 537.259 342.588C531.806 346.757 526.54 353.996 519.963 356.188" stroke="black" stroke-opacity="0.1" stroke-linecap="round" stroke-linejoin="round"/>
<path d="M1185 -9C1188.04 14.1353 1126.5 49.0583 1089.5 43.5C1040 36.064 1070 -2.80328 1043 -9C1012.5 -16 1008.93 11.1906 983.555 20.6158C971.096 25.2435 960.009 31.6578 947.116 34.8813C938.823 36.9544 921.864 40.1059 913.78 36.064C890.636 24.4917 881.849 -1.68641 881.849 -25.6548" stroke="black" stroke-opacity="0.1" stroke-linecap="round" stroke-linejoin="round"/>
<path d="M1400.73 3.61552C1383.89 3.36418 1367.35 0.95459 1350.32 0.95459C1338.6 0.95459 1332.63 3.91475 1322.68 9.75043C1308.6 18.0027 1295.57 27.8895 1281.58 36.2858C1262.26 47.877 1243.78 60.3944 1225.85 74.1301C1208.99 87.042 1190.11 102.923 1169.23 108.722C1152.35 113.412 1135.77 112.714 1118.38 112.714C1090.88 112.714 1065.97 112.977 1042.54 129.714C1026.3 141.311 1017.08 159.471 1005.51 175.245C994.103 190.797 982.326 205.907 968.255 219.151C958.912 227.944 947.359 235.662 936.398 242.36C932.31 244.858 925.736 245.49 924.35 250.343C922.672 256.214 894.698 251.618 889.832 249.456C882.638 246.258 873.773 245.76 865.883 245.76" stroke="black" stroke-opacity="0.1" stroke-linecap="round" stroke-linejoin="round"/>
<path d="M787.386 -29.6461C766.122 -29.6461 749.595 -21.4886 731.654 -10.724C713.89 -0.0651999 694.976 13.2912 681.171 28.9682C664.271 48.1587 650.843 70.8562 635.639 91.4261C630.222 98.7547 623.726 105.212 618.121 112.418C611.108 121.436 604.647 130.957 596.834 139.323C568.322 169.85 526.636 188.55 485.223 188.55C456.383 188.55 427.989 186.635 400.812 198.011C388.719 203.073 376.336 209.523 366.22 217.894C352.323 229.395 337.2 239.1 321.724 248.421C308.631 256.306 295.488 264.052 281.662 270.595C267.612 277.245 253.162 285.674 237.165 285.674C224.997 285.674 212.744 283.21 200.577 284.491C184.402 286.194 165.775 302.515 154.676 313.614C144.654 323.636 135.754 334.811 126.293 345.323C121.142 351.046 118.256 358.756 112.841 364.171" stroke="black" stroke-opacity="0.1" stroke-linecap="round" stroke-linejoin="round"/>
<path d="M864.553 -13.6805C838.618 -11.4056 823.962 9.61407 807.047 26.529C792.811 40.7657 785.655 57.9442 775.707 75.1649C767.233 89.8349 758.895 106.082 747.472 118.775C743.639 123.033 735.292 124.861 730.176 127.349C704.873 139.649 677.915 148.482 651.383 157.654C623.011 167.461 595.607 181.59 575.547 204.516C552.383 230.988 533.083 261.198 517.006 292.326C497.366 330.353 457.022 348.596 416.482 354.858C397.749 357.752 378.937 356.909 360.307 359.145C354.245 359.872 349.161 362.841 343.011 362.841" stroke="black" stroke-opacity="0.1" stroke-linecap="round" stroke-linejoin="round"/>
<path d="M783.395 320.266C773.028 320.266 767.443 319.773 758.19 315.609C752.065 312.853 746.215 310.158 740.524 306.666C728.37 299.207 714.462 297.648 700.314 297.648C682.602 297.648 666.357 302.642 652.27 314.057C644.01 320.75 635.915 328.047 628.396 335.566C624.506 339.456 621.375 346.668 615.756 345.545" stroke="black" stroke-opacity="0.1" stroke-linecap="round" stroke-linejoin="round"/>
<path d="M1283.65 -5.69787C1272.81 -5.69787 1258.53 -8.03072 1247.73 -5.40221C1240.81 -3.72011 1233.53 1.27896 1227.1 4.35453C1210.83 12.1374 1200.35 23.2915 1187.04 34.8813C1158.83 59.4535 1124.69 69.7504 1088.66 76.7909C1074.97 79.4664 1056.61 80.0599 1042.83 77.3822C1030.28 74.9415 1018.12 70.0952 1005.58 67.7733C995.866 65.974 986.305 66.1472 976.459 66.1472C966.959 66.1472 954.918 65.489 946.45 70.8777C935.094 78.1043 925.504 88.1989 913.854 94.7522C908.042 98.0213 901.516 104.175 896.484 108.648C890.239 114.199 881.237 117.909 873.866 121.731C861.257 128.269 850.22 135.01 835.8 137.253C830.618 138.059 806.079 142.482 810.004 132.67" stroke="black" stroke-opacity="0.1" stroke-linecap="round" stroke-linejoin="round"/>
<path d="M-33.5103 120.696C-31.9482 93.0996 3.38847 77.0046 26.6563 70.1387C50.0911 63.2235 79.3535 62.1322 103.528 65.1125C119.054 67.0267 134.681 71.2752 150.389 71.4692C165.709 71.6583 181.043 71.4692 196.364 71.4692C212.595 71.4692 232.405 66.2754 245.887 56.5384C258.523 47.4126 270.42 36.0826 284.471 29.19C301.295 20.9365 320.611 19.9178 338.724 16.6245C360.672 12.6339 381.916 13.807 401.551 0.95459C416.282 -8.68692 426.71 -20.2124 438.804 -32.307" stroke="black" stroke-opacity="0.1" stroke-linecap="round" stroke-linejoin="round"/>
<path d="M-37.5017 247.09C-36.994 233.889 -29.7206 218.833 -22.7188 207.694C-13.7963 193.499 -3.05983 182.327 10.9863 173.324C41.9156 153.497 76.5061 150.095 112.175 145.384C144.264 141.146 175.906 139.602 208.338 139.323C233.441 139.106 260.666 133.069 282.105 120.401C294.413 113.128 304.439 101.983 313.741 91.3521C331.646 70.8885 354.86 54.8881 381.668 48.186C422.309 38.0259 465.232 34.8967 504.884 21.2071C522.767 15.0334 538.315 3.73885 552.189 -8.95005C568.863 -24.1985 585.812 -40.4415 597.13 -60.2468" stroke="black" stroke-opacity="0.1" stroke-linecap="round" stroke-linejoin="round"/>
<path d="M-36.1713 296.318C-15.4117 296.318 7.17948 299.338 26.9519 292.326C46.2942 285.467 65.8909 280.155 83.8661 270.004C114.165 252.894 131.376 222.529 158.816 201.855C187.7 180.093 220.164 169.33 255.348 162.236C286.722 155.911 320.214 163.686 351.659 158.615C358.397 157.528 365.233 157.252 371.985 156.323C378.243 155.463 384.45 152.005 390.39 149.893C406.286 144.241 420.375 137.081 434.887 128.679C449.581 120.172 462.04 109.438 474.653 98.1523C487.857 86.3378 497.936 71.8439 509.984 58.9037C533.21 33.9575 564.178 16.4954 596.538 6.27642C616.06 0.111516 635.324 -0.658165 655.522 -1.78028C662.841 -2.18688 670.007 -5.69775 676.957 -5.69775" stroke="black" stroke-opacity="0.1" stroke-linecap="round" stroke-linejoin="round"/>
<path d="M-29.5189 34.2161C-13.2788 34.2161 2.47319 34.7961 18.3778 31.8508C31.0006 29.5133 41.9408 23.9553 52.6742 17.2157C59.6003 12.8668 67.1965 7.69689 72.9268 2.28497C76.6617 -1.24245 82.7811 -8.09562 87.5619 -9.68921" stroke="black" stroke-opacity="0.1" stroke-linecap="round" stroke-linejoin="round"/>
<path d="M1460.6 10.2678C1444.29 10.2678 1426.69 11.3207 1411.37 17.5854C1395.13 24.2302 1382.54 34.9713 1369.54 46.486C1357.65 57.018 1349.14 69.0997 1339.97 81.965C1328.59 97.936 1314.67 111.756 1301.46 126.166C1287.7 141.176 1272.36 152.329 1253.05 159.28C1232.6 166.641 1211.36 165.932 1189.93 165.932C1171.25 165.932 1152.57 165.932 1133.9 165.932C1124.74 165.932 1114.73 167.126 1107.14 172.88C1083.68 190.68 1065.93 213.856 1049.49 238.073C1021.6 279.139 981.442 321.596 928.415 321.596" stroke="black" stroke-opacity="0.1" stroke-linecap="round" stroke-linejoin="round"/>
<path d="M1474.88 33.7716C1455.51 33.7716 1433.12 29.7348 1416.04 40.1282C1408.1 44.964 1401.83 52.1288 1395.35 58.7547C1391.09 63.1078 1384.88 69.6217 1382.04 75.0159C1373.71 90.8419 1371.01 110.947 1365.49 127.939C1357.05 153.866 1343.24 175.973 1321.06 192.688C1298.89 209.403 1286 205.5 1253.5 205.5C1233.93 205.5 1211.97 202.237 1193.85 210.822C1140.84 235.93 1134.33 329.464 1069.75 329.464" stroke="black" stroke-opacity="0.1" stroke-linecap="round" stroke-linejoin="round"/>
<path d="M1438.5 320.34C1423 299.5 1405.5 277.347 1386.09 287.004C1364 298 1372.55 308.386 1360 320.34C1355.23 324.886 1338.35 330.333 1334.21 335.419C1331.38 338.886 1327.66 341.226 1326.22 345.545" stroke="black" stroke-opacity="0.1" stroke-linecap="round" stroke-linejoin="round"/>
<path d="M1296.28 340.667C1280.78 319.827 1263.28 297.674 1243.87 307.331C1221.78 318.327 1230.33 328.713 1217.78 340.667C1213 345.213 1196.13 350.66 1191.98 355.745C1189.16 359.213 1185.44 361.553 1184 365.872" stroke="black" stroke-opacity="0.1" stroke-linecap="round" stroke-linejoin="round"/>
<path d="M1457.94 257.734C1419.26 256.052 1409.67 220.881 1414.33 188.254C1416.42 173.633 1427.94 157.094 1435.99 144.718C1440.1 138.39 1447.6 132.67 1455.28 132.67" stroke="black" stroke-opacity="0.1" stroke-linecap="round" stroke-linejoin="round"/>
<path d="M1446 286C1394.95 282.908 1382.28 218.224 1388.43 158.222C1391.19 131.332 1406.4 100.917 1417.02 78.1572C1422.45 66.5189 1432.35 56 1442.49 56" stroke="black" stroke-opacity="0.1" stroke-linecap="round" stroke-linejoin="round"/>
</g>
<defs>
<clipPath id="clip0">
<rect width="1440" height="317" fill="white"/>
</clipPath>
</defs>
</svg>
