<svg width="60" height="60" viewBox="0 0 60 60" fill="none" xmlns="http://www.w3.org/2000/svg">
<rect width="60" height="60" rx="30" fill="#F7F7F7"/>
<path fill-rule="evenodd" clip-rule="evenodd" d="M47.8963 30.2513C47.7136 27.1444 43.6927 16.1787 27.9752 17.6407C24.6856 18.0063 21.0304 20.1994 21.0304 20.1994C21.0304 20.1994 17.9233 18.0063 14.4508 18.92C12.9888 19.4683 16.2786 22.9408 16.0957 24.2201C16.0957 24.2201 13.3542 27.5099 12.8059 28.9719C10.6864 28.9719 8.9679 30.6902 8.9679 32.81V37.1962C8.9679 37.1962 12.2577 41.5825 17.7406 43.593C19.02 44.1412 20.482 52 20.482 52H24.8683C24.8683 52 25.9649 50.5379 26.5132 47.2481C26.5132 47.2481 31.8132 48.3448 35.2859 47.0654L36.7477 52H40.9513C40.9513 52 42.7791 47.6137 44.0582 41.7654C44.0582 41.7654 47.1654 39.7549 47.8963 34.8204H49.0843C50.346 34.8204 51.3688 33.7975 51.3688 32.5358C51.3688 31.2742 50.346 30.2513 49.0843 30.2513H47.8963Z" fill="white"/>
<path fill-rule="evenodd" clip-rule="evenodd" d="M21.0436 19.6838L20.8772 19.5845L20.7153 19.4923C20.4394 19.339 20.1343 19.1874 19.8031 19.0444C18.0518 18.2883 16.1843 18.0089 14.3389 18.4945L14.2964 18.5081C13.634 18.7564 13.5052 19.3615 13.7509 20.122L13.797 20.2572C13.9092 20.569 14.066 20.8917 14.333 21.3728L14.5362 21.7331L14.8492 22.2771C15.4097 23.2587 15.6445 23.7577 15.6635 24.0526L15.326 24.4688L14.9233 24.9768C14.6244 25.3584 14.3293 25.7461 14.0488 26.1284C13.9088 26.3191 13.7749 26.5053 13.6479 26.6862C13.1269 27.428 12.7384 28.0529 12.5106 28.542C10.2858 28.6937 8.52795 30.5465 8.52795 32.81V37.3429L8.61596 37.4602C8.6364 37.4875 8.66462 37.524 8.70052 37.5692L8.83119 37.7305L8.99623 37.9272C9.18715 38.151 9.40497 38.3941 9.64904 38.6521C10.4839 39.5346 11.4563 40.4164 12.5578 41.2397C14.1087 42.399 15.7894 43.3461 17.5892 44.0061C17.6049 44.0133 17.6618 44.0691 17.736 44.1695L17.8034 44.2664C18.1719 44.8294 18.5868 45.9791 19.0102 47.5289L19.1081 47.8936C19.3493 48.8087 19.5778 49.7907 19.7859 50.7729L19.8696 51.1732L20.0495 52.0804L20.1164 52.4399H25.0883L25.2617 52.2072C25.5295 51.8307 25.8971 51.1313 26.2588 50.0864C26.5002 49.3891 26.7067 48.6145 26.8688 47.7607L27.2265 47.8188C27.4128 47.8476 27.6101 47.8759 27.8171 47.9031C29.3545 48.105 30.9294 48.1867 32.4068 48.0782C33.3554 48.0086 34.223 47.8619 34.9935 47.6274L36.4192 52.4399H41.2447L41.408 52.0456L41.5472 51.6939L41.7481 51.1685L41.9655 50.5789L42.1689 50.0095C42.6363 48.6809 43.1013 47.222 43.5376 45.6647C43.8734 44.4662 44.1801 43.2511 44.4512 42.0271C44.5502 41.9536 44.6701 41.8577 44.8071 41.7386L44.9794 41.5845C45.4709 41.1332 45.9606 40.5773 46.4167 39.9111C47.3018 38.6182 47.9513 37.0721 48.2707 35.2604H49.0843C50.5891 35.2604 51.8088 34.0405 51.8088 32.5358C51.8088 31.0311 50.589 29.8113 49.0843 29.8113H48.298C48.0181 27.4953 46.5156 24.3273 44.0701 21.9191C40.4801 18.384 35.2312 16.587 28.2273 17.1766L27.9267 17.2034C27.6213 17.2373 27.3074 17.2869 26.9857 17.3512C25.8649 17.5754 24.6771 17.9714 23.4671 18.4899C22.7893 18.7805 22.1465 19.0915 21.5587 19.4027L21.2867 19.5489L21.0436 19.6838ZM27.1583 18.2141C27.3804 18.1697 27.5976 18.133 27.8097 18.1044L28.02 18.0784L28.3103 18.0527C35.0587 17.4863 40.0512 19.1967 43.4526 22.5461C45.8914 24.9477 47.3322 28.1529 47.4571 30.2771L47.4815 30.6912H49.0843C50.103 30.6912 50.9288 31.5171 50.9288 32.5357C50.9288 33.5545 50.103 34.3804 49.0843 34.3804H47.5167L47.4611 34.7559C47.1887 36.5948 46.5626 38.1401 45.6906 39.4139C45.2737 40.0229 44.8281 40.5288 44.3843 40.9363C44.2613 41.0492 44.146 41.1475 44.0403 41.2316L43.9221 41.3227L43.8356 41.385L43.6672 41.4943L43.6285 41.6713C43.3521 42.935 43.0369 44.19 42.6903 45.4272C42.2593 46.9653 41.8002 48.406 41.3388 49.7172L41.1383 50.2787C41.0891 50.4144 41.041 50.5457 40.994 50.6722L40.8568 51.0377L40.6771 51.5025L40.6545 51.5599H37.0764L35.5744 46.4902L35.1338 46.6525C34.3432 46.9438 33.4019 47.1228 32.3424 47.2006C30.9327 47.304 29.4145 47.2253 27.9318 47.0306C27.7169 47.0024 27.5131 46.9729 27.322 46.9431L26.9569 46.8829C26.8337 46.8616 26.7371 46.8437 26.6694 46.8306L26.1544 46.7245L26.0792 47.1758C25.9157 48.1567 25.6934 49.0297 25.4272 49.7985C25.2219 50.3917 25.003 50.8877 24.7858 51.29L24.7032 51.4388L24.6319 51.5599H20.8453L20.7315 50.9958C20.7046 50.865 20.6763 50.7297 20.6468 50.5904L20.5396 50.0931C20.3583 49.2652 20.1634 48.4447 19.959 47.6692L19.8522 47.2714C19.4077 45.6472 18.9716 44.4442 18.5396 43.7844C18.3476 43.4912 18.1483 43.2889 17.914 43.1885C16.1776 42.5511 14.5707 41.6456 13.0847 40.5349C12.0258 39.7434 11.0902 38.895 10.2883 38.0473C10.055 37.8007 9.84744 37.5691 9.66626 37.3567L9.47649 37.1296L9.40797 37.045V32.8099C9.40797 30.9333 10.9294 29.4119 12.806 29.4119H13.1109L13.218 29.1264C13.3509 28.7718 13.6489 28.2531 14.076 27.6168L14.2668 27.337L14.4937 27.0144L14.7583 26.6489C15.1246 26.1496 15.5178 25.6394 15.911 25.1462L16.1097 24.8985L16.4338 24.5018L16.5137 24.4059L16.5314 24.2823C16.6013 23.7929 16.4481 23.344 15.9034 22.355L15.6989 21.9902L15.2438 21.1973C14.9198 20.6264 14.7439 20.2809 14.6324 19.9788L14.5883 19.8515C14.4743 19.4986 14.4895 19.3854 14.5899 19.3385C16.2106 18.9196 17.8772 19.1714 19.4543 19.8523C19.8179 20.0093 20.1467 20.1773 20.4343 20.3448L20.5665 20.4236C20.6656 20.4839 20.7364 20.5304 20.7767 20.5588L21.011 20.7242L21.346 20.5244L21.6368 20.3606C21.6712 20.3416 21.7065 20.3222 21.7427 20.3026L21.9704 20.1804C22.5381 19.8799 23.1595 19.5792 23.8138 19.2988C24.972 18.8024 26.1042 18.425 27.1583 18.2141Z" fill="#262626"/>
<path fill-rule="evenodd" clip-rule="evenodd" d="M22.8579 51.269L24.334 51.2592C24.334 51.2592 25.1598 49.6607 25.8735 46.6999C25.2404 49.4613 22.8579 51.269 22.8579 51.269Z" fill="#E8E8E8"/>
<path fill-rule="evenodd" clip-rule="evenodd" d="M19.6597 21.57C19.6597 21.57 20.0673 21.3258 20.7308 20.9873C19.6501 20.4399 17.1091 19.1363 14.9166 19.5483C17.3093 19.7514 19.6597 21.57 19.6597 21.57Z" fill="#E8E8E8"/>
<path fill-rule="evenodd" clip-rule="evenodd" d="M41.4277 41.4795C40.4073 46.5598 38.9868 50.4724 38.7582 51.0862H40.3946C40.3946 51.0862 41.9839 46.9318 43.0964 41.3931C43.0964 41.3931 45.707 39.4914 46.3429 34.8178C45.707 39.4914 41.4277 41.4795 41.4277 41.4795Z" fill="#E8E8E8"/>
<path fill-rule="evenodd" clip-rule="evenodd" d="M46.9826 30.5854C46.8245 27.7369 43.3786 17.7557 29.9857 18.876C41.9937 18.6868 45.1557 27.9442 45.3069 30.6699L46.9826 30.5854Z" fill="#E8E8E8"/>
<path fill-rule="evenodd" clip-rule="evenodd" d="M41.715 15.3105C41.715 19.3478 38.4419 22.6209 34.4045 22.6209C30.3669 22.6209 27.094 19.3478 27.094 15.3105C27.094 11.2731 30.3669 8.00003 34.4045 8.00003C38.4419 8.00003 41.715 11.2731 41.715 15.3105Z" fill="#545454"/>
<path fill-rule="evenodd" clip-rule="evenodd" d="M34.372 22.758C31.4275 22.758 28.7843 21.0384 27.6266 18.5296C28.6629 21.3069 31.2334 23.3063 34.372 23.3063C36.4764 23.3063 38.2758 22.3601 39.5773 20.9181C39.8366 20.6309 39.7757 20.6091 39.4763 20.8763C38.1377 22.0702 36.2949 22.758 34.372 22.758Z" fill="#E8E8E8"/>
<path fill-rule="evenodd" clip-rule="evenodd" d="M35.0791 11.1984V12.1187C35.4961 12.1636 35.8644 12.2761 36.196 12.4618L36.4266 12.5902L35.9605 13.7617L35.6631 13.6014C35.5087 13.5179 35.1465 13.3219 34.5733 13.3219C34.0309 13.3219 33.8374 13.579 33.8374 13.8201C33.8374 14.0808 33.9853 14.255 34.8593 14.5986C35.6529 14.9055 36.566 15.4091 36.566 16.5781C36.566 17.454 35.9552 18.1612 35.0203 18.4014V19.4227H33.8038V18.4669C33.2865 18.4139 32.7735 18.2506 32.4395 18.0246L32.243 17.8912L32.6918 16.7023L33.0035 16.8996C33.3525 17.1205 33.8182 17.2527 34.2507 17.2527C34.7674 17.2527 35.1147 17.007 35.1147 16.643C35.1147 16.3973 35.0041 16.127 34.2016 15.8181C33.3105 15.4858 32.3956 15.0016 32.3956 13.9312C32.3956 13.0829 32.9669 12.4208 33.8723 12.1909V11.1984H35.0791Z" fill="white"/>
<path d="M28.5428 27.1644C31.0186 24.817 37.8505 25.0443 39.2992 27.5475C39.421 27.7579 39.6901 27.8297 39.9005 27.708C40.1108 27.5862 40.1826 27.3171 40.0609 27.1067C38.3011 24.066 30.795 23.8164 27.9373 26.5258C27.761 26.693 27.7536 26.9715 27.9207 27.1478C28.0879 27.3241 28.3664 27.3316 28.5428 27.1644Z" fill="#262626"/>
<path d="M16.7273 30.7353C17.7484 29.1863 20.228 29.1678 21.2783 30.6831C21.4168 30.8829 21.6909 30.9325 21.8906 30.7941C22.0903 30.6557 22.14 30.3816 22.0016 30.1818C20.5974 28.156 17.3576 28.1801 15.9926 30.251C15.8589 30.4539 15.9149 30.7268 16.1178 30.8605C16.3207 30.9942 16.5936 30.9382 16.7273 30.7353Z" fill="#202020"/>
</svg>
