<svg width="74" height="74" viewBox="0 0 74 74" fill="none" xmlns="http://www.w3.org/2000/svg">
<g clip-path="url(#clip0)">
<path d="M25.124 20.8874V25.0495H26.0759C27.2773 25.0495 27.8222 24.4653 27.8222 22.8306V22.5746H29.2205V29.0345H27.8222V28.7587C27.8222 27.1372 27.2773 26.5201 26.0759 26.5201H25.124V31.1746H29.1155C30.934 31.1746 31.5905 29.9733 31.8071 27.6755H33.258V32.6583H20.1478V31.1746H21.2572C21.9466 31.1746 22.3142 30.9843 22.3142 29.7829V22.0165C22.3142 21.15 21.9203 20.8874 20.9946 20.8874H20.5876C19.6357 20.8874 19.1827 21.1106 18.8479 22.1019L15.2306 32.6583H12.4799L10.3857 25.7783H10.3464L8.02235 32.6583H5.23881L1.48367 21.5964C1.31948 21.0515 1.03725 20.8874 0.275724 20.8874H0V19.4103H5.79028V20.8874H4.94996C4.51011 20.8874 4.33286 21.15 4.33286 21.4126C4.33286 21.6095 4.40512 21.859 4.51011 22.1347L7.01793 29.5268H7.05725L9.4469 22.5746L9.11208 21.6292C8.90858 21.0384 8.50812 20.8874 7.92383 20.8874H7.45116V19.4103H13.4318V20.8874H12.3749C11.9678 20.8874 11.8103 21.0646 11.8103 21.3272C11.8103 21.5307 11.9088 21.813 11.9745 22.0034L14.1672 29.3955H14.2065L16.7537 22.1741C16.8325 21.9378 16.9046 21.7408 16.9046 21.4913C16.9046 21.1762 16.7537 20.8874 16.0512 20.8874H15.0861V19.4103H33.2579V23.9401H31.7676C31.4657 22.0231 31.295 20.8874 28.6362 20.8874H25.124ZM46.8999 32.6583V27.6755H45.3703C45.1668 29.9536 44.7532 31.1746 42.6786 31.1746H39.6653V21.8065C39.6653 21.0712 39.9673 20.8874 40.847 20.8874H41.9696V19.4103H34.6497V20.8874H35.8051C36.6061 20.8874 36.8752 21.15 36.8752 21.7539V30.2884C36.8752 30.9843 36.4945 31.1746 35.9299 31.1746H34.6497V32.6583H46.8999ZM60.4959 32.6583V27.6755H58.9597C58.7562 29.9536 58.3295 31.1746 56.2812 31.1746H53.2613V21.8065C53.2613 21.0712 53.5633 20.8874 54.443 20.8874H55.5591V19.4103H48.2326V20.8874H49.3946C50.2021 20.8874 50.4712 21.15 50.4712 21.7539V30.2884C50.4712 30.9843 50.0839 31.1746 49.5259 31.1746H48.2326V32.6583H60.4959ZM70.5797 20.4081C70.455 20.2834 69.2338 19.0164 66.8508 19.0164C64.3495 19.0164 61.822 20.2834 61.822 23.0013C61.822 25.4631 63.7849 26.5857 66.0433 27.0715C66.7917 27.2291 67.2381 27.3144 67.9209 27.4589C69.6146 27.82 70.7438 28.332 70.7438 29.5071C70.7438 30.4 69.7984 31.3585 67.9274 31.3585C65.3146 31.3585 63.7652 29.901 63.4436 27.6755H61.9074V32.6583H63.2663L63.7062 31.4701C64.0278 31.7523 65.3014 33.0522 67.7239 33.0522C70.8094 33.0522 73.14 31.6801 73.14 28.9688C73.14 26.3428 70.967 25.2137 68.3147 24.6819C67.8421 24.5637 67.4088 24.4915 66.923 24.3799C65.2752 24.0254 64.2182 23.6184 64.2182 22.4367C64.2182 21.4126 65.3014 20.7101 66.9295 20.7101C69.3783 20.7101 70.3236 22.266 70.8291 23.9401H72.3194V19.4103H71.2427L70.5797 20.4081ZM9.77514 53.3116V51.8214H8.77727C7.85162 51.8214 7.51025 51.5457 7.51025 50.7973V47.1865H8.33086C9.57164 47.1865 10.11 47.7249 10.11 49.1298V49.5696H11.5017V43.4708H10.11V43.7334C10.11 44.7641 9.73575 45.7094 8.44903 45.7094H7.51025V41.5341H10.1165C13.0511 41.5341 13.3596 43.0112 13.5565 44.5803H14.9877V40.057H2.44867V41.5341H3.77479C4.3722 41.5341 4.70701 41.8033 4.70701 42.2825V50.8432C4.70701 51.4012 4.40502 51.8214 3.696 51.8214H2.44867V53.3116H9.77514ZM65.2555 39.6565C60.9095 39.6565 58.0341 42.6961 58.0341 46.681C58.0341 50.6594 60.9095 53.7252 65.2555 53.7252C69.5884 53.7252 72.4704 50.6594 72.4704 46.681C72.4704 42.6961 69.5884 39.6565 65.2555 39.6565ZM65.2555 41.219C68.3935 41.219 69.3323 43.8253 69.3323 46.681C69.3323 49.5368 68.3935 52.1496 65.2555 52.1496C62.0977 52.1496 61.1655 49.5368 61.1655 46.681C61.1655 43.8253 62.0977 41.219 65.2555 41.219ZM53.0316 41.1402C52.7427 40.8842 51.5019 39.6566 49.0532 39.6566C45.1339 39.6566 42.6721 42.6436 42.6721 46.681C42.6721 50.7513 45.1733 53.7252 49.0532 53.7252C51.5479 53.7252 52.9003 52.5829 53.2088 52.3006L53.9507 53.3116H55.3096V48.7162C55.3096 47.9349 55.5985 47.7249 56.3731 47.7249H56.7407V46.2412H50.6222V47.7249H51.5282C52.1847 47.7249 52.5852 48.0203 52.5852 48.6637V49.4383C52.5852 50.9548 51.6529 52.0118 49.6244 52.0118C47.0837 52.0118 45.8101 49.7272 45.8101 46.681C45.8101 43.6809 47.0837 41.3831 49.5456 41.3831C52.1125 41.3831 52.9856 43.7728 53.281 44.5803H54.9223V40.057H53.5239L53.0316 41.1402ZM42.009 50.1999V50.5609C42.009 52.8455 40.9192 53.7252 39.2649 53.7252C37.3282 53.7252 36.6783 52.793 36.6783 50.9876V50.2983C36.6783 48.0203 35.7067 47.1012 33.4877 47.1012H32.4373V51.1058C32.4373 51.6376 32.6802 51.8214 33.258 51.8214H34.7154V53.3116H21.4804V51.8214H22.951C23.358 51.8214 23.509 51.7229 23.509 51.4866C23.509 51.3619 23.4697 51.1583 23.3909 50.9417C23.3186 50.7644 22.695 49.0576 22.695 49.0576H17.9682C17.9682 49.0576 17.384 50.6331 17.2855 50.8957C17.2198 51.0927 17.1673 51.2568 17.1673 51.4472C17.1673 51.7295 17.4037 51.8214 17.7976 51.8214H19.2025V53.3116H12.9658V51.8214C14.0227 51.8214 14.6923 51.6704 15.0665 50.7448L19.2944 40.057H21.835L26.1679 50.7448C26.5289 51.6835 27.2117 51.8214 28.2686 51.8214H28.807C29.3781 51.8214 29.6342 51.6376 29.6342 51.1058V42.2563C29.6342 41.7245 29.4306 41.5341 28.807 41.5341H27.4152V40.057H36.1203C39.0089 40.057 40.3678 41.4225 40.3678 43.4905C40.3678 46.0574 37.8141 46.5629 36.6193 46.6285V46.6614C38.0176 46.7664 39.1993 47.3441 39.1993 49.3858V50.1605C39.1993 51.5194 39.4881 51.8214 39.9674 51.8214C40.4401 51.8214 40.6895 51.4472 40.6895 50.5609V50.1999H42.009ZM22.1501 47.587L20.3644 42.7618H20.3054L18.5197 47.587H22.1501ZM37.5843 43.5758C37.5843 42.4138 36.7505 41.5341 34.8992 41.5341H32.4373V45.6241H34.8992C36.6061 45.6241 37.5843 44.856 37.5843 43.5758Z" fill="#262626"/>
</g>
<defs>
<clipPath id="clip0">
<rect width="73.14" height="73.14" fill="white"/>
</clipPath>
</defs>
</svg>
