<svg width="160" height="160" viewBox="0 0 160 160" fill="none" xmlns="http://www.w3.org/2000/svg">
<path d="M0 80C0 35.8172 35.8172 0 80 0C124.183 0 160 35.8172 160 80C160 124.183 124.183 160 80 160C35.8172 160 0 124.183 0 80Z" fill="#F7F7F7"/>
<path d="M122.847 96.9567H38.5616C34.9253 96.9567 32.0681 94.1009 32.0681 90.4663V69.5673C32.0681 65.9327 34.9253 63.0769 38.5616 63.0769H122.847C126.484 63.0769 129.341 65.9327 129.341 69.5673V90.4663C129.341 93.9711 126.354 96.9567 122.847 96.9567Z" fill="white" stroke="#202020" stroke-miterlimit="10" stroke-linejoin="round"/>
<path d="M55.4446 85.6634C58.6005 85.6634 61.1589 83.1063 61.1589 79.9519C61.1589 76.7975 58.6005 74.2404 55.4446 74.2404C52.2887 74.2404 49.7303 76.7975 49.7303 79.9519C49.7303 83.1063 52.2887 85.6634 55.4446 85.6634Z" fill="#202020"/>
<path d="M72.3279 85.6634C75.4838 85.6634 78.0422 83.1063 78.0422 79.9519C78.0422 76.7975 75.4838 74.2404 72.3279 74.2404C69.172 74.2404 66.6136 76.7975 66.6136 79.9519C66.6136 83.1063 69.172 85.6634 72.3279 85.6634Z" fill="#202020"/>
<path d="M89.0812 85.6634C92.2371 85.6634 94.7955 83.1063 94.7955 79.9519C94.7955 76.7975 92.2371 74.2404 89.0812 74.2404C85.9253 74.2404 83.3669 76.7975 83.3669 79.9519C83.3669 83.1063 85.9253 85.6634 89.0812 85.6634Z" fill="#202020"/>
<path d="M105.964 85.6634C109.12 85.6634 111.678 83.1063 111.678 79.9519C111.678 76.7975 109.12 74.2404 105.964 74.2404C102.808 74.2404 100.25 76.7975 100.25 79.9519C100.25 83.1063 102.808 85.6634 105.964 85.6634Z" fill="#202020"/>
<path fill-rule="evenodd" clip-rule="evenodd" d="M144.308 100C144.308 109.178 136.868 116.615 127.692 116.615C118.517 116.615 111.077 109.178 111.077 100C111.077 90.8269 118.517 83.3846 127.692 83.3846C136.868 83.3846 144.308 90.8269 144.308 100Z" fill="#ED3963"/>
<path fill-rule="evenodd" clip-rule="evenodd" d="M125.263 101.384L124.766 92.272C124.741 91.8116 125.108 91.4243 125.569 91.4243H129.815C130.277 91.4243 130.643 91.8116 130.618 92.272L130.121 101.384C130.098 101.81 129.745 102.144 129.318 102.144H126.066C125.639 102.144 125.286 101.81 125.263 101.384ZM124.61 106.432C124.61 104.73 125.99 103.35 127.692 103.35C129.394 103.35 130.774 104.73 130.774 106.432C130.774 108.134 129.394 109.514 127.692 109.514C125.99 109.514 124.61 108.134 124.61 106.432Z" fill="white"/>
</svg>
